<svg width="140" height="140" viewBox="0 0 140 140" fill="none" xmlns="http://www.w3.org/2000/svg">
<g clip-path="url(#clip0)">
<path fill-rule="evenodd" clip-rule="evenodd" d="M64.9587 113.019C87.2376 113.019 110.761 115.283 110.761 115.283V122.558C110.761 127.823 90.237 132.097 64.9587 132.097C39.6797 132.097 19.1567 127.823 19.1567 122.558C19.1118 122.62 19.1567 115.087 19.1567 115.087C19.1567 115.087 43.5699 113.019 64.9587 113.019Z" fill="#8585E0"/>
<path fill-rule="evenodd" clip-rule="evenodd" d="M64.9583 105.744C90.2366 105.744 110.76 110.019 110.76 115.284C110.76 120.549 90.2366 124.824 64.9583 124.824C39.6793 124.824 19.1562 120.549 19.1562 115.284C19.1562 110.019 39.6793 105.744 64.9583 105.744Z" fill="#9696E6"/>
<mask id="mask0" mask-type="alpha" maskUnits="userSpaceOnUse" x="19" y="105" width="92" height="20">
<path d="M19.1562 115.284C19.1562 120.55 39.6793 124.825 64.9575 124.825C90.2358 124.825 110.76 120.55 110.76 115.284C110.76 110.02 90.2358 105.745 64.9575 105.745C39.6793 105.745 19.1562 110.02 19.1562 115.284Z" fill="white"/>
</mask>
<g mask="url(#mask0)">
<path fill-rule="evenodd" clip-rule="evenodd" d="M69.6028 102.812C94.8811 102.812 115.404 107.086 115.404 112.352C115.404 117.616 94.8811 121.891 69.6028 121.891C44.3238 121.891 23.8008 117.616 23.8008 112.352C23.8008 107.086 44.3238 102.812 69.6028 102.812Z" fill="#7B7BDE"/>
</g>
<path fill-rule="evenodd" clip-rule="evenodd" d="M64.9588 109.072C81.4206 109.072 94.7849 111.856 94.7849 115.284C94.7849 118.713 81.4206 121.496 64.9588 121.496C48.4971 121.496 35.1328 118.713 35.1328 115.284C35.1328 111.856 48.4971 109.072 64.9588 109.072Z" fill="#C5C5F2"/>
<path fill-rule="evenodd" clip-rule="evenodd" d="M64.9599 112.352C72.7335 112.352 79.0447 113.666 79.0447 115.284C79.0447 116.904 72.7335 118.218 64.9599 118.218C57.1862 118.218 50.875 116.904 50.875 115.284C50.875 113.666 57.1862 112.352 64.9599 112.352Z" fill="#6969DB"/>
<path fill-rule="evenodd" clip-rule="evenodd" d="M90.9526 14.126C116.237 14.126 136.764 34.6528 136.764 59.9356C136.764 85.2185 116.237 105.745 90.9526 105.745C65.6682 105.745 45.1406 85.2185 45.1406 59.9356C45.1406 34.6528 65.6682 14.126 90.9526 14.126Z" fill="#9191E3"/>
<mask id="mask1" mask-type="alpha" maskUnits="userSpaceOnUse" x="45" y="14" width="92" height="92">
<path d="M45.1367 59.9356C45.1367 85.2185 65.6651 105.745 90.9487 105.745C116.233 105.745 136.761 85.2185 136.761 59.9356C136.761 34.6536 116.233 14.126 90.9487 14.126C65.6651 14.126 45.1367 34.6536 45.1367 59.9356Z" fill="white"/>
</mask>
<g mask="url(#mask1)">
<path fill-rule="evenodd" clip-rule="evenodd" d="M104.011 -19.3564C129.295 -19.3564 149.823 1.16961 149.823 26.4525C149.823 51.7353 129.295 72.2621 104.011 72.2621C78.7268 72.2621 58.1992 51.7353 58.1992 26.4525C58.1992 1.16961 78.7268 -19.3564 104.011 -19.3564Z" fill="#9E9EE7"/>
</g>
<path fill-rule="evenodd" clip-rule="evenodd" d="M90.9501 30.0996C107.415 30.0996 120.782 43.4685 120.782 59.9348C120.782 76.4011 107.415 89.7699 90.9501 89.7699C74.4853 89.7699 61.1172 76.4011 61.1172 59.9348C61.1172 43.4685 74.4853 30.0996 90.9501 30.0996Z" fill="white"/>
<path fill-rule="evenodd" clip-rule="evenodd" d="M90.952 45.8457C98.7271 45.8457 105.04 52.1584 105.04 59.9344C105.04 67.7103 98.7271 74.023 90.952 74.023C83.1768 74.023 76.8633 67.7103 76.8633 59.9344C76.8633 52.1584 83.1768 45.8457 90.952 45.8457Z" fill="#9191E3"/>
<mask id="mask2" mask-type="alpha" maskUnits="userSpaceOnUse" x="76" y="45" width="30" height="30">
<path d="M76.8594 59.9344C76.8594 67.7103 83.1729 74.0238 90.948 74.0238C98.7232 74.0238 105.037 67.7103 105.037 59.9344C105.037 52.1584 98.7232 45.8457 90.948 45.8457C83.1729 45.8457 76.8594 52.1584 76.8594 59.9344Z" fill="white"/>
</mask>
<g mask="url(#mask2)">
<path fill-rule="evenodd" clip-rule="evenodd" d="M104.011 -19.3584C129.295 -19.3584 149.823 1.16766 149.823 26.4505C149.823 51.7333 129.295 72.2602 104.011 72.2602C78.7268 72.2602 58.1992 51.7333 58.1992 26.4505C58.1992 1.16766 78.7268 -19.3584 104.011 -19.3584Z" fill="#9E9EE7"/>
</g>
<path fill-rule="evenodd" clip-rule="evenodd" d="M90.9508 57.0684C92.5311 57.0684 93.8149 58.3529 93.8149 59.9347C93.8149 61.5165 92.5311 62.8011 90.9508 62.8011C89.3705 62.8011 88.0859 61.5165 88.0859 59.9347C88.0859 58.3529 89.3705 57.0684 90.9508 57.0684Z" fill="white"/>
<path fill-rule="evenodd" clip-rule="evenodd" d="M69.3763 99.8428C91.6559 99.8428 115.178 102.107 115.178 102.107V109.382C115.178 114.647 94.6545 118.922 69.3763 118.922C44.098 118.922 23.575 114.647 23.575 109.382C23.5294 109.445 23.575 101.911 23.575 101.911C23.575 101.911 47.9875 99.8428 69.3763 99.8428Z" fill="#8585E0"/>
<path fill-rule="evenodd" clip-rule="evenodd" d="M69.3755 92.5674C94.6538 92.5674 115.177 96.8423 115.177 102.107C115.177 107.372 94.6538 111.647 69.3755 111.647C44.0972 111.647 23.5742 107.372 23.5742 102.107C23.5742 96.8423 44.0972 92.5674 69.3755 92.5674Z" fill="#9696E6"/>
<mask id="mask3" mask-type="alpha" maskUnits="userSpaceOnUse" x="23" y="92" width="93" height="20">
<path d="M23.5742 102.108C23.5742 107.374 44.0972 111.648 69.3755 111.648C94.6546 111.648 115.178 107.374 115.178 102.108C115.178 96.8442 94.6546 92.5693 69.3755 92.5693C44.0972 92.5693 23.5742 96.8442 23.5742 102.108Z" fill="white"/>
</mask>
<g mask="url(#mask3)">
<path fill-rule="evenodd" clip-rule="evenodd" d="M60.1333 92.5693C85.4124 92.5693 105.935 96.8442 105.935 102.109C105.935 107.374 85.4124 111.649 60.1333 111.649C34.855 111.649 14.332 107.374 14.332 102.109C14.332 96.8442 34.855 92.5693 60.1333 92.5693Z" fill="#7B7BDE"/>
</g>
<path fill-rule="evenodd" clip-rule="evenodd" d="M69.3729 95.8965C85.8346 95.8965 99.1989 98.68 99.1989 102.108C99.1989 105.537 85.8346 108.321 69.3729 108.321C52.9112 108.321 39.5469 105.537 39.5469 102.108C39.5469 98.68 52.9112 95.8965 69.3729 95.8965Z" fill="#C5C5F2"/>
<path fill-rule="evenodd" clip-rule="evenodd" d="M69.3739 99.1738C77.1476 99.1738 83.4588 100.488 83.4588 102.107C83.4588 103.727 77.1476 105.041 69.3739 105.041C61.6003 105.041 55.2891 103.727 55.2891 102.107C55.2891 100.488 61.6003 99.1738 69.3739 99.1738Z" fill="#6969DB"/>
<path fill-rule="evenodd" clip-rule="evenodd" d="M59.8458 89.1025C82.1246 89.1025 105.647 91.3677 105.647 91.3677V98.6427C105.647 103.907 85.124 108.182 59.8458 108.182C34.5667 108.182 14.0437 103.907 14.0437 98.6427C13.9981 98.7043 14.0437 91.1708 14.0437 91.1708C14.0437 91.1708 38.4562 89.1025 59.8458 89.1025Z" fill="#8585E0"/>
<path fill-rule="evenodd" clip-rule="evenodd" d="M59.8489 81.8291C85.1272 81.8291 105.65 86.104 105.65 91.3693C105.65 96.6346 85.1272 100.909 59.8489 100.909C34.5699 100.909 14.0469 96.6346 14.0469 91.3693C14.0469 86.104 34.5699 81.8291 59.8489 81.8291Z" fill="#9696E6"/>
<mask id="mask4" mask-type="alpha" maskUnits="userSpaceOnUse" x="14" y="81" width="92" height="20">
<path d="M14.0469 91.3685C14.0469 96.6338 34.5699 100.909 59.8489 100.909C85.1272 100.909 105.65 96.6338 105.65 91.3685C105.65 86.104 85.1272 81.8291 59.8489 81.8291C34.5699 81.8291 14.0469 86.104 14.0469 91.3685Z" fill="white"/>
</mask>
<g mask="url(#mask4)">
<path fill-rule="evenodd" clip-rule="evenodd" d="M81.9356 85.8592C81.5798 85.4236 80.762 84.3055 81.4567 83.9954C82.3255 83.6077 85.1166 83.4002 87.6866 83.5317C90.2558 83.6647 91.6369 84.0881 90.7681 84.4765C90.0741 84.7866 84.9403 85.5962 82.9093 85.9086L79.3968 87.8012C79.6302 87.8324 79.7274 87.8947 79.6302 87.9624C79.3284 88.1699 78.8115 88.5271 78.8115 88.5271C78.8115 88.5271 74.5344 90.4373 74.5176 90.4449C74.2197 90.5787 73.5713 90.6752 72.8424 90.7117L69.4697 91.9066H68.4375L70.6456 90.5962C70.2177 90.5004 70.0953 90.3651 70.3918 90.2321C70.4085 90.2245 74.6856 88.3136 74.6856 88.3136C74.6856 88.3136 75.7087 87.9829 76.3047 87.7906C76.4962 87.7283 76.8177 87.688 77.1263 87.6842L81.9356 85.8592Z" fill="#7B7BDE"/>
</g>
<mask id="mask5" mask-type="alpha" maskUnits="userSpaceOnUse" x="14" y="81" width="92" height="20">
<path d="M14.0469 91.3685C14.0469 96.6338 34.5699 100.909 59.8489 100.909C85.1272 100.909 105.65 96.6338 105.65 91.3685C105.65 86.104 85.1272 81.8291 59.8489 81.8291C34.5699 81.8291 14.0469 86.104 14.0469 91.3685Z" fill="white"/>
</mask>
<g mask="url(#mask5)">
<path fill-rule="evenodd" clip-rule="evenodd" d="M56.541 81.8585C56.1853 81.4238 55.3682 80.3049 56.0629 79.9948C56.931 79.6063 59.7229 79.4003 62.292 79.5318C64.862 79.6649 66.2423 80.0875 65.3743 80.4767C64.6796 80.786 59.5465 81.5963 57.5147 81.9087L54.003 83.8014C54.2356 83.8326 54.3337 83.8949 54.2356 83.9625C53.9346 84.17 53.4177 84.5273 53.4177 84.5273C53.4177 84.5273 49.1406 86.4375 49.1231 86.4451C48.8259 86.5781 48.1775 86.6754 47.4486 86.7111L44.0752 87.9068H43.043L45.2511 86.5963C44.8232 86.5006 44.7015 86.3645 44.9972 86.2322C45.0147 86.2246 49.2911 84.3137 49.2911 84.3137C49.2911 84.3137 50.3142 83.9831 50.9101 83.79C51.1017 83.7284 51.424 83.6881 51.7318 83.6836L56.541 81.8585Z" fill="#7B7BDE"/>
</g>
<path fill-rule="evenodd" clip-rule="evenodd" d="M59.8463 85.1562C76.3073 85.1562 89.6723 87.9398 89.6723 91.3686C89.6723 94.7975 76.3073 97.581 59.8463 97.581C43.3846 97.581 30.0195 94.7975 30.0195 91.3686C30.0195 87.9398 43.3846 85.1562 59.8463 85.1562Z" fill="white"/>
<mask id="mask6" mask-type="alpha" maskUnits="userSpaceOnUse" x="30" y="85" width="60" height="13">
<path d="M30.0195 91.3679C30.0195 94.7967 43.3846 97.5803 59.8463 97.5803C76.3065 97.5803 89.6723 94.7967 89.6723 91.3679C89.6723 87.9398 76.3065 85.1562 59.8463 85.1562C43.3846 85.1562 30.0195 87.9398 30.0195 91.3679Z" fill="white"/>
</mask>
<g mask="url(#mask6)">
<path fill-rule="evenodd" clip-rule="evenodd" d="M56.5371 81.8585C56.1814 81.4238 55.3643 80.3049 56.059 79.9948C56.9271 79.6063 59.719 79.4003 62.2881 79.5318C64.8581 79.6649 66.2384 80.0875 65.3704 80.4767C64.6756 80.786 59.5426 81.5963 57.5108 81.9087L53.9991 83.8014C54.2317 83.8326 54.3298 83.8949 54.2317 83.9625C53.9307 84.17 53.4138 84.5273 53.4138 84.5273C53.4138 84.5273 49.1367 86.4375 49.1192 86.4451C48.822 86.5781 48.1736 86.6754 47.4447 86.7111L44.0713 87.9068H43.0391L45.2472 86.5963C44.8192 86.5006 44.6976 86.3645 44.9933 86.2322C45.0108 86.2246 49.2872 84.3137 49.2872 84.3137C49.2872 84.3137 50.3103 83.9831 50.9062 83.79C51.0978 83.7284 51.4201 83.6881 51.7279 83.6836L56.5371 81.8585Z" fill="#DFDFF9"/>
</g>
<mask id="mask7" mask-type="alpha" maskUnits="userSpaceOnUse" x="30" y="85" width="60" height="13">
<path d="M30.0195 91.3679C30.0195 94.7967 43.3846 97.5803 59.8463 97.5803C76.3065 97.5803 89.6723 94.7967 89.6723 91.3679C89.6723 87.9398 76.3065 85.1562 59.8463 85.1562C43.3846 85.1562 30.0195 87.9398 30.0195 91.3679Z" fill="white"/>
</mask>
<g mask="url(#mask7)">
<path fill-rule="evenodd" clip-rule="evenodd" d="M81.9317 85.8592C81.5759 85.4236 80.758 84.3055 81.4528 83.9954C82.3216 83.6077 85.1127 83.4002 87.6827 83.5317C90.2518 83.6647 91.633 84.0881 90.7642 84.4765C90.0702 84.7866 84.9364 85.5962 82.9054 85.9086L79.3929 87.8012C79.6262 87.8324 79.7235 87.8947 79.6262 87.9624C79.3245 88.1699 78.8076 88.5271 78.8076 88.5271C78.8076 88.5271 74.5305 90.4373 74.5137 90.4449C74.2158 90.5787 73.5674 90.6752 72.8384 90.7117L69.4658 91.9066H68.4336L70.6417 90.5962C70.2138 90.5004 70.0914 90.3651 70.3878 90.2321C70.4046 90.2245 74.6817 88.3136 74.6817 88.3136C74.6817 88.3136 75.7048 87.9829 76.3007 87.7906C76.4923 87.7283 76.8138 87.688 77.1224 87.6842L81.9317 85.8592Z" fill="#DFDFF9"/>
</g>
<path fill-rule="evenodd" clip-rule="evenodd" d="M59.8466 88.4355C67.6195 88.4355 73.9307 89.7498 73.9307 91.3688C73.9307 92.9879 67.6195 94.3028 59.8466 94.3028C52.0729 94.3028 45.7617 92.9879 45.7617 91.3688C45.7617 89.7498 52.0729 88.4355 59.8466 88.4355Z" fill="#9191E3"/>
<mask id="mask8" mask-type="alpha" maskUnits="userSpaceOnUse" x="45" y="88" width="29" height="7">
<path d="M45.7617 91.3688C45.7617 92.9879 52.0737 94.3028 59.8474 94.3028C67.6203 94.3028 73.9315 92.9879 73.9315 91.3688C73.9315 89.7505 67.6203 88.4355 59.8474 88.4355C52.0737 88.4355 45.7617 89.7505 45.7617 91.3688Z" fill="white"/>
</mask>
<g mask="url(#mask8)">
<path fill-rule="evenodd" clip-rule="evenodd" d="M81.9356 85.8601C81.5798 85.4246 80.762 84.3065 81.4567 83.9963C82.3255 83.6087 85.1166 83.4012 87.6866 83.5327C90.2558 83.6657 91.6369 84.0891 90.7681 84.4775C90.0741 84.7876 84.9403 85.5971 82.9093 85.9095L79.3968 87.8022C79.6301 87.8334 79.7274 87.8957 79.6301 87.9634C79.3284 88.1709 78.8115 88.5281 78.8115 88.5281C78.8115 88.5281 74.5344 90.4383 74.5176 90.4459C74.2197 90.5797 73.5713 90.6762 72.8423 90.7127L69.4697 91.9076H68.4375L70.6456 90.5971C70.2177 90.5014 70.0953 90.3661 70.3917 90.2331C70.4085 90.2255 74.6856 88.3145 74.6856 88.3145C74.6856 88.3145 75.7087 87.9839 76.3047 87.7916C76.4962 87.7292 76.8177 87.689 77.1263 87.6852L81.9356 85.8601Z" fill="#7B7BDE"/>
</g>
<path fill-rule="evenodd" clip-rule="evenodd" d="M59.8453 90.7988C61.4256 90.7988 62.7094 91.055 62.7094 91.3697C62.7094 91.6844 61.4256 91.9398 59.8453 91.9398C58.2643 91.9398 56.9805 91.6844 56.9805 91.3697C56.9805 91.055 58.2643 90.7988 59.8453 90.7988Z" fill="white"/>
<path fill-rule="evenodd" clip-rule="evenodd" d="M78.1216 52.1922C80.842 52.8216 82.7051 54.8267 82.2802 56.667C81.8545 58.5072 75.3761 64.0598 75.3761 64.0598C75.3761 64.0598 71.9936 56.2269 72.42 54.3866C72.8457 52.5464 75.4004 51.5628 78.1216 52.1922Z" fill="#C3C3F1"/>
<mask id="mask9" mask-type="alpha" maskUnits="userSpaceOnUse" x="72" y="52" width="11" height="13">
<path d="M72.4239 54.3854C71.9975 56.2257 75.38 64.0586 75.38 64.0586C75.38 64.0586 81.8584 58.506 82.2841 56.6658C82.7097 54.8263 80.8459 52.8204 78.1263 52.191C77.5683 52.0618 77.0173 52.001 76.4905 52.001C74.4466 52.001 72.7621 52.9222 72.4239 54.3854Z" fill="white"/>
</mask>
<g mask="url(#mask9)">
<path fill-rule="evenodd" clip-rule="evenodd" d="M84.7816 51.3914L78.6384 49.9707L75.2148 64.7731L81.3573 66.1938L84.7816 51.3914Z" fill="#B7B7F1"/>
</g>
<path fill-rule="evenodd" clip-rule="evenodd" d="M76.0873 63.2931L75.0824 63.0605L72.2578 72.0314L74.6849 72.5923L76.0873 63.2931Z" fill="#B7B7F1"/>
<mask id="mask10" mask-type="alpha" maskUnits="userSpaceOnUse" x="72" y="63" width="5" height="10">
<path d="M72.2578 72.0314L74.6848 72.5931L76.0873 63.2931L75.0824 63.0605L72.2578 72.0314Z" fill="white"/>
</mask>
<g mask="url(#mask10)">
<path fill-rule="evenodd" clip-rule="evenodd" d="M75.5831 63.1771L73.8668 62.7803L71.043 71.7504L73.4715 72.3121L75.5831 63.1771Z" fill="#C3C3F1"/>
</g>
<path fill-rule="evenodd" clip-rule="evenodd" d="M68.4375 91.9067H69.4697L71.6277 85.8129L69.2007 85.252L68.4375 91.9067Z" fill="#D1D1F3"/>
<mask id="mask11" mask-type="alpha" maskUnits="userSpaceOnUse" x="68" y="85" width="4" height="7">
<path d="M68.4375 91.9077H69.4697L71.6277 85.8139L69.2007 85.2529L68.4375 91.9077Z" fill="white"/>
</mask>
<g mask="url(#mask11)">
<path fill-rule="evenodd" clip-rule="evenodd" d="M67.5 91.4515L68.7952 92.5392L70.4211 85.534L68.2365 85.0293L67.5 91.4515Z" fill="#DBDBF5"/>
</g>
<path fill-rule="evenodd" clip-rule="evenodd" d="M68.4797 83.9666C68.4881 83.9309 70.5844 74.8696 70.5844 74.8696C70.5844 74.8696 71.229 73.3007 71.6053 72.3863C71.7573 72.0169 72.1541 71.8117 72.5432 71.9021C73.1133 72.0336 73.9259 72.2214 74.496 72.3536C74.8852 72.4433 75.152 72.8021 75.1261 73.2011C75.063 74.187 74.9528 75.8805 74.9528 75.8805C74.9528 75.8805 72.8572 84.9418 72.8488 84.9775C72.6231 85.9528 71.4608 86.5183 70.2553 86.2401C69.0498 85.9611 68.2539 84.9426 68.4797 83.9666Z" fill="#D1D1F4"/>
<mask id="mask12" mask-type="alpha" maskUnits="userSpaceOnUse" x="68" y="71" width="8" height="16">
<path d="M71.6053 72.3854C71.229 73.2998 70.5845 74.8694 70.5845 74.8694C70.5845 74.8694 68.4881 83.9299 68.4797 83.9657C68.254 84.9424 69.049 85.961 70.2553 86.2399C71.4609 86.5181 72.6231 85.9526 72.8488 84.9766C72.8572 84.9416 74.9521 75.8796 74.9521 75.8796C74.9521 75.8796 75.063 74.1861 75.1261 73.2002C75.152 72.8011 74.8844 72.4424 74.496 72.3527C73.9259 72.2204 73.1126 72.0334 72.5433 71.9012C72.4817 71.8867 72.4201 71.8799 72.3586 71.8799C72.0348 71.8799 71.733 72.0752 71.6053 72.3854Z" fill="white"/>
</mask>
<g mask="url(#mask12)">
<path fill-rule="evenodd" clip-rule="evenodd" d="M66.9484 83.6119C66.9568 83.5755 69.0524 74.5142 69.0524 74.5142C69.0524 74.5142 69.6978 72.9453 70.0733 72.0309C70.2253 71.6607 70.6228 71.4562 71.012 71.5467C71.5821 71.6782 72.3946 71.8667 72.9647 71.9982C73.3539 72.0886 73.6199 72.4467 73.5949 72.8457C73.531 73.8323 73.4216 75.5244 73.4216 75.5244C73.4216 75.5244 71.3259 84.5856 71.3176 84.6221C71.0918 85.5974 69.9296 86.1629 68.7241 85.8847C67.5185 85.6057 66.7227 84.5864 66.9484 83.6119Z" fill="#E8E8F9"/>
</g>
<path fill-rule="evenodd" clip-rule="evenodd" d="M34.4582 48.2068C31.737 48.8362 29.8732 50.8414 30.2988 52.6816C30.7245 54.5218 37.2029 60.0745 37.2029 60.0745C37.2029 60.0745 40.5854 52.2415 40.1598 50.4013C39.7341 48.561 37.1794 47.5775 34.4582 48.2068Z" fill="#B7B7F1"/>
<mask id="mask13" mask-type="alpha" maskUnits="userSpaceOnUse" x="30" y="48" width="11" height="13">
<path d="M34.4582 48.2066C31.737 48.8368 29.8732 50.8412 30.2988 52.6814C30.7253 54.5216 37.2037 60.0743 37.2037 60.0743C37.2037 60.0743 40.5854 52.2413 40.159 50.4011C39.8208 48.9379 38.1364 48.0166 36.0924 48.0166C35.5657 48.0166 35.0153 48.0774 34.4582 48.2066Z" fill="white"/>
</mask>
<g mask="url(#mask13)">
<path fill-rule="evenodd" clip-rule="evenodd" d="M27.8008 47.407L33.944 45.9863L37.3675 60.7887L31.2243 62.2094L27.8008 47.407Z" fill="#C3C3F1"/>
</g>
<path fill-rule="evenodd" clip-rule="evenodd" d="M36.4961 59.3097L37.5017 59.0771L40.3255 68.0472L37.8977 68.6082L36.4961 59.3097Z" fill="#C3C3F1"/>
<mask id="mask14" mask-type="alpha" maskUnits="userSpaceOnUse" x="36" y="59" width="5" height="10">
<path d="M36.4961 59.3088L37.8977 68.6072L40.3248 68.0463L37.501 59.0762L36.4961 59.3088Z" fill="white"/>
</mask>
<g mask="url(#mask14)">
<path fill-rule="evenodd" clip-rule="evenodd" d="M37 59.1925L38.7163 58.7949L41.5401 67.765L39.1124 68.3267L37 59.1925Z" fill="#B7B7F1"/>
</g>
<path fill-rule="evenodd" clip-rule="evenodd" d="M44.1472 87.9216H43.115L40.957 81.8278L43.3841 81.2676L44.1472 87.9216Z" fill="#D1D1F3"/>
<mask id="mask15" mask-type="alpha" maskUnits="userSpaceOnUse" x="40" y="81" width="5" height="7">
<path d="M40.957 81.8288L43.115 87.9218H44.148L43.3841 81.2686L40.957 81.8288Z" fill="white"/>
</mask>
<g mask="url(#mask15)">
<path fill-rule="evenodd" clip-rule="evenodd" d="M45.0852 87.4663L43.7899 88.5541L42.1641 81.5489L44.3486 81.0449L45.0852 87.4663Z" fill="#DBDBF5"/>
</g>
<path fill-rule="evenodd" clip-rule="evenodd" d="M44.1013 79.9803C44.0929 79.9446 41.9973 70.884 41.9973 70.884C41.9973 70.884 41.3519 69.3144 40.9764 68.4C40.8244 68.0306 40.4276 67.8253 40.0377 67.9158C39.4676 68.0473 38.6551 68.235 38.085 68.3673C37.6958 68.457 37.429 68.8158 37.4549 69.2148C37.5187 70.2007 37.6282 71.8942 37.6282 71.8942C37.6282 71.8942 39.7238 80.9555 39.7321 80.9912C39.9579 81.9672 41.1201 82.5327 42.3256 82.2538C43.5312 81.9748 44.327 80.9563 44.1013 79.9803Z" fill="#D1D1F4"/>
<mask id="mask16" mask-type="alpha" maskUnits="userSpaceOnUse" x="37" y="67" width="8" height="16">
<path d="M40.0416 67.9158C39.4715 68.0473 38.659 68.2351 38.0889 68.3673C37.6997 68.457 37.4329 68.8158 37.4588 69.2148C37.5226 70.2007 37.6321 71.895 37.6321 71.895C37.6321 71.895 39.7277 80.9555 39.7361 80.9913C39.9618 81.9672 41.124 82.5335 42.3296 82.2538C43.5351 81.9748 44.3309 80.9563 44.1052 79.9803C44.0968 79.9446 42.0012 70.8848 42.0012 70.8848C42.0012 70.8848 41.3559 69.3144 40.9804 68.4008C40.8527 68.0891 40.5509 67.8945 40.2271 67.8945C40.1655 67.8945 40.1032 67.9014 40.0416 67.9158Z" fill="white"/>
</mask>
<g mask="url(#mask16)">
<path fill-rule="evenodd" clip-rule="evenodd" d="M45.6364 79.6273C45.6281 79.5908 43.5324 70.5302 43.5324 70.5302C43.5324 70.5302 42.8871 68.9606 42.5116 68.047C42.3596 67.6768 41.962 67.4723 41.5729 67.562C41.0028 67.6943 40.1902 67.882 39.6201 68.0135C39.231 68.104 38.9642 68.4627 38.99 68.861C39.0539 69.8477 39.1633 71.5397 39.1633 71.5397C39.1633 71.5397 41.2589 80.6017 41.2673 80.6374C41.4931 81.6134 42.6553 82.1782 43.8608 81.9C45.0663 81.6218 45.8622 80.6025 45.6364 79.6273Z" fill="#E8E8F9"/>
</g>
<path fill-rule="evenodd" clip-rule="evenodd" d="M49.1345 15.6153C47.0875 12.3574 48.0711 8.05064 51.329 6.00366C54.5876 3.95668 58.8944 4.94026 60.9413 8.1981C62.9883 11.4559 62.0047 15.7635 58.7469 17.8097C55.4883 19.8567 51.1815 18.8731 49.1345 15.6153Z" stroke="#D3D3EF" stroke-width="1.52022" stroke-linecap="round" stroke-linejoin="round"/>
<path fill-rule="evenodd" clip-rule="evenodd" d="M44.8637 5.60779C44.5558 5.11751 44.704 4.46914 45.1943 4.16053C45.6853 3.85269 46.3337 4.00091 46.6416 4.49118C46.9502 4.98145 46.8019 5.63059 46.3109 5.93843C45.8206 6.24704 45.1723 6.09882 44.8637 5.60779Z" fill="#DFDFF4"/>
<path fill-rule="evenodd" clip-rule="evenodd" d="M16.0763 74.7637C16.6555 74.7637 17.1253 75.2334 17.1253 75.8126C17.1253 76.3918 16.6555 76.8623 16.0763 76.8623C15.4971 76.8623 15.0273 76.3918 15.0273 75.8126C15.0273 75.2334 15.4971 74.7637 16.0763 74.7637Z" fill="#DFDFF4"/>
<path d="M6.96094 59.1025V73.1707" stroke="#D3D3EF" stroke-width="1.52022" stroke-linecap="round" stroke-linejoin="round"/>
<path d="M13.9237 66.1357H0" stroke="#D3D3EF" stroke-width="1.52022" stroke-linecap="round" stroke-linejoin="round"/>
<path fill-rule="evenodd" clip-rule="evenodd" d="M137.914 117.572C138.636 117.572 139.224 118.158 139.224 118.881C139.224 119.603 138.636 120.189 137.914 120.189C137.193 120.189 136.605 119.603 136.605 118.881C136.605 118.158 137.193 117.572 137.914 117.572Z" fill="#DFDFF4"/>
<path fill-rule="evenodd" clip-rule="evenodd" d="M124.102 118.881V135.684L137.914 127.134L124.102 118.881Z" stroke="#DFDFF4" stroke-width="1.52022" stroke-linecap="round" stroke-linejoin="round"/>
</g>
<defs>
<clipPath id="clip0">
<rect width="140" height="140" fill="white"/>
</clipPath>
</defs>
</svg>
