<svg width="140" height="140" viewBox="0 0 140 140" fill="none" xmlns="http://www.w3.org/2000/svg">
<g clip-path="url(#clip0)">
<path fill-rule="evenodd" clip-rule="evenodd" d="M38.0004 58.5741C46.3526 51.3524 58.5641 51.7707 65.2537 59.5074C71.9434 67.2442 70.593 79.388 62.2414 86.6103C53.8886 93.8314 41.6771 93.4137 34.9875 85.6764C28.2984 77.9402 29.6482 65.7958 38.0004 58.5741Z" fill="#9191E3"/>
<mask id="mask0" mask-type="alpha" maskUnits="userSpaceOnUse" x="30" y="53" width="40" height="39">
<path d="M38.0007 58.5742C29.648 65.7964 28.2981 77.9402 34.9878 85.677C41.6775 93.4137 53.889 93.8314 62.2417 86.6103C70.5933 79.3881 71.9431 67.2442 65.254 59.5075C61.7581 55.4644 56.7543 53.4198 51.5813 53.4204C46.8551 53.4204 41.9878 55.1267 38.0007 58.5742Z" fill="white"/>
</mask>
<g mask="url(#mask0)">
<path fill-rule="evenodd" clip-rule="evenodd" d="M63.5466 68.5832C65.7977 71.1866 66.9224 74.5775 66.6727 78.011C66.4236 81.4433 64.8212 84.6365 62.2178 86.887C62.2172 86.887 62.2172 86.8876 62.2172 86.8876C59.6138 89.1387 56.2229 90.2639 52.79 90.0142C49.357 89.7652 46.1639 88.1622 43.9128 85.5587C41.6535 82.9454 39.2152 80.1256 36.9641 77.5216C34.7556 74.9677 33.6525 71.6416 33.897 68.2734C34.1414 64.9058 35.7135 61.7739 38.2679 59.5654C38.3921 59.4575 38.5164 59.3502 38.6412 59.2422C41.195 57.0343 44.5218 55.9307 47.8894 56.1757C51.257 56.4201 54.3889 57.9922 56.5974 60.546C58.8485 63.1494 61.2868 65.9698 63.5466 68.5832Z" fill="#6969DB"/>
</g>
<path fill-rule="evenodd" clip-rule="evenodd" d="M83.0042 75.6157L107.257 123.763H48.9207C48.9207 123.763 37.8082 106.17 34.1862 100.437C33.5002 99.3504 32.2426 98.7665 30.9703 98.9421C30.5235 99.0039 30.1822 99.0511 30.1822 99.0511C30.1822 99.0511 28.6137 110.863 27.7147 117.631C27.3636 120.277 25.1072 122.254 22.4379 122.254H21.3768C19.7983 122.254 18.3015 121.553 17.29 120.342C16.2785 119.129 15.8567 117.531 16.1391 115.978C17.3542 109.294 19.2897 98.6451 20.6803 90.9941C21.6877 85.4536 26.1129 81.1708 31.6832 80.3454C43.8445 78.5446 63.5938 75.6181 63.5938 75.6181L83.0042 75.6157Z" fill="#9191E3"/>
<mask id="mask1" mask-type="alpha" maskUnits="userSpaceOnUse" x="16" y="75" width="92" height="49">
<path d="M63.5939 75.6181C63.5939 75.6181 43.8446 78.5446 31.6832 80.346C26.113 81.1714 21.6878 85.4536 20.6804 90.9947C19.2903 98.6446 17.3542 109.295 16.1391 115.979C15.8568 117.532 16.278 119.129 17.2901 120.342C18.301 121.553 19.7984 122.254 21.3763 122.254H22.438C25.1073 122.254 27.3636 120.277 27.7148 117.631C28.6137 110.863 30.1823 99.0511 30.1823 99.0511C30.1823 99.0511 30.5236 99.0039 30.9704 98.9426C32.2426 98.7659 33.5003 99.351 34.1857 100.437C37.8082 106.17 48.9213 123.763 48.9213 123.763H107.257L83.0043 75.6157L63.5939 75.6181Z" fill="white"/>
</mask>
<g mask="url(#mask1)">
<path fill-rule="evenodd" clip-rule="evenodd" d="M37.3886 105.996C37.3886 103.97 35.7459 102.327 33.7194 102.327H33.7188C31.6923 102.327 30.0491 103.97 30.0491 105.996V132.778H37.3886V105.996Z" fill="#6969DB"/>
</g>
<mask id="mask2" mask-type="alpha" maskUnits="userSpaceOnUse" x="16" y="75" width="92" height="49">
<path d="M63.5939 75.6181C63.5939 75.6181 43.8446 78.5446 31.6832 80.346C26.113 81.1714 21.6878 85.4536 20.6804 90.9947C19.2903 98.6446 17.3542 109.295 16.1391 115.979C15.8568 117.532 16.278 119.129 17.2901 120.342C18.301 121.553 19.7984 122.254 21.3763 122.254H22.438C25.1073 122.254 27.3636 120.277 27.7148 117.631C28.6137 110.863 30.1823 99.0511 30.1823 99.0511C30.1823 99.0511 30.5236 99.0039 30.9704 98.9426C32.2426 98.7659 33.5003 99.351 34.1857 100.437C37.8082 106.17 48.9213 123.763 48.9213 123.763H107.257L83.0043 75.6157L63.5939 75.6181Z" fill="white"/>
</mask>
<g mask="url(#mask2)">
<path fill-rule="evenodd" clip-rule="evenodd" d="M37.3776 94.646L28.1294 100.403L48.5612 133.222L57.8094 127.465L37.3776 94.646Z" fill="#8484E1"/>
</g>
<path fill-rule="evenodd" clip-rule="evenodd" d="M38.0004 58.5741C46.3526 51.3524 58.5641 51.7707 65.2537 59.5074C71.9434 67.2442 70.593 79.388 62.2414 86.6103C53.8886 93.8314 41.6771 93.4137 34.9875 85.6764C28.2984 77.9402 29.6482 65.7958 38.0004 58.5741Z" fill="#9191E3"/>
<mask id="mask3" mask-type="alpha" maskUnits="userSpaceOnUse" x="30" y="53" width="40" height="39">
<path d="M38.0007 58.5742C29.648 65.7964 28.2981 77.9402 34.9878 85.677C41.6775 93.4137 53.889 93.8314 62.2417 86.6103C70.5933 79.3881 71.9431 67.2442 65.254 59.5075C61.7581 55.4644 56.7543 53.4198 51.5813 53.4204C46.8551 53.4204 41.9878 55.1267 38.0007 58.5742Z" fill="white"/>
</mask>
<g mask="url(#mask3)">
<path fill-rule="evenodd" clip-rule="evenodd" d="M63.5466 68.5832C65.7977 71.1866 66.9224 74.5775 66.6727 78.011C66.4236 81.4433 64.8212 84.6365 62.2178 86.887C62.2172 86.887 62.2172 86.8876 62.2172 86.8876C59.6138 89.1387 56.2229 90.2639 52.79 90.0142C49.357 89.7652 46.1639 88.1622 43.9128 85.5587C41.6535 82.9454 39.2152 80.1256 36.9641 77.5216C34.7556 74.9677 33.6525 71.6416 33.897 68.2734C34.1414 64.9058 35.7135 61.7739 38.2679 59.5654C38.3921 59.4575 38.5164 59.3502 38.6412 59.2422C41.195 57.0343 44.5218 55.9307 47.8894 56.1757C51.257 56.4201 54.3889 57.9922 56.5974 60.546C58.8485 63.1494 61.2868 65.9698 63.5466 68.5832Z" fill="#6969DB"/>
</g>
<path d="M67.7389 77.9229V82.474C67.7389 83.8308 68.2779 85.1317 69.2375 86.0913C70.1965 87.0497 71.4973 87.5887 72.8541 87.5887H73.812C75.1682 87.5887 76.4696 88.1277 77.4286 89.0873C78.3876 90.0463 78.9266 91.3477 78.9266 92.7039V96.6158" stroke="#6969DB" stroke-width="0.583333" stroke-linecap="round" stroke-linejoin="round"/>
<path d="M45.4598 88.21V92.7617C45.4598 94.118 45.9988 95.4188 46.9578 96.3784C47.9168 97.3374 49.2183 97.8764 50.5745 97.8764H51.5323C52.8892 97.8764 54.19 98.4154 55.149 99.375C56.1086 100.334 56.6476 101.635 56.6476 102.992V106.903" stroke="#6969DB" stroke-width="0.583333" stroke-linecap="round" stroke-linejoin="round"/>
<path d="M90.396 29.7036H88.8135C87.963 29.7036 87.274 30.3931 87.274 31.243V44.1329" stroke="#DBDBF3" stroke-width="0.583333" stroke-linecap="round" stroke-linejoin="round"/>
<path d="M86.2069 44.0496C86.2069 43.2644 85.5145 42.6274 84.6611 42.6274C83.8077 42.6274 83.1152 43.2644 83.1152 44.0496" stroke="#B2B2EB" stroke-width="0.583333" stroke-linecap="round" stroke-linejoin="round"/>
<path d="M83.9647 46.3046C83.4847 45.6268 83.5961 44.6532 84.215 44.1311C84.8327 43.6091 85.7252 43.7351 86.2053 44.4123" stroke="#B2B2EB" stroke-width="0.583333" stroke-linecap="round" stroke-linejoin="round"/>
<path d="M85.5916 47.8111C84.8519 47.5241 84.4646 46.6381 84.7271 45.8342C84.989 45.0304 85.8016 44.611 86.5418 44.898" stroke="#B2B2EB" stroke-width="0.583333" stroke-linecap="round" stroke-linejoin="round"/>
<path d="M88.1505 44.0496C88.1505 43.2644 88.8429 42.6274 89.6958 42.6274C90.5486 42.6274 91.2422 43.2644 91.2422 44.0496" stroke="#B2B2EB" stroke-width="0.583333" stroke-linecap="round" stroke-linejoin="round"/>
<path d="M90.3928 46.3046C90.8729 45.6268 90.7609 44.6532 90.1425 44.1311C89.5242 43.6091 88.6323 43.7351 88.1516 44.4123" stroke="#B2B2EB" stroke-width="0.583333" stroke-linecap="round" stroke-linejoin="round"/>
<path d="M88.7652 47.8111C89.5043 47.5241 89.8922 46.6381 89.6303 45.8342C89.3684 45.0304 88.5552 44.611 87.8156 44.898" stroke="#B2B2EB" stroke-width="0.583333" stroke-linecap="round" stroke-linejoin="round"/>
<path fill-rule="evenodd" clip-rule="evenodd" d="M87.2499 42.165C88.0123 42.165 88.6312 43.0406 88.6312 44.1192C88.6312 45.1978 88.0123 46.0734 87.2499 46.0734C86.4875 46.0734 85.8691 45.1978 85.8691 44.1192C85.8691 43.0406 86.4875 42.165 87.2499 42.165Z" fill="#A1A1E8"/>
<mask id="mask4" mask-type="alpha" maskUnits="userSpaceOnUse" x="85" y="42" width="4" height="5">
<path d="M85.8689 44.1186C85.8689 45.1972 86.4872 46.0728 87.2496 46.0728C88.0121 46.0728 88.6316 45.1972 88.6316 44.1186C88.6316 43.0406 88.0121 42.165 87.2496 42.165C86.4872 42.165 85.8689 43.0406 85.8689 44.1186Z" fill="white"/>
</mask>
<g mask="url(#mask4)">
<path fill-rule="evenodd" clip-rule="evenodd" d="M87.2498 41.2251C88.0122 41.2251 88.6311 42.1013 88.6311 43.1798C88.6311 44.2584 88.0122 45.134 87.2498 45.134C86.4874 45.134 85.869 44.2584 85.869 43.1798C85.869 42.1013 86.4874 41.2251 87.2498 41.2251Z" fill="#B2B2EB"/>
</g>
<path fill-rule="evenodd" clip-rule="evenodd" d="M87.2499 45.1333C87.6379 45.1333 87.9529 45.502 87.9529 45.9564C87.9529 46.4108 87.6379 46.7801 87.2499 46.7801C86.8626 46.7801 86.5476 46.4108 86.5476 45.9564C86.5476 45.502 86.8626 45.1333 87.2499 45.1333Z" fill="#9696E6"/>
<path fill-rule="evenodd" clip-rule="evenodd" d="M88.1933 30.1559C88.0084 30.4126 87.9483 30.7398 88.0317 31.0455C88.114 31.3512 88.3298 31.6032 88.6191 31.7321C88.8361 31.8289 89.056 31.9269 89.252 32.0144C89.7146 32.2209 90.1486 32.4863 90.5418 32.8042C92.234 34.171 96.9625 37.9918 96.9625 37.9918L98.3555 35.4403C98.3555 35.4403 92.825 31.8248 91.2535 30.7976C90.9793 30.6179 90.6917 30.4598 90.3936 30.3245C90.0926 30.1874 89.689 30.0042 89.3454 29.8479C88.937 29.6624 88.4546 29.7913 88.1933 30.1553V30.1559Z" fill="#C6C6F0"/>
<mask id="mask5" mask-type="alpha" maskUnits="userSpaceOnUse" x="87" y="29" width="12" height="9">
<path d="M88.193 30.1556V30.1562C88.0081 30.4128 87.9486 30.7401 88.0315 31.0463C88.1137 31.3514 88.3301 31.6034 88.6195 31.7323C88.8359 31.8292 89.0558 31.9272 89.2524 32.0147C89.7144 32.2212 90.1484 32.4866 90.5421 32.8051C92.2344 34.1712 96.9629 37.9921 96.9629 37.9921L98.3559 35.4406C98.3559 35.4406 92.8253 31.8251 91.2532 30.7978C90.9796 30.6182 90.6915 30.4601 90.394 30.3247C90.0924 30.1877 89.6893 30.0045 89.3451 29.8487C89.2197 29.7916 89.0873 29.7642 88.9566 29.7642C88.6615 29.7642 88.3745 29.9036 88.193 30.1556Z" fill="white"/>
</mask>
<g mask="url(#mask5)">
<path fill-rule="evenodd" clip-rule="evenodd" d="M87.5217 30.4021C87.3339 30.6634 87.2574 30.9895 87.3094 31.3074C87.3619 31.6253 87.538 31.9094 87.7999 32.0973C90.3999 33.9657 97.24 38.8803 97.24 38.8803L98.1232 38.4048C98.1232 38.4048 96.9349 36.7738 95.8365 35.2659C94.6389 33.6221 93.0704 32.2845 91.2585 31.3617C90.3474 30.8979 89.4059 30.419 88.7747 30.097C88.3395 29.8753 87.8075 30.0048 87.5223 30.4015C87.5223 30.4021 87.5223 30.4021 87.5217 30.4021Z" fill="#CBCBEF"/>
</g>
<mask id="mask6" mask-type="alpha" maskUnits="userSpaceOnUse" x="87" y="29" width="11" height="9">
<path d="M88.193 30.1554V30.156C88.0081 30.4127 87.9486 30.7399 88.0315 31.0462C88.1137 31.3512 88.3301 31.6032 88.6195 31.7322C88.8359 31.829 89.0558 31.927 89.2524 32.0145C89.7144 32.221 90.1484 32.4864 90.5421 32.8049C92.2344 34.1711 96.9629 37.9919 96.9629 37.9919L97.331 37.3176C96.9051 36.7331 96.3609 35.9858 95.8365 35.2666C94.6389 33.6227 93.0697 32.2852 91.2585 31.3617C90.3473 30.898 89.4058 30.4191 88.7752 30.0971C88.6375 30.0277 88.4911 29.9927 88.3453 29.9897C88.2893 30.0376 88.238 30.093 88.193 30.1554Z" fill="white"/>
</mask>
<g mask="url(#mask6)">
</g>
<mask id="mask7" mask-type="alpha" maskUnits="userSpaceOnUse" x="87" y="29" width="12" height="9">
<path d="M88.193 30.1556V30.1562C88.0081 30.4128 87.9486 30.7401 88.0315 31.0463C88.1137 31.3514 88.3301 31.6034 88.6195 31.7323C88.8359 31.8292 89.0558 31.9272 89.2524 32.0147C89.7144 32.2212 90.1484 32.4866 90.5421 32.8051C92.2344 34.1712 96.9629 37.9921 96.9629 37.9921L98.3559 35.4406C98.3559 35.4406 92.8253 31.8251 91.2532 30.7978C90.9796 30.6182 90.6915 30.4601 90.394 30.3247C90.0924 30.1877 89.6893 30.0045 89.3451 29.8487C89.2197 29.7916 89.0873 29.7642 88.9566 29.7642C88.6615 29.7642 88.3745 29.9036 88.193 30.1556Z" fill="white"/>
</mask>
<g mask="url(#mask7)">
<path fill-rule="evenodd" clip-rule="evenodd" d="M88.5732 32.1775C88.1736 31.9867 87.9876 31.5708 88.1579 31.2459C88.3282 30.921 88.7908 30.809 89.1933 30.9939L88.5732 32.1775Z" fill="#A5A5E7"/>
</g>
<path fill-rule="evenodd" clip-rule="evenodd" d="M93.8061 22.2048C94.0383 22.0625 94.3171 22.0176 94.5825 22.0806C94.8474 22.1442 95.0772 22.3098 95.2201 22.542C95.8139 23.5092 96.7654 25.0573 97.3604 26.0245C97.5033 26.2567 97.5476 26.5361 97.4846 26.8009C97.421 27.0663 97.2548 27.295 97.0232 27.4379C96.7904 27.5808 96.5116 27.6258 96.2462 27.5622C95.9814 27.4992 95.7521 27.3329 95.6092 27.1008C95.0142 26.1336 94.0628 24.586 93.4689 23.6188C93.326 23.3867 93.2817 23.1073 93.3441 22.8418C93.4071 22.577 93.5739 22.3478 93.8055 22.2054C93.8055 22.2048 93.8055 22.2048 93.8061 22.2048Z" fill="#B2B2EB"/>
<path fill-rule="evenodd" clip-rule="evenodd" d="M91.7285 23.2377C91.9607 23.0947 92.2401 23.0504 92.5049 23.1134C92.7703 23.1764 92.999 23.3427 93.1419 23.5748C93.7363 24.542 94.6883 26.0902 95.2827 27.0567C95.4251 27.2889 95.47 27.5683 95.407 27.8337C95.3434 28.0986 95.1777 28.3278 94.9456 28.4707H94.945C94.7128 28.6137 94.4334 28.658 94.1686 28.595C93.9032 28.5314 93.6739 28.3657 93.5316 28.1336C92.9372 27.1664 91.9852 25.6182 91.3907 24.6511C91.2478 24.4189 91.2035 24.1395 91.2665 23.8747C91.3301 23.6098 91.4957 23.3806 91.7279 23.2377H91.7285Z" fill="#A5A5E7"/>
<path fill-rule="evenodd" clip-rule="evenodd" d="M89.7495 24.4685C89.9811 24.3262 90.2611 24.2813 90.5253 24.3443C90.7901 24.4078 91.02 24.5735 91.1629 24.8057C91.7532 25.7658 92.6947 27.2977 93.2851 28.2578C93.4274 28.49 93.4723 28.7694 93.4081 29.0348C93.3457 29.2997 93.1801 29.5289 92.9473 29.6718H92.9467C92.7151 29.8148 92.4351 29.8591 92.1703 29.7961C91.9049 29.7325 91.6762 29.5668 91.5339 29.3347C90.9436 28.3745 90.0021 26.8427 89.4117 25.8825C89.2688 25.6503 89.2245 25.3709 89.2875 25.1055C89.3499 24.8407 89.5167 24.6114 89.7489 24.4691C89.7489 24.4685 89.7489 24.4685 89.7495 24.4685Z" fill="#A5A5E7"/>
<path fill-rule="evenodd" clip-rule="evenodd" d="M93.4842 17.2699C93.9654 16.977 94.5925 17.1299 94.8853 17.6111C96.388 20.0792 100.563 26.9427 100.563 26.9427L98.8199 28.0032C98.8199 28.0032 94.6444 21.1397 93.1429 18.671C92.8501 18.1898 93.0029 17.5627 93.4842 17.2699Z" fill="#B2B2EB"/>
<mask id="mask8" mask-type="alpha" maskUnits="userSpaceOnUse" x="92" y="17" width="9" height="12">
<path d="M93.4839 17.2703C93.0026 17.5632 92.8504 18.1902 93.1426 18.6715C94.6447 21.1402 98.8202 28.0037 98.8202 28.0037L100.563 26.9432C100.563 26.9432 96.3877 20.0797 94.8856 17.6116C94.6937 17.296 94.3577 17.1216 94.0136 17.1216C93.8327 17.1216 93.6501 17.17 93.4839 17.2703Z" fill="white"/>
</mask>
<g mask="url(#mask8)">
<path fill-rule="evenodd" clip-rule="evenodd" d="M93.9714 17.0306C94.4526 16.7378 95.0797 16.8906 95.3725 17.3718C96.8746 19.8405 101.05 26.7034 101.05 26.7034L99.3071 27.7639C99.3071 27.7639 95.1316 20.9004 93.6301 18.4318C93.3373 17.9505 93.4901 17.3234 93.9708 17.0306H93.9714Z" fill="#CBCBEF"/>
</g>
<path fill-rule="evenodd" clip-rule="evenodd" d="M104.438 33.8687L108.501 46.4057L101.791 48.5809L97.7271 36.0439L104.438 33.8687Z" fill="#B2B2EB"/>
<mask id="mask9" mask-type="alpha" maskUnits="userSpaceOnUse" x="97" y="33" width="12" height="16">
<path d="M97.7271 36.0445L101.791 48.5815L108.501 46.4057L104.438 33.8687L97.7271 36.0445Z" fill="white"/>
</mask>
<g mask="url(#mask9)">
<path fill-rule="evenodd" clip-rule="evenodd" d="M107.713 33.1763L111.777 45.7139L105.067 47.8885L101.003 35.3515L107.713 33.1763Z" fill="#CBCBEF"/>
</g>
<path fill-rule="evenodd" clip-rule="evenodd" d="M104.563 34.1692C104.502 33.6104 104.317 33.0714 104.022 32.5924C102.71 30.4563 98.9608 24.3569 98.9608 24.3569L91.3495 29.0353L96.9407 37.9877C96.9407 37.9877 97.0702 38.0869 97.2983 38.2619C98.7392 39.3667 100.7 39.5055 102.282 38.6142C103.864 37.7234 104.761 35.974 104.563 34.1692Z" fill="#CBCBEF"/>
<mask id="mask10" mask-type="alpha" maskUnits="userSpaceOnUse" x="91" y="24" width="14" height="16">
<path d="M91.3489 29.0354L96.9401 37.9872C96.9401 37.9872 97.0702 38.0864 97.2983 38.2614C98.7391 39.3662 100.7 39.505 102.282 38.6137C103.863 37.7235 104.761 35.9735 104.563 34.1693C104.502 33.6099 104.317 33.0709 104.022 32.5919C102.71 30.4558 98.9602 24.3564 98.9602 24.3564" fill="white"/>
</mask>
<g mask="url(#mask10)">
<path fill-rule="evenodd" clip-rule="evenodd" d="M97.345 23.5596C98.024 25.1486 97.7364 26.8945 96.568 28.2577C94.9481 30.1495 92.1597 30.4231 90.3456 28.8685C89.127 27.8249 89.3224 26.38 89.9606 26.5853C92.4642 27.3909 94.7002 27.5303 96.3201 25.6392C96.8515 25.0179 97.1922 24.2992 97.345 23.5596Z" fill="#B2B2EB"/>
</g>
<mask id="mask11" mask-type="alpha" maskUnits="userSpaceOnUse" x="91" y="24" width="14" height="16">
<path d="M91.3489 29.0354L96.9401 37.9872C96.9401 37.9872 97.0702 38.0864 97.2983 38.2614C98.7391 39.3662 100.7 39.505 102.282 38.6137C103.863 37.7235 104.761 35.9735 104.563 34.1693C104.502 33.6099 104.317 33.0709 104.022 32.5919C102.71 30.4558 98.9602 24.3564 98.9602 24.3564" fill="white"/>
</mask>
<g mask="url(#mask11)">
<path fill-rule="evenodd" clip-rule="evenodd" d="M93.4056 32.7174C95.1545 31.9626 97.4837 32.2648 99.3982 33.6747C102.053 35.6294 102.911 38.9784 101.313 41.1484C100.24 42.6067 98.4048 42.364 98.5419 41.5993C99.0803 38.5969 96.8677 38.4324 94.213 36.4776C93.3415 35.8354 94.3547 32.9047 93.4056 32.7174Z" fill="#C6C6F0"/>
</g>
<path fill-rule="evenodd" clip-rule="evenodd" d="M90.7807 24.387C91.2829 24.6518 91.4754 25.273 91.2106 25.7753C90.7334 26.6795 90.006 28.059 89.5288 28.9638C89.2646 29.4655 88.6428 29.658 88.1411 29.3931H88.1405C87.6389 29.1283 87.4463 28.5065 87.7112 28.0048C88.1878 27.1006 88.9152 25.7205 89.3923 24.8163C89.6572 24.3146 90.2784 24.1221 90.7807 24.387Z" fill="#B2B2EB"/>
<mask id="mask12" mask-type="alpha" maskUnits="userSpaceOnUse" x="87" y="24" width="5" height="6">
<path d="M89.3924 24.8163C88.9152 25.7205 88.1872 27.1006 87.7112 28.0048C87.4464 28.5065 87.6389 29.1289 88.1399 29.3931H88.1405C88.6428 29.658 89.2646 29.4661 89.5294 28.9638C90.006 28.0591 90.7334 26.6795 91.2106 25.7753C91.4754 25.2731 91.2835 24.6518 90.7807 24.3876C90.6279 24.3065 90.4639 24.2686 90.3018 24.2686C89.9331 24.2686 89.5767 24.4675 89.3924 24.8163Z" fill="white"/>
</mask>
<g mask="url(#mask12)">
<path fill-rule="evenodd" clip-rule="evenodd" d="M91.1812 22.5471C91.6835 22.8119 91.8754 23.4338 91.6111 23.9354C90.9351 25.2176 89.7089 27.5434 89.0322 28.8255C88.7674 29.3278 88.1467 29.5203 87.6445 29.2554L87.6439 29.2549C87.1416 28.9906 86.9491 28.3688 87.214 27.8665C87.8901 26.5849 89.1174 24.2586 89.7929 22.977C90.0571 22.4748 90.6796 22.2823 91.1812 22.5471Z" fill="#CBCBEF"/>
</g>
<path d="M90.1261 29.7021H91.3779C91.7997 29.7021 92.2045 29.8701 92.5032 30.1682C92.8018 30.4669 92.9698 30.8723 92.9698 31.2946V32.9501" stroke="#DBDBF3" stroke-width="0.583333" stroke-linecap="round" stroke-linejoin="round"/>
<path fill-rule="evenodd" clip-rule="evenodd" d="M92.55 23.0739C92.8137 23.1433 93.0389 23.3148 93.176 23.5505C93.313 23.7862 93.351 24.0662 93.281 24.3298C92.9671 25.5181 92.4439 27.4956 92.1306 28.6838C92.0612 28.9475 91.8897 29.1727 91.654 29.3097C91.4184 29.4468 91.1384 29.4847 90.8747 29.4147H90.8741C90.611 29.3453 90.3859 29.1738 90.2488 28.9382C90.1111 28.7025 90.0738 28.4225 90.1432 28.1588C90.4576 26.9706 90.9797 24.9931 91.2935 23.8048C91.3635 23.5412 91.535 23.316 91.7707 23.1789C92.0052 23.0418 92.2864 23.0039 92.55 23.0739Z" fill="#B2B2EB"/>
<mask id="mask13" mask-type="alpha" maskUnits="userSpaceOnUse" x="90" y="23" width="4" height="7">
<path d="M91.7706 23.179C91.5349 23.3166 91.3634 23.5412 91.2934 23.8055C90.9796 24.9931 90.4575 26.9706 90.1431 28.1589C90.0737 28.4226 90.1116 28.7026 90.2487 28.9382C90.3863 29.1739 90.6109 29.3454 90.8746 29.4148C91.1382 29.4848 91.4182 29.4469 91.6539 29.3098C91.8896 29.1727 92.0617 28.9476 92.1305 28.6839C92.4443 27.4956 92.967 25.5181 93.2808 24.3299C93.3508 24.0662 93.3129 23.7862 93.1758 23.5506C93.0388 23.3149 92.8136 23.1434 92.5499 23.074C92.4636 23.0512 92.3749 23.0396 92.2868 23.0396C92.1066 23.0396 91.9281 23.0868 91.7706 23.179Z" fill="white"/>
</mask>
<g mask="url(#mask13)">
<path fill-rule="evenodd" clip-rule="evenodd" d="M92.4042 21.6525C92.6679 21.7219 92.893 21.8934 93.0301 22.1291C93.1672 22.3648 93.2051 22.6448 93.1351 22.9084C92.7542 24.3522 92.0507 27.0139 91.6692 28.4577C91.5998 28.7208 91.4283 28.9459 91.1926 29.083C90.957 29.2201 90.677 29.258 90.4133 29.1886H90.4127C90.149 29.1186 89.9245 28.9471 89.7874 28.712C89.6497 28.4764 89.6124 28.1958 89.6818 27.9321C90.0627 26.4889 90.7662 23.8266 91.1477 22.3834C91.2177 22.1198 91.3892 21.8946 91.6249 21.7575C91.8594 21.6204 92.1405 21.5825 92.4042 21.6525Z" fill="#CBCBEF"/>
</g>
<path fill-rule="evenodd" clip-rule="evenodd" d="M94.525 22.0553C95.0821 22.1621 95.4472 22.7011 95.3399 23.2582C95.1194 24.405 94.7618 26.2653 94.5413 27.4121C94.4346 27.9692 93.8956 28.3343 93.3385 28.227H93.3379C92.7808 28.1197 92.4157 27.5813 92.523 27.0242C92.7435 25.8773 93.1011 24.0171 93.321 22.8703C93.4283 22.3132 93.9668 21.948 94.5244 22.0553H94.525Z" fill="#B2B2EB"/>
<mask id="mask14" mask-type="alpha" maskUnits="userSpaceOnUse" x="92" y="22" width="4" height="7">
<path d="M93.321 22.8697C93.1011 24.0165 92.7441 25.8768 92.523 27.0242C92.4157 27.5813 92.7803 28.1191 93.3373 28.227H93.3385C93.8956 28.3338 94.434 27.9686 94.5413 27.4121C94.7618 26.2647 95.1188 24.4045 95.3399 23.2576C95.4473 22.7005 95.0821 22.1621 94.525 22.0548H94.5244C94.4591 22.0425 94.3938 22.0361 94.329 22.0361C93.846 22.0361 93.4155 22.378 93.321 22.8697Z" fill="white"/>
</mask>
<g mask="url(#mask14)">
<path fill-rule="evenodd" clip-rule="evenodd" d="M94.1862 21.2338C94.4539 21.2851 94.6902 21.4409 94.843 21.6666C94.9958 21.8918 95.053 22.1689 95.0017 22.4366C94.7502 23.7439 94.3151 26.009 94.0637 27.3162C94.0123 27.584 93.8572 27.8202 93.6314 27.9731C93.4057 28.1259 93.1292 28.1825 92.8614 28.1311H92.8608C92.5937 28.0798 92.3568 27.9241 92.204 27.6983C92.0506 27.4731 91.994 27.1955 92.0453 26.9283C92.2962 25.6211 92.7319 23.356 92.9827 22.0487C93.0347 21.781 93.1898 21.5447 93.4156 21.3919C93.6413 21.2391 93.9184 21.1825 94.1862 21.2338Z" fill="#CBCBEF"/>
</g>
<path fill-rule="evenodd" clip-rule="evenodd" d="M98.8704 43.4051L107.599 39.96L109.801 45.5384L101.071 48.9835L98.8704 43.4051Z" fill="#A4A4EA"/>
<path fill-rule="evenodd" clip-rule="evenodd" d="M99.3125 49.0637C98.8027 47.7144 99.4706 46.2059 100.812 45.6762C102.85 44.8724 105.752 43.7267 107.809 42.9153C108.466 42.6557 109.2 42.6709 109.846 42.9567C110.492 43.2426 110.997 43.7757 111.246 44.4372C113.804 51.2051 120.905 69.9966 124.541 79.6169C125.764 82.8556 124.161 86.4763 120.941 87.748H120.94C119.331 88.3832 117.534 88.3459 115.952 87.6459C114.369 86.9453 113.133 85.6398 112.522 84.0205C108.841 74.2806 101.821 55.702 99.3125 49.0637Z" fill="#9191E3"/>
<path fill-rule="evenodd" clip-rule="evenodd" d="M77.6174 75.6243L118.421 75.5986C120.129 75.5975 121.768 76.2747 122.976 77.4816C124.184 78.688 124.863 80.326 124.865 82.0328V82.0334C124.866 83.7414 124.188 85.3794 122.982 86.5881C121.775 87.7961 120.138 88.4757 118.43 88.4769L86.7723 88.495L77.6174 75.6243Z" fill="#9191E3"/>
<mask id="mask15" mask-type="alpha" maskUnits="userSpaceOnUse" x="77" y="75" width="48" height="14">
<path d="M118.421 75.5981L77.6177 75.6238L86.7725 88.4945L118.431 88.4764C120.138 88.4752 121.775 87.7956 122.982 86.5876C124.188 85.3783 124.866 83.7409 124.864 82.0329V82.0323C124.863 80.3249 124.184 78.6875 122.975 77.4811C121.768 76.276 120.133 75.5981 118.427 75.5981C118.425 75.5981 118.423 75.5981 118.421 75.5981Z" fill="white"/>
</mask>
<g mask="url(#mask15)">
<path fill-rule="evenodd" clip-rule="evenodd" d="M86.3589 82.4172L125.215 82.3921C126.923 82.3909 128.561 83.0682 129.769 84.2751C130.977 85.482 131.657 87.1194 131.658 88.8263V88.8268C131.659 90.5348 130.982 92.1728 129.776 93.3815C128.569 94.5896 126.931 95.2692 125.224 95.2703L92.845 95.2884L86.3589 82.4172Z" fill="#8484E1"/>
</g>
<mask id="mask16" mask-type="alpha" maskUnits="userSpaceOnUse" x="77" y="75" width="48" height="14">
<path d="M118.421 75.5981L77.6177 75.6238L86.7725 88.4945L118.431 88.4764C120.138 88.4752 121.775 87.7956 122.982 86.5876C124.188 85.3783 124.866 83.7409 124.864 82.0329V82.0323C124.863 80.3249 124.184 78.6875 122.975 77.4811C121.768 76.276 120.133 75.5981 118.427 75.5981C118.425 75.5981 118.423 75.5981 118.421 75.5981Z" fill="white"/>
</mask>
<g mask="url(#mask16)">
<path fill-rule="evenodd" clip-rule="evenodd" d="M145.054 116.186L116.771 89.5424C115.528 88.3717 114.801 86.7547 114.75 85.0478C114.699 83.341 115.329 81.6843 116.499 80.4412V80.4407C117.671 79.197 119.287 78.4702 120.994 78.4194C122.701 78.3681 124.358 78.9975 125.602 80.1682L149.168 102.372L145.054 116.186Z" fill="#8484E1"/>
</g>
<path fill-rule="evenodd" clip-rule="evenodd" d="M58.7079 26.7842C59.9568 27.4976 61.0623 28.505 61.911 29.7843C64.8154 34.1628 63.6184 40.0754 59.2399 42.9798C54.8614 45.8843 48.9488 44.6873 46.0443 40.3088C45.1933 39.0254 44.6939 37.6097 44.5242 36.177C47.5499 37.9043 51.4174 37.9031 54.5167 35.8474C57.6113 33.7947 59.1168 30.2393 58.7079 26.7842Z" fill="#6969DB"/>
<mask id="mask17" mask-type="alpha" maskUnits="userSpaceOnUse" x="44" y="26" width="20" height="19">
<path d="M54.5167 35.8469C51.4174 37.9026 47.5499 37.9038 44.5242 36.1765C44.6939 37.6092 45.1933 39.0249 46.0443 40.3083C48.9488 44.6868 54.8614 45.8838 59.2399 42.9794C63.6184 40.0755 64.8154 34.1623 61.911 29.7838C61.0623 28.5051 59.9574 27.4971 58.7085 26.7837C59.1168 30.2388 57.6113 33.7942 54.5167 35.8469Z" fill="white"/>
</mask>
<g mask="url(#mask17)">
<path fill-rule="evenodd" clip-rule="evenodd" d="M55.6158 23.938C56.8647 24.6508 57.9707 25.6588 58.8195 26.9381C61.7233 31.3166 60.5263 37.2292 56.1484 40.1337C51.7699 43.0381 45.8572 41.8411 42.9528 37.4626C42.1011 36.1787 41.6024 34.7635 41.4326 33.3302C44.4584 35.0581 48.3259 35.0569 51.4245 33.0012C54.5197 30.9485 56.0247 27.3931 55.6158 23.938Z" fill="#7A7ADF"/>
</g>
<path fill-rule="evenodd" clip-rule="evenodd" d="M63.6044 75.9104C66.1635 79.3736 65.4349 84.2544 61.9763 86.8187C58.5136 89.386 53.6271 88.6685 51.0481 85.2146C46.2234 78.7512 39.3867 69.5941 39.3867 69.5941L52.0322 60.2549C52.0322 60.2549 58.8152 69.4319 63.6044 75.9104Z" fill="#DBDBF3"/>
<mask id="mask18" mask-type="alpha" maskUnits="userSpaceOnUse" x="39" y="60" width="27" height="29">
<path d="M39.3866 69.594C39.3866 69.594 46.2233 78.7512 51.0486 85.2151C53.6263 88.6685 58.5141 89.3854 61.9762 86.8187C65.4348 84.2544 66.1633 79.373 63.6043 75.9104C58.8151 69.4319 52.0321 60.2549 52.0321 60.2549" fill="white"/>
</mask>
<g mask="url(#mask18)">
<path fill-rule="evenodd" clip-rule="evenodd" d="M60.7758 60.9911C62.6011 63.4603 63.3705 66.5538 62.9155 69.5906C62.4599 72.6268 60.8167 75.358 58.3474 77.1838H58.3468C55.8776 79.0091 52.7842 79.7785 49.7479 79.3229C46.7111 78.8679 43.9799 77.2247 42.1541 74.7554C36.4415 67.0268 29.2484 57.2951 29.2484 57.2951L47.8696 43.5308C47.8696 43.5308 55.0632 53.2625 60.7758 60.9911Z" fill="#A5A5E7"/>
</g>
<path fill-rule="evenodd" clip-rule="evenodd" d="M30.4757 37.2832C37.6373 29.4998 51.2739 30.3788 60.9094 39.2449C70.5437 48.1104 72.5527 61.6274 65.3912 69.4103C58.229 77.1937 44.5924 76.3146 34.9575 67.4485C25.3226 58.583 23.3142 45.066 30.4757 37.2832Z" fill="#DBDBF3"/>
<mask id="mask19" mask-type="alpha" maskUnits="userSpaceOnUse" x="26" y="31" width="44" height="44">
<path d="M30.4757 37.2828C23.3141 45.0657 25.3225 58.5827 34.9568 67.4488C44.5923 76.3148 58.2295 77.1933 65.3917 69.4099C72.5527 61.6271 70.5443 48.1101 60.9093 39.2446C55.6815 34.4338 49.2759 31.9745 43.365 31.9751C38.3822 31.9751 33.7517 33.7228 30.4757 37.2828Z" fill="white"/>
</mask>
<g mask="url(#mask19)">
<path fill-rule="evenodd" clip-rule="evenodd" d="M17.6771 42.2918C20.5792 37.9401 34.2962 20.8619 36.7503 17.1816C40.9795 10.8396 77.6309 23.383 72.6796 30.8094C67.7277 38.2353 65.7898 35.1319 58.7029 30.6169C58.5361 30.5102 50.5374 35.8681 50.3764 35.7561C47.4743 37.4186 44.2362 38.3269 40.9982 38.4009C42.1987 42.8255 41.7518 47.7693 39.4809 52.244L41.8895 56.038C42.5352 57.0554 42.2558 58.4023 41.2583 59.0784C41.2577 59.0784 41.2577 59.0789 41.2577 59.0789C40.7415 59.4289 40.1051 59.5549 39.4943 59.4284C38.8836 59.3012 38.3492 58.9325 38.015 58.4058L36.7241 56.3717C36.5147 56.6167 36.3012 56.8553 36.0824 57.088C39.2919 59.5958 41.5692 63.4744 42.1497 68.1212C43.3064 77.3857 28.999 77.3011 28.18 70.7439C27.8207 67.861 26.8074 65.2745 25.3246 63.1273C20.7594 64.0565 13.4421 48.6431 17.6771 42.2918Z" fill="#6969DB"/>
</g>
<mask id="mask20" mask-type="alpha" maskUnits="userSpaceOnUse" x="26" y="31" width="44" height="44">
<path d="M30.4757 37.2828C23.3141 45.0657 25.3225 58.5827 34.9568 67.4488C44.5923 76.3148 58.2295 77.1933 65.3917 69.4099C72.5527 61.6271 70.5443 48.1101 60.9093 39.2446C55.6815 34.4338 49.2759 31.9745 43.365 31.9751C38.3822 31.9751 33.7517 33.7228 30.4757 37.2828Z" fill="white"/>
</mask>
<g mask="url(#mask20)">
<path fill-rule="evenodd" clip-rule="evenodd" d="M27.5246 32.0464C32.7752 32.0464 37.0382 38.2536 37.0382 45.8988C37.0382 53.544 32.7752 59.7512 27.5246 59.7512C22.274 59.7512 18.011 53.544 18.011 45.8988C18.011 38.2536 22.274 32.0464 27.5246 32.0464Z" fill="#7A7ADF"/>
</g>
<mask id="mask21" mask-type="alpha" maskUnits="userSpaceOnUse" x="26" y="31" width="44" height="44">
<path d="M30.4757 37.2828C23.3141 45.0657 25.3225 58.5827 34.9568 67.4488C44.5923 76.3148 58.2295 77.1933 65.3917 69.4099C72.5527 61.6271 70.5443 48.1101 60.9093 39.2446C55.6815 34.4338 49.2759 31.9745 43.365 31.9751C38.3822 31.9751 33.7517 33.7228 30.4757 37.2828Z" fill="white"/>
</mask>
<g mask="url(#mask21)">
<path fill-rule="evenodd" clip-rule="evenodd" d="M51.987 59.0671C53.226 58.1331 54.6108 57.9045 55.0786 58.5566C55.5465 59.2088 54.9205 60.4968 53.6821 61.4307C52.4437 62.3646 51.0583 62.5933 50.5905 61.9411C50.1226 61.2884 50.7485 60.001 51.987 59.0671Z" fill="#CDCDEE"/>
</g>
<mask id="mask22" mask-type="alpha" maskUnits="userSpaceOnUse" x="26" y="31" width="44" height="44">
<path d="M30.4757 37.2828C23.3141 45.0657 25.3225 58.5827 34.9568 67.4488C44.5923 76.3148 58.2295 77.1933 65.3917 69.4099C72.5527 61.6271 70.5443 48.1101 60.9093 39.2446C55.6815 34.4338 49.2759 31.9745 43.365 31.9751C38.3822 31.9751 33.7517 33.7228 30.4757 37.2828Z" fill="white"/>
</mask>
<g mask="url(#mask22)">
<path fill-rule="evenodd" clip-rule="evenodd" d="M67.0354 47.9883C68.2738 47.0544 69.6593 46.8257 70.1271 47.4785C70.5943 48.1306 69.969 49.4186 68.7306 50.352C67.4916 51.2859 66.1068 51.5146 65.6389 50.8624C65.1711 50.2102 65.797 48.9222 67.0354 47.9883Z" fill="#CDCDEE"/>
</g>
<mask id="mask23" mask-type="alpha" maskUnits="userSpaceOnUse" x="26" y="31" width="44" height="44">
<path d="M30.4757 37.2828C23.3141 45.0657 25.3225 58.5827 34.9568 67.4488C44.5923 76.3148 58.2295 77.1933 65.3917 69.4099C72.5527 61.6271 70.5443 48.1101 60.9093 39.2446C55.6815 34.4338 49.2759 31.9745 43.365 31.9751C38.3822 31.9751 33.7517 33.7228 30.4757 37.2828Z" fill="white"/>
</mask>
<g mask="url(#mask23)">
<path fill-rule="evenodd" clip-rule="evenodd" d="M61.0885 55.3195C61.5499 54.9712 62.3048 55.2186 62.772 55.8707C63.2398 56.5229 63.2451 57.3349 62.7837 57.6831C62.3223 58.0308 61.568 57.7841 61.1002 57.1319C60.6323 56.4791 60.6271 55.6671 61.0885 55.3195Z" fill="#7364E2"/>
</g>
<mask id="mask24" mask-type="alpha" maskUnits="userSpaceOnUse" x="26" y="31" width="44" height="44">
<path d="M30.4757 37.2828C23.3141 45.0657 25.3225 58.5827 34.9568 67.4488C44.5923 76.3148 58.2295 77.1933 65.3917 69.4099C72.5527 61.6271 70.5443 48.1101 60.9093 39.2446C55.6815 34.4338 49.2759 31.9745 43.365 31.9751C38.3822 31.9751 33.7517 33.7228 30.4757 37.2828Z" fill="white"/>
</mask>
<g mask="url(#mask24)">
<path fill-rule="evenodd" clip-rule="evenodd" d="M52.8129 52.8686C53.6191 52.6971 54.3698 53.2081 54.49 54.009C54.6096 54.8099 54.0525 55.5992 53.2463 55.7707C52.4402 55.9422 51.6888 55.4312 51.5692 54.6303C51.4502 53.8293 52.0073 53.0401 52.8129 52.8686Z" fill="#BDB9E5"/>
</g>
<mask id="mask25" mask-type="alpha" maskUnits="userSpaceOnUse" x="51" y="52" width="4" height="4">
<path d="M52.8126 52.8687C52.007 53.0402 51.4499 53.8294 51.5695 54.6304C51.6885 55.4313 52.4404 55.9423 53.246 55.7708C54.0522 55.5999 54.6093 54.81 54.4897 54.0097C54.3858 53.3126 53.8043 52.8354 53.1241 52.8354C53.022 52.8354 52.9182 52.8465 52.8126 52.8687Z" fill="white"/>
</mask>
<g mask="url(#mask25)">
<path fill-rule="evenodd" clip-rule="evenodd" d="M52.8766 53.294C53.4471 53.1726 53.9785 53.5343 54.0625 54.1007C54.1471 54.6671 53.7527 55.226 53.1828 55.3467C52.6129 55.468 52.0815 55.107 51.9969 54.54C51.9123 53.9735 52.3061 53.4153 52.8766 53.294Z" fill="#5A4BE2"/>
</g>
<mask id="mask26" mask-type="alpha" maskUnits="userSpaceOnUse" x="51" y="53" width="4" height="3">
<path d="M52.8762 53.2934C52.3063 53.4147 51.9119 53.9729 51.9965 54.5399C52.0811 55.1064 52.6125 55.4674 53.183 55.3461C53.7529 55.2254 54.1467 54.6665 54.0621 54.1001C53.9892 53.6078 53.5779 53.27 53.0967 53.27C53.0244 53.27 52.9509 53.2776 52.8762 53.2934Z" fill="white"/>
</mask>
<g mask="url(#mask26)">
<path fill-rule="evenodd" clip-rule="evenodd" d="M52.9258 52.7627C53.4963 52.6414 54.0277 53.003 54.1123 53.5695C54.1968 54.1365 53.8025 54.6947 53.232 54.816C52.6621 54.9374 52.1307 54.5757 52.0461 54.0093C51.9615 53.4423 52.3558 52.884 52.9258 52.7627Z" fill="#7364E2"/>
</g>
<mask id="mask27" mask-type="alpha" maskUnits="userSpaceOnUse" x="51" y="53" width="4" height="3">
<path d="M52.8762 53.2934C52.3063 53.4147 51.9119 53.9729 51.9965 54.5399C52.0811 55.1064 52.6125 55.4674 53.183 55.3461C53.7529 55.2254 54.1467 54.6665 54.0621 54.1001C53.9892 53.6078 53.5779 53.27 53.0967 53.27C53.0244 53.27 52.9509 53.2776 52.8762 53.2934Z" fill="white"/>
</mask>
<g mask="url(#mask27)">
<path fill-rule="evenodd" clip-rule="evenodd" d="M53.2811 53.3913C53.3931 53.3674 53.4975 53.4386 53.5138 53.5494C53.5308 53.6608 53.4532 53.7699 53.3412 53.7938C53.2298 53.8178 53.1253 53.7466 53.109 53.6358C53.0921 53.5243 53.1697 53.4153 53.2811 53.3913Z" fill="white"/>
</g>
<mask id="mask28" mask-type="alpha" maskUnits="userSpaceOnUse" x="26" y="31" width="44" height="44">
<path d="M30.4757 37.2828C23.3141 45.0657 25.3225 58.5827 34.9568 67.4488C44.5923 76.3148 58.2295 77.1933 65.3917 69.4099C72.5527 61.6271 70.5443 48.1101 60.9093 39.2446C55.6815 34.4338 49.2759 31.9745 43.365 31.9751C38.3822 31.9751 33.7517 33.7228 30.4757 37.2828Z" fill="white"/>
</mask>
<g mask="url(#mask28)">
<path fill-rule="evenodd" clip-rule="evenodd" d="M61.7978 46.0786C62.6034 45.9071 63.3547 46.4181 63.4743 47.219C63.5939 48.0199 63.0368 48.8091 62.2306 48.9806C61.425 49.1521 60.6737 48.6411 60.5541 47.8402C60.4345 47.0393 60.9916 46.2501 61.7978 46.0786Z" fill="#BDB9E5"/>
</g>
<mask id="mask29" mask-type="alpha" maskUnits="userSpaceOnUse" x="60" y="46" width="4" height="4">
<path d="M61.7978 46.0787C60.9916 46.2502 60.4345 47.0394 60.5541 47.8409C60.6737 48.6412 61.425 49.1528 62.2312 48.9807C63.0368 48.8092 63.5939 48.02 63.4743 47.2191C63.3699 46.5226 62.7883 46.0454 62.1087 46.0454C62.0066 46.0454 61.9028 46.0565 61.7978 46.0787Z" fill="white"/>
</mask>
<g mask="url(#mask29)">
<path fill-rule="evenodd" clip-rule="evenodd" d="M61.8606 46.5034C62.4305 46.3821 62.9625 46.7438 63.0471 47.3102C63.1317 47.8766 62.7373 48.4354 62.1668 48.5568C61.5969 48.6775 61.0655 48.3164 60.9809 47.7494C60.8963 47.183 61.2907 46.6248 61.8606 46.5034Z" fill="#5A4BE2"/>
</g>
<mask id="mask30" mask-type="alpha" maskUnits="userSpaceOnUse" x="60" y="46" width="4" height="3">
<path d="M61.8607 46.5033C61.2908 46.6246 60.8965 47.1829 60.9817 47.7493C61.0657 48.3163 61.5971 48.6774 62.167 48.5566C62.7375 48.4353 63.1318 47.8771 63.0472 47.3101C62.9737 46.8177 62.5619 46.48 62.0807 46.48C62.0089 46.48 61.9348 46.4876 61.8607 46.5033Z" fill="white"/>
</mask>
<g mask="url(#mask30)">
<path fill-rule="evenodd" clip-rule="evenodd" d="M61.9103 45.9732C62.4802 45.8518 63.0116 46.2135 63.0962 46.7799C63.1808 47.3469 62.7864 47.9052 62.2165 48.0265C61.6466 48.1478 61.1146 47.7862 61.0306 47.2197C60.946 46.6527 61.3398 46.0945 61.9103 45.9732Z" fill="#7364E2"/>
</g>
<mask id="mask31" mask-type="alpha" maskUnits="userSpaceOnUse" x="60" y="46" width="4" height="3">
<path d="M61.8607 46.5033C61.2908 46.6246 60.8965 47.1829 60.9817 47.7493C61.0657 48.3163 61.5971 48.6774 62.167 48.5566C62.7375 48.4353 63.1318 47.8771 63.0472 47.3101C62.9737 46.8177 62.5619 46.48 62.0807 46.48C62.0089 46.48 61.9348 46.4876 61.8607 46.5033Z" fill="white"/>
</mask>
<g mask="url(#mask31)">
<path fill-rule="evenodd" clip-rule="evenodd" d="M62.2657 46.6018C62.3771 46.5779 62.4815 46.649 62.4984 46.7599C62.5148 46.8713 62.4378 46.9804 62.3258 47.0043C62.2138 47.0282 62.1093 46.957 62.093 46.8462C62.0767 46.7348 62.1537 46.6257 62.2657 46.6018Z" fill="white"/>
</g>
<mask id="mask32" mask-type="alpha" maskUnits="userSpaceOnUse" x="26" y="31" width="44" height="44">
<path d="M30.4757 37.2828C23.3141 45.0657 25.3225 58.5827 34.9568 67.4488C44.5923 76.3148 58.2295 77.1933 65.3917 69.4099C72.5527 61.6271 70.5443 48.1101 60.9093 39.2446C55.6815 34.4338 49.2759 31.9745 43.365 31.9751C38.3822 31.9751 33.7517 33.7228 30.4757 37.2828Z" fill="white"/>
</mask>
<g mask="url(#mask32)">
<path d="M48.5454 53.842C47.9271 53.3006 48.0432 52.1602 48.8033 51.2969" stroke="#A5A5E7" stroke-width="0.583333" stroke-linecap="round" stroke-linejoin="round"/>
</g>
<mask id="mask33" mask-type="alpha" maskUnits="userSpaceOnUse" x="26" y="31" width="44" height="44">
<path d="M30.4757 37.2828C23.3141 45.0657 25.3225 58.5827 34.9568 67.4488C44.5923 76.3148 58.2295 77.1933 65.3917 69.4099C72.5527 61.6271 70.5443 48.1101 60.9093 39.2446C55.6815 34.4338 49.2759 31.9745 43.365 31.9751C38.3822 31.9751 33.7517 33.7228 30.4757 37.2828Z" fill="white"/>
</mask>
<g mask="url(#mask33)">
<path d="M60.7764 43.8085C61.4128 43.2071 62.5258 43.3617 63.2596 44.1539" stroke="#A5A5E7" stroke-width="0.583333" stroke-linecap="round" stroke-linejoin="round"/>
</g>
<mask id="mask34" mask-type="alpha" maskUnits="userSpaceOnUse" x="26" y="31" width="44" height="44">
<path d="M30.4757 37.2828C23.3141 45.0657 25.3225 58.5827 34.9568 67.4488C44.5923 76.3148 58.2295 77.1933 65.3917 69.4099C72.5527 61.6271 70.5443 48.1101 60.9093 39.2446C55.6815 34.4338 49.2759 31.9745 43.365 31.9751C38.3822 31.9751 33.7517 33.7228 30.4757 37.2828Z" fill="white"/>
</mask>
<g mask="url(#mask34)">
<path fill-rule="evenodd" clip-rule="evenodd" d="M42.9548 65.9638C42.7168 66.1837 42.4601 66.3891 42.1848 66.5763C39.3656 68.4926 35.6719 67.8427 33.9411 65.1256C32.2104 62.4084 33.0936 58.6459 35.9122 56.7291C36.1876 56.5418 36.4716 56.3791 36.761 56.2402L42.9548 65.9638Z" fill="#D7D7F3"/>
</g>
<mask id="mask35" mask-type="alpha" maskUnits="userSpaceOnUse" x="33" y="56" width="10" height="12">
<path d="M35.9123 56.729C33.0937 58.6458 32.2105 62.4083 33.9413 65.1255C35.672 67.8426 39.3657 68.4925 42.1849 66.5762C42.4597 66.389 42.7169 66.1842 42.9549 65.9637L36.7611 56.2407C36.4712 56.379 36.1877 56.5417 35.9123 56.729Z" fill="white"/>
</mask>
<g mask="url(#mask35)">
<path fill-rule="evenodd" clip-rule="evenodd" d="M37.3487 58.985C38.8764 57.9461 40.8778 58.2984 41.8158 59.7707C42.7538 61.2431 42.2755 63.2824 40.7477 64.3207C39.22 65.3597 37.2186 65.0073 36.2806 63.535C35.3426 62.0621 35.8215 60.0233 37.3487 58.985Z" fill="#BCBCEE"/>
</g>
<path fill-rule="evenodd" clip-rule="evenodd" d="M49.2923 21.187C50.7203 21.3568 52.1314 21.8532 53.4118 22.7002C57.7938 25.5993 58.9984 31.5103 56.0992 35.8923C53.2007 40.2748 47.2892 41.4788 42.9072 38.5803C41.6227 37.7298 40.6112 36.6214 39.896 35.3678C43.3557 35.7785 46.9164 34.2688 48.9686 31.1673C51.0172 28.0703 51.0167 24.2087 49.2923 21.187Z" fill="#6969DB"/>
<mask id="mask36" mask-type="alpha" maskUnits="userSpaceOnUse" x="39" y="21" width="19" height="20">
<path d="M48.9686 31.1673C46.9164 34.2688 43.3557 35.7785 39.896 35.3678C40.6112 36.6214 41.6227 37.7298 42.9072 38.5803C47.2897 41.4788 53.2012 40.2754 56.0992 35.8923C58.9984 31.5103 57.7944 25.5993 53.4118 22.7002C52.1314 21.8532 50.7203 21.3568 49.2923 21.187C51.0167 24.2087 51.0172 28.0703 48.9686 31.1673Z" fill="white"/>
</mask>
<g mask="url(#mask36)">
<path fill-rule="evenodd" clip-rule="evenodd" d="M45.3351 19.7729C46.7631 19.9421 48.1741 20.4391 49.4546 21.2861C53.8371 24.1847 55.0411 30.0962 52.142 34.4782C49.2434 38.8602 50.6043 34.9011 46.2223 32.0025C44.9372 31.1526 36.6539 35.2068 35.9387 33.9538C39.3985 34.3644 42.9591 32.8548 45.0113 29.7532C47.06 26.6557 47.0594 22.7946 45.3351 19.7729Z" fill="#7A7ADF"/>
</g>
<path fill-rule="evenodd" clip-rule="evenodd" d="M43.8053 25.8604C45.2333 26.0295 46.6444 26.5265 47.9248 27.3735C52.3074 30.2721 53.5114 36.1836 50.6122 40.5656C47.7136 44.9476 41.8027 46.1516 37.4207 43.253C36.1356 42.4031 35.1241 41.2942 34.4089 40.0412C37.8687 40.4518 41.4294 38.9422 43.4815 35.8406C45.5302 32.7431 45.5296 28.882 43.8053 25.8604Z" fill="#6969DB"/>
<mask id="mask37" mask-type="alpha" maskUnits="userSpaceOnUse" x="34" y="25" width="19" height="20">
<path d="M43.4818 35.8406C41.4296 38.9422 37.8689 40.4524 34.4092 40.0412C35.1243 41.2942 36.1358 42.4031 37.4203 43.253C41.8029 46.1516 47.7138 44.9482 50.6124 40.5656C53.5116 36.1836 52.3076 30.2721 47.925 27.3735C46.6446 26.5265 45.2335 26.0295 43.8055 25.8604C45.5298 28.8826 45.5304 32.7431 43.4818 35.8406Z" fill="white"/>
</mask>
<g mask="url(#mask37)">
<path fill-rule="evenodd" clip-rule="evenodd" d="M38.9559 23.8682C40.3839 24.0373 41.795 24.5343 43.0754 25.3813C47.4574 28.2799 48.662 34.1914 45.7628 38.5734C42.8642 42.9554 36.9527 44.16 32.5707 41.2608C31.2862 40.4109 30.2747 39.302 29.5596 38.049C33.0193 38.4597 36.58 36.95 38.6316 33.8484C40.6808 30.7509 40.6802 26.8898 38.9559 23.8682Z" fill="#7A7ADF"/>
</g>
<path fill-rule="evenodd" clip-rule="evenodd" d="M40.396 73.1053L40.3919 73.1035C40.3919 73.1035 41.8298 69.6263 42.5456 67.8967C42.7638 67.3699 43.3675 67.1197 43.8943 67.3373H43.8948C44.421 67.5554 44.6718 68.1592 44.4537 68.6859L42.6004 73.1659L46.199 76.5224L44.7908 78.0333C44.7908 78.0333 42.0393 75.4666 40.6702 74.1891C40.3645 73.9044 40.2706 73.4774 40.396 73.1053Z" fill="#BBBBEB"/>
<mask id="mask38" mask-type="alpha" maskUnits="userSpaceOnUse" x="40" y="67" width="7" height="12">
<path d="M42.5454 67.8964C41.8302 69.626 40.3917 73.1038 40.3917 73.1038L40.3964 73.105C40.2704 73.4771 40.3649 73.9047 40.67 74.1894C42.0396 75.4663 44.7906 78.033 44.7906 78.033L46.1994 76.5227L42.6008 73.1662L44.4541 68.6856C44.6716 68.1589 44.4214 67.5551 43.8946 67.337H43.8941C43.7651 67.2839 43.6321 67.2588 43.5009 67.2588C43.0955 67.2588 42.7105 67.4985 42.5454 67.8964Z" fill="white"/>
</mask>
<g mask="url(#mask38)">
<path fill-rule="evenodd" clip-rule="evenodd" d="M42.0286 67.4967C42.1324 67.2709 42.4853 67.2097 42.819 67.3608C43.1526 67.5118 43.3422 67.8187 43.2442 68.0473L42.0286 67.4967Z" fill="#A5A5E7"/>
</g>
<path fill-rule="evenodd" clip-rule="evenodd" d="M50.2159 64.7529C50.7637 64.6053 51.3278 64.9297 51.4759 65.4774C51.8248 66.7713 52.432 69.0217 52.7814 70.3156C52.929 70.8639 52.6047 71.4274 52.0569 71.5756H52.0564C51.5086 71.7232 50.9445 71.3994 50.7969 70.8511C50.4475 69.5572 49.8403 67.3068 49.4914 66.0129C49.3433 65.4652 49.6676 64.9011 50.2159 64.7535V64.7529Z" fill="#A5A5E7"/>
<mask id="mask39" mask-type="alpha" maskUnits="userSpaceOnUse" x="49" y="64" width="4" height="8">
<path d="M50.2156 64.7529V64.7535C49.6678 64.901 49.3435 65.4651 49.4911 66.0129C49.8405 67.3067 50.4472 69.5572 50.7966 70.8516C50.9442 71.3994 51.5082 71.7231 52.0566 71.5761C52.6049 71.428 52.9292 70.8639 52.7811 70.3161C52.4322 69.0223 51.825 66.7712 51.4762 65.4774C51.3519 65.0195 50.9366 64.7173 50.4833 64.7173C50.3952 64.7173 50.3054 64.729 50.2156 64.7529Z" fill="white"/>
</mask>
<g mask="url(#mask39)">
<path fill-rule="evenodd" clip-rule="evenodd" d="M51.3105 64.4231C51.8583 64.2749 52.4224 64.5992 52.5705 65.1476C52.9194 66.4408 53.5266 68.6913 53.8754 69.9852C54.0236 70.5329 53.6993 71.097 53.1515 71.2452H53.1509C52.6032 71.3927 52.0391 71.0684 51.8909 70.5207C51.5421 69.2268 50.9349 66.9769 50.5854 65.6831C50.4379 65.1347 50.7622 64.5707 51.3099 64.4231H51.3105Z" fill="#C2C2ED"/>
</g>
<path fill-rule="evenodd" clip-rule="evenodd" d="M42.7294 57.9119C43.0019 57.9055 43.2655 58.0076 43.4633 58.1954C43.6604 58.3832 43.7748 58.6422 43.7812 58.9147C43.8535 61.9667 44.0618 70.7697 44.0618 70.7697L42.0067 70.8182C42.0067 70.8182 41.7984 62.0157 41.7261 58.9631C41.7197 58.6907 41.8218 58.427 42.0102 58.2298C42.198 58.0327 42.4564 57.9183 42.7294 57.9119Z" fill="#C2C2ED"/>
<path fill-rule="evenodd" clip-rule="evenodd" d="M42.0222 58.9731C42.0304 58.5963 42.339 58.293 42.7181 58.293C43.0973 58.293 43.4065 58.5963 43.4146 58.9731H42.0222Z" fill="#A5A5E7"/>
<path fill-rule="evenodd" clip-rule="evenodd" d="M52.7969 67.2594C53.3592 67.1853 53.8754 67.5814 53.9495 68.1443C54.0965 69.2614 54.331 71.0441 54.478 72.1611C54.5521 72.7241 54.156 73.2403 53.5931 73.3144C53.0302 73.3885 52.5139 72.9924 52.4399 72.4295C52.2929 71.3124 52.0584 69.5297 51.9114 68.4126C51.8373 67.8497 52.2339 67.3335 52.7963 67.2594H52.7969Z" fill="#A5A5E7"/>
<mask id="mask40" mask-type="alpha" maskUnits="userSpaceOnUse" x="51" y="67" width="4" height="7">
<path d="M52.7963 67.2593C52.2339 67.334 51.8373 67.8497 51.9114 68.4126C52.0584 69.5297 52.2929 71.3129 52.4399 72.4294C52.5139 72.9923 53.0302 73.3884 53.5931 73.3143C54.156 73.2402 54.5515 72.724 54.4774 72.1611C54.3304 71.0446 54.0965 69.2613 53.9495 68.1442C53.8813 67.6268 53.4397 67.25 52.9316 67.25C52.8873 67.25 52.8418 67.2529 52.7963 67.2593Z" fill="white"/>
</mask>
<g mask="url(#mask40)">
<path fill-rule="evenodd" clip-rule="evenodd" d="M53.8538 67.2594C54.4167 67.1853 54.933 67.5814 55.007 68.1443C55.154 69.2614 55.388 71.0441 55.535 72.1611C55.609 72.7241 55.213 73.2403 54.6506 73.3144H54.65C54.0871 73.3885 53.5715 72.9924 53.4974 72.4295C53.3504 71.3124 53.1159 69.5297 52.9689 68.4126C52.8948 67.8497 53.2909 67.3335 53.8538 67.2594Z" fill="#CBCBEF"/>
</g>
<path fill-rule="evenodd" clip-rule="evenodd" d="M49.0435 64.2472C49.2249 64.4507 49.3171 64.7179 49.3013 64.9903C49.2856 65.2622 49.1619 65.5171 48.9583 65.6979C47.9072 66.6318 46.0323 68.2984 44.9818 69.2323C44.7782 69.4132 44.5104 69.5059 44.2386 69.4902C43.9662 69.4744 43.7118 69.3507 43.531 69.1472L43.5304 69.1466C43.3496 68.943 43.2568 68.6758 43.2726 68.4034C43.2889 68.1316 43.4126 67.8772 43.6162 67.6958C44.6668 66.7619 46.5416 65.0953 47.5928 64.1614C47.7963 63.9806 48.0635 63.8878 48.3359 63.9036C48.6078 63.9199 48.8621 64.043 49.0435 64.2472Z" fill="#BBBBEB"/>
<path fill-rule="evenodd" clip-rule="evenodd" d="M51.4061 65.3135C51.5199 65.5614 51.5304 65.8437 51.4359 66.0992C51.3414 66.3547 51.1489 66.5624 50.9009 66.6761C49.8113 67.1766 48.0193 67.9991 46.929 68.4996C46.6811 68.6134 46.3988 68.6245 46.1433 68.5294C45.8878 68.4349 45.6801 68.2424 45.5664 67.995C45.5664 67.9945 45.5664 67.9945 45.5664 67.9945C45.4526 67.7465 45.4421 67.4642 45.5366 67.2087C45.6317 66.9532 45.8236 66.7455 46.0715 66.6318C47.1612 66.1313 48.9532 65.3088 50.0434 64.8083C50.2908 64.6945 50.5737 64.6835 50.8292 64.7785C51.0847 64.873 51.2924 65.0655 51.4061 65.3129V65.3135Z" fill="#C2C2ED"/>
<path fill-rule="evenodd" clip-rule="evenodd" d="M52.8539 80.1595L46.3678 89.6539L41.0437 86.0168L47.5298 76.5225L52.8539 80.1595Z" fill="#CBCBEF"/>
<mask id="mask41" mask-type="alpha" maskUnits="userSpaceOnUse" x="41" y="76" width="12" height="14">
<path d="M41.0438 86.0173L46.3679 89.6549L52.854 80.16L47.5299 76.5229" fill="white"/>
</mask>
<g mask="url(#mask41)">
<path fill-rule="evenodd" clip-rule="evenodd" d="M50.0772 79.884C49.348 81.2239 47.9504 82.1491 46.422 82.1456C44.3028 82.1409 42.7295 80.353 42.9121 78.155C43.034 76.6792 44.1365 75.9529 44.3104 76.5217C44.9911 78.7553 46.0026 80.4038 48.1219 80.4079C48.8178 80.409 49.4863 80.2183 50.0772 79.884Z" fill="#A5A5E7"/>
</g>
<path fill-rule="evenodd" clip-rule="evenodd" d="M52.163 81.3895C53.4656 79.6751 53.7876 77.4082 53.0141 75.3981C52.1472 73.1446 51.0167 70.2064 50.2718 68.2703C49.8378 67.1421 48.5708 66.5786 47.4427 67.0126C46.1471 67.5114 44.477 68.1542 43.1826 68.6524C42.0573 69.0852 41.4938 70.3458 41.922 71.4734C43.0933 74.554 45.1793 80.0431 45.1793 80.0431L50.4357 83.6627C50.4357 83.6627 51.2728 82.562 52.163 81.3895Z" fill="#CBCBEF"/>
<mask id="mask42" mask-type="alpha" maskUnits="userSpaceOnUse" x="41" y="66" width="13" height="18">
<path d="M47.4424 67.0126C46.1469 67.5114 44.4768 68.1536 43.1829 68.6518C42.0577 69.0846 41.4936 70.3458 41.9224 71.4734C43.0937 74.554 45.1791 80.0431 45.1791 80.0431L50.4355 83.6627C50.4355 83.6627 51.2726 82.5614 52.1628 81.3889C53.4654 79.6745 53.7879 77.4082 53.0144 75.398C52.147 73.1446 51.0171 70.2058 50.2716 68.2697C49.9374 67.4 49.1073 66.8662 48.2276 66.8662C47.9663 66.8662 47.7009 66.9135 47.4424 67.0126Z" fill="white"/>
</mask>
<g mask="url(#mask42)">
<path fill-rule="evenodd" clip-rule="evenodd" d="M50.0408 79.9598C49.3239 81.3079 47.8772 82.1992 46.2503 82.1292C43.9952 82.0312 42.2428 80.1202 42.3408 77.8656C42.4062 76.3507 43.5477 75.6507 43.7572 76.2451C44.5797 78.5749 45.7277 80.3156 47.9834 80.4136C48.7237 80.4463 49.4272 80.2789 50.0408 79.9598Z" fill="#A5A5E7"/>
</g>
<path fill-rule="evenodd" clip-rule="evenodd" d="M53.9532 68.3411C53.9065 68.9022 53.4142 69.3199 52.8525 69.2732C51.2407 69.1402 48.278 68.8952 48.278 68.8952L48.446 66.8623C48.446 66.8623 51.4087 67.1073 53.021 67.2409C53.5822 67.287 53.9999 67.7799 53.9532 68.3411Z" fill="#CBCBEF"/>
<path fill-rule="evenodd" clip-rule="evenodd" d="M43.3393 79.5142L50.138 84.1592L46.7553 89.1106L39.9565 84.4661L43.3393 79.5142Z" fill="#A4A4EA"/>
<path fill-rule="evenodd" clip-rule="evenodd" d="M37.8557 83.3834C38.9845 81.7716 41.1988 81.3691 42.8228 82.4781C44.2677 83.4651 46.0072 84.6533 47.4609 85.6467C48.2537 86.1881 48.7962 87.024 48.9682 87.9684C49.1403 88.9128 48.9274 89.8864 48.3767 90.6727C43.8512 97.1326 33.0817 112.506 27.4327 120.57C25.4383 123.417 21.5247 124.13 18.6542 122.169V122.169C17.2308 121.196 16.2555 119.695 15.9463 117.998C15.6377 116.303 16.0204 114.553 17.0092 113.142C22.7165 104.994 33.3973 89.747 37.8557 83.3834Z" fill="#9F9FE9"/>
<mask id="mask43" mask-type="alpha" maskUnits="userSpaceOnUse" x="15" y="81" width="35" height="43">
<path d="M37.8554 83.3834C33.3976 89.7464 22.7167 104.994 17.0094 113.141C16.0206 114.553 15.6374 116.302 15.9466 117.998C16.2551 119.695 17.2305 121.196 18.6544 122.169V122.169C21.5244 124.13 25.4386 123.416 27.433 120.569C33.082 112.506 43.8509 97.1326 48.3764 90.6727C48.9276 89.8864 49.1406 88.9122 48.9685 87.9684C48.7958 87.024 48.2539 86.1875 47.4611 85.6461C46.0075 84.6533 44.2674 83.4645 42.8225 82.4781C42.203 82.0546 41.4983 81.8516 40.8001 81.8516C39.6678 81.8516 38.5536 82.3865 37.8554 83.3834Z" fill="white"/>
</mask>
<g mask="url(#mask43)">
<path fill-rule="evenodd" clip-rule="evenodd" d="M17.5986 156.761C17.1168 158.668 15.1912 159.833 13.2784 159.374C11.7046 158.996 9.84259 158.548 8.25884 158.169C7.32551 157.945 6.52109 157.357 6.02409 156.535C5.52767 155.713 5.38009 154.728 5.61517 153.797C7.49701 146.347 11.8959 128.932 14.2077 119.78C15.0273 116.534 18.305 114.552 21.5606 115.333C23.1793 115.722 24.5758 116.743 25.4374 118.168C26.299 119.593 26.5545 121.303 26.1468 122.917C23.8099 132.169 19.4513 149.426 17.5986 156.761Z" fill="#9191E3"/>
</g>
<path fill-rule="evenodd" clip-rule="evenodd" d="M105.028 87.0814C105.028 86.242 104.695 85.4364 104.101 84.8425C103.508 84.2487 102.702 83.915 101.862 83.915H96.7183C95.8789 83.915 95.0739 84.2487 94.4795 84.8425C93.8857 85.4364 93.552 86.242 93.552 87.0814V104.287C93.552 105.127 93.8857 105.932 94.4795 106.526C95.0739 107.121 95.8789 107.454 96.7183 107.454H101.862C102.702 107.454 103.508 107.121 104.101 106.526C104.695 105.932 105.028 105.127 105.028 104.287V87.0814Z" fill="#D3D3F2"/>
<mask id="mask44" mask-type="alpha" maskUnits="userSpaceOnUse" x="93" y="83" width="13" height="25">
<path d="M96.7179 83.915C95.879 83.915 95.074 84.2481 94.4796 84.8425C93.8858 85.4358 93.5521 86.2414 93.5521 87.0808V104.287C93.5521 105.127 93.8858 105.932 94.4796 106.526C95.074 107.12 95.879 107.454 96.7179 107.454H101.862C102.702 107.454 103.507 107.12 104.101 106.526C104.694 105.932 105.029 105.127 105.029 104.287V87.0808C105.029 86.2414 104.694 85.4358 104.101 84.8425C103.507 84.2481 102.702 83.915 101.862 83.915H96.7179Z" fill="white"/>
</mask>
<g mask="url(#mask44)">
<path fill-rule="evenodd" clip-rule="evenodd" d="M87.7462 111.175H110.795V95.3735H87.7462V111.175Z" fill="#BCBCED"/>
<path fill-rule="evenodd" clip-rule="evenodd" d="M108.478 84.936L106.735 83.837L96.5644 99.9697L98.3074 101.068L108.478 84.936ZM105.009 82.7491L103.266 81.6501L93.0953 97.7828L94.8383 98.8812L105.009 82.7491ZM101.541 80.5639L99.7984 79.4644L89.6285 95.597L91.371 96.6954L101.541 80.5639Z" stroke="#BCBCED" stroke-width="0.583333" stroke-linecap="round" stroke-linejoin="round"/>
<path fill-rule="evenodd" clip-rule="evenodd" d="M99.1001 80.6445L97.3565 81.7406L107.503 97.8879L109.248 96.7912L99.1001 80.6445ZM95.6281 82.8262L93.8845 83.9223L104.031 100.07L105.775 98.9729L95.6281 82.8262ZM92.1584 85.0073L90.4137 86.1028L100.561 102.25L102.305 101.154L92.1584 85.0073Z" stroke="#BCBCED" stroke-width="0.583333" stroke-linecap="round" stroke-linejoin="round"/>
</g>
<path fill-rule="evenodd" clip-rule="evenodd" d="M94.2795 107.309L108.746 95.5249V107.312L94.2795 107.309Z" stroke="#7364E2" stroke-width="0.583333" stroke-linecap="round" stroke-linejoin="round"/>
<path fill-rule="evenodd" clip-rule="evenodd" d="M104.216 107.309L89.7495 95.5249V107.312L104.216 107.309Z" stroke="#7364E2" stroke-width="0.583333" stroke-linecap="round" stroke-linejoin="round"/>
<path fill-rule="evenodd" clip-rule="evenodd" d="M97.734 107.303L106.085 115.739V107.301L97.734 107.303Z" stroke="#7364E2" stroke-width="0.583333" stroke-linecap="round" stroke-linejoin="round"/>
<path fill-rule="evenodd" clip-rule="evenodd" d="M100.838 107.303L92.4871 115.739V107.301L100.838 107.303Z" stroke="#7364E2" stroke-width="0.583333" stroke-linecap="round" stroke-linejoin="round"/>
<mask id="mask45" mask-type="alpha" maskUnits="userSpaceOnUse" x="0" y="0" width="140" height="141">
<path d="M0 140.583H140V0.583008H0V140.583Z" fill="white"/>
</mask>
<g mask="url(#mask45)">
<path fill-rule="evenodd" clip-rule="evenodd" d="M93.1426 96.968H105.409V95.3394H93.1426V96.968Z" fill="#A7A7E8"/>
<path d="M18.8478 136.273C18.8478 133.31 21.2494 130.909 24.2121 130.909H93.9344C96.8972 130.909 99.2982 128.507 99.2982 125.544V109.039" stroke="#7364E2" stroke-width="0.583333" stroke-linecap="round" stroke-linejoin="round"/>
<path fill-rule="evenodd" clip-rule="evenodd" d="M50.1378 121.228C50.1378 120.774 49.7698 120.406 49.3159 120.406H47.4714C47.017 120.406 46.6489 120.774 46.6489 121.228V122.937H50.1378V121.228ZM62.5296 121.228C62.5296 120.774 62.1615 120.406 61.7071 120.406H59.8626C59.4093 120.406 59.0407 120.774 59.0407 121.228V122.937H62.5296V121.228ZM74.8502 121.228C74.8502 120.774 74.4815 120.406 74.0283 120.406H72.1832C71.7288 120.406 71.3607 120.774 71.3607 121.228V122.937H74.8502V121.228ZM87.1877 121.228C87.1877 120.774 86.8196 120.406 86.3652 120.406H84.5207C84.0674 120.406 83.6993 120.774 83.6993 121.228V122.937H87.1877V121.228ZM54.2264 121.228C54.2264 120.774 53.8583 120.406 53.4045 120.406H51.56C51.1056 120.406 50.7375 120.774 50.7375 121.228V122.937H54.2264V121.228ZM66.6182 121.228C66.6182 120.774 66.2501 120.406 65.7957 120.406H63.9512C63.4973 120.406 63.1293 120.774 63.1293 121.228V122.937H66.6182V121.228ZM78.9388 121.228C78.9388 120.774 78.5707 120.406 78.1163 120.406H76.2712C75.8173 120.406 75.4493 120.774 75.4493 121.228V122.937H78.9388V121.228ZM91.2757 121.228C91.2757 120.774 90.9076 120.406 90.4543 120.406H88.6098C88.1548 120.406 87.7873 120.774 87.7873 121.228V122.937H91.2757V121.228ZM58.3611 121.228C58.3611 120.774 57.9936 120.406 57.5392 120.406H55.6947C55.2408 120.406 54.8728 120.774 54.8728 121.228V122.937H58.3611V121.228ZM70.7528 121.228C70.7528 120.774 70.3848 120.406 69.9309 120.406H68.087C67.632 120.406 67.2639 120.774 67.2639 121.228V122.937H70.7528V121.228ZM83.0734 121.228C83.0734 120.774 82.7059 120.406 82.2509 120.406H80.4064C79.9526 120.406 79.5845 120.774 79.5845 121.228V122.937H83.0734V121.228ZM95.4109 121.228C95.4109 120.774 95.0428 120.406 94.5896 120.406H92.7445C92.2901 120.406 91.922 120.774 91.922 121.228V122.937H95.4109V121.228Z" fill="#D3D3F2"/>
<path fill-rule="evenodd" clip-rule="evenodd" d="M96.8078 121.947C96.8078 121.675 96.6999 121.413 96.5074 121.221C96.3149 121.028 96.0535 120.92 95.7817 120.92H46.56C46.2882 120.92 46.0269 121.028 45.8344 121.221C45.6419 121.413 45.5339 121.675 45.5339 121.947V123.924H96.8078V121.947Z" fill="#BFBFEC"/>
</g>
<mask id="mask46" mask-type="alpha" maskUnits="userSpaceOnUse" x="45" y="120" width="52" height="4">
<path d="M46.5599 120.92C46.2875 120.92 46.0267 121.028 45.8348 121.221C45.6417 121.413 45.5338 121.675 45.5338 121.946V123.924H96.8076V121.946C96.8076 121.675 96.7003 121.413 96.5078 121.221C96.3147 121.028 96.0534 120.92 95.7816 120.92H46.5599Z" fill="white"/>
</mask>
<g mask="url(#mask46)">
<path fill-rule="evenodd" clip-rule="evenodd" d="M96.8078 120.878C96.8078 120.605 96.6999 120.345 96.5074 120.152C96.3149 119.96 96.0535 119.851 95.7817 119.851H46.56C46.2882 119.851 46.0269 119.96 45.8344 120.152C45.6419 120.345 45.5339 120.605 45.5339 120.878V122.855H96.8078V120.878Z" fill="#CBCBEF"/>
</g>
<path fill-rule="evenodd" clip-rule="evenodd" d="M41.7895 123.928C41.7895 120.68 39.1564 118.046 35.9078 118.046H35.6692C32.4206 118.046 29.7869 120.68 29.7869 123.928V123.928H41.7895V123.928Z" fill="#BFBFEC"/>
<mask id="mask47" mask-type="alpha" maskUnits="userSpaceOnUse" x="29" y="118" width="13" height="6">
<path d="M35.6691 118.045C32.4205 118.045 29.7867 120.679 29.7867 123.928V123.928H41.7894V123.928C41.7894 120.679 39.1562 118.045 35.9077 118.045H35.6691Z" fill="white"/>
</mask>
<g mask="url(#mask47)">
<path fill-rule="evenodd" clip-rule="evenodd" d="M41.7895 122.859C41.7895 119.611 39.1564 116.977 35.9078 116.977H35.6692C32.4206 116.977 29.7869 119.611 29.7869 122.859H41.7895Z" fill="#DBDBF3"/>
</g>
<mask id="mask48" mask-type="alpha" maskUnits="userSpaceOnUse" x="29" y="118" width="13" height="6">
<path d="M35.6691 118.045C32.4205 118.045 29.7867 120.679 29.7867 123.928V123.928H41.7894V123.928C41.7894 120.679 39.1562 118.045 35.9077 118.045" fill="white"/>
</mask>
<g mask="url(#mask48)">
<path d="M35.7161 121.841V116.657" stroke="#BFBFEC" stroke-width="0.583333" stroke-linecap="round" stroke-linejoin="round"/>
</g>
<path d="M116.167 133.778C116.167 130.815 113.765 128.414 110.803 128.414H40.9003C38.0367 128.414 35.7162 126.092 35.7162 123.229" stroke="#BFBFEC" stroke-width="0.583333" stroke-linecap="round" stroke-linejoin="round"/>
<path opacity="0.436838" fill-rule="evenodd" clip-rule="evenodd" d="M48.7283 115.801C55.3573 114.39 63.745 112.188 72.1526 108.867C86.894 98.2908 93.9448 85.6045 93.9448 85.6045C94.0224 85.4639 94.2003 85.4131 94.3409 85.4913C94.482 85.5701 94.5322 85.7468 94.4546 85.8886C94.4546 85.8886 93.1445 88.2458 90.474 91.7796C90.432 91.9278 90.226 92.7019 90.3194 93.5676C90.3859 94.1865 90.6064 94.8561 91.1734 95.3607C91.8051 95.9231 92.8487 96.2719 94.5275 96.178C94.5404 96.1774 94.5526 96.1774 94.5649 96.1786C98.251 93.1114 101.47 89.6318 103.955 85.6891C104.041 85.5526 104.221 85.5117 104.357 85.5981C104.494 85.6832 104.535 85.8641 104.449 86C99.9175 93.1896 92.97 98.8613 85.1971 103.313C84.9043 103.808 82.8288 107.417 82.2822 110.914C81.9054 113.33 82.2525 115.702 84.5671 116.859C84.5823 116.866 84.5945 116.875 84.608 116.883C87.8758 118.341 91.8664 119.757 96.6497 120.891C96.8066 120.928 96.904 121.086 96.8661 121.242C96.83 121.399 96.6719 121.496 96.5155 121.458C88.353 119.525 82.4753 116.77 78.5273 114.38C78.4981 114.379 78.4684 114.374 78.4404 114.364C71.0851 111.757 65.4501 113.948 63.5712 114.876C63.4114 114.961 63.2504 115.045 63.0894 115.13C62.9616 115.201 62.8963 115.243 62.8963 115.243C62.863 115.263 62.8275 115.277 62.7913 115.283C57.9216 117.792 52.471 119.925 46.427 121.387C46.2707 121.425 46.1126 121.328 46.0753 121.171C46.0374 121.015 46.1336 120.858 46.29 120.82C48.1455 120.371 49.9451 119.858 51.6887 119.29C51.9973 118.946 52.1338 118.619 52.1291 118.311C52.1215 117.839 51.7908 117.436 51.351 117.115C50.6095 116.574 49.5374 116.266 48.8502 116.371C40.9361 118.056 35.514 118.621 35.514 118.621C35.3542 118.637 35.2107 118.521 35.1938 118.361C35.1775 118.201 35.2935 118.057 35.454 118.041C35.454 118.041 40.7687 117.487 48.5498 115.839L48.5609 115.836C48.6145 115.822 48.67 115.81 48.7283 115.801ZM62.558 114.748C62.94 114.316 63.0421 113.936 62.9511 113.632C62.8205 113.2 62.3223 112.956 61.9268 113.033C61.911 113.036 61.8953 113.037 61.8801 113.038C57.812 114.265 53.9328 115.245 50.4637 116.019C50.9018 116.168 51.3323 116.379 51.6945 116.644C52.2948 117.081 52.7025 117.66 52.7125 118.303C52.716 118.525 52.6728 118.757 52.5707 118.997C56.1384 117.784 59.4669 116.343 62.558 114.748ZM84.2259 103.86C83.4133 104.311 82.5925 104.749 81.766 105.174C81.7549 105.183 81.742 105.192 81.7292 105.2C77.8419 107.58 78.0799 112.488 78.1715 113.475C79.4081 114.253 80.86 115.08 82.5406 115.912C81.5495 114.539 81.4136 112.7 81.7065 110.824C82.1352 108.076 83.4815 105.261 84.2259 103.86ZM63.5082 114.25C65.8596 112.995 68.0699 111.654 70.1413 110.264C67.7117 111.169 65.2961 111.983 62.9389 112.714C63.2025 112.892 63.4143 113.148 63.5094 113.464C63.5788 113.694 63.5899 113.96 63.5082 114.25ZM76.7184 113.226C74.0741 111.445 72.621 110.023 72.1789 109.563C70.4505 110.79 68.6182 111.989 66.6815 113.134C69.1601 112.508 72.6304 112.168 76.7184 113.226ZM79.6321 106.236C77.3595 107.334 75.05 108.34 72.7406 109.262L72.7109 109.273C73.275 109.842 74.8354 111.307 77.5642 113.086C77.5117 111.752 77.6307 108.602 79.6321 106.236ZM80.4231 102.86C78.5775 104.567 76.5463 106.294 74.3273 107.983C76.5725 107.043 78.809 106.02 81.003 104.909C80.7976 104.723 80.5748 104.442 80.4535 104.045C80.3584 103.733 80.3234 103.342 80.4231 102.86ZM83.117 100.257C82.5616 100.818 81.9847 101.385 81.3874 101.955L81.3815 101.966C80.9236 102.823 80.8787 103.44 81.0117 103.875C81.1365 104.285 81.4154 104.515 81.5746 104.618C82.4327 104.175 83.2844 103.72 84.1261 103.25C83.9109 103.167 83.7353 103.053 83.5906 102.916C83.1444 102.494 82.9968 101.843 83.0102 101.186C83.0172 100.866 83.0604 100.545 83.117 100.257ZM89.7244 92.7567C88.185 94.7301 86.264 97.0022 83.9546 99.4003C83.9202 99.4925 83.611 100.345 83.5935 101.199C83.5836 101.686 83.66 102.179 83.9908 102.492C84.1932 102.683 84.4895 102.796 84.9043 102.81C88.0555 101.007 91.069 99.0019 93.8369 96.7747C92.3605 96.7461 91.4026 96.3454 90.786 95.7965C90.0989 95.1851 89.8195 94.3796 89.7395 93.63C89.7063 93.3226 89.7063 93.0251 89.7244 92.7567Z" fill="white"/>
<path fill-rule="evenodd" clip-rule="evenodd" d="M117.966 10.596C121.019 12.1174 122.262 15.8309 120.741 18.8835C119.219 21.936 115.506 23.1797 112.454 21.6584C109.4 20.137 108.158 16.4235 109.679 13.371C111.2 10.3184 114.914 9.07471 117.966 10.596Z" stroke="#EFEFF9" stroke-width="1.16667" stroke-linecap="round" stroke-linejoin="round"/>
<path fill-rule="evenodd" clip-rule="evenodd" d="M130.307 15.3179C130.974 15.6499 131.245 16.4607 130.913 17.1269C130.581 17.793 129.771 18.0643 129.104 17.7324C128.438 17.3999 128.167 16.5896 128.499 15.9234C128.831 15.2573 129.641 14.986 130.307 15.3179Z" fill="#F7F7FC"/>
<path fill-rule="evenodd" clip-rule="evenodd" d="M127.626 119.518C128.023 119.518 128.346 119.841 128.346 120.238C128.346 120.636 128.023 120.959 127.626 120.959C127.228 120.959 126.905 120.636 126.905 120.238C126.905 119.841 127.228 119.518 127.626 119.518Z" fill="#DFDFF4"/>
<path d="M121.558 108.763V118.814" stroke="#DFDFF4" stroke-width="1.16667" stroke-linecap="round" stroke-linejoin="round"/>
<path d="M126.533 113.789H116.585" stroke="#DFDFF4" stroke-width="1.16667" stroke-linecap="round" stroke-linejoin="round"/>
<path fill-rule="evenodd" clip-rule="evenodd" d="M19.5274 62.6074C20.0816 62.6074 20.5319 63.0572 20.5319 63.6119C20.5319 64.1661 20.0816 64.6164 19.5274 64.6164C18.9733 64.6164 18.5229 64.1661 18.5229 63.6119C18.5229 63.0572 18.9733 62.6074 19.5274 62.6074Z" fill="#DFDFF4"/>
<path fill-rule="evenodd" clip-rule="evenodd" d="M6.64148 63.1177V78.0633L18.9276 70.4589L6.64148 63.1177Z" stroke="#DFDFF4" stroke-width="1.16667" stroke-linecap="round" stroke-linejoin="round"/>
<path fill-rule="evenodd" clip-rule="evenodd" d="M66.1705 98.1707L68.2442 97.0273L71.1102 102.224C71.3884 102.725 72.0855 102.993 72.7388 102.632L73.8787 104.699C71.9292 105.774 69.8642 104.866 69.0364 103.368L68.4472 102.3L66.3735 103.443L65.2366 101.382L67.3103 100.238L66.1705 98.1707ZM72.5352 97.3563L70.4615 98.5003L71.5984 100.562L72.5866 100.017L72.5352 97.3563Z" fill="white"/>
</g>
<defs>
<clipPath id="clip0">
<rect width="140" height="140" fill="white"/>
</clipPath>
</defs>
</svg>
