<svg width="127" height="140" viewBox="0 0 127 140" fill="none" xmlns="http://www.w3.org/2000/svg">
<path fill-rule="evenodd" clip-rule="evenodd" d="M7.4213 60.9232L3.23312 17.9392C2.99304 15.4765 3.7976 13.0268 5.44789 11.1936C7.09819 9.36039 9.4404 8.31543 11.8972 8.31543H53.0284C57.5075 8.31543 61.2554 11.7375 61.6925 16.2265C62.9231 28.851 65.3252 53.5139 66.6537 67.1411C66.8937 69.6038 66.0892 72.0541 64.4389 73.8867C62.7886 75.7199 60.4464 76.7655 57.9896 76.7655H16.8584C16.8223 76.7655 16.7876 76.7655 16.7515 76.7655C13.2411 76.7642 7.8712 76.7629 3.15138 76.7616C2.39896 76.7616 1.72765 76.2832 1.47727 75.5689C1.22689 74.8539 1.45152 74.0578 2.03724 73.582C5.35199 70.9132 7.47665 66.8066 7.47665 62.2048C7.47665 61.7731 7.45798 61.3459 7.4213 60.9232Z" fill="white"/>
<path fill-rule="evenodd" clip-rule="evenodd" d="M86.8716 94.3025C87.1181 94.2928 87.3511 94.1845 87.5191 94.0017C87.6871 93.8189 87.7759 93.5765 87.7663 93.3276C87.6588 90.5641 87.3511 82.6472 87.3511 82.6472L86.5253 82.2803C86.5253 82.2803 86.1424 83.6254 85.7375 85.0508C85.119 87.2224 85.0192 89.5114 85.446 91.7296C85.5663 92.3546 85.6809 92.9568 85.7716 93.4248C85.8727 93.9505 86.34 94.3233 86.871 94.3025H86.8716Z" fill="#CBCBEF"/>
<path fill-rule="evenodd" clip-rule="evenodd" d="M88.3399 93.4658C88.3399 93.6914 88.0747 93.8755 87.7445 93.8775C87.415 93.8794 87.1453 93.6979 87.1395 93.4736L88.3399 93.4658Z" fill="#D5D5F4"/>
<path fill-rule="evenodd" clip-rule="evenodd" d="M87.3888 92.5703C87.4744 92.9618 87.2819 93.3262 86.9576 93.3858C86.6332 93.4454 86.2978 93.1777 86.2064 92.7868L87.3888 92.5703Z" fill="#A5A5E7"/>
<path fill-rule="evenodd" clip-rule="evenodd" d="M73.6619 97.1498C73.1889 96.9696 72.9501 96.4361 73.129 95.959C74.0501 93.5126 76.6085 86.708 76.6085 86.708L78.3238 87.3614C78.3238 87.3614 75.7654 94.166 74.8443 96.6137C74.6654 97.0902 74.1357 97.3307 73.6619 97.1498Z" fill="#CBCBEF"/>
<path fill-rule="evenodd" clip-rule="evenodd" d="M77.183 84.6205L74.5319 76.5571L80.5531 74.5488L83.2036 82.6116L77.183 84.6205Z" fill="#CBCBEF"/>
<path fill-rule="evenodd" clip-rule="evenodd" d="M76.4268 91.1051C77.1785 89.7347 78.5752 88.9685 80.1888 89.0431C82.4255 89.1468 84.1614 90.9865 84.0623 93.1477C83.996 94.5998 82.8625 95.2642 82.6559 94.6944C81.8424 92.4573 80.705 90.7829 78.4684 90.6792C77.734 90.6449 77.0363 90.8017 76.4268 91.1051Z" fill="#B2B2EB"/>
<path fill-rule="evenodd" clip-rule="evenodd" d="M85.1003 88.8189C83.5974 87.9898 82.5238 86.1579 82.4652 84.0051C82.3828 81.0206 84.2842 78.543 86.7075 78.4756C88.3339 78.4309 89.1771 79.8765 88.5586 80.2045C86.1321 81.4919 87.2378 83.1637 87.3202 86.1488C87.3472 87.129 84.7083 88.0365 85.1003 88.8189Z" fill="#C6C6F0"/>
<path fill-rule="evenodd" clip-rule="evenodd" d="M79.1172 96.0702C79.0271 95.5646 79.3618 95.081 79.8645 94.9903C81.1466 94.7595 83.4747 94.3401 84.7581 94.1093C85.2601 94.0192 85.7403 94.3557 85.8304 94.8619C85.9199 95.3682 85.5858 95.8511 85.0831 95.9419C83.7997 96.1727 81.4723 96.5921 80.1895 96.8229C79.6875 96.9136 79.2073 96.5765 79.1172 96.0709V96.0702Z" fill="#CBCBEF"/>
<path fill-rule="evenodd" clip-rule="evenodd" d="M77.806 95.694C77.6052 95.2214 77.8227 94.6743 78.2926 94.472C79.5277 93.9411 81.8043 92.961 83.0388 92.4301C83.5073 92.2272 84.0512 92.4469 84.2514 92.9201H84.252C84.4522 93.3927 84.234 93.9398 83.7654 94.1414C82.5303 94.673 80.2537 95.6531 79.0192 96.1847C78.55 96.3863 78.0068 96.1665 77.8066 95.6946C77.8066 95.694 77.806 95.694 77.806 95.694Z" fill="#CBCBEF"/>
<path fill-rule="evenodd" clip-rule="evenodd" d="M76.5243 94.655C76.4124 94.4353 76.3924 94.1799 76.4677 93.9446C76.5437 93.7106 76.7084 93.5148 76.9266 93.4026C77.9925 92.8549 79.8397 91.9039 80.9056 91.3555C81.1238 91.2434 81.3774 91.2233 81.6104 91.2991C81.8434 91.375 82.0371 91.5409 82.1485 91.7607C82.1485 91.7613 82.1491 91.7613 82.1491 91.7613C82.2605 91.9811 82.2804 92.2371 82.2051 92.4718C82.1298 92.7064 81.9644 92.9016 81.7462 93.0137C80.6803 93.5615 78.8337 94.5124 77.7679 95.0608C77.5497 95.173 77.2954 95.1937 77.0624 95.1172C76.8294 95.0414 76.6357 94.8754 76.5243 94.6557V94.655Z" fill="#CBCBEF"/>
<mask id="mask0" mask-type="alpha" maskUnits="userSpaceOnUse" x="1" y="8" width="66" height="69">
<path d="M11.8973 8.31445C9.44052 8.31445 7.09767 9.35941 5.44737 11.1933C3.79772 13.0265 2.99317 15.4762 3.23324 17.9388L7.42077 60.9229C7.45746 61.3456 7.47677 61.7721 7.47677 62.2038C7.47677 66.8063 5.35211 70.9129 2.03736 73.5811C1.45165 74.0575 1.22702 74.8529 1.47739 75.5686C1.72777 76.2823 2.39909 76.7607 3.1515 76.7607C7.87132 76.7626 13.2406 76.7639 16.7516 76.7652C16.7877 76.7652 16.8231 76.7652 16.8578 76.7652H57.9897C60.4465 76.7652 62.7881 75.7189 64.439 73.8857C66.0893 72.0538 66.8939 69.6035 66.6531 67.1402C65.326 53.5129 62.9226 28.8506 61.6926 16.2256C61.2549 11.7372 57.5076 8.31445 53.0279 8.31445" fill="white"/>
</mask>
<g mask="url(#mask0)">
<path fill-rule="evenodd" clip-rule="evenodd" d="M81.1689 69.7956C82.3499 70.8698 82.4561 72.6997 81.407 73.9055C80.2645 75.2181 78.8112 76.888 77.6584 78.2124C77.1448 78.8029 76.4169 79.1607 75.6387 79.2068C74.8605 79.2521 74.0965 78.9818 73.5179 78.4561C68.3578 73.7642 55.3859 61.9694 48.7313 55.9188C46.4702 53.8632 46.2668 50.3595 48.2749 48.0524C49.3221 46.8499 50.8038 46.12 52.3891 46.0267C53.9744 45.934 55.5301 46.4843 56.7092 47.5565C63.497 53.7284 76.1504 65.2327 81.1689 69.7956Z" fill="#6969DB"/>
</g>
<mask id="mask1" mask-type="alpha" maskUnits="userSpaceOnUse" x="1" y="8" width="66" height="69">
<path d="M11.8973 8.31445C9.44052 8.31445 7.09767 9.35941 5.44737 11.1933C3.79772 13.0265 2.99317 15.4762 3.23324 17.9388L7.42077 60.9229C7.45746 61.3456 7.47677 61.7721 7.47677 62.2038C7.47677 66.8063 5.35211 70.9129 2.03736 73.5811C1.45165 74.0575 1.22702 74.8529 1.47739 75.5686C1.72777 76.2823 2.39909 76.7607 3.1515 76.7607C7.87132 76.7626 13.2406 76.7639 16.7516 76.7652C16.7877 76.7652 16.8231 76.7652 16.8578 76.7652H57.9897C60.4465 76.7652 62.7881 75.7189 64.439 73.8857C66.0893 72.0538 66.8939 69.6035 66.6531 67.1402C65.326 53.5129 62.9226 28.8506 61.6926 16.2256C61.2549 11.7372 57.5076 8.31445 53.0279 8.31445" fill="white"/>
</mask>
<g mask="url(#mask1)">
<path fill-rule="evenodd" clip-rule="evenodd" d="M53.0522 45.9513C55.5753 46.0136 57.6941 47.8818 58.0887 50.3924C59.8677 61.71 64.5154 91.2846 64.5154 91.2846L16.8416 77.6236C16.8416 77.6236 8.50773 66.5147 2.74393 58.8312C1.39421 57.0323 0.888308 54.7311 1.35688 52.5258C1.82545 50.3211 3.22344 48.4308 5.1859 47.3457H5.18654L33.1502 45.46C33.1502 45.46 46.0706 45.7789 53.0522 45.9513Z" fill="#9191E3"/>
</g>
<mask id="mask2" mask-type="alpha" maskUnits="userSpaceOnUse" x="6" y="45" width="57" height="32">
<path d="M6.09229 47.2841L7.42076 60.923C7.45745 61.3457 7.47676 61.7722 7.47676 62.204C7.47676 63.0998 7.3963 63.9762 7.24247 64.8274C11.0026 69.8402 14.7357 74.8161 16.1968 76.7647C16.3867 76.7647 16.5714 76.7647 16.7516 76.7647C16.7877 76.7653 16.8231 76.7653 16.8578 76.7653H57.9897C59.4289 76.7653 60.8282 76.4062 62.0723 75.7405C60.666 66.7883 59.0002 56.1922 58.0888 50.3918C57.6943 47.8818 55.5754 46.0136 53.0523 45.9507C46.0708 45.7789 33.1497 45.46 33.1497 45.46L6.09229 47.2841Z" fill="white"/>
</mask>
<g mask="url(#mask2)">
<path fill-rule="evenodd" clip-rule="evenodd" d="M66.1085 84.5508L60.1008 44.6614L55.3842 43.0732C55.3842 43.0732 55.966 58.5091 56.3207 67.9526C56.3915 69.8235 55.7009 71.6418 54.4091 72.9875C53.116 74.3332 51.335 75.0897 49.4762 75.0826C44.925 75.0625 39.0666 75.0372 34.6371 75.0184C30.5338 75.0016 26.6759 73.0478 24.2139 69.7418C20.0625 64.1669 13.451 55.2893 8.65906 48.8549C7.64919 47.4981 5.93196 46.881 4.29646 47.2861C2.66162 47.6913 1.42518 49.0409 1.1555 50.7147C-0.96337 63.8551 -4.45898 85.5368 -4.45898 85.5368L66.1085 84.5508Z" fill="#6969DB"/>
</g>
<mask id="mask3" mask-type="alpha" maskUnits="userSpaceOnUse" x="1" y="8" width="66" height="69">
<path d="M11.8973 8.31445C9.44052 8.31445 7.09767 9.35941 5.44737 11.1933C3.79772 13.0265 2.99317 15.4762 3.23324 17.9388L7.42077 60.9229C7.45746 61.3456 7.47677 61.7721 7.47677 62.2038C7.47677 66.8063 5.35211 70.9129 2.03736 73.5811C1.45165 74.0575 1.22702 74.8529 1.47739 75.5686C1.72777 76.2823 2.39909 76.7607 3.1515 76.7607C7.87132 76.7626 13.2406 76.7639 16.7516 76.7652C16.7877 76.7652 16.8231 76.7652 16.8578 76.7652H57.9897C60.4465 76.7652 62.7881 75.7189 64.439 73.8857C66.0893 72.0538 66.8939 69.6035 66.6531 67.1402C65.326 53.5129 62.9226 28.8506 61.6926 16.2256C61.2549 11.7372 57.5076 8.31445 53.0279 8.31445" fill="white"/>
</mask>
<g mask="url(#mask3)">
<path fill-rule="evenodd" clip-rule="evenodd" d="M18.7324 20.5336C27.9847 15.452 39.7357 19.1554 44.9582 28.7992C50.18 38.4431 46.9084 50.3986 37.6561 55.4801C28.4037 60.5623 16.6528 56.8583 11.4303 47.2151C6.20842 37.5712 9.48004 25.6158 18.7324 20.5336Z" fill="#9191E3"/>
</g>
<mask id="mask4" mask-type="alpha" maskUnits="userSpaceOnUse" x="1" y="8" width="66" height="69">
<path d="M11.8973 8.31445C9.44052 8.31445 7.09767 9.35941 5.44737 11.1933C3.79772 13.0265 2.99317 15.4762 3.23324 17.9388L7.42077 60.9229C7.45746 61.3456 7.47677 61.7721 7.47677 62.2038C7.47677 66.8063 5.35211 70.9129 2.03736 73.5811C1.45165 74.0575 1.22702 74.8529 1.47739 75.5686C1.72777 76.2823 2.39909 76.7607 3.1515 76.7607C7.87132 76.7626 13.2406 76.7639 16.7516 76.7652C16.7877 76.7652 16.8231 76.7652 16.8578 76.7652H57.9897C60.4465 76.7652 62.7881 75.7189 64.439 73.8857C66.0893 72.0538 66.8939 69.6035 66.6531 67.1402C65.326 53.5129 62.9226 28.8506 61.6926 16.2256C61.2549 11.7372 57.5076 8.31445 53.0279 8.31445" fill="white"/>
</mask>
<g mask="url(#mask4)">
<path fill-rule="evenodd" clip-rule="evenodd" d="M40.4055 36.8935C43.4911 42.5928 41.4057 49.7319 35.7475 52.8395C30.0892 55.9479 23.0008 53.8476 19.9152 48.1489C18.4632 45.4671 16.8991 42.5786 15.4471 39.8975C12.3608 34.1988 14.4462 27.0597 20.1044 23.9514C25.7627 20.8438 32.8518 22.9441 35.9374 28.6427C37.3894 31.3239 38.9535 34.2124 40.4055 36.8935Z" fill="#6969DB"/>
</g>
<mask id="mask5" mask-type="alpha" maskUnits="userSpaceOnUse" x="1" y="8" width="66" height="69">
<path d="M11.8973 8.31445C9.44052 8.31445 7.09767 9.35941 5.44737 11.1933C3.79772 13.0265 2.99317 15.4762 3.23324 17.9388L7.42077 60.9229C7.45746 61.3456 7.47677 61.7721 7.47677 62.2038C7.47677 66.8063 5.35211 70.9129 2.03736 73.5811C1.45165 74.0575 1.22702 74.8529 1.47739 75.5686C1.72777 76.2823 2.39909 76.7607 3.1515 76.7607C7.87132 76.7626 13.2406 76.7639 16.7516 76.7652C16.7877 76.7652 16.8231 76.7652 16.8578 76.7652H57.9897C60.4465 76.7652 62.7881 75.7189 64.439 73.8857C66.0893 72.0538 66.8939 69.6035 66.6531 67.1402C65.326 53.5129 62.9226 28.8506 61.6926 16.2256C61.2549 11.7372 57.5076 8.31445 53.0279 8.31445" fill="white"/>
</mask>
<g mask="url(#mask5)">
<path d="M39.0766 47.9043C39.0766 47.9043 38.7078 49.6169 38.2997 51.5098C37.7108 54.2434 39.4344 56.9414 42.1493 57.5345C44.8648 58.1277 46.5879 60.825 45.9989 63.5593C45.6469 65.1915 45.3444 66.5976 45.3444 66.5976" stroke="#CCCCF2" stroke-width="0.648239" stroke-linecap="round" stroke-linejoin="round"/>
</g>
<mask id="mask6" mask-type="alpha" maskUnits="userSpaceOnUse" x="1" y="8" width="66" height="69">
<path d="M11.8973 8.31445C9.44052 8.31445 7.09767 9.35941 5.44737 11.1933C3.79772 13.0265 2.99317 15.4762 3.23324 17.9388L7.42077 60.9229C7.45746 61.3456 7.47677 61.7721 7.47677 62.2038C7.47677 66.8063 5.35211 70.9129 2.03736 73.5811C1.45165 74.0575 1.22702 74.8529 1.47739 75.5686C1.72777 76.2823 2.39909 76.7607 3.1515 76.7607C7.87132 76.7626 13.2406 76.7639 16.7516 76.7652C16.7877 76.7652 16.8231 76.7652 16.8578 76.7652H57.9897C60.4465 76.7652 62.7881 75.7189 64.439 73.8857C66.0893 72.0538 66.8939 69.6035 66.6531 67.1402C65.326 53.5129 62.9226 28.8506 61.6926 16.2256C61.2549 11.7372 57.5076 8.31445 53.0279 8.31445" fill="white"/>
</mask>
<g mask="url(#mask6)">
<path d="M24.6905 50.8301C24.6905 50.8301 24.3217 52.5421 23.9136 54.4349C23.3247 57.1692 25.0483 59.8665 27.7632 60.4597H27.7639C30.4787 61.0528 32.2018 63.7501 31.6128 66.4844C31.2608 68.1173 30.9582 69.5233 30.9582 69.5233" stroke="#CCCCF2" stroke-width="0.648239" stroke-linecap="round" stroke-linejoin="round"/>
</g>
<mask id="mask7" mask-type="alpha" maskUnits="userSpaceOnUse" x="1" y="8" width="66" height="69">
<path d="M11.8973 8.31445C9.44052 8.31445 7.09767 9.35941 5.44737 11.1933C3.79772 13.0265 2.99317 15.4762 3.23324 17.9388L7.42077 60.9229C7.45746 61.3456 7.47677 61.7721 7.47677 62.2038C7.47677 66.8063 5.35211 70.9129 2.03736 73.5811C1.45165 74.0575 1.22702 74.8529 1.47739 75.5686C1.72777 76.2823 2.39909 76.7607 3.1515 76.7607C7.87132 76.7626 13.2406 76.7639 16.7516 76.7652C16.7877 76.7652 16.8231 76.7652 16.8578 76.7652H57.9897C60.4465 76.7652 62.7881 75.7189 64.439 73.8857C66.0893 72.0538 66.8939 69.6035 66.6531 67.1402C65.326 53.5129 62.9226 28.8506 61.6926 16.2256C61.2549 11.7372 57.5076 8.31445 53.0279 8.31445" fill="white"/>
</mask>
<g mask="url(#mask7)">
<path fill-rule="evenodd" clip-rule="evenodd" d="M63.5632 52.5646C63.5748 52.7921 63.6868 53.0028 63.8696 53.1376C64.0517 53.2731 64.2847 53.3178 64.5042 53.2608C64.7526 53.1959 65.0191 53.1266 65.2579 53.0644C65.7522 52.9354 66.2607 52.8718 66.7711 52.8751C68.7941 52.8887 74.1105 52.925 74.1105 52.925L73.66 50.332C73.66 50.332 67.7005 50.8966 66.0451 51.0535C65.7644 51.0801 65.4857 51.1281 65.2122 51.1974C64.9863 51.2545 64.6966 51.3277 64.4212 51.3977C63.8953 51.5306 63.5362 52.0194 63.5632 52.5646Z" fill="#C6C6F0"/>
</g>
<mask id="mask8" mask-type="alpha" maskUnits="userSpaceOnUse" x="63" y="51" width="3" height="3">
<path d="M64.4216 51.398C63.8951 51.5303 63.536 52.0197 63.5636 52.5648C63.5752 52.7924 63.6866 53.0031 63.87 53.1379C64.0515 53.2727 64.2845 53.3181 64.504 53.2604C64.7524 53.1962 65.0189 53.1262 65.2577 53.064C65.2654 53.062 65.2731 53.0601 65.2815 53.0582C65.2223 52.4521 65.1624 51.8401 65.1026 51.2256C64.8973 51.2774 64.654 51.339 64.4216 51.398Z" fill="white"/>
</mask>
<g mask="url(#mask8)">
<path fill-rule="evenodd" clip-rule="evenodd" d="M63.226 53.0376C63.2382 53.2865 63.3476 53.5199 63.5311 53.6871C63.7145 53.8537 63.9559 53.9412 64.203 53.9283C66.9456 53.7908 74.8038 53.3967 74.8038 53.3967L75.1584 52.5611C75.1584 52.5611 73.8184 52.1897 72.3998 51.7969C70.2365 51.1979 67.9625 51.1214 65.7645 51.5745C65.146 51.7022 64.5493 51.8254 64.0852 51.9207C63.5645 52.0283 63.199 52.5028 63.2253 53.0376H63.226Z" fill="#CBCBEF"/>
</g>
<mask id="mask9" mask-type="alpha" maskUnits="userSpaceOnUse" x="63" y="51" width="3" height="3">
<path d="M64.0856 51.9213C63.9099 51.9576 63.7515 52.036 63.6202 52.1436C63.5765 52.2758 63.5559 52.4185 63.5636 52.5643C63.5752 52.7918 63.6865 53.0025 63.87 53.1373C64.0515 53.2722 64.2845 53.3176 64.504 53.2599C64.7524 53.1957 65.0189 53.1257 65.2577 53.0635C65.2654 53.0615 65.2738 53.0596 65.2808 53.0576C65.2371 52.609 65.1933 52.1566 65.1489 51.7021C64.7576 51.7832 64.3926 51.8584 64.0856 51.9213Z" fill="white"/>
</mask>
<g mask="url(#mask9)">
</g>
<mask id="mask10" mask-type="alpha" maskUnits="userSpaceOnUse" x="63" y="51" width="3" height="3">
<path d="M64.4216 51.398C63.8951 51.5303 63.536 52.0197 63.5636 52.5648C63.5752 52.7924 63.6866 53.0031 63.87 53.1379C64.0515 53.2727 64.2845 53.3181 64.504 53.2604C64.7524 53.1962 65.0189 53.1262 65.2577 53.064C65.2654 53.062 65.2731 53.0601 65.2815 53.0582C65.2223 52.4521 65.1624 51.8401 65.1026 51.2256C64.8973 51.2774 64.654 51.339 64.4216 51.398Z" fill="white"/>
</mask>
<g mask="url(#mask10)">
<path fill-rule="evenodd" clip-rule="evenodd" d="M64.9524 53.5414C64.5649 53.6315 64.2006 53.4416 64.1382 53.1155C64.0758 52.7895 64.3384 52.4491 64.7246 52.3525L64.9524 53.5414Z" fill="#A5A5E7"/>
</g>
<mask id="mask11" mask-type="alpha" maskUnits="userSpaceOnUse" x="1" y="8" width="66" height="69">
<path d="M11.8973 8.31445C9.44052 8.31445 7.09767 9.35941 5.44737 11.1933C3.79772 13.0265 2.99317 15.4762 3.23324 17.9388L7.42077 60.9229C7.45746 61.3456 7.47677 61.7721 7.47677 62.2038C7.47677 66.8063 5.35211 70.9129 2.03736 73.5811C1.45165 74.0575 1.22702 74.8529 1.47739 75.5686C1.72777 76.2823 2.39909 76.7607 3.1515 76.7607C7.87132 76.7626 13.2406 76.7639 16.7516 76.7652C16.7877 76.7652 16.8231 76.7652 16.8578 76.7652H57.9897C60.4465 76.7652 62.7881 75.7189 64.439 73.8857C66.0893 72.0538 66.8939 69.6035 66.6531 67.1402C65.326 53.5129 62.9226 28.8506 61.6926 16.2256C61.2549 11.7372 57.5076 8.31445 53.0279 8.31445" fill="white"/>
</mask>
<g mask="url(#mask11)">
<path fill-rule="evenodd" clip-rule="evenodd" d="M61.3446 46.6581C61.3086 47.1709 61.6916 47.6162 62.2007 47.6525C63.2189 47.7251 64.8493 47.8412 65.8675 47.9138C66.3766 47.9501 66.8182 47.5637 66.8542 47.051C66.8902 46.5382 66.5073 46.0929 65.9975 46.0566C64.9799 45.984 63.3496 45.8679 62.3313 45.7953C61.8222 45.759 61.3807 46.1454 61.3446 46.6581Z" fill="#A5A5E7"/>
</g>
<mask id="mask12" mask-type="alpha" maskUnits="userSpaceOnUse" x="1" y="8" width="66" height="69">
<path d="M11.8973 8.31445C9.44052 8.31445 7.09767 9.35941 5.44737 11.1933C3.79772 13.0265 2.99317 15.4762 3.23324 17.9388L7.42077 60.9229C7.45746 61.3456 7.47677 61.7721 7.47677 62.2038C7.47677 66.8063 5.35211 70.9129 2.03736 73.5811C1.45165 74.0575 1.22702 74.8529 1.47739 75.5686C1.72777 76.2823 2.39909 76.7607 3.1515 76.7607C7.87132 76.7626 13.2406 76.7639 16.7516 76.7652C16.7877 76.7652 16.8231 76.7652 16.8578 76.7652H57.9897C60.4465 76.7652 62.7881 75.7189 64.439 73.8857C66.0893 72.0538 66.8939 69.6035 66.6531 67.1402C65.326 53.5129 62.9226 28.8506 61.6926 16.2256C61.2549 11.7372 57.5076 8.31445 53.0279 8.31445H11.8973Z" fill="white"/>
</mask>
<g mask="url(#mask12)">
<path fill-rule="evenodd" clip-rule="evenodd" d="M61.4861 44.7787C61.5163 45.2915 61.9534 45.683 62.4631 45.6532C63.482 45.5929 65.113 45.4969 66.1332 45.4373C66.6416 45.4068 67.0304 44.9667 67.0008 44.4533C66.9712 43.9399 66.5335 43.5483 66.0244 43.5788C65.0055 43.6385 63.3739 43.7344 62.355 43.7947C61.8452 43.8245 61.4565 44.2653 61.4861 44.7781V44.7787Z" fill="#A5A5E7"/>
</g>
<mask id="mask13" mask-type="alpha" maskUnits="userSpaceOnUse" x="1" y="8" width="66" height="69">
<path d="M11.8973 8.31445C9.44052 8.31445 7.09767 9.35941 5.44737 11.1933C3.79772 13.0265 2.99317 15.4762 3.23324 17.9388L7.42077 60.9229C7.45746 61.3456 7.47677 61.7721 7.47677 62.2038C7.47677 66.8063 5.35211 70.9129 2.03736 73.5811C1.45165 74.0575 1.22702 74.8529 1.47739 75.5686C1.72777 76.2823 2.39909 76.7607 3.1515 76.7607C7.87132 76.7626 13.2406 76.7639 16.7516 76.7652C16.7877 76.7652 16.8231 76.7652 16.8578 76.7652H57.9897C60.4465 76.7652 62.7881 75.7189 64.439 73.8857C66.0893 72.0538 66.8939 69.6035 66.6531 67.1402C65.326 53.5129 62.9226 28.8506 61.6926 16.2256C61.2549 11.7372 57.5076 8.31445 53.0279 8.31445" fill="white"/>
</mask>
<g mask="url(#mask13)">
<path fill-rule="evenodd" clip-rule="evenodd" d="M61.8833 42.9368C61.938 43.4483 62.3937 43.8178 62.9009 43.7627C63.9089 43.6538 65.5167 43.4794 66.524 43.3698C67.0312 43.3154 67.3987 42.8564 67.344 42.345C67.2893 41.8341 66.8336 41.464 66.3264 41.5191C65.3184 41.628 63.7106 41.8024 62.7033 41.9119C62.1955 41.9664 61.8286 42.4253 61.8833 42.9368Z" fill="#A5A5E7"/>
</g>
<mask id="mask14" mask-type="alpha" maskUnits="userSpaceOnUse" x="1" y="8" width="66" height="69">
<path d="M11.8973 8.31445C9.44052 8.31445 7.09767 9.35941 5.44737 11.1933C3.79772 13.0265 2.99317 15.4762 3.23324 17.9388L7.42077 60.9229C7.45746 61.3456 7.47677 61.7721 7.47677 62.2038C7.47677 66.8063 5.35211 70.9129 2.03736 73.5811C1.45165 74.0575 1.22702 74.8529 1.47739 75.5686C1.72777 76.2823 2.39909 76.7607 3.1515 76.7607C7.87132 76.7626 13.2406 76.7639 16.7516 76.7652C16.7877 76.7652 16.8231 76.7652 16.8578 76.7652H57.9897C60.4465 76.7652 62.7881 75.7189 64.439 73.8857C66.0893 72.0538 66.8939 69.6035 66.6531 67.1402C65.326 53.5129 62.9226 28.8506 61.6926 16.2256C61.2549 11.7372 57.5076 8.31445 53.0279 8.31445H11.8973Z" fill="white"/>
</mask>
<g mask="url(#mask14)">
<path fill-rule="evenodd" clip-rule="evenodd" d="M62.191 48.5874C62.0352 49.0729 62.3004 49.5928 62.7825 49.7496C64.3131 50.2462 67.3208 51.2224 67.3208 51.2224L67.8833 49.4644C67.8833 49.4644 64.8756 48.4882 63.345 47.991C62.8629 47.8348 62.3461 48.1012 62.191 48.5867V48.5874Z" fill="#A5A5E7"/>
</g>
<mask id="mask15" mask-type="alpha" maskUnits="userSpaceOnUse" x="1" y="8" width="66" height="69">
<path d="M11.8973 8.31445C9.44052 8.31445 7.09767 9.35941 5.44737 11.1933C3.79772 13.0265 2.99317 15.4762 3.23324 17.9388L7.42077 60.9229C7.45746 61.3456 7.47677 61.7721 7.47677 62.2038C7.47677 66.8063 5.35211 70.9129 2.03736 73.5811C1.45165 74.0575 1.22702 74.8529 1.47739 75.5686C1.72777 76.2823 2.39909 76.7607 3.1515 76.7607C7.87132 76.7626 13.2406 76.7639 16.7516 76.7652C16.7877 76.7652 16.8231 76.7652 16.8578 76.7652H57.9897C60.4465 76.7652 62.7881 75.7189 64.439 73.8857C66.0893 72.0538 66.8939 69.6035 66.6531 67.1402C65.326 53.5129 62.9226 28.8506 61.6926 16.2256C61.2549 11.7372 57.5076 8.31445 53.0279 8.31445H11.8973Z" fill="white"/>
</mask>
<g mask="url(#mask15)">
<path fill-rule="evenodd" clip-rule="evenodd" d="M46.4341 52.2002H48.3766L48.6623 57.1028C48.6913 57.5767 49.1142 58.048 49.7256 58.048L49.8396 59.9979C48.0136 59.9979 46.8042 58.5166 46.7198 57.1028L46.6613 56.0955H44.7188L44.6055 54.1507H46.548L46.4341 52.2002ZM51.4416 54.1507H49.4991L49.6124 56.0955H50.5386L51.4416 54.1507Z" fill="white"/>
</g>
<path fill-rule="evenodd" clip-rule="evenodd" d="M107.748 139.629H70.2693C67.8118 139.629 65.4696 138.584 63.8193 136.751C62.169 134.917 61.3645 132.468 61.6046 130.005C62.9324 116.378 65.3357 91.7149 66.5664 79.0905C67.0028 74.6021 70.7513 71.1787 75.2304 71.1787H116.361C118.818 71.1787 121.16 72.225 122.81 74.0582C124.461 75.8908 125.265 78.3405 125.025 80.8031L120.822 123.946C120.79 124.34 120.773 124.738 120.773 125.14C120.773 129.742 122.898 133.848 126.213 136.517C126.799 136.993 127.023 137.789 126.773 138.504C126.522 139.218 125.852 139.697 125.098 139.697C117.289 139.699 107.699 139.701 107.699 139.701L107.748 139.629Z" fill="white"/>
<mask id="mask16" mask-type="alpha" maskUnits="userSpaceOnUse" x="61" y="71" width="66" height="69">
<path d="M75.2302 71.1787C70.7511 71.1787 67.0032 74.6021 66.5662 79.0905C65.3355 91.7149 62.9328 116.378 61.605 130.005C61.3643 132.468 62.1688 134.917 63.8198 136.751C65.4701 138.584 67.8116 139.629 70.2691 139.629H107.748L107.699 139.701C107.699 139.701 117.288 139.699 125.098 139.698C125.851 139.698 126.522 139.218 126.773 138.503C127.023 137.789 126.798 136.992 126.213 136.517C122.898 133.848 120.774 129.742 120.774 125.141C120.774 124.739 120.79 124.34 120.822 123.946L125.025 80.8031C125.265 78.3411 124.46 75.8908 122.811 74.0582C121.16 72.225 118.818 71.1787 116.361 71.1787H75.2302Z" fill="white"/>
</mask>
<g mask="url(#mask16)">
<path fill-rule="evenodd" clip-rule="evenodd" d="M62.0584 133.831L122.659 59.167L118.926 56.0938L58.3253 130.757L62.0584 133.831Z" fill="#FAFAFD"/>
</g>
<mask id="mask17" mask-type="alpha" maskUnits="userSpaceOnUse" x="61" y="71" width="66" height="69">
<path d="M75.2302 71.1787C70.7511 71.1787 67.0032 74.6021 66.5662 79.0905C65.3355 91.7149 62.9328 116.378 61.605 130.005C61.3643 132.468 62.1688 134.917 63.8198 136.751C65.4701 138.584 67.8116 139.629 70.2691 139.629H107.748L107.699 139.701C107.699 139.701 117.288 139.699 125.098 139.698C125.851 139.698 126.522 139.218 126.773 138.503C127.023 137.789 126.798 136.992 126.213 136.517C122.898 133.848 120.774 129.742 120.774 125.141C120.774 124.739 120.79 124.34 120.822 123.946L125.025 80.8031C125.265 78.3411 124.46 75.8908 122.811 74.0582C121.16 72.225 118.818 71.1787 116.361 71.1787H75.2302Z" fill="white"/>
</mask>
<g mask="url(#mask17)">
<path fill-rule="evenodd" clip-rule="evenodd" d="M54.2873 128.446L114.887 53.7822L112.869 52.1201L52.2682 126.784L54.2873 128.446Z" fill="#FAFAFD"/>
</g>
<mask id="mask18" mask-type="alpha" maskUnits="userSpaceOnUse" x="61" y="71" width="66" height="69">
<path d="M75.2302 71.1787C70.7511 71.1787 67.0032 74.6021 66.5662 79.0905C65.3355 91.7149 62.9328 116.378 61.605 130.005C61.3643 132.468 62.1688 134.917 63.8198 136.751C65.4701 138.584 67.8116 139.629 70.2691 139.629H107.748L107.699 139.701C107.699 139.701 117.288 139.699 125.098 139.698C125.851 139.698 126.522 139.218 126.773 138.503C127.023 137.789 126.798 136.992 126.213 136.517C122.898 133.848 120.774 129.742 120.774 125.141C120.774 124.739 120.79 124.34 120.822 123.946L125.025 80.8031C125.265 78.3411 124.46 75.8908 122.811 74.0582C121.16 72.225 118.818 71.1787 116.361 71.1787H75.2302Z" fill="white"/>
</mask>
<g mask="url(#mask18)">
<path fill-rule="evenodd" clip-rule="evenodd" d="M75.7141 164.907L136.314 90.2431L134.296 88.5811L73.6943 163.245L75.7141 164.907Z" fill="#FAFAFD"/>
</g>
<mask id="mask19" mask-type="alpha" maskUnits="userSpaceOnUse" x="61" y="71" width="66" height="69">
<path d="M75.2302 71.1787C70.7511 71.1787 67.0032 74.6021 66.5662 79.0905C65.3355 91.7149 62.9328 116.378 61.605 130.005C61.3643 132.468 62.1688 134.917 63.8198 136.751C65.4701 138.584 67.8116 139.629 70.2691 139.629H107.748L107.699 139.701C107.699 139.701 117.288 139.699 125.098 139.698C125.851 139.698 126.522 139.218 126.773 138.503C127.023 137.789 126.798 136.992 126.213 136.517C122.898 133.848 120.774 129.742 120.774 125.141C120.774 124.739 120.79 124.34 120.822 123.946L125.025 80.8031C125.265 78.3411 124.46 75.8908 122.811 74.0582C121.16 72.225 118.818 71.1787 116.361 71.1787" fill="white"/>
</mask>
<g mask="url(#mask19)">
<path d="M95.4759 68.6709L88.5098 141.407" stroke="#F3F3FC" stroke-width="1.29648" stroke-linecap="round" stroke-linejoin="round"/>
</g>
<mask id="mask20" mask-type="alpha" maskUnits="userSpaceOnUse" x="61" y="71" width="66" height="69">
<path d="M75.2302 71.1787C70.7511 71.1787 67.0032 74.6021 66.5662 79.0905C65.3355 91.7149 62.9328 116.378 61.605 130.005C61.3643 132.468 62.1688 134.917 63.8198 136.751C65.4701 138.584 67.8116 139.629 70.2691 139.629H107.748L107.699 139.701C107.699 139.701 117.288 139.699 125.098 139.698C125.851 139.698 126.522 139.218 126.773 138.503C127.023 137.789 126.798 136.992 126.213 136.517C122.898 133.848 120.774 129.742 120.774 125.141C120.774 124.739 120.79 124.34 120.822 123.946L125.025 80.8031C125.265 78.3411 124.46 75.8908 122.811 74.0582C121.16 72.225 118.818 71.1787 116.361 71.1787" fill="white"/>
</mask>
<g mask="url(#mask20)">
<path d="M128.27 95.1787H55.7145" stroke="#F3F3FC" stroke-width="1.29648" stroke-linecap="round" stroke-linejoin="round"/>
</g>
<mask id="mask21" mask-type="alpha" maskUnits="userSpaceOnUse" x="61" y="71" width="66" height="69">
<path d="M75.2302 71.1787C70.7511 71.1787 67.0032 74.6021 66.5662 79.0905C65.3355 91.7149 62.9328 116.378 61.605 130.005C61.3643 132.468 62.1688 134.917 63.8198 136.751C65.4701 138.584 67.8116 139.629 70.2691 139.629H107.748L107.699 139.701C107.699 139.701 117.288 139.699 125.098 139.698C125.851 139.698 126.522 139.218 126.773 138.503C127.023 137.789 126.798 136.992 126.213 136.517C122.898 133.848 120.774 129.742 120.774 125.141C120.774 124.739 120.79 124.34 120.822 123.946L125.025 80.8031C125.265 78.3411 124.46 75.8908 122.811 74.0582C121.16 72.225 118.818 71.1787 116.361 71.1787" fill="white"/>
</mask>
<g mask="url(#mask21)">
<path d="M128.27 120.17H55.7145" stroke="#F3F3FC" stroke-width="1.29648" stroke-linecap="round" stroke-linejoin="round"/>
</g>
<path fill-rule="evenodd" clip-rule="evenodd" d="M61.7863 42.7965C61.7502 43.3092 62.1345 43.7539 62.643 43.7896C63.5602 43.8544 64.9594 43.9529 65.8766 44.0178C66.3857 44.0541 66.8273 43.6671 66.8627 43.1543C66.8987 42.6415 66.5151 42.1969 66.006 42.1606C65.0888 42.0964 63.6895 41.9972 62.7723 41.933C62.2632 41.8967 61.8217 42.2831 61.7863 42.7958V42.7965Z" fill="#B2B2EB"/>
<mask id="mask22" mask-type="alpha" maskUnits="userSpaceOnUse" x="61" y="41" width="6" height="4">
<path d="M61.7865 42.7935V42.7948C61.7505 43.3069 62.1341 43.7522 62.6432 43.7872C63.5598 43.8527 64.9597 43.9506 65.8762 44.016C66.386 44.0523 66.8269 43.6653 66.8629 43.1526C66.899 42.6398 66.5154 42.1945 66.0062 42.1588C65.0884 42.094 63.6898 41.9948 62.7719 41.9313C62.7494 41.93 62.7275 41.9287 62.705 41.9287C62.2248 41.9287 61.82 42.304 61.7865 42.7935Z" fill="white"/>
</mask>
<g mask="url(#mask22)">
<path fill-rule="evenodd" clip-rule="evenodd" d="M60.1901 42.2248C60.1547 42.7375 60.5383 43.1822 61.0475 43.2179C62.3476 43.3099 64.7066 43.4759 66.0067 43.5679C66.5158 43.6036 66.9574 43.2172 66.9934 42.7045V42.7038C67.0288 42.1911 66.6452 41.7464 66.1361 41.7107C64.8359 41.6187 62.477 41.4527 61.1768 41.3607C60.6677 41.325 60.2262 41.7114 60.1901 42.2241V42.2248Z" fill="#CBCBEF"/>
</g>
<path fill-rule="evenodd" clip-rule="evenodd" d="M61.5185 44.4171C61.4361 44.6498 61.4483 44.9052 61.5526 45.1289C61.6575 45.3519 61.8455 45.5243 62.0765 45.6079C63.1167 45.9839 64.848 46.6094 65.8882 46.9854C66.1186 47.069 66.3728 47.0567 66.5942 46.9511C66.8163 46.846 66.9869 46.6561 67.0699 46.424V46.4234C67.1529 46.1913 67.1407 45.9353 67.0364 45.7123C66.9315 45.4893 66.7429 45.3168 66.5125 45.2332C65.4724 44.8572 63.741 44.2317 62.7009 43.8557C62.4704 43.7721 62.2162 43.7844 61.9941 43.8894C61.7727 43.9951 61.6015 44.1844 61.5191 44.4171H61.5185Z" fill="#B2B2EB"/>
<mask id="mask23" mask-type="alpha" maskUnits="userSpaceOnUse" x="61" y="43" width="7" height="5">
<path d="M61.9943 43.8896C61.7729 43.9953 61.6011 44.1839 61.5193 44.4166H61.5187C61.4363 44.65 61.4485 44.9054 61.5521 45.1284C61.6577 45.352 61.845 45.5244 62.0761 45.6074C63.1168 45.9841 64.8476 46.6096 65.8877 46.9856C66.1188 47.0692 66.3724 47.0569 66.5944 46.9506C66.8158 46.8456 66.9864 46.6563 67.0694 46.4236C67.1531 46.1908 67.1402 45.9348 67.036 45.7118C66.9311 45.4894 66.7425 45.3164 66.5127 45.2327C65.4726 44.8574 63.7412 44.2312 62.701 43.8559C62.5993 43.8189 62.4938 43.8008 62.3882 43.8008C62.2531 43.8008 62.1185 43.8306 61.9943 43.8896Z" fill="white"/>
</mask>
<g mask="url(#mask23)">
<path fill-rule="evenodd" clip-rule="evenodd" d="M60.5401 43.5787C60.3676 44.0623 60.6173 44.5958 61.0975 44.7688C62.3616 45.2259 64.6916 46.0686 65.9557 46.5249C66.4358 46.6987 66.9649 46.4478 67.1374 45.9635C67.3099 45.4793 67.0602 44.9465 66.58 44.7727C65.3159 44.3164 62.9859 43.4737 61.7218 43.0167C61.2417 42.8436 60.7126 43.0944 60.5401 43.5787Z" fill="#CBCBEF"/>
</g>
<path fill-rule="evenodd" clip-rule="evenodd" d="M61.3717 46.4001C61.2868 46.6322 61.2964 46.8882 61.3988 47.1119C61.5011 47.3361 61.6878 47.5105 61.9182 47.5961C62.9029 47.963 64.5005 48.5581 65.4852 48.925C65.715 49.0106 65.9693 49.0008 66.192 48.8971C66.4147 48.794 66.5878 48.606 66.6728 48.3746C66.7577 48.1426 66.7481 47.8865 66.6457 47.6629C66.5427 47.4386 66.3561 47.2642 66.1263 47.1786C65.1415 46.8117 63.544 46.2166 62.5592 45.8497C62.3295 45.7642 62.0752 45.7739 61.8525 45.8776C61.6298 45.9807 61.4567 46.1687 61.3717 46.4001Z" fill="#B2B2EB"/>
<mask id="mask24" mask-type="alpha" maskUnits="userSpaceOnUse" x="61" y="45" width="6" height="4">
<path d="M61.8528 45.8776C61.6295 45.98 61.4563 46.168 61.372 46.4C61.287 46.6321 61.2961 46.8882 61.3984 47.1118C61.5014 47.3361 61.688 47.5105 61.9185 47.596C62.9032 47.9629 64.5001 48.558 65.4849 48.9249C65.7146 49.0105 65.9689 49.0008 66.1922 48.8971C66.4149 48.794 66.5874 48.6053 66.673 48.3746C66.7573 48.1425 66.7477 47.8865 66.646 47.6628C66.5424 47.4385 66.3564 47.2635 66.1259 47.1779C65.1412 46.8117 63.5443 46.2166 62.5595 45.8497C62.4559 45.8108 62.3478 45.792 62.2396 45.792C62.107 45.792 61.9751 45.8205 61.8528 45.8776Z" fill="white"/>
</mask>
<g mask="url(#mask24)">
<path fill-rule="evenodd" clip-rule="evenodd" d="M60.8982 45.7526C60.8133 45.9847 60.8229 46.2401 60.9252 46.4644C61.0276 46.6887 61.2142 46.8631 61.444 46.9486C62.5665 47.3667 64.5123 48.0915 65.6348 48.5096C65.8639 48.5952 66.1188 48.5854 66.3415 48.4817C66.5642 48.3786 66.7367 48.1907 66.8216 47.9592H66.8223C66.9066 47.7272 66.8976 47.4718 66.7946 47.2475C66.6916 47.0232 66.505 46.8488 66.2758 46.7632C65.1533 46.3451 63.2076 45.6204 62.0851 45.2023C61.8553 45.1167 61.6011 45.1264 61.3784 45.2302C61.1557 45.3332 60.9832 45.5212 60.8982 45.7526Z" fill="#CBCBEF"/>
</g>
<path fill-rule="evenodd" clip-rule="evenodd" d="M62.1157 48.5763C62.0146 48.8012 62.0069 49.0573 62.0931 49.2881C62.18 49.5188 62.3538 49.7055 62.5771 49.8073C63.3444 50.1561 64.4701 50.6688 65.2367 51.0176C65.46 51.1193 65.7142 51.1271 65.944 51.0403C66.1732 50.9527 66.3585 50.7777 66.4602 50.5528V50.5521C66.5606 50.3272 66.5684 50.0711 66.4827 49.8404C66.3952 49.6096 66.2214 49.4229 65.9981 49.3211C65.2315 48.9724 64.1051 48.4596 63.3386 48.1109C63.1152 48.0091 62.861 48.0013 62.6318 48.0882C62.4021 48.1757 62.2167 48.3507 62.1157 48.5757V48.5763Z" fill="#B2B2EB"/>
<mask id="mask25" mask-type="alpha" maskUnits="userSpaceOnUse" x="62" y="48" width="5" height="4">
<path d="M62.6323 48.0876C62.4019 48.1751 62.2165 48.3502 62.1161 48.5751C62.0151 48.8007 62.0067 49.0567 62.093 49.2869C62.1805 49.5183 62.3536 49.705 62.5776 49.8061C63.3442 50.1555 64.4699 50.6683 65.2372 51.0164C65.4599 51.1188 65.7141 51.1266 65.9439 51.0391C66.173 50.9522 66.3584 50.7772 66.4601 50.5522V50.5516C66.5605 50.326 66.5688 50.0699 66.4826 49.8398C66.3951 49.6084 66.2219 49.4217 65.9979 49.3206C65.232 48.9718 64.105 48.4584 63.3391 48.1097C63.218 48.0552 63.0887 48.0273 62.9593 48.0273C62.8486 48.0273 62.7379 48.0474 62.6323 48.0876Z" fill="white"/>
</mask>
<g mask="url(#mask25)">
<path fill-rule="evenodd" clip-rule="evenodd" d="M61.7838 47.9392C61.6827 48.1641 61.6743 48.4208 61.7612 48.6516C61.8475 48.8824 62.0219 49.0691 62.2452 49.1708C63.1341 49.5753 64.5263 50.2087 65.4152 50.6132C65.6385 50.715 65.8928 50.7234 66.1219 50.6359C66.3517 50.549 66.537 50.3733 66.6381 50.1484C66.7391 49.9235 66.7462 49.6674 66.6606 49.436C66.5737 49.2052 66.3993 49.0185 66.1766 48.9167C65.2877 48.5122 63.8949 47.8789 63.006 47.4744C62.7827 47.3726 62.5284 47.3642 62.2993 47.4517C62.0702 47.5386 61.8848 47.7143 61.7838 47.9392Z" fill="#CBCBEF"/>
</g>
<path fill-rule="evenodd" clip-rule="evenodd" d="M65.6001 50.8771C65.2274 50.7358 65.0279 50.3753 65.1553 50.0687C65.2821 49.7621 65.6882 49.6247 66.0635 49.7602L65.6001 50.8771Z" fill="#A5A5E7"/>
<path fill-rule="evenodd" clip-rule="evenodd" d="M65.8271 48.7749C65.4544 48.6342 65.2555 48.2731 65.3836 47.9672C65.5098 47.6605 65.9159 47.5231 66.2905 47.6586L65.8271 48.7749Z" fill="#A5A5E7"/>
<path fill-rule="evenodd" clip-rule="evenodd" d="M66.2594 46.8165C65.8867 46.6752 65.6878 46.3148 65.8153 46.0082C65.9421 45.7016 66.3482 45.5641 66.7235 45.6996L66.2594 46.8165Z" fill="#A5A5E7"/>
<path fill-rule="evenodd" clip-rule="evenodd" d="M66.2443 43.7073C65.8466 43.7158 65.5286 43.4552 65.5338 43.1226C65.5383 42.7907 65.8652 42.5113 66.2624 42.4971L66.2443 43.7073Z" fill="#A5A5E7"/>
<path fill-rule="evenodd" clip-rule="evenodd" d="M18.7568 88.1211L0.745827 55.925C-0.0078769 54.5773 -0.199682 52.9833 0.213536 51.4943C0.626753 50.004 1.60959 48.7406 2.94772 47.9821C4.28585 47.2224 5.86857 47.0292 7.34765 47.4454C8.82674 47.8615 10.0812 48.8514 10.8349 50.1991L28.9399 82.5773L18.7568 88.1211Z" fill="#9191E3"/>
<mask id="mask26" mask-type="alpha" maskUnits="userSpaceOnUse" x="0" y="47" width="29" height="42">
<path d="M2.94824 47.9828H2.9476C1.61011 48.7418 0.626631 50.0053 0.213414 51.4943C-0.199804 52.9846 -0.00799897 54.5786 0.745705 55.9263L18.7567 88.1217L28.9398 82.5779L10.8348 50.2004C10.0811 48.852 8.82662 47.8622 7.34753 47.446C6.83648 47.3021 6.31256 47.2314 5.79121 47.2314C4.80386 47.2314 3.82295 47.4862 2.94824 47.9828Z" fill="white"/>
</mask>
<g mask="url(#mask26)">
<path fill-rule="evenodd" clip-rule="evenodd" d="M16.0563 97.3593L-7.80927 54.6974C-8.56297 53.3498 -8.75413 51.7557 -8.34156 50.2667C-7.92834 48.7764 -6.94486 47.513 -5.60673 46.7546C-4.26924 45.9948 -2.68653 45.8017 -1.20744 46.2178C0.271646 46.634 1.5261 47.6245 2.28045 48.9716L23.2838 86.5247L16.0563 97.3593Z" fill="#8484E1"/>
</g>
<path fill-rule="evenodd" clip-rule="evenodd" d="M18.4387 19.9494C18.2102 21.2316 18.2674 22.5851 18.6607 23.9179C20.0059 28.4796 24.7747 31.0829 29.304 29.7281C33.8333 28.3739 36.4188 23.5705 35.0736 19.0088C34.679 17.6715 33.9903 16.5021 33.1002 15.5518C32.546 18.6575 30.3145 21.3444 27.1085 22.3032C23.9077 23.2606 20.5858 22.2403 18.4387 19.9494Z" fill="#8888E5"/>
<mask id="mask27" mask-type="alpha" maskUnits="userSpaceOnUse" x="18" y="15" width="18" height="16">
<path d="M27.1085 22.3032C23.9071 23.26 20.5865 22.2396 18.4387 19.9494C18.2102 21.231 18.2675 22.5845 18.6601 23.9179C20.0053 28.4796 24.7747 31.0829 29.304 29.7281C33.8333 28.3739 36.4188 23.5698 35.0736 19.0082C34.679 17.6715 33.9904 16.5021 33.1002 15.5518C32.546 18.6575 30.3145 21.3444 27.1085 22.3032Z" fill="white"/>
</mask>
<g mask="url(#mask27)">
<path fill-rule="evenodd" clip-rule="evenodd" d="M18.2586 16.146C18.0301 17.4282 18.0874 18.7818 18.4807 20.1145C19.8259 24.6762 24.5952 27.2795 29.1239 25.9254C33.6532 24.5705 29.8911 24.7047 28.5459 20.1431C28.152 18.8057 33.8103 12.6987 32.9201 11.749C32.3659 14.8541 30.1344 17.541 26.9284 18.4998C23.7276 19.4572 20.4064 18.4375 18.2586 16.146Z" fill="#9E9EE9"/>
</g>
<path fill-rule="evenodd" clip-rule="evenodd" d="M37.9489 47.4944C36.9223 51.2529 33.0669 53.4641 29.3332 52.436V52.4353C25.5936 51.4053 23.3859 47.5223 24.3964 43.7522C26.2862 36.7 28.9644 26.71 28.9644 26.71L42.5928 30.4924C42.5928 30.4924 39.8708 40.4591 37.9489 47.4944Z" fill="#DBDBF3"/>
<mask id="mask28" mask-type="alpha" maskUnits="userSpaceOnUse" x="24" y="26" width="19" height="27">
<path d="M24.3961 43.7522C23.3855 47.523 25.5932 51.4059 29.3334 52.4353V52.4366C33.0665 53.4647 36.922 51.2536 37.9492 47.4951C39.8711 40.4597 42.5931 30.4931 42.5931 30.4931L28.9646 26.71C28.9646 26.71 26.2864 36.7 24.3961 43.7522Z" fill="white"/>
</mask>
<g mask="url(#mask28)">
<path fill-rule="evenodd" clip-rule="evenodd" d="M46.9294 37.1316C45.404 42.7155 39.6737 45.9969 34.1293 44.4606C28.585 42.9249 25.3269 37.153 26.8523 31.5691C29.1443 23.177 32.0311 12.6094 32.0311 12.6094L52.1082 18.1719C52.1082 18.1719 49.2221 28.7395 46.9294 37.1316Z" fill="#B8B8F0"/>
</g>
<path fill-rule="evenodd" clip-rule="evenodd" d="M59.0286 21.3838C60.2451 22.0022 61.3586 22.9052 62.2642 24.0746C65.364 28.0781 64.8549 33.7036 61.1295 36.6297C57.4034 39.5559 51.8623 38.6814 48.7626 34.6779C47.8537 33.5046 47.2552 32.1912 46.9572 30.8481C49.9037 32.3462 53.4502 32.1796 56.0878 30.1084C58.721 28.0399 59.7476 24.6237 59.0286 21.3838Z" fill="#7979E2"/>
<mask id="mask29" mask-type="alpha" maskUnits="userSpaceOnUse" x="46" y="21" width="19" height="18">
<path d="M56.0877 30.1091C53.4507 32.1802 49.9043 32.3462 46.957 30.8487C47.2557 32.1919 47.8543 33.5052 48.7631 34.6785C51.8622 38.6814 57.4033 39.5565 61.13 36.6304C64.8554 33.7042 65.3645 28.0788 62.2648 24.0746C61.3585 22.9059 60.245 22.0022 59.0285 21.3838C59.7475 24.6243 58.7215 28.0399 56.0877 30.1091Z" fill="white"/>
</mask>
<g mask="url(#mask29)">
<path fill-rule="evenodd" clip-rule="evenodd" d="M55.9097 18.835C57.1262 19.454 58.2403 20.3564 59.1459 21.5258C62.2451 25.5293 61.7366 31.1547 58.0106 34.0809C54.2845 37.007 48.7434 36.1326 45.6443 32.1297C44.7355 30.9557 44.1369 29.6424 43.8389 28.2992C46.7848 29.798 50.3313 29.6307 52.9689 27.5596C55.6027 25.4917 56.6287 22.0749 55.9097 18.835Z" fill="#7A7ADF"/>
</g>
<path fill-rule="evenodd" clip-rule="evenodd" d="M51.7787 4.11108C60.9416 6.67681 65.821 18.0359 62.6672 29.4611C59.5127 40.8857 49.5125 48.0779 40.3496 45.5121C31.1854 42.9464 26.3066 31.5873 29.4611 20.1621C32.615 8.73756 42.6152 1.54535 51.7787 4.11108Z" fill="#DBDBF3"/>
<mask id="mask30" mask-type="alpha" maskUnits="userSpaceOnUse" x="28" y="3" width="36" height="44">
<path d="M29.4609 20.1621C26.3065 31.5866 31.1859 42.9457 40.3494 45.5121C49.5129 48.0778 59.5125 40.8856 62.667 29.4611C65.8215 18.0352 60.9414 6.67612 51.7785 4.11104C50.5254 3.76034 49.2568 3.5918 47.9914 3.5918C40.0076 3.5918 32.1835 10.2998 29.4609 20.1621Z" fill="white"/>
</mask>
<g mask="url(#mask30)">
<path fill-rule="evenodd" clip-rule="evenodd" d="M42.5285 -4.14354C47.2007 -3.59773 66.4907 0.422001 70.442 0.883546C77.2511 1.67894 82.2122 36.4064 74.2395 35.4748C66.266 34.544 67.9582 31.7008 68.672 24.1248C68.6887 23.9466 63.4166 24.9714 63.4405 24.7958C60.9212 23.1408 47.9602 22.8407 47.9602 22.8407C47.9602 22.8407 45.6361 24.611 39.8774 22.8673C39.8774 22.8673 37.9149 24.6182 36.6457 25.7513C36.3683 25.9989 36.0033 26.1234 35.6339 26.0961C35.2638 26.0696 34.9207 25.8932 34.6813 25.608H34.6806C34.2726 25.1218 34.2854 24.4068 34.7109 23.9356C35.7491 22.7849 37.5088 20.8344 37.5088 20.8344C37.2269 20.767 35.2039 20.7514 34.9278 20.671C27.8156 27.5041 27.0342 23.9044 23.5508 26.2887C16.6065 31.0409 19.1328 19.4206 24.0483 16.0569C26.209 14.5782 27.8651 12.6951 28.9773 10.6136C26.3648 7.31602 35.7098 -4.94023 42.5285 -4.14354Z" fill="#7D7DE3"/>
</g>
<mask id="mask31" mask-type="alpha" maskUnits="userSpaceOnUse" x="28" y="3" width="36" height="44">
<path d="M29.4609 20.1621C26.3065 31.5866 31.1859 42.9457 40.3494 45.5121C49.5129 48.0778 59.5125 40.8856 62.667 29.4611C65.8215 18.0352 60.9414 6.67612 51.7785 4.11104C50.5254 3.76034 49.2568 3.5918 47.9914 3.5918C40.0076 3.5918 32.1835 10.2998 29.4609 20.1621Z" fill="white"/>
</mask>
<g mask="url(#mask31)">
<path fill-rule="evenodd" clip-rule="evenodd" d="M54.7629 -0.42697C56.9126 3.80732 53.688 9.80418 47.5669 12.9559C41.4459 16.1083 34.7308 15.2299 32.5811 10.9963C30.4313 6.762 33.6559 0.765141 39.7776 -2.38724C45.8986 -5.53898 52.6137 -4.66062 54.7629 -0.42697Z" fill="#7A7ADF"/>
</g>
<mask id="mask32" mask-type="alpha" maskUnits="userSpaceOnUse" x="28" y="3" width="36" height="44">
<path d="M29.4609 20.1621C26.3065 31.5866 31.1859 42.9457 40.3494 45.5121C49.5129 48.0778 59.5125 40.8856 62.667 29.4611C65.8215 18.0352 60.9414 6.67612 51.7785 4.11104C50.5254 3.76034 49.2568 3.5918 47.9914 3.5918C40.0076 3.5918 32.1835 10.2998 29.4609 20.1621Z" fill="white"/>
</mask>
<g mask="url(#mask32)">
<path fill-rule="evenodd" clip-rule="evenodd" d="M43.1434 30.4407C44.3985 31.0539 45.1483 32.0768 44.8175 32.7231C44.4866 33.3694 43.1994 33.3954 41.9449 32.7821C40.6898 32.1682 39.94 31.1453 40.2708 30.4997C40.6016 29.8534 41.8889 29.8268 43.1434 30.4407Z" fill="#CDCDEE"/>
</g>
<mask id="mask33" mask-type="alpha" maskUnits="userSpaceOnUse" x="28" y="3" width="36" height="44">
<path d="M29.4609 20.1621C26.3065 31.5866 31.1859 42.9457 40.3494 45.5121C49.5129 48.0778 59.5125 40.8856 62.667 29.4611C65.8215 18.0352 60.9414 6.67612 51.7785 4.11104C50.5254 3.76034 49.2568 3.5918 47.9914 3.5918C40.0076 3.5918 32.1835 10.2998 29.4609 20.1621Z" fill="white"/>
</mask>
<g mask="url(#mask33)">
<path fill-rule="evenodd" clip-rule="evenodd" d="M58.5743 36.1762C59.9118 36.5742 60.818 37.4597 60.5972 38.1514C60.3758 38.8437 59.1104 39.0823 57.7729 38.6836C56.4348 38.2856 55.5286 37.4001 55.75 36.7084C55.9714 36.0161 57.2368 35.7782 58.5743 36.1762Z" fill="#CDCDEE"/>
</g>
<mask id="mask34" mask-type="alpha" maskUnits="userSpaceOnUse" x="28" y="3" width="36" height="44">
<path d="M29.4609 20.1621C26.3065 31.5866 31.1859 42.9457 40.3494 45.5121C49.5129 48.0778 59.5125 40.8856 62.667 29.4611C65.8215 18.0352 60.9414 6.67612 51.7785 4.11104C50.5254 3.76034 49.2568 3.5918 47.9914 3.5918C40.0076 3.5918 32.1835 10.2998 29.4609 20.1621Z" fill="white"/>
</mask>
<g mask="url(#mask34)">
<path fill-rule="evenodd" clip-rule="evenodd" d="M49.4546 36.8166C49.9225 37.0454 50.0332 37.7552 49.7024 38.4015C49.3716 39.0478 48.7234 39.3862 48.2562 39.158C47.7882 38.9292 47.6775 38.2187 48.0084 37.5731C48.3392 36.9268 48.9867 36.5877 49.4546 36.8166Z" fill="#7364E2"/>
</g>
<mask id="mask35" mask-type="alpha" maskUnits="userSpaceOnUse" x="47" y="36" width="3" height="4">
<path d="M48.0081 37.5723C47.6772 38.2186 47.7886 38.9284 48.2559 39.1579C48.7238 39.386 49.3719 39.0477 49.7028 38.4007C50.0329 37.7544 49.9222 37.0453 49.4543 36.8164C49.3552 36.7678 49.2483 36.7451 49.1376 36.7451C48.7264 36.7451 48.2687 37.0634 48.0081 37.5723Z" fill="white"/>
</mask>
<g mask="url(#mask35)">
<path fill-rule="evenodd" clip-rule="evenodd" d="M48.4376 35.1385C49.6444 35.7291 50.3557 36.7325 50.0255 37.3788C49.6947 38.0251 48.446 38.0698 47.2392 37.4799C46.0317 36.8894 45.3205 35.8859 45.6513 35.2396C45.9821 34.5933 47.2308 34.548 48.4376 35.1385Z" fill="white"/>
</g>
<mask id="mask36" mask-type="alpha" maskUnits="userSpaceOnUse" x="28" y="3" width="36" height="44">
<path d="M29.4609 20.1621C26.3065 31.5866 31.1859 42.9457 40.3494 45.5121C49.5129 48.0778 59.5125 40.8856 62.667 29.4611C65.8215 18.0352 60.9414 6.67612 51.7785 4.11104C50.5254 3.76034 49.2568 3.5918 47.9914 3.5918C40.0076 3.5918 32.1835 10.2998 29.4609 20.1621Z" fill="white"/>
</mask>
<g mask="url(#mask36)">
<path fill-rule="evenodd" clip-rule="evenodd" d="M48.4443 28.5491C48.9116 29.128 48.8099 29.9447 48.2177 30.3713C47.6256 30.7978 46.765 30.674 46.2984 30.0951C45.8311 29.5156 45.9328 28.6988 46.525 28.2723C47.1171 27.8458 47.977 27.9696 48.4443 28.5491Z" fill="#BDB9E5"/>
</g>
<mask id="mask37" mask-type="alpha" maskUnits="userSpaceOnUse" x="46" y="28" width="3" height="3">
<path d="M46.5244 28.2727C45.9323 28.6986 45.8312 29.5153 46.2979 30.0949C46.7652 30.6744 47.6251 30.7982 48.2179 30.3717C48.81 29.9451 48.9117 29.1283 48.4444 28.5495C48.1644 28.202 47.7441 28.0186 47.3245 28.0186C47.0432 28.0186 46.7626 28.1009 46.5244 28.2727Z" fill="white"/>
</mask>
<g mask="url(#mask37)">
<path fill-rule="evenodd" clip-rule="evenodd" d="M48.1302 28.7748C48.461 29.1844 48.3889 29.762 47.9699 30.0635C47.5509 30.3655 46.9427 30.278 46.6118 29.8683C46.281 29.4587 46.3531 28.8811 46.7721 28.579C47.1918 28.2769 47.8 28.3651 48.1302 28.7748Z" fill="#5A4BE2"/>
</g>
<mask id="mask38" mask-type="alpha" maskUnits="userSpaceOnUse" x="46" y="28" width="3" height="3">
<path d="M46.7723 28.58C46.3533 28.8814 46.2812 29.459 46.6121 29.8693C46.9429 30.279 47.5511 30.3665 47.9702 30.0638C48.3892 29.763 48.4613 29.1854 48.1304 28.7751C47.9328 28.53 47.6355 28.4004 47.3381 28.4004C47.1392 28.4004 46.9403 28.4587 46.7723 28.58Z" fill="white"/>
</mask>
<g mask="url(#mask38)">
<path fill-rule="evenodd" clip-rule="evenodd" d="M48.5753 28.5972C48.9061 29.0069 48.834 29.5845 48.415 29.8859C47.996 30.188 47.3877 30.1005 47.0569 29.6908C46.7261 29.2811 46.7982 28.7029 47.2172 28.4014C47.6368 28.0994 48.2451 28.1869 48.5753 28.5972Z" fill="#7364E2"/>
</g>
<mask id="mask39" mask-type="alpha" maskUnits="userSpaceOnUse" x="46" y="28" width="3" height="3">
<path d="M46.7723 28.58C46.3533 28.8814 46.2812 29.459 46.6121 29.8693C46.9429 30.279 47.5511 30.3665 47.9702 30.0638C48.3892 29.763 48.4613 29.1854 48.1304 28.7751C47.9328 28.53 47.6355 28.4004 47.3381 28.4004C47.1392 28.4004 46.9403 28.4587 46.7723 28.58Z" fill="white"/>
</mask>
<g mask="url(#mask39)">
<path fill-rule="evenodd" clip-rule="evenodd" d="M48.2177 29.1428C48.2827 29.2231 48.2686 29.3366 48.1862 29.3956C48.1038 29.4552 47.9847 29.4377 47.9197 29.3573C47.8553 29.2769 47.8689 29.1635 47.9512 29.1045C48.0336 29.0455 48.1527 29.0624 48.2177 29.1428Z" fill="white"/>
</g>
<mask id="mask40" mask-type="alpha" maskUnits="userSpaceOnUse" x="28" y="3" width="36" height="44">
<path d="M29.4609 20.1621C26.3065 31.5866 31.1859 42.9457 40.3494 45.5121C49.5129 48.0778 59.5125 40.8856 62.667 29.4611C65.8215 18.0352 60.9414 6.67612 51.7785 4.11104C50.5254 3.76034 49.2568 3.5918 47.9914 3.5918C40.0076 3.5918 32.1835 10.2998 29.4609 20.1621Z" fill="white"/>
</mask>
<g mask="url(#mask40)">
<path fill-rule="evenodd" clip-rule="evenodd" d="M56.8489 31.7428C57.3162 32.3223 57.2145 33.1391 56.6224 33.5657C56.0302 33.9922 55.1703 33.8684 54.7031 33.2889C54.2358 32.71 54.3375 31.8932 54.9296 31.4667C55.5218 31.0401 56.3823 31.1639 56.8489 31.7428Z" fill="#BDB9E5"/>
</g>
<mask id="mask41" mask-type="alpha" maskUnits="userSpaceOnUse" x="54" y="31" width="4" height="3">
<path d="M54.9298 31.468C54.337 31.8945 54.236 32.7113 54.7026 33.2902C55.1705 33.8697 56.0304 33.9935 56.6226 33.5663C57.2147 33.1404 57.3164 32.323 56.8492 31.7441C56.5698 31.3973 56.1495 31.2139 55.7299 31.2139C55.4486 31.2139 55.1673 31.2962 54.9298 31.468Z" fill="white"/>
</mask>
<g mask="url(#mask41)">
<path fill-rule="evenodd" clip-rule="evenodd" d="M56.5353 31.9706C56.8655 32.3803 56.7941 32.9585 56.3751 33.26C55.9561 33.5621 55.3472 33.4739 55.017 33.0642C54.6862 32.6545 54.7582 32.0769 55.1773 31.7755C55.5963 31.4734 56.2045 31.5609 56.5353 31.9706Z" fill="#5A4BE2"/>
</g>
<mask id="mask42" mask-type="alpha" maskUnits="userSpaceOnUse" x="54" y="31" width="3" height="3">
<path d="M55.1769 31.7749C54.7586 32.0764 54.6858 32.6539 55.0167 33.063C55.3475 33.4727 55.9564 33.5615 56.3754 33.2594C56.7938 32.958 56.8658 32.3797 56.535 31.9701C56.3374 31.725 56.0401 31.5947 55.7433 31.5947C55.5444 31.5947 55.3456 31.6537 55.1769 31.7749Z" fill="white"/>
</mask>
<g mask="url(#mask42)">
<path fill-rule="evenodd" clip-rule="evenodd" d="M56.9799 31.7919C57.3107 32.2016 57.2386 32.7792 56.8196 33.0813C56.4006 33.3833 55.7917 33.2952 55.4615 32.8855C55.1314 32.4758 55.2028 31.8982 55.6218 31.5968C56.0408 31.2947 56.6497 31.3822 56.9799 31.7919Z" fill="#7364E2"/>
</g>
<mask id="mask43" mask-type="alpha" maskUnits="userSpaceOnUse" x="54" y="31" width="3" height="3">
<path d="M55.1769 31.7749C54.7586 32.0764 54.6858 32.6539 55.0167 33.063C55.3475 33.4727 55.9564 33.5615 56.3754 33.2594C56.7938 32.958 56.8658 32.3797 56.535 31.9701C56.3374 31.725 56.0401 31.5947 55.7433 31.5947C55.5444 31.5947 55.3456 31.6537 55.1769 31.7749Z" fill="white"/>
</mask>
<g mask="url(#mask43)">
<path fill-rule="evenodd" clip-rule="evenodd" d="M56.6223 32.3371C56.6873 32.4175 56.6731 32.5309 56.5908 32.5899C56.509 32.6489 56.3893 32.632 56.3243 32.5517C56.2599 32.4713 56.2741 32.3578 56.3558 32.2988C56.4382 32.2399 56.5573 32.2567 56.6223 32.3371Z" fill="white"/>
</g>
<path fill-rule="evenodd" clip-rule="evenodd" d="M40.84 19.6454C40.9069 20.7811 41.2403 21.9039 41.8627 22.9248C43.9945 26.4182 48.7201 27.4016 52.4094 25.1185C54.7201 23.6878 56.0795 21.3133 56.2487 18.8792C56.3498 17.4284 61.4526 14.1341 60.657 12.8292C60.0314 11.805 53.7585 12.8188 52.7789 12.2451C52.9417 14.9949 51.5456 17.8167 48.9344 19.4328C46.3264 21.0463 43.2015 21.0287 40.84 19.6454Z" fill="#8888E5"/>
<mask id="mask44" mask-type="alpha" maskUnits="userSpaceOnUse" x="40" y="12" width="21" height="15">
<path d="M48.9343 19.4328C46.3262 21.0456 43.2014 21.0287 40.8398 19.6448C40.9074 20.7811 41.2395 21.9039 41.8632 22.9242C43.9943 26.4176 48.7199 27.4016 52.4093 25.1185C54.72 23.6872 56.08 21.3127 56.2486 18.8785C56.3497 17.4278 61.4525 14.1341 60.6569 12.8292C60.3048 12.2535 58.1686 12.3216 56.1913 12.3903C54.6517 12.4435 53.2074 12.4966 52.7787 12.2451C52.9416 14.9943 51.5455 17.8167 48.9343 19.4328Z" fill="white"/>
</mask>
<g mask="url(#mask44)">
<path fill-rule="evenodd" clip-rule="evenodd" d="M39.4652 15.7841C39.5321 16.9198 39.8656 18.0425 40.488 19.0635C42.6197 22.5575 47.3453 23.5403 51.0347 21.2572C54.7234 18.9741 55.9881 14.2841 53.8564 10.7901C53.2314 9.76583 52.3837 8.95748 51.4048 8.38379C51.5669 11.1336 50.1709 13.9554 47.5596 15.5715C44.9516 17.1849 41.8267 17.1674 39.4652 15.7841Z" fill="#9E9EE9"/>
</g>
<path fill-rule="evenodd" clip-rule="evenodd" d="M67.6893 28.3213C66.9961 29.2191 66.0911 29.9555 65.004 30.4429C61.2831 32.1089 56.8349 30.2271 55.0746 26.243C53.3149 22.2583 55.4975 16.1804 59.2171 14.5144C60.308 14.0257 60.8712 15.3319 62.0008 15.4168C60.3222 17.5916 59.8877 20.7142 61.1332 23.534C62.378 26.3506 64.9654 28.1164 67.6893 28.3213Z" fill="#8888E5"/>
<mask id="mask45" mask-type="alpha" maskUnits="userSpaceOnUse" x="54" y="14" width="14" height="18">
<path d="M59.217 14.5138C55.4968 16.1792 53.3155 22.2571 55.0745 26.2418C56.8342 30.2265 61.2831 32.1077 65.004 30.4424C66.0904 29.9549 66.996 29.2178 67.6893 28.32C64.9654 28.1152 62.3773 26.35 61.1331 23.5334C59.8877 20.7136 60.3215 17.5904 62.0008 15.4155C61.0482 15.3442 60.4985 14.4043 59.6952 14.4043C59.5459 14.4043 59.3882 14.4374 59.217 14.5138Z" fill="white"/>
</mask>
<g mask="url(#mask45)">
<path fill-rule="evenodd" clip-rule="evenodd" d="M70.9911 25.9203C70.2979 26.8181 69.393 27.5545 68.3059 28.0413C64.5856 29.7079 60.1368 27.8261 58.3771 23.8414C56.6167 19.8573 58.2091 15.2691 61.9293 13.6024C63.0196 13.1137 64.173 12.9302 65.3026 13.0151C63.624 15.1906 63.1908 18.3132 64.4356 21.133C65.6798 23.9496 68.2672 25.7154 70.9911 25.9203Z" fill="#9E9EE9"/>
</g>
<path fill-rule="evenodd" clip-rule="evenodd" d="M35.911 12.7063C35.911 12.7063 23.6574 8.22825 19.0296 6.53699C18.0616 6.18305 16.9899 6.67183 16.6153 7.639C16.4383 8.09665 16.4518 8.60682 16.6533 9.05345C16.8547 9.50074 17.2268 9.8469 17.6857 10.0135C22.3321 11.7028 34.6578 16.1841 34.6578 16.1841L35.911 12.7063Z" fill="#EBEBFA"/>
<mask id="mask46" mask-type="alpha" maskUnits="userSpaceOnUse" x="16" y="6" width="20" height="11">
<path d="M16.6152 7.63862C16.4382 8.09692 16.4517 8.60644 16.6538 9.05372C16.8553 9.50036 17.2273 9.84717 17.6856 10.0131C22.332 11.7031 34.6584 16.1843 34.6584 16.1843L35.9109 12.7065C35.9109 12.7065 23.6579 8.22787 19.0302 6.53661C18.8165 6.45882 18.5983 6.42188 18.3833 6.42188C17.6232 6.42188 16.9074 6.88537 16.6152 7.63862Z" fill="white"/>
</mask>
<g mask="url(#mask46)">
<path fill-rule="evenodd" clip-rule="evenodd" d="M35.8069 11.1571C35.8069 11.1571 23.5268 6.6693 18.9106 4.98193C18.453 4.81469 17.9478 4.83738 17.5062 5.04546C17.0653 5.2529 16.7242 5.62888 16.5581 6.08977V6.09042C16.3914 6.55132 16.4146 7.06019 16.6206 7.50488C16.8265 7.94892 17.1998 8.29249 17.6575 8.45973C22.2737 10.1471 34.5537 14.6349 34.5537 14.6349L35.8069 11.1571Z" fill="#F4F4FC"/>
</g>
<path fill-rule="evenodd" clip-rule="evenodd" d="M30.2212 14.5683C30.3905 13.7522 30.619 12.9393 30.908 12.1335C34.2356 2.86048 44.4122 -1.94686 53.6195 1.40519C62.8261 4.75658 66.0971 13.7094 64.5582 23.4466C64.4339 24.2303 64.1301 25.4957 63.7369 26.7688L30.2212 14.5683ZM50.624 18.9919C50.68 18.7248 50.754 18.459 50.8486 18.1952C51.937 15.1628 55.2659 13.5901 58.2762 14.6863C61.2885 15.7825 62.8487 19.1345 61.7603 22.1676C61.6656 22.4308 61.5549 22.6836 61.4275 22.9248L50.624 18.9919Z" fill="#EBEBFA"/>
<mask id="mask47" mask-type="alpha" maskUnits="userSpaceOnUse" x="30" y="0" width="35" height="27">
<path d="M30.9078 12.1342C30.6188 12.94 30.3903 13.7522 30.2217 14.5684L63.7374 26.7689C64.13 25.4964 64.4338 24.2304 64.558 23.4473C66.0969 13.7101 62.826 4.75662 53.6187 1.40587C51.6305 0.681787 49.5978 0.338221 47.5974 0.338868C40.3365 0.338868 33.5165 4.86422 30.9078 12.1342ZM50.6238 18.9919C50.6798 18.7249 50.7545 18.4597 50.8491 18.1959C51.9375 15.1634 55.2658 13.5902 58.2761 14.6863C61.2883 15.7825 62.8485 19.1352 61.7607 22.1683C61.6655 22.4315 61.5548 22.6843 61.4273 22.9248L50.6238 18.9919Z" fill="white"/>
</mask>
<g mask="url(#mask47)">
<path fill-rule="evenodd" clip-rule="evenodd" d="M69.1739 27.1414L29.0789 12.6494L27.876 16.0241L67.9716 30.5162L69.1739 27.1414Z" fill="#EBEBFA"/>
</g>
<mask id="mask48" mask-type="alpha" maskUnits="userSpaceOnUse" x="30" y="0" width="35" height="27">
<path d="M30.9078 12.1342C30.6188 12.94 30.3903 13.7522 30.2217 14.5684L63.7374 26.7689C64.13 25.4964 64.4338 24.2304 64.558 23.4473C66.0969 13.7101 62.826 4.75662 53.6187 1.40587C51.6305 0.681787 49.5978 0.338221 47.5974 0.338868C40.3365 0.338868 33.5165 4.86422 30.9078 12.1342ZM50.6238 18.9919C50.6798 18.7249 50.7545 18.4597 50.8491 18.1959C51.9375 15.1634 55.2658 13.5902 58.2761 14.6863C61.2883 15.7825 62.8485 19.1352 61.7607 22.1683C61.6655 22.4315 61.5548 22.6843 61.4273 22.9248" fill="white"/>
</mask>
<g mask="url(#mask48)">
<path fill-rule="evenodd" clip-rule="evenodd" d="M69.1061 27.397L35.3394 14.9489C35.3394 14.9489 41.0279 -1.16697 57.5167 4.83572C71.4418 9.9043 69.1061 27.397 69.1061 27.397Z" fill="#F4F4FC"/>
</g>
<mask id="mask49" mask-type="alpha" maskUnits="userSpaceOnUse" x="35" y="3" width="30" height="23">
<path d="M35.3394 14.9472L64.0889 25.5459C64.3084 24.7233 64.4744 23.9752 64.5581 23.4463C65.5789 16.9892 64.4841 10.8776 60.9466 6.51558C59.9303 5.86605 58.7917 5.29819 57.5167 4.83405C54.9273 3.89151 52.6063 3.49414 50.5293 3.49414C39.3834 3.49544 35.3394 14.9472 35.3394 14.9472ZM50.6239 18.9909C50.6799 18.7239 50.7546 18.4587 50.8492 18.1949C51.9376 15.1624 55.2658 13.5892 58.2761 14.6853C61.2884 15.7815 62.8486 19.1342 61.7608 22.1673C61.6656 22.4305 61.5549 22.6833 61.4274 22.9238L50.6239 18.9909Z" fill="white"/>
</mask>
<g mask="url(#mask49)">
<path fill-rule="evenodd" clip-rule="evenodd" d="M73.0716 30.5692L32.9766 16.0771L31.7737 19.4519L71.8693 33.9439L73.0716 30.5692Z" fill="#E1E1F6"/>
</g>
<path d="M58.4281 28.6577C59.1013 28.4924 60.1653 29.2846 59.9876 30.1552" stroke="#7364E2" stroke-width="0.648239" stroke-linecap="round" stroke-linejoin="round"/>
<path d="M45.8402 25.1241C46.3217 24.5031 47.5877 24.5212 48.1393 25.0547" stroke="#7364E2" stroke-width="0.648239" stroke-linecap="round" stroke-linejoin="round"/>
<path fill-rule="evenodd" clip-rule="evenodd" d="M30.7743 14.7715L34.7122 16.2034C34.7122 16.2034 34.8138 22.8356 28.0742 23.7502C23.8719 24.3207 19.9695 21.1177 19.3651 16.6021C19.1881 15.2784 19.3143 13.9877 19.6863 12.8105C21.2973 15.3147 24.1216 16.8018 27.0959 16.3979C29.2785 16.1017 30.7743 14.7715 30.7743 14.7715Z" fill="#8888E5"/>
<mask id="mask50" mask-type="alpha" maskUnits="userSpaceOnUse" x="19" y="12" width="16" height="12">
<path d="M19.3654 16.6021C19.9691 21.1171 23.8722 24.3207 28.0745 23.7502C34.8141 22.8356 34.7118 16.2034 34.7118 16.2034L30.7739 14.7715C30.7739 14.7715 29.2781 16.1017 27.0962 16.3979C24.1219 16.8018 21.297 15.3147 19.6866 12.8105C19.3139 13.9877 19.1878 15.2784 19.3654 16.6021Z" fill="white"/>
</mask>
<g mask="url(#mask50)">
<path fill-rule="evenodd" clip-rule="evenodd" d="M32.0234 7.57617C32.6883 8.61011 33.1466 9.81713 33.323 11.1363C33.9273 15.6519 31.0052 19.7806 26.8029 20.351C22.5999 20.9208 18.6975 17.7185 18.0938 13.2029C17.9168 11.8792 18.0423 10.5885 18.4149 9.41134C20.0253 11.9155 22.8503 13.4019 25.8245 12.9987C28.7949 12.5955 31.1256 10.4148 32.0234 7.57617Z" fill="#9E9EE9"/>
</g>
<path fill-rule="evenodd" clip-rule="evenodd" d="M30.5857 28.6C30.3379 28.4451 30.0991 28.27 29.8713 28.0749C27.5355 26.0751 27.4827 22.633 29.4246 20.4678C31.3671 18.3027 34.5737 18.2288 36.9088 20.2286C37.1373 20.4244 37.3459 20.6331 37.5357 20.8522L30.5857 28.6Z" fill="#CCCCEF"/>
<mask id="mask51" mask-type="alpha" maskUnits="userSpaceOnUse" x="28" y="18" width="10" height="11">
<path d="M29.4249 20.4657C27.4824 22.6308 27.5358 26.073 29.8709 28.0734C30.0994 28.2679 30.3376 28.4429 30.586 28.5985L37.5361 20.8508C37.3462 20.6317 37.1376 20.4229 36.9092 20.2272C35.7854 19.2645 34.4601 18.7822 33.1709 18.7822C31.7806 18.7822 30.4328 19.343 29.4249 20.4657Z" fill="white"/>
</mask>
<g mask="url(#mask51)">
<path fill-rule="evenodd" clip-rule="evenodd" d="M31.6701 29.5648C31.4223 29.4099 31.1835 29.2349 30.955 29.0398C28.6199 27.0393 28.5671 23.5978 30.509 21.4327C32.4515 19.2676 35.6581 19.1937 37.9933 21.1935C38.2211 21.3892 38.4303 21.5973 38.6195 21.8171L31.6701 29.5648Z" fill="#D7D7F3"/>
</g>
<mask id="mask52" mask-type="alpha" maskUnits="userSpaceOnUse" x="28" y="18" width="10" height="11">
<path d="M29.4249 20.4657C27.4824 22.6308 27.5358 26.073 29.8709 28.0734C30.0994 28.2679 30.3376 28.4429 30.586 28.5985L37.5361 20.8508C37.3462 20.6317 37.1376 20.4229 36.9092 20.2272C35.7854 19.2645 34.4601 18.7822 33.1709 18.7822C31.7806 18.7822 30.4328 19.343 29.4249 20.4657Z" fill="white"/>
</mask>
<g mask="url(#mask52)">
<path fill-rule="evenodd" clip-rule="evenodd" d="M35.297 22.0255C36.5624 23.1094 36.7349 24.9413 35.6826 26.1146C34.6302 27.2879 32.7489 27.3605 31.4828 26.2773C30.2174 25.1934 30.0449 23.3609 31.0973 22.1876C32.1496 21.0143 34.0316 20.9417 35.297 22.0255Z" fill="#BCBCEE"/>
</g>
<path fill-rule="evenodd" clip-rule="evenodd" d="M65.5366 77.4411L65.536 77.4365C65.536 77.4365 68.8642 76.8226 70.5197 76.5173C71.0243 76.4246 71.5083 76.7611 71.6004 77.2686C71.693 77.7768 71.359 78.2637 70.855 78.357L66.5664 79.1479L65.7863 83.5352L63.9578 83.2058C63.9578 83.2058 64.5544 79.8512 64.8511 78.1826C64.9174 77.8099 65.1948 77.5286 65.5366 77.4411Z" fill="#CCCCF0"/>
<mask id="mask53" mask-type="alpha" maskUnits="userSpaceOnUse" x="63" y="76" width="9" height="8">
<path d="M70.5201 76.5175C68.8646 76.8228 65.5357 77.4367 65.5357 77.4367L65.5363 77.4413C65.1946 77.5288 64.9172 77.8101 64.8509 78.1822C64.5548 79.8514 63.9581 83.206 63.9581 83.206L65.7861 83.5353L66.5662 79.1474L70.8547 78.3572C71.3587 78.2632 71.6928 77.7764 71.6001 77.2688C71.5183 76.8176 71.1283 76.502 70.6887 76.502C70.6333 76.502 70.5767 76.5071 70.5201 76.5175Z" fill="white"/>
</mask>
<g mask="url(#mask53)">
<path fill-rule="evenodd" clip-rule="evenodd" d="M70.5701 75.9268C70.7915 75.8944 71.0097 76.1329 71.0586 76.4609C71.1069 76.7896 70.9678 77.0845 70.7471 77.1221L70.5701 75.9268Z" fill="#A5A5E7"/>
</g>
<path fill-rule="evenodd" clip-rule="evenodd" d="M76.6361 80.8092C76.8183 80.9745 76.9277 81.2052 76.9399 81.4522C76.9528 81.6992 76.8679 81.9403 76.7037 82.1231C75.8972 83.0248 74.4928 84.5923 73.6857 85.494C73.5216 85.6774 73.2918 85.7876 73.0472 85.8C72.802 85.8129 72.5625 85.7267 72.3804 85.5614C72.1982 85.3961 72.0895 85.1647 72.0766 84.9184C72.0637 84.672 72.1487 84.4302 72.3128 84.2468C73.1199 83.3457 74.5237 81.7783 75.3308 80.8766C75.4956 80.6931 75.7247 80.5829 75.9693 80.5706C76.2146 80.5576 76.454 80.6439 76.6361 80.8092Z" fill="#B5B5E9"/>
<mask id="mask54" mask-type="alpha" maskUnits="userSpaceOnUse" x="72" y="80" width="5" height="6">
<path d="M75.9692 80.57C75.7246 80.5829 75.4955 80.6931 75.3307 80.876C74.5236 81.7783 73.1205 83.3457 72.3127 84.2461C72.1492 84.4302 72.0642 84.672 72.0765 84.9184C72.0893 85.1647 72.1988 85.3961 72.3803 85.5614C72.5624 85.7267 72.8019 85.8129 73.0471 85.8C73.2917 85.787 73.5221 85.6775 73.6856 85.4934C74.4927 84.5923 75.8971 83.0249 76.7043 82.1232C76.8684 81.9404 76.9527 81.6992 76.9398 81.4522C76.9282 81.2059 76.8188 80.9745 76.636 80.8092C76.4655 80.6543 76.2441 80.5693 76.0156 80.5693C76.0001 80.5693 75.9847 80.5693 75.9692 80.57Z" fill="white"/>
</mask>
<g mask="url(#mask54)">
<path fill-rule="evenodd" clip-rule="evenodd" d="M77.4195 81.4792C77.6017 81.6445 77.7111 81.8753 77.7239 82.1216C77.7362 82.368 77.6512 82.6097 77.4871 82.7925C76.6806 83.6949 75.2762 85.2623 74.4691 86.1634C74.3049 86.3468 74.0758 86.457 73.8312 86.4694C73.5853 86.4823 73.3459 86.3968 73.1644 86.2308C72.9816 86.0655 72.8728 85.8341 72.8593 85.5878C72.8471 85.3414 72.932 85.0996 73.0962 84.9168C73.9033 84.0145 75.3077 82.447 76.1148 81.5466C76.279 81.3625 76.5081 81.2523 76.7533 81.2407C76.9979 81.2271 77.238 81.3126 77.4195 81.4786V81.4792Z" fill="#D6D6F2"/>
</g>
<path fill-rule="evenodd" clip-rule="evenodd" d="M75.7198 77.808C75.7017 78.0543 75.5872 78.2825 75.4018 78.4439C75.2164 78.6053 74.9744 78.6857 74.7305 78.6676C72.8047 78.5243 68.5322 78.2073 68.5322 78.2073C68.5322 78.2073 68.538 78.1263 68.547 77.9986C68.5792 77.561 68.782 77.1552 69.1115 76.8694C69.441 76.5828 69.8697 76.4409 70.3035 76.472C71.7183 76.5777 73.7129 76.7261 74.8663 76.811C75.1102 76.8285 75.3374 76.9446 75.4977 77.1312C75.658 77.3179 75.7378 77.561 75.7198 77.808Z" fill="#D4D4F5"/>
<path fill-rule="evenodd" clip-rule="evenodd" d="M75.9944 84.0385C76.3252 84.43 76.2776 85.0173 75.8882 85.3499C75.1158 86.0111 73.8846 87.0651 73.1115 87.7257C72.7228 88.0582 72.1396 88.0109 71.8088 87.6187C71.4786 87.2272 71.5263 86.6399 71.915 86.3067C72.6874 85.6461 73.9193 84.5921 74.6923 83.9309C75.0804 83.5984 75.6636 83.647 75.9944 84.0379V84.0385Z" fill="#AFAFE7"/>
<mask id="mask55" mask-type="alpha" maskUnits="userSpaceOnUse" x="71" y="83" width="6" height="5">
<path d="M74.6922 83.931C73.9198 84.5922 72.6879 85.6463 71.9149 86.3062C71.5261 86.6394 71.4785 87.2273 71.8087 87.6182C72.1395 88.0104 72.7227 88.0577 73.1114 87.7258C73.8844 87.0646 75.1157 86.0106 75.8881 85.3494C76.2781 85.0168 76.3251 84.4302 75.9949 84.038V84.0373C75.8115 83.8215 75.5515 83.71 75.2895 83.71C75.0778 83.71 74.8653 83.7826 74.6922 83.931Z" fill="white"/>
</mask>
<g mask="url(#mask55)">
<path fill-rule="evenodd" clip-rule="evenodd" d="M76.5098 84.8428C76.8413 85.2343 76.793 85.8222 76.4049 86.1548C75.6325 86.8154 74.4 87.87 73.627 88.5299C73.2382 88.8631 72.6557 88.8158 72.3249 88.4236L72.3242 88.423C71.994 88.0321 72.0423 87.4448 72.4304 87.1116C73.2028 86.4504 74.4347 85.3964 75.2077 84.7358C75.5965 84.4033 76.1796 84.4512 76.5098 84.8428Z" fill="#DBDBF3"/>
</g>
<path fill-rule="evenodd" clip-rule="evenodd" d="M76.4463 79.6697C76.3098 80.1656 75.8007 80.4554 75.309 80.3173C74.0906 79.9776 71.917 79.3689 70.6992 79.0293C70.2075 78.8918 69.9191 78.3784 70.0556 77.8825H70.0562C70.1927 77.3873 70.7018 77.0969 71.1935 77.2343C72.4119 77.5759 74.5855 78.1827 75.8033 78.5236C76.295 78.6611 76.5834 79.1738 76.4469 79.6691C76.4463 79.6691 76.4463 79.6697 76.4463 79.6697Z" fill="#D1D1F1"/>
<path fill-rule="evenodd" clip-rule="evenodd" d="M76.7939 81.9909C76.662 82.1989 76.4535 82.3467 76.2147 82.3999C75.9759 82.4537 75.7249 82.409 75.5176 82.2761C74.6081 81.6927 73.1123 80.7339 72.2029 80.1499C71.9956 80.0176 71.8501 79.8082 71.7967 79.5671C71.7439 79.3266 71.7877 79.0731 71.9197 78.8657C72.051 78.657 72.2595 78.5105 72.4989 78.4567C72.7384 78.4035 72.9887 78.4469 73.1953 78.5798C74.1055 79.1639 75.6006 80.122 76.5107 80.706C76.7173 80.8389 76.8635 81.0483 76.9162 81.2888C76.9697 81.53 76.9252 81.7828 76.7939 81.9902V81.9909Z" fill="#D6D6F2"/>
<path fill-rule="evenodd" clip-rule="evenodd" d="M66.326 88.7761C66.3144 89.2033 66.1361 89.6085 65.8278 89.9034C65.5201 90.1977 65.1089 90.3565 64.6841 90.3462C61.7819 90.2703 55.9473 90.1173 55.9473 90.1173L56.0985 84.2793L66.4348 84.5496C66.4348 84.5496 66.3697 87.0479 66.326 88.7761Z" fill="#DBDBF3"/>
<mask id="mask56" mask-type="alpha" maskUnits="userSpaceOnUse" x="55" y="84" width="12" height="7">
<path d="M55.9474 90.1157C55.9474 90.1157 61.782 90.2687 64.6835 90.3445C65.109 90.3549 65.5203 90.1967 65.8279 89.9018C66.1362 89.6068 66.3145 89.2017 66.3261 88.7745C66.3699 87.0463 66.4349 84.5486 66.4349 84.5486L56.098 84.2783" fill="white"/>
</mask>
<g mask="url(#mask56)">
<path fill-rule="evenodd" clip-rule="evenodd" d="M65.1383 88.138C63.7706 88.2418 62.3899 87.6331 61.6465 86.4688C60.6167 84.8534 61.1999 82.7784 62.9493 81.8372C64.1239 81.2051 65.2097 81.6874 64.8647 82.0991C63.5099 83.7145 62.7581 85.2929 63.7886 86.9083C64.1265 87.4386 64.597 87.8535 65.1383 88.138Z" fill="#AFAFE7"/>
</g>
<path fill-rule="evenodd" clip-rule="evenodd" d="M64.3136 90.4101C66.6829 90.5922 68.9768 89.5272 70.3761 87.5935C71.4806 86.0688 72.7775 84.2771 73.7436 82.9436C74.5301 81.8591 74.2933 80.3364 73.2158 79.5449C72.3939 78.9421 71.44 78.2413 70.6194 77.6385C69.5451 76.8489 68.039 77.0829 67.2506 78.1622C65.4632 80.61 62.6286 84.4897 62.6286 84.4897L62.458 90.2674C62.458 90.2674 63.289 90.3316 64.3136 90.4101Z" fill="#DBDBF3"/>
<mask id="mask57" mask-type="alpha" maskUnits="userSpaceOnUse" x="62" y="77" width="13" height="14">
<path d="M67.2503 78.1627C65.4629 80.6105 62.629 84.4902 62.629 84.4902L62.4578 90.2673C62.4578 90.2673 63.2893 90.3314 64.3134 90.4105C66.6826 90.5927 68.9766 89.527 70.3765 87.5939C71.481 86.0686 72.7773 84.2769 73.7434 82.9441C74.5299 81.859 74.293 80.3369 73.2149 79.5447C72.3937 78.9419 71.4398 78.2411 70.6198 77.6383C70.1905 77.3232 69.6923 77.1709 69.1986 77.1709C68.4565 77.1709 67.724 77.5145 67.2503 78.1627Z" fill="white"/>
</mask>
<g mask="url(#mask57)">
<path fill-rule="evenodd" clip-rule="evenodd" d="M65.0635 88.1467C63.6951 88.2634 62.3165 87.6003 61.5756 86.3284C60.5497 84.5646 61.138 82.2931 62.8893 81.2585C64.0659 80.5649 64.9869 81.1263 64.6407 81.5775C63.2813 83.3485 62.6904 85.0404 63.7164 86.8042C64.0537 87.3831 64.5229 87.8362 65.0635 88.1467Z" fill="#AFAFE7"/>
</g>
<path fill-rule="evenodd" clip-rule="evenodd" d="M75.7525 85.4136C75.2974 85.6587 74.7317 85.5012 74.4671 85.0552C73.6021 83.6018 71.8552 80.6646 71.8552 80.6646C71.8552 80.6646 72.6064 80.2608 73.0846 80.0028C73.3021 79.8868 73.5731 79.9613 73.6999 80.1746C74.2013 81.0179 75.4159 83.0592 76.0885 84.1911C76.2107 84.3972 76.2449 84.6442 76.1805 84.875C76.1174 85.1057 75.9623 85.3002 75.7525 85.4136Z" fill="#DBDBF3"/>
<path fill-rule="evenodd" clip-rule="evenodd" d="M62.1308 82.8304L61.939 90.2845L56.5479 90.1439L56.7403 82.6885L62.1308 82.8304Z" fill="#A4A4EA"/>
<path fill-rule="evenodd" clip-rule="evenodd" d="M55.8094 80.53C57.9784 80.6123 59.6777 82.4365 59.621 84.6217C59.5914 85.7859 59.5586 87.061 59.5283 88.2311C59.5006 89.2974 59.0507 90.308 58.2784 91.0379C57.506 91.7678 56.4762 92.1561 55.4174 92.116C47.9261 91.8314 31.7867 91.2181 23.2598 90.894C20.1896 90.778 17.7837 88.1954 17.8635 85.1027V85.102C17.9047 83.5151 18.5741 82.0106 19.7236 80.9248C20.8732 79.8396 22.4063 79.2614 23.9807 79.3217C32.6454 79.651 48.4802 80.2519 55.8094 80.53Z" fill="#9191E3"/>
<mask id="mask58" mask-type="alpha" maskUnits="userSpaceOnUse" x="17" y="79" width="43" height="14">
<path d="M19.724 80.925C18.5744 82.0102 17.9051 83.5154 17.8639 85.1016V85.1023C17.7841 88.195 20.1893 90.7776 23.2595 90.8943C31.7865 91.2177 47.9264 91.831 55.4178 92.1156C56.4759 92.1557 57.5057 91.7675 58.2781 91.0375C59.0511 90.3076 59.5004 89.2977 59.528 88.2307C59.5589 87.0612 59.5911 85.7855 59.6207 84.6219C59.678 82.4367 57.9788 80.6119 55.8091 80.5296C48.4806 80.2521 32.6457 79.6506 23.981 79.3213C23.9057 79.3187 23.8304 79.3174 23.7558 79.3174C22.2606 79.3174 20.8182 79.8911 19.724 80.925Z" fill="white"/>
</mask>
<g mask="url(#mask58)">
<path fill-rule="evenodd" clip-rule="evenodd" d="M-8.63492 101.26C-10.6907 101.959 -12.9235 100.864 -13.6424 98.801C-13.9842 97.8229 -14.3524 96.7662 -14.6948 95.7841C-15.0456 94.7774 -14.9819 93.6715 -14.5184 92.7121C-14.0537 91.754 -13.2286 91.0222 -12.2251 90.6806C-5.3015 88.3236 9.36901 83.3289 17.0998 80.697C19.8745 79.7526 22.8881 81.2318 23.8587 84.0147C24.3678 85.4746 24.2757 87.079 23.6025 88.4694C22.9299 89.8599 21.7321 90.9211 20.2768 91.4163C12.3941 94.1 -1.89406 98.9644 -8.63492 101.26Z" fill="#8484E1"/>
</g>
<mask id="mask59" mask-type="alpha" maskUnits="userSpaceOnUse" x="17" y="79" width="43" height="14">
<path d="M19.724 80.925C18.5744 82.0102 17.9051 83.5154 17.8639 85.1016V85.1023C17.7841 88.195 20.1893 90.7776 23.2595 90.8943C31.7865 91.2177 47.9264 91.831 55.4178 92.1156C56.4759 92.1557 57.5057 91.7675 58.2781 91.0375C59.0511 90.3076 59.5004 89.2977 59.528 88.2307C59.5589 87.0612 59.5911 85.7855 59.6207 84.6219C59.678 82.4367 57.9788 80.6119 55.8091 80.5296C48.4806 80.2521 32.6457 79.6506 23.981 79.3213C23.9057 79.3187 23.8304 79.3174 23.7558 79.3174C22.2606 79.3174 20.8182 79.8911 19.724 80.925Z" fill="white"/>
</mask>
<g mask="url(#mask59)">
<path fill-rule="evenodd" clip-rule="evenodd" d="M22.8837 97.5518C20.714 97.4552 19.0263 95.6181 19.0991 93.4322C19.1332 92.395 19.1705 91.2755 19.2053 90.2351C19.24 89.1694 19.697 88.1633 20.4745 87.4386C21.2514 86.7152 22.2832 86.334 23.3407 86.382C31.2266 86.734 48.7729 87.517 57.6094 87.9112C60.5463 88.0421 62.8313 90.53 62.7341 93.4893C62.6819 95.0301 62.0209 96.4867 60.8978 97.5343C59.7733 98.5812 58.2801 99.1322 56.7508 99.0641C47.7379 98.6615 30.5861 97.896 22.8837 97.5518Z" fill="#8484E1"/>
</g>
<path d="M77.2302 75.1502L78.4744 69.541" stroke="#6969DB" stroke-width="0.648239" stroke-linecap="round" stroke-linejoin="round"/>
<path d="M79.3975 77.1601L81.9888 74.96" stroke="#6969DB" stroke-width="0.648239" stroke-linecap="round" stroke-linejoin="round"/>
<path fill-rule="evenodd" clip-rule="evenodd" d="M115.514 59.9658C112.261 60.1382 109.48 57.6179 109.308 54.341C109.138 51.0642 111.64 48.2638 114.894 48.0914C118.147 47.9189 120.928 50.4393 121.099 53.7161C121.27 56.993 118.768 59.7934 115.514 59.9658Z" stroke="#D3D3EF" stroke-width="1.29648" stroke-linecap="round" stroke-linejoin="round"/>
<path fill-rule="evenodd" clip-rule="evenodd" d="M106.351 58.9942C105.861 59.0201 105.442 58.6409 105.417 58.1476C105.391 57.6543 105.767 57.2323 106.257 57.2063C106.748 57.1804 107.167 57.5596 107.192 58.0536C107.218 58.5469 106.841 58.9682 106.351 58.9942Z" fill="#DFDFF4"/>
<path fill-rule="evenodd" clip-rule="evenodd" d="M33.4642 122.771C33.954 122.771 34.3524 123.172 34.3524 123.666C34.3524 124.16 33.954 124.561 33.4642 124.561C32.9737 124.561 32.5759 124.16 32.5759 123.666C32.5759 123.172 32.9737 122.771 33.4642 122.771Z" fill="#DFDFF4"/>
<path d="M25.7449 109.416V121.414" stroke="#D3D3EF" stroke-width="1.29648" stroke-linecap="round" stroke-linejoin="round"/>
<path d="M31.6401 115.414H19.8499" stroke="#D3D3EF" stroke-width="1.29648" stroke-linecap="round" stroke-linejoin="round"/>
</svg>
