<svg width="20" height="22" viewBox="0 0 20 22" fill="none" xmlns="http://www.w3.org/2000/svg">
<path d="M10 1.92847C6.8256 1.92847 4.13689 4.26838 3.69863 7.41239L3.04107 12.1297L2.20122 13.3921C1.31689 14.7213 2.26985 16.4999 3.86638 16.4999H16.1336C17.7302 16.4999 18.6831 14.7213 17.7988 13.3921L16.9589 12.1297L16.3014 7.41239C15.8631 4.26838 13.1744 1.92847 10 1.92847Z" stroke="#252526" stroke-width="2"/>
<path d="M11.7039 16.6428C12.0658 17.0068 12.2859 17.4874 12.2859 18.0143C12.2859 19.1504 11.2625 20.0714 10.0001 20.0714C8.73773 20.0714 7.71436 19.1504 7.71436 18.0143C7.71436 17.4874 7.93444 17.0068 8.29638 16.6428" stroke="#252526" stroke-width="2"/>
</svg>
