<svg width="20" height="20" viewBox="0 0 20 20" fill="none" stroke = 'none' xmlns="http://www.w3.org/2000/svg">
<path d="M2 6V16C2 17.1046 2.89543 18 4 18H7.71429M18 6V16C18 17.1046 17.1046 18 16 18H12.2857" stroke="currentColor" stroke-width="2" stroke-linecap="round" fill = 'none' stroke-linejoin="round"/>
<path d="M0.514357 5.12584C0.0315734 5.39406 -0.14237 6.00286 0.125843 6.48564C0.394056 6.96843 1.00286 7.14237 1.48564 6.87416L0.514357 5.12584ZM18.5144 6.87416C18.9971 7.14237 19.6059 6.96843 19.8742 6.48564C20.1424 6.00286 19.9684 5.39406 19.4856 5.12584L18.5144 6.87416ZM9.51436 1.2698L10 2.14396L9.51436 1.2698ZM10.4856 1.2698L10 2.14396L10.4856 1.2698ZM1.48564 6.87416L10 2.14396L9.02871 0.395644L0.514357 5.12584L1.48564 6.87416ZM19.4856 5.12584L10.9713 0.395644L10 2.14396L18.5144 6.87416L19.4856 5.12584ZM10 2.14396L10.9713 0.395644C10.3672 0.0600637 9.63276 0.0600637 9.02871 0.395644L10 2.14396Z" stroke = 'none' fill = 'currentColor'/>
<path d="M8.00003 18C8.00003 18 7.99993 13.556 8 11.7778C8.00004 10.8889 8.7898 10 10 10C11.2102 10 11.9999 10.8889 12 11.7778C12.0001 14.0005 12 18 12 18" fill = 'none' stroke="currentColor" stroke-width="2" stroke-linecap="round"/>
</svg>
