<svg width="116" height="116" viewBox="0 0 116 116" fill="none" xmlns="http://www.w3.org/2000/svg">
<path fill-rule="evenodd" clip-rule="evenodd" d="M57.7507 4.65723C87.4263 4.65723 111.519 28.7499 111.519 58.4255C111.519 88.1011 87.4263 112.194 57.7507 112.194C28.0756 112.194 3.98242 88.1011 3.98242 58.4255C3.98242 28.7499 28.0756 4.65723 57.7507 4.65723Z" fill="white"/>
<mask id="mask0" mask-type="alpha" maskUnits="userSpaceOnUse" x="3" y="4" width="109" height="109">
<path d="M3.98242 58.425C3.98242 88.1011 28.0751 112.194 57.7507 112.194C87.4263 112.194 111.519 88.1011 111.519 58.425C111.519 28.7499 87.4263 4.65723 57.7507 4.65723C28.0751 4.65723 3.98242 28.7499 3.98242 58.425Z" fill="white"/>
</mask>
<g mask="url(#mask0)">
<path opacity="0.65" fill-rule="evenodd" clip-rule="evenodd" d="M57.751 10.6318C84.1293 10.6318 105.545 32.0475 105.545 58.4258C105.545 84.8041 84.1293 106.22 57.751 106.22C31.3732 106.22 9.95703 84.8041 9.95703 58.4258C9.95703 32.0475 31.3732 10.6318 57.751 10.6318Z" stroke="#D5D5F1" stroke-width="0.995708" stroke-linecap="round" stroke-linejoin="round"/>
</g>
<mask id="mask1" mask-type="alpha" maskUnits="userSpaceOnUse" x="3" y="4" width="109" height="109">
<path d="M3.98242 58.425C3.98242 88.1011 28.0751 112.194 57.7507 112.194C87.4263 112.194 111.519 88.1011 111.519 58.425C111.519 28.7499 87.4263 4.65723 57.7507 4.65723C28.0751 4.65723 3.98242 28.7499 3.98242 58.425Z" fill="white"/>
</mask>
<g mask="url(#mask1)">
<path opacity="0.5" fill-rule="evenodd" clip-rule="evenodd" d="M57.7514 16.6064C80.8324 16.6064 99.5711 35.3452 99.5711 58.4262C99.5711 81.5072 80.8324 100.246 57.7514 100.246C34.6709 100.246 15.9316 81.5072 15.9316 58.4262C15.9316 35.3452 34.6709 16.6064 57.7514 16.6064Z" stroke="#DFDFF5" stroke-width="0.995708" stroke-linecap="round" stroke-linejoin="round"/>
</g>
<mask id="mask2" mask-type="alpha" maskUnits="userSpaceOnUse" x="3" y="4" width="109" height="109">
<path d="M3.98242 58.425C3.98242 88.1011 28.0751 112.194 57.7507 112.194C87.4263 112.194 111.519 88.1011 111.519 58.425C111.519 28.7499 87.4263 4.65723 57.7507 4.65723C28.0751 4.65723 3.98242 28.7499 3.98242 58.425Z" fill="white"/>
</mask>
<g mask="url(#mask2)">
<path opacity="0.5" fill-rule="evenodd" clip-rule="evenodd" d="M57.7517 22.5801C77.5355 22.5801 93.5972 38.6418 93.5972 58.4256C93.5972 78.2093 77.5355 94.2711 57.7517 94.2711C37.9685 94.2711 21.9062 78.2093 21.9062 58.4256C21.9062 38.6418 37.9685 22.5801 57.7517 22.5801Z" stroke="#E5E5F7" stroke-width="0.995708" stroke-linecap="round" stroke-linejoin="round"/>
</g>
<mask id="mask3" mask-type="alpha" maskUnits="userSpaceOnUse" x="3" y="4" width="109" height="109">
<path d="M3.98242 58.425C3.98242 88.1011 28.0751 112.194 57.7507 112.194C87.4263 112.194 111.519 88.1011 111.519 58.425C111.519 28.7499 87.4263 4.65723 57.7507 4.65723C28.0751 4.65723 3.98242 28.7499 3.98242 58.425Z" fill="white"/>
</mask>
<g mask="url(#mask3)">
<path opacity="0.4" fill-rule="evenodd" clip-rule="evenodd" d="M57.7502 28.5547C74.2366 28.5547 87.6214 41.9395 87.6214 58.4259C87.6214 74.9124 74.2366 88.2972 57.7502 88.2972C41.2642 88.2972 27.8789 74.9124 27.8789 58.4259C27.8789 41.9395 41.2642 28.5547 57.7502 28.5547Z" stroke="#E9E9F7" stroke-width="0.995708" stroke-linecap="round" stroke-linejoin="round"/>
</g>
<mask id="mask4" mask-type="alpha" maskUnits="userSpaceOnUse" x="3" y="4" width="109" height="109">
<path d="M3.98242 58.425C3.98242 88.1011 28.0751 112.194 57.7507 112.194C87.4263 112.194 111.519 88.1011 111.519 58.425C111.519 28.7499 87.4263 4.65723 57.7507 4.65723C28.0751 4.65723 3.98242 28.7499 3.98242 58.425Z" fill="white"/>
</mask>
<g mask="url(#mask4)">
<path opacity="0.35" fill-rule="evenodd" clip-rule="evenodd" d="M57.7505 34.5293C70.9402 34.5293 81.6475 45.2371 81.6475 58.4263C81.6475 71.6154 70.9402 82.3233 57.7505 82.3233C44.5619 82.3233 33.8535 71.6154 33.8535 58.4263C33.8535 45.2371 44.5619 34.5293 57.7505 34.5293Z" stroke="#EBEBF9" stroke-width="0.995708" stroke-linecap="round" stroke-linejoin="round"/>
</g>
<mask id="mask5" mask-type="alpha" maskUnits="userSpaceOnUse" x="3" y="4" width="109" height="109">
<path d="M3.98242 58.425C3.98242 88.1011 28.0751 112.194 57.7507 112.194C87.4263 112.194 111.519 88.1011 111.519 58.425C111.519 28.7499 87.4263 4.65723 57.7507 4.65723C28.0751 4.65723 3.98242 28.7499 3.98242 58.425Z" fill="white"/>
</mask>
<g mask="url(#mask5)">
<path opacity="0.3" fill-rule="evenodd" clip-rule="evenodd" d="M57.7509 40.5029C67.6432 40.5029 75.6736 48.5338 75.6736 58.4257C75.6736 68.3175 67.6432 76.3484 57.7509 76.3484C47.8595 76.3484 39.8281 68.3175 39.8281 58.4257C39.8281 48.5338 47.8595 40.5029 57.7509 40.5029Z" stroke="#F3F3FB" stroke-width="0.995708" stroke-linecap="round" stroke-linejoin="round"/>
</g>
<mask id="mask6" mask-type="alpha" maskUnits="userSpaceOnUse" x="3" y="4" width="109" height="109">
<path d="M3.98242 58.425C3.98242 88.1011 28.0751 112.194 57.7507 112.194C87.4263 112.194 111.519 88.1011 111.519 58.425C111.519 28.7499 87.4263 4.65723 57.7507 4.65723C28.0751 4.65723 3.98242 28.7499 3.98242 58.425Z" fill="white"/>
</mask>
<g mask="url(#mask6)">
<path opacity="0.2" fill-rule="evenodd" clip-rule="evenodd" d="M57.7512 46.4775C64.3463 46.4775 69.6997 51.8315 69.6997 58.426C69.6997 65.0206 64.3463 70.3745 57.7512 70.3745C51.1567 70.3745 45.8027 65.0206 45.8027 58.426C45.8027 51.8315 51.1567 46.4775 57.7512 46.4775Z" stroke="#F9F9FD" stroke-width="0.995708" stroke-linecap="round" stroke-linejoin="round"/>
</g>
<path fill-rule="evenodd" clip-rule="evenodd" d="M57.7507 4.65723C87.4263 4.65723 111.519 28.7499 111.519 58.4255C111.519 88.1011 87.4263 112.194 57.7507 112.194C28.0756 112.194 3.98242 88.1011 3.98242 58.4255C3.98242 28.7499 28.0756 4.65723 57.7507 4.65723Z" stroke="#D3D3EF" stroke-width="0.995708" stroke-linecap="round" stroke-linejoin="round"/>
<mask id="mask7" mask-type="alpha" maskUnits="userSpaceOnUse" x="3" y="4" width="109" height="109">
<path d="M3.98242 58.425C3.98242 88.1011 28.0751 112.194 57.7507 112.194C87.4263 112.194 111.519 88.1011 111.519 58.425C111.519 28.7499 87.4263 4.65723 57.7507 4.65723C28.0751 4.65723 3.98242 28.7499 3.98242 58.425Z" fill="white"/>
</mask>
<g mask="url(#mask7)">
<path fill-rule="evenodd" clip-rule="evenodd" d="M58.2997 57.0479L24.7368 79.8142C23.3324 80.7671 22.3636 82.2388 22.044 83.9056C21.7248 85.5724 22.0803 87.2985 23.0332 88.7029C23.9861 90.1074 25.4577 91.0767 27.1246 91.3958C28.7914 91.7159 30.5169 91.36 31.9219 90.4071L57.9606 72.7422L58.2997 57.0479Z" fill="#E9E9FA"/>
</g>
<mask id="mask8" mask-type="alpha" maskUnits="userSpaceOnUse" x="21" y="57" width="38" height="35">
<path d="M24.7369 79.8142C23.3324 80.7666 22.3636 82.2388 22.044 83.9056C21.7248 85.5724 22.0803 87.298 23.0327 88.7029H23.0332C23.9861 90.1074 25.4572 91.0762 27.1241 91.3958C28.7914 91.7159 30.5169 91.36 31.9219 90.4071L57.9606 72.7422L58.2997 57.0479L24.7369 79.8142Z" fill="white"/>
</mask>
<g mask="url(#mask8)">
<path fill-rule="evenodd" clip-rule="evenodd" d="M55.6708 52.6729L22.1079 75.4392C20.7035 76.3921 19.7347 77.8638 19.415 79.5306C19.0959 81.1974 19.4514 82.9235 20.4043 84.3279C21.3572 85.7324 22.8288 86.7017 24.4956 87.0208C26.1625 87.3409 27.888 86.985 29.293 86.0321L55.3317 68.3672L55.6708 52.6729Z" fill="#F2F2FC"/>
</g>
<mask id="mask9" mask-type="alpha" maskUnits="userSpaceOnUse" x="21" y="57" width="38" height="35">
<path d="M24.7369 79.8142C23.3324 80.7666 22.3636 82.2388 22.044 83.9056C21.7248 85.5724 22.0803 87.298 23.0327 88.7029H23.0332C23.9861 90.1074 25.4572 91.0762 27.1241 91.3958C28.7914 91.7159 30.5169 91.36 31.9219 90.4071L57.9606 72.7422L58.2997 57.0479L24.7369 79.8142Z" fill="white"/>
</mask>
<g mask="url(#mask9)">
<path fill-rule="evenodd" clip-rule="evenodd" d="M84.0505 68.1L63.8994 37.6299L32.998 58.0658L53.1482 88.536L84.0505 68.1Z" fill="#9F9FE9"/>
</g>
<mask id="mask10" mask-type="alpha" maskUnits="userSpaceOnUse" x="40" y="57" width="19" height="23">
<path d="M40.3672 69.2099L47.4278 79.8859L57.9594 72.7412L58.2984 57.0469" fill="white"/>
</mask>
<g mask="url(#mask10)">
<path fill-rule="evenodd" clip-rule="evenodd" d="M24.3224 89.6484C23.258 90.3733 22.5251 91.491 22.2847 92.756C22.0442 94.0211 22.316 95.3299 23.0409 96.3944C23.7653 97.4588 24.883 98.1916 26.148 98.4321C27.413 98.6725 28.7219 98.4002 29.7863 97.6758C37.5299 92.4046 54.451 80.8867 62.1946 75.6154C63.2585 74.891 63.9919 73.7734 64.2323 72.5083C64.4728 71.2433 64.2005 69.9344 63.4761 68.8705C62.7517 67.8061 61.634 67.0723 60.369 66.8328C59.104 66.5918 57.7951 66.8636 56.7307 67.5885C48.9866 72.8598 32.066 84.3777 24.3224 89.6484Z" fill="#6969DB"/>
</g>
<mask id="mask11" mask-type="alpha" maskUnits="userSpaceOnUse" x="3" y="4" width="109" height="109">
<path d="M3.98242 58.425C3.98242 88.1011 28.0751 112.194 57.7507 112.194C87.4263 112.194 111.519 88.1011 111.519 58.425C111.519 28.7499 87.4263 4.65723 57.7507 4.65723C28.0751 4.65723 3.98242 28.7499 3.98242 58.425Z" fill="white"/>
</mask>
<g mask="url(#mask11)">
<path fill-rule="evenodd" clip-rule="evenodd" d="M102.393 66.4296C102.13 63.8866 100.35 61.7563 97.8937 61.0453C90.8714 59.0121 77.2118 55.0557 77.2118 55.0557C77.2118 55.0557 68.1295 55.5062 61.0744 55.8557C58.9879 55.9593 57.0428 56.9376 55.716 58.5506C54.3892 60.1631 53.8042 62.2611 54.1044 64.3277C56.5633 81.2393 62.0322 118.851 62.0322 118.851L106.295 104.089C106.295 104.089 103.494 77.0484 102.393 66.4296Z" fill="#9191E3"/>
</g>
<mask id="mask12" mask-type="alpha" maskUnits="userSpaceOnUse" x="54" y="55" width="51" height="58">
<path d="M61.0744 55.8547C58.9884 55.9583 57.0428 56.9361 55.716 58.5491C54.3892 60.1617 53.8042 62.2596 54.1044 64.3267C55.9161 76.7865 59.3613 100.481 61.0495 112.093C79.5667 110.971 95.5657 100.458 104.345 85.261C103.617 78.2328 102.855 70.885 102.393 66.4287C102.13 63.8851 100.35 61.7553 97.8937 61.0444C90.8714 59.0106 77.2118 55.0547 77.2118 55.0547C77.2118 55.0547 68.1295 55.5052 61.0744 55.8547Z" fill="white"/>
</mask>
<g mask="url(#mask12)">
<path fill-rule="evenodd" clip-rule="evenodd" d="M78.8043 46.3486C84.7646 46.3486 89.6028 51.1873 89.6028 57.1476C89.6028 63.1074 84.7646 67.9455 78.8043 67.9455C72.844 67.9455 68.0059 63.1074 68.0059 57.1476C68.0059 51.1873 72.844 46.3486 78.8043 46.3486Z" fill="#F2F2FC"/>
</g>
<mask id="mask13" mask-type="alpha" maskUnits="userSpaceOnUse" x="54" y="55" width="51" height="58">
<path d="M61.0744 55.8547C58.9884 55.9583 57.0428 56.9361 55.716 58.5491C54.3892 60.1617 53.8042 62.2596 54.1044 64.3267C55.9161 76.7865 59.3613 100.481 61.0495 112.093C79.5667 110.971 95.5657 100.458 104.345 85.261C103.617 78.2328 102.855 70.885 102.393 66.4287C102.13 63.8851 100.35 61.7553 97.8937 61.0444C90.8714 59.0106 77.2118 55.0547 77.2118 55.0547C77.2118 55.0547 68.1295 55.5052 61.0744 55.8547Z" fill="white"/>
</mask>
<g mask="url(#mask13)">
<path fill-rule="evenodd" clip-rule="evenodd" d="M85.2799 120.881C84.574 123.467 86.0989 126.137 88.6857 126.843C91.2726 127.549 93.9411 126.024 94.647 123.437C98.2625 110.19 108.53 72.5609 112.145 59.314C112.851 56.7271 111.325 54.0581 108.739 53.3522C106.152 52.6462 103.483 54.1712 102.777 56.758C99.1621 70.0049 88.8943 107.634 85.2799 120.881Z" fill="#6969DB"/>
</g>
<path fill-rule="evenodd" clip-rule="evenodd" d="M57.7507 4.65723C87.4263 4.65723 111.519 28.7499 111.519 58.4255C111.519 88.1011 87.4263 112.194 57.7507 112.194C28.0756 112.194 3.98242 88.1011 3.98242 58.4255C3.98242 28.7499 28.0756 4.65723 57.7507 4.65723Z" stroke="#D3D3EF" stroke-width="0.995708" stroke-linecap="round" stroke-linejoin="round"/>
<path fill-rule="evenodd" clip-rule="evenodd" d="M96.1491 46.5547C95.1897 47.6147 93.9744 48.4715 92.5506 49.0211C87.6786 50.902 82.1972 48.4735 80.3163 43.6015C78.4354 38.73 80.8639 33.2476 85.7359 31.3672C87.1643 30.8156 87.6253 30.8838 89.0521 31.0262C86.7277 33.5926 86.9193 37.0975 88.2506 40.5456C89.5799 43.9888 92.7084 46.2117 96.1491 46.5547Z" fill="#6969DB"/>
<mask id="mask14" mask-type="alpha" maskUnits="userSpaceOnUse" x="79" y="30" width="18" height="20">
<path d="M85.7377 31.3674C80.8657 33.2473 78.4371 38.7301 80.3185 43.6021C82.1989 48.4731 87.6808 50.9017 92.5523 49.0213C93.9762 48.4717 95.1914 47.6148 96.1508 46.5549C92.7101 46.2119 89.5816 43.989 88.2523 40.5458C86.9211 37.0972 86.7299 33.5928 89.0539 31.0263C88.4938 30.9706 88.0826 30.9258 87.7027 30.9258C87.1162 30.9258 86.6054 31.0323 85.7377 31.3674Z" fill="white"/>
</mask>
<g mask="url(#mask14)">
<path fill-rule="evenodd" clip-rule="evenodd" d="M103.831 47.7581C102.871 48.8176 101.656 49.6744 100.233 50.224C95.3607 52.1049 89.8788 49.6764 87.9979 44.8049C86.1171 39.9329 88.5456 34.4505 93.4171 32.5701C94.8454 32.0185 96.3265 31.8378 97.7534 31.9802C95.4284 34.5461 94.601 38.3004 95.9323 41.7485C97.2615 45.1917 100.39 47.4146 103.831 47.7581Z" fill="#8A8AE2"/>
</g>
<path fill-rule="evenodd" clip-rule="evenodd" d="M54.6035 45.9797C55.5629 47.0391 56.7781 47.8959 58.2015 48.4456C63.073 50.3265 68.5554 47.8979 70.4363 43.0264C72.3167 38.1544 69.8886 32.6721 65.0166 30.7917C63.5883 30.24 63.1268 30.3088 61.6999 30.4511C64.0249 33.0171 63.8332 36.522 62.502 39.9701C61.1727 43.4133 58.0442 45.6362 54.6035 45.9797Z" fill="#6969DB"/>
<mask id="mask15" mask-type="alpha" maskUnits="userSpaceOnUse" x="54" y="30" width="18" height="20">
<path d="M61.6999 30.4512C64.0249 33.0171 63.8332 36.522 62.5025 39.9701C61.1727 43.4133 58.0442 45.6362 54.6035 45.9797C55.5624 47.0392 56.7781 47.896 58.2015 48.4456C63.0725 50.3265 68.5559 47.898 70.4363 43.0264C72.3167 38.1544 69.8886 32.6721 65.0166 30.7917C64.1504 30.4571 63.6396 30.3506 63.0531 30.3506C62.6727 30.3506 62.261 30.3954 61.6999 30.4512Z" fill="white"/>
</mask>
<g mask="url(#mask15)">
<path fill-rule="evenodd" clip-rule="evenodd" d="M46.9238 47.182C47.8837 48.2414 49.0985 49.0982 50.5218 49.6478C55.3938 51.5287 60.8757 49.1002 62.7566 44.2287C64.638 39.3567 62.2094 33.8748 57.3374 31.9939C55.9086 31.4423 54.428 31.2616 53.0011 31.404C55.3261 33.9699 56.1535 37.7242 54.8223 41.1724C53.493 44.616 50.3645 46.8385 46.9238 47.182Z" fill="#8A8AE2"/>
</g>
<path fill-rule="evenodd" clip-rule="evenodd" d="M71.041 57.8503C71.041 62.1428 74.517 65.6228 78.809 65.6292H78.8095C83.0811 65.6357 86.5527 62.1856 86.5731 57.9135C86.6114 49.8961 86.6662 38.5166 86.6662 38.5166L71.041 38.5231V57.8503Z" fill="#DBDBF3"/>
<mask id="mask16" mask-type="alpha" maskUnits="userSpaceOnUse" x="71" y="38" width="16" height="28">
<path d="M71.041 38.5226V57.8498C71.041 62.1423 74.517 65.6223 78.8085 65.6288H78.809C83.0806 65.6352 86.5527 62.1846 86.5731 57.9125C86.6114 49.8956 86.6662 38.5156 86.6662 38.5156L71.041 38.5226Z" fill="white"/>
</mask>
<g mask="url(#mask16)">
<path fill-rule="evenodd" clip-rule="evenodd" d="M63.7715 46.6293C63.7715 49.6817 64.9838 52.6085 67.142 54.7667C69.2997 56.9244 72.227 58.1372 75.2789 58.1372H75.2794C78.3317 58.1372 81.2586 56.9244 83.4168 54.7667C85.5745 52.6085 86.7868 49.6817 86.7868 46.6293V25.0488H63.7715V46.6293Z" fill="#C4C4EB"/>
</g>
<path fill-rule="evenodd" clip-rule="evenodd" d="M86.9605 7.98345C77.4256 3.55603 65.2351 9.54472 59.7547 21.3478C54.2738 33.1515 57.5652 46.3287 67.0991 50.7556C76.6345 55.183 88.8249 49.1943 94.3058 37.3912C99.7862 25.5876 96.4944 12.4104 86.9605 7.98345Z" fill="#DBDBF3"/>
<mask id="mask17" mask-type="alpha" maskUnits="userSpaceOnUse" x="57" y="6" width="40" height="47">
<path d="M59.7547 21.348C54.2738 33.1516 57.5652 46.3288 67.0991 50.7558C76.6345 55.1832 88.8254 49.1945 94.3058 37.3914C99.7857 25.5877 96.4944 12.4105 86.9605 7.98362C84.8291 6.99389 82.5639 6.52491 80.2718 6.52441C72.3096 6.52392 64.0104 12.183 59.7547 21.348Z" fill="white"/>
</mask>
<g mask="url(#mask17)">
<path fill-rule="evenodd" clip-rule="evenodd" d="M87.2067 26.6708L59.291 18.043L59.3303 20.4292C59.3303 20.4292 71.0872 24.9995 78.1383 27.7407C81.1827 28.9241 83.0352 32.0242 82.6344 35.2662L87.2067 26.6708Z" fill="#CDCDEE"/>
</g>
<mask id="mask18" mask-type="alpha" maskUnits="userSpaceOnUse" x="57" y="6" width="40" height="47">
<path d="M59.7547 21.348C54.2738 33.1516 57.5652 46.3288 67.0991 50.7558C76.6345 55.1832 88.8254 49.1945 94.3058 37.3914C99.7857 25.5877 96.4944 12.4105 86.9605 7.98362C84.8291 6.99389 82.5639 6.52491 80.2718 6.52441C72.3096 6.52392 64.0104 12.183 59.7547 21.348Z" fill="white"/>
</mask>
<g mask="url(#mask18)">
<path fill-rule="evenodd" clip-rule="evenodd" d="M86.8945 38.8857C86.8945 38.8857 86.4216 52.2959 68.6621 51.9066L74.3113 56.1015L95.5935 53.0766L95.5552 41.5836L86.8945 38.8857Z" fill="#CDCDEE"/>
</g>
<mask id="mask19" mask-type="alpha" maskUnits="userSpaceOnUse" x="57" y="6" width="40" height="47">
<path d="M59.7547 21.348C54.2738 33.1516 57.5652 46.3288 67.0991 50.7558C76.6345 55.1832 88.8254 49.1945 94.3058 37.3914C99.7857 25.5877 96.4944 12.4105 86.9605 7.98362C84.8291 6.99389 82.5639 6.52491 80.2718 6.52441C72.3096 6.52392 64.0104 12.183 59.7547 21.348Z" fill="white"/>
</mask>
<g mask="url(#mask19)">
<path fill-rule="evenodd" clip-rule="evenodd" d="M83.1443 3.18156C87.6897 2.30086 58.9062 18.7714 58.9062 18.7714L74.4941 24.3961C74.4941 24.3961 80.5888 21.8989 84.3745 25.1459L81.2385 33.7194C81.0319 34.8998 81.8006 36.0305 82.9735 36.2724H82.974C83.5814 36.3979 84.2132 36.2719 84.7265 35.9234C85.2397 35.5744 85.3597 35.1851 85.6963 34.4224C88.5619 27.9274 88.4748 27.8896 88.4748 27.8896C88.7601 28.0349 89.0468 28.1728 89.3366 28.3038C87.3417 31.8261 86.7229 36.2535 87.956 40.7417C90.4139 49.6901 103.522 44.1764 101.782 37.8427C101.017 35.0587 82.5971 5.71713 83.1443 3.18156Z" fill="#6969DB"/>
</g>
<mask id="mask20" mask-type="alpha" maskUnits="userSpaceOnUse" x="57" y="6" width="40" height="47">
<path d="M59.7547 21.348C54.2738 33.1516 57.5652 46.3288 67.0991 50.7558C76.6345 55.1832 88.8254 49.1945 94.3058 37.3914C99.7857 25.5877 96.4944 12.4105 86.9605 7.98362C84.8291 6.99389 82.5639 6.52491 80.2718 6.52441C72.3096 6.52392 64.0104 12.183 59.7547 21.348Z" fill="white"/>
</mask>
<g mask="url(#mask20)">
<path fill-rule="evenodd" clip-rule="evenodd" d="M87.6815 2.05296C82.8583 4.04786 81.302 11.3683 84.207 18.39C87.111 25.4118 93.3855 29.4932 98.2077 27.4978C103.03 25.5029 104.587 18.1824 101.682 11.1607C98.7767 4.13896 92.5037 0.0580555 87.6815 2.05296Z" fill="#7A7ADF"/>
</g>
<mask id="mask21" mask-type="alpha" maskUnits="userSpaceOnUse" x="57" y="6" width="40" height="47">
<path d="M59.7547 21.348C54.2738 33.1516 57.5652 46.3288 67.0991 50.7558C76.6345 55.1832 88.8254 49.1945 94.3058 37.3914C99.7857 25.5877 96.4944 12.4105 86.9605 7.98362C84.8291 6.99389 82.5639 6.52491 80.2718 6.52441C72.3096 6.52392 64.0104 12.183 59.7547 21.348Z" fill="white"/>
</mask>
<g mask="url(#mask21)">
<path fill-rule="evenodd" clip-rule="evenodd" d="M75.4794 36.1631C73.9868 35.7763 72.6277 36.0924 72.446 36.8691C72.2643 37.6463 73.3287 38.5912 74.8212 38.978C76.3133 39.3653 77.672 39.0492 77.8542 38.2721C78.0359 37.4954 76.9715 36.5505 75.4794 36.1631Z" fill="#CDCDEE"/>
</g>
<mask id="mask22" mask-type="alpha" maskUnits="userSpaceOnUse" x="57" y="6" width="40" height="47">
<path d="M59.7547 21.348C54.2738 33.1516 57.5652 46.3288 67.0991 50.7558C76.6345 55.1832 88.8254 49.1945 94.3058 37.3914C99.7857 25.5877 96.4944 12.4105 86.9605 7.98362C84.8291 6.99389 82.5639 6.52491 80.2718 6.52441C72.3096 6.52392 64.0104 12.183 59.7547 21.348Z" fill="white"/>
</mask>
<g mask="url(#mask22)">
<path fill-rule="evenodd" clip-rule="evenodd" d="M57.5556 30.5069C56.063 30.1201 54.7044 30.4362 54.5222 31.2129C54.3404 31.99 55.4049 32.9349 56.8969 33.3223C58.3885 33.7091 59.7481 33.393 59.9298 32.6158C60.1111 31.8392 59.0476 30.8942 57.5556 30.5069Z" fill="#CDCDEE"/>
</g>
<mask id="mask23" mask-type="alpha" maskUnits="userSpaceOnUse" x="57" y="6" width="40" height="47">
<path d="M59.7547 21.348C54.2738 33.1516 57.5652 46.3288 67.0991 50.7558C76.6345 55.1832 88.8254 49.1945 94.3058 37.3914C99.7857 25.5877 96.4944 12.4105 86.9605 7.98362C84.8291 6.99389 82.5639 6.52491 80.2718 6.52441C72.3096 6.52392 64.0104 12.183 59.7547 21.348Z" fill="white"/>
</mask>
<g mask="url(#mask23)">
<path fill-rule="evenodd" clip-rule="evenodd" d="M72.3652 30.7845C71.5601 30.9333 71.0648 31.6881 71.2589 32.4687C71.4531 33.2499 72.2651 33.7631 73.0701 33.6143C73.8757 33.4659 74.3715 32.7107 74.1773 31.93C73.9822 31.1489 73.1707 30.6356 72.3652 30.7845Z" fill="#BDB9E5"/>
</g>
<mask id="mask24" mask-type="alpha" maskUnits="userSpaceOnUse" x="71" y="30" width="4" height="4">
<path d="M72.3673 30.7847C71.5622 30.9335 71.0664 31.6883 71.261 32.4689C71.4552 33.2501 72.2667 33.7633 73.0722 33.6145C73.8778 33.4661 74.3736 32.7109 74.1795 31.9297C74.0072 31.2397 73.3535 30.7588 72.6481 30.7588C72.555 30.7588 72.4609 30.7673 72.3673 30.7847Z" fill="white"/>
</mask>
<g mask="url(#mask24)">
<path fill-rule="evenodd" clip-rule="evenodd" d="M72.4708 31.1978C71.9008 31.3033 71.5503 31.837 71.6882 32.3896C71.8251 32.9423 72.3996 33.3052 72.9692 33.2002C73.5392 33.0946 73.8902 32.5609 73.7523 32.0083C73.6144 31.4557 73.0409 31.0927 72.4708 31.1978Z" fill="#5A4BE2"/>
</g>
<mask id="mask25" mask-type="alpha" maskUnits="userSpaceOnUse" x="71" y="31" width="3" height="3">
<path d="M72.4708 31.1981C71.9008 31.3037 71.5503 31.8374 71.6882 32.39C71.8251 32.9426 72.3996 33.3055 72.9692 33.2005C73.5387 33.0949 73.8897 32.5607 73.7523 32.0086C73.6303 31.5202 73.1678 31.1797 72.6685 31.1797C72.6033 31.1797 72.5371 31.1857 72.4708 31.1981Z" fill="white"/>
</mask>
<g mask="url(#mask25)">
<path fill-rule="evenodd" clip-rule="evenodd" d="M72.2228 30.729C71.6527 30.8346 71.3023 31.3683 71.4402 31.9209C71.5771 32.4735 72.1516 32.8365 72.7211 32.7314C73.2912 32.6259 73.6422 32.0922 73.5043 31.5395C73.3669 30.9869 72.7928 30.624 72.2228 30.729Z" fill="#7364E2"/>
</g>
<mask id="mask26" mask-type="alpha" maskUnits="userSpaceOnUse" x="71" y="31" width="3" height="3">
<path d="M72.4708 31.1981C71.9008 31.3037 71.5503 31.8374 71.6882 32.39C71.8251 32.9426 72.3996 33.3055 72.9692 33.2005C73.5387 33.0949 73.8897 32.5607 73.7523 32.0086C73.6303 31.5202 73.1678 31.1797 72.6685 31.1797C72.6033 31.1797 72.5371 31.1857 72.4708 31.1981Z" fill="white"/>
</mask>
<g mask="url(#mask26)">
<path fill-rule="evenodd" clip-rule="evenodd" d="M72.1359 31.442C72.0244 31.4624 71.9552 31.5674 71.9825 31.676C72.0094 31.784 72.1219 31.8552 72.2335 31.8348C72.3455 31.8139 72.4147 31.7093 72.3873 31.6008C72.3604 31.4927 72.2479 31.4216 72.1359 31.442Z" fill="white"/>
</g>
<mask id="mask27" mask-type="alpha" maskUnits="userSpaceOnUse" x="57" y="6" width="40" height="47">
<path d="M59.7547 21.348C54.2738 33.1516 57.5652 46.3288 67.0991 50.7558C76.6345 55.1832 88.8254 49.1945 94.3058 37.3914C99.7857 25.5877 96.4944 12.4105 86.9605 7.98362C84.8291 6.99389 82.5639 6.52491 80.2718 6.52441C72.3096 6.52392 64.0104 12.183 59.7547 21.348Z" fill="white"/>
</mask>
<g mask="url(#mask27)">
<path fill-rule="evenodd" clip-rule="evenodd" d="M61.5357 27.9621C60.7302 28.1109 60.2343 28.8657 60.429 29.6468C60.6232 30.4279 61.4352 30.9412 62.2402 30.7924C63.0457 30.6435 63.5416 29.8888 63.3469 29.1076C63.1523 28.327 62.3408 27.8137 61.5357 27.9621Z" fill="#BDB9E5"/>
</g>
<mask id="mask28" mask-type="alpha" maskUnits="userSpaceOnUse" x="60" y="27" width="4" height="4">
<path d="M61.5357 27.9619C60.7302 28.1108 60.2343 28.8655 60.429 29.6467C60.6232 30.4283 61.4352 30.9411 62.2402 30.7922C63.0457 30.6434 63.5416 29.8886 63.3464 29.1075C63.1747 28.4175 62.5205 27.9365 61.8155 27.9365C61.7229 27.9365 61.6293 27.9445 61.5357 27.9619Z" fill="white"/>
</mask>
<g mask="url(#mask28)">
<path fill-rule="evenodd" clip-rule="evenodd" d="M61.6391 28.3755C61.0691 28.4806 60.7186 29.0148 60.856 29.5674C60.9934 30.1195 61.5679 30.4829 62.1375 30.3774C62.7075 30.2723 63.0585 29.7381 62.9206 29.186C62.7827 28.6334 62.2092 28.2705 61.6391 28.3755Z" fill="#5A4BE2"/>
</g>
<mask id="mask29" mask-type="alpha" maskUnits="userSpaceOnUse" x="60" y="28" width="3" height="3">
<path d="M61.639 28.3763C61.0689 28.4814 60.7189 29.0156 60.8558 29.5682C60.9932 30.1203 61.5678 30.4837 62.1373 30.3782C62.7078 30.2731 63.0578 29.7389 62.9204 29.1868C62.7985 28.6984 62.3365 28.3584 61.8376 28.3584C61.7719 28.3584 61.7052 28.3644 61.639 28.3763Z" fill="white"/>
</mask>
<g mask="url(#mask29)">
<path fill-rule="evenodd" clip-rule="evenodd" d="M61.3911 27.9079C60.821 28.0129 60.4705 28.5471 60.6079 29.0992C60.7459 29.6519 61.3199 30.0153 61.8894 29.9098C62.4595 29.8047 62.8105 29.2705 62.6725 28.7184C62.5346 28.1658 61.9611 27.8023 61.3911 27.9079Z" fill="#7364E2"/>
</g>
<mask id="mask30" mask-type="alpha" maskUnits="userSpaceOnUse" x="60" y="28" width="3" height="3">
<path d="M61.639 28.3763C61.0689 28.4814 60.7189 29.0156 60.8558 29.5682C60.9932 30.1203 61.5678 30.4837 62.1373 30.3782C62.7078 30.2731 63.0578 29.7389 62.9204 29.1868C62.7985 28.6984 62.3365 28.3584 61.8376 28.3584C61.7719 28.3584 61.7052 28.3644 61.639 28.3763Z" fill="white"/>
</mask>
<g mask="url(#mask30)">
<path fill-rule="evenodd" clip-rule="evenodd" d="M61.3039 28.6208C61.1923 28.6412 61.1231 28.7458 61.1505 28.8543C61.1774 28.9629 61.2899 29.0341 61.4014 29.0131C61.5135 28.9927 61.5822 28.8882 61.5553 28.7796C61.5284 28.6711 61.4154 28.5999 61.3039 28.6208Z" fill="white"/>
</g>
<mask id="mask31" mask-type="alpha" maskUnits="userSpaceOnUse" x="57" y="6" width="40" height="47">
<path d="M59.7547 21.348C54.2738 33.1516 57.5652 46.3288 67.0991 50.7558C76.6345 55.1832 88.8254 49.1945 94.3058 37.3914C99.7857 25.5877 96.4944 12.4105 86.9605 7.98362C84.8291 6.99389 82.5639 6.52491 80.2718 6.52441C72.3096 6.52392 64.0104 12.183 59.7547 21.348Z" fill="white"/>
</mask>
<g mask="url(#mask31)">
<path d="M76.6556 30.057C77.0181 29.3251 76.2947 28.0999 75.2148 28.084" stroke="#A5A5E7" stroke-width="0.497854" stroke-linecap="round" stroke-linejoin="round"/>
</g>
<mask id="mask32" mask-type="alpha" maskUnits="userSpaceOnUse" x="57" y="6" width="40" height="47">
<path d="M59.7547 21.348C54.2738 33.1516 57.5652 46.3288 67.0991 50.7558C76.6345 55.1832 88.8254 49.1945 94.3058 37.3914C99.7857 25.5877 96.4944 12.4105 86.9605 7.98362C84.8291 6.99389 82.5639 6.52491 80.2718 6.52441C72.3096 6.52392 64.0104 12.183 59.7547 21.348Z" fill="white"/>
</mask>
<g mask="url(#mask32)">
<path d="M64.4504 44.3721C64.2627 43.5775 62.5422 43.0284 61.8477 43.8847" stroke="#A5A5E7" stroke-width="0.497854" stroke-linecap="round" stroke-linejoin="round"/>
</g>
<mask id="mask33" mask-type="alpha" maskUnits="userSpaceOnUse" x="57" y="6" width="40" height="47">
<path d="M59.7547 21.348C54.2738 33.1516 57.5652 46.3288 67.0991 50.7558C76.6345 55.1832 88.8254 49.1945 94.3058 37.3914C99.7857 25.5877 96.4944 12.4105 86.9605 7.98362C84.8291 6.99389 82.5639 6.52491 80.2718 6.52441C72.3096 6.52392 64.0104 12.183 59.7547 21.348Z" fill="white"/>
</mask>
<g mask="url(#mask33)">
<path d="M61.6107 25.4884C60.7972 25.1782 59.8343 25.7428 59.4609 26.7495" stroke="#A5A5E7" stroke-width="0.497854" stroke-linecap="round" stroke-linejoin="round"/>
</g>
<path fill-rule="evenodd" clip-rule="evenodd" d="M103.397 43.6182C102.437 44.6777 101.223 45.535 99.7987 46.0841C94.9272 47.965 89.4453 45.537 87.5644 40.665C85.6835 35.793 88.1116 30.3111 92.9836 28.4302C94.4119 27.8791 94.8734 27.9473 96.3003 28.0897C93.9753 30.6561 94.1675 34.1605 95.4982 37.6086C96.8285 41.0523 99.956 43.2747 103.397 43.6182Z" fill="#6969DB"/>
<mask id="mask34" mask-type="alpha" maskUnits="userSpaceOnUse" x="86" y="27" width="18" height="20">
<path d="M92.985 28.4308C88.1135 30.3117 85.6855 35.7936 87.5664 40.6656C89.4468 45.5376 94.9291 47.9656 99.8006 46.0847C101.225 45.5356 102.439 44.6778 103.399 43.6189C99.9575 43.2749 96.8299 41.0529 95.4997 37.6093C94.1694 34.1611 93.9772 30.6572 96.3022 28.0903C95.7416 28.0345 95.3304 27.9902 94.9505 27.9902C94.3636 27.9902 93.8528 28.0963 92.985 28.4308Z" fill="white"/>
</mask>
<g mask="url(#mask34)">
<path fill-rule="evenodd" clip-rule="evenodd" d="M111.078 44.8216C110.119 45.881 108.904 46.7383 107.48 47.2879C102.609 49.1683 97.1269 46.7403 95.2455 41.8683C93.3656 36.9968 95.7937 31.5144 100.665 29.6335C102.094 29.0824 103.575 28.9012 105.001 29.0436C102.676 31.61 101.849 35.3638 103.18 38.8125C104.51 42.2556 107.638 44.4785 111.078 44.8216Z" fill="#8A8AE2"/>
</g>
<path fill-rule="evenodd" clip-rule="evenodd" d="M67.8526 36.7803C67.1512 37.5107 66.0833 37.8482 65.0378 37.5679C63.9913 37.2876 63.2355 36.4617 62.9926 35.4784C62.7491 34.4892 61.7479 33.8843 60.7597 34.1283C59.7705 34.3722 59.1656 35.3729 59.4095 36.3621C59.9631 38.608 61.6917 40.4928 64.0824 41.1331C66.4726 41.7738 68.9116 41.0056 70.5142 39.3373C71.2201 38.603 71.1967 37.434 70.4624 36.7281C69.7275 36.0226 68.5586 36.046 67.8526 36.7803Z" fill="#6969DB"/>
<mask id="mask35" mask-type="alpha" maskUnits="userSpaceOnUse" x="59" y="34" width="13" height="8">
<path d="M60.7594 34.1285C59.7702 34.3724 59.1653 35.3731 59.4097 36.3624C59.9633 38.6082 61.6914 40.4931 64.0821 41.1333C66.4718 41.7735 68.9113 41.0058 70.5138 39.337C71.2198 38.6032 71.1964 37.4342 70.4626 36.7283C69.7272 36.0228 68.5583 36.0462 67.8523 36.7806C67.1508 37.5109 66.0829 37.8485 65.0375 37.5682C63.991 37.2879 63.2352 36.4619 62.9928 35.4782C62.7857 34.6378 62.0309 34.0742 61.202 34.0742C61.0556 34.0742 60.9078 34.0916 60.7594 34.1285Z" fill="white"/>
</mask>
<g mask="url(#mask35)">
<path fill-rule="evenodd" clip-rule="evenodd" d="M64.7324 38.487C67.8211 39.315 69.93 41.4761 69.4387 43.3107C68.9468 45.1453 66.0403 45.9623 62.9511 45.1349C59.8624 44.3069 57.7535 42.1458 58.2449 40.3112C58.7363 38.4771 61.6433 37.6596 64.7324 38.487Z" fill="#C8C8F0"/>
</g>
<mask id="mask36" mask-type="alpha" maskUnits="userSpaceOnUse" x="59" y="34" width="13" height="8">
<path d="M60.7594 34.1285C59.7702 34.3724 59.1653 35.3731 59.4097 36.3624C59.9633 38.6082 61.6914 40.4931 64.0821 41.1333C66.4718 41.7735 68.9113 41.0058 70.5138 39.337C71.2198 38.6032 71.1964 37.4342 70.4626 36.7283C69.7272 36.0228 68.5583 36.0462 67.8523 36.7806C67.1508 37.5109 66.0829 37.8485 65.0375 37.5682C63.991 37.2879 63.2352 36.4619 62.9928 35.4782C62.7857 34.6378 62.0309 34.0742 61.202 34.0742C61.0556 34.0742 60.9078 34.0916 60.7594 34.1285Z" fill="white"/>
</mask>
<g mask="url(#mask36)">
<path fill-rule="evenodd" clip-rule="evenodd" d="M68.0273 35.7836L65.7013 35.1777C65.7013 35.1777 65.4046 36.279 65.1606 37.1846C65.0775 37.4942 65.1203 37.8243 65.2806 38.1021C65.4404 38.3799 65.7048 38.5826 66.0144 38.6657H66.0149C66.6537 38.837 67.3108 38.4581 67.4816 37.8189C67.7266 36.9053 68.0273 35.7836 68.0273 35.7836Z" fill="white"/>
</g>
<mask id="mask37" mask-type="alpha" maskUnits="userSpaceOnUse" x="59" y="34" width="13" height="8">
<path d="M60.7594 34.1285C59.7702 34.3724 59.1653 35.3731 59.4097 36.3624C59.9633 38.6082 61.6914 40.4931 64.0821 41.1333C66.4718 41.7735 68.9113 41.0058 70.5138 39.337C71.2198 38.6032 71.1964 37.4342 70.4626 36.7283C69.7272 36.0228 68.5583 36.0462 67.8523 36.7806C67.1508 37.5109 66.0829 37.8485 65.0375 37.5682C63.991 37.2879 63.2352 36.4619 62.9928 35.4782C62.7857 34.6378 62.0309 34.0742 61.202 34.0742C61.0556 34.0742 60.9078 34.0916 60.7594 34.1285Z" fill="white"/>
</mask>
<g mask="url(#mask37)">
<path fill-rule="evenodd" clip-rule="evenodd" d="M65.6994 35.1596L63.3734 34.5537C63.3734 34.5537 63.0762 35.655 62.8327 36.5606C62.7491 36.8702 62.7924 37.2003 62.9517 37.4781C63.1125 37.7559 63.3764 37.9585 63.6866 38.0417C64.3253 38.2129 64.982 37.8341 65.1532 37.1948C65.3987 36.2813 65.6994 35.1596 65.6994 35.1596Z" fill="white"/>
</g>
<mask id="mask38" mask-type="alpha" maskUnits="userSpaceOnUse" x="59" y="34" width="13" height="8">
<path d="M60.7594 34.1285C59.7702 34.3724 59.1653 35.3731 59.4097 36.3624C59.9633 38.6082 61.6914 40.4931 64.0821 41.1333C66.4718 41.7735 68.9113 41.0058 70.5138 39.337C71.2198 38.6032 71.1964 37.4342 70.4626 36.7283C69.7272 36.0228 68.5583 36.0462 67.8523 36.7806C67.1508 37.5109 66.0829 37.8485 65.0375 37.5682C63.991 37.2879 63.2352 36.4619 62.9928 35.4782C62.7857 34.6378 62.0309 34.0742 61.202 34.0742C61.0556 34.0742 60.9078 34.0916 60.7594 34.1285Z" fill="white"/>
</mask>
<g mask="url(#mask38)">
<path fill-rule="evenodd" clip-rule="evenodd" d="M63.7189 33.2426L61.3929 32.6367C61.3929 32.6367 61.0962 33.738 60.8523 34.6436C60.7686 34.9532 60.8119 35.2833 60.9717 35.5611C61.1325 35.8389 61.3959 36.0415 61.7061 36.1247C62.3448 36.2959 63.002 35.9171 63.1733 35.2778C63.4182 34.3643 63.7189 33.2426 63.7189 33.2426Z" fill="white"/>
</g>
<mask id="mask39" mask-type="alpha" maskUnits="userSpaceOnUse" x="59" y="34" width="13" height="8">
<path d="M60.7594 34.1285C59.7702 34.3724 59.1653 35.3731 59.4097 36.3624C59.9633 38.6082 61.6914 40.4931 64.0821 41.1333C66.4718 41.7735 68.9113 41.0058 70.5138 39.337C71.2198 38.6032 71.1964 37.4342 70.4626 36.7283C69.7272 36.0228 68.5583 36.0462 67.8523 36.7806C67.1508 37.5109 66.0829 37.8485 65.0375 37.5682C63.991 37.2879 63.2352 36.4619 62.9928 35.4782C62.7857 34.6378 62.0309 34.0742 61.202 34.0742C61.0556 34.0742 60.9078 34.0916 60.7594 34.1285Z" fill="white"/>
</mask>
<g mask="url(#mask39)">
<path fill-rule="evenodd" clip-rule="evenodd" d="M70.705 35.1142L68.379 34.5088C68.379 34.5088 68.0823 35.61 67.8383 36.5156C67.7552 36.8248 67.798 37.1554 67.9583 37.4332C68.1186 37.711 68.3825 37.9136 68.6922 37.9968H68.6927C69.3314 38.168 69.9886 37.7887 70.1593 37.1499C70.4043 36.2363 70.705 35.1142 70.705 35.1142Z" fill="white"/>
</g>
<path fill-rule="evenodd" clip-rule="evenodd" d="M84.1172 39.9788C84.389 40.152 84.6763 40.3074 84.978 40.4418C88.0731 41.8203 91.5721 40.5334 92.7863 37.5707C94.0006 34.6074 92.4737 31.0831 89.3785 29.7046C89.0763 29.5701 88.7701 29.4611 88.4625 29.376L84.1172 39.9788Z" fill="#D7D7F3"/>
<mask id="mask40" mask-type="alpha" maskUnits="userSpaceOnUse" x="84" y="29" width="10" height="12">
<path d="M84.1172 39.9788C84.3885 40.152 84.6758 40.3074 84.9775 40.4418C88.0731 41.8203 91.5716 40.5334 92.7858 37.5702C94.0001 34.6074 92.4737 31.0831 89.378 29.7046C89.0758 29.5701 88.7696 29.4606 88.462 29.376" fill="white"/>
</mask>
<g mask="url(#mask40)">
<path fill-rule="evenodd" clip-rule="evenodd" d="M88.371 32.1639C86.6937 31.4171 84.7979 32.1146 84.1402 33.7202C83.482 35.3257 84.3095 37.2355 85.9867 37.9828C87.6635 38.7296 89.5598 38.0321 90.2175 36.4265C90.8757 34.8209 90.0482 32.9106 88.371 32.1639Z" fill="#BCBCEE"/>
</g>
<path fill-rule="evenodd" clip-rule="evenodd" d="M92.3651 28.5703C92.3651 28.5703 105.351 33.6051 110.232 35.498C110.716 35.6856 111.106 36.058 111.315 36.533C111.525 37.0079 111.537 37.5466 111.35 38.031V38.0315C111.162 38.5154 110.79 38.9053 110.315 39.1149C109.839 39.3245 109.301 39.3369 108.816 39.1492C103.935 37.2564 90.9492 32.2221 90.9492 32.2221L92.3651 28.5703Z" fill="#E1E1F6"/>
<mask id="mask41" mask-type="alpha" maskUnits="userSpaceOnUse" x="90" y="28" width="22" height="12">
<path d="M90.9492 32.2221C90.9492 32.2221 103.934 37.2564 108.816 39.1492C109.3 39.3364 109.839 39.3245 110.315 39.1149C110.79 38.9053 111.162 38.5154 111.35 38.0315V38.031C111.537 37.5466 111.525 37.0079 111.315 36.533C111.105 36.058 110.716 35.6856 110.232 35.498C105.351 33.6051 92.3651 28.5703 92.3651 28.5703L90.9492 32.2221Z" fill="white"/>
</mask>
<g mask="url(#mask41)">
<path fill-rule="evenodd" clip-rule="evenodd" d="M93.5272 27.4082C93.5272 27.4082 106.512 32.443 111.394 34.3353C111.878 34.523 112.268 34.8954 112.477 35.3704C112.687 35.8458 112.7 36.3845 112.512 36.8684C112.512 36.8689 112.511 36.8689 112.511 36.8689C112.324 37.3533 111.951 37.7432 111.476 37.9528C111.001 38.1623 110.462 38.1743 109.978 37.9866C105.096 36.0943 92.1113 31.0595 92.1113 31.0595L93.5272 27.4082Z" fill="#EDEDFA"/>
</g>
<path fill-rule="evenodd" clip-rule="evenodd" d="M95.6359 34.0469C96.0685 33.2772 96.4514 32.4692 96.7805 31.6238C100.566 21.8973 95.7424 10.9275 86.0159 7.14186C76.2893 3.35668 67.4285 8.2003 61.8834 17.0427C61.4373 17.7541 60.8001 18.9764 60.2285 20.2668L95.6359 34.0469ZM76.1738 23.2634C76.3152 23.012 76.4401 22.7476 76.5482 22.4708C77.7858 19.29 76.2091 15.702 73.0273 14.4638C69.8461 13.2261 66.258 14.8033 65.0204 17.9846C64.9128 18.2609 64.8262 18.5407 64.7605 18.8215L76.1738 23.2634Z" fill="#E1E1F6"/>
<mask id="mask42" mask-type="alpha" maskUnits="userSpaceOnUse" x="60" y="5" width="39" height="30">
<path d="M61.8853 17.043C61.4388 17.7544 60.802 18.9762 60.2305 20.2671L95.6378 34.0472C96.0705 33.2775 96.4533 32.4695 96.7824 31.6241C100.568 21.8971 95.7444 10.9279 86.0178 7.14217C83.7416 6.25599 81.5122 5.84277 79.3625 5.84277C72.3248 5.84277 66.133 10.2697 61.8853 17.043ZM64.7624 18.8218C64.8282 18.541 64.9148 18.2612 65.0218 17.9849C66.26 14.8036 69.848 13.2264 73.0288 14.4636C76.2106 15.7023 77.7878 19.2903 76.5501 22.4711C76.4426 22.7479 76.3171 23.0123 76.1757 23.2637L64.7624 18.8218Z" fill="white"/>
</mask>
<g mask="url(#mask42)">
<path fill-rule="evenodd" clip-rule="evenodd" d="M55.6052 16.751L97.891 33.3181L96.5064 36.8523L54.2207 20.2852L55.6052 16.751Z" fill="#E1E1F6"/>
</g>
<mask id="mask43" mask-type="alpha" maskUnits="userSpaceOnUse" x="60" y="5" width="39" height="30">
<path d="M61.8853 17.043C61.4388 17.7544 60.802 18.9762 60.2305 20.2671L95.6378 34.0472C96.0705 33.2775 96.4533 32.4695 96.7824 31.6241C100.568 21.8971 95.7444 10.9279 86.0178 7.14217C83.7416 6.25599 81.5122 5.84277 79.3625 5.84277C72.3248 5.84277 66.133 10.2697 61.8853 17.043ZM64.7624 18.8218C64.8282 18.541 64.9148 18.2612 65.0218 17.9849C66.26 14.8036 69.848 13.2264 73.0288 14.4636C76.2106 15.7023 77.7878 19.2903 76.5501 22.4711C76.4426 22.7479 76.3171 23.0123 76.1757 23.2637" fill="white"/>
</mask>
<g mask="url(#mask43)">
<path fill-rule="evenodd" clip-rule="evenodd" d="M55.4824 17.0015L91.2637 30.7602C91.2637 30.7602 97.919 13.9223 80.4991 7.14251C65.7885 1.41769 55.4824 17.0015 55.4824 17.0015Z" fill="#EDEDFA"/>
</g>
<mask id="mask44" mask-type="alpha" maskUnits="userSpaceOnUse" x="60" y="6" width="33" height="25">
<path d="M61.8846 17.0429C61.5834 17.5233 61.1951 18.2357 60.7988 19.0453L91.264 30.7598C91.264 30.7598 97.9193 13.9213 80.4994 7.14206C79.1537 6.61832 77.8429 6.27231 76.5753 6.07715C70.6967 7.07385 65.5618 11.1787 61.8846 17.0429ZM64.7617 18.8217C64.8275 18.5409 64.9141 18.2611 65.0211 17.9848C66.2593 14.8035 69.8473 13.2263 73.0281 14.4635C76.2099 15.7022 77.7871 19.2902 76.5494 22.471C76.4419 22.7478 76.3164 23.0122 76.1751 23.2636L64.7617 18.8217Z" fill="white"/>
</mask>
<g mask="url(#mask44)">
<path fill-rule="evenodd" clip-rule="evenodd" d="M50.0877 16.751L92.3734 33.3181L90.9889 36.8523L48.7031 20.2852L50.0877 16.751Z" fill="#E1E1F6"/>
</g>
<path fill-rule="evenodd" clip-rule="evenodd" d="M71.1965 14.016C69.9055 13.7979 68.64 13.307 67.4855 12.5274C64.4267 10.4613 62.9605 6.91459 63.3961 3.48438C62.1485 4.18237 61.0413 5.17459 60.1869 6.43914C57.264 10.7665 58.4036 16.6531 62.731 19.5765C67.0578 22.4994 72.9449 21.3598 75.8683 17.0325C75.9067 16.9752 75.9445 16.918 75.9814 16.8607C75.2869 15.8053 74.2692 14.947 73.0027 14.4541C72.48 14.2505 71.9463 14.1215 71.4135 14.0623C71.3334 14.0533 71.2617 14.0379 71.1965 14.016Z" fill="#6969DB"/>
<mask id="mask45" mask-type="alpha" maskUnits="userSpaceOnUse" x="58" y="3" width="18" height="19">
<path d="M60.1869 6.43914C57.264 10.7665 58.4036 16.6531 62.7314 19.576C67.0583 22.4994 72.9449 21.3593 75.8683 17.0325C75.9067 16.9752 75.945 16.918 75.9813 16.8607C75.2868 15.8053 74.2692 14.947 73.0027 14.4541C72.4799 14.2505 71.9462 14.1215 71.4135 14.0623C71.3339 14.0533 71.2617 14.0379 71.1965 14.0155C69.9055 13.7979 68.6405 13.307 67.4855 12.5274C64.4266 10.4613 62.9605 6.91409 63.3961 3.48438C62.149 4.18237 61.0412 5.17459 60.1869 6.43914Z" fill="white"/>
</mask>
<g mask="url(#mask45)">
<path fill-rule="evenodd" clip-rule="evenodd" d="M66.4915 0.680664C65.2439 1.37915 64.1372 2.37138 63.2829 3.63593C60.3595 7.96327 61.4995 13.8499 65.8269 16.7733C70.1537 19.6962 76.0404 18.5566 78.9638 14.2293C79.8211 12.9602 80.3289 11.5573 80.5091 10.1349C77.4876 11.8266 73.6437 11.7933 70.5809 9.72418C67.5221 7.65759 66.0559 4.11138 66.4915 0.680664Z" fill="#7A7ADF"/>
</g>
<path fill-rule="evenodd" clip-rule="evenodd" d="M100.689 62.8585C101.902 64.1495 102.536 65.8805 102.442 67.6504C102.349 69.4208 101.537 71.0751 100.194 72.2316C91.4464 79.7652 74.6055 94.2672 74.6055 94.2672C73.3195 95.3749 71.6467 95.9265 69.954 95.8001C68.2608 95.6741 66.6881 94.8805 65.5799 93.5946V93.5941C64.4726 92.3081 63.921 90.6348 64.047 88.9421C64.1734 87.2494 64.967 85.6762 66.2534 84.5685C66.2534 84.5685 83.5345 69.6891 91.9995 62.4C94.5515 60.2025 98.381 60.4041 100.689 62.858V62.8585Z" fill="#E9E9FA"/>
<mask id="mask46" mask-type="alpha" maskUnits="userSpaceOnUse" x="64" y="60" width="39" height="36">
<path d="M92.0009 62.4009C83.5359 69.6895 66.2549 84.5693 66.2549 84.5693C64.9684 85.6771 64.1749 87.2503 64.0489 88.9425C63.923 90.6352 64.4746 92.309 65.5813 93.5949V93.5954C66.6895 94.8814 68.2622 95.675 69.9555 95.8009C71.6482 95.9269 73.3214 95.3762 74.6074 94.268C74.6074 94.268 91.4478 79.7655 100.196 72.2325C101.539 71.076 102.351 69.4211 102.444 67.6513C102.538 65.8814 101.904 64.1498 100.69 62.8594V62.8589C99.4548 61.5451 97.783 60.8765 96.1042 60.877C94.648 60.877 93.1868 61.3798 92.0009 62.4009Z" fill="white"/>
</mask>
<g mask="url(#mask46)">
<path fill-rule="evenodd" clip-rule="evenodd" d="M97.7213 59.0419C98.9351 60.3333 99.5694 62.0644 99.4753 63.8343C99.3827 65.6041 98.5697 67.259 97.2275 68.4155C88.4797 75.949 71.6388 90.451 71.6388 90.451C70.3528 91.5583 68.6795 92.1099 66.9873 91.9839C65.2941 91.8575 63.7209 91.0639 62.6132 89.7779C61.5059 88.4915 60.9538 86.8182 61.0803 85.126C61.2062 83.4333 62.0003 81.8601 63.2863 80.7523C63.2863 80.7523 80.5678 65.8725 89.0323 58.5834C91.5848 56.3859 95.4143 56.588 97.7213 59.0419Z" fill="#F2F2FC"/>
</g>
<mask id="mask47" mask-type="alpha" maskUnits="userSpaceOnUse" x="64" y="60" width="39" height="36">
<path d="M92.0009 62.4009C83.5359 69.6895 66.2549 84.5693 66.2549 84.5693C64.9684 85.6771 64.1749 87.2503 64.0489 88.9425C63.923 90.6352 64.4746 92.309 65.5813 93.5949V93.5954C66.6895 94.8814 68.2622 95.675 69.9555 95.8009C71.6482 95.9269 73.3214 95.3762 74.6074 94.268C74.6074 94.268 91.4478 79.7655 100.196 72.2325C101.539 71.076 102.351 69.4211 102.444 67.6513C102.538 65.8814 101.904 64.1498 100.69 62.8594V62.8589C99.4548 61.5451 97.783 60.8765 96.1042 60.877C94.648 60.877 93.1868 61.3798 92.0009 62.4009Z" fill="white"/>
</mask>
<g mask="url(#mask47)">
<path fill-rule="evenodd" clip-rule="evenodd" d="M126.013 72.4661L103.077 44.0332L74.2422 67.2944L97.1778 95.7274L126.013 72.4661Z" fill="#6F6FDC"/>
</g>
<mask id="mask48" mask-type="alpha" maskUnits="userSpaceOnUse" x="79" y="60" width="24" height="24">
<path d="M96.104 60.877C94.6478 60.877 93.1866 61.3798 92.0007 62.4009C88.5924 65.3357 83.7552 69.5008 79.1914 73.4303L87.2313 83.3964C91.7752 79.4838 96.6502 75.2853 100.195 72.2325C101.539 71.076 102.351 69.4211 102.444 67.6513C102.538 65.8814 101.904 64.1498 100.69 62.8594V62.8589C99.4551 61.5456 97.7838 60.877 96.106 60.877C96.1055 60.877 96.105 60.877 96.104 60.877Z" fill="white"/>
</mask>
<g mask="url(#mask48)">
<path fill-rule="evenodd" clip-rule="evenodd" d="M94.2895 71.4738C96.5084 69.6836 97.9253 67.0858 98.229 64.2505C98.5322 61.4162 97.6968 58.5769 95.907 56.3575C89.1407 47.9702 79.7203 36.292 79.7203 36.292L60.5703 51.7399L83.506 80.1729C83.506 80.1729 89.1347 75.6319 94.2895 71.4738Z" fill="#9F9FE9"/>
</g>
<path fill-rule="evenodd" clip-rule="evenodd" d="M41.7598 50.8797L47.6763 60.6571L53.1596 57.3394L47.2426 47.5615L41.7598 50.8797Z" fill="#DBDBF3"/>
<mask id="mask49" mask-type="alpha" maskUnits="userSpaceOnUse" x="41" y="47" width="13" height="14">
<path d="M41.7598 50.8797L47.6763 60.6571L53.1596 57.3394L47.2426 47.5615" fill="white"/>
</mask>
<g mask="url(#mask49)">
<path fill-rule="evenodd" clip-rule="evenodd" d="M47.6831 49.5729C48.2063 51.0964 47.93 52.8443 46.8372 54.0322C45.3222 55.6791 42.8081 55.6288 41.2269 53.9197C40.1645 52.7717 40.3855 51.3956 40.9526 51.6664C43.177 52.7288 42.5273 50.6852 44.0423 49.0378C44.5401 48.4971 47.5223 50.2719 47.6831 49.5729Z" fill="#C6C6F0"/>
</g>
<path fill-rule="evenodd" clip-rule="evenodd" d="M33.1291 44.8354C33.167 45.4139 33.6673 45.8525 34.2458 45.8147C34.9906 45.7659 36.0112 45.6992 36.8949 45.6409C37.3166 45.6135 37.6959 45.378 37.908 45.0131C38.1201 44.6482 38.1365 44.2021 37.9518 43.8223C37.8493 43.6127 37.6297 43.4867 37.3967 43.5046C36.6738 43.5614 35.0927 43.6853 34.0536 43.767C33.505 43.8098 33.0933 44.2858 33.1291 44.8349V44.8354Z" fill="#CDCDEE"/>
<mask id="mask50" mask-type="alpha" maskUnits="userSpaceOnUse" x="33" y="43" width="6" height="3">
<path d="M37.3968 43.5044C36.6734 43.5612 35.0927 43.6851 34.0537 43.7668C33.5051 43.8096 33.0928 44.2856 33.1292 44.8347V44.8352C33.167 45.4137 33.6669 45.8523 34.2459 45.8145C34.9907 45.7652 36.0113 45.699 36.8954 45.6407C37.3166 45.6133 37.696 45.3778 37.9081 45.0129C38.1197 44.648 38.1366 44.2019 37.9514 43.8221C37.8563 43.6259 37.6572 43.5029 37.4406 43.5029C37.4262 43.5029 37.4112 43.5034 37.3968 43.5044Z" fill="white"/>
</mask>
<g mask="url(#mask50)">
<path fill-rule="evenodd" clip-rule="evenodd" d="M33.0628 44.0569C33.0996 44.6199 33.586 45.0461 34.1486 45.0093C35.1543 44.9435 36.6832 44.8435 37.6893 44.7773C38.2519 44.7404 38.6786 44.2545 38.6417 43.6914V43.6909C38.6049 43.1284 38.1185 42.7017 37.5554 42.7385C36.5497 42.8048 35.0208 42.9048 34.0152 42.9705C33.4521 43.0074 33.0259 43.4938 33.0628 44.0564V44.0569Z" fill="#DBDBF3"/>
</g>
<path fill-rule="evenodd" clip-rule="evenodd" d="M40.2363 39.5622C39.857 39.6632 39.5518 39.944 39.4189 40.3129C39.2854 40.6823 39.3417 41.0931 39.5692 41.4132C41.01 43.4405 43.564 47.035 44.1599 47.8738C44.2406 47.9879 44.3651 48.0635 44.5035 48.0834H44.5044C45.1158 48.1721 45.7182 47.8733 46.0184 47.3332C46.3181 46.793 46.2534 46.1239 45.8551 45.6514C44.0026 43.4519 41.6776 40.6928 40.9015 39.7713C40.7392 39.5786 40.4798 39.497 40.2363 39.5622Z" fill="#CDCDEE"/>
<mask id="mask51" mask-type="alpha" maskUnits="userSpaceOnUse" x="39" y="39" width="8" height="10">
<path d="M40.2386 39.5624H40.2381C39.8587 39.6635 39.5535 39.9443 39.4206 40.3132C39.2877 40.6826 39.3434 41.0933 39.571 41.4135C41.0117 43.4402 43.5657 47.0352 44.1617 47.8741C44.2428 47.9881 44.3668 48.0638 44.5052 48.0837H44.5062C45.1175 48.1718 45.7199 47.8736 46.0202 47.3334C46.3199 46.7933 46.2551 46.1242 45.8574 45.6517C44.0043 43.4522 41.6794 40.6931 40.9032 39.771C40.7778 39.6227 40.595 39.54 40.4064 39.54C40.3501 39.54 40.2938 39.5475 40.2386 39.5624Z" fill="white"/>
</mask>
<g mask="url(#mask51)">
<path fill-rule="evenodd" clip-rule="evenodd" d="M40.476 39.1368C40.1643 39.331 39.9468 39.6456 39.8751 40.0056C39.8034 40.366 39.8846 40.7399 40.0986 41.0386C41.4194 42.8822 43.9197 46.3726 44.5241 47.216C44.6092 47.3345 44.7421 47.4092 44.8875 47.4201H44.888C45.5377 47.4699 46.1525 47.1214 46.4443 46.5384C46.736 45.9554 46.6464 45.2544 46.2173 44.7641C44.4628 42.7577 42.3061 40.2918 41.4184 39.2767C41.1815 39.0054 40.7822 38.9461 40.476 39.1363C40.476 39.1368 40.476 39.1368 40.476 39.1368Z" fill="#DBDBF3"/>
</g>
<path fill-rule="evenodd" clip-rule="evenodd" d="M40.2027 37.8995C39.6396 37.9298 39.2075 38.4108 39.2378 38.9743C39.2682 39.5314 39.305 40.22 39.3349 40.7776C39.3653 41.3406 39.8467 41.7728 40.4103 41.7424C40.9734 41.712 41.4055 41.2306 41.3751 40.6675C41.3453 40.1099 41.3079 39.4214 41.278 38.8643C41.2477 38.3007 40.7662 37.8686 40.2032 37.899C40.2027 37.899 40.2027 37.8995 40.2027 37.8995Z" fill="#CDCDEE"/>
<mask id="mask52" mask-type="alpha" maskUnits="userSpaceOnUse" x="39" y="37" width="3" height="5">
<path d="M40.2027 37.899C40.2027 37.899 40.2027 37.8995 40.2022 37.8995C39.6391 37.9298 39.2075 38.4107 39.2378 38.9743C39.2677 39.5314 39.305 40.22 39.3349 40.7775C39.3653 41.3406 39.8467 41.7728 40.4098 41.7419H40.4103C40.9734 41.712 41.4055 41.2306 41.3751 40.6675C41.3448 40.1099 41.3079 39.4214 41.2775 38.8643C41.2487 38.3196 40.7976 37.8975 40.2589 37.8975C40.24 37.8975 40.2216 37.898 40.2027 37.899Z" fill="white"/>
</mask>
<g mask="url(#mask52)">
<path fill-rule="evenodd" clip-rule="evenodd" d="M41.1636 37.8492C40.6005 37.8795 40.1684 38.3605 40.1988 38.924C40.2336 39.5747 40.2794 40.4156 40.3143 41.0668C40.3446 41.6299 40.8261 42.062 41.3891 42.0316H41.3896C41.9527 42.0013 42.3849 41.5198 42.3545 40.9568C42.3191 40.3056 42.2738 39.4647 42.239 38.814C42.2086 38.2504 41.7272 37.8188 41.1636 37.8492Z" fill="#DBDBF3"/>
</g>
<mask id="mask53" mask-type="alpha" maskUnits="userSpaceOnUse" x="39" y="37" width="3" height="5">
<path d="M40.2027 37.899C40.2027 37.899 40.2027 37.8995 40.2022 37.8995C39.6391 37.9298 39.2075 38.4107 39.2378 38.9743C39.2677 39.5314 39.305 40.22 39.3349 40.7775C39.3653 41.3406 39.8467 41.7728 40.4098 41.7419H40.4103C40.9734 41.712 41.4055 41.2306 41.3751 40.6675C41.3448 40.1099 41.3079 39.4214 41.2775 38.8643C41.2487 38.3196 40.7976 37.8975 40.2589 37.8975C40.24 37.8975 40.2216 37.898 40.2027 37.899Z" fill="white"/>
</mask>
<g mask="url(#mask53)">
<path fill-rule="evenodd" clip-rule="evenodd" d="M41.9413 39.1245C41.9154 38.7506 41.5948 38.4633 41.2185 38.4813C40.8421 38.4987 40.5498 38.8143 40.5588 39.1892L41.9413 39.1245Z" fill="#CDCDEE"/>
</g>
<path fill-rule="evenodd" clip-rule="evenodd" d="M32.5222 46.9298C32.5436 47.4934 33.0181 47.933 33.5817 47.9116C34.9781 47.8583 37.4694 47.7632 38.8659 47.71C39.4295 47.6885 39.8691 47.2141 39.8477 46.6505C39.8258 46.0865 39.3518 45.6468 38.7877 45.6688C37.3917 45.7215 34.9005 45.8166 33.504 45.8699C32.9404 45.8913 32.5008 46.3657 32.5222 46.9293V46.9298Z" fill="#CDCDEE"/>
<mask id="mask54" mask-type="alpha" maskUnits="userSpaceOnUse" x="32" y="45" width="8" height="3">
<path d="M38.7882 45.6685C37.3922 45.7212 34.901 45.8163 33.504 45.8691C32.9404 45.891 32.5008 46.3655 32.5222 46.929V46.9295C32.5441 47.4931 33.0186 47.9327 33.5817 47.9113C34.9781 47.858 37.4694 47.7629 38.8664 47.7097C39.43 47.6883 39.8696 47.2138 39.8482 46.6502C39.8267 46.0996 39.3742 45.668 38.8286 45.668C38.8151 45.668 38.8017 45.668 38.7882 45.6685Z" fill="white"/>
</mask>
<g mask="url(#mask54)">
<path fill-rule="evenodd" clip-rule="evenodd" d="M32.3757 46.1788C32.3972 46.7424 32.8716 47.182 33.4352 47.1606C34.8317 47.1073 37.3229 47.0127 38.7194 46.9594C39.283 46.938 39.7226 46.4636 39.7012 45.9V45.8995C39.6793 45.3359 39.2053 44.8963 38.6412 44.9177C37.2453 44.971 34.754 45.0656 33.3575 45.1189C32.7939 45.1403 32.3543 45.6147 32.3757 46.1783V46.1788Z" fill="#DBDBF3"/>
</g>
<path fill-rule="evenodd" clip-rule="evenodd" d="M32.5415 48.7838C32.4897 49.3459 32.9024 49.8433 33.4645 49.8951C34.6514 50.0051 36.6025 50.1858 37.7899 50.2958C38.3515 50.3481 38.8488 49.9349 38.9006 49.3733V49.3728C38.9529 48.8112 38.5396 48.3134 37.9781 48.2616C36.7912 48.1516 34.8396 47.9709 33.6527 47.8608C33.0911 47.809 32.5933 48.2223 32.5415 48.7838Z" fill="#CDCDEE"/>
<mask id="mask55" mask-type="alpha" maskUnits="userSpaceOnUse" x="32" y="47" width="7" height="4">
<path d="M32.5435 48.7849C32.4912 49.347 32.9045 49.8439 33.4665 49.8961C34.6534 50.0062 36.6045 50.1869 37.7919 50.2969C38.3535 50.3492 38.8508 49.936 38.9031 49.3744V49.3734C38.9549 48.8123 38.5417 48.3145 37.9796 48.2627C36.7927 48.1526 34.8416 47.9719 33.6547 47.8619C33.6229 47.8589 33.591 47.8574 33.5591 47.8574C33.0374 47.8574 32.5923 48.2552 32.5435 48.7849Z" fill="white"/>
</mask>
<g mask="url(#mask55)">
<path fill-rule="evenodd" clip-rule="evenodd" d="M32.7817 48.0662C32.73 48.6277 33.1427 49.1256 33.7047 49.1774C34.8916 49.2874 36.8427 49.4681 38.0301 49.5781C38.5917 49.6299 39.089 49.2172 39.1408 48.6551H39.1413C39.1931 48.093 38.7799 47.5957 38.2183 47.5439C37.0314 47.4339 35.0798 47.2532 33.8929 47.1431C33.3314 47.0909 32.8335 47.5041 32.7817 48.0657V48.0662Z" fill="#DBDBF3"/>
</g>
<path fill-rule="evenodd" clip-rule="evenodd" d="M32.7825 50.8859C32.7267 51.4425 33.1334 51.9393 33.69 51.9946C34.7042 52.0961 36.259 52.2515 37.2736 52.3525C37.8302 52.4083 38.3271 52.0016 38.3823 51.4449V51.4445C38.4381 50.8874 38.0313 50.391 37.4747 50.3352C36.4606 50.2342 34.9058 50.0788 33.8917 49.9778C33.3346 49.922 32.8382 50.3283 32.7825 50.8854V50.8859Z" fill="#CDCDEE"/>
<mask id="mask56" mask-type="alpha" maskUnits="userSpaceOnUse" x="32" y="49" width="7" height="4">
<path d="M32.7843 50.8857V50.8862C32.7291 51.4428 33.1353 51.9402 33.6924 51.9949C34.706 52.097 36.2613 52.2518 37.2755 52.3524C37.8326 52.4087 38.3289 52.0019 38.3842 51.4453V51.4448C38.44 50.8872 38.0337 50.3914 37.4766 50.3356C36.4625 50.2345 34.9077 50.0792 33.8935 49.9776C33.8592 49.9746 33.8253 49.9727 33.7915 49.9727C33.2772 49.9727 32.8366 50.363 32.7843 50.8857Z" fill="white"/>
</mask>
<g mask="url(#mask56)">
<path fill-rule="evenodd" clip-rule="evenodd" d="M33.0657 50.1544C33.0099 50.7115 33.4166 51.2079 33.9732 51.2636C34.9874 51.3647 36.5422 51.52 37.5568 51.6216C38.1134 51.6768 38.6103 51.2706 38.6655 50.7135V50.713C38.7213 50.1564 38.3145 49.6595 37.7579 49.6043C36.7438 49.5027 35.189 49.3474 34.1749 49.2463C33.6178 49.1906 33.1209 49.5973 33.0657 50.1539V50.1544Z" fill="#DBDBF3"/>
</g>
<path fill-rule="evenodd" clip-rule="evenodd" d="M48.1237 50.369C48.1774 50.8768 48.0136 51.3837 47.6721 51.763C47.3306 52.1429 46.8437 52.3595 46.3329 52.3595C43.8954 52.3585 39.8095 52.3565 37.4143 52.3555C36.9115 52.3555 36.4301 52.1523 36.0786 51.7929C35.7276 51.4329 35.5359 50.947 35.5474 50.4442C35.5822 48.9287 35.631 46.8238 35.6654 45.3253C35.6888 44.3017 36.5321 43.4877 37.5557 43.5001C38.4135 43.5101 39.4914 43.523 40.6165 43.537C44.4883 43.5833 47.7134 46.5181 48.1237 50.3685V50.369Z" fill="#DBDBF3"/>
<mask id="mask57" mask-type="alpha" maskUnits="userSpaceOnUse" x="35" y="43" width="14" height="10">
<path d="M35.6658 45.3251C35.6315 46.8232 35.5822 48.9281 35.5474 50.4436C35.5359 50.9469 35.7276 51.4328 36.0791 51.7923C36.4301 52.1522 36.912 52.3553 37.4143 52.3553C39.81 52.3563 43.8959 52.3583 46.3334 52.3593C46.8437 52.3593 47.3306 52.1427 47.6721 51.7629C48.0136 51.3835 48.1774 50.8767 48.1237 50.3689V50.3684C47.7134 46.518 44.4888 43.5826 40.617 43.5368C39.4914 43.5229 38.4135 43.51 37.5557 43.5C37.5477 43.5 37.5403 43.5 37.5323 43.5C36.5197 43.5 35.6888 44.3095 35.6658 45.3251Z" fill="white"/>
</mask>
<g mask="url(#mask57)">
<path fill-rule="evenodd" clip-rule="evenodd" d="M47.6486 52.5246L35.5368 51.4248L35.377 53.1857L47.4887 54.2855L47.6486 52.5246Z" fill="#CDCDEE"/>
</g>
<path fill-rule="evenodd" clip-rule="evenodd" d="M53.2578 53.1685C52.3154 51.7795 50.4305 51.4071 49.0305 52.3331C47.3702 53.4309 45.2045 54.8637 43.5322 55.9694C42.8492 56.4215 42.3752 57.1279 42.2164 57.9315C42.0576 58.735 42.2269 59.5689 42.6869 60.247C47.1297 66.7953 58.9553 84.2256 64.9001 92.9879C66.8487 95.8595 70.7439 96.6297 73.6385 94.7149H73.639C75.0618 93.774 76.0491 92.3018 76.3801 90.6276C76.7107 88.9538 76.3577 87.2168 75.4004 85.8048C69.4012 76.9629 57.6414 59.6302 53.2578 53.1685Z" fill="#E9E9FA"/>
<mask id="mask58" mask-type="alpha" maskUnits="userSpaceOnUse" x="42" y="51" width="35" height="45">
<path d="M49.0307 52.333C47.3703 53.4308 45.2047 54.8636 43.5324 55.9694C42.8493 56.4214 42.3754 57.1279 42.2165 57.9309C42.0572 58.7349 42.2275 59.5688 42.687 60.2469C47.1299 66.7952 58.9554 84.2256 64.8998 92.9878C66.8489 95.8594 70.7441 96.6296 73.6381 94.7148H73.6386C75.062 93.7734 76.0492 92.3017 76.3803 90.6275C76.7114 88.9537 76.3579 87.2162 75.4 85.8047C69.4014 76.9629 57.6416 59.6296 53.2579 53.1684C52.6655 52.2957 51.7012 51.8242 50.7184 51.8242C50.1379 51.8242 49.5509 51.989 49.0307 52.333Z" fill="white"/>
</mask>
<g mask="url(#mask58)">
<path fill-rule="evenodd" clip-rule="evenodd" d="M54.1914 46.0917C53.249 44.7027 51.3641 44.3298 49.9641 45.2558C48.3038 46.3541 46.1381 47.7864 44.4658 48.8926C43.7828 49.3442 43.3088 50.0511 43.15 50.8547C42.9912 51.6582 43.1605 52.4921 43.6205 53.1697C48.0633 59.7185 59.8888 77.1483 65.8337 85.9106C67.7823 88.7822 71.6775 89.5524 74.5721 87.6381C74.5726 87.6381 74.5726 87.6376 74.5726 87.6376C75.9954 86.6967 76.9827 85.225 77.3137 83.5503C77.6443 81.8765 77.2913 80.1399 76.334 78.7275C70.3348 69.8861 58.575 52.5529 54.1914 46.0917Z" fill="#F2F2FC"/>
</g>
<path fill-rule="evenodd" clip-rule="evenodd" d="M12.7324 37.4075L16.3658 49.9928L23.1017 48.0481L19.4684 35.4629L12.7324 37.4075Z" fill="#C6C6F0"/>
<mask id="mask59" mask-type="alpha" maskUnits="userSpaceOnUse" x="12" y="35" width="12" height="15">
<path d="M12.7324 37.4085L16.3658 49.9937L23.1017 48.0491L19.4689 35.4639L12.7324 37.4085Z" fill="white"/>
</mask>
<g mask="url(#mask59)">
<path fill-rule="evenodd" clip-rule="evenodd" d="M14.5352 36.8831L18.1685 49.4683L24.9045 47.5237L21.2711 34.9385L14.5352 36.8831Z" fill="#CBCBEF"/>
</g>
<path fill-rule="evenodd" clip-rule="evenodd" d="M13.9689 22.5376C13.4099 22.6132 13.018 23.1275 13.0932 23.6866C13.2441 24.8048 13.485 26.5946 13.6359 27.7127C13.7111 28.2718 14.2258 28.6636 14.7844 28.5885H14.7849C15.344 28.5133 15.7358 27.999 15.6607 27.4399C15.5098 26.3217 15.2688 24.5315 15.118 23.4133C15.0428 22.8547 14.5285 22.4624 13.9694 22.5376H13.9689Z" fill="#B2B2EB"/>
<path fill-rule="evenodd" clip-rule="evenodd" d="M16.2171 22.0249C15.658 22.1005 15.2657 22.6148 15.3414 23.1739C15.4917 24.2921 15.7332 26.0819 15.884 27.2C15.9592 27.7591 16.4735 28.1509 17.0326 28.0758H17.0331C17.5922 28.0006 17.984 27.4863 17.9088 26.9272C17.758 25.809 17.5165 24.0188 17.3661 22.9006C17.2905 22.342 16.7767 21.9497 16.2171 22.0249Z" fill="#A5A5E7"/>
<path fill-rule="evenodd" clip-rule="evenodd" d="M18.5159 21.7291C17.9568 21.8042 17.5645 22.3185 17.6402 22.8776C17.7901 23.9878 18.0285 25.7587 18.1784 26.8689C18.2536 27.428 18.7678 27.8203 19.3269 27.7446C19.886 27.6695 20.2783 27.1552 20.2032 26.5961C20.0533 25.4859 19.8143 23.715 19.665 22.6048C19.5898 22.0457 19.0755 21.6534 18.5164 21.7291H18.5159Z" fill="#A5A5E7"/>
<path fill-rule="evenodd" clip-rule="evenodd" d="M12.7701 18.5548C12.2106 18.5484 11.7515 18.9969 11.7451 19.5565C11.7122 22.4281 11.6211 30.4127 11.6211 30.4127L13.6484 30.4361C13.6484 30.4361 13.7395 22.4515 13.7723 19.5799C13.7788 19.0203 13.3302 18.5613 12.7706 18.5548H12.7701Z" fill="#CDCDEE"/>
<mask id="mask60" mask-type="alpha" maskUnits="userSpaceOnUse" x="11" y="18" width="3" height="13">
<path d="M11.7456 19.5573C11.7122 22.429 11.6211 30.4136 11.6211 30.4136L13.6484 30.437C13.6484 30.437 13.739 22.4524 13.7723 19.5807C13.7788 19.0212 13.3302 18.5621 12.7706 18.5557H12.7701C12.7657 18.5557 12.7617 18.5557 12.7577 18.5557C12.2036 18.5557 11.7515 19.0017 11.7456 19.5573Z" fill="white"/>
</mask>
<g mask="url(#mask60)">
<path fill-rule="evenodd" clip-rule="evenodd" d="M11.8777 18.7567C11.3236 18.6765 10.8093 19.0604 10.7292 19.6145C10.3174 22.4562 9.17188 30.3587 9.17188 30.3587L11.1787 30.6499C11.1787 30.6499 12.3238 22.747 12.7355 19.9052C12.8162 19.3511 12.4318 18.8368 11.8777 18.7567Z" fill="#DBDBF3"/>
</g>
<path fill-rule="evenodd" clip-rule="evenodd" d="M25.2065 18.8737C24.6703 18.7134 24.1057 19.0186 23.9454 19.5548C23.1245 22.3069 20.8418 29.959 20.8418 29.959L22.7844 30.5385C22.7844 30.5385 25.0671 22.8864 25.8885 20.1348C26.0484 19.5981 25.7432 19.0336 25.207 18.8737H25.2065Z" fill="#CDCDEE"/>
<mask id="mask61" mask-type="alpha" maskUnits="userSpaceOnUse" x="20" y="18" width="6" height="13">
<path d="M23.9454 19.5549C23.125 22.3071 20.8418 29.9591 20.8418 29.9591L22.7844 30.5386C22.7844 30.5386 25.0671 22.8866 25.8885 20.1349C26.0484 19.5982 25.7432 19.0337 25.207 18.8739H25.2065C25.1099 18.845 25.0118 18.8311 24.9157 18.8311C24.4796 18.8311 24.0769 19.1153 23.9454 19.5549Z" fill="white"/>
</mask>
<g mask="url(#mask61)">
<path fill-rule="evenodd" clip-rule="evenodd" d="M26.5839 18.6861C26.0472 18.5262 25.4832 18.8309 25.3229 19.3676C24.5019 22.1193 22.2188 29.7713 22.2188 29.7713L24.1619 30.3508C24.1619 30.3508 26.4445 22.6988 27.2655 19.9471C27.4258 19.4109 27.1206 18.8464 26.5839 18.6861Z" fill="#DBDBF3"/>
</g>
<path fill-rule="evenodd" clip-rule="evenodd" d="M13.1691 38.442C12.8943 38.0188 12.7165 37.5394 12.6493 37.039C12.3874 35.0974 11.7148 30.1054 11.7148 30.1054L20.1545 26.249L21.4817 36.6557C21.4817 36.6557 21.4519 36.7831 21.3981 37.0111C20.9809 38.7815 19.5481 40.1322 17.7558 40.4433C15.964 40.755 14.1593 39.9674 13.1691 38.442Z" fill="#DBDBF3"/>
<mask id="mask62" mask-type="alpha" maskUnits="userSpaceOnUse" x="11" y="26" width="11" height="15">
<path d="M11.7148 30.1064C11.7148 30.1064 12.3874 35.0984 12.6493 37.04C12.717 37.5398 12.8943 38.0193 13.1696 38.4429C14.1598 39.9679 15.9645 40.756 17.7563 40.4443C19.5481 40.1332 20.9809 38.7825 21.3981 37.0121C21.4519 36.7841 21.4817 36.6566 21.4817 36.6566L20.1545 26.25" fill="white"/>
</mask>
<g mask="url(#mask62)">
<path fill-rule="evenodd" clip-rule="evenodd" d="M12.0977 25.8077C12.5746 27.4576 13.8934 28.6201 15.6503 28.9347C18.0863 29.3718 20.4048 27.8285 20.8235 25.4916C21.1048 23.9213 20.0454 22.9326 19.6835 23.4917C18.2631 25.6862 16.6301 27.1997 14.1941 26.7631C13.3941 26.6197 12.6806 26.2807 12.0977 25.8077Z" fill="#B2B2EB"/>
</g>
<mask id="mask63" mask-type="alpha" maskUnits="userSpaceOnUse" x="11" y="26" width="11" height="15">
<path d="M11.7148 30.1064C11.7148 30.1064 12.3874 35.0984 12.6493 37.04C12.717 37.5398 12.8943 38.0193 13.1696 38.4429C14.1598 39.9679 15.9645 40.756 17.7563 40.4443C19.5481 40.1332 20.9809 38.7825 21.3981 37.0121C21.4519 36.7841 21.4817 36.6566 21.4817 36.6566L20.1545 26.25" fill="white"/>
</mask>
<g mask="url(#mask63)">
<path fill-rule="evenodd" clip-rule="evenodd" d="M20.8897 30.3779C19.0685 30.8972 17.4659 32.5944 16.879 34.8835C16.0655 38.0578 17.5113 41.1749 20.1066 41.84C21.8496 42.2871 23.1091 40.9464 22.5227 40.4435C20.2201 38.4715 21.8192 36.9536 22.6327 33.7793C22.9 32.7373 20.2768 31.1192 20.8897 30.3779Z" fill="#CDCDEE"/>
</g>
<path fill-rule="evenodd" clip-rule="evenodd" d="M17.669 22.3152C17.449 22.835 17.6919 23.4339 18.2112 23.6539C19.1472 24.0497 20.575 24.6541 21.5105 25.0504C22.0302 25.27 22.6292 25.027 22.8492 24.5078V24.5073C23.0693 23.988 22.8263 23.3886 22.307 23.1685C21.3711 22.7727 19.9432 22.1683 19.0078 21.7725C18.4885 21.5525 17.8891 21.7955 17.669 22.3147V22.3152Z" fill="#B2B2EB"/>
<mask id="mask64" mask-type="alpha" maskUnits="userSpaceOnUse" x="17" y="21" width="6" height="5">
<path d="M17.669 22.3142V22.3152C17.449 22.8345 17.6919 23.4339 18.2117 23.6534C19.1472 24.0497 20.5755 24.6541 21.511 25.0504C22.0302 25.27 22.6296 25.027 22.8497 24.5078V24.5073C23.0697 23.988 22.8268 23.3886 22.307 23.1685C21.3711 22.7727 19.9437 22.1684 19.0078 21.7726C18.8778 21.7178 18.7429 21.6914 18.61 21.6914C18.2122 21.6914 17.8343 21.9254 17.669 22.3142Z" fill="white"/>
</mask>
<g mask="url(#mask64)">
<path fill-rule="evenodd" clip-rule="evenodd" d="M16.2042 21.1511C15.9841 21.6709 16.2271 22.2703 16.7464 22.4899C18.0731 23.0514 20.4798 24.0701 21.8065 24.6316C22.3263 24.8512 22.9252 24.6082 23.1453 24.089V24.0885C23.3653 23.5692 23.1224 22.9698 22.6031 22.7497C21.2763 22.1887 18.8697 21.1701 17.5429 20.6085C17.0237 20.3884 16.4242 20.6314 16.2042 21.1511Z" fill="#CBCBEF"/>
</g>
<path fill-rule="evenodd" clip-rule="evenodd" d="M15.4815 22.4162C15.1505 22.8728 15.2525 23.5115 15.7091 23.8426C16.6978 24.56 18.3437 25.7529 19.3329 26.4703C19.7895 26.8013 20.4282 26.6993 20.7593 26.2427V26.2422C21.0909 25.7857 20.9888 25.147 20.5323 24.8159C19.543 24.099 17.8971 22.9056 16.9079 22.1887C16.4514 21.8576 15.8131 21.9592 15.4815 22.4162Z" fill="#B2B2EB"/>
<mask id="mask65" mask-type="alpha" maskUnits="userSpaceOnUse" x="15" y="21" width="6" height="6">
<path d="M15.4819 22.4173C15.1504 22.8738 15.2524 23.5126 15.709 23.8436C16.6982 24.5611 18.3441 25.7539 19.3328 26.4713C19.7894 26.8024 20.4281 26.7003 20.7597 26.2438V26.2433C21.0908 25.7863 20.9887 25.148 20.5322 24.817C19.5434 24.1 17.897 22.9062 16.9083 22.1898C16.7271 22.0583 16.517 21.9951 16.3094 21.9951C15.9932 21.9951 15.6816 22.1415 15.4819 22.4173Z" fill="white"/>
</mask>
<g mask="url(#mask65)">
<path fill-rule="evenodd" clip-rule="evenodd" d="M14.7004 21.2316C14.5415 21.4511 14.4758 21.7245 14.5186 21.9918C14.5615 22.2597 14.7088 22.4991 14.9279 22.6579C16.1292 23.5292 18.3447 25.1358 19.546 26.0065C19.7655 26.1658 20.0389 26.231 20.3067 26.1882C20.574 26.1459 20.8135 25.9985 20.9728 25.779C21.1316 25.5594 21.1974 25.2861 21.1545 25.0188C21.1117 24.7509 20.9649 24.5115 20.7458 24.3526C19.544 23.4814 17.3285 21.8753 16.1272 21.0041C15.9077 20.8453 15.6343 20.7795 15.3665 20.8224C15.0991 20.8652 14.8597 21.012 14.7004 21.2316Z" fill="#CBCBEF"/>
</g>
<path fill-rule="evenodd" clip-rule="evenodd" d="M13.3214 22.8746C12.9599 23.3078 13.0177 23.952 13.4508 24.3134C14.3415 25.0572 15.7867 26.264 16.6774 27.0078C17.1105 27.3698 17.7547 27.3115 18.1162 26.8789V26.8784C18.4776 26.4457 18.4199 25.8015 17.9872 25.4401C17.0966 24.6958 15.6513 23.489 14.7602 22.7452C14.3275 22.3837 13.6833 22.4415 13.3214 22.8746Z" fill="#B2B2EB"/>
<mask id="mask66" mask-type="alpha" maskUnits="userSpaceOnUse" x="13" y="22" width="6" height="6">
<path d="M13.3217 22.8742H13.3212C12.9598 23.3079 13.018 23.9521 13.4506 24.3135C14.3413 25.0573 15.7871 26.2641 16.6777 27.0079C17.1104 27.3699 17.7546 27.3116 18.116 26.879L18.1165 26.8785C18.478 26.4458 18.4197 25.8016 17.9871 25.4402C17.0959 24.6959 15.6511 23.4886 14.7605 22.7453C14.5693 22.586 14.3368 22.5078 14.1058 22.5078C13.8136 22.5078 13.5233 22.6328 13.3217 22.8742Z" fill="white"/>
</mask>
<g mask="url(#mask66)">
<path fill-rule="evenodd" clip-rule="evenodd" d="M13.0655 22.0309C12.7041 22.464 12.7618 23.1082 13.1949 23.4697C14.2101 24.3175 15.97 25.7872 16.9856 26.635C17.4182 26.9965 18.0625 26.9387 18.4239 26.5056H18.4244C18.7858 26.0725 18.7281 25.4282 18.295 25.0668C17.2793 24.2189 15.5199 22.7493 14.5043 21.9014C14.0717 21.54 13.4274 21.5977 13.0655 22.0309Z" fill="#CBCBEF"/>
</g>
<path fill-rule="evenodd" clip-rule="evenodd" d="M24.6217 43.3866C24.3375 42.1887 23.1436 41.4415 21.9423 41.7083C19.693 42.2082 16.1926 42.9858 13.9199 43.4906C13.3314 43.6211 12.8196 43.9825 12.4995 44.4938C12.1799 45.0046 12.0778 45.6229 12.2172 46.2094C13.9079 53.3282 19.2285 75.7262 21.8158 86.6197C22.6154 89.9857 25.9694 92.0862 29.3464 91.3359H29.3469C31.0172 90.965 32.4689 89.9394 33.377 88.4892C34.2851 87.0389 34.5738 85.2855 34.1785 83.6207C31.5628 72.6081 26.2836 50.3829 24.6217 43.3866Z" fill="#E9E9FA"/>
<mask id="mask67" mask-type="alpha" maskUnits="userSpaceOnUse" x="12" y="41" width="23" height="51">
<path d="M21.9423 41.7086C19.693 42.2079 16.1926 42.9861 13.9199 43.4909C13.3314 43.6213 12.8201 43.9828 12.4995 44.4941C12.1799 45.0049 12.0778 45.6227 12.2172 46.2092C13.9084 53.3285 19.228 75.7269 21.8158 86.6205C22.6154 89.986 25.9694 92.0864 29.3464 91.3361C31.0172 90.9652 32.4689 89.9402 33.377 88.4894C34.2851 87.0392 34.5743 85.2852 34.1785 83.6209C31.5628 72.6084 26.2836 50.3832 24.6217 43.3868C24.3758 42.3528 23.4533 41.6543 22.4327 41.6543C22.2709 41.6543 22.1066 41.6722 21.9423 41.7086Z" fill="white"/>
</mask>
<g mask="url(#mask67)">
<path fill-rule="evenodd" clip-rule="evenodd" d="M27.6472 35.494C27.3624 34.2962 26.1691 33.5489 24.9673 33.8157C22.7185 34.3156 19.218 35.0932 16.9453 35.5981C16.3569 35.729 15.8451 36.0899 15.525 36.6012C15.2048 37.1125 15.1033 37.7304 15.2427 38.3173C16.9334 45.4357 22.254 67.8341 24.8413 78.7277C25.6409 82.0936 28.9949 84.1936 32.3718 83.4438H32.3723C34.0426 83.0724 35.4944 82.0473 36.4025 80.5971C37.3106 79.1468 37.5993 77.3929 37.204 75.7281C34.5883 64.7156 29.309 42.4903 27.6472 35.494Z" fill="#F2F2FC"/>
</g>
<path d="M13.7049 16.0381L13.3848 18.0549" stroke="#6969DB" stroke-width="0.27382" stroke-linecap="round" stroke-linejoin="round"/>
<path d="M24.7093 17.7861L24.3887 19.8029" stroke="#6969DB" stroke-width="0.27382" stroke-linecap="round" stroke-linejoin="round"/>
<path d="M13.2986 18.5293L12.9785 20.5461" stroke="#6969DB" stroke-width="0.27382" stroke-linecap="round" stroke-linejoin="round"/>
<path fill-rule="evenodd" clip-rule="evenodd" d="M14.0889 14.1684C14.1292 13.915 14.2681 13.688 14.4757 13.5371C14.6838 13.3863 14.9427 13.3245 15.1961 13.3643C17.2527 13.6914 22.0799 14.4581 24.137 14.7847C24.3905 14.8251 24.6175 14.964 24.7683 15.1721C24.9187 15.3797 24.9809 15.6385 24.9406 15.892C24.4298 19.1091 22.7754 29.5247 22.2646 32.7418C22.2243 32.9952 22.0849 33.2223 21.8773 33.3726C21.6697 33.5235 21.4108 33.5857 21.1574 33.5454C19.1003 33.2188 14.2731 32.4521 12.2164 32.1255C11.9625 32.0852 11.7355 31.9458 11.5851 31.7382C11.4343 31.5305 11.3721 31.2712 11.4124 31.0178C11.9237 27.8011 13.5781 17.3855 14.0889 14.1684Z" fill="#7A7ADF"/>
<path fill-rule="evenodd" clip-rule="evenodd" d="M14.4331 14.5916C14.4719 14.3491 14.6019 14.131 14.795 13.9857C14.9882 13.8408 15.2287 13.7801 15.4631 13.8174C17.3669 14.1196 21.8357 14.8295 23.7395 15.1317C23.9745 15.1691 24.1841 15.3015 24.3225 15.4992C24.4614 15.6968 24.5176 15.9447 24.4793 16.1872C23.9899 19.2664 22.4062 29.2369 21.9173 32.3167C21.8785 32.5591 21.7486 32.7767 21.5554 32.9221C21.3622 33.0674 21.1223 33.1277 20.8873 33.0908C18.9835 32.7881 14.5147 32.0787 12.6104 31.776C12.376 31.7387 12.1664 31.6067 12.0275 31.4086C11.8891 31.2109 11.8328 30.9635 11.8711 30.721C12.3605 27.6413 13.9442 17.6708 14.4331 14.5916Z" fill="#F1F1FA"/>
<mask id="mask68" mask-type="alpha" maskUnits="userSpaceOnUse" x="11" y="13" width="14" height="21">
<path d="M14.7967 13.9859C14.6035 14.1312 14.4736 14.3493 14.4347 14.5918C13.9458 17.671 12.3627 27.6415 11.8733 30.7212C11.8344 30.9637 11.8912 31.2111 12.0296 31.4088C12.168 31.6069 12.3776 31.7388 12.6126 31.7762C14.5169 32.0789 18.9851 32.7883 20.8894 33.0905C21.1239 33.1279 21.3644 33.0676 21.5575 32.9222C21.7507 32.7769 21.8806 32.5593 21.919 32.3169C22.4084 29.2371 23.9915 19.2666 24.4809 16.1874C24.5198 15.9449 24.463 15.6965 24.3246 15.4993C24.1857 15.3017 23.9766 15.1693 23.7416 15.1319C21.8373 14.8297 17.3686 14.1193 15.4648 13.8176C15.4195 13.8101 15.3742 13.8066 15.3289 13.8066C15.1392 13.8066 14.9525 13.8689 14.7967 13.9859Z" fill="white"/>
</mask>
<g mask="url(#mask68)">
<path fill-rule="evenodd" clip-rule="evenodd" d="M14.4572 24.1205C14.4587 24.1061 14.4607 24.0916 14.4632 24.0772C14.6339 22.9958 14.8948 21.345 15.0661 20.2636C15.1114 19.9754 15.2697 19.7175 15.5057 19.5462C15.7416 19.3745 16.0354 19.3038 16.3236 19.3496C17.7714 19.5786 20.3194 19.9813 21.7677 20.2104C22.0554 20.2562 22.3133 20.414 22.4851 20.65C22.6563 20.8854 22.727 21.1802 22.6817 21.4679C22.5105 22.5493 22.2496 24.2002 22.0783 25.2815C22.033 25.5693 21.8747 25.8276 21.6392 25.9989C21.4032 26.1702 21.109 26.2414 20.8208 26.1956L15.0636 25.285C14.6399 25.2183 14.2416 25.5055 14.1714 25.9287L14.1699 25.9362L14.4572 24.1205Z" fill="#E6E6F7"/>
</g>
<path fill-rule="evenodd" clip-rule="evenodd" d="M17.0761 30.3844C16.5747 30.3053 16.1028 30.6473 16.0231 31.1486C15.9439 31.65 16.286 32.1219 16.7873 32.2016C17.2886 32.2813 17.7606 31.9387 17.8403 31.4374C17.9194 30.9361 17.5774 30.4641 17.0761 30.3844Z" fill="#E6E6F7"/>
<path fill-rule="evenodd" clip-rule="evenodd" d="M14.1779 23.8412C14.1794 23.8268 14.1814 23.8123 14.1839 23.7979C14.3546 22.7165 14.6155 21.0657 14.7868 19.9843C14.8321 19.6961 14.9904 19.4382 15.2264 19.2669C15.4624 19.0952 15.7561 19.0245 16.0443 19.0703C17.4921 19.2993 20.0401 19.702 21.4884 19.9311C21.7761 19.9769 22.034 20.1347 22.2058 20.3707C22.377 20.6061 22.4477 20.9009 22.4024 21.1886C22.2312 22.27 21.9703 23.9209 21.799 25.0022C21.7537 25.29 21.5954 25.5483 21.3599 25.7196C21.1239 25.8909 20.8297 25.9621 20.5415 25.9163L14.7843 25.0057C14.3606 24.939 13.9623 25.2262 13.8921 25.6494C13.8911 25.6544 13.8906 25.6569 13.8906 25.6569L14.1779 23.8412Z" fill="white"/>
<path d="M16.9727 22.4355L17.7951 23.4596L20.2575 21.6523" stroke="#6969DB" stroke-width="0.27382" stroke-linecap="round" stroke-linejoin="round"/>
<path fill-rule="evenodd" clip-rule="evenodd" d="M22.1659 29.0448C22.7624 29.2041 23.1233 29.8085 22.9814 30.4094C22.498 32.4531 21.4963 36.6889 21.4963 36.6889L18.8184 35.6045C18.8184 35.6045 20.2761 31.5336 20.9357 29.6895C21.1155 29.1872 21.6507 28.9069 22.1659 29.0448Z" fill="#CDCDEE"/>
<mask id="mask69" mask-type="alpha" maskUnits="userSpaceOnUse" x="18" y="29" width="6" height="8">
<path d="M20.9352 29.6888C20.2756 31.5334 18.8184 35.6043 18.8184 35.6043L21.4958 36.6887C21.4958 36.6887 22.4975 32.4529 22.9814 30.4092C23.1233 29.8083 22.7619 29.2039 22.1659 29.0446C22.0773 29.0212 21.9877 29.0098 21.9001 29.0098C21.4769 29.0098 21.0841 29.2736 20.9352 29.6888Z" fill="white"/>
</mask>
<g mask="url(#mask69)">
<path fill-rule="evenodd" clip-rule="evenodd" d="M22.8174 29.1227C23.4596 29.2611 23.8703 29.8914 23.7374 30.5351C23.4959 31.7016 23.1226 33.5063 22.8547 34.8017C22.7741 35.192 22.5241 35.5261 22.1726 35.7138C21.8212 35.902 21.404 35.9244 21.0346 35.7745C21.0261 35.771 21.0176 35.7676 21.0097 35.7646C20.3565 35.4997 20.0184 34.7753 20.2355 34.1052C20.6398 32.8571 21.2656 30.9254 21.6275 29.8082C21.7893 29.3079 22.3036 29.0122 22.8174 29.1227Z" fill="#DBDBF3"/>
</g>
<path fill-rule="evenodd" clip-rule="evenodd" d="M19.0909 26.7166C19.544 26.3835 20.1762 26.4542 20.5446 26.8784C21.391 27.8527 22.7596 29.4284 22.7596 29.4284L20.7512 31.2595C20.7512 31.2595 19.5464 29.3607 18.8111 28.2027C18.499 27.7108 18.6214 27.0611 19.0909 26.7166Z" fill="#CDCDEE"/>
<mask id="mask70" mask-type="alpha" maskUnits="userSpaceOnUse" x="18" y="26" width="5" height="6">
<path d="M19.0908 26.7164C18.6213 27.061 18.4988 27.7107 18.8115 28.2025C19.5463 29.3605 20.7516 31.2594 20.7516 31.2594L22.7595 29.4282C22.7595 29.4282 21.3909 27.8525 20.545 26.8782C20.3324 26.6338 20.0327 26.5063 19.7295 26.5068C19.507 26.5068 19.283 26.575 19.0908 26.7164Z" fill="white"/>
</mask>
<g mask="url(#mask70)">
<path fill-rule="evenodd" clip-rule="evenodd" d="M17.6898 24.7287C18.2006 24.2065 19.038 24.1975 19.5597 24.7083C21.8927 26.9905 27.7365 32.7073 27.7365 32.7073L27.4223 33.6538C27.4223 33.6538 25.9143 33.0753 24.3561 32.4778C22.1565 31.6345 20.2856 30.1085 19.0171 28.1241C18.4669 27.2643 17.9238 26.415 17.5723 25.8653C17.3423 25.5054 17.3906 25.0344 17.6898 24.7287Z" fill="#DBDBF3"/>
</g>
<mask id="mask71" mask-type="alpha" maskUnits="userSpaceOnUse" x="18" y="26" width="5" height="6">
<path d="M19.0908 26.7164C18.6213 27.061 18.4988 27.7107 18.8115 28.2025C19.5463 29.3605 20.7516 31.2594 20.7516 31.2594L22.7595 29.4282C22.7595 29.4282 21.3909 27.8525 20.545 26.8782C20.3324 26.6338 20.0327 26.5063 19.7295 26.5068C19.507 26.5068 19.283 26.575 19.0908 26.7164Z" fill="white"/>
</mask>
<g mask="url(#mask71)">
<path fill-rule="evenodd" clip-rule="evenodd" d="M20.7806 26.9115C20.5252 26.5531 20.0861 26.442 19.7974 26.6646C19.5081 26.8866 19.4778 27.3586 19.7277 27.721L20.7806 26.9115Z" fill="#CDCDEE"/>
</g>
<g opacity="0.65">
<path opacity="0.65" fill-rule="evenodd" clip-rule="evenodd" d="M14.6974 97.023C13.7236 99.7662 15.1609 102.784 17.904 103.757C20.6472 104.73 23.6647 103.294 24.638 100.551C25.6118 97.8072 24.175 94.7902 21.4313 93.8163C18.6886 92.843 15.6707 94.2794 14.6974 97.023Z" fill="white"/>
<path opacity="0.65" fill-rule="evenodd" clip-rule="evenodd" d="M14.6974 97.023C13.7236 99.7662 15.1609 102.784 17.904 103.757C20.6472 104.73 23.6647 103.294 24.638 100.551C25.6118 97.8072 24.175 94.7902 21.4313 93.8163C18.6886 92.843 15.6707 94.2794 14.6974 97.023Z" stroke="#EFEFF9" stroke-width="0.995708" stroke-linecap="round" stroke-linejoin="round"/>
<path opacity="0.65" fill-rule="evenodd" clip-rule="evenodd" d="M9.91616 107.236C9.70357 107.834 10.0172 108.493 10.6161 108.705C11.2146 108.918 11.8732 108.604 12.0853 108.005C12.2979 107.407 11.9842 106.748 11.3858 106.536C10.7874 106.324 10.1287 106.637 9.91616 107.236Z" fill="#F7F7FC"/>
<path opacity="0.65" fill-rule="evenodd" clip-rule="evenodd" d="M100.597 16.6641C100.195 16.6641 99.8691 16.9817 99.8691 17.3725C99.8691 17.7638 100.195 18.0815 100.597 18.0815C100.998 18.0815 101.324 17.7638 101.324 17.3725C101.324 16.9817 100.998 16.6641 100.597 16.6641Z" fill="#DFDFF4"/>
<path opacity="0.65" d="M106.725 6.08203V15.9719" stroke="#DFDFF4" stroke-width="0.995708" stroke-linecap="round" stroke-linejoin="round"/>
<path opacity="0.65" d="M101.701 11.0273H111.748" stroke="#DFDFF4" stroke-width="0.995708" stroke-linecap="round" stroke-linejoin="round"/>
<path opacity="0.65" fill-rule="evenodd" clip-rule="evenodd" d="M98.9432 107.856C98.4708 107.856 98.0859 107.472 98.0859 106.998C98.0859 106.525 98.4708 106.142 98.9432 106.142C99.4162 106.142 99.801 106.525 99.801 106.998C99.801 107.472 99.4162 107.856 98.9432 107.856Z" fill="#DFDFF4"/>
<path opacity="0.65" fill-rule="evenodd" clip-rule="evenodd" d="M109.941 107.421V94.665L99.4551 101.155L109.941 107.421Z" stroke="#DFDFF4" stroke-width="0.995708" stroke-linecap="round" stroke-linejoin="round"/>
<path opacity="0.65" fill-rule="evenodd" clip-rule="evenodd" d="M85.0296 15.7549L87.2914 16.6172L85.1297 22.2852C84.9231 22.8334 85.175 23.5538 85.8874 23.8251L85.0276 26.0799C82.9018 25.2689 82.2471 23.0579 82.8684 21.423L83.3125 20.258L81.0508 19.3952L81.9076 17.1469L84.1693 18.0092L85.0296 15.7549ZM89.8683 20.1823L87.6065 19.3195L86.7492 21.5683L87.8271 21.9791L89.8683 20.1823Z" fill="white"/>
</g>
</svg>
