<svg width="116" height="116" viewBox="0 0 116 116" fill="none" xmlns="http://www.w3.org/2000/svg">
<path fill-rule="evenodd" clip-rule="evenodd" d="M56.0545 3.9834C85.8934 3.9834 110.119 28.076 110.119 57.7516C110.119 87.4272 85.8934 111.52 56.0545 111.52C26.216 111.52 1.99023 87.4272 1.99023 57.7516C1.99023 28.076 26.216 3.9834 56.0545 3.9834Z" fill="white"/>
<mask id="mask0" mask-type="alpha" maskUnits="userSpaceOnUse" x="1" y="3" width="110" height="109">
<path d="M1.99023 57.7521C1.99023 87.4272 26.2155 111.52 56.0545 111.52C85.8934 111.52 110.119 87.4272 110.119 57.7521C110.119 28.0761 85.8934 3.9834 56.0545 3.9834C26.2155 3.9834 1.99023 28.0761 1.99023 57.7521Z" fill="white"/>
</mask>
<g mask="url(#mask0)">
<path opacity="0.65" fill-rule="evenodd" clip-rule="evenodd" d="M56.0571 9.95703C82.5806 9.95703 104.114 31.3727 104.114 57.751C104.114 84.1293 82.5806 105.545 56.0571 105.545C29.5341 105.545 8 84.1293 8 57.751C8 31.3727 29.5341 9.95703 56.0571 9.95703Z" stroke="#D5D5F1" stroke-width="0.995708" stroke-linecap="round" stroke-linejoin="round"/>
</g>
<mask id="mask1" mask-type="alpha" maskUnits="userSpaceOnUse" x="1" y="3" width="110" height="109">
<path d="M1.99023 57.7521C1.99023 87.4272 26.2155 111.52 56.0545 111.52C85.8934 111.52 110.119 87.4272 110.119 57.7521C110.119 28.0761 85.8934 3.9834 56.0545 3.9834C26.2155 3.9834 1.99023 28.0761 1.99023 57.7521Z" fill="white"/>
</mask>
<g mask="url(#mask1)">
<path opacity="0.5" fill-rule="evenodd" clip-rule="evenodd" d="M56.0558 15.9307C79.2639 15.9307 98.1058 34.6694 98.1058 57.7504C98.1058 80.8314 79.2639 99.5701 56.0558 99.5701C32.8482 99.5701 14.0059 80.8314 14.0059 57.7504C14.0059 34.6694 32.8482 15.9307 56.0558 15.9307Z" stroke="#DFDFF5" stroke-width="0.995708" stroke-linecap="round" stroke-linejoin="round"/>
</g>
<mask id="mask2" mask-type="alpha" maskUnits="userSpaceOnUse" x="1" y="3" width="110" height="109">
<path d="M1.99023 57.7521C1.99023 87.4272 26.2155 111.52 56.0545 111.52C85.8934 111.52 110.119 87.4272 110.119 57.7521C110.119 28.0761 85.8934 3.9834 56.0545 3.9834C26.2155 3.9834 1.99023 28.0761 1.99023 57.7521Z" fill="white"/>
</mask>
<g mask="url(#mask2)">
<path opacity="0.4" fill-rule="evenodd" clip-rule="evenodd" d="M56.0565 21.9062C75.9491 21.9062 92.0993 37.968 92.0993 57.7517C92.0993 77.536 75.9491 93.5972 56.0565 93.5972C36.1639 93.5972 20.0137 77.536 20.0137 57.7517C20.0137 37.968 36.1639 21.9062 56.0565 21.9062Z" stroke="#E5E5F7" stroke-width="0.995708" stroke-linecap="round" stroke-linejoin="round"/>
</g>
<mask id="mask3" mask-type="alpha" maskUnits="userSpaceOnUse" x="1" y="3" width="110" height="109">
<path d="M1.99023 57.7521C1.99023 87.4272 26.2155 111.52 56.0545 111.52C85.8934 111.52 110.119 87.4272 110.119 57.7521C110.119 28.0761 85.8934 3.9834 56.0545 3.9834C26.2155 3.9834 1.99023 28.0761 1.99023 57.7521Z" fill="white"/>
</mask>
<g mask="url(#mask3)">
<path opacity="0.35" fill-rule="evenodd" clip-rule="evenodd" d="M56.0552 27.8799C72.6324 27.8799 86.0909 41.2647 86.0909 57.7511C86.0909 74.2381 72.6324 87.6224 56.0552 87.6224C39.478 87.6224 26.0195 74.2381 26.0195 57.7511C26.0195 41.2647 39.478 27.8799 56.0552 27.8799Z" stroke="#E9E9F7" stroke-width="0.995708" stroke-linecap="round" stroke-linejoin="round"/>
</g>
<mask id="mask4" mask-type="alpha" maskUnits="userSpaceOnUse" x="1" y="3" width="110" height="109">
<path d="M1.99023 57.7521C1.99023 87.4272 26.2155 111.52 56.0545 111.52C85.8934 111.52 110.119 87.4272 110.119 57.7521C110.119 28.0761 85.8934 3.9834 56.0545 3.9834C26.2155 3.9834 1.99023 28.0761 1.99023 57.7521Z" fill="white"/>
</mask>
<g mask="url(#mask4)">
<path opacity="0.3" fill-rule="evenodd" clip-rule="evenodd" d="M56.0559 33.8535C69.3177 33.8535 80.0845 44.5614 80.0845 57.7505C80.0845 70.9402 69.3177 81.6475 56.0559 81.6475C42.7941 81.6475 32.0273 70.9402 32.0273 57.7505C32.0273 44.5614 42.7941 33.8535 56.0559 33.8535Z" stroke="#EBEBF9" stroke-width="0.995708" stroke-linecap="round" stroke-linejoin="round"/>
</g>
<mask id="mask5" mask-type="alpha" maskUnits="userSpaceOnUse" x="1" y="3" width="110" height="109">
<path d="M1.99023 57.7521C1.99023 87.4272 26.2155 111.52 56.0545 111.52C85.8934 111.52 110.119 87.4272 110.119 57.7521C110.119 28.0761 85.8934 3.9834 56.0545 3.9834C26.2155 3.9834 1.99023 28.0761 1.99023 57.7521Z" fill="white"/>
</mask>
<g mask="url(#mask5)">
<path opacity="0.2" fill-rule="evenodd" clip-rule="evenodd" d="M56.0546 39.8281C66.0009 39.8281 74.076 47.859 74.076 57.7509C74.076 67.6432 66.0009 75.6736 56.0546 75.6736C46.1083 75.6736 38.0332 67.6432 38.0332 57.7509C38.0332 47.859 46.1083 39.8281 56.0546 39.8281Z" stroke="#F3F3FB" stroke-width="0.995708" stroke-linecap="round" stroke-linejoin="round"/>
</g>
<mask id="mask6" mask-type="alpha" maskUnits="userSpaceOnUse" x="1" y="3" width="110" height="109">
<path d="M1.99023 57.7521C1.99023 87.4272 26.2155 111.52 56.0545 111.52C85.8934 111.52 110.119 87.4272 110.119 57.7521C110.119 28.0761 85.8934 3.9834 56.0545 3.9834C26.2155 3.9834 1.99023 28.0761 1.99023 57.7521Z" fill="white"/>
</mask>
<g mask="url(#mask6)">
<path opacity="0.1" fill-rule="evenodd" clip-rule="evenodd" d="M56.0572 45.8027C62.6881 45.8027 68.0715 51.1567 68.0715 57.7512C68.0715 64.3463 62.6881 69.6997 56.0572 69.6997C49.4264 69.6997 44.043 64.3463 44.043 57.7512C44.043 51.1567 49.4264 45.8027 56.0572 45.8027Z" stroke="#F9F9FD" stroke-width="0.995708" stroke-linecap="round" stroke-linejoin="round"/>
</g>
<mask id="mask7" mask-type="alpha" maskUnits="userSpaceOnUse" x="1" y="3" width="110" height="109">
<path d="M1.99023 57.7521C1.99023 87.4272 26.2155 111.52 56.0545 111.52C85.8934 111.52 110.119 87.4272 110.119 57.7521C110.119 28.0761 85.8934 3.9834 56.0545 3.9834C26.2155 3.9834 1.99023 28.0761 1.99023 57.7521Z" fill="white"/>
</mask>
<g mask="url(#mask7)">
<path fill-rule="evenodd" clip-rule="evenodd" d="M88.4923 89.2092C87.2518 88.2981 85.7466 87.8147 84.2042 87.8326H84.1892C82.7555 87.8495 81.6021 89.01 81.6021 90.4359V111.629H32.2815V88.4683C32.2815 88.1338 32.0092 87.8629 31.6728 87.8629C31.3364 87.8629 31.0636 88.1338 31.0636 88.4683V111.629H20.6777V87.269C20.6777 78.7403 26.5507 71.3208 34.8866 69.3184C44.5596 66.9954 55.6153 64.3398 55.6153 64.3398C55.6153 64.3398 67.1224 67.0392 77.0833 69.3756C80.6515 70.2125 83.3387 71.5991 85.3596 73.246L111.402 92.3715C112.58 93.2373 113.366 94.5327 113.583 95.9745C113.802 97.4153 113.434 98.8839 112.564 100.056C111.694 101.229 110.39 102.009 108.942 102.226C107.492 102.443 106.016 102.079 104.837 101.212C104.837 101.212 93.1749 92.6478 88.4923 89.2092Z" fill="#9191E3"/>
</g>
<mask id="mask8" mask-type="alpha" maskUnits="userSpaceOnUse" x="20" y="64" width="83" height="48">
<path d="M34.8866 69.3179C26.5502 71.3203 20.6777 78.7393 20.6777 87.268V98.3966C23.839 101.121 27.3246 103.49 31.0631 105.433V88.4674C31.0631 88.1333 31.3364 87.862 31.6723 87.862H31.6728C32.0087 87.862 32.2815 88.1333 32.2815 88.4674V106.048C39.4586 109.552 47.5271 111.52 56.0558 111.52C65.2932 111.52 73.9931 109.21 81.6021 105.141V90.4354C81.6021 89.0095 82.7555 87.8485 84.1892 87.8321H84.2037C85.7461 87.8142 87.2518 88.2971 88.4923 89.2087C90.2189 90.4767 92.8945 92.4417 95.5847 94.4177C98.0977 91.7393 100.339 88.8059 102.265 85.661L85.3596 73.2455C83.3387 71.5986 80.6515 70.2121 77.0833 69.3752C67.1219 67.0387 55.6152 64.3389 55.6152 64.3389C55.6152 64.3389 44.5596 66.9949 34.8866 69.3179Z" fill="white"/>
</mask>
<g mask="url(#mask8)">
<path fill-rule="evenodd" clip-rule="evenodd" d="M53.9576 55.0244C61.0596 55.0244 66.8254 60.7592 66.8254 67.8218C66.8254 74.8853 61.0596 80.6191 53.9576 80.6191C46.8557 80.6191 41.0898 74.8853 41.0898 67.8218C41.0898 60.7592 46.8557 55.0244 53.9576 55.0244Z" fill="#6969DB"/>
</g>
<mask id="mask9" mask-type="alpha" maskUnits="userSpaceOnUse" x="20" y="64" width="83" height="48">
<path d="M34.8866 69.3179C26.5502 71.3203 20.6777 78.7393 20.6777 87.268V98.3966C23.839 101.121 27.3246 103.49 31.0631 105.433V88.4674C31.0631 88.1333 31.3364 87.862 31.6723 87.862H31.6728C32.0087 87.862 32.2815 88.1333 32.2815 88.4674V106.048C39.4586 109.552 47.5271 111.52 56.0558 111.52C65.2932 111.52 73.9931 109.21 81.6021 105.141V90.4354C81.6021 89.0095 82.7555 87.8485 84.1892 87.8321H84.2037C85.7461 87.8142 87.2518 88.2971 88.4923 89.2087C90.2189 90.4767 92.8945 92.4417 95.5847 94.4177C98.0977 91.7393 100.339 88.8059 102.265 85.661L85.3596 73.2455C83.3387 71.5986 80.6515 70.2121 77.0833 69.3752C67.1219 67.0387 55.6152 64.3389 55.6152 64.3389C55.6152 64.3389 44.5596 66.9949 34.8866 69.3179Z" fill="white"/>
</mask>
<g mask="url(#mask9)">
<path fill-rule="evenodd" clip-rule="evenodd" d="M54.8926 114.699H57.4857V78.418H54.8926V114.699Z" fill="white"/>
<path d="M62.0569 83.4381L59.2285 81.5273V112.032" stroke="#B4B4ED" stroke-width="0.995708" stroke-linecap="round" stroke-linejoin="round"/>
<path fill-rule="evenodd" clip-rule="evenodd" d="M33.1286 90.2672C33.1286 88.5377 31.7189 87.1357 29.9793 87.1357C28.2403 87.1357 26.8301 88.5377 26.8301 90.2672V113.125H33.1286V90.2672Z" fill="#6969DB"/>
<path fill-rule="evenodd" clip-rule="evenodd" d="M88.8841 92.3299C88.8841 90.9518 88.3334 89.6305 87.3538 88.6562C86.3741 87.6819 85.0455 87.1348 83.6604 87.1348H83.3951C82.0099 87.1348 80.6814 87.6819 79.7017 88.6562C78.722 89.6305 78.1719 90.9518 78.1719 92.3299V113.124H88.8841V92.3299Z" fill="#6969DB"/>
<path fill-rule="evenodd" clip-rule="evenodd" d="M90.6621 69.8537C94.4906 69.8781 97.4922 73.017 97.3605 76.859C97.2294 80.7014 94.0151 83.8015 90.187 83.7771C86.3585 83.7532 83.3569 80.6138 83.4885 76.7718C83.6202 72.9294 86.8345 69.8293 90.6621 69.8537Z" fill="#DBDBF1"/>
<path fill-rule="evenodd" clip-rule="evenodd" d="M69.3664 84.9717H71.3988V90.0363C71.3998 90.5257 71.8138 91.0126 72.4531 91.0126V93.0275C70.5438 93.0275 69.3679 91.4966 69.3664 90.0363V88.9953H67.334V86.986H69.3664V84.9717ZM74.487 86.986H72.4541V88.9953H73.4232L74.487 86.986Z" fill="#6969DB"/>
</g>
<mask id="mask10" mask-type="alpha" maskUnits="userSpaceOnUse" x="1" y="3" width="110" height="109">
<path d="M1.99023 57.7521C1.99023 87.4272 26.2155 111.52 56.0545 111.52C85.8934 111.52 110.119 87.4272 110.119 57.7521C110.119 28.0761 85.8934 3.9834 56.0545 3.9834C26.2155 3.9834 1.99023 28.0761 1.99023 57.7521Z" fill="white"/>
</mask>
<g mask="url(#mask10)">
<path fill-rule="evenodd" clip-rule="evenodd" d="M56.1612 54.5146C63.3177 54.5146 69.1276 60.2927 69.1276 67.4101C69.1276 74.5269 63.3177 80.305 56.1612 80.305C49.0052 80.305 43.1953 74.5269 43.1953 67.4101C43.1953 60.2927 49.0052 54.5146 56.1612 54.5146Z" fill="#DBDBF1"/>
</g>
<mask id="mask11" mask-type="alpha" maskUnits="userSpaceOnUse" x="43" y="54" width="27" height="27">
<path d="M43.1953 67.4101C43.1953 74.5269 49.0052 80.305 56.1612 80.305C63.3177 80.305 69.1276 74.5269 69.1276 67.4101C69.1276 60.2927 63.3177 54.5146 56.1612 54.5146C49.0052 54.5146 43.1953 60.2927 43.1953 67.4101Z" fill="white"/>
</mask>
<g mask="url(#mask11)">
<path fill-rule="evenodd" clip-rule="evenodd" d="M64.445 72.0753C64.445 74.2937 63.559 76.4216 61.9816 77.9903C60.4047 79.559 58.2647 80.4402 56.034 80.4402C53.8034 80.4402 51.6638 79.559 50.0865 77.9903C48.5096 76.4216 47.623 74.2937 47.623 72.0753V63.5231C47.623 61.3042 48.5096 59.1769 50.0865 57.6081C51.6638 56.0394 53.8034 55.1582 56.034 55.1582C58.2647 55.1582 60.4047 56.0394 61.9816 57.6081C63.559 59.1769 64.445 61.3042 64.445 63.5231V72.0753Z" fill="#C1C1E9"/>
</g>
<mask id="mask12" mask-type="alpha" maskUnits="userSpaceOnUse" x="43" y="54" width="27" height="27">
<path d="M43.1953 67.4101C43.1953 74.5269 49.0052 80.305 56.1612 80.305C63.3177 80.305 69.1276 74.5269 69.1276 67.4101C69.1276 60.2927 63.3177 54.5146 56.1612 54.5146C49.0052 54.5146 43.1953 60.2927 43.1953 67.4101Z" fill="white"/>
</mask>
<g mask="url(#mask12)">
<path d="M61.9199 65.365C61.9199 65.365 63.0968 58.9472 68.4727 60.4333" stroke="#F5F5FB" stroke-width="0.995708" stroke-linecap="round" stroke-linejoin="round"/>
</g>
<mask id="mask13" mask-type="alpha" maskUnits="userSpaceOnUse" x="43" y="54" width="27" height="27">
<path d="M43.1953 67.4101C43.1953 74.5269 49.0052 80.305 56.1612 80.305C63.3177 80.305 69.1276 74.5269 69.1276 67.4101C69.1276 60.2927 63.3177 54.5146 56.1612 54.5146C49.0052 54.5146 43.1953 60.2927 43.1953 67.4101Z" fill="white"/>
</mask>
<g mask="url(#mask13)">
<path d="M62.3379 69.8206C62.3379 69.8206 64.987 64.0435 69.6726 65.453" stroke="#F5F5FB" stroke-width="0.995708" stroke-linecap="round" stroke-linejoin="round"/>
</g>
<mask id="mask14" mask-type="alpha" maskUnits="userSpaceOnUse" x="43" y="54" width="27" height="27">
<path d="M43.1953 67.4101C43.1953 74.5269 49.0052 80.305 56.1612 80.305C63.3177 80.305 69.1276 74.5269 69.1276 67.4101C69.1276 60.2927 63.3177 54.5146 56.1612 54.5146C49.0052 54.5146 43.1953 60.2927 43.1953 67.4101Z" fill="white"/>
</mask>
<g mask="url(#mask14)">
<path d="M61.75 76.1058C61.75 76.1058 64.3996 70.3287 69.0847 71.7381" stroke="#F5F5FB" stroke-width="0.995708" stroke-linecap="round" stroke-linejoin="round"/>
</g>
<mask id="mask15" mask-type="alpha" maskUnits="userSpaceOnUse" x="43" y="54" width="27" height="27">
<path d="M43.1953 67.4101C43.1953 74.5269 49.0052 80.305 56.1612 80.305C63.3177 80.305 69.1276 74.5269 69.1276 67.4101C69.1276 60.2927 63.3177 54.5146 56.1612 54.5146C49.0052 54.5146 43.1953 60.2927 43.1953 67.4101Z" fill="white"/>
</mask>
<g mask="url(#mask15)">
<path d="M50.2154 65.365C50.2154 65.365 49.039 58.9472 43.6621 60.4333" stroke="#F5F5FB" stroke-width="0.995708" stroke-linecap="round" stroke-linejoin="round"/>
</g>
<mask id="mask16" mask-type="alpha" maskUnits="userSpaceOnUse" x="43" y="54" width="27" height="27">
<path d="M43.1953 67.4101C43.1953 74.5269 49.0052 80.305 56.1612 80.305C63.3177 80.305 69.1276 74.5269 69.1276 67.4101C69.1276 60.2927 63.3177 54.5146 56.1612 54.5146C49.0052 54.5146 43.1953 60.2927 43.1953 67.4101Z" fill="white"/>
</mask>
<g mask="url(#mask16)">
<path d="M49.7976 69.8206C49.7976 69.8206 47.1485 64.0435 42.4629 65.453" stroke="#F5F5FB" stroke-width="0.995708" stroke-linecap="round" stroke-linejoin="round"/>
</g>
<mask id="mask17" mask-type="alpha" maskUnits="userSpaceOnUse" x="43" y="54" width="27" height="27">
<path d="M43.1953 67.4101C43.1953 74.5269 49.0052 80.305 56.1612 80.305C63.3177 80.305 69.1276 74.5269 69.1276 67.4101C69.1276 60.2927 63.3177 54.5146 56.1612 54.5146C49.0052 54.5146 43.1953 60.2927 43.1953 67.4101Z" fill="white"/>
</mask>
<g mask="url(#mask17)">
<path d="M50.3855 76.1058C50.3855 76.1058 47.7358 70.3287 43.0508 71.7381" stroke="#F5F5FB" stroke-width="0.995708" stroke-linecap="round" stroke-linejoin="round"/>
</g>
<mask id="mask18" mask-type="alpha" maskUnits="userSpaceOnUse" x="43" y="54" width="27" height="27">
<path d="M43.1953 67.4101C43.1953 74.5269 49.0052 80.305 56.1612 80.305C63.3177 80.305 69.1276 74.5269 69.1276 67.4101C69.1276 60.2927 63.3177 54.5146 56.1612 54.5146C49.0052 54.5146 43.1953 60.2927 43.1953 67.4101Z" fill="white"/>
</mask>
<g mask="url(#mask18)">
<path fill-rule="evenodd" clip-rule="evenodd" d="M62.9235 73.525C62.9235 75.3422 62.1981 77.0857 60.9056 78.3711C59.6136 79.6561 57.8605 80.379 56.0323 80.379H56.0318C54.2046 80.379 52.4521 79.6561 51.1595 78.3711C49.8665 77.0857 49.1406 75.3422 49.1406 73.525V48.4053H62.9235V73.525Z" fill="white"/>
</g>
<mask id="mask19" mask-type="alpha" maskUnits="userSpaceOnUse" x="49" y="54" width="14" height="27">
<path d="M49.1406 56.5693V73.5252C49.1406 75.3429 49.8665 77.0864 51.159 78.3718C52.0661 79.2734 53.1999 79.8982 54.4274 80.1905C54.9946 80.2662 55.5733 80.305 56.1615 80.305C56.5654 80.305 56.9649 80.2866 57.3594 80.2507C58.6935 79.9903 59.9304 79.3406 60.9051 78.3718C62.1981 77.0864 62.9235 75.3429 62.9235 73.5252V56.407C60.9537 55.2067 58.6384 54.5146 56.1615 54.5146C53.5749 54.5146 51.1645 55.2694 49.1406 56.5693Z" fill="white"/>
</mask>
<g mask="url(#mask19)">
<path fill-rule="evenodd" clip-rule="evenodd" d="M63.0359 66.694C63.0359 68.541 62.2975 70.3124 60.9845 71.6183C59.6714 72.9241 57.8908 73.6575 56.0336 73.6575C54.1764 73.6575 52.3952 72.9241 51.0822 71.6183C49.7691 70.3124 49.0312 68.541 49.0312 66.694V39.6416H63.0359V66.694Z" fill="#CBCBEF"/>
</g>
<mask id="mask20" mask-type="alpha" maskUnits="userSpaceOnUse" x="49" y="54" width="14" height="27">
<path d="M49.1406 56.5693V73.5252C49.1406 75.3429 49.8665 77.0864 51.159 78.3718C52.0661 79.2734 53.1999 79.8982 54.4274 80.1905C54.9946 80.2662 55.5733 80.305 56.1615 80.305C56.5654 80.305 56.9649 80.2866 57.3594 80.2507C58.6935 79.9903 59.9304 79.3406 60.9051 78.3718C62.1981 77.0864 62.9235 75.3429 62.9235 73.5252V56.407C60.9537 55.2067 58.6384 54.5146 56.1615 54.5146C53.5749 54.5146 51.1645 55.2694 49.1406 56.5693Z" fill="white"/>
</mask>
<g mask="url(#mask20)">
<path fill-rule="evenodd" clip-rule="evenodd" d="M63.2219 57.7781C63.2219 61.727 60.0021 64.9287 56.0318 64.9287H56.0313C52.0606 64.9287 48.8418 61.727 48.8418 57.7781V31.1787H63.2219V57.7781Z" fill="#A5A5E7"/>
</g>
<mask id="mask21" mask-type="alpha" maskUnits="userSpaceOnUse" x="1" y="3" width="110" height="109">
<path d="M1.99023 57.7521C1.99023 87.4272 26.2155 111.52 56.0545 111.52C85.8934 111.52 110.119 87.4272 110.119 57.7521C110.119 28.0761 85.8934 3.9834 56.0545 3.9834C26.2155 3.9834 1.99023 28.0761 1.99023 57.7521Z" fill="white"/>
</mask>
<g mask="url(#mask21)">
<path fill-rule="evenodd" clip-rule="evenodd" d="M39.6611 33.2801C41.1844 23.4012 47.977 15.9434 56.1156 15.9434C64.2658 15.9434 71.0664 23.4236 72.5767 33.3249C72.805 33.2951 73.0388 33.2796 73.2755 33.2796C76.212 33.2796 78.5959 35.6464 78.5959 38.5614C78.5959 41.4768 76.212 43.8431 73.2755 43.8431C72.8966 43.8431 72.5271 43.8038 72.1712 43.7291C70.0832 52.573 63.6806 59.0177 56.1156 59.0177C48.5767 59.0177 42.1936 52.6188 40.0821 43.8222C39.9244 43.8361 39.7652 43.8431 39.6035 43.8431C36.6675 43.8431 34.2832 41.4768 34.2832 38.5614C34.2832 35.6464 36.6675 33.2796 39.6035 33.2796C39.6225 33.2796 39.6416 33.2801 39.6611 33.2801Z" fill="#CBCBEF"/>
</g>
<mask id="mask22" mask-type="alpha" maskUnits="userSpaceOnUse" x="34" y="15" width="45" height="45">
<path d="M39.6611 33.2797C39.6416 33.2797 39.623 33.2792 39.6035 33.2792C36.6675 33.2792 34.2832 35.646 34.2832 38.5609C34.2832 41.4763 36.6675 43.8426 39.6035 43.8426C39.7647 43.8426 39.9244 43.8357 40.0821 43.8217C42.1931 52.6183 48.5767 59.0172 56.1156 59.0172C63.6811 59.0172 70.0837 52.5725 72.1712 43.7286C72.5271 43.8033 72.8961 43.8426 73.2755 43.8426C76.2115 43.8426 78.5959 41.4763 78.5959 38.5609C78.5959 35.646 76.2115 33.2792 73.2755 33.2792C73.0388 33.2792 72.805 33.2946 72.5767 33.3245C71.0664 23.4231 64.2658 15.9424 56.1156 15.9424C47.977 15.9424 41.1844 23.4007 39.6611 33.2797Z" fill="white"/>
</mask>
<g mask="url(#mask22)">
<path fill-rule="evenodd" clip-rule="evenodd" d="M39.6691 41.6079C39.6125 41.6109 39.556 41.6129 39.4994 41.6129C37.8699 41.6129 36.5469 40.2971 36.5469 38.6766C36.5469 37.0561 37.8699 35.7402 39.4994 35.7402C39.556 35.7402 39.6125 35.7417 39.6691 35.7447V41.6079Z" fill="#BDBDEF"/>
</g>
<mask id="mask23" mask-type="alpha" maskUnits="userSpaceOnUse" x="34" y="15" width="45" height="45">
<path d="M39.6611 33.2797C39.6416 33.2797 39.623 33.2792 39.6035 33.2792C36.6675 33.2792 34.2832 35.646 34.2832 38.5609C34.2832 41.4763 36.6675 43.8426 39.6035 43.8426C39.7647 43.8426 39.9244 43.8357 40.0821 43.8217C42.1931 52.6183 48.5767 59.0172 56.1156 59.0172C63.6811 59.0172 70.0837 52.5725 72.1712 43.7286C72.5271 43.8033 72.8961 43.8426 73.2755 43.8426C76.2115 43.8426 78.5959 41.4763 78.5959 38.5609C78.5959 35.646 76.2115 33.2792 73.2755 33.2792C73.0388 33.2792 72.805 33.2946 72.5767 33.3245C71.0664 23.4231 64.2658 15.9424 56.1156 15.9424C47.977 15.9424 41.1844 23.4007 39.6611 33.2797Z" fill="white"/>
</mask>
<g mask="url(#mask23)">
<path fill-rule="evenodd" clip-rule="evenodd" d="M72.582 41.6079C72.6386 41.6109 72.6952 41.6129 72.7522 41.6129C74.3817 41.6129 75.7042 40.2971 75.7042 38.6766C75.7042 37.0561 74.3817 35.7402 72.7522 35.7402C72.6952 35.7402 72.6386 35.7417 72.582 35.7447V41.6079Z" fill="#BDBDEF"/>
</g>
<mask id="mask24" mask-type="alpha" maskUnits="userSpaceOnUse" x="34" y="15" width="45" height="45">
<path d="M39.6611 33.2797C39.6416 33.2797 39.623 33.2792 39.6035 33.2792C36.6675 33.2792 34.2832 35.646 34.2832 38.5609C34.2832 41.4763 36.6675 43.8426 39.6035 43.8426C39.7647 43.8426 39.9244 43.8357 40.0821 43.8217C42.1931 52.6183 48.5767 59.0172 56.1156 59.0172C63.6811 59.0172 70.0837 52.5725 72.1712 43.7286C72.5271 43.8033 72.8961 43.8426 73.2755 43.8426C76.2115 43.8426 78.5959 41.4763 78.5959 38.5609C78.5959 35.646 76.2115 33.2792 73.2755 33.2792C73.0388 33.2792 72.805 33.2946 72.5767 33.3245C71.0664 23.4231 64.2658 15.9424 56.1156 15.9424C47.977 15.9424 41.1844 23.4007 39.6611 33.2797Z" fill="white"/>
</mask>
<g mask="url(#mask24)">
<path fill-rule="evenodd" clip-rule="evenodd" d="M77.9937 21.1636C78.3926 26.4403 75.7285 31.6693 70.7856 34.2596C64.1107 37.7591 55.7918 35.1284 52.2205 28.3899C48.6493 21.651 51.1693 13.3393 57.8447 9.8404L57.8512 9.83691C57.9909 11.6854 58.5075 13.5409 59.4346 15.2904C63.0048 22.0269 71.3197 24.6575 77.9937 21.1636Z" fill="#BBBBEB"/>
</g>
<mask id="mask25" mask-type="alpha" maskUnits="userSpaceOnUse" x="34" y="15" width="45" height="45">
<path d="M39.6611 33.2797C39.6416 33.2797 39.623 33.2792 39.6035 33.2792C36.6675 33.2792 34.2832 35.646 34.2832 38.5609C34.2832 41.4763 36.6675 43.8426 39.6035 43.8426C39.7647 43.8426 39.9244 43.8357 40.0821 43.8217C42.1931 52.6183 48.5767 59.0172 56.1156 59.0172C63.6811 59.0172 70.0837 52.5725 72.1712 43.7286C72.5271 43.8033 72.8961 43.8426 73.2755 43.8426C76.2115 43.8426 78.5959 41.4763 78.5959 38.5609C78.5959 35.646 76.2115 33.2792 73.2755 33.2792C73.0388 33.2792 72.805 33.2946 72.5767 33.3245C71.0664 23.4231 64.2658 15.9424 56.1156 15.9424C47.977 15.9424 41.1844 23.4007 39.6611 33.2797Z" fill="white"/>
</mask>
<g mask="url(#mask25)">
<path fill-rule="evenodd" clip-rule="evenodd" d="M38.6574 6.34008C43.9081 5.48526 49.3781 7.66985 52.4027 12.3412C56.489 18.65 54.5783 27.121 48.1386 31.2457C41.7 35.3704 33.1548 33.5971 29.069 27.2883L29.0645 27.2818C30.9041 26.9826 32.7178 26.309 34.3893 25.2381C40.8264 21.1149 42.7382 12.6479 38.6574 6.34008Z" fill="#BBBBEB"/>
</g>
<mask id="mask26" mask-type="alpha" maskUnits="userSpaceOnUse" x="34" y="15" width="45" height="45">
<path d="M39.6611 33.2797C39.6416 33.2797 39.623 33.2792 39.6035 33.2792C36.6675 33.2792 34.2832 35.646 34.2832 38.5609C34.2832 41.4763 36.6675 43.8426 39.6035 43.8426C39.7647 43.8426 39.9244 43.8357 40.0821 43.8217C42.1931 52.6183 48.5767 59.0172 56.1156 59.0172C63.6811 59.0172 70.0837 52.5725 72.1712 43.7286C72.5271 43.8033 72.8961 43.8426 73.2755 43.8426C76.2115 43.8426 78.5959 41.4763 78.5959 38.5609C78.5959 35.646 76.2115 33.2792 73.2755 33.2792C73.0388 33.2792 72.805 33.2946 72.5767 33.3245C71.0664 23.4231 64.2658 15.9424 56.1156 15.9424C47.977 15.9424 41.1844 23.4007 39.6611 33.2797Z" fill="white"/>
</mask>
<g mask="url(#mask26)">
<path fill-rule="evenodd" clip-rule="evenodd" d="M42.3896 30.9463H39.6719V36.3694C39.6719 36.7279 39.815 37.0714 40.0698 37.3248C40.3247 37.5782 40.6701 37.7206 41.031 37.7206C41.3909 37.7206 41.7368 37.5782 41.9916 37.3248C42.2464 37.0714 42.3896 36.7279 42.3896 36.3694V30.9463Z" fill="#DDDDF5"/>
</g>
<mask id="mask27" mask-type="alpha" maskUnits="userSpaceOnUse" x="34" y="15" width="45" height="45">
<path d="M39.6611 33.2797C39.6416 33.2797 39.623 33.2792 39.6035 33.2792C36.6675 33.2792 34.2832 35.646 34.2832 38.5609C34.2832 41.4763 36.6675 43.8426 39.6035 43.8426C39.7647 43.8426 39.9244 43.8357 40.0821 43.8217C42.1931 52.6183 48.5767 59.0172 56.1156 59.0172C63.6811 59.0172 70.0837 52.5725 72.1712 43.7286C72.5271 43.8033 72.8961 43.8426 73.2755 43.8426C76.2115 43.8426 78.5959 41.4763 78.5959 38.5609C78.5959 35.646 76.2115 33.2792 73.2755 33.2792C73.0388 33.2792 72.805 33.2946 72.5767 33.3245C71.0664 23.4231 64.2658 15.9424 56.1156 15.9424C47.977 15.9424 41.1844 23.4007 39.6611 33.2797Z" fill="white"/>
</mask>
<g mask="url(#mask27)">
<path fill-rule="evenodd" clip-rule="evenodd" d="M72.5791 30.9463H69.8613V36.3694C69.8613 36.7279 70.0045 37.0714 70.2593 37.3248C70.5141 37.5782 70.8595 37.7206 71.2199 37.7206C71.5804 37.7206 71.9263 37.5782 72.1811 37.3248C72.4359 37.0714 72.5791 36.7279 72.5791 36.3694V30.9463Z" fill="#DFDFF5"/>
</g>
<mask id="mask28" mask-type="alpha" maskUnits="userSpaceOnUse" x="34" y="15" width="45" height="45">
<path d="M39.6611 33.2797C39.6416 33.2797 39.623 33.2792 39.6035 33.2792C36.6675 33.2792 34.2832 35.646 34.2832 38.5609C34.2832 41.4763 36.6675 43.8426 39.6035 43.8426C39.7647 43.8426 39.9244 43.8357 40.0821 43.8217C42.1931 52.6183 48.5767 59.0172 56.1156 59.0172C63.6811 59.0172 70.0837 52.5725 72.1712 43.7286C72.5271 43.8033 72.8961 43.8426 73.2755 43.8426C76.2115 43.8426 78.5959 41.4763 78.5959 38.5609C78.5959 35.646 76.2115 33.2792 73.2755 33.2792C73.0388 33.2792 72.805 33.2946 72.5767 33.3245C71.0664 23.4231 64.2658 15.9424 56.1156 15.9424C47.977 15.9424 41.1844 23.4007 39.6611 33.2797Z" fill="white"/>
</mask>
<g mask="url(#mask28)">
<path fill-rule="evenodd" clip-rule="evenodd" d="M80.5485 18.9429C80.9585 24.7329 77.9805 30.4896 72.4985 33.3627C65.0952 37.2435 55.9092 34.4052 52.0001 27.0285C48.0909 19.6518 50.9283 10.5117 58.3316 6.63094L58.3396 6.62695C58.4833 8.65571 59.043 10.6894 60.0577 12.6047C63.9658 19.9794 73.1472 22.8182 80.5485 18.9429Z" fill="#DFDFF5"/>
</g>
<mask id="mask29" mask-type="alpha" maskUnits="userSpaceOnUse" x="34" y="15" width="45" height="45">
<path d="M39.6611 33.2797C39.6416 33.2797 39.623 33.2792 39.6035 33.2792C36.6675 33.2792 34.2832 35.646 34.2832 38.5609C34.2832 41.4763 36.6675 43.8426 39.6035 43.8426C39.7647 43.8426 39.9244 43.8357 40.0821 43.8217C42.1931 52.6183 48.5767 59.0172 56.1156 59.0172C63.6811 59.0172 70.0837 52.5725 72.1712 43.7286C72.5271 43.8033 72.8961 43.8426 73.2755 43.8426C76.2115 43.8426 78.5959 41.4763 78.5959 38.5609C78.5959 35.646 76.2115 33.2792 73.2755 33.2792C73.0388 33.2792 72.805 33.2946 72.5767 33.3245C71.0664 23.4231 64.2658 15.9424 56.1156 15.9424C47.977 15.9424 41.1844 23.4007 39.6611 33.2797Z" fill="white"/>
</mask>
<g mask="url(#mask29)">
<path fill-rule="evenodd" clip-rule="evenodd" d="M45.0608 11.7197C49.049 13.4657 51.8353 17.4261 51.8353 22.0273C51.8353 28.2415 46.7528 33.2868 40.4929 33.2868C34.2329 33.2868 29.1504 28.2415 29.1504 22.0273V22.0208C30.5476 22.6332 32.0934 22.9727 33.7188 22.9727C39.9768 22.9727 45.0578 17.931 45.0608 11.7197Z" fill="#DFDFF5"/>
</g>
<mask id="mask30" mask-type="alpha" maskUnits="userSpaceOnUse" x="34" y="15" width="45" height="45">
<path d="M39.6611 33.2797C39.6416 33.2797 39.623 33.2792 39.6035 33.2792C36.6675 33.2792 34.2832 35.646 34.2832 38.5609C34.2832 41.4763 36.6675 43.8426 39.6035 43.8426C39.7647 43.8426 39.9244 43.8357 40.0821 43.8217C42.1931 52.6183 48.5767 59.0172 56.1156 59.0172C63.6811 59.0172 70.0837 52.5725 72.1712 43.7286C72.5271 43.8033 72.8961 43.8426 73.2755 43.8426C76.2115 43.8426 78.5959 41.4763 78.5959 38.5609C78.5959 35.646 76.2115 33.2792 73.2755 33.2792C73.0388 33.2792 72.805 33.2946 72.5767 33.3245C71.0664 23.4231 64.2658 15.9424 56.1156 15.9424C47.977 15.9424 41.1844 23.4007 39.6611 33.2797Z" fill="white"/>
</mask>
<g mask="url(#mask30)">
<path fill-rule="evenodd" clip-rule="evenodd" d="M66.6624 10.0215C70.6506 11.768 73.4359 15.7284 73.4359 20.3296C73.4359 26.5438 68.3544 31.589 62.0944 31.589C55.8345 31.589 50.752 26.5438 50.752 20.3296V20.3231C52.1491 20.9349 53.695 21.275 55.3199 21.275C61.5783 21.275 66.6589 16.2327 66.6624 10.0215Z" fill="#BEBEEF"/>
</g>
<mask id="mask31" mask-type="alpha" maskUnits="userSpaceOnUse" x="34" y="15" width="45" height="45">
<path d="M39.6611 33.2797C39.6416 33.2797 39.623 33.2792 39.6035 33.2792C36.6675 33.2792 34.2832 35.646 34.2832 38.5609C34.2832 41.4763 36.6675 43.8426 39.6035 43.8426C39.7647 43.8426 39.9244 43.8357 40.0821 43.8217C42.1931 52.6183 48.5767 59.0172 56.1156 59.0172C63.6811 59.0172 70.0837 52.5725 72.1712 43.7286C72.5271 43.8033 72.8961 43.8426 73.2755 43.8426C76.2115 43.8426 78.5959 41.4763 78.5959 38.5609C78.5959 35.646 76.2115 33.2792 73.2755 33.2792C73.0388 33.2792 72.805 33.2946 72.5767 33.3245C71.0664 23.4231 64.2658 15.9424 56.1156 15.9424C47.977 15.9424 41.1844 23.4007 39.6611 33.2797Z" fill="white"/>
</mask>
<g mask="url(#mask31)">
<path opacity="0.303789" fill-rule="evenodd" clip-rule="evenodd" d="M45.1182 14.3213C47.6557 15.4325 49.4288 17.9526 49.4288 20.8805C49.4288 24.8345 46.195 28.0451 42.2112 28.0451C38.228 28.0451 34.9941 24.8345 34.9941 20.8805V20.8765C35.8832 21.2659 36.8669 21.4819 37.9011 21.4819C41.8833 21.4819 45.1162 18.2738 45.1182 14.3213Z" fill="white"/>
</g>
<mask id="mask32" mask-type="alpha" maskUnits="userSpaceOnUse" x="34" y="15" width="45" height="45">
<path d="M39.6611 33.2797C39.6416 33.2797 39.623 33.2792 39.6035 33.2792C36.6675 33.2792 34.2832 35.646 34.2832 38.5609C34.2832 41.4763 36.6675 43.8426 39.6035 43.8426C39.7647 43.8426 39.9244 43.8357 40.0821 43.8217C42.1931 52.6183 48.5767 59.0172 56.1156 59.0172C63.6811 59.0172 70.0837 52.5725 72.1712 43.7286C72.5271 43.8033 72.8961 43.8426 73.2755 43.8426C76.2115 43.8426 78.5959 41.4763 78.5959 38.5609C78.5959 35.646 76.2115 33.2792 73.2755 33.2792C73.0388 33.2792 72.805 33.2946 72.5767 33.3245C71.0664 23.4231 64.2658 15.9424 56.1156 15.9424C47.977 15.9424 41.1844 23.4007 39.6611 33.2797Z" fill="white"/>
</mask>
<g mask="url(#mask32)">
<path fill-rule="evenodd" clip-rule="evenodd" d="M49.6851 36.5771C50.4079 36.5771 50.9951 37.1606 50.9951 37.8795C50.9951 38.5989 50.4079 39.1824 49.6851 39.1824C48.9617 39.1824 48.375 38.5989 48.375 37.8795C48.375 37.1606 48.9617 36.5771 49.6851 36.5771Z" fill="#BDB9E5"/>
</g>
<mask id="mask33" mask-type="alpha" maskUnits="userSpaceOnUse" x="34" y="15" width="45" height="45">
<path d="M39.6611 33.2797C39.6416 33.2797 39.623 33.2792 39.6035 33.2792C36.6675 33.2792 34.2832 35.646 34.2832 38.5609C34.2832 41.4763 36.6675 43.8426 39.6035 43.8426C39.7647 43.8426 39.9244 43.8357 40.0821 43.8217C42.1931 52.6183 48.5767 59.0172 56.1156 59.0172C63.6811 59.0172 70.0837 52.5725 72.1712 43.7286C72.5271 43.8033 72.8961 43.8426 73.2755 43.8426C76.2115 43.8426 78.5959 41.4763 78.5959 38.5609C78.5959 35.646 76.2115 33.2792 73.2755 33.2792C73.0388 33.2792 72.805 33.2946 72.5767 33.3245C71.0664 23.4231 64.2658 15.9424 56.1156 15.9424C47.977 15.9424 41.1844 23.4007 39.6611 33.2797Z" fill="white"/>
</mask>
<g mask="url(#mask33)">
<path fill-rule="evenodd" clip-rule="evenodd" d="M62.728 36.5771C63.4509 36.5771 64.0381 37.1606 64.0381 37.8795C64.0381 38.5989 63.4509 39.1824 62.728 39.1824C62.0052 39.1824 61.418 38.5989 61.418 37.8795C61.418 37.1606 62.0052 36.5771 62.728 36.5771Z" fill="#BDB9E5"/>
</g>
<mask id="mask34" mask-type="alpha" maskUnits="userSpaceOnUse" x="34" y="15" width="45" height="45">
<path d="M39.6611 33.2797C39.6416 33.2797 39.623 33.2792 39.6035 33.2792C36.6675 33.2792 34.2832 35.646 34.2832 38.5609C34.2832 41.4763 36.6675 43.8426 39.6035 43.8426C39.7647 43.8426 39.9244 43.8357 40.0821 43.8217C42.1931 52.6183 48.5767 59.0172 56.1156 59.0172C63.6811 59.0172 70.0837 52.5725 72.1712 43.7286C72.5271 43.8033 72.8961 43.8426 73.2755 43.8426C76.2115 43.8426 78.5959 41.4763 78.5959 38.5609C78.5959 35.646 76.2115 33.2792 73.2755 33.2792C73.0388 33.2792 72.805 33.2946 72.5767 33.3245C71.0664 23.4231 64.2658 15.9424 56.1156 15.9424C47.977 15.9424 41.1844 23.4007 39.6611 33.2797Z" fill="white"/>
</mask>
<g mask="url(#mask34)">
<path fill-rule="evenodd" clip-rule="evenodd" d="M49.6849 36.959C50.1965 36.959 50.6115 37.3722 50.6115 37.8805C50.6115 38.3893 50.1965 38.8025 49.6849 38.8025C49.1733 38.8025 48.7578 38.3893 48.7578 37.8805C48.7578 37.3722 49.1733 36.959 49.6849 36.959Z" fill="#5A4BE2"/>
</g>
<mask id="mask35" mask-type="alpha" maskUnits="userSpaceOnUse" x="48" y="36" width="3" height="3">
<path d="M48.7578 37.88C48.7578 38.3888 49.1733 38.8021 49.6849 38.8021C50.1965 38.8021 50.6115 38.3888 50.6115 37.88C50.6115 37.3717 50.1965 36.958 49.6849 36.958C49.1733 36.958 48.7578 37.3717 48.7578 37.88Z" fill="white"/>
</mask>
<g mask="url(#mask35)">
<path fill-rule="evenodd" clip-rule="evenodd" d="M49.3216 36.5986C49.8332 36.5986 50.2482 37.0119 50.2482 37.5202C50.2482 38.029 49.8332 38.4422 49.3216 38.4422C48.81 38.4422 48.3945 38.029 48.3945 37.5202C48.3945 37.0119 48.81 36.5986 49.3216 36.5986Z" fill="#7364E2"/>
</g>
<mask id="mask36" mask-type="alpha" maskUnits="userSpaceOnUse" x="34" y="15" width="45" height="45">
<path d="M39.6611 33.2797C39.6416 33.2797 39.623 33.2792 39.6035 33.2792C36.6675 33.2792 34.2832 35.646 34.2832 38.5609C34.2832 41.4763 36.6675 43.8426 39.6035 43.8426C39.7647 43.8426 39.9244 43.8357 40.0821 43.8217C42.1931 52.6183 48.5767 59.0172 56.1156 59.0172C63.6811 59.0172 70.0837 52.5725 72.1712 43.7286C72.5271 43.8033 72.8961 43.8426 73.2755 43.8426C76.2115 43.8426 78.5959 41.4763 78.5959 38.5609C78.5959 35.646 76.2115 33.2792 73.2755 33.2792C73.0388 33.2792 72.805 33.2946 72.5767 33.3245C71.0664 23.4231 64.2658 15.9424 56.1156 15.9424C47.977 15.9424 41.1844 23.4007 39.6611 33.2797Z" fill="white"/>
</mask>
<g mask="url(#mask36)">
<path fill-rule="evenodd" clip-rule="evenodd" d="M62.7352 36.959C63.2468 36.959 63.6623 37.3722 63.6623 37.8805C63.6623 38.3893 63.2468 38.8025 62.7352 38.8025C62.2241 38.8025 61.8086 38.3893 61.8086 37.8805C61.8086 37.3722 62.2241 36.959 62.7352 36.959Z" fill="#5A4BE2"/>
</g>
<mask id="mask37" mask-type="alpha" maskUnits="userSpaceOnUse" x="61" y="36" width="3" height="3">
<path d="M61.8086 37.88C61.8086 38.3888 62.2236 38.8021 62.7347 38.8021C63.2468 38.8021 63.6618 38.3888 63.6618 37.88C63.6618 37.3717 63.2468 36.958 62.7347 36.958C62.2236 36.958 61.8086 37.3717 61.8086 37.88Z" fill="white"/>
</mask>
<g mask="url(#mask37)">
<path fill-rule="evenodd" clip-rule="evenodd" d="M62.3739 36.5986C62.8855 36.5986 63.3005 37.0119 63.3005 37.5202C63.3005 38.029 62.8855 38.4422 62.3739 38.4422C61.8623 38.4422 61.4473 38.029 61.4473 37.5202C61.4473 37.0119 61.8623 36.5986 62.3739 36.5986Z" fill="#7364E2"/>
</g>
<mask id="mask38" mask-type="alpha" maskUnits="userSpaceOnUse" x="34" y="15" width="45" height="45">
<path d="M39.6611 33.2797C39.6416 33.2797 39.623 33.2792 39.6035 33.2792C36.6675 33.2792 34.2832 35.646 34.2832 38.5609C34.2832 41.4763 36.6675 43.8426 39.6035 43.8426C39.7647 43.8426 39.9244 43.8357 40.0821 43.8217C42.1931 52.6183 48.5767 59.0172 56.1156 59.0172C63.6811 59.0172 70.0837 52.5725 72.1712 43.7286C72.5271 43.8033 72.8961 43.8426 73.2755 43.8426C76.2115 43.8426 78.5959 41.4763 78.5959 38.5609C78.5959 35.646 76.2115 33.2792 73.2755 33.2792C73.0388 33.2792 72.805 33.2946 72.5767 33.3245C71.0664 23.4231 64.2658 15.9424 56.1156 15.9424C47.977 15.9424 41.1844 23.4007 39.6611 33.2797Z" fill="white"/>
</mask>
<g mask="url(#mask38)">
<path fill-rule="evenodd" clip-rule="evenodd" d="M62.3179 37.3096C62.4181 37.3096 62.4997 37.3907 62.4997 37.4903C62.4997 37.5904 62.4181 37.671 62.3179 37.671C62.2178 37.671 62.1367 37.5904 62.1367 37.4903C62.1367 37.3907 62.2178 37.3096 62.3179 37.3096Z" fill="white"/>
</g>
<mask id="mask39" mask-type="alpha" maskUnits="userSpaceOnUse" x="34" y="15" width="45" height="45">
<path d="M39.6611 33.2797C39.6416 33.2797 39.623 33.2792 39.6035 33.2792C36.6675 33.2792 34.2832 35.646 34.2832 38.5609C34.2832 41.4763 36.6675 43.8426 39.6035 43.8426C39.7647 43.8426 39.9244 43.8357 40.0821 43.8217C42.1931 52.6183 48.5767 59.0172 56.1156 59.0172C63.6811 59.0172 70.0837 52.5725 72.1712 43.7286C72.5271 43.8033 72.8961 43.8426 73.2755 43.8426C76.2115 43.8426 78.5959 41.4763 78.5959 38.5609C78.5959 35.646 76.2115 33.2792 73.2755 33.2792C73.0388 33.2792 72.805 33.2946 72.5767 33.3245C71.0664 23.4231 64.2658 15.9424 56.1156 15.9424C47.977 15.9424 41.1844 23.4007 39.6611 33.2797Z" fill="white"/>
</mask>
<g mask="url(#mask39)">
<path fill-rule="evenodd" clip-rule="evenodd" d="M49.2071 37.3096C49.3077 37.3096 49.3888 37.3907 49.3888 37.4903C49.3888 37.5904 49.3077 37.671 49.2071 37.671C49.107 37.671 49.0254 37.5904 49.0254 37.4903C49.0254 37.3907 49.107 37.3096 49.2071 37.3096Z" fill="white"/>
</g>
<mask id="mask40" mask-type="alpha" maskUnits="userSpaceOnUse" x="34" y="15" width="45" height="45">
<path d="M39.6611 33.2797C39.6416 33.2797 39.623 33.2792 39.6035 33.2792C36.6675 33.2792 34.2832 35.646 34.2832 38.5609C34.2832 41.4763 36.6675 43.8426 39.6035 43.8426C39.7647 43.8426 39.9244 43.8357 40.0821 43.8217C42.1931 52.6183 48.5767 59.0172 56.1156 59.0172C63.6811 59.0172 70.0837 52.5725 72.1712 43.7286C72.5271 43.8033 72.8961 43.8426 73.2755 43.8426C76.2115 43.8426 78.5959 41.4763 78.5959 38.5609C78.5959 35.646 76.2115 33.2792 73.2755 33.2792C73.0388 33.2792 72.805 33.2946 72.5767 33.3245C71.0664 23.4231 64.2658 15.9424 56.1156 15.9424C47.977 15.9424 41.1844 23.4007 39.6611 33.2797Z" fill="white"/>
</mask>
<g mask="url(#mask40)">
<path fill-rule="evenodd" clip-rule="evenodd" d="M46.2533 40.5869C47.5869 40.5869 48.6702 41.1784 48.6702 41.9067C48.6702 42.6351 47.5869 43.2265 46.2533 43.2265C44.9192 43.2265 43.8359 42.6351 43.8359 41.9067C43.8359 41.1784 44.9192 40.5869 46.2533 40.5869Z" fill="#A5A5E7"/>
</g>
<mask id="mask41" mask-type="alpha" maskUnits="userSpaceOnUse" x="34" y="15" width="45" height="45">
<path d="M39.6611 33.2797C39.6416 33.2797 39.623 33.2792 39.6035 33.2792C36.6675 33.2792 34.2832 35.646 34.2832 38.5609C34.2832 41.4763 36.6675 43.8426 39.6035 43.8426C39.7647 43.8426 39.9244 43.8357 40.0821 43.8217C42.1931 52.6183 48.5767 59.0172 56.1156 59.0172C63.6811 59.0172 70.0837 52.5725 72.1712 43.7286C72.5271 43.8033 72.8961 43.8426 73.2755 43.8426C76.2115 43.8426 78.5959 41.4763 78.5959 38.5609C78.5959 35.646 76.2115 33.2792 73.2755 33.2792C73.0388 33.2792 72.805 33.2946 72.5767 33.3245C71.0664 23.4231 64.2658 15.9424 56.1156 15.9424C47.977 15.9424 41.1844 23.4007 39.6611 33.2797Z" fill="white"/>
</mask>
<g mask="url(#mask41)">
<path fill-rule="evenodd" clip-rule="evenodd" d="M66.1849 40.5869C67.519 40.5869 68.6018 41.1784 68.6018 41.9067C68.6018 42.6351 67.519 43.2265 66.1849 43.2265C64.8509 43.2265 63.7676 42.6351 63.7676 41.9067C63.7676 41.1784 64.8509 40.5869 66.1849 40.5869Z" fill="#A5A5E7"/>
</g>
<mask id="mask42" mask-type="alpha" maskUnits="userSpaceOnUse" x="34" y="15" width="45" height="45">
<path d="M39.6611 33.2797C39.6416 33.2797 39.623 33.2792 39.6035 33.2792C36.6675 33.2792 34.2832 35.646 34.2832 38.5609C34.2832 41.4763 36.6675 43.8426 39.6035 43.8426C39.7647 43.8426 39.9244 43.8357 40.0821 43.8217C42.1931 52.6183 48.5767 59.0172 56.1156 59.0172C63.6811 59.0172 70.0837 52.5725 72.1712 43.7286C72.5271 43.8033 72.8961 43.8426 73.2755 43.8426C76.2115 43.8426 78.5959 41.4763 78.5959 38.5609C78.5959 35.646 76.2115 33.2792 73.2755 33.2792C73.0388 33.2792 72.805 33.2946 72.5767 33.3245C71.0664 23.4231 64.2658 15.9424 56.1156 15.9424C47.977 15.9424 41.1844 23.4007 39.6611 33.2797Z" fill="white"/>
</mask>
<g mask="url(#mask42)">
<path d="M53.7363 54.6471C53.7363 53.9187 54.8196 52.9668 56.1537 52.9668C57.4878 52.9668 58.5706 53.9187 58.5706 54.6471" stroke="#A5A5E7" stroke-width="0.497854" stroke-linecap="round" stroke-linejoin="round"/>
</g>
<mask id="mask43" mask-type="alpha" maskUnits="userSpaceOnUse" x="34" y="15" width="45" height="45">
<path d="M39.6611 33.2797C39.6416 33.2797 39.623 33.2792 39.6035 33.2792C36.6675 33.2792 34.2832 35.646 34.2832 38.5609C34.2832 41.4763 36.6675 43.8426 39.6035 43.8426C39.7647 43.8426 39.9244 43.8357 40.0821 43.8217C42.1931 52.6183 48.5767 59.0172 56.1156 59.0172C63.6811 59.0172 70.0837 52.5725 72.1712 43.7286C72.5271 43.8033 72.8961 43.8426 73.2755 43.8426C76.2115 43.8426 78.5959 41.4763 78.5959 38.5609C78.5959 35.646 76.2115 33.2792 73.2755 33.2792C73.0388 33.2792 72.805 33.2946 72.5767 33.3245C71.0664 23.4231 64.2658 15.9424 56.1156 15.9424C47.977 15.9424 41.1844 23.4007 39.6611 33.2797Z" fill="white"/>
</mask>
<g mask="url(#mask43)">
<path d="M46.998 35.9657C46.998 35.2373 48.0813 34.1709 49.4154 34.1709" stroke="#A5A5E7" stroke-width="0.497854" stroke-linecap="round" stroke-linejoin="round"/>
</g>
<mask id="mask44" mask-type="alpha" maskUnits="userSpaceOnUse" x="34" y="15" width="45" height="45">
<path d="M39.6611 33.2797C39.6416 33.2797 39.623 33.2792 39.6035 33.2792C36.6675 33.2792 34.2832 35.646 34.2832 38.5609C34.2832 41.4763 36.6675 43.8426 39.6035 43.8426C39.7647 43.8426 39.9244 43.8357 40.0821 43.8217C42.1931 52.6183 48.5767 59.0172 56.1156 59.0172C63.6811 59.0172 70.0837 52.5725 72.1712 43.7286C72.5271 43.8033 72.8961 43.8426 73.2755 43.8426C76.2115 43.8426 78.5959 41.4763 78.5959 38.5609C78.5959 35.646 76.2115 33.2792 73.2755 33.2792C73.0388 33.2792 72.805 33.2946 72.5767 33.3245C71.0664 23.4231 64.2658 15.9424 56.1156 15.9424C47.977 15.9424 41.1844 23.4007 39.6611 33.2797Z" fill="white"/>
</mask>
<g mask="url(#mask44)">
<path d="M65.536 35.9657C65.536 35.2373 64.4532 34.1709 63.1191 34.1709" stroke="#A5A5E7" stroke-width="0.497854" stroke-linecap="round" stroke-linejoin="round"/>
</g>
<mask id="mask45" mask-type="alpha" maskUnits="userSpaceOnUse" x="34" y="15" width="45" height="45">
<path d="M39.6611 33.2797C39.6416 33.2797 39.623 33.2792 39.6035 33.2792C36.6675 33.2792 34.2832 35.646 34.2832 38.5609C34.2832 41.4763 36.6675 43.8426 39.6035 43.8426C39.7647 43.8426 39.9244 43.8357 40.0821 43.8217C42.1931 52.6183 48.5767 59.0172 56.1156 59.0172C63.6811 59.0172 70.0837 52.5725 72.1712 43.7286C72.5271 43.8033 72.8961 43.8426 73.2755 43.8426C76.2115 43.8426 78.5959 41.4763 78.5959 38.5609C78.5959 35.646 76.2115 33.2792 73.2755 33.2792C73.0388 33.2792 72.805 33.2946 72.5767 33.3245C71.0664 23.4231 64.2658 15.9424 56.1156 15.9424C47.977 15.9424 41.1844 23.4007 39.6611 33.2797Z" fill="white"/>
</mask>
<g mask="url(#mask45)">
<path fill-rule="evenodd" clip-rule="evenodd" d="M59.0101 44.8051C58.469 45.7819 57.4237 46.4456 56.2243 46.4456C55.0244 46.4456 53.9791 45.7819 53.438 44.8051C52.9719 43.9647 51.9077 43.6581 51.0632 44.1211C50.2182 44.5846 49.9098 45.643 50.3749 46.4834C51.5112 48.5336 53.7058 49.9231 56.2243 49.9231C58.7423 49.9231 60.9369 48.5336 62.0728 46.4834C62.5383 45.643 62.2304 44.5846 61.3849 44.1211C60.5399 43.6581 59.4757 43.9647 59.0101 44.8051Z" fill="#6969DB"/>
</g>
<mask id="mask46" mask-type="alpha" maskUnits="userSpaceOnUse" x="50" y="43" width="13" height="7">
<path d="M59.0102 44.8054C58.4686 45.7822 57.4238 46.4458 56.2239 46.4458C55.024 46.4458 53.9788 45.7822 53.4376 44.8054C52.9721 43.965 51.9078 43.6583 51.0628 44.1213C50.2178 44.5848 49.9099 45.6433 50.375 46.4837C51.5108 48.5338 53.7054 49.9238 56.2239 49.9238C58.7419 49.9238 60.9365 48.5338 62.0729 46.4837C62.5379 45.6433 62.2301 44.5848 61.3846 44.1213C61.1177 43.975 60.8289 43.9053 60.5436 43.9053C59.9268 43.9053 59.3286 44.2309 59.0102 44.8054Z" fill="white"/>
</mask>
<g mask="url(#mask46)">
<path fill-rule="evenodd" clip-rule="evenodd" d="M56.23 47.8301C59.1219 47.8301 61.4707 49.5835 61.4707 51.7437C61.4707 53.9034 59.1219 55.6568 56.23 55.6568C53.338 55.6568 50.9902 53.9034 50.9902 51.7437C50.9902 49.5835 53.338 47.8301 56.23 47.8301Z" fill="#BDB9E5"/>
</g>
<mask id="mask47" mask-type="alpha" maskUnits="userSpaceOnUse" x="50" y="43" width="13" height="7">
<path d="M59.0102 44.8054C58.4686 45.7822 57.4238 46.4458 56.2239 46.4458C55.024 46.4458 53.9788 45.7822 53.4376 44.8054C52.9721 43.965 51.9078 43.6583 51.0628 44.1213C50.2178 44.5848 49.9099 45.6433 50.375 46.4837C51.5108 48.5338 53.7054 49.9238 56.2239 49.9238C58.7419 49.9238 60.9365 48.5338 62.0729 46.4837C62.5379 45.6433 62.2301 44.5848 61.3846 44.1213C61.1177 43.975 60.8289 43.9053 60.5436 43.9053C59.9268 43.9053 59.3286 44.2309 59.0102 44.8054Z" fill="white"/>
</mask>
<g mask="url(#mask47)">
<path fill-rule="evenodd" clip-rule="evenodd" d="M59.9218 42.207L57.8008 43.1669C57.8008 43.1669 58.1722 44.1467 58.4901 44.9846C58.6047 45.2883 58.8415 45.5307 59.1429 45.6547C59.4452 45.7786 59.7851 45.7727 60.0815 45.6382H60.082C60.6296 45.3903 60.891 44.7625 60.6787 44.2024C60.3488 43.3322 59.9218 42.207 59.9218 42.207Z" fill="white"/>
</g>
<mask id="mask48" mask-type="alpha" maskUnits="userSpaceOnUse" x="50" y="43" width="13" height="7">
<path d="M59.0102 44.8054C58.4686 45.7822 57.4238 46.4458 56.2239 46.4458C55.024 46.4458 53.9788 45.7822 53.4376 44.8054C52.9721 43.965 51.9078 43.6583 51.0628 44.1213C50.2178 44.5848 49.9099 45.6433 50.375 46.4837C51.5108 48.5338 53.7054 49.9238 56.2239 49.9238C58.7419 49.9238 60.9365 48.5338 62.0729 46.4837C62.5379 45.6433 62.2301 44.5848 61.3846 44.1213C61.1177 43.975 60.8289 43.9053 60.5436 43.9053C59.9268 43.9053 59.3286 44.2309 59.0102 44.8054Z" fill="white"/>
</mask>
<g mask="url(#mask48)">
<path fill-rule="evenodd" clip-rule="evenodd" d="M52.5745 42.167L54.6955 43.1269C54.6955 43.1269 54.3241 44.1061 54.0067 44.944C53.8916 45.2482 53.6548 45.4907 53.3529 45.6146C53.0516 45.7386 52.7117 45.7326 52.4143 45.5982C51.8661 45.3503 51.6053 44.7225 51.8181 44.1624C52.148 43.2921 52.5745 42.167 52.5745 42.167Z" fill="white"/>
</g>
<mask id="mask49" mask-type="alpha" maskUnits="userSpaceOnUse" x="50" y="43" width="13" height="7">
<path d="M59.0102 44.8054C58.4686 45.7822 57.4238 46.4458 56.2239 46.4458C55.024 46.4458 53.9788 45.7822 53.4376 44.8054C52.9721 43.965 51.9078 43.6583 51.0628 44.1213C50.2178 44.5848 49.9099 45.6433 50.375 46.4837C51.5108 48.5338 53.7054 49.9238 56.2239 49.9238C58.7419 49.9238 60.9365 48.5338 62.0729 46.4837C62.5379 45.6433 62.2301 44.5848 61.3846 44.1213C61.1177 43.975 60.8289 43.9053 60.5436 43.9053C59.9268 43.9053 59.3286 44.2309 59.0102 44.8054Z" fill="white"/>
</mask>
<g mask="url(#mask49)">
<path fill-rule="evenodd" clip-rule="evenodd" d="M58.5282 44.0088H56.2324V46.5513C56.2324 46.7355 56.306 46.9118 56.4362 47.0422C56.5678 47.1727 56.745 47.2458 56.9308 47.2458H57.8298C58.015 47.2458 58.1923 47.1727 58.3239 47.0422C58.4546 46.9118 58.5282 46.7355 58.5282 46.5513V44.0088Z" fill="white"/>
</g>
<mask id="mask50" mask-type="alpha" maskUnits="userSpaceOnUse" x="50" y="43" width="13" height="7">
<path d="M59.0102 44.8054C58.4686 45.7822 57.4238 46.4458 56.2239 46.4458C55.024 46.4458 53.9788 45.7822 53.4376 44.8054C52.9721 43.965 51.9078 43.6583 51.0628 44.1213C50.2178 44.5848 49.9099 45.6433 50.375 46.4837C51.5108 48.5338 53.7054 49.9238 56.2239 49.9238C58.7419 49.9238 60.9365 48.5338 62.0729 46.4837C62.5379 45.6433 62.2301 44.5848 61.3846 44.1213C61.1177 43.975 60.8289 43.9053 60.5436 43.9053C59.9268 43.9053 59.3286 44.2309 59.0102 44.8054Z" fill="white"/>
</mask>
<g mask="url(#mask50)">
<path fill-rule="evenodd" clip-rule="evenodd" d="M56.2293 44.0088H53.9336V46.5513C53.9336 46.7355 54.0072 46.9118 54.1378 47.0422C54.2685 47.1727 54.4462 47.2458 54.6319 47.2458H55.531C55.7167 47.2458 55.8934 47.1727 56.0251 47.0422C56.1562 46.9118 56.2293 46.7355 56.2293 46.5513V44.0088Z" fill="white"/>
</g>
<mask id="mask51" mask-type="alpha" maskUnits="userSpaceOnUse" x="1" y="3" width="110" height="109">
<path d="M1.99023 57.7521C1.99023 87.4272 26.2155 111.52 56.0545 111.52C85.8934 111.52 110.119 87.4272 110.119 57.7521C110.119 28.0761 85.8934 3.9834 56.0545 3.9834C26.2155 3.9834 1.99023 28.0761 1.99023 57.7521Z" fill="white"/>
</mask>
<g mask="url(#mask51)">
<path fill-rule="evenodd" clip-rule="evenodd" d="M64.7893 8.1582C68.7771 9.90468 71.5634 13.8646 71.5634 18.4658C71.5634 24.6805 66.4808 29.7257 60.2209 29.7257C53.9609 29.7257 48.8789 24.6805 48.8789 18.4658V18.4598C50.2761 19.0717 51.8219 19.4117 53.4468 19.4117C59.7048 19.4117 64.7858 14.3694 64.7893 8.1582Z" fill="#DBDBF3"/>
</g>
<mask id="mask52" mask-type="alpha" maskUnits="userSpaceOnUse" x="48" y="8" width="24" height="22">
<path d="M53.4468 19.4117C51.8219 19.4117 50.2761 19.0717 48.8789 18.4598V18.4663C48.8789 24.681 53.9609 29.7257 60.2214 29.7257C66.4808 29.7257 71.5634 24.681 71.5634 18.4663C71.5634 13.8646 68.7771 9.90468 64.7898 8.1582C64.7858 14.3694 59.7048 19.4117 53.4468 19.4117Z" fill="white"/>
</mask>
<g mask="url(#mask52)">
<path fill-rule="evenodd" clip-rule="evenodd" d="M60.6682 5.47363C64.656 7.2201 67.4423 11.1805 67.4423 15.7817C67.4423 21.9959 62.3597 27.0412 56.0998 27.0412C49.8399 27.0412 44.7578 21.9959 44.7578 15.7817V15.7752C46.155 16.3871 47.7008 16.7271 49.3257 16.7271C55.5837 16.7271 60.6652 11.6849 60.6682 5.47363Z" fill="#E9E9F7"/>
</g>
<mask id="mask53" mask-type="alpha" maskUnits="userSpaceOnUse" x="48" y="8" width="24" height="22">
<path d="M53.4468 19.4117C51.8219 19.4117 50.2761 19.0717 48.8789 18.4598V18.4663C48.8789 24.681 53.9609 29.7257 60.2214 29.7257C66.4808 29.7257 71.5634 24.681 71.5634 18.4663C71.5634 13.8646 68.7771 9.90468 64.7898 8.1582C64.7858 14.3694 59.7048 19.4117 53.4468 19.4117Z" fill="white"/>
</mask>
<g mask="url(#mask53)">
<path opacity="0.304221" fill-rule="evenodd" clip-rule="evenodd" d="M61.5738 7.17285C64.1108 8.28406 65.8839 10.8042 65.8839 13.7316C65.8839 17.686 62.6495 20.8962 58.6663 20.8962C54.6836 20.8962 51.4492 17.686 51.4492 13.7316V13.7276C52.3388 14.1169 53.3224 14.3335 54.3562 14.3335C58.3384 14.3335 61.5717 11.1253 61.5738 7.17285Z" fill="white"/>
</g>
<path fill-rule="evenodd" clip-rule="evenodd" d="M56.0545 3.9834C85.8934 3.9834 110.119 28.0761 110.119 57.7516C110.119 87.4272 85.8934 111.52 56.0545 111.52C26.216 111.52 1.99023 87.4272 1.99023 57.7516C1.99023 28.0761 26.216 3.9834 56.0545 3.9834Z" stroke="#D3D3EF" stroke-width="0.995708" stroke-linecap="round" stroke-linejoin="round"/>
<path fill-rule="evenodd" clip-rule="evenodd" d="M92.7608 78.71L111.078 92.162C112.249 93.0223 113.029 94.3102 113.246 95.743C113.462 97.1754 113.098 98.6346 112.232 99.8001C111.367 100.966 110.072 101.742 108.632 101.957C107.191 102.173 105.724 101.81 104.552 100.95L86.4062 87.623L92.7608 78.71Z" fill="#9191E3"/>
<mask id="mask54" mask-type="alpha" maskUnits="userSpaceOnUse" x="86" y="78" width="28" height="25">
<path d="M86.4062 87.623L104.552 100.95C105.724 101.81 107.191 102.173 108.632 101.957C110.072 101.742 111.367 100.966 112.232 99.8001C113.098 98.6346 113.462 97.1754 113.246 95.743C113.029 94.3102 112.249 93.0223 111.078 92.162L92.7608 78.71L86.4062 87.623Z" fill="white"/>
</mask>
<g mask="url(#mask54)">
<path fill-rule="evenodd" clip-rule="evenodd" d="M88.697 92.1521C88.697 90.7741 88.1463 89.4528 87.1667 88.4785C86.1875 87.5042 84.8584 86.957 83.4733 86.957H83.273C81.8869 86.957 80.5588 87.5042 79.5791 88.4785C78.5995 89.4528 78.0488 90.7741 78.0488 92.1521V112.789H88.697V92.1521Z" fill="#B4B4ED"/>
<path fill-rule="evenodd" clip-rule="evenodd" d="M90.5858 69.9454C94.3908 69.9695 97.3744 73.0895 97.2437 76.9086C97.1136 80.7281 93.9178 83.8093 90.1132 83.7856C86.3077 83.761 83.3242 80.641 83.4553 76.8219C83.586 73.0029 86.7803 69.9217 90.5858 69.9454Z" fill="#DBDBF1"/>
</g>
<path fill-rule="evenodd" clip-rule="evenodd" d="M81.6129 53.7986C81.8882 53.3983 82.4369 53.2957 82.8389 53.5691C84.2275 54.513 87.1169 56.4775 87.1169 56.4775L86.1213 57.9258C86.1213 57.9258 83.2318 55.9613 81.8432 55.0178C81.4412 54.744 81.3381 54.1984 81.6129 53.7986Z" fill="#A5A5E7"/>
<path fill-rule="evenodd" clip-rule="evenodd" d="M81.1227 55.6977C81.3975 55.298 81.9461 55.1949 82.3486 55.4687C83.7368 56.4122 86.6267 58.3767 86.6267 58.3767L85.631 59.8254C85.631 59.8254 82.7411 57.8609 81.3529 56.917C80.951 56.6437 80.8478 56.0975 81.1227 55.6977Z" fill="#A5A5E7"/>
<path fill-rule="evenodd" clip-rule="evenodd" d="M80.7682 57.4756C81.1271 57.1485 81.6848 57.1724 82.0142 57.5289C82.6074 58.1716 83.5115 59.1524 84.1052 59.7956C84.4346 60.1526 84.4105 60.7072 84.0516 61.0348C83.6927 61.3629 83.1345 61.339 82.8056 60.9815C82.2124 60.3388 81.3074 59.3575 80.7142 58.7148C80.3853 58.3578 80.4093 57.8032 80.7682 57.4756Z" fill="#A5A5E7"/>
<path fill-rule="evenodd" clip-rule="evenodd" d="M81.4801 54.0681C81.6032 53.5996 82.0853 53.3193 82.5563 53.4418C84.1833 53.8655 87.5698 54.7467 87.5698 54.7467L87.1233 56.4439C87.1233 56.4439 83.7367 55.5627 82.1098 55.139C81.6388 55.0165 81.3569 54.5371 81.4801 54.0686V54.0681Z" fill="#CBCBEF"/>
<path fill-rule="evenodd" clip-rule="evenodd" d="M80.99 55.9646C81.1127 55.4961 81.5953 55.2158 82.0658 55.3383C83.6927 55.762 87.0788 56.6432 87.0788 56.6432L86.6322 58.3404C86.6322 58.3404 83.2467 57.4587 81.6198 57.0355C81.1482 56.913 80.8664 56.4336 80.99 55.9651V55.9646Z" fill="#CBCBEF"/>
<path fill-rule="evenodd" clip-rule="evenodd" d="M80.4918 57.8913C80.6155 57.4233 81.0975 57.1426 81.5681 57.265C83.195 57.6892 86.5815 58.5699 86.5815 58.5699L86.1345 60.2671C86.1345 60.2671 82.749 59.3859 81.1221 58.9622C80.65 58.8397 80.3687 58.3603 80.4918 57.8918V57.8913Z" fill="#CBCBEF"/>
<path fill-rule="evenodd" clip-rule="evenodd" d="M85.7132 50.8858C85.9445 50.4572 86.4816 50.2969 86.9127 50.5269C89.0322 51.6595 94.7375 54.7089 94.7375 54.7089L93.899 56.2612C93.899 56.2612 88.1937 53.2118 86.0742 52.0792C85.6432 51.8487 85.4815 51.3145 85.7132 50.8863V50.8858Z" fill="#A5A5E7"/>
<mask id="mask55" mask-type="alpha" maskUnits="userSpaceOnUse" x="85" y="50" width="10" height="7">
<path d="M85.7131 50.8859V50.8864C85.4814 51.3145 85.6436 51.8487 86.0741 52.0792C88.1936 53.2118 93.8984 56.2612 93.8984 56.2612L94.7374 54.7089C94.7374 54.7089 89.0316 51.6595 86.9131 50.5269C86.7794 50.4557 86.6357 50.4219 86.4941 50.4219C86.1782 50.4219 85.8728 50.5897 85.7131 50.8859Z" fill="white"/>
</mask>
<g mask="url(#mask55)">
<path fill-rule="evenodd" clip-rule="evenodd" d="M85.9437 50.3353C86.1755 49.9066 86.7126 49.7458 87.1436 49.9763C89.2631 51.1089 94.9684 54.1583 94.9684 54.1583L94.1299 55.7106C94.1299 55.7106 88.4242 52.6613 86.3046 51.5286C85.8736 51.2981 85.7119 50.7639 85.9437 50.3353Z" fill="#CBCBEF"/>
</g>
<mask id="mask56" mask-type="alpha" maskUnits="userSpaceOnUse" x="85" y="50" width="10" height="6">
<path d="M85.8409 50.7081C85.8244 51.0372 85.9951 51.3623 86.3065 51.5286C88.426 52.6612 94.1313 55.7106 94.1313 55.7106L94.6875 54.681C94.1143 54.3748 88.9156 51.5968 86.9147 50.5269C86.7811 50.4557 86.6374 50.4219 86.4957 50.4219C86.2499 50.4219 86.0101 50.5234 85.8409 50.7081Z" fill="white"/>
</mask>
<g mask="url(#mask56)">
<path fill-rule="evenodd" clip-rule="evenodd" d="M87.7334 49.678C87.4085 49.5137 87.038 49.6093 86.9054 49.8931C86.7722 50.1763 86.9259 50.5423 87.2488 50.7115L87.7334 49.678Z" fill="#D5D5F4"/>
</g>
<mask id="mask57" mask-type="alpha" maskUnits="userSpaceOnUse" x="85" y="50" width="10" height="7">
<path d="M85.7131 50.8859V50.8864C85.4814 51.3145 85.6436 51.8487 86.0741 52.0792C88.1936 53.2118 93.8984 56.2612 93.8984 56.2612L94.7374 54.7089C94.7374 54.7089 89.0316 51.6595 86.9131 50.5269C86.7794 50.4557 86.6357 50.4219 86.4941 50.4219C86.1782 50.4219 85.8728 50.5897 85.7131 50.8859Z" fill="white"/>
</mask>
<g mask="url(#mask57)">
<path fill-rule="evenodd" clip-rule="evenodd" d="M87.5009 50.2284C87.1761 50.0646 86.8056 50.1602 86.673 50.4435C86.5398 50.7273 86.6935 51.0927 87.0154 51.262L87.5009 50.2284Z" fill="#A5A5E7"/>
</g>
<path fill-rule="evenodd" clip-rule="evenodd" d="M93.9304 54.415L86.1342 52.3857L84.1934 59.7619L93.1065 62.1208C94.2043 62.8681 98.2781 59.3905 97.4741 57.1865C97.0632 56.0609 95.5984 54.8626 93.9304 54.415Z" fill="#CBCBEF"/>
<mask id="mask58" mask-type="alpha" maskUnits="userSpaceOnUse" x="84" y="52" width="14" height="11">
<path d="M84.1934 59.7619L93.1064 62.1208C94.2043 62.8681 98.2776 59.3905 97.4741 57.187C97.0632 56.0609 95.5984 54.8626 93.9304 54.415L86.1342 52.3857" fill="white"/>
</mask>
<g mask="url(#mask58)">
<path fill-rule="evenodd" clip-rule="evenodd" d="M95.9801 58.8418C96.5603 60.0103 96.4567 61.457 95.5932 62.5488C94.3953 64.0633 92.1866 64.3262 90.6638 63.1348C89.6411 62.3352 89.7257 61.1957 90.2443 61.346C92.2797 61.9365 94.0689 62.0086 95.2658 60.4942C95.6593 59.9968 95.8945 59.4263 95.9801 58.8418Z" fill="#A5A5E7"/>
</g>
<path fill-rule="evenodd" clip-rule="evenodd" d="M97.4481 57.1074L100.815 66.3317L95.1248 68.3858L91.7578 59.1621L97.4481 57.1074Z" fill="#CBCBEF"/>
<mask id="mask59" mask-type="alpha" maskUnits="userSpaceOnUse" x="91" y="57" width="10" height="12">
<path d="M91.7559 59.1621L95.1229 68.3858L100.813 66.3322L97.4466 57.1074" fill="white"/>
</mask>
<g mask="url(#mask59)">
<path fill-rule="evenodd" clip-rule="evenodd" d="M95.9801 58.8418C96.5603 60.0103 96.4567 61.457 95.5932 62.5488C94.3953 64.0633 92.1866 64.3262 90.6638 63.1348C89.6411 62.3352 89.7257 61.1957 90.2443 61.346C92.2797 61.9365 94.0689 62.0086 95.2658 60.4942C95.6593 59.9968 95.8945 59.4263 95.9801 58.8418Z" fill="#A5A5E7"/>
</g>
<path fill-rule="evenodd" clip-rule="evenodd" d="M76.2847 50.7187C76.4069 50.2537 76.8854 49.9754 77.353 50.0968C79.7519 50.7211 86.4213 52.4572 86.4213 52.4572L85.9782 54.1414C85.9782 54.1414 79.3083 52.4054 76.9095 51.7811C76.4414 51.6596 76.1621 51.1837 76.2847 50.7187Z" fill="#CBCBEF"/>
<mask id="mask60" mask-type="alpha" maskUnits="userSpaceOnUse" x="76" y="50" width="11" height="5">
<path d="M76.2847 50.7186C76.1621 51.1836 76.4414 51.6595 76.9095 51.781C79.3083 52.4053 85.9788 54.1413 85.9788 54.1413L86.4213 52.4571C86.4213 52.4571 79.7519 50.721 77.353 50.0967C77.2789 50.0773 77.2043 50.0684 77.1312 50.0684C76.7428 50.0684 76.3874 50.3272 76.2847 50.7186Z" fill="white"/>
</mask>
<g mask="url(#mask60)">
<path fill-rule="evenodd" clip-rule="evenodd" d="M77.4124 50.4382C77.089 50.3207 76.7411 50.4601 76.6335 50.7503C76.5258 51.0411 76.6995 51.3741 77.0204 51.4971L77.4124 50.4382Z" fill="#A5A5E7"/>
</g>
<path fill-rule="evenodd" clip-rule="evenodd" d="M90.9297 63.9225L99.9459 60.667L101.702 65.4783L92.6858 68.7332L90.9297 63.9225Z" fill="#DBDBF1"/>
<path fill-rule="evenodd" clip-rule="evenodd" d="M91.0977 66.2294L101.423 62.502C101.423 62.502 109.443 84.4737 113.18 94.7096C113.677 96.0713 113.61 97.5738 112.993 98.8861C112.376 100.198 111.261 101.214 109.891 101.708C108.523 102.202 107.012 102.136 105.692 101.522C104.373 100.909 103.352 99.7992 102.855 98.4376C99.1182 88.2017 91.0977 66.2294 91.0977 66.2294Z" fill="#9F9FE9"/>
<path fill-rule="evenodd" clip-rule="evenodd" d="M20.8542 105.096C18.3237 105.228 16.1611 103.293 16.028 100.775C15.8943 98.2593 17.8406 96.1081 20.3711 95.9762C22.9016 95.8433 25.0647 97.7794 25.1979 100.296C25.331 102.812 23.3847 104.963 20.8542 105.096Z" fill="white"/>
<path fill-rule="evenodd" clip-rule="evenodd" d="M20.8542 105.096C18.3237 105.228 16.1611 103.293 16.028 100.775C15.8943 98.2593 17.8406 96.1081 20.3711 95.9762C22.9016 95.8433 25.0647 97.7794 25.1979 100.296C25.331 102.812 23.3847 104.963 20.8542 105.096Z" stroke="#D1D1E3" stroke-width="0.995708" stroke-linecap="round" stroke-linejoin="round"/>
<path fill-rule="evenodd" clip-rule="evenodd" d="M13.998 104.336C13.4664 104.364 13.0118 103.957 12.9838 103.428C12.9557 102.899 13.3647 102.447 13.8964 102.419C14.4285 102.391 14.883 102.798 14.9111 103.327C14.9386 103.856 14.5296 104.308 13.998 104.336Z" fill="#F7F7FC"/>
<path fill-rule="evenodd" clip-rule="evenodd" d="M16.6303 22.5723C17.0112 22.5723 17.3211 22.8804 17.3211 23.2593C17.3211 23.6387 17.0112 23.9463 16.6303 23.9463C16.2488 23.9463 15.9395 23.6387 15.9395 23.2593C15.9395 22.8804 16.2488 22.5723 16.6303 22.5723Z" fill="#DFDFF4"/>
<path d="M10.6289 12.3154V21.5302" stroke="#EFEFF9" stroke-width="0.995708" stroke-linecap="round" stroke-linejoin="round"/>
<path d="M15.2129 16.9229H6.04297" stroke="#EFEFF9" stroke-width="0.995708" stroke-linecap="round" stroke-linejoin="round"/>
<path fill-rule="evenodd" clip-rule="evenodd" d="M95.9238 17.6953V26.8294L103.474 22.182L95.9238 17.6953Z" fill="white"/>
<path fill-rule="evenodd" clip-rule="evenodd" d="M95.9238 17.6953V26.8294L103.474 22.182L95.9238 17.6953Z" stroke="#D3D3EF" stroke-width="0.995708" stroke-linecap="round" stroke-linejoin="round"/>
<path fill-rule="evenodd" clip-rule="evenodd" d="M103.247 16.5762C103.587 16.5762 103.863 16.8515 103.863 17.19C103.863 17.5291 103.587 17.8039 103.247 17.8039C102.905 17.8039 102.629 17.5291 102.629 17.19C102.629 16.8515 102.905 16.5762 103.247 16.5762Z" fill="#DFDFF4"/>
</svg>
