<svg width="140" height="140" viewBox="0 0 140 140" fill="none" xmlns="http://www.w3.org/2000/svg">
<path fill-rule="evenodd" clip-rule="evenodd" d="M124.581 34.8763C123.965 31.4406 120.975 28.9404 117.484 28.9404H64.4608C62.3254 28.9404 60.2999 29.8868 58.9299 31.5247C57.5599 33.1627 56.9867 35.3233 57.3641 37.4251C60.2656 53.5858 66.5193 88.4116 69.0207 102.341C69.6378 105.777 72.6265 108.278 76.1175 108.278H129.141C131.277 108.278 133.302 107.331 134.672 105.693C136.042 104.056 136.615 101.894 136.238 99.793C133.336 83.6324 127.082 48.8066 124.581 34.8763Z" fill="#C0C0EF"/>
<path fill-rule="evenodd" clip-rule="evenodd" d="M123.891 37.9544C123.275 34.5187 120.286 32.0186 116.794 32.0186H63.7713C61.6359 32.0186 59.6104 32.9649 58.2404 34.6028C56.8705 36.2408 56.2967 38.4015 56.6746 40.5033C59.4752 56.1028 65.3774 88.9721 67.7941 102.43C68.4112 105.865 71.4004 108.366 74.8902 108.366H127.914C130.05 108.366 132.075 107.42 133.444 105.782C134.815 104.144 135.389 101.983 135.012 99.8813C132.21 84.2818 126.307 51.4125 123.891 37.9544Z" fill="#D8D8F5"/>
<path fill-rule="evenodd" clip-rule="evenodd" d="M123.563 37.9038C123.762 35.8789 123.096 33.8636 121.729 32.3566C120.362 30.8491 118.422 29.9893 116.388 29.9893H63.2021C59.493 29.9893 56.3889 32.8037 56.0266 36.4954C54.623 50.7976 51.2732 84.933 49.7507 100.446C49.5524 102.471 50.2187 104.485 51.5851 105.992C52.952 107.5 54.8916 108.36 56.9267 108.36H110.112C113.821 108.36 116.925 105.545 117.288 101.854C118.691 87.5515 122.041 53.4167 123.563 37.9038Z" fill="#C0C0EF"/>
<path fill-rule="evenodd" clip-rule="evenodd" d="M122.362 36.9282C122.56 34.9033 121.895 32.8886 120.527 31.3811C119.161 29.8735 117.221 29.0137 115.186 29.0137H62.001C58.2913 29.0137 55.1873 31.8281 54.825 35.5198C53.4202 49.8364 50.065 84.0265 48.5412 99.5544C48.3429 101.579 49.0087 103.594 50.3756 105.102C51.742 106.609 53.6822 107.468 55.7167 107.468H108.902C112.611 107.468 115.715 104.655 116.078 100.962C117.483 86.6462 120.838 52.4562 122.362 36.9282Z" fill="#F3F3FC"/>
<mask id="mask0" mask-type="alpha" maskUnits="userSpaceOnUse" x="48" y="29" width="75" height="79">
<path d="M62.0009 29.0127C58.2918 29.0127 55.1877 31.8271 54.8248 35.5188C53.42 49.8354 50.0654 84.0249 48.5416 99.5529C48.3428 101.578 49.0085 103.593 50.3755 105.101C51.7424 106.608 53.6826 107.467 55.7171 107.467H108.902C112.612 107.467 115.716 104.654 116.078 100.962C117.484 86.6452 120.838 52.4552 122.362 36.9272C122.561 34.9017 121.894 32.8876 120.527 31.3801C119.161 29.8725 117.22 29.0127 115.186 29.0127" fill="white"/>
</mask>
<g mask="url(#mask0)">
<path fill-rule="evenodd" clip-rule="evenodd" d="M52.1873 45.1512H123.337C123.337 45.1512 123.914 39.2784 124.427 34.0503C124.627 32.0104 123.956 29.9813 122.578 28.4629C121.202 26.944 119.248 26.0781 117.198 26.0781H60.675C56.9455 26.0781 53.8222 28.9034 53.4491 32.6143C52.8933 38.1356 52.1873 45.1512 52.1873 45.1512Z" fill="#C0C0EF"/>
</g>
<path fill-rule="evenodd" clip-rule="evenodd" d="M73.099 32.4912C74.0363 32.4912 74.7129 33.3558 74.6083 34.4206C74.5038 35.4859 73.6578 36.3505 72.7198 36.3505C71.7819 36.3505 71.1053 35.4859 71.2093 34.4206C71.3144 33.3558 72.1604 32.4912 73.099 32.4912Z" fill="#ADADEA"/>
<mask id="mask1" mask-type="alpha" maskUnits="userSpaceOnUse" x="71" y="32" width="4" height="5">
<path d="M71.2099 34.4206C71.1053 35.4859 71.7819 36.3505 72.7198 36.3505C73.6578 36.3505 74.5038 35.4859 74.6083 34.4206C74.7129 33.3558 74.0363 32.4912 73.099 32.4912C72.161 32.4912 71.3144 33.3558 71.2099 34.4206Z" fill="white"/>
</mask>
<g mask="url(#mask1)">
<path fill-rule="evenodd" clip-rule="evenodd" d="M73.9985 33.1377C74.9365 33.1377 75.613 34.0023 75.5085 35.0671C75.4039 36.1324 74.5573 36.997 73.6194 36.997C72.682 36.997 72.0055 36.1324 72.1094 35.0671C72.2146 34.0023 73.06 33.1377 73.9985 33.1377Z" fill="#9191E3"/>
</g>
<path fill-rule="evenodd" clip-rule="evenodd" d="M98.7546 32.4912C99.692 32.4912 100.369 33.3558 100.264 34.4206C100.16 35.4859 99.3134 36.3505 98.3749 36.3505C97.4375 36.3505 96.7616 35.4859 96.8649 34.4206C96.9695 33.3558 97.8161 32.4912 98.7546 32.4912Z" fill="#ADADEA"/>
<mask id="mask2" mask-type="alpha" maskUnits="userSpaceOnUse" x="96" y="32" width="5" height="5">
<path d="M96.8644 34.4206C96.7611 35.4859 97.4371 36.3505 98.3744 36.3505C99.3129 36.3505 100.16 35.4859 100.263 34.4206C100.368 33.3558 99.6915 32.4912 98.7541 32.4912C97.8162 32.4912 96.969 33.3558 96.8644 34.4206Z" fill="white"/>
</mask>
<g mask="url(#mask2)">
<path fill-rule="evenodd" clip-rule="evenodd" d="M99.7832 33.1377C100.721 33.1377 101.398 34.0023 101.293 35.0671C101.189 36.1324 100.343 36.997 99.4046 36.997C98.4667 36.997 97.7901 36.1324 97.8941 35.0671C97.9986 34.0023 98.8452 33.1377 99.7832 33.1377Z" fill="#9191E3"/>
</g>
<path fill-rule="evenodd" clip-rule="evenodd" d="M74.594 33.8788C74.7052 34.5554 74.4198 35.1328 74.4204 35.134C71.1331 33.5898 68.8552 30.249 68.8552 26.3795C68.8552 21.0445 73.1868 16.7129 78.523 16.7129C83.8581 16.7129 88.1896 21.0445 88.1896 26.3795C88.1896 27.2934 88.0629 28.1773 87.8255 29.0143H86.5697C86.8413 28.1845 86.9879 27.2994 86.9879 26.3795C86.9879 21.7078 83.1947 17.9146 78.523 17.9146C73.8508 17.9146 70.0569 21.7078 70.0569 26.3795C70.0569 29.6253 71.8884 32.447 74.5724 33.8674C74.576 33.8692 74.5904 33.877 74.594 33.8788Z" fill="#ADADEA"/>
<path fill-rule="evenodd" clip-rule="evenodd" d="M100.238 33.8788C100.349 34.5554 100.064 35.1328 100.065 35.134C96.778 33.5898 94.5007 30.249 94.5007 26.3795C94.5007 21.0445 98.8323 16.7129 104.167 16.7129C109.503 16.7129 113.835 21.0445 113.835 26.3795C113.835 27.2934 113.707 28.1773 113.47 29.0143H112.214C112.486 28.1845 112.633 27.2994 112.633 26.3795C112.633 21.7078 108.839 17.9146 104.167 17.9146C99.4951 17.9146 95.7024 21.7078 95.7024 26.3795C95.7024 29.6253 97.5327 32.447 100.217 33.8674C100.22 33.8692 100.235 33.877 100.238 33.8788Z" fill="#ADADEA"/>
<path fill-rule="evenodd" clip-rule="evenodd" d="M52.7308 50.3266C53.962 49.6891 55.4774 50.1703 56.1149 51.4015C57.4236 53.9275 59.544 58.0218 60.8527 60.5484C61.4908 61.7795 61.0095 63.2943 59.7783 63.9324C58.5472 64.5699 57.0318 64.0886 56.3943 62.8575C55.085 60.3315 52.9646 56.2372 51.6559 53.7106C51.0184 52.4794 51.4997 50.9647 52.7308 50.3266Z" fill="#A5A5E7"/>
<path fill-rule="evenodd" clip-rule="evenodd" d="M71.704 54.7744C61.1283 54.7744 52.542 63.3607 52.542 73.937C52.542 84.5121 61.1283 93.0984 71.704 93.0984C82.2803 93.0984 90.8665 84.5121 90.8665 73.937C90.8665 63.3607 82.2803 54.7744 71.704 54.7744Z" fill="#B6B6EF"/>
<mask id="mask3" mask-type="alpha" maskUnits="userSpaceOnUse" x="52" y="54" width="39" height="40">
<path d="M52.5422 73.938C52.5422 84.5131 61.1285 93.0999 71.7042 93.0999C82.2799 93.0999 90.8668 84.5131 90.8668 73.938C90.8668 63.3617 82.2799 54.7754 71.7042 54.7754C61.1285 54.7754 52.5422 63.3617 52.5422 73.938Z" fill="white"/>
</mask>
<g mask="url(#mask3)">
<path fill-rule="evenodd" clip-rule="evenodd" d="M74.5272 51.9521C63.9515 51.9521 55.3652 60.5384 55.3652 71.1153C55.3652 81.6904 63.9515 90.2767 74.5272 90.2767C85.1035 90.2767 93.6898 81.6904 93.6898 71.1153C93.6898 60.5384 85.1035 51.9521 74.5272 51.9521Z" fill="#CBCBF3"/>
</g>
<mask id="mask4" mask-type="alpha" maskUnits="userSpaceOnUse" x="52" y="54" width="39" height="40">
<path d="M52.5422 73.938C52.5422 84.5131 61.1285 93.0999 71.7042 93.0999C82.2799 93.0999 90.8668 84.5131 90.8668 73.938C90.8668 63.3617 82.2799 54.7754 71.7042 54.7754C61.1285 54.7754 52.5422 63.3617 52.5422 73.938Z" fill="white"/>
</mask>
<g mask="url(#mask4)">
<path fill-rule="evenodd" clip-rule="evenodd" d="M76.3729 55.93C75.2968 57.4159 77.0495 60.5242 80.2839 62.8669C83.5189 65.2091 87.0183 65.9055 88.0945 64.419C89.1706 62.933 87.4179 59.8248 84.1835 57.4826C80.9484 55.1399 77.449 54.4441 76.3729 55.93Z" fill="#D6D6F6"/>
</g>
<mask id="mask5" mask-type="alpha" maskUnits="userSpaceOnUse" x="52" y="54" width="39" height="40">
<path d="M52.5422 73.938C52.5422 84.5131 61.1285 93.0999 71.7042 93.0999C82.2799 93.0999 90.8668 84.5131 90.8668 73.938C90.8668 63.3617 82.2799 54.7754 71.7042 54.7754C61.1285 54.7754 52.5422 63.3617 52.5422 73.938Z" fill="white"/>
</mask>
<g mask="url(#mask5)">
<path fill-rule="evenodd" clip-rule="evenodd" d="M83.7974 72.0283C82.1799 72.0283 80.8652 72.75 80.8652 73.6386C80.8652 74.5267 82.1799 75.2477 83.7974 75.2477C85.4155 75.2477 86.729 74.5267 86.729 73.6386C86.729 72.75 85.4155 72.0283 83.7974 72.0283Z" fill="#ACACEB"/>
</g>
<mask id="mask6" mask-type="alpha" maskUnits="userSpaceOnUse" x="52" y="54" width="39" height="40">
<path d="M52.5422 73.938C52.5422 84.5131 61.1285 93.0999 71.7042 93.0999C82.2799 93.0999 90.8668 84.5131 90.8668 73.938C90.8668 63.3617 82.2799 54.7754 71.7042 54.7754C61.1285 54.7754 52.5422 63.3617 52.5422 73.938Z" fill="white"/>
</mask>
<g mask="url(#mask6)">
<path fill-rule="evenodd" clip-rule="evenodd" d="M59.6213 72.0283C58.0032 72.0283 56.6897 72.75 56.6897 73.6386C56.6897 74.5267 58.0032 75.2477 59.6213 75.2477C61.2394 75.2477 62.5529 74.5267 62.5529 73.6386C62.5529 72.75 61.2394 72.0283 59.6213 72.0283Z" fill="#ACACEB"/>
</g>
<mask id="mask7" mask-type="alpha" maskUnits="userSpaceOnUse" x="52" y="54" width="39" height="40">
<path d="M52.5422 73.938C52.5422 84.5131 61.1285 93.0999 71.7042 93.0999C82.2799 93.0999 90.8668 84.5131 90.8668 73.938C90.8668 63.3617 82.2799 54.7754 71.7042 54.7754C61.1285 54.7754 52.5422 63.3617 52.5422 73.938Z" fill="white"/>
</mask>
<g mask="url(#mask7)">
<path d="M65.4703 69.4916C65.4703 68.7045 64.7438 68.0664 63.8491 68.0664C62.9545 68.0664 62.228 68.7045 62.228 69.4916" stroke="#ACACEB" stroke-width="1.80258" stroke-linecap="round" stroke-linejoin="round"/>
</g>
<mask id="mask8" mask-type="alpha" maskUnits="userSpaceOnUse" x="52" y="54" width="39" height="40">
<path d="M52.5422 73.938C52.5422 84.5131 61.1285 93.0999 71.7042 93.0999C82.2799 93.0999 90.8668 84.5131 90.8668 73.938C90.8668 63.3617 82.2799 54.7754 71.7042 54.7754C61.1285 54.7754 52.5422 63.3617 52.5422 73.938Z" fill="white"/>
</mask>
<g mask="url(#mask8)">
<path d="M81.2685 69.4916C81.2685 68.7045 80.5426 68.0664 79.648 68.0664C78.7533 68.0664 78.0269 68.7045 78.0269 69.4916" stroke="#ACACEB" stroke-width="1.80258" stroke-linecap="round" stroke-linejoin="round"/>
</g>
<mask id="mask9" mask-type="alpha" maskUnits="userSpaceOnUse" x="52" y="54" width="39" height="40">
<path d="M52.5422 73.938C52.5422 84.5131 61.1285 93.0999 71.7042 93.0999C82.2799 93.0999 90.8668 84.5131 90.8668 73.938C90.8668 63.3617 82.2799 54.7754 71.7042 54.7754C61.1285 54.7754 52.5422 63.3617 52.5422 73.938Z" fill="white"/>
</mask>
<g mask="url(#mask9)">
<path d="M65.4703 69.4916C65.4703 68.7045 64.7438 68.0664 63.8491 68.0664C62.9545 68.0664 62.228 68.7045 62.228 69.4916" stroke="#6969DB" stroke-width="0.600858" stroke-linecap="round" stroke-linejoin="round"/>
</g>
<mask id="mask10" mask-type="alpha" maskUnits="userSpaceOnUse" x="52" y="54" width="39" height="40">
<path d="M52.5422 73.938C52.5422 84.5131 61.1285 93.0999 71.7042 93.0999C82.2799 93.0999 90.8668 84.5131 90.8668 73.938C90.8668 63.3617 82.2799 54.7754 71.7042 54.7754C61.1285 54.7754 52.5422 63.3617 52.5422 73.938Z" fill="white"/>
</mask>
<g mask="url(#mask10)">
<path d="M81.2685 69.4916C81.2685 68.7045 80.5426 68.0664 79.648 68.0664C78.7533 68.0664 78.0269 68.7045 78.0269 69.4916" stroke="#6969DB" stroke-width="0.600858" stroke-linecap="round" stroke-linejoin="round"/>
</g>
<mask id="mask11" mask-type="alpha" maskUnits="userSpaceOnUse" x="52" y="54" width="39" height="40">
<path d="M52.5422 73.938C52.5422 84.5131 61.1285 93.0999 71.7042 93.0999C82.2799 93.0999 90.8668 84.5131 90.8668 73.938C90.8668 63.3617 82.2799 54.7754 71.7042 54.7754C61.1285 54.7754 52.5422 63.3617 52.5422 73.938Z" fill="white"/>
</mask>
<g mask="url(#mask11)">
<path fill-rule="evenodd" clip-rule="evenodd" d="M68.9838 77.4625C69.5126 78.4221 70.5323 79.0734 71.7039 79.0734C72.8762 79.0734 73.8965 78.4221 74.4252 77.4625C74.9564 76.4981 76.1719 76.146 77.1363 76.6772C78.1013 77.2089 78.4534 78.4245 77.9216 79.3889C76.7133 81.5808 74.3808 83.0655 71.7039 83.0655C69.0271 83.0655 66.694 81.5808 65.4874 79.3889C64.9551 78.4245 65.3066 77.2089 66.2716 76.6772C67.2365 76.146 68.4521 76.4981 68.9838 77.4625Z" fill="#6969DB"/>
</g>
<mask id="mask12" mask-type="alpha" maskUnits="userSpaceOnUse" x="65" y="76" width="14" height="8">
<path d="M74.4251 77.4626C73.8963 78.4221 72.876 79.0729 71.7044 79.0729C70.5327 79.0729 69.5124 78.4221 68.9837 77.4626C68.4525 76.4982 67.2364 76.1461 66.272 76.6772C65.307 77.209 64.9555 78.4239 65.4873 79.3889C66.6944 81.5808 69.0269 83.0656 71.7044 83.0656C74.3812 83.0656 76.7137 81.5808 77.9214 79.3889C78.4532 78.4239 78.1011 77.209 77.1367 76.6772C76.8315 76.5096 76.5016 76.4297 76.176 76.4297C75.4717 76.4297 74.7886 76.8028 74.4251 77.4626Z" fill="white"/>
</mask>
<g mask="url(#mask12)">
<path fill-rule="evenodd" clip-rule="evenodd" d="M71.7535 80.8418C68.295 80.8418 65.4866 82.5092 65.4866 84.5635C65.4866 86.6172 68.295 88.2852 71.7535 88.2852C75.2127 88.2852 78.0205 86.6172 78.0205 84.5635C78.0205 82.5092 75.2127 80.8418 71.7535 80.8418Z" fill="#DBDBF5"/>
</g>
<mask id="mask13" mask-type="alpha" maskUnits="userSpaceOnUse" x="65" y="76" width="14" height="8">
<path d="M74.4251 77.4626C73.8963 78.4221 72.876 79.0729 71.7044 79.0729C70.5327 79.0729 69.5124 78.4221 68.9837 77.4626C68.4525 76.4982 67.2364 76.1461 66.272 76.6772C65.307 77.209 64.9555 78.4239 65.4873 79.3889C66.6944 81.5808 69.0269 83.0656 71.7044 83.0656C74.3812 83.0656 76.7137 81.5808 77.9214 79.3889C78.4532 78.4239 78.1011 77.209 77.1367 76.6772C76.8315 76.5096 76.5016 76.4297 76.176 76.4297C75.4717 76.4297 74.7886 76.8028 74.4251 77.4626Z" fill="white"/>
</mask>
<g mask="url(#mask13)">
<path fill-rule="evenodd" clip-rule="evenodd" d="M69.5308 74.6101C69.9526 75.5697 70.7686 76.221 71.7041 76.221C72.6402 76.221 73.455 75.5697 73.8774 74.6101C74.3016 73.6451 75.2726 73.2936 76.0429 73.8248C76.8138 74.3565 77.0956 75.5715 76.6708 76.5364C75.7058 78.7284 73.8425 80.2125 71.7041 80.2125C69.5662 80.2125 67.703 78.7284 66.7386 76.5364C66.3138 75.5715 66.5938 74.3565 67.3653 73.8248C68.1356 73.2936 69.106 73.6451 69.5308 74.6101Z" fill="white"/>
</g>
<mask id="mask14" mask-type="alpha" maskUnits="userSpaceOnUse" x="52" y="54" width="39" height="40">
<path d="M52.5422 73.938C52.5422 84.5131 61.1285 93.0999 71.7042 93.0999C82.2799 93.0999 90.8668 84.5131 90.8668 73.938C90.8668 63.3617 82.2799 54.7754 71.7042 54.7754C61.1285 54.7754 52.5422 63.3617 52.5422 73.938Z" fill="white"/>
</mask>
<g mask="url(#mask14)">
<path fill-rule="evenodd" clip-rule="evenodd" d="M80.6401 67.5996C81.0415 67.5996 81.3672 67.8063 81.3672 68.0611C81.3672 68.3146 81.0415 68.5213 80.6401 68.5213C80.2388 68.5213 79.9131 68.3146 79.9131 68.0611C79.9131 67.8063 80.2388 67.5996 80.6401 67.5996Z" fill="white"/>
</g>
<mask id="mask15" mask-type="alpha" maskUnits="userSpaceOnUse" x="52" y="54" width="39" height="40">
<path d="M52.5422 73.938C52.5422 84.5131 61.1285 93.0999 71.7042 93.0999C82.2799 93.0999 90.8668 84.5131 90.8668 73.938C90.8668 63.3617 82.2799 54.7754 71.7042 54.7754C61.1285 54.7754 52.5422 63.3617 52.5422 73.938Z" fill="white"/>
</mask>
<g mask="url(#mask15)">
<path fill-rule="evenodd" clip-rule="evenodd" d="M65.0901 67.5996C65.4914 67.5996 65.8171 67.8063 65.8171 68.0611C65.8171 68.3146 65.4914 68.5213 65.0901 68.5213C64.6887 68.5213 64.363 68.3146 64.363 68.0611C64.363 67.8063 64.6887 67.5996 65.0901 67.5996Z" fill="white"/>
</g>
<path fill-rule="evenodd" clip-rule="evenodd" d="M31.2725 90.7217L4.32642 86.0945L7.22075 69.2393L34.1668 73.8665L31.2725 90.7217Z" fill="#C4C4EE"/>
<mask id="mask16" mask-type="alpha" maskUnits="userSpaceOnUse" x="4" y="69" width="31" height="22">
<path d="M4.32642 86.0945L31.2725 90.7217L34.1674 73.8665L7.22075 69.2393L4.32642 86.0945Z" fill="white"/>
</mask>
<g mask="url(#mask16)">
<path fill-rule="evenodd" clip-rule="evenodd" d="M31.335 80.603L4.38892 75.9758L7.28325 59.1211L34.2293 63.7471L31.335 80.603Z" fill="#D4D4F2"/>
</g>
<path fill-rule="evenodd" clip-rule="evenodd" d="M41.7762 47.0607C41.2637 46.6359 40.9405 46.0249 40.8786 45.3621C40.8167 44.6988 41.0204 44.0384 41.4452 43.5259C43.0387 41.6031 45.4697 38.6703 47.0632 36.7476C47.488 36.2345 48.0991 35.9118 48.7618 35.8499C49.4252 35.7874 50.0855 35.9917 50.5981 36.4165C51.1112 36.8413 51.4338 37.4524 51.4957 38.1158C51.5582 38.7785 51.3539 39.4388 50.9291 39.9514C49.3356 41.8741 46.9052 44.8075 45.3117 46.7303C44.8863 47.2428 44.2752 47.5655 43.6125 47.6279C42.9497 47.6898 42.2894 47.4861 41.7762 47.0613V47.0607Z" fill="#C4C4EE"/>
<mask id="mask17" mask-type="alpha" maskUnits="userSpaceOnUse" x="40" y="35" width="12" height="13">
<path d="M48.7622 35.8497C48.0988 35.9116 47.4878 36.2342 47.063 36.7474C45.4701 38.6707 43.0384 41.6029 41.4455 43.5256C41.0201 44.0382 40.8164 44.6985 40.8783 45.3619C40.9408 46.0246 41.2635 46.6357 41.7766 47.0605V47.0611C42.2891 47.4859 42.9495 47.6896 43.6122 47.6277C44.275 47.5652 44.886 47.242 45.3115 46.73C46.9049 44.8073 49.336 41.8739 50.9295 39.9511C51.3537 39.4386 51.558 38.7783 51.4955 38.1155C51.4336 37.4522 51.1109 36.8411 50.5978 36.4157C50.146 36.042 49.5793 35.8389 48.9977 35.8389C48.9196 35.8389 48.8409 35.8425 48.7622 35.8497Z" fill="white"/>
</mask>
<g mask="url(#mask17)">
<path fill-rule="evenodd" clip-rule="evenodd" d="M40.6161 45.9791C40.1036 45.5543 39.7809 44.9427 39.7184 44.2799C39.6565 43.6172 39.8602 42.9568 40.285 42.4437C41.8791 40.5209 44.3096 37.5882 45.903 35.6654C46.3278 35.1529 46.9389 34.8296 47.6017 34.7677C48.265 34.7058 48.9254 34.9095 49.4385 35.3343C49.951 35.7591 50.2737 36.3702 50.3356 37.0336C50.3981 37.6963 50.1938 38.3567 49.769 38.8698C48.1761 40.7919 45.745 43.7253 44.1515 45.6481C43.7267 46.1606 43.1157 46.4839 42.4523 46.5457C41.7896 46.6076 41.1292 46.4039 40.6161 45.9791Z" fill="#D4D4F2"/>
</g>
<mask id="mask18" mask-type="alpha" maskUnits="userSpaceOnUse" x="40" y="35" width="12" height="13">
<path d="M48.7622 35.8497C48.0988 35.9116 47.4878 36.2342 47.063 36.7474C45.4701 38.6707 43.0384 41.6029 41.4455 43.5256C41.0201 44.0382 40.8164 44.6985 40.8783 45.3619C40.9408 46.0246 41.2635 46.6357 41.7766 47.0605V47.0611C42.2891 47.4859 42.9495 47.6896 43.6122 47.6277C44.275 47.5652 44.886 47.242 45.3115 46.73C46.9049 44.8073 49.336 41.8739 50.9295 39.9511C51.3537 39.4386 51.558 38.7783 51.4955 38.1155C51.4336 37.4522 51.1109 36.8411 50.5978 36.4157C50.146 36.042 49.5793 35.8389 48.9977 35.8389C48.9196 35.8389 48.8409 35.8425 48.7622 35.8497Z" fill="white"/>
</mask>
<g mask="url(#mask18)">
<path fill-rule="evenodd" clip-rule="evenodd" d="M49.9711 39.4703C50.6489 38.7637 50.6843 37.6959 50.0462 37.0813C49.4087 36.466 48.3368 36.5333 47.647 37.2285L49.9711 39.4703Z" fill="#A5A5E7"/>
</g>
<path fill-rule="evenodd" clip-rule="evenodd" d="M46.5672 45.2217L34.6113 59.655C34.6113 59.655 34.4287 59.4993 34.1433 59.2566C32.277 57.6697 32.0337 54.8769 33.5977 52.9914C37.1241 48.741 42.6995 42.0186 42.6995 42.0186L46.5672 45.2217Z" fill="#C4C4EE"/>
<mask id="mask19" mask-type="alpha" maskUnits="userSpaceOnUse" x="32" y="42" width="15" height="18">
<path d="M33.5982 52.9914C32.0335 54.8769 32.2769 57.6697 34.1432 59.2566C34.4286 59.4993 34.6112 59.655 34.6112 59.655L46.5677 45.2217L42.7 42.0186C42.7 42.0186 37.124 48.741 33.5982 52.9914Z" fill="white"/>
</mask>
<g mask="url(#mask19)">
<path fill-rule="evenodd" clip-rule="evenodd" d="M46.4062 42.9215L34.4293 57.3841C34.4293 57.3841 34.2467 57.2285 33.9606 56.9857C32.0944 55.3989 31.851 52.6061 33.4151 50.7206C35.1912 48.5785 37.4883 45.8086 39.3335 43.5836C41.1043 41.4487 44.2702 41.1525 46.4062 42.9215Z" fill="#D4D4F2"/>
</g>
<path fill-rule="evenodd" clip-rule="evenodd" d="M48.4884 46.9456C49.1541 46.9552 49.7892 47.2292 50.2531 47.7063C50.717 48.1839 50.9723 48.8263 50.9627 49.492C50.893 54.2791 50.7488 64.2413 50.7488 64.2413L45.728 64.1686C45.728 64.1686 45.8722 54.2063 45.9413 49.4193C45.9509 48.7536 46.2249 48.1191 46.7026 47.6552C47.1803 47.1913 47.8226 46.936 48.4884 46.9456Z" fill="#A5A5E7"/>
<path fill-rule="evenodd" clip-rule="evenodd" d="M50.407 47.8764C50.8227 48.3961 51.0156 49.0601 50.9423 49.7216C50.869 50.3838 50.5355 50.9894 50.0158 51.4052C46.2779 54.3969 38.4997 60.6224 38.4997 60.6224L35.3621 56.7018C35.3621 56.7018 43.1402 50.4763 46.8781 47.4852C47.3979 47.0688 48.0618 46.8766 48.7233 46.9499C49.3855 47.0232 49.9912 47.3566 50.407 47.8764Z" fill="#D4D4F2"/>
<path fill-rule="evenodd" clip-rule="evenodd" d="M55.8403 50.9428C56.2561 51.4631 56.449 52.127 56.3757 52.7886C56.3024 53.4501 55.9689 54.0558 55.4491 54.4722C51.7112 57.4639 43.9331 63.6888 43.9331 63.6888L40.7954 59.7688C40.7954 59.7688 48.5735 53.5433 52.3115 50.5516C52.8312 50.1358 53.4952 49.9429 54.1567 50.0162C54.8188 50.0901 55.4245 50.423 55.8403 50.9428Z" fill="#D4D4F2"/>
<path fill-rule="evenodd" clip-rule="evenodd" d="M58.2397 83.7142C57.9724 84.3252 57.4718 84.8041 56.8494 85.0457C56.2269 85.286 55.5347 85.2692 54.9248 84.997C52.9997 84.1384 50.5674 83.0532 50.5674 83.0532L52.5899 78.4326C52.5899 78.4326 55.0227 79.5184 56.9479 80.3764C58.2223 80.9454 58.7991 82.4355 58.2397 83.7136V83.7142Z" fill="#D4D4F2"/>
<mask id="mask20" mask-type="alpha" maskUnits="userSpaceOnUse" x="50" y="78" width="9" height="8">
<path d="M50.5679 83.0532C50.5679 83.0532 52.9995 84.1384 54.9247 84.997C55.534 85.2692 56.2268 85.286 56.8492 85.0457C57.4717 84.8047 57.9722 84.3252 58.2396 83.7142V83.7136C58.799 82.4355 58.2216 80.9454 56.9478 80.3764C55.0232 79.5184 52.5898 78.4326 52.5898 78.4326" fill="white"/>
</mask>
<g mask="url(#mask20)">
<path fill-rule="evenodd" clip-rule="evenodd" d="M57.316 85.9692C57.063 86.5461 56.5919 86.9997 56.0049 87.2292C55.4184 87.4588 54.7641 87.4455 54.1867 87.1926C49.1827 85.003 37.2839 79.796 37.2839 79.796L39.3064 75.1748C39.3064 75.1748 51.2052 80.3818 56.2092 82.5726C56.7866 82.8249 57.2396 83.2966 57.4692 83.883C57.6987 84.4701 57.6855 85.1238 57.4331 85.7012C57.3941 85.7902 57.355 85.8803 57.316 85.9692Z" fill="#C4C4EE"/>
</g>
<mask id="mask21" mask-type="alpha" maskUnits="userSpaceOnUse" x="50" y="78" width="9" height="8">
<path d="M50.5679 83.0532C50.5679 83.0532 52.9995 84.1384 54.9247 84.997C55.534 85.2692 56.2268 85.286 56.8492 85.0457C57.4717 84.8047 57.9722 84.3252 58.2396 83.7142V83.7136C58.799 82.4355 58.2216 80.9454 56.9478 80.3764C55.0232 79.5184 52.5898 78.4326 52.5898 78.4326L50.5679 83.0532Z" fill="white"/>
</mask>
<g mask="url(#mask21)">
<path fill-rule="evenodd" clip-rule="evenodd" d="M54.1477 86.3603C54.8687 86.6499 55.7129 86.2125 56.0368 85.3779C56.3607 84.5439 56.0434 83.6246 55.3278 83.3193L54.1477 86.3603Z" fill="#A5A5E7"/>
</g>
<path fill-rule="evenodd" clip-rule="evenodd" d="M53.7075 79.4145C54.0998 80.1139 54.1743 80.9473 53.913 81.7056C53.6516 82.4632 53.0784 83.0737 52.3381 83.382C46.8204 85.6826 35.3915 90.4462 35.3915 90.4462L32.365 81.9525C32.365 81.9525 46.6282 79.2469 51.4044 78.3408C52.3231 78.1671 53.2502 78.5991 53.7075 79.4145Z" fill="#D4D4F2"/>
<mask id="mask22" mask-type="alpha" maskUnits="userSpaceOnUse" x="32" y="78" width="23" height="13">
<path d="M51.4049 78.3406C46.6281 79.2461 32.3655 81.9523 32.3655 81.9523L35.3914 90.4461C35.3914 90.4461 46.8203 85.6819 52.338 83.3818C53.0783 83.0736 53.6515 82.4631 53.9129 81.7054C54.1748 80.9471 54.0997 80.1137 53.7074 79.4143C53.3174 78.7185 52.5862 78.3021 51.8099 78.3027C51.6759 78.3027 51.5401 78.3148 51.4049 78.3406Z" fill="white"/>
</mask>
<g mask="url(#mask22)">
<path fill-rule="evenodd" clip-rule="evenodd" d="M55.3225 82.8406C55.6266 83.4084 55.6752 84.079 55.4571 84.6847C55.2378 85.2903 54.7722 85.7752 54.1755 86.018C48.9739 88.1348 36.9014 93.0456 36.9014 93.0456L35.1511 88.2117C35.1511 88.2117 46.7477 83.5839 51.8165 81.5614C53.1402 81.0327 54.6496 81.5836 55.3225 82.84V82.8406Z" fill="#C4C4EE"/>
</g>
<path fill-rule="evenodd" clip-rule="evenodd" d="M42.2011 82.7096L53.3296 62.6505C53.3296 62.6505 40.5992 55.7076 35.7894 53.0837C35.3117 52.8235 34.7499 52.7664 34.2301 52.925C33.7104 53.0831 33.276 53.4442 33.0254 53.9267C31.0101 57.8016 26.2874 66.8836 23.7025 71.8545C21.9828 75.1586 21.5749 78.9903 22.5603 82.5822C23.637 86.4511 26.1095 89.8171 31.2102 90.7256C36.6901 91.7014 39.2185 88.0801 42.2011 82.7096Z" fill="#D4D4F2"/>
<mask id="mask23" mask-type="alpha" maskUnits="userSpaceOnUse" x="22" y="52" width="32" height="39">
<path d="M34.23 52.9252C33.7102 53.0833 33.2758 53.445 33.0258 53.9269C31.01 57.8018 26.2878 66.8838 23.7029 71.8547C21.9827 75.1588 21.5747 78.9905 22.5607 82.5824C23.6368 86.4513 26.11 89.8173 31.21 90.7258C36.6899 91.7016 39.2183 88.0809 42.2009 82.7098L53.3294 62.6507C53.3294 62.6507 40.5996 55.7078 35.7892 53.0839C35.4887 52.9204 35.1553 52.8369 34.82 52.8369C34.6217 52.8369 34.4234 52.8664 34.23 52.9252Z" fill="white"/>
</mask>
<g mask="url(#mask23)">
<path fill-rule="evenodd" clip-rule="evenodd" d="M21.8046 78.3701C20.4671 83.2533 21.9398 88.7199 26.0407 92.2914C31.7278 97.2455 40.3297 96.6921 45.2375 91.0578C48.5344 87.273 47.3633 82.9703 45.5013 83.913C38.1954 87.6101 31.4412 89.1465 25.7541 84.1924C23.8866 82.5659 22.5647 80.5476 21.8046 78.3701Z" fill="#C4C4EE"/>
</g>
<mask id="mask24" mask-type="alpha" maskUnits="userSpaceOnUse" x="22" y="52" width="32" height="39">
<path d="M34.23 52.9252C33.7102 53.0833 33.2758 53.445 33.0258 53.9269C31.01 57.8018 26.2878 66.8838 23.7029 71.8547C21.9827 75.1588 21.5747 78.9905 22.5607 82.5824C23.6368 86.4513 26.11 89.8173 31.21 90.7258C36.6899 91.7016 39.2183 88.0809 42.2009 82.7098L53.3294 62.6507C53.3294 62.6507 40.5996 55.7078 35.7892 53.0839C35.4887 52.9204 35.1553 52.8369 34.82 52.8369C34.6217 52.8369 34.4234 52.8664 34.23 52.9252Z" fill="white"/>
</mask>
<g mask="url(#mask24)">
<path fill-rule="evenodd" clip-rule="evenodd" d="M41.3201 81.09L51.3826 62.7031C51.3826 62.7031 56.121 66.1352 59.2274 68.3854C59.7941 68.7958 60.1083 69.4706 60.0584 70.1688C60.0086 70.867 59.6006 71.4895 58.9811 71.8151C53.3222 74.787 41.3201 81.09 41.3201 81.09Z" fill="#C4C4EE"/>
</g>
<mask id="mask25" mask-type="alpha" maskUnits="userSpaceOnUse" x="41" y="62" width="12" height="20">
<path d="M41.3201 81.091C41.3201 81.091 42.2995 80.5766 43.8305 79.7727L52.7502 63.6949C51.9198 63.0935 51.3826 62.7041 51.3826 62.7041" fill="white"/>
</mask>
<g mask="url(#mask25)">
<path fill-rule="evenodd" clip-rule="evenodd" d="M20.4182 77.5391C19.08 82.4216 20.5534 87.8882 24.6542 91.4603C30.3413 96.4138 38.9432 95.861 43.851 90.2262C47.1479 86.4414 45.9769 82.1386 44.1148 83.0814C36.809 86.7791 30.0547 88.3149 24.3676 83.3608C22.5001 81.7349 21.1782 79.716 20.4182 77.5391Z" fill="#B2B2EB"/>
</g>
<path fill-rule="evenodd" clip-rule="evenodd" d="M60.3829 54.7607C60.7999 55.2732 60.9957 55.9306 60.9278 56.5879C60.8605 57.2452 60.5343 57.8485 60.0217 58.2655C57.2025 60.5578 52.2947 64.5475 52.2947 64.5475L49.1516 60.6815C49.1516 60.6815 54.0588 56.6912 56.878 54.3996C57.3912 53.9826 58.0479 53.7861 58.7053 53.854C59.3626 53.9219 59.9659 54.2482 60.3829 54.7607Z" fill="#C4C4EE"/>
<mask id="mask26" mask-type="alpha" maskUnits="userSpaceOnUse" x="49" y="53" width="12" height="12">
<path d="M56.878 54.3996C54.0588 56.6913 49.1516 60.6816 49.1516 60.6816L52.2947 64.5469C52.2947 64.5469 57.2025 60.5578 60.0217 58.2655C60.5343 57.8485 60.8605 57.2453 60.9278 56.5879C60.9957 55.9306 60.7999 55.2733 60.3829 54.7607C59.9659 54.2482 59.3626 53.9219 58.7053 53.854C58.6199 53.845 58.5352 53.8408 58.4505 53.8408C57.8803 53.8408 57.3245 54.0367 56.878 54.3996Z" fill="white"/>
</mask>
<g mask="url(#mask26)">
<path fill-rule="evenodd" clip-rule="evenodd" d="M59.0242 53.4795C59.4412 53.992 59.6371 54.6493 59.5692 55.3067C59.5013 55.9634 59.1756 56.5673 58.6631 56.9837C55.8439 59.2759 50.9361 63.2662 50.9361 63.2662L47.793 59.4003C47.793 59.4003 52.7008 55.41 55.5194 53.1177C56.0325 52.7008 56.6893 52.5049 57.3466 52.5728C58.004 52.6407 58.6072 52.9663 59.0242 53.4795Z" fill="#D4D4F2"/>
</g>
<path fill-rule="evenodd" clip-rule="evenodd" d="M71.3871 51.7748C71.6059 52.3979 71.5692 53.0829 71.2826 53.6789C70.9978 54.2744 70.4871 54.7322 69.8634 54.9515C66.1513 56.2578 59.3453 58.6522 59.3453 58.6522L57.6924 53.9517C57.6924 53.9517 64.4977 51.5579 68.2092 50.2516C68.8335 50.0323 69.5185 50.0696 70.1139 50.355C70.7094 50.641 71.1678 51.1517 71.3871 51.7748Z" fill="#C4C4EE"/>
<mask id="mask27" mask-type="alpha" maskUnits="userSpaceOnUse" x="57" y="50" width="15" height="9">
<path d="M68.2096 50.2525C64.4975 51.5588 57.6921 53.9526 57.6921 53.9526L59.3457 58.6531C59.3457 58.6531 66.151 56.2587 69.8637 54.9524C70.4868 54.7331 70.9975 54.2753 71.2824 53.6798C71.569 53.0838 71.6056 52.3988 71.3875 51.7757C71.1676 51.1526 70.7091 50.6419 70.1137 50.3559C69.7748 50.193 69.4071 50.1113 69.0375 50.1113C68.7581 50.1113 68.4781 50.1582 68.2096 50.2525Z" fill="white"/>
</mask>
<g mask="url(#mask27)">
<path fill-rule="evenodd" clip-rule="evenodd" d="M70.9239 49.9662C71.1432 50.5898 71.106 51.2742 70.82 51.8703C70.5346 52.4663 70.0238 52.9242 69.4007 53.1435C65.5126 54.511 58.1665 57.0953 58.1665 57.0953L56.5129 52.3954C56.5129 52.3954 63.859 49.8105 67.7466 48.443C68.3703 48.2237 69.0553 48.2609 69.6507 48.5469C70.2468 48.8323 70.7046 49.3431 70.9239 49.9662Z" fill="#D4D4F2"/>
</g>
<mask id="mask28" mask-type="alpha" maskUnits="userSpaceOnUse" x="57" y="50" width="15" height="9">
<path d="M68.2096 50.2525C64.4975 51.5588 57.6921 53.9526 57.6921 53.9526L59.3457 58.6531C59.3457 58.6531 66.151 56.2587 69.8637 54.9524C70.4868 54.7331 70.9975 54.2753 71.2824 53.6798C71.569 53.0838 71.6056 52.3988 71.3875 51.7757C71.1676 51.1526 70.7091 50.6419 70.1137 50.3559C69.7748 50.193 69.4071 50.1113 69.0375 50.1113C68.7581 50.1113 68.4781 50.1582 68.2096 50.2525Z" fill="white"/>
</mask>
<g mask="url(#mask28)">
<path fill-rule="evenodd" clip-rule="evenodd" d="M68.5978 52.6764C69.5477 52.4397 70.1456 51.5546 69.9335 50.6942C69.7214 49.8344 68.7786 49.32 67.8245 49.5417L68.5978 52.6764Z" fill="#A5A5E7"/>
</g>
<path fill-rule="evenodd" clip-rule="evenodd" d="M14.7282 70.2853C16.0658 70.5154 16.9634 71.7857 16.7339 73.1226C16.4587 74.722 16.1006 76.81 15.826 78.4095C15.5959 79.747 14.3263 80.6447 12.9888 80.4152C10.9603 80.0667 8.07974 79.5722 6.05125 79.2237C4.71373 78.9942 3.81605 77.7239 4.04558 76.387C4.32017 74.7875 4.67888 72.699 4.95348 71.0989C5.18301 69.7626 6.45322 68.8649 7.79073 69.0944C9.81923 69.4423 12.7003 69.9374 14.7282 70.2853Z" fill="#BABAEB"/>
<path fill-rule="evenodd" clip-rule="evenodd" d="M14.9174 69.1453C16.2544 69.3748 17.1526 70.645 16.9225 71.9819C16.6479 73.582 16.2898 75.67 16.0146 77.2695C15.7851 78.607 14.5155 79.5047 13.178 79.2746C11.1495 78.9267 8.26835 78.4322 6.24045 78.0837C4.90294 77.8541 4.00526 76.5839 4.23479 75.2464C4.50938 73.6469 4.86809 71.5589 5.14269 69.9594C5.37221 68.6219 6.64243 67.7243 7.97934 67.9538C10.0078 68.3023 12.889 68.7968 14.9174 69.1453Z" fill="#DDDDF4"/>
<mask id="mask29" mask-type="alpha" maskUnits="userSpaceOnUse" x="4" y="67" width="13" height="13">
<path d="M5.1428 69.9607C4.86821 71.5601 4.50889 73.6481 4.2343 75.2482C4.00477 76.5845 4.90246 77.8553 6.23997 78.0849C8.26846 78.4334 11.149 78.9279 13.1781 79.2764C14.515 79.5059 15.7852 78.6082 16.0141 77.2707C16.2893 75.6712 16.648 73.5826 16.9226 71.9826C17.1522 70.6462 16.2545 69.3754 14.917 69.1465C12.8885 68.798 10.0073 68.3035 7.97885 67.9544C7.83825 67.9304 7.69885 67.9189 7.56065 67.9189C6.38658 67.9189 5.34769 68.7638 5.1428 69.9607Z" fill="white"/>
</mask>
<g mask="url(#mask29)">
<path fill-rule="evenodd" clip-rule="evenodd" d="M14.5231 68.9582C15.8606 69.1877 16.7583 70.4573 16.5282 71.7948C16.2836 73.2231 15.9742 75.0251 15.7284 76.4533C15.4989 77.7902 14.2287 78.6879 12.8918 78.459C11.0502 78.1423 8.52715 77.7085 6.68552 77.3924C5.34801 77.1629 4.45033 75.8927 4.67986 74.5558C4.92501 73.1269 5.23505 71.3256 5.4802 69.8973C5.70973 68.5604 6.97994 67.6627 8.31685 67.8923C10.1585 68.2083 12.6815 68.6415 14.5231 68.9582Z" fill="#9191E3"/>
</g>
<mask id="mask30" mask-type="alpha" maskUnits="userSpaceOnUse" x="4" y="67" width="13" height="13">
<path d="M5.1428 69.9607C4.86821 71.5601 4.50889 73.6481 4.2343 75.2482C4.00477 76.5845 4.90246 77.8553 6.23997 78.0849C8.26846 78.4334 11.149 78.9279 13.1781 79.2764C14.515 79.5059 15.7852 78.6082 16.0141 77.2707C16.2893 75.6712 16.648 73.5826 16.9226 71.9826C17.1522 70.6462 16.2545 69.3754 14.917 69.1465C12.8885 68.798 10.0073 68.3035 7.97885 67.9544C7.83825 67.9304 7.69885 67.9189 7.56065 67.9189C6.38658 67.9189 5.34769 68.7638 5.1428 69.9607Z" fill="white"/>
</mask>
<g mask="url(#mask30)">
<path d="M15.8663 71.9795C15.653 73.2209 15.3856 74.7777 15.1729 76.0197C15.0749 76.5881 14.7553 77.0952 14.2842 77.4281C13.8125 77.761 13.2285 77.8937 12.6595 77.7958C11.0546 77.5206 8.86808 77.1451 7.26318 76.8693" stroke="#BCBCED" stroke-width="0.480687" stroke-linecap="round" stroke-linejoin="round"/>
</g>
<mask id="mask31" mask-type="alpha" maskUnits="userSpaceOnUse" x="4" y="67" width="13" height="13">
<path d="M5.1428 69.9607C4.86821 71.5601 4.50889 73.6481 4.2343 75.2482C4.00477 76.5845 4.90246 77.8553 6.23997 78.0849C8.26846 78.4334 11.149 78.9279 13.1781 79.2764C14.515 79.5059 15.7852 78.6082 16.0141 77.2707C16.2893 75.6712 16.648 73.5826 16.9226 71.9826C17.1522 70.6462 16.2545 69.3754 14.917 69.1465C12.8885 68.798 10.0073 68.3035 7.97885 67.9544C7.83825 67.9304 7.69885 67.9189 7.56065 67.9189C6.38658 67.9189 5.34769 68.7638 5.1428 69.9607Z" fill="white"/>
</mask>
<g mask="url(#mask31)">
<path fill-rule="evenodd" clip-rule="evenodd" d="M8.90157 70.6802C9.11067 70.7132 9.25247 70.9175 9.21822 71.1362C9.18397 71.3543 8.98689 71.5058 8.77779 71.4733C8.5693 71.4409 8.42689 71.2372 8.46114 71.0179C8.49539 70.7985 8.69247 70.6477 8.90157 70.6802Z" fill="#BCBCED"/>
</g>
<mask id="mask32" mask-type="alpha" maskUnits="userSpaceOnUse" x="4" y="67" width="13" height="13">
<path d="M5.1428 69.9607C4.86821 71.5601 4.50889 73.6481 4.2343 75.2482C4.00477 76.5845 4.90246 77.8553 6.23997 78.0849C8.26846 78.4334 11.149 78.9279 13.1781 79.2764C14.515 79.5059 15.7852 78.6082 16.0141 77.2707C16.2893 75.6712 16.648 73.5826 16.9226 71.9826C17.1522 70.6462 16.2545 69.3754 14.917 69.1465C12.8885 68.798 10.0073 68.3035 7.97885 67.9544C7.83825 67.9304 7.69885 67.9189 7.56065 67.9189C6.38658 67.9189 5.34769 68.7638 5.1428 69.9607Z" fill="white"/>
</mask>
<g mask="url(#mask32)">
<path fill-rule="evenodd" clip-rule="evenodd" d="M12.873 71.3071C13.0821 71.3402 13.2239 71.5445 13.1897 71.7632C13.1554 71.9813 12.9583 72.1327 12.7492 72.1002C12.5407 72.0684 12.3983 71.8641 12.4326 71.6448C12.4668 71.4261 12.6639 71.2747 12.873 71.3071Z" fill="#BCBCED"/>
</g>
<mask id="mask33" mask-type="alpha" maskUnits="userSpaceOnUse" x="4" y="67" width="13" height="13">
<path d="M5.1428 69.9607C4.86821 71.5601 4.50889 73.6481 4.2343 75.2482C4.00477 76.5845 4.90246 77.8553 6.23997 78.0849C8.26846 78.4334 11.149 78.9279 13.1781 79.2764C14.515 79.5059 15.7852 78.6082 16.0141 77.2707C16.2893 75.6712 16.648 73.5826 16.9226 71.9826C17.1522 70.6462 16.2545 69.3754 14.917 69.1465C12.8885 68.798 10.0073 68.3035 7.97885 67.9544C7.83825 67.9304 7.69885 67.9189 7.56065 67.9189C6.38658 67.9189 5.34769 68.7638 5.1428 69.9607Z" fill="white"/>
</mask>
<g mask="url(#mask33)">
<path d="M11.5199 73.9605C11.4544 74.3829 10.9281 74.6515 10.3458 74.5608C9.76421 74.4706 9.34481 74.0536 9.41091 73.6318" stroke="#BCBCED" stroke-width="0.600858" stroke-linecap="round" stroke-linejoin="round"/>
</g>
<path fill-rule="evenodd" clip-rule="evenodd" d="M17.1995 71.7647C17.021 71.7334 16.8516 71.8542 16.8216 72.0327C16.7717 72.3283 16.6978 72.7645 16.6479 73.0595C16.6179 73.2386 16.738 73.4074 16.9165 73.4381C17.0956 73.4681 17.2644 73.348 17.295 73.1695C17.3449 72.8739 17.4182 72.4383 17.4681 72.1426C17.4987 71.9642 17.378 71.7947 17.1995 71.7647Z" fill="#E1E1F6"/>
<path fill-rule="evenodd" clip-rule="evenodd" d="M4.37526 78.3949C4.35303 78.2723 4.22624 77.9449 4.32839 77.8914C4.44376 77.8319 4.51766 77.9737 4.7562 78.2357C5.05843 78.5692 6.02041 78.8468 6.80152 78.9729C8.27423 79.2109 10.6362 79.5924 12.1492 79.837C12.997 79.9746 13.8177 79.9932 14.4144 79.8748C14.555 79.8472 14.9756 79.6165 15.0579 79.7162C15.1366 79.8111 14.9444 79.9181 14.8632 80.0653C14.3922 80.9239 14.0665 81.8546 13.9007 82.8208C13.6886 84.0562 13.3971 85.7536 13.1826 87.0022C13.1063 87.4456 12.8576 87.8404 12.4904 88.0994C12.1233 88.3589 11.6679 88.4623 11.225 88.386C9.48015 88.0868 6.75826 87.6193 5.01337 87.3201C4.09105 87.1614 3.47157 86.2848 3.62959 85.3625C3.85672 84.0418 4.16976 82.2188 4.38607 80.9588C4.53148 80.1092 4.52788 79.2415 4.37526 78.3949Z" fill="#CACAEC"/>
<mask id="mask34" mask-type="alpha" maskUnits="userSpaceOnUse" x="3" y="77" width="13" height="12">
<path d="M4.32856 77.8908C4.22581 77.9436 4.35319 78.2711 4.37543 78.3943C4.52744 79.2403 4.53165 80.1079 4.38564 80.9576C4.16993 82.2182 3.85689 84.0412 3.62976 85.3612C3.47113 86.2842 4.09062 87.1608 5.01354 87.3188C6.75843 87.6181 9.47972 88.0861 11.2246 88.3848C11.668 88.4611 12.1235 88.3577 12.49 88.0988C12.8571 87.8392 13.1059 87.4444 13.1822 87.0016C13.3967 85.753 13.6881 84.055 13.9002 82.8196C14.0667 81.8534 14.3917 80.9227 14.8628 80.0647C14.9439 79.9175 15.1368 79.8105 15.0581 79.715C14.9752 79.6158 14.5552 79.846 14.4146 79.8736C13.8179 79.992 12.9965 79.9739 12.1487 79.8364C10.6364 79.5912 8.2744 79.2103 6.80169 78.9723C6.02058 78.8455 5.058 78.5685 4.75577 78.2351C4.55448 78.0133 4.47036 77.877 4.37963 77.877C4.36281 77.877 4.34659 77.8818 4.32856 77.8908Z" fill="white"/>
</mask>
<g mask="url(#mask34)">
<path fill-rule="evenodd" clip-rule="evenodd" d="M4.29587 78.8261C4.27364 78.7029 4.14685 78.3755 4.249 78.322C4.36497 78.2625 4.43827 78.4049 4.67681 78.6669C4.97904 78.9998 5.94102 79.2773 6.72213 79.4041C8.19484 79.6415 10.5568 80.0236 12.0698 80.2682C12.9176 80.4052 13.7384 80.4244 14.335 80.306C14.4756 80.2778 14.8962 80.047 14.9785 80.1468C15.0578 80.2423 14.865 80.3487 14.7839 80.4965C14.3128 81.3545 19.5529 77.1912 19.11 77.1155C17.82 76.8937 6.25527 74.0901 2.42479 74.5474C1.07346 74.7084 4.33552 79.0466 4.29587 78.8261Z" fill="#B0B0E5"/>
</g>
<mask id="mask35" mask-type="alpha" maskUnits="userSpaceOnUse" x="3" y="77" width="13" height="12">
<path d="M4.32856 77.8908C4.22581 77.9436 4.35319 78.2711 4.37543 78.3943C4.52744 79.2403 4.53165 80.1079 4.38564 80.9576C4.16993 82.2182 3.85689 84.0412 3.62976 85.3612C3.47113 86.2842 4.09062 87.1608 5.01354 87.3188C6.75843 87.6181 9.47972 88.0861 11.2246 88.3848C11.668 88.4611 12.1235 88.3577 12.49 88.0988C12.8571 87.8392 13.1059 87.4444 13.1822 87.0016C13.3967 85.753 13.6881 84.055 13.9002 82.8196C14.0667 81.8534 14.3917 80.9227 14.8628 80.0647C14.9439 79.9175 15.1368 79.8105 15.0581 79.715C14.9752 79.6158 14.5552 79.846 14.4146 79.8736C13.8179 79.992 12.9965 79.9739 12.1487 79.8364C10.6364 79.5912 8.2744 79.2103 6.80169 78.9723C6.02058 78.8455 5.058 78.5685 4.75577 78.2351C4.55448 78.0133 4.47036 77.877 4.37963 77.877C4.36281 77.877 4.34659 77.8818 4.32856 77.8908Z" fill="white"/>
</mask>
<g mask="url(#mask35)">
<path fill-rule="evenodd" clip-rule="evenodd" d="M14.6159 81.8736L13.3956 88.9817C13.3956 88.9817 6.4641 87.7914 4.40976 87.4387C4.25955 87.4129 4.12556 87.3282 4.03783 87.2038C3.9495 87.0794 3.91405 86.9244 3.93989 86.7742C4.56058 83.1618 7.99208 80.7355 11.6044 81.3568C13.2784 81.644 14.6159 81.8736 14.6159 81.8736Z" fill="#DBDBF1"/>
</g>
<path opacity="0.498685" fill-rule="evenodd" clip-rule="evenodd" d="M71.7039 48.3887C57.6029 48.3887 46.1548 59.8368 46.1548 73.9378C46.1548 88.0387 57.6029 99.4875 71.7039 99.4875C85.8048 99.4875 97.253 88.0387 97.253 73.9378C97.253 59.8368 85.8048 48.3887 71.7039 48.3887Z" stroke="white" stroke-width="1.20172" stroke-linecap="round" stroke-linejoin="round"/>
<path opacity="0.502646" fill-rule="evenodd" clip-rule="evenodd" d="M71.7039 42C54.0777 42 39.7671 56.3106 39.7671 73.9368C39.7671 91.563 54.0777 105.874 71.7039 105.874C89.3301 105.874 103.641 91.563 103.641 73.9368C103.641 56.3106 89.3301 42 71.7039 42Z" stroke="white" stroke-width="1.20172" stroke-linecap="round" stroke-linejoin="round"/>
<path opacity="0.504896" fill-rule="evenodd" clip-rule="evenodd" d="M71.7038 35.6133C50.5524 35.6133 33.3799 52.7858 33.3799 73.9378C33.3799 95.0892 50.5524 112.262 71.7038 112.262C92.8552 112.262 110.028 95.0892 110.028 73.9378C110.028 52.7858 92.8552 35.6133 71.7038 35.6133Z" stroke="white" stroke-width="1.20172" stroke-linecap="round" stroke-linejoin="round"/>
<path fill-rule="evenodd" clip-rule="evenodd" d="M69.8403 120.425C72.984 121.991 74.2644 125.817 72.698 128.961C71.1303 132.105 67.3059 133.385 64.1616 131.819C61.0173 130.251 59.7369 126.427 61.3039 123.282C62.8709 120.138 66.696 118.858 69.8403 120.425Z" stroke="#EFEFF9" stroke-width="1.20172" stroke-linecap="round" stroke-linejoin="round"/>
<path fill-rule="evenodd" clip-rule="evenodd" d="M82.5517 125.288C83.2385 125.629 83.5173 126.464 83.1754 127.151C82.8341 127.836 81.9989 128.116 81.3127 127.774C80.6271 127.432 80.3471 126.597 80.689 125.911C81.0315 125.225 81.8655 124.946 82.5517 125.288Z" fill="#F7F7FC"/>
<path fill-rule="evenodd" clip-rule="evenodd" d="M132.057 18.8877C132.466 18.8877 132.799 19.2206 132.799 19.6298C132.799 20.0395 132.466 20.3718 132.057 20.3718C131.647 20.3718 131.315 20.0395 131.315 19.6298C131.315 19.2206 131.647 18.8877 132.057 18.8877Z" fill="#DFDFF4"/>
<path d="M125.808 7.81055V18.1633" stroke="#DFDFF4" stroke-width="1.20172" stroke-linecap="round" stroke-linejoin="round"/>
<path d="M130.931 12.9863H120.685" stroke="#DFDFF4" stroke-width="1.20172" stroke-linecap="round" stroke-linejoin="round"/>
<path fill-rule="evenodd" clip-rule="evenodd" d="M29.0325 28.3848C29.6033 28.3848 30.0672 28.848 30.0672 29.4194C30.0672 29.9903 29.6033 30.4535 29.0325 30.4535C28.4611 30.4535 27.9978 29.9903 27.9978 29.4194C27.9978 28.848 28.4611 28.3848 29.0325 28.3848Z" fill="#DFDFF4"/>
<path fill-rule="evenodd" clip-rule="evenodd" d="M15.7593 28.9102V44.3047L28.4146 36.472L15.7593 28.9102Z" stroke="#DFDFF4" stroke-width="1.20172" stroke-linecap="round" stroke-linejoin="round"/>
<path fill-rule="evenodd" clip-rule="evenodd" d="M110.636 32.7002H113.075L112.404 38.8127C112.341 39.4034 112.773 39.991 113.54 39.991L113.274 42.4227C110.981 42.4227 109.772 40.5756 109.964 38.8127L110.102 37.5563H107.663L107.93 35.1313H110.369L110.636 32.7002ZM116.514 35.1313H114.076L113.808 37.5563H114.971L116.514 35.1313Z" fill="#9191E3"/>
<path d="M84.4623 65.3749C84.1679 63.767 81.8023 62.5124 80.4612 63.3368" stroke="#A5A5E7" stroke-width="0.600858" stroke-linecap="round" stroke-linejoin="round"/>
<path d="M58.1528 65.9768C58.1546 64.3425 60.2576 62.6847 61.7249 63.2555" stroke="#A5A5E7" stroke-width="0.600858" stroke-linecap="round" stroke-linejoin="round"/>
</svg>
