<svg width="140" height="140" viewBox="0 0 140 140" fill="none" xmlns="http://www.w3.org/2000/svg">
<path fill-rule="evenodd" clip-rule="evenodd" d="M59.6635 113.395C64.34 112.145 69.1522 114.927 70.402 119.604C71.6518 124.281 68.8698 129.093 64.1934 130.343C59.5163 131.592 54.7046 128.81 53.4548 124.134C52.2044 119.457 54.9864 114.645 59.6635 113.395Z" fill="#CDCDF1"/>
<mask id="mask0" mask-type="alpha" maskUnits="userSpaceOnUse" x="53" y="113" width="18" height="18">
<path d="M59.6634 113.395C54.987 114.645 52.2044 119.456 53.4542 124.133C54.7045 128.81 59.5162 131.593 64.1933 130.343C68.8704 129.092 71.6518 124.281 70.402 119.604C69.3547 115.684 65.806 113.096 61.9311 113.096C61.1824 113.096 60.4205 113.192 59.6634 113.395Z" fill="white"/>
</mask>
<g mask="url(#mask0)">
<path fill-rule="evenodd" clip-rule="evenodd" d="M65.3873 119.126C70.0644 117.876 74.8761 120.659 76.1271 125.335C77.3769 130.012 74.5943 134.824 69.9178 136.074C65.2407 137.324 60.4284 134.541 59.1787 129.865C57.9283 125.188 60.7108 120.376 65.3873 119.126Z" fill="#DCDCF5"/>
</g>
<mask id="mask1" mask-type="alpha" maskUnits="userSpaceOnUse" x="53" y="113" width="18" height="18">
<path d="M59.6634 113.395C54.987 114.645 52.2044 119.456 53.4542 124.133C54.7045 128.81 59.5162 131.593 64.1933 130.343C68.8704 129.092 71.6518 124.281 70.402 119.604C69.3547 115.684 65.806 113.096 61.9311 113.096C61.1824 113.096 60.4205 113.192 59.6634 113.395Z" fill="white"/>
</mask>
<g mask="url(#mask1)">
<path fill-rule="evenodd" clip-rule="evenodd" d="M66.4316 123.031C68.9528 122.358 71.5467 123.857 72.2203 126.378C72.8945 128.9 71.3947 131.493 68.8735 132.167C66.3523 132.841 63.7584 131.341 63.0842 128.821C62.4107 126.299 63.9104 123.705 66.4316 123.031Z" fill="#E6E6F8"/>
</g>
<path fill-rule="evenodd" clip-rule="evenodd" d="M61.8925 26.531C60.9912 23.1662 57.5327 21.1696 54.1679 22.0709C50.8031 22.9728 48.8064 26.4313 49.7083 29.7961C50.5243 32.8418 51.3402 35.8882 51.3402 35.8882L63.5251 32.6231C63.5251 32.6231 62.7091 29.5774 61.8925 26.531Z" stroke="#DCDCF5" stroke-width="5.1073" stroke-linecap="round" stroke-linejoin="round"/>
<path fill-rule="evenodd" clip-rule="evenodd" d="M38.2869 111.696C39.0356 111.496 39.6743 111.007 40.0619 110.336C40.4494 109.664 40.554 108.866 40.3527 108.118C36.7073 94.5408 30.8946 72.896 30.7756 72.4502C25.7067 53.4877 36.9873 33.9766 55.9498 28.9084C74.9134 23.8396 94.4233 35.1201 99.4921 54.0832C99.5955 54.4677 105.376 76.1689 108.998 89.7711C109.198 90.5198 109.687 91.1585 110.357 91.5467C111.028 91.9348 111.825 92.0406 112.573 91.8405L112.574 91.8399C114.119 91.4277 115.765 91.6452 117.15 92.4456C118.533 93.2459 119.543 94.563 119.956 96.1084V96.109C120.37 97.6538 120.152 99.299 119.351 100.684C118.551 102.068 117.233 103.078 115.688 103.491C100.013 107.68 57.0649 119.16 41.3904 123.35C39.8449 123.763 38.1992 123.545 36.8154 122.745C35.431 121.944 34.421 120.626 34.0082 119.082C33.5948 117.537 33.8129 115.89 34.6133 114.507C35.4136 113.122 36.7313 112.112 38.2761 111.699C38.2761 111.699 38.2797 111.698 38.2869 111.696Z" fill="#DCDCF5"/>
<mask id="mask2" mask-type="alpha" maskUnits="userSpaceOnUse" x="29" y="27" width="92" height="97">
<path d="M55.9501 28.9078C36.987 33.9761 25.7065 53.4872 30.7753 72.4496C30.8943 72.8955 36.707 94.5402 40.353 108.118C40.5543 108.866 40.4492 109.664 40.0616 110.336C39.6741 111.007 39.0359 111.496 38.2867 111.696C38.2795 111.698 38.2759 111.699 38.2759 111.699C36.7311 112.112 35.4134 113.122 34.613 114.506C33.8127 115.891 33.5952 117.536 34.008 119.081C34.4207 120.626 35.4308 121.944 36.8152 122.745C38.1995 123.545 39.8453 123.763 41.3901 123.35C57.0653 119.16 100.013 107.68 115.688 103.491C117.233 103.078 118.551 102.068 119.351 100.683C120.152 99.299 120.369 97.6539 119.957 96.1085V96.1078C119.543 94.5624 118.534 93.2454 117.149 92.445C115.766 91.6447 114.119 91.4272 112.574 91.84L112.574 91.8406C111.825 92.0406 111.028 91.9343 110.358 91.5461C109.687 91.1586 109.198 90.5193 108.999 89.7712C105.376 76.169 99.5953 54.4678 99.4919 54.0826C95.2444 38.1905 80.8551 27.6941 65.1432 27.6953C62.1077 27.6953 59.0205 28.0871 55.9501 28.9078Z" fill="white"/>
</mask>
<g mask="url(#mask2)">
<path fill-rule="evenodd" clip-rule="evenodd" d="M47.6055 110.577C48.3542 110.377 49.0127 109.961 49.4351 109.421C49.8581 108.881 50.0107 108.262 49.8593 107.699C47.1152 97.4875 37.1079 60.188 37.0184 59.8527C33.2095 45.5902 45.5115 29.8933 64.474 24.8215C83.4359 19.7503 101.924 27.2123 105.733 41.4749C105.81 41.7645 115.782 79.1091 118.501 89.3405C118.651 89.9041 119.692 95.9962 119.692 95.9962C119.824 97.517 119.686 98.4369 118.813 99.5503C117.94 100.665 116.581 101.523 115.037 101.936C99.3622 106.128 65.6096 115.15 49.935 119.343C48.3902 119.756 46.7853 119.69 45.4737 119.161C44.162 118.631 43.2505 117.681 42.9398 116.52V116.519C42.6298 115.357 42.9458 114.078 43.8189 112.965C44.6913 111.851 46.0499 110.993 47.5947 110.58C47.5947 110.58 47.5983 110.579 47.6055 110.577Z" fill="#E8E8F9"/>
</g>
<mask id="mask3" mask-type="alpha" maskUnits="userSpaceOnUse" x="29" y="27" width="92" height="97">
<path d="M55.9501 28.9078C36.987 33.9761 25.7065 53.4872 30.7753 72.4496C30.8943 72.8955 36.707 94.5402 40.353 108.118C40.5543 108.866 40.4492 109.664 40.0616 110.336C39.6741 111.007 39.0359 111.496 38.2867 111.696C38.2795 111.698 38.2759 111.699 38.2759 111.699C36.7311 112.112 35.4134 113.122 34.613 114.506C33.8127 115.891 33.5952 117.536 34.008 119.081C34.4207 120.626 35.4308 121.944 36.8152 122.745C38.1995 123.545 39.8453 123.763 41.3901 123.35C57.0653 119.16 100.013 107.68 115.688 103.491C117.233 103.078 118.551 102.068 119.351 100.683C120.152 99.299 120.369 97.6539 119.957 96.1085V96.1078C119.543 94.5624 118.534 93.2454 117.149 92.445C115.766 91.6447 114.119 91.4272 112.574 91.84L112.574 91.8406C111.825 92.0406 111.028 91.9343 110.358 91.5461C109.687 91.1586 109.198 90.5193 108.999 89.7712C105.376 76.169 99.5953 54.4678 99.4919 54.0826C95.2444 38.1905 80.8551 27.6941 65.1432 27.6953C62.1077 27.6953 59.0205 28.0871 55.9501 28.9078Z" fill="white"/>
</mask>
<g mask="url(#mask3)">
<path fill-rule="evenodd" clip-rule="evenodd" d="M69.3153 102.877C69.0743 101.994 68.164 101.474 67.282 101.714C60.5331 103.553 34.4018 110.674 27.6529 112.513C26.7709 112.753 26.2505 113.664 26.4909 114.546C26.7312 115.429 27.6415 115.949 28.5242 115.708C35.2724 113.87 61.4038 106.748 68.152 104.91C69.0347 104.669 69.555 103.759 69.3153 102.877Z" fill="#DCDCF5"/>
</g>
<path fill-rule="evenodd" clip-rule="evenodd" d="M99.8066 39.7466C99.7062 39.3729 99.7597 38.9751 99.9526 38.6398C100.146 38.3051 100.465 38.0606 100.839 37.9603C102.287 37.5721 104.601 36.952 106.563 36.4263C108.559 35.8915 110.609 37.0758 111.144 39.0712C112.156 42.8458 113.734 48.733 114.745 52.5076C115.279 54.5031 114.095 56.5538 112.1 57.0886C110.137 57.6143 107.823 58.2344 106.375 58.6226C106.001 58.7229 105.602 58.6706 105.268 58.4772C104.932 58.2837 104.688 57.9652 104.588 57.5915C103.577 53.8187 100.818 43.5194 99.8066 39.7466Z" fill="#B4B4EB"/>
<mask id="mask4" mask-type="alpha" maskUnits="userSpaceOnUse" x="99" y="36" width="16" height="23">
<path d="M106.563 36.4264C104.601 36.9528 102.287 37.5723 100.839 37.9604C100.465 38.0614 100.146 38.3059 99.9529 38.6406C99.7594 38.9759 99.7059 39.373 99.8068 39.7468C100.818 43.5196 103.577 53.8189 104.588 57.5917C104.688 57.966 104.933 58.2839 105.269 58.4773C105.603 58.6714 106.001 58.7231 106.375 58.6233C107.823 58.2346 110.137 57.6151 112.099 57.0894C114.095 56.554 115.279 54.5033 114.745 52.5078C113.734 48.7332 112.156 42.8466 111.144 39.0714C110.697 37.4004 109.186 36.2979 107.534 36.2979C107.214 36.2979 106.888 36.3393 106.563 36.4264Z" fill="white"/>
</mask>
<g mask="url(#mask4)">
<path fill-rule="evenodd" clip-rule="evenodd" d="M99.0127 36.7824C98.9123 36.4086 98.9646 36.0103 99.1581 35.675C99.3509 35.3403 99.6706 35.0958 100.044 34.9954C101.492 34.6073 103.807 33.9872 105.769 33.4614C107.764 32.9267 109.815 34.1109 110.35 36.1064C111.362 39.881 112.939 45.7682 113.95 49.5428C114.485 51.5382 113.3 53.5896 111.306 54.1243C109.343 54.6501 107.029 55.2702 105.581 55.6583C105.207 55.7581 104.809 55.7058 104.474 55.5123C104.138 55.3188 103.894 55.0004 103.794 54.6267C102.782 50.8539 100.023 40.5546 99.0127 36.7824Z" fill="#BCBCED"/>
</g>
<mask id="mask5" mask-type="alpha" maskUnits="userSpaceOnUse" x="99" y="36" width="16" height="23">
<path d="M106.563 36.4264C104.601 36.9528 102.287 37.5723 100.839 37.9604C100.465 38.0614 100.146 38.3059 99.9529 38.6406C99.7594 38.9759 99.7059 39.373 99.8068 39.7468C100.818 43.5196 103.577 53.8189 104.588 57.5917C104.688 57.966 104.933 58.2839 105.269 58.4773C105.603 58.6714 106.001 58.7231 106.375 58.6233C107.823 58.2346 110.137 57.6151 112.099 57.0894C114.095 56.554 115.279 54.5033 114.745 52.5078C113.734 48.7332 112.156 42.8466 111.144 39.0714C110.697 37.4004 109.186 36.2979 107.534 36.2979C107.214 36.2979 106.888 36.3393 106.563 36.4264Z" fill="white"/>
</mask>
<g mask="url(#mask5)">
<path d="M104.942 29.2559L108.985 44.4233" stroke="#CECEF2" stroke-width="4.50644" stroke-linecap="round" stroke-linejoin="round"/>
</g>
<path fill-rule="evenodd" clip-rule="evenodd" d="M23.3196 60.2411C23.2193 59.8674 22.9753 59.5489 22.6401 59.3555C22.3054 59.162 21.907 59.1097 21.5333 59.21C20.0846 59.5982 17.7707 60.2183 15.8083 60.744C13.8129 61.2782 12.6286 63.3295 13.1633 65.325C14.1746 69.1002 15.7524 74.9874 16.7637 78.7614C17.2984 80.7568 19.3498 81.9411 21.3446 81.4064C23.307 80.8806 25.6215 80.2605 27.0696 79.8724C27.4433 79.772 27.7624 79.5275 27.9553 79.1934C28.1487 78.8575 28.2016 78.4591 28.1013 78.086C27.09 74.3132 24.3309 64.0139 23.3196 60.2411Z" fill="#B4B4EB"/>
<mask id="mask6" mask-type="alpha" maskUnits="userSpaceOnUse" x="13" y="59" width="16" height="23">
<path d="M21.5335 59.21C20.0849 59.5976 17.7709 60.2177 15.8085 60.7434C13.8131 61.2776 12.6288 63.3289 13.1636 65.325C14.1748 69.0996 15.7521 74.9862 16.7639 78.7608C17.2987 80.7562 19.3494 81.9405 21.3449 81.4057C23.3073 80.88 25.6212 80.2599 27.0698 79.8723C27.4436 79.7714 27.762 79.5275 27.9555 79.1928C28.149 78.8575 28.2012 78.4585 28.1009 78.0854C27.0903 74.3132 24.3311 64.0139 23.3199 60.2405C23.2195 59.8668 22.975 59.5483 22.6403 59.3554C22.4168 59.2263 22.165 59.1602 21.9115 59.1602C21.7853 59.1602 21.6579 59.1764 21.5335 59.21Z" fill="white"/>
</mask>
<g mask="url(#mask6)">
<path fill-rule="evenodd" clip-rule="evenodd" d="M22.5253 57.2758C22.425 56.902 22.181 56.583 21.8458 56.3895C21.5111 56.1966 21.1127 56.1438 20.739 56.2441C19.2903 56.6323 16.9764 57.2523 15.014 57.7781C13.0185 58.3129 11.8342 60.3636 12.369 62.359C13.3803 66.1336 14.9581 72.0208 15.9694 75.7954C16.5041 77.7909 18.5555 78.9752 20.5503 78.4404C22.5127 77.9147 24.8272 77.2946 26.2753 76.9058C26.649 76.8055 26.9681 76.5621 27.1609 76.2268C27.3544 75.8916 27.4073 75.4938 27.307 75.1201C26.2957 71.3467 23.5366 61.048 22.5253 57.2758Z" fill="#BCBCED"/>
</g>
<mask id="mask7" mask-type="alpha" maskUnits="userSpaceOnUse" x="13" y="59" width="16" height="23">
<path d="M21.5335 59.21C20.0849 59.5976 17.7709 60.2177 15.8085 60.7434C13.8131 61.2776 12.6288 63.3289 13.1636 65.325C14.1748 69.0996 15.7521 74.9862 16.7639 78.7608C17.2987 80.7562 19.3494 81.9405 21.3449 81.4057C23.3073 80.88 25.6212 80.2599 27.0698 79.8723C27.4436 79.7714 27.762 79.5275 27.9555 79.1928C28.149 78.8575 28.2012 78.4585 28.1009 78.0854C27.0903 74.3132 24.3311 64.0139 23.3199 60.2405C23.2195 59.8668 22.975 59.5483 22.6403 59.3554C22.4168 59.2263 22.165 59.1602 21.9115 59.1602C21.7853 59.1602 21.6579 59.1764 21.5335 59.21Z" fill="white"/>
</mask>
<g mask="url(#mask7)">
<path d="M13.9705 54.4951L18.0136 69.6632" stroke="#CECEF2" stroke-width="4.50644" stroke-linecap="round" stroke-linejoin="round"/>
</g>
<path fill-rule="evenodd" clip-rule="evenodd" d="M25.7154 57.1417C25.5069 56.3636 24.7072 55.9021 23.9291 56.1106C23.1876 56.3089 22.2412 56.5625 21.3117 56.8118C19.3163 57.346 18.132 59.3973 18.6667 61.3928C19.9526 66.1906 22.21 74.6165 23.4958 79.4143C24.0306 81.4104 26.0813 82.5941 28.0768 82.0599C29.0069 81.8105 29.9527 81.557 30.6941 81.3587C31.4722 81.1496 31.9343 80.3499 31.7252 79.5717C30.5403 75.1476 26.9009 61.5658 25.7154 57.1417Z" fill="#9999E4"/>
<mask id="mask8" mask-type="alpha" maskUnits="userSpaceOnUse" x="18" y="56" width="14" height="27">
<path d="M23.9291 56.1104C23.1876 56.3087 22.2412 56.5623 21.3117 56.8116C19.3163 57.3464 18.132 59.3971 18.6667 61.3926C19.952 66.191 22.21 74.6169 23.4958 79.4147C24.0306 81.4108 26.0813 82.5945 28.0768 82.0597C29.0069 81.8109 29.9527 81.5568 30.6941 81.3585C31.4722 81.15 31.9343 80.3502 31.7252 79.5715C30.5397 75.148 26.9009 61.5656 25.7154 57.1415C25.5406 56.4902 24.9517 56.0605 24.3076 56.0605C24.1826 56.0605 24.0552 56.0768 23.9291 56.1104Z" fill="white"/>
</mask>
<g mask="url(#mask8)">
<path fill-rule="evenodd" clip-rule="evenodd" d="M24.6527 53.1755C24.4442 52.3974 23.6438 51.9353 22.8657 52.1438C22.1243 52.3427 21.1785 52.5962 20.249 52.845C18.2535 53.3798 17.0692 55.4311 17.604 57.4265C18.8898 62.2244 21.1473 70.6502 22.4331 75.4481C22.9673 77.4435 25.0186 78.6278 27.014 78.0931C27.9442 77.8437 28.8899 77.5907 29.6314 77.3919C30.4095 77.1834 30.871 76.3836 30.6625 75.6055C29.477 71.1814 25.8382 57.5996 24.6527 53.1755Z" fill="#A7A7E8"/>
</g>
<path fill-rule="evenodd" clip-rule="evenodd" d="M96.1826 38.2609C95.9735 37.4828 96.4361 36.683 97.2143 36.4745C97.9545 36.2757 98.9009 36.0221 99.8304 35.7727C101.826 35.2386 103.878 36.4223 104.412 38.4177C105.698 43.2162 107.956 51.6414 109.24 56.4399C109.776 58.4353 108.592 60.486 106.597 61.0208C105.667 61.2702 104.721 61.5237 103.979 61.722C103.201 61.9305 102.401 61.469 102.193 60.6909C101.007 56.2668 97.3681 42.685 96.1826 38.2609Z" fill="#9999E4"/>
<mask id="mask9" mask-type="alpha" maskUnits="userSpaceOnUse" x="96" y="35" width="14" height="27">
<path d="M99.8302 35.7731C98.9012 36.0225 97.9543 36.276 97.214 36.4743C96.4359 36.6834 95.9732 37.4832 96.1829 38.2607C97.3678 42.6854 101.007 56.2666 102.193 60.6907C102.401 61.4688 103.201 61.9303 103.979 61.7218C104.721 61.5235 105.667 61.2705 106.596 61.0212C108.592 60.4864 109.776 58.4351 109.241 56.4396C107.956 51.6418 105.698 43.2165 104.412 38.4181C103.964 36.7465 102.453 35.6445 100.801 35.6445C100.48 35.6445 100.155 35.686 99.8302 35.7731Z" fill="white"/>
</mask>
<g mask="url(#mask9)">
<path fill-rule="evenodd" clip-rule="evenodd" d="M95.1194 34.2937C94.9109 33.5156 95.3729 32.7158 96.1511 32.5073C96.8925 32.3091 97.8383 32.0555 98.7678 31.8061C100.764 31.2714 102.815 32.4557 103.349 34.4511C104.635 39.249 106.893 47.6748 108.178 52.4727C108.713 54.4681 107.529 56.5194 105.533 57.0542C104.603 57.303 103.658 57.5565 102.917 57.7554C102.139 57.9639 101.339 57.5019 101.13 56.7237C99.9443 52.2996 96.3055 38.7178 95.1194 34.2937Z" fill="#A7A7E8"/>
</g>
<path d="M23.8186 64.9014C18.0462 43.3582 30.8505 21.1805 52.3936 15.4081C73.9374 9.63565 96.1145 22.4399 101.888 43.9831" stroke="#A7A7E8" stroke-width="1.20172" stroke-linecap="round" stroke-linejoin="round"/>
<path fill-rule="evenodd" clip-rule="evenodd" d="M34.6021 29.2449C39.3471 23.9117 45.6501 19.8589 53.0545 17.8749C60.4847 15.8842 67.9948 16.2514 74.7881 18.5184C76.1256 18.9642 77.5731 18.2414 78.0189 16.9045C78.4654 15.567 77.742 14.1195 76.4056 13.6737C68.693 11.1002 60.1668 10.682 51.7326 12.9418C43.3272 15.1945 36.1728 19.7958 30.7861 25.8507C29.8493 26.9034 29.9437 28.5191 30.997 29.4558C32.0497 30.3926 33.6654 30.2982 34.6021 29.2449Z" fill="#9393E3"/>
<mask id="mask10" mask-type="alpha" maskUnits="userSpaceOnUse" x="30" y="11" width="49" height="20">
<path d="M51.7326 12.9415C43.3266 15.1935 36.1728 19.7948 30.7861 25.8503C29.8493 26.9024 29.9437 28.5181 30.997 29.4548C32.0497 30.3922 33.6654 30.2972 34.6015 29.2439C39.3471 23.9107 45.6495 19.8579 53.0545 17.8745C60.4841 15.8839 67.9942 16.2504 74.7881 18.518C76.1256 18.9633 77.5731 18.2404 78.0189 16.9035C78.4648 15.5666 77.742 14.1185 76.405 13.6733C72.0933 12.2342 67.5262 11.4688 62.8641 11.4688C59.1874 11.4688 55.4513 11.9446 51.7326 12.9415Z" fill="white"/>
</mask>
<g mask="url(#mask10)">
<path fill-rule="evenodd" clip-rule="evenodd" d="M30.9422 28.7608C36.4653 22.5527 43.8011 17.836 52.4199 15.5269C61.0674 13.2094 69.8087 13.6372 77.7166 16.2756C79.2728 16.7947 80.9582 15.9529 81.4768 14.3967C81.9959 12.8405 81.1541 11.1556 79.5979 10.6365C70.6217 7.64122 60.6979 7.15453 50.8817 9.78449C41.0973 12.406 32.7706 17.7621 26.5006 24.8095C25.4107 26.0353 25.5206 27.9154 26.7464 29.0059C27.9715 30.0959 29.8522 29.9865 30.9422 28.7608Z" fill="#A7A7E8"/>
</g>
<path fill-rule="evenodd" clip-rule="evenodd" d="M50.8572 54.0346C49.551 54.3843 48.7735 55.7254 49.1226 57.0274C49.4711 58.3289 50.8152 59.1016 52.1214 58.7519C53.4271 58.4016 54.2046 57.0605 53.8555 55.759C53.507 54.457 52.1635 53.6843 50.8572 54.0346Z" fill="#BDB9E5"/>
<path fill-rule="evenodd" clip-rule="evenodd" d="M51.0265 54.7285C50.1024 54.9761 49.5526 55.9248 49.7996 56.8459C50.0459 57.7664 50.9965 58.3132 51.9206 58.0657C52.8447 57.8181 53.3945 56.8694 53.1481 55.9482C52.9012 55.0277 51.9506 54.481 51.0265 54.7285Z" fill="#5A4BE2"/>
<mask id="mask11" mask-type="alpha" maskUnits="userSpaceOnUse" x="49" y="54" width="5" height="5">
<path d="M51.0261 54.7284C50.1019 54.9766 49.5528 55.9247 49.7991 56.8459C50.0455 57.767 50.9966 58.3138 51.9207 58.0656C52.8449 57.818 53.3947 56.8699 53.1477 55.9482C52.941 55.1779 52.2416 54.6689 51.4767 54.6689C51.3277 54.6689 51.1769 54.6882 51.0261 54.7284Z" fill="white"/>
</mask>
<g mask="url(#mask11)">
<path fill-rule="evenodd" clip-rule="evenodd" d="M51.5058 53.9014C50.5816 54.1489 50.0319 55.0977 50.2788 56.0188C50.5252 56.9393 51.4757 57.4861 52.3998 57.2385C53.324 56.991 53.8737 56.0422 53.6268 55.1211C53.3804 54.2006 52.4299 53.6538 51.5058 53.9014Z" fill="#7364E2"/>
</g>
<path fill-rule="evenodd" clip-rule="evenodd" d="M51.9508 55.1641C51.7693 55.2122 51.6618 55.3984 51.7104 55.5793C51.7585 55.7595 51.9448 55.8671 52.1262 55.8184C52.3077 55.7698 52.4152 55.5841 52.3666 55.4032C52.3185 55.2224 52.1322 55.1154 51.9508 55.1641Z" fill="white"/>
<path fill-rule="evenodd" clip-rule="evenodd" d="M82.5652 53.3193C80.1552 53.9647 78.4854 55.5599 78.8387 56.8788C79.192 58.1971 81.4356 58.7439 83.8456 58.098C86.2557 57.452 87.9255 55.8574 87.5721 54.5385C87.2188 53.2196 84.9752 52.6734 82.5652 53.3193Z" fill="#CBCBF1"/>
<path fill-rule="evenodd" clip-rule="evenodd" d="M46.5559 62.9688C44.1459 63.6141 42.4761 65.2094 42.8294 66.5282C43.1827 67.8465 45.4263 68.3933 47.8363 67.7474C50.2464 67.1015 51.9162 65.5068 51.5629 64.1879C51.2096 62.869 48.966 62.3228 46.5559 62.9688Z" fill="#CBCBF1"/>
<path d="M78.4924 43.8828C77.6343 42.0195 74.3687 41.23 72.9951 42.6486" stroke="#A5A5E7" stroke-width="0.600858" stroke-linecap="round" stroke-linejoin="round"/>
<path d="M46.695 52.7915C46.189 50.8039 48.2308 48.1349 50.1908 48.3722" stroke="#A5A5E7" stroke-width="0.600858" stroke-linecap="round" stroke-linejoin="round"/>
<path d="M79.1443 49.6648C77.6571 48.6385 74.487 49.4401 73.7335 51.2631" stroke="#CBCBF1" stroke-width="1.80258" stroke-linecap="round" stroke-linejoin="round"/>
<path d="M79.1443 49.6648C77.6571 48.6385 74.487 49.4401 73.7335 51.2631" stroke="#6969DB" stroke-width="0.600858" stroke-linecap="round" stroke-linejoin="round"/>
<path fill-rule="evenodd" clip-rule="evenodd" d="M62.9326 67.41C64.2023 68.7313 66.1334 69.3424 68.0267 68.8352C69.92 68.3275 71.287 66.8332 71.7256 65.054C72.1666 63.2647 73.9782 62.1699 75.7676 62.6115C77.5569 63.0526 78.6511 64.8636 78.2101 66.6529C77.2078 70.7171 74.0804 74.127 69.7554 75.286C65.4298 76.4451 61.0171 75.0553 58.1168 72.0372C56.8399 70.7081 56.882 68.5925 58.2111 67.3157C59.5402 66.0388 61.6558 66.0809 62.9326 67.41Z" fill="#6969DB"/>
<mask id="mask12" mask-type="alpha" maskUnits="userSpaceOnUse" x="57" y="62" width="22" height="14">
<path d="M71.7256 65.0521C71.287 66.8313 69.9201 68.3262 68.0268 68.8333C66.1341 69.3405 64.2029 68.7294 62.9327 67.4087C61.6559 66.0796 59.5402 66.037 58.2117 67.3138C56.882 68.5906 56.84 70.7068 58.1168 72.0353C61.0172 75.0534 65.4305 76.4438 69.7554 75.2848C74.0804 74.1251 77.2085 70.7152 78.2101 66.651C78.6511 64.8623 77.557 63.0513 75.7676 62.6097C75.4996 62.5436 75.2305 62.5117 74.9661 62.5117C73.4657 62.5117 72.1006 63.5314 71.7256 65.0521Z" fill="white"/>
</mask>
<g mask="url(#mask12)">
<path fill-rule="evenodd" clip-rule="evenodd" d="M68.5789 70.4956C62.9897 71.9935 59.1737 75.9039 60.063 79.223C60.9528 82.5428 66.2121 84.0221 71.8019 82.5242C77.3911 81.0262 81.2072 77.1164 80.3173 73.7961C79.428 70.4776 74.1681 68.9982 68.5789 70.4956Z" fill="#C8C8F0"/>
</g>
<mask id="mask13" mask-type="alpha" maskUnits="userSpaceOnUse" x="57" y="62" width="22" height="14">
<path d="M71.7256 65.0521C71.287 66.8313 69.9201 68.3262 68.0268 68.8333C66.1341 69.3405 64.2029 68.7294 62.9327 67.4087C61.6559 66.0796 59.5402 66.037 58.2117 67.3138C56.882 68.5906 56.84 70.7068 58.1168 72.0353C61.0172 75.0534 65.4305 76.4438 69.7554 75.2848C74.0804 74.1251 77.2085 70.7152 78.2101 66.651C78.6511 64.8623 77.557 63.0513 75.7676 62.6097C75.4996 62.5436 75.2305 62.5117 74.9661 62.5117C73.4657 62.5117 72.1006 63.5314 71.7256 65.0521Z" fill="white"/>
</mask>
<g mask="url(#mask13)">
<path fill-rule="evenodd" clip-rule="evenodd" d="M62.6167 65.6028L66.8251 64.5068C66.8251 64.5068 67.3503 66.4548 67.7889 68.0819C67.9439 68.657 67.8634 69.2698 67.566 69.786C67.2685 70.3021 66.7782 70.6789 66.2026 70.8327C65.0778 71.1343 63.9212 70.4668 63.6195 69.3419C63.1731 67.6788 62.6167 65.6028 62.6167 65.6028Z" fill="white"/>
</g>
<mask id="mask14" mask-type="alpha" maskUnits="userSpaceOnUse" x="57" y="62" width="22" height="14">
<path d="M71.7256 65.0521C71.287 66.8313 69.9201 68.3262 68.0268 68.8333C66.1341 69.3405 64.2029 68.7294 62.9327 67.4087C61.6559 66.0796 59.5402 66.037 58.2117 67.3138C56.882 68.5906 56.84 70.7068 58.1168 72.0353C61.0172 75.0534 65.4305 76.4438 69.7554 75.2848C74.0804 74.1251 77.2085 70.7152 78.2101 66.651C78.6511 64.8623 77.557 63.0513 75.7676 62.6097C75.4996 62.5436 75.2305 62.5117 74.9661 62.5117C73.4657 62.5117 72.1006 63.5314 71.7256 65.0521Z" fill="white"/>
</mask>
<g mask="url(#mask14)">
<path fill-rule="evenodd" clip-rule="evenodd" d="M66.8293 64.4743L71.0378 63.3789C71.0378 63.3789 71.5629 65.3263 72.0015 66.9534C72.1566 67.5284 72.076 68.1419 71.7786 68.658C71.4812 69.173 70.9909 69.5503 70.4153 69.7047C69.2911 70.0064 68.1338 69.3388 67.8322 68.2134C67.3857 66.5508 66.8293 64.4743 66.8293 64.4743Z" fill="white"/>
</g>
<mask id="mask15" mask-type="alpha" maskUnits="userSpaceOnUse" x="57" y="62" width="22" height="14">
<path d="M71.7256 65.0521C71.287 66.8313 69.9201 68.3262 68.0268 68.8333C66.1341 69.3405 64.2029 68.7294 62.9327 67.4087C61.6559 66.0796 59.5402 66.037 58.2117 67.3138C56.882 68.5906 56.84 70.7068 58.1168 72.0353C61.0172 75.0534 65.4305 76.4438 69.7554 75.2848C74.0804 74.1251 77.2085 70.7152 78.2101 66.651C78.6511 64.8623 77.557 63.0513 75.7676 62.6097C75.4996 62.5436 75.2305 62.5117 74.9661 62.5117C73.4657 62.5117 72.1006 63.5314 71.7256 65.0521Z" fill="white"/>
</mask>
<g mask="url(#mask15)">
<path fill-rule="evenodd" clip-rule="evenodd" d="M70.4115 61.0051L74.6205 59.9092C74.6205 59.9092 75.1451 61.8572 75.5837 63.4843C75.7387 64.0593 75.6588 64.6722 75.3614 65.1883C75.0639 65.7045 74.5736 66.0812 73.9986 66.235C72.8732 66.5366 71.716 65.8691 71.4143 64.7443C70.9691 63.0811 70.4115 61.0051 70.4115 61.0051Z" fill="white"/>
</g>
<mask id="mask16" mask-type="alpha" maskUnits="userSpaceOnUse" x="57" y="62" width="22" height="14">
<path d="M71.7256 65.0521C71.287 66.8313 69.9201 68.3262 68.0268 68.8333C66.1341 69.3405 64.2029 68.7294 62.9327 67.4087C61.6559 66.0796 59.5402 66.037 58.2117 67.3138C56.882 68.5906 56.84 70.7068 58.1168 72.0353C61.0172 75.0534 65.4305 76.4438 69.7554 75.2848C74.0804 74.1251 77.2085 70.7152 78.2101 66.651C78.6511 64.8623 77.557 63.0513 75.7676 62.6097C75.4996 62.5436 75.2305 62.5117 74.9661 62.5117C73.4657 62.5117 72.1006 63.5314 71.7256 65.0521Z" fill="white"/>
</mask>
<g mask="url(#mask16)">
<path fill-rule="evenodd" clip-rule="evenodd" d="M57.772 64.3922L61.981 63.2969C61.981 63.2969 62.5055 65.2443 62.9442 66.8714C63.0992 67.4464 63.0187 68.0599 62.7212 68.576C62.4238 69.0922 61.9335 69.4683 61.3585 69.6227H61.3579C60.2331 69.9243 59.0764 69.2568 58.7748 68.1314C58.329 66.4688 57.772 64.3922 57.772 64.3922Z" fill="white"/>
</g>
<path fill-rule="evenodd" clip-rule="evenodd" d="M98.1665 81.4356C98.0157 82.1332 98.4423 82.8253 99.1333 83.0032C101.516 83.6185 106.506 84.9055 106.506 84.9055L113.416 88.727L114.342 82.5832L99.5425 80.4772C98.9038 80.3865 98.3029 80.8047 98.1665 81.4356Z" fill="#B2B2EB"/>
<path fill-rule="evenodd" clip-rule="evenodd" d="M104.784 91.729C104.839 92.1231 105.048 92.4788 105.365 92.7186C105.682 92.9589 106.081 93.0629 106.475 93.0082C108.101 92.7823 110.692 92.4218 112.318 92.1958C112.712 92.1412 113.068 91.9321 113.308 91.6154C113.548 91.2976 113.651 90.898 113.597 90.5044C113.542 90.1103 113.334 89.7545 113.016 89.5142C112.699 89.2745 112.3 89.1705 111.906 89.2252C110.279 89.4511 107.689 89.8116 106.063 90.0376C105.669 90.0922 105.313 90.3013 105.073 90.618C104.833 90.9358 104.729 91.3354 104.784 91.729Z" fill="#A5A5E7"/>
<path fill-rule="evenodd" clip-rule="evenodd" d="M102.17 89.3813C102.225 89.7749 102.433 90.1312 102.751 90.3709C103.068 90.6107 103.467 90.7152 103.861 90.6599C105.487 90.434 108.078 90.0735 109.704 89.8476C110.098 89.7935 110.454 89.5844 110.694 89.2671C110.934 88.9493 111.037 88.5503 110.983 88.1562C110.928 87.7626 110.719 87.4063 110.402 87.1665C110.085 86.9268 109.686 86.8229 109.291 86.8775C107.665 87.1035 105.075 87.464 103.449 87.6899C103.054 87.744 102.699 87.9531 102.458 88.2703C102.219 88.5882 102.115 88.9878 102.17 89.3813Z" fill="#A5A5E7"/>
<path fill-rule="evenodd" clip-rule="evenodd" d="M102.115 89.9641C102.582 90.6472 103.517 90.8209 104.199 90.3522C105.604 89.389 107.883 87.8256 109.288 86.8624C109.97 86.3944 110.144 85.4606 109.676 84.7774C109.207 84.0943 108.274 83.9206 107.591 84.3893C106.186 85.3525 103.907 86.9159 102.503 87.8791C101.82 88.3477 101.646 89.2809 102.115 89.9641Z" fill="#B2B2EB"/>
<mask id="mask17" mask-type="alpha" maskUnits="userSpaceOnUse" x="101" y="84" width="9" height="7">
<path d="M107.592 84.3895C106.187 85.3533 103.907 86.9161 102.503 87.8793C101.82 88.348 101.647 89.2817 102.115 89.9649C102.582 90.6475 103.517 90.8211 104.199 90.353C105.604 89.3893 107.883 87.8264 109.287 86.8627C109.97 86.3946 110.145 85.4615 109.676 84.7783C109.385 84.3547 108.916 84.127 108.438 84.127C108.146 84.127 107.85 84.2117 107.592 84.3895Z" fill="white"/>
</mask>
<g mask="url(#mask17)">
<path fill-rule="evenodd" clip-rule="evenodd" d="M100.82 89.9916C101.045 90.3196 101.391 90.5443 101.782 90.6176C102.173 90.6904 102.577 90.605 102.904 90.3797C104.985 88.9527 109.163 86.0872 111.244 84.6601C111.571 84.4348 111.796 84.0893 111.869 83.6976C111.943 83.307 111.857 82.9032 111.632 82.5752C111.407 82.2471 111.061 82.0218 110.67 81.9491C110.279 81.8764 109.875 81.9623 109.547 82.187C107.466 83.614 103.289 86.4795 101.208 87.9066C100.88 88.1313 100.655 88.4774 100.582 88.8685C100.509 89.2597 100.595 89.6635 100.82 89.9916Z" fill="#CBCBEF"/>
</g>
<path fill-rule="evenodd" clip-rule="evenodd" d="M105.004 92.343C105.473 93.0261 106.406 93.1998 107.089 92.7311C108.494 91.7679 110.772 90.2045 112.177 89.2413C112.86 88.7727 113.034 87.8395 112.565 87.1564C112.097 86.4732 111.163 86.2995 110.481 86.7682C109.076 87.7314 106.797 89.2948 105.393 90.258C104.71 90.7267 104.536 91.6598 105.004 92.343Z" fill="#B2B2EB"/>
<mask id="mask18" mask-type="alpha" maskUnits="userSpaceOnUse" x="104" y="86" width="9" height="7">
<path d="M110.482 86.7681C109.077 87.7318 106.797 89.2953 105.394 90.2584C104.71 90.7265 104.536 91.6602 105.004 92.3434C105.473 93.0266 106.406 93.1996 107.089 92.7316C108.493 91.7678 110.772 90.205 112.177 89.2418C112.86 88.7725 113.035 87.84 112.565 87.1568C112.275 86.7332 111.805 86.5049 111.328 86.5049C111.035 86.5049 110.74 86.5902 110.482 86.7681Z" fill="white"/>
</mask>
<g mask="url(#mask18)">
<path fill-rule="evenodd" clip-rule="evenodd" d="M103.709 92.3693C104.178 93.0525 105.111 93.2262 105.795 92.7575C107.709 91.4446 111.368 88.9342 113.283 87.6214C113.965 87.1521 114.14 86.2196 113.671 85.5364C113.203 84.8532 112.269 84.6796 111.586 85.1476C109.673 86.4611 106.012 88.9715 104.098 90.2844C103.415 90.753 103.242 91.6862 103.709 92.3693Z" fill="#CBCBEF"/>
</g>
<path fill-rule="evenodd" clip-rule="evenodd" d="M94.4944 91.4477C94.2745 91.1196 94.194 90.7183 94.2703 90.3313C94.3466 89.9444 94.5737 89.6031 94.9018 89.3831C97.6579 87.5349 104.263 83.106 106.784 81.4152C107.05 81.2373 107.375 81.1718 107.688 81.2337C108.002 81.2956 108.278 81.4795 108.456 81.745C108.56 81.8995 108.667 82.0599 108.771 82.2143C108.949 82.4799 109.014 82.805 108.952 83.1192C108.89 83.4322 108.707 83.7086 108.441 83.8871C105.921 85.5773 99.3145 90.0074 96.5596 91.8551C96.2315 92.075 95.8301 92.1555 95.4426 92.0792C95.0562 92.0029 94.7143 91.7758 94.495 91.4477H94.4944Z" fill="#B2B2EB"/>
<mask id="mask19" mask-type="alpha" maskUnits="userSpaceOnUse" x="94" y="81" width="15" height="12">
<path d="M106.783 81.4143C104.263 83.1051 97.6576 87.5346 94.902 89.3822C94.5734 89.6021 94.3462 89.9434 94.2705 90.3304C94.1942 90.7173 94.2747 91.1187 94.4947 91.4468H94.4953C94.7146 91.7749 95.0559 92.002 95.4428 92.0783C95.8298 92.1546 96.2317 92.0747 96.5592 91.8542C99.3153 90.0065 105.921 85.577 108.441 83.8868C108.707 83.7083 108.891 83.4319 108.953 83.1183C109.014 82.8046 108.949 82.4796 108.772 82.2134C108.667 82.0596 108.56 81.8991 108.456 81.7441C108.278 81.4791 108.002 81.2953 107.688 81.2328C107.611 81.2178 107.533 81.21 107.455 81.21C107.218 81.21 106.984 81.2803 106.783 81.4143Z" fill="white"/>
</mask>
<g mask="url(#mask19)">
<path fill-rule="evenodd" clip-rule="evenodd" d="M94.1125 90.7529C93.8925 90.4254 93.812 90.0241 93.8883 89.6371C93.9646 89.2495 94.1918 88.9089 94.5192 88.6889C97.9604 86.3816 107.403 80.0498 107.403 80.0498L109.06 82.5211C109.06 82.5211 99.6181 88.853 96.177 91.1609C95.8489 91.3802 95.4476 91.4613 95.0606 91.3844C94.6737 91.3081 94.3324 91.0816 94.1131 90.7535C94.1125 90.7535 94.1125 90.7535 94.1125 90.7529Z" fill="#CBCBEF"/>
</g>
<mask id="mask20" mask-type="alpha" maskUnits="userSpaceOnUse" x="94" y="81" width="15" height="12">
<path d="M106.783 81.4143C104.263 83.1051 97.6576 87.5346 94.902 89.3822C94.5734 89.6021 94.3462 89.9434 94.2705 90.3304C94.1942 90.7173 94.2747 91.1187 94.4947 91.4468H94.4953C94.7146 91.7749 95.0559 92.002 95.4428 92.0783C95.8298 92.1546 96.2317 92.0747 96.5592 91.8542C99.3153 90.0065 105.921 85.577 108.441 83.8868C108.707 83.7083 108.891 83.4319 108.953 83.1183C109.014 82.8046 108.949 82.4796 108.772 82.2134C108.667 82.0596 108.56 81.8991 108.456 81.7441C108.278 81.4791 108.002 81.2953 107.688 81.2328C107.611 81.2178 107.533 81.21 107.455 81.21C107.218 81.21 106.984 81.2803 106.783 81.4143Z" fill="white"/>
</mask>
<g mask="url(#mask20)">
<path fill-rule="evenodd" clip-rule="evenodd" d="M96.4337 91.3263C95.9368 91.664 95.3053 91.6081 95.0163 91.1971C94.7273 90.7867 94.8877 90.1738 95.372 89.8193L96.4337 91.3263Z" fill="#B2B2EB"/>
</g>
<path fill-rule="evenodd" clip-rule="evenodd" d="M100.768 73.7246C101.362 73.158 102.304 73.1796 102.871 73.7738C104.345 75.318 107.044 78.1469 108.516 79.6917C109.084 80.2859 109.062 81.2275 108.467 81.7947V81.7953C107.873 82.3625 106.931 82.3403 106.364 81.746C104.89 80.2012 102.191 77.3724 100.718 75.8282C100.151 75.2345 100.173 74.2918 100.767 73.7246H100.768Z" fill="#CBCBEF"/>
<mask id="mask21" mask-type="alpha" maskUnits="userSpaceOnUse" x="100" y="73" width="9" height="10">
<path d="M100.768 73.7245H100.767C100.173 74.2917 100.151 75.2344 100.718 75.8281C102.192 77.3723 104.891 80.2011 106.364 81.7459C106.931 82.3402 107.873 82.363 108.468 81.7952V81.7946C109.062 81.228 109.084 80.2858 108.517 79.6916C107.044 78.1468 104.345 75.3179 102.871 73.7737C102.579 73.4673 102.187 73.3135 101.794 73.3135C101.426 73.3135 101.055 73.4499 100.768 73.7245Z" fill="white"/>
</mask>
<g mask="url(#mask21)">
<path fill-rule="evenodd" clip-rule="evenodd" d="M99.6094 74.951C99.3967 75.1541 99.2735 75.4341 99.2681 75.7279C99.2615 76.0217 99.3715 76.3065 99.5751 76.5186C100.853 77.852 103.401 80.5126 104.679 81.8465C104.881 82.0586 105.161 82.1811 105.455 82.1877C105.75 82.1944 106.034 82.0832 106.246 81.8795C106.459 81.6758 106.582 81.397 106.588 81.1026C106.594 80.8088 106.483 80.524 106.28 80.3119C105.003 78.978 102.454 76.318 101.177 74.9853C100.974 74.772 100.695 74.6494 100.4 74.6428C100.106 74.6374 99.8221 74.7473 99.6094 74.951Z" fill="#B2B2EB"/>
</g>
<path fill-rule="evenodd" clip-rule="evenodd" d="M94.4646 78.6046C94.2765 78.2585 94.232 77.8511 94.3432 77.4725C94.4543 77.094 94.7115 76.7749 95.0582 76.5869C96.6553 75.7144 99.3411 74.2483 100.938 73.3771C101.284 73.1878 101.691 73.1446 102.07 73.2557C102.448 73.3669 102.767 73.6241 102.956 73.9701V73.9707C103.146 74.3168 103.19 74.7242 103.078 75.1028C102.967 75.4813 102.71 75.8004 102.363 75.989C100.767 76.8609 98.0811 78.327 96.4834 79.1982C96.1374 79.3875 95.73 79.4307 95.352 79.3196C94.9729 79.2084 94.6538 78.9513 94.4652 78.6052C94.4652 78.6052 94.4652 78.6046 94.4646 78.6046Z" fill="#B2B2EB"/>
<mask id="mask22" mask-type="alpha" maskUnits="userSpaceOnUse" x="94" y="73" width="10" height="7">
<path d="M100.938 73.3768C99.3412 74.248 96.6547 75.7147 95.0588 76.5866C94.7115 76.7746 94.4544 77.0943 94.3432 77.4728C94.2321 77.8508 94.2759 78.2581 94.4646 78.6048C94.4652 78.6048 94.4652 78.6048 94.4652 78.6048C94.6539 78.9515 94.9729 79.2081 95.3515 79.3193C95.73 79.4304 96.1374 79.3872 96.4835 79.1985C98.0812 78.3266 100.767 76.8605 102.364 75.9893C102.71 75.8 102.967 75.481 103.078 75.1024C103.189 74.7239 103.146 74.3171 102.957 73.971V73.9704C102.767 73.6243 102.448 73.3666 102.07 73.2554C101.932 73.2151 101.791 73.1953 101.65 73.1953C101.403 73.1953 101.158 73.2566 100.938 73.3768Z" fill="white"/>
</mask>
<g mask="url(#mask22)">
<path fill-rule="evenodd" clip-rule="evenodd" d="M94.1213 77.8959C93.9332 77.5492 93.8887 77.1418 94.0005 76.7633C94.1111 76.3841 94.3682 76.0657 94.7149 75.8764C96.5698 74.8639 99.9628 73.0127 101.955 71.9245C102.825 71.4499 103.916 71.7707 104.391 72.6408C104.391 72.6414 104.391 72.6414 104.391 72.6414C104.729 73.2615 104.636 74.0275 104.16 74.5491C103.444 75.3332 102.502 76.3649 102.502 76.3649C102.502 76.3649 102.274 76.1336 102.051 75.9094C101.805 75.6619 101.424 75.606 101.118 75.7742C100.066 76.3481 97.6507 77.6651 96.1402 78.4883C95.4185 78.8825 94.5148 78.6169 94.1213 77.8959Z" fill="#CBCBEF"/>
</g>
<mask id="mask23" mask-type="alpha" maskUnits="userSpaceOnUse" x="94" y="73" width="10" height="7">
<path d="M100.938 73.3768C99.3412 74.248 96.6547 75.7147 95.0588 76.5866C94.7115 76.7746 94.4544 77.0943 94.3432 77.4728C94.2321 77.8508 94.2759 78.2581 94.4646 78.6048C94.4652 78.6048 94.4652 78.6048 94.4652 78.6048C94.6539 78.9515 94.9729 79.2081 95.3515 79.3193C95.73 79.4304 96.1374 79.3872 96.4835 79.1985C98.0812 78.3266 100.767 76.8605 102.364 75.9893C102.71 75.8 102.967 75.481 103.078 75.1024C103.189 74.7239 103.146 74.3171 102.957 73.971V73.9704C102.767 73.6243 102.448 73.3666 102.07 73.2554C101.932 73.2151 101.791 73.1953 101.65 73.1953C101.403 73.1953 101.158 73.2566 100.938 73.3768Z" fill="white"/>
</mask>
<g mask="url(#mask23)">
<path fill-rule="evenodd" clip-rule="evenodd" d="M96.0355 77.69C95.598 78.1022 94.9665 78.1472 94.6156 77.7879C94.2653 77.428 94.326 76.7983 94.7478 76.3711L96.0355 77.69Z" fill="#B2B2EB"/>
</g>
<path fill-rule="evenodd" clip-rule="evenodd" d="M120.764 79.4586C119.76 78.9166 118.633 78.6426 117.493 78.6643C114.854 78.7141 109.846 78.8085 107.012 78.862C106.56 78.8704 106.144 79.1107 105.909 79.4989C105.677 79.8864 105.658 80.3671 105.862 80.7709C106.944 82.9129 108.72 86.4316 109.916 88.8032C110.666 90.2897 112.278 91.1369 113.927 90.9122C116.502 90.5631 119.951 90.0944 119.951 90.0944C122.195 89.5338 123.863 87.6525 124.153 85.3578C124.442 83.0638 123.293 80.8268 121.259 79.7266C121.085 79.6323 120.919 79.5433 120.764 79.4586Z" fill="#CBCBEF"/>
<mask id="mask24" mask-type="alpha" maskUnits="userSpaceOnUse" x="105" y="78" width="20" height="13">
<path d="M117.493 78.6633C114.854 78.7132 109.846 78.8075 107.012 78.861C106.56 78.8694 106.144 79.1097 105.91 79.4979C105.677 79.8855 105.659 80.3661 105.862 80.7699C106.944 82.912 108.719 86.4306 109.916 88.8022C110.666 90.2893 112.278 91.1359 113.927 90.9118C116.502 90.5621 119.951 90.0934 119.951 90.0934C122.195 89.5328 123.863 87.6516 124.153 85.3575C124.441 83.0628 123.293 80.8264 121.259 79.7256C121.085 79.6319 120.919 79.5424 120.764 79.4582C119.797 78.9355 118.715 78.6621 117.618 78.6621C117.577 78.6621 117.535 78.6621 117.493 78.6633Z" fill="white"/>
</mask>
<g mask="url(#mask24)">
<path fill-rule="evenodd" clip-rule="evenodd" d="M99.5794 74.9202C99.3667 75.1239 99.2441 75.4033 99.2381 75.6971C99.2315 75.9915 99.342 76.2757 99.5457 76.4884C100.823 77.8217 103.372 80.4823 104.649 81.8156C104.852 82.0277 105.131 82.1503 105.426 82.1569C105.72 82.1635 106.004 82.0524 106.216 81.8493C106.429 81.6456 106.552 81.3668 106.558 81.0718C106.564 80.7779 106.454 80.4931 106.251 80.2816C104.973 78.9477 102.424 76.2877 101.147 74.9538C100.944 74.7417 100.665 74.6185 100.37 74.6125C100.076 74.6065 99.7921 74.7171 99.5794 74.9202Z" fill="#B2B2EB"/>
</g>
<path fill-rule="evenodd" clip-rule="evenodd" d="M89.6132 81.3672C89.773 82.063 89.3542 82.76 88.6651 82.9469C86.2917 83.5898 81.316 84.9375 81.316 84.9375L74.4536 88.8419L73.4531 82.7096L88.2258 80.4257C88.8633 80.3272 89.4696 80.7381 89.6132 81.3672Z" fill="#B2B2EB"/>
<path fill-rule="evenodd" clip-rule="evenodd" d="M84.101 91.8056C84.0632 92.2009 83.8679 92.5656 83.5615 92.818C83.2532 93.0704 82.8585 93.1905 82.4625 93.1515C80.8294 92.9923 78.2252 92.7369 76.5921 92.5771C76.1961 92.5386 75.832 92.3439 75.5797 92.0369C75.3267 91.7293 75.2071 91.3345 75.2456 90.9391V90.9385C75.284 90.5426 75.4787 90.1784 75.7858 89.9261C76.0934 89.6737 76.4882 89.5535 76.8841 89.592C78.5179 89.7524 81.1214 90.0072 82.7551 90.167C83.1505 90.2061 83.5146 90.4002 83.7676 90.7072C84.0199 91.0148 84.1401 91.4096 84.101 91.8056Z" fill="#A5A5E7"/>
<path fill-rule="evenodd" clip-rule="evenodd" d="M86.8794 89.3001C86.8415 89.6961 86.6462 90.0608 86.3398 90.3132C86.0321 90.5649 85.6368 90.6857 85.2414 90.6466C83.6077 90.4868 81.0036 90.232 79.3704 90.0716C78.9745 90.0331 78.6103 89.8385 78.358 89.5314C78.105 89.2244 77.9855 88.8296 78.0239 88.4337C78.063 88.0377 78.257 87.6736 78.5641 87.4212C78.8717 87.1683 79.2665 87.0487 79.6624 87.0871C81.2962 87.247 83.8997 87.5023 85.5334 87.6616C85.9288 87.7006 86.2935 87.8947 86.5459 88.2023C86.7982 88.51 86.9184 88.9047 86.8794 89.3001Z" fill="#A5A5E7"/>
<path fill-rule="evenodd" clip-rule="evenodd" d="M86.7215 89.9101C86.2894 90.6167 85.3665 90.839 84.6593 90.407C83.2064 89.5183 80.8493 88.0762 79.3964 87.1876C78.6898 86.7549 78.4675 85.832 78.8989 85.1254C79.3315 84.4188 80.255 84.1965 80.961 84.6291C82.4145 85.5178 84.7717 86.9598 86.2251 87.8485C86.9311 88.2805 87.1541 89.2034 86.7215 89.9101Z" fill="#B2B2EB"/>
<mask id="mask25" mask-type="alpha" maskUnits="userSpaceOnUse" x="78" y="84" width="9" height="7">
<path d="M78.8992 85.1276C78.4672 85.8342 78.6895 86.7565 79.3961 87.1891C80.849 88.0784 83.2061 89.5199 84.6596 90.4091C85.3662 90.8411 86.2891 90.6182 86.7212 89.9122C87.1538 89.205 86.9309 88.2827 86.2249 87.8507C84.7714 86.9614 82.4142 85.5199 80.9613 84.6307C80.7168 84.4817 80.447 84.4102 80.1802 84.4102C79.6755 84.4102 79.1822 84.6655 78.8992 85.1276Z" fill="white"/>
</mask>
<g mask="url(#mask25)">
<path fill-rule="evenodd" clip-rule="evenodd" d="M88.0166 89.8685C87.8081 90.208 87.4752 90.4513 87.0877 90.5439C86.7019 90.637 86.2939 90.5733 85.9544 90.3654C83.8016 89.0489 79.4808 86.4058 77.3285 85.0893C76.9884 84.882 76.7457 84.5485 76.6531 84.1615C76.56 83.7746 76.6237 83.3672 76.8316 83.0277C77.0389 82.6888 77.3724 82.4455 77.7599 82.3524C78.1457 82.2592 78.5543 82.3229 78.8925 82.5308C81.0454 83.8473 85.3674 86.4905 87.5197 87.807C87.8586 88.0149 88.1019 88.3483 88.195 88.7347C88.2876 89.1216 88.2239 89.5296 88.0166 89.8685Z" fill="#CBCBEF"/>
</g>
<path fill-rule="evenodd" clip-rule="evenodd" d="M83.9055 92.428C83.4657 93.1292 82.5403 93.3407 81.8391 92.9002C80.3959 91.9941 78.0561 90.525 76.6129 89.6189C75.9117 89.1791 75.7008 88.2532 76.1406 87.552C76.5816 86.8508 77.5069 86.6387 78.2081 87.0797C79.6502 87.9852 81.9905 89.4549 83.4332 90.361C84.1344 90.8008 84.3459 91.7262 83.9055 92.428Z" fill="#B2B2EB"/>
<mask id="mask26" mask-type="alpha" maskUnits="userSpaceOnUse" x="75" y="86" width="10" height="8">
<path d="M76.1407 87.552C75.7003 88.2532 75.9118 89.1791 76.613 89.6196C78.0563 90.5251 80.396 91.9942 81.8387 92.9003C82.5405 93.3401 83.4652 93.1292 83.9056 92.428C84.3467 91.7262 84.1346 90.8009 83.4327 90.3604C81.9907 89.4549 79.6503 87.9858 78.2083 87.0791C77.9601 86.9235 77.6849 86.8496 77.4121 86.8496C76.9134 86.8496 76.4255 87.0984 76.1407 87.552Z" fill="white"/>
</mask>
<g mask="url(#mask26)">
<path fill-rule="evenodd" clip-rule="evenodd" d="M85.2004 92.4014C84.76 93.1026 83.8347 93.3147 83.1335 92.8737C81.1675 91.6395 77.4091 89.28 75.4425 88.0452C74.7413 87.6048 74.5298 86.6794 74.9702 85.9782C75.4106 85.2764 76.3359 85.0649 77.0378 85.5048C79.0044 86.7395 82.7621 89.0997 84.7281 90.3345C85.4293 90.7743 85.6408 91.7002 85.2004 92.4014Z" fill="#CBCBEF"/>
</g>
<path fill-rule="evenodd" clip-rule="evenodd" d="M94.3706 91.1073C94.5773 90.7708 94.641 90.3664 94.5491 89.9825C94.4577 89.5991 94.2162 89.2675 93.8809 89.0614C91.0521 87.3267 84.272 83.1681 81.6853 81.5813C81.4131 81.4142 81.085 81.362 80.7738 81.4365C80.4631 81.511 80.194 81.7063 80.0269 81.9784C79.9302 82.1371 79.8298 82.3017 79.7319 82.4597C79.5643 82.7325 79.5126 83.06 79.5871 83.3712C79.6622 83.6825 79.8569 83.9511 80.1291 84.1175C82.7164 85.705 89.4965 89.8635 92.3247 91.5976C92.6606 91.8043 93.0649 91.8686 93.4495 91.7766C93.8322 91.6847 94.1639 91.4444 94.37 91.1079C94.37 91.1073 94.3706 91.1073 94.3706 91.1073Z" fill="#B2B2EB"/>
<mask id="mask27" mask-type="alpha" maskUnits="userSpaceOnUse" x="79" y="81" width="16" height="11">
<path d="M80.774 81.4373C80.4633 81.5119 80.1941 81.7065 80.0265 81.9793C79.9297 82.1379 79.83 82.3026 79.7321 82.4606C79.5644 82.7334 79.5127 83.0609 79.5879 83.3721C79.6618 83.6834 79.857 83.9519 80.1286 84.1184C82.7165 85.7052 89.496 89.8644 92.3243 91.5991C92.6607 91.8052 93.0651 91.8694 93.4491 91.7775C93.8324 91.6856 94.1641 91.4446 94.3702 91.1082C94.3702 91.1076 94.3708 91.1076 94.3708 91.1076C94.5775 90.7723 94.6412 90.3667 94.5492 89.9834C94.4573 89.6 94.2158 89.2689 93.8805 89.0622C91.0522 87.3276 84.2721 83.169 81.6855 81.5816C81.4938 81.465 81.2757 81.4043 81.0546 81.4043C80.9608 81.4043 80.8665 81.4151 80.774 81.4373Z" fill="white"/>
</mask>
<g mask="url(#mask27)">
<path fill-rule="evenodd" clip-rule="evenodd" d="M94.7239 90.3989C94.9312 90.0624 94.9948 89.6586 94.9035 89.2747C94.8116 88.8907 94.57 88.559 94.2342 88.3529C90.7023 86.1869 81.0117 80.2432 81.0117 80.2432L79.4554 82.7794C79.4554 82.7794 89.1467 88.7237 92.6785 90.8898C93.0144 91.0959 93.4188 91.1608 93.8027 91.0682C94.1861 90.9763 94.5178 90.736 94.7239 90.3995V90.3989Z" fill="#CBCBEF"/>
</g>
<mask id="mask28" mask-type="alpha" maskUnits="userSpaceOnUse" x="79" y="81" width="16" height="11">
<path d="M80.774 81.4373C80.4633 81.5119 80.1941 81.7065 80.0265 81.9793C79.9297 82.1379 79.83 82.3026 79.7321 82.4606C79.5644 82.7334 79.5127 83.0609 79.5879 83.3721C79.6618 83.6834 79.857 83.9519 80.1286 84.1184C82.7165 85.7052 89.496 89.8644 92.3243 91.5991C92.6607 91.8052 93.0651 91.8694 93.4491 91.7775C93.8324 91.6856 94.1641 91.4446 94.3702 91.1082C94.3702 91.1076 94.3708 91.1076 94.3708 91.1076C94.5775 90.7723 94.6412 90.3667 94.5492 89.9834C94.4573 89.6 94.2158 89.2689 93.8805 89.0622C91.0522 87.3276 84.2721 83.169 81.6855 81.5816C81.4938 81.465 81.2757 81.4043 81.0546 81.4043C80.9608 81.4043 80.8665 81.4151 80.774 81.4373Z" fill="white"/>
</mask>
<g mask="url(#mask28)">
<path fill-rule="evenodd" clip-rule="evenodd" d="M92.4283 91.065C92.9391 91.3817 93.567 91.3005 93.8392 90.8781C94.1113 90.4563 93.9269 89.8507 93.4276 89.5166L92.4283 91.065Z" fill="#B2B2EB"/>
</g>
<path fill-rule="evenodd" clip-rule="evenodd" d="M88.2923 74.1008C87.757 73.4771 86.8184 73.4062 86.1947 73.9403C84.5748 75.3307 81.6078 77.8772 79.9879 79.2682C79.3642 79.8023 79.2921 80.7421 79.8274 81.3651V81.3657C80.3634 81.9888 81.3019 82.0609 81.925 81.5256C83.5461 80.1352 86.512 77.5894 88.1325 76.1984C88.7556 75.6642 88.8277 74.7245 88.2929 74.1008H88.2923Z" fill="#CBCBEF"/>
<mask id="mask29" mask-type="alpha" maskUnits="userSpaceOnUse" x="79" y="73" width="10" height="9">
<path d="M86.1943 73.9407C84.5744 75.3305 81.6079 77.877 79.988 79.268C79.3637 79.8027 79.2922 80.7419 79.827 81.365V81.3656C80.363 81.9892 81.3021 82.0607 81.9252 81.5254C83.5457 80.135 86.5122 77.5892 88.1321 76.1982C88.7558 75.664 88.8273 74.7243 88.2931 74.1006H88.2925C87.9981 73.7581 87.5817 73.582 87.1629 73.582C86.8198 73.582 86.4749 73.6998 86.1943 73.9407Z" fill="white"/>
</mask>
<g mask="url(#mask29)">
<path fill-rule="evenodd" clip-rule="evenodd" d="M89.3227 75.6603C89.7325 76.1398 89.676 76.8602 89.1971 77.27C87.9089 78.3708 85.5066 80.4245 84.2196 81.5247C83.7401 81.9345 83.0197 81.878 82.6099 81.3991C82.6099 81.3985 82.6093 81.3985 82.6093 81.3985C82.1995 80.919 82.2554 80.1986 82.7355 79.7888C84.0231 78.688 86.4254 76.6349 87.7124 75.5341C88.1919 75.1237 88.9123 75.1802 89.3227 75.6603Z" fill="#B2B2EB"/>
</g>
<path fill-rule="evenodd" clip-rule="evenodd" d="M94.5539 78.6947C94.7287 78.3414 94.7563 77.9322 94.6296 77.5584C94.5034 77.1847 94.2336 76.8771 93.8797 76.7022C92.249 75.8959 89.5055 74.5403 87.8747 73.734C87.5208 73.5591 87.1116 73.5321 86.7379 73.6589C86.3648 73.7851 86.0559 74.0542 85.8811 74.4087C85.7062 74.7627 85.6792 75.1712 85.8054 75.545C85.9322 75.9187 86.2025 76.2269 86.5552 76.4018C88.186 77.2069 90.9307 78.5637 92.5614 79.37C92.9141 79.5449 93.3227 79.5719 93.6964 79.4451C94.0702 79.319 94.379 79.0492 94.5539 78.6953V78.6947Z" fill="#B2B2EB"/>
<mask id="mask30" mask-type="alpha" maskUnits="userSpaceOnUse" x="85" y="73" width="10" height="7">
<path d="M86.7375 73.6594C86.3644 73.7856 86.0556 74.0548 85.8813 74.4093C85.7065 74.7632 85.6794 75.1712 85.8056 75.5449C85.9318 75.9186 86.2022 76.2269 86.5555 76.4017C88.1862 77.2075 90.9303 78.5642 92.5611 79.3706C92.9144 79.5454 93.3229 79.5724 93.6967 79.4457C94.0698 79.3189 94.3787 79.0491 94.5535 78.6958V78.6952C94.729 78.3419 94.7566 77.9327 94.6292 77.559C94.503 77.1852 94.2333 76.877 93.8799 76.7021C92.2486 75.8958 89.5051 74.5409 87.8744 73.7345C87.6677 73.6324 87.4423 73.5807 87.2158 73.5801C87.0548 73.5801 86.8932 73.6065 86.7375 73.6594Z" fill="white"/>
</mask>
<g mask="url(#mask30)">
<path fill-rule="evenodd" clip-rule="evenodd" d="M94.8675 77.9718C95.0424 77.6179 95.07 77.2087 94.9432 76.8343C94.8165 76.4612 94.5467 76.153 94.1928 75.9781C92.2953 75.0402 88.8229 73.3241 86.7902 72.3189C86.366 72.1092 85.8751 72.0761 85.4268 72.2276C84.9786 72.3802 84.6091 72.7028 84.3994 73.1276C84.0839 73.7652 84.2143 74.533 84.7208 75.0306C85.4509 75.7486 86.387 76.6685 86.387 76.6685C86.387 76.6685 86.6598 76.4372 86.9074 76.2269C87.1459 76.0244 87.483 75.9823 87.7636 76.1217C88.7947 76.6306 91.3086 77.8726 92.8751 78.6465C93.6111 79.0106 94.504 78.7084 94.8675 77.9718Z" fill="#CBCBEF"/>
</g>
<mask id="mask31" mask-type="alpha" maskUnits="userSpaceOnUse" x="85" y="73" width="10" height="7">
<path d="M86.7375 73.6594C86.3644 73.7856 86.0556 74.0548 85.8813 74.4093C85.7065 74.7632 85.6794 75.1712 85.8056 75.5449C85.9318 75.9186 86.2022 76.2269 86.5555 76.4017C88.1862 77.2075 90.9303 78.5642 92.5611 79.3706C92.9144 79.5454 93.3229 79.5724 93.6967 79.4457C94.0698 79.3189 94.3787 79.0491 94.5535 78.6958V78.6952C94.729 78.3419 94.7566 77.9327 94.6292 77.559C94.503 77.1852 94.2333 76.877 93.8799 76.7021C92.2486 75.8958 89.5051 74.5409 87.8744 73.7345C87.6677 73.6324 87.4423 73.5807 87.2158 73.5801C87.0548 73.5801 86.8932 73.6065 86.7375 73.6594Z" fill="white"/>
</mask>
<g mask="url(#mask31)">
<path fill-rule="evenodd" clip-rule="evenodd" d="M92.947 77.8446C93.4013 78.2387 94.0346 78.258 94.3699 77.8848C94.7063 77.5123 94.6192 76.8838 94.1806 76.4746L92.947 77.8446Z" fill="#B2B2EB"/>
</g>
<path fill-rule="evenodd" clip-rule="evenodd" d="M67.6375 80.1924C68.6181 79.609 69.7326 79.2906 70.8731 79.2659C73.512 79.2082 78.519 79.1007 81.3532 79.0394C81.8057 79.0292 82.2317 79.2533 82.4805 79.6306C82.7298 80.0086 82.7671 80.4875 82.5796 80.8997C81.5864 83.0838 79.9538 86.6721 78.8543 89.09C78.1651 90.6059 76.5896 91.5174 74.9319 91.3606C72.3452 91.1155 68.88 90.7868 68.88 90.7868C66.6154 90.3175 64.8723 88.5053 64.4902 86.2245C64.108 83.9436 65.1655 81.6621 67.1532 80.4803C67.3232 80.3799 67.4854 80.2832 67.6375 80.1924Z" fill="#CBCBEF"/>
<mask id="mask32" mask-type="alpha" maskUnits="userSpaceOnUse" x="64" y="79" width="19" height="13">
<path d="M81.3531 79.0391C78.5189 79.1004 73.5119 79.2079 70.873 79.2656C69.7325 79.2902 68.6179 79.6087 67.6373 80.1921C67.4859 80.2828 67.3237 80.379 67.153 80.4805C65.1654 81.6618 64.1079 83.9433 64.49 86.2235C64.8722 88.505 66.6153 90.3172 68.8799 90.7864C68.8799 90.7864 72.3457 91.1151 74.9317 91.3603C76.5895 91.5171 78.165 90.6056 78.8542 89.0896C79.9537 86.6718 81.5863 83.0828 82.5789 80.8987C82.7675 80.4871 82.7297 80.0082 82.4803 79.6309C82.237 79.2608 81.8242 79.0385 81.3832 79.0391C81.3729 79.0391 81.3633 79.0391 81.3531 79.0391Z" fill="white"/>
</mask>
<g mask="url(#mask32)">
<path fill-rule="evenodd" clip-rule="evenodd" d="M88.5965 74.7911C88.8159 74.9858 88.9511 75.2604 88.9691 75.5536C88.9865 75.8474 88.8874 76.1364 88.6933 76.3563C87.4711 77.7407 85.0323 80.5022 83.8107 81.8866C83.616 82.1065 83.3414 82.2405 83.0482 82.2592C82.7538 82.2772 82.466 82.178 82.2455 81.9834C82.025 81.7887 81.891 81.5141 81.8723 81.2209C81.8537 80.9277 81.9529 80.638 82.1481 80.4181C83.3703 79.0343 85.808 76.2728 87.0307 74.8884C87.2254 74.6679 87.5 74.5339 87.7932 74.5159C88.0864 74.4973 88.376 74.5964 88.5959 74.7911H88.5965Z" fill="#B2B2EB"/>
</g>
<path d="M90.0355 81.9869L94.5336 84.564L98.8002 81.8379" stroke="#6969DB" stroke-width="5.1073" stroke-linecap="round" stroke-linejoin="round"/>
<path fill-rule="evenodd" clip-rule="evenodd" d="M18.8896 9.68023C15.7453 11.2473 14.4649 15.0723 16.0319 18.2166C17.599 21.3609 21.4234 22.6419 24.5677 21.0749C27.7126 19.5079 28.9925 15.6828 27.426 12.5385C25.859 9.39422 22.0339 8.11379 18.8896 9.68023Z" stroke="#EFEFF9" stroke-width="1.20172" stroke-linecap="round" stroke-linejoin="round"/>
<path fill-rule="evenodd" clip-rule="evenodd" d="M6.17745 14.5444C5.49127 14.8869 5.21187 15.7214 5.55376 16.4076C5.89565 17.0938 6.73024 17.3732 7.41642 17.0313C8.1026 16.6894 8.382 15.8542 8.04011 15.1681C7.69822 14.4819 6.86363 14.2025 6.17745 14.5444Z" fill="#F7F7FC"/>
<path fill-rule="evenodd" clip-rule="evenodd" d="M11.7729 114.658C11.2886 114.658 10.895 115.042 10.895 115.514C10.895 115.986 11.2886 116.369 11.7729 116.369C12.2578 116.369 12.6507 115.986 12.6507 115.514C12.6507 115.042 12.2578 114.658 11.7729 114.658Z" fill="#DFDFF4"/>
<path d="M19.1677 101.889V113.824" stroke="#DFDFF4" stroke-width="1.20172" stroke-linecap="round" stroke-linejoin="round"/>
<path d="M13.1055 107.855H25.2302" stroke="#DFDFF4" stroke-width="1.20172" stroke-linecap="round" stroke-linejoin="round"/>
<path fill-rule="evenodd" clip-rule="evenodd" d="M121.164 70.251C120.593 70.251 120.129 69.7877 120.129 69.2157C120.129 68.6449 120.593 68.1816 121.164 68.1816C121.735 68.1816 122.199 68.6449 122.199 69.2157C122.199 69.7877 121.735 70.251 121.164 70.251Z" fill="#DFDFF4"/>
<path fill-rule="evenodd" clip-rule="evenodd" d="M134.438 69.7253V54.3301L121.782 62.1635L134.438 69.7253Z" stroke="#DFDFF4" stroke-width="1.20172" stroke-linecap="round" stroke-linejoin="round"/>
<path fill-rule="evenodd" clip-rule="evenodd" d="M48.7008 87.7307L51.514 86.9424L53.489 93.9923C53.6819 94.6724 54.4438 95.1904 55.3294 94.9422L56.1147 97.7458C53.471 98.4867 51.2478 96.8121 50.6758 94.78L50.2696 93.3313L47.457 94.1196L46.6735 91.3232L49.4867 90.5349L48.7008 87.7307ZM56.5738 88.5491L53.7606 89.3374L54.5441 92.1338L55.8846 91.7583L56.5738 88.5491Z" fill="white"/>
</svg>
