<svg width="116" height="116" viewBox="0 0 116 116" fill="none" xmlns="http://www.w3.org/2000/svg">
<path fill-rule="evenodd" clip-rule="evenodd" d="M58.0559 24.1191C39.3256 24.1191 24.1191 39.3256 24.1191 58.0559C24.1191 76.7861 39.3256 91.9931 58.0559 91.9931C76.7861 91.9931 91.9931 76.7861 91.9931 58.0559C91.9931 39.3256 76.7861 24.1191 58.0559 24.1191Z" fill="#B6B6EF"/>
<mask id="mask0" mask-type="alpha" maskUnits="userSpaceOnUse" x="24" y="24" width="68" height="68">
<path d="M24.1191 58.0559C24.1191 76.7861 39.3256 91.9931 58.0559 91.9931C76.7861 91.9931 91.9931 76.7861 91.9931 58.0559C91.9931 39.3256 76.7861 24.1191 58.0559 24.1191C39.3256 24.1191 24.1191 39.3256 24.1191 58.0559Z" fill="white"/>
</mask>
<g mask="url(#mask0)">
<path fill-rule="evenodd" clip-rule="evenodd" d="M63.0559 19.1191C44.3256 19.1191 29.1191 34.3256 29.1191 53.0559C29.1191 71.7861 44.3256 86.9931 63.0559 86.9931C81.7861 86.9931 96.9931 71.7861 96.9931 53.0559C96.9931 34.3256 81.7861 19.1191 63.0559 19.1191Z" fill="#CBCBF3"/>
</g>
<mask id="mask1" mask-type="alpha" maskUnits="userSpaceOnUse" x="24" y="24" width="68" height="68">
<path d="M24.1191 58.0559C24.1191 76.7861 39.3256 91.9931 58.0559 91.9931C76.7861 91.9931 91.9931 76.7861 91.9931 58.0559C91.9931 39.3256 76.7861 24.1191 58.0559 24.1191C39.3256 24.1191 24.1191 39.3256 24.1191 58.0559Z" fill="white"/>
</mask>
<g mask="url(#mask1)">
<path fill-rule="evenodd" clip-rule="evenodd" d="M64.7802 24.9817C62.8744 27.6134 65.978 33.1182 71.7068 37.2668C77.4356 41.4159 83.6339 42.6476 85.5392 40.0159C87.445 37.3848 84.3414 31.88 78.6125 27.7309C72.8842 23.5823 66.686 22.3506 64.7802 24.9817Z" fill="#D6D6F6"/>
</g>
<mask id="mask2" mask-type="alpha" maskUnits="userSpaceOnUse" x="24" y="24" width="68" height="68">
<path d="M24.1191 58.0559C24.1191 76.7861 39.3256 91.9931 58.0559 91.9931C76.7861 91.9931 91.9931 76.7861 91.9931 58.0559C91.9931 39.3256 76.7861 24.1191 58.0559 24.1191C39.3256 24.1191 24.1191 39.3256 24.1191 58.0559Z" fill="white"/>
</mask>
<g mask="url(#mask2)">
<path fill-rule="evenodd" clip-rule="evenodd" d="M74.6745 51.1602C71.8089 51.1602 69.4824 52.4377 69.4824 54.0114C69.4824 55.5846 71.8089 56.8621 74.6745 56.8621C77.5407 56.8621 79.8672 55.5846 79.8672 54.0114C79.8672 52.4377 77.5407 51.1602 74.6745 51.1602Z" fill="#ACACEB"/>
</g>
<mask id="mask3" mask-type="alpha" maskUnits="userSpaceOnUse" x="24" y="24" width="68" height="68">
<path d="M24.1191 58.0559C24.1191 76.7861 39.3256 91.9931 58.0559 91.9931C76.7861 91.9931 91.9931 76.7861 91.9931 58.0559C91.9931 39.3256 76.7861 24.1191 58.0559 24.1191C39.3256 24.1191 24.1191 39.3256 24.1191 58.0559Z" fill="white"/>
</mask>
<g mask="url(#mask3)">
<path fill-rule="evenodd" clip-rule="evenodd" d="M41.8406 51.1074C38.9749 51.1074 36.6484 52.3844 36.6484 53.9581C36.6484 55.5314 38.9749 56.8088 41.8406 56.8088C44.7062 56.8088 47.0327 55.5314 47.0327 53.9581C47.0327 52.3844 44.7062 51.1074 41.8406 51.1074Z" fill="#ACACEB"/>
</g>
<mask id="mask4" mask-type="alpha" maskUnits="userSpaceOnUse" x="24" y="24" width="68" height="68">
<path d="M24.1191 58.0559C24.1191 76.7861 39.3256 91.9931 58.0559 91.9931C76.7861 91.9931 91.9931 76.7861 91.9931 58.0559C91.9931 39.3256 76.7861 24.1191 58.0559 24.1191C39.3256 24.1191 24.1191 39.3256 24.1191 58.0559Z" fill="white"/>
</mask>
<g mask="url(#mask4)">
<path fill-rule="evenodd" clip-rule="evenodd" d="M70.6591 45.1398C69.2516 45.796 69.1466 48.5551 69.8023 49.9625C70.4594 51.3699 72.1352 51.9798 73.5426 51.3236C74.9506 50.6675 75.5604 48.9917 74.9033 47.5838C74.2476 46.1763 72.067 44.4836 70.6591 45.1398Z" fill="#9C9CE7"/>
</g>
<mask id="mask5" mask-type="alpha" maskUnits="userSpaceOnUse" x="24" y="24" width="68" height="68">
<path d="M24.1191 58.0559C24.1191 76.7861 39.3256 91.9931 58.0559 91.9931C76.7861 91.9931 91.9931 76.7861 91.9931 58.0559C91.9931 39.3256 76.7861 24.1191 58.0559 24.1191C39.3256 24.1191 24.1191 39.3256 24.1191 58.0559Z" fill="white"/>
</mask>
<g mask="url(#mask5)">
<path fill-rule="evenodd" clip-rule="evenodd" d="M71.0051 46.7231C70.0093 47.1871 70.0825 49.4558 70.547 50.4515C71.012 51.4472 72.1974 51.8788 73.1931 51.4143C74.1893 50.9503 74.6205 49.7644 74.156 48.7687C73.6915 47.773 72.0008 46.2586 71.0051 46.7231Z" fill="#5A4BE2"/>
</g>
<mask id="mask6" mask-type="alpha" maskUnits="userSpaceOnUse" x="70" y="46" width="5" height="6">
<path d="M71.0052 46.7228C70.009 47.1868 70.0827 49.4556 70.5472 50.4513C71.0117 51.447 72.1971 51.8786 73.1928 51.4141C74.189 50.9501 74.6201 49.7637 74.1561 48.7685C73.7509 47.8998 72.4126 46.6367 71.4164 46.6367C71.2706 46.6367 71.1322 46.6636 71.0052 46.7228Z" fill="white"/>
</mask>
<g mask="url(#mask6)">
<path fill-rule="evenodd" clip-rule="evenodd" d="M71.3819 45.6897C70.3862 46.1542 70.4594 48.4224 70.9244 49.4186C71.3884 50.4143 72.5738 50.846 73.57 50.3815C74.5657 49.917 74.9973 48.7316 74.5323 47.7359C74.0683 46.7397 72.3781 45.2257 71.3819 45.6897Z" fill="#6458E6"/>
</g>
<mask id="mask7" mask-type="alpha" maskUnits="userSpaceOnUse" x="70" y="46" width="5" height="6">
<path d="M71.0052 46.7228C70.009 47.1868 70.0827 49.4556 70.5472 50.4513C71.0117 51.447 72.1971 51.8786 73.1928 51.4141C74.189 50.9501 74.6201 49.7637 74.1561 48.7685C73.7509 47.8998 72.4126 46.6367 71.4164 46.6367C71.2706 46.6367 71.1322 46.6636 71.0052 46.7228Z" fill="white"/>
</mask>
<g mask="url(#mask7)">
<path opacity="0.5" fill-rule="evenodd" clip-rule="evenodd" d="M72.7624 48.0562C72.5673 48.1473 72.4827 48.3798 72.5738 48.5754C72.6649 48.7706 72.8974 48.8552 73.0925 48.7641C73.2887 48.673 73.3733 48.4405 73.2817 48.2454C73.1906 48.0497 72.9586 47.9651 72.7624 48.0562Z" fill="white"/>
</g>
<mask id="mask8" mask-type="alpha" maskUnits="userSpaceOnUse" x="70" y="46" width="5" height="6">
<path d="M71.0052 46.7228C70.009 47.1868 70.0827 49.4556 70.5472 50.4513C71.0117 51.447 72.1971 51.8786 73.1928 51.4141C74.189 50.9501 74.6201 49.7637 74.1561 48.7685C73.7509 47.8998 72.4126 46.6367 71.4164 46.6367C71.2706 46.6367 71.1322 46.6636 71.0052 46.7228Z" fill="white"/>
</mask>
<g mask="url(#mask8)">
<path opacity="0.5" fill-rule="evenodd" clip-rule="evenodd" d="M70.6437 47.6358C70.0458 47.9146 69.7864 48.6265 70.0652 49.225C70.3445 49.8229 71.0564 50.0823 71.6548 49.8035C72.2528 49.5242 72.5121 48.8122 72.2328 48.2143C71.9541 47.6159 71.2421 47.3565 70.6437 47.6358Z" fill="white"/>
</g>
<mask id="mask9" mask-type="alpha" maskUnits="userSpaceOnUse" x="70" y="46" width="5" height="6">
<path d="M71.0052 46.7228C70.009 47.1868 70.0827 49.4556 70.5472 50.4513C71.0117 51.447 72.1971 51.8786 73.1928 51.4141C74.189 50.9501 74.6201 49.7637 74.1561 48.7685C73.7509 47.8998 72.4126 46.6367 71.4164 46.6367C71.2706 46.6367 71.1322 46.6636 71.0052 46.7228Z" fill="white"/>
</mask>
<g mask="url(#mask9)">
<path opacity="0.5" fill-rule="evenodd" clip-rule="evenodd" d="M72.4871 49.5222C71.5477 49.9603 71.1404 51.0785 71.5785 52.0179C72.0166 52.9574 73.1353 53.3646 74.0743 52.9265C75.0142 52.4884 75.4215 51.3702 74.9833 50.4303C74.5452 49.4908 73.4266 49.0836 72.4871 49.5222Z" fill="white"/>
</g>
<mask id="mask10" mask-type="alpha" maskUnits="userSpaceOnUse" x="24" y="24" width="68" height="68">
<path d="M24.1191 58.0559C24.1191 76.7861 39.3256 91.9931 58.0559 91.9931C76.7861 91.9931 91.9931 76.7861 91.9931 58.0559C91.9931 39.3256 76.7861 24.1191 58.0559 24.1191C39.3256 24.1191 24.1191 39.3256 24.1191 58.0559Z" fill="white"/>
</mask>
<g mask="url(#mask10)">
<path fill-rule="evenodd" clip-rule="evenodd" d="M45.5245 45.1398C44.1166 44.4836 41.936 46.1763 41.2798 47.5838C40.6231 48.9917 41.233 50.6675 42.6409 51.3236C44.0484 51.9798 45.7241 51.3699 46.3808 49.9625C47.037 48.5551 46.9319 45.796 45.5245 45.1398Z" fill="#9C9CE7"/>
</g>
<mask id="mask11" mask-type="alpha" maskUnits="userSpaceOnUse" x="24" y="24" width="68" height="68">
<path d="M24.1191 58.0559C24.1191 76.7861 39.3256 91.9931 58.0559 91.9931C76.7861 91.9931 91.9931 76.7861 91.9931 58.0559C91.9931 39.3256 76.7861 24.1191 58.0559 24.1191C39.3256 24.1191 24.1191 39.3256 24.1191 58.0559Z" fill="white"/>
</mask>
<g mask="url(#mask11)">
<path fill-rule="evenodd" clip-rule="evenodd" d="M45.1754 46.7231C44.1797 46.2586 42.489 47.773 42.0245 48.7687C41.5605 49.7644 41.9916 50.9503 42.9873 51.4143C43.9835 51.8788 45.1689 51.4472 45.6334 50.4515C46.0979 49.4558 46.1711 47.1871 45.1754 46.7231Z" fill="#5A4BE2"/>
</g>
<mask id="mask12" mask-type="alpha" maskUnits="userSpaceOnUse" x="41" y="46" width="5" height="6">
<path d="M42.0247 48.7685C41.5602 49.7637 41.9918 50.9501 42.9876 51.4141C43.9833 51.8786 45.1687 51.447 45.6332 50.4513C46.0977 49.4556 46.1708 47.1868 45.1751 46.7228C45.0482 46.6636 44.9098 46.6367 44.7639 46.6367C43.7677 46.6362 42.4295 47.8998 42.0247 48.7685Z" fill="white"/>
</mask>
<g mask="url(#mask12)">
<path fill-rule="evenodd" clip-rule="evenodd" d="M46.2086 46.346C45.2129 45.882 43.5222 47.3959 43.0577 48.3921C42.5937 49.3878 43.0248 50.5732 44.021 51.0377C45.0167 51.5022 46.2021 51.0706 46.6666 50.0749C47.1311 49.0787 47.2043 46.8105 46.2086 46.346Z" fill="#6458E6"/>
</g>
<mask id="mask13" mask-type="alpha" maskUnits="userSpaceOnUse" x="41" y="46" width="5" height="6">
<path d="M42.0247 48.7685C41.5602 49.7637 41.9918 50.9501 42.9876 51.4141C43.9833 51.8786 45.1687 51.447 45.6332 50.4513C46.0977 49.4556 46.1708 47.1868 45.1751 46.7228C45.0482 46.6636 44.9098 46.6367 44.7639 46.6367C43.7677 46.6362 42.4295 47.8998 42.0247 48.7685Z" fill="white"/>
</mask>
<g mask="url(#mask13)">
<path opacity="0.5" fill-rule="evenodd" clip-rule="evenodd" d="M45.5007 48.2124C45.3056 48.1213 45.0731 48.2059 44.982 48.4016C44.8909 48.5968 44.9755 48.8293 45.1706 48.9204C45.3658 49.0115 45.5988 48.9268 45.6894 48.7317C45.7805 48.536 45.6964 48.3035 45.5007 48.2124Z" fill="white"/>
</g>
<mask id="mask14" mask-type="alpha" maskUnits="userSpaceOnUse" x="41" y="46" width="5" height="6">
<path d="M42.0247 48.7685C41.5602 49.7637 41.9918 50.9501 42.9876 51.4141C43.9833 51.8786 45.1687 51.447 45.6332 50.4513C46.0977 49.4556 46.1708 47.1868 45.1751 46.7228C45.0482 46.6636 44.9098 46.6367 44.7639 46.6367C43.7677 46.6362 42.4295 47.8998 42.0247 48.7685Z" fill="white"/>
</mask>
<g mask="url(#mask14)">
<path opacity="0.5" fill-rule="evenodd" clip-rule="evenodd" d="M44.2443 47.0323C43.6458 46.753 42.9339 47.0124 42.6551 47.6108C42.3763 48.2087 42.6352 48.9206 43.2336 49.1999C43.8315 49.4787 44.544 49.2194 44.8228 48.6214C45.1016 48.023 44.8427 47.3111 44.2443 47.0323Z" fill="white"/>
</g>
<mask id="mask15" mask-type="alpha" maskUnits="userSpaceOnUse" x="41" y="46" width="5" height="6">
<path d="M42.0247 48.7685C41.5602 49.7637 41.9918 50.9501 42.9876 51.4141C43.9833 51.8786 45.1687 51.447 45.6332 50.4513C46.0977 49.4556 46.1708 47.1868 45.1751 46.7228C45.0482 46.6636 44.9098 46.6367 44.7639 46.6367C43.7677 46.6362 42.4295 47.8998 42.0247 48.7685Z" fill="white"/>
</mask>
<g mask="url(#mask15)">
<path opacity="0.501037" fill-rule="evenodd" clip-rule="evenodd" d="M44.6152 49.7267C43.6569 49.2796 42.5153 49.6949 42.0682 50.6537C41.6216 51.6121 42.0368 52.7537 42.9957 53.2002C43.9541 53.6473 45.0952 53.2321 45.5422 52.2732C45.9893 51.3149 45.5741 50.1738 44.6152 49.7267Z" fill="white"/>
</g>
<mask id="mask16" mask-type="alpha" maskUnits="userSpaceOnUse" x="24" y="24" width="68" height="68">
<path d="M24.1191 58.0559C24.1191 76.7861 39.3256 91.9931 58.0559 91.9931C76.7861 91.9931 91.9931 76.7861 91.9931 58.0559C91.9931 39.3256 76.7861 24.1191 58.0559 24.1191C39.3256 24.1191 24.1191 39.3256 24.1191 58.0559Z" fill="white"/>
</mask>
<g mask="url(#mask16)">
<path fill-rule="evenodd" clip-rule="evenodd" d="M45.3571 47.5527C45.1415 47.5527 44.9668 47.7275 44.9668 47.9431C44.9668 48.1586 45.1415 48.3334 45.3571 48.3334C45.5727 48.3334 45.7474 48.1586 45.7474 47.9431C45.7474 47.7275 45.5727 47.5527 45.3571 47.5527Z" fill="white"/>
</g>
<mask id="mask17" mask-type="alpha" maskUnits="userSpaceOnUse" x="24" y="24" width="68" height="68">
<path d="M24.1191 58.0559C24.1191 76.7861 39.3256 91.9931 58.0559 91.9931C76.7861 91.9931 91.9931 76.7861 91.9931 58.0559C91.9931 39.3256 76.7861 24.1191 58.0559 24.1191C39.3256 24.1191 24.1191 39.3256 24.1191 58.0559Z" fill="white"/>
</mask>
<g mask="url(#mask17)">
<path fill-rule="evenodd" clip-rule="evenodd" d="M72.6633 47.5781C72.4477 47.5781 72.2734 47.7529 72.2734 47.9684C72.2734 48.184 72.4477 48.3588 72.6633 48.3588C72.8793 48.3588 73.0536 48.184 73.0536 47.9684C73.0536 47.7529 72.8793 47.5781 72.6633 47.5781Z" fill="white"/>
</g>
<mask id="mask18" mask-type="alpha" maskUnits="userSpaceOnUse" x="24" y="24" width="68" height="68">
<path d="M24.1191 58.0559C24.1191 76.7861 39.3256 91.9931 58.0559 91.9931C76.7861 91.9931 91.9931 76.7861 91.9931 58.0559C91.9931 39.3256 76.7861 24.1191 58.0559 24.1191C39.3256 24.1191 24.1191 39.3256 24.1191 58.0559Z" fill="white"/>
</mask>
<g mask="url(#mask18)">
<path fill-rule="evenodd" clip-rule="evenodd" d="M53.4109 64.3572C54.3135 65.9952 56.056 67.1074 58.0564 67.1074C60.0578 67.1074 61.7998 65.9952 62.7019 64.3572C63.61 62.7098 65.6845 62.1089 67.3319 63.0175C68.9793 63.9246 69.5802 65.9991 68.6721 67.6465C66.611 71.3889 62.6272 67.6316 58.0564 67.6316C53.4861 67.6316 49.5028 71.3889 47.4407 67.6465C46.5331 65.9991 47.134 63.9246 48.7814 63.0175C50.4288 62.1089 52.5033 62.7098 53.4109 64.3572Z" fill="#5858D9"/>
</g>
<mask id="mask19" mask-type="alpha" maskUnits="userSpaceOnUse" x="47" y="62" width="23" height="8">
<path d="M62.6999 64.3569C61.7978 65.9953 60.0553 67.108 58.0545 67.108C56.0541 67.108 54.3116 65.9953 53.409 64.3569C52.5014 62.71 50.4268 62.1091 48.7789 63.0172C47.132 63.9248 46.5311 65.9993 47.4387 67.6467C49.5008 71.3891 53.4842 67.6318 58.0545 67.6318C62.6253 67.6318 66.6091 71.3891 68.6702 67.6467C69.5778 65.9993 68.9774 63.9248 67.33 63.0172C66.8087 62.7304 66.2452 62.594 65.6895 62.594C64.4872 62.594 63.3213 63.2308 62.6999 64.3569Z" fill="white"/>
</mask>
<g mask="url(#mask19)">
<path fill-rule="evenodd" clip-rule="evenodd" d="M58.0831 60.0957C63.0054 60.0957 67.0022 62.5128 67.0022 65.4914C67.0022 68.4696 63.0054 70.8877 58.0831 70.8877C53.1603 70.8877 49.1641 68.4696 49.1641 65.4914C49.1641 62.5128 53.1603 60.0957 58.0831 60.0957Z" fill="#6969DB"/>
</g>
<mask id="mask20" mask-type="alpha" maskUnits="userSpaceOnUse" x="24" y="24" width="68" height="68">
<path d="M24.1191 58.0559C24.1191 76.7861 39.3256 91.9931 58.0559 91.9931C76.7861 91.9931 91.9931 76.7861 91.9931 58.0559C91.9931 39.3256 76.7861 24.1191 58.0559 24.1191C39.3256 24.1191 24.1191 39.3256 24.1191 58.0559Z" fill="white"/>
</mask>
<g mask="url(#mask20)">
<path fill-rule="evenodd" clip-rule="evenodd" d="M76.5071 49.8223C74.5705 49.8403 72.8867 51.5394 72.8867 51.5394C72.8867 51.5394 74.676 51.1262 75.8146 52.4067C76.0561 52.6785 76.3946 52.8438 76.7575 52.8657C77.1195 52.8876 77.4759 52.7642 77.7478 52.5232C78.042 52.2648 78.2098 51.9133 78.2058 51.4906C78.1973 50.5617 77.4356 49.8139 76.5071 49.8223Z" fill="white"/>
</g>
<mask id="mask21" mask-type="alpha" maskUnits="userSpaceOnUse" x="24" y="24" width="68" height="68">
<path d="M24.1191 58.0559C24.1191 76.7861 39.3256 91.9931 58.0559 91.9931C76.7861 91.9931 91.9931 76.7861 91.9931 58.0559C91.9931 39.3256 76.7861 24.1191 58.0559 24.1191C39.3256 24.1191 24.1191 39.3256 24.1191 58.0559Z" fill="white"/>
</mask>
<g mask="url(#mask21)">
<path fill-rule="evenodd" clip-rule="evenodd" d="M40.9397 50.4961C42.0295 50.4882 43.1831 51.5152 43.1831 51.5152C43.1831 51.5152 42.0589 51.2748 41.3729 52.0992C41.1244 52.3979 40.6988 52.4766 40.3597 52.2879C40.0844 52.1231 39.9142 51.8677 39.9121 51.5391C39.9077 50.9676 40.3687 50.5001 40.9397 50.4961Z" fill="white"/>
</g>
<mask id="mask22" mask-type="alpha" maskUnits="userSpaceOnUse" x="24" y="24" width="68" height="68">
<path d="M24.1191 58.0559C24.1191 76.7861 39.3256 91.9931 58.0559 91.9931C76.7861 91.9931 91.9931 76.7861 91.9931 58.0559C91.9931 39.3256 76.7861 24.1191 58.0559 24.1191C39.3256 24.1191 24.1191 39.3256 24.1191 58.0559Z" fill="white"/>
</mask>
<g mask="url(#mask22)">
<path d="M44.5101 41.4707C39.9085 41.4707 41.1974 46.3487 37.6348 46.3487" stroke="#A5A5E7" stroke-width="0.497854" stroke-linecap="round" stroke-linejoin="round"/>
</g>
<mask id="mask23" mask-type="alpha" maskUnits="userSpaceOnUse" x="24" y="24" width="68" height="68">
<path d="M24.1191 58.0559C24.1191 76.7861 39.3256 91.9931 58.0559 91.9931C76.7861 91.9931 91.9931 76.7861 91.9931 58.0559C91.9931 39.3256 76.7861 24.1191 58.0559 24.1191C39.3256 24.1191 24.1191 39.3256 24.1191 58.0559Z" fill="white"/>
</mask>
<g mask="url(#mask23)">
<path d="M71.3301 41.4707C75.9322 41.4707 74.6428 46.3487 78.2059 46.3487" stroke="#A5A5E7" stroke-width="0.497854" stroke-linecap="round" stroke-linejoin="round"/>
</g>
<path fill-rule="evenodd" clip-rule="evenodd" d="M58.0556 12.8066C33.0822 12.8066 12.8066 33.0817 12.8066 58.0556C12.8066 83.0295 33.0822 103.305 58.0556 103.305C83.0295 103.305 103.306 83.0295 103.306 58.0556C103.306 33.0817 83.0295 12.8066 58.0556 12.8066Z" stroke="#F5F5FC" stroke-width="0.995708" stroke-linecap="round" stroke-linejoin="round"/>
<path fill-rule="evenodd" clip-rule="evenodd" d="M58.0553 1.49414C26.8384 1.49414 1.49414 26.8389 1.49414 58.0553C1.49414 89.2728 26.8384 114.618 58.0553 114.618C89.2728 114.618 114.617 89.2728 114.617 58.0553C114.617 26.8389 89.2728 1.49414 58.0553 1.49414Z" stroke="#F5F5FC" stroke-width="0.995708" stroke-linecap="round" stroke-linejoin="round"/>
<path fill-rule="evenodd" clip-rule="evenodd" d="M25.8282 106.034C23.3116 106.167 21.1608 104.231 21.0279 101.714C20.8955 99.1978 22.8311 97.0466 25.3478 96.9147C27.8644 96.7817 30.0152 98.7174 30.1481 101.234C30.2805 103.751 28.3449 105.901 25.8282 106.034Z" fill="white"/>
<path fill-rule="evenodd" clip-rule="evenodd" d="M25.8282 106.034C23.3116 106.167 21.1608 104.231 21.0279 101.714C20.8955 99.1978 22.8311 97.0466 25.3478 96.9147C27.8644 96.7817 30.0152 98.7174 30.1481 101.234C30.2805 103.751 28.3449 105.901 25.8282 106.034Z" stroke="#E4E4F6" stroke-width="0.995708" stroke-linecap="round" stroke-linejoin="round"/>
<path fill-rule="evenodd" clip-rule="evenodd" d="M19.012 105.275C18.4832 105.303 18.0312 104.896 18.0033 104.367C17.9754 103.838 18.3822 103.387 18.9109 103.359C19.4396 103.331 19.8922 103.738 19.9195 104.267C19.9474 104.795 19.5407 105.247 19.012 105.275Z" fill="#F7F7FC"/>
<path fill-rule="evenodd" clip-rule="evenodd" d="M21.6304 23.5117C22.0098 23.5117 22.3174 23.8194 22.3174 24.1988C22.3174 24.5776 22.0098 24.8858 21.6304 24.8858C21.251 24.8858 20.9434 24.5776 20.9434 24.1988C20.9434 23.8194 21.251 23.5117 21.6304 23.5117Z" fill="#DFDFF4"/>
<path d="M15.6602 13.2539V22.4682" stroke="#EFEFF9" stroke-width="0.995708" stroke-linecap="round" stroke-linejoin="round"/>
<path d="M20.2193 17.8613H11.0996" stroke="#EFEFF9" stroke-width="0.995708" stroke-linecap="round" stroke-linejoin="round"/>
<path fill-rule="evenodd" clip-rule="evenodd" d="M100.488 18.6328V27.7674L107.997 23.1195L100.488 18.6328Z" fill="white"/>
<path fill-rule="evenodd" clip-rule="evenodd" d="M100.488 18.6328V27.7674L107.997 23.1195L100.488 18.6328Z" stroke="#EFEFFA" stroke-width="0.995708" stroke-linecap="round" stroke-linejoin="round"/>
<path fill-rule="evenodd" clip-rule="evenodd" d="M107.77 17.5156C108.109 17.5156 108.383 17.7904 108.383 18.1295C108.383 18.468 108.109 18.7433 107.77 18.7433C107.431 18.7433 107.156 18.468 107.156 18.1295C107.156 17.7904 107.431 17.5156 107.77 17.5156Z" fill="#DFDFF4"/>
<path fill-rule="evenodd" clip-rule="evenodd" d="M65.1073 88.0713C64.723 88.3098 64.2281 88.2729 63.8826 87.9807C63.5376 87.688 63.4201 87.2065 63.5919 86.7878C66.3415 80.0832 73.0491 63.7282 76.5694 55.1437C76.9612 54.1893 77.8793 53.5566 78.9108 53.5302C79.9414 53.5033 80.8913 54.0878 81.3314 55.0208C85.364 63.5679 93.132 80.0305 96.274 86.6893C96.4667 87.098 96.3746 87.5844 96.046 87.8946C95.7164 88.2047 95.225 88.2675 94.8282 88.0504C93.4113 87.2747 91.7286 86.3547 90.4591 85.6602C89.2557 85.002 87.801 84.9966 86.5927 85.6468C85.1385 86.4289 83.1361 87.5057 81.5649 88.3511C80.026 89.1785 78.1675 89.1452 76.659 88.2635C75.399 87.5262 73.874 86.6345 72.6643 85.927C71.3678 85.1693 69.7588 85.1897 68.4823 85.9808C67.4582 86.6151 66.2091 87.3892 65.1073 88.0713Z" fill="#F3F3FD"/>
<mask id="mask24" mask-type="alpha" maskUnits="userSpaceOnUse" x="63" y="53" width="34" height="36">
<path d="M78.9108 53.5303C77.8793 53.5572 76.9612 54.1899 76.5694 55.1443C73.0491 63.7288 66.342 80.0838 63.5919 86.7879C63.4201 87.2066 63.5376 87.6886 63.8826 87.9813C64.2281 88.2735 64.7225 88.3109 65.1073 88.0719C66.2086 87.3893 67.4582 86.6157 68.4823 85.9809C69.7583 85.1903 71.3678 85.1694 72.6643 85.9276C73.8745 86.6346 75.3985 87.5263 76.659 88.2636C78.1675 89.1458 80.026 89.1786 81.5644 88.3512C83.1361 87.5063 85.139 86.429 86.5927 85.6474C87.801 84.9972 89.2557 85.0026 90.4586 85.6608C91.7286 86.3548 93.4108 87.2753 94.8282 88.051C95.225 88.2676 95.7164 88.2048 96.0455 87.8947C96.3746 87.585 96.4667 87.0981 96.2735 86.6894C93.132 80.0306 85.364 63.568 81.3309 55.0214C80.9008 54.1088 79.9822 53.5293 78.9775 53.5293C78.9551 53.5293 78.9332 53.5298 78.9108 53.5303Z" fill="white"/>
</mask>
<g mask="url(#mask24)">
<path fill-rule="evenodd" clip-rule="evenodd" d="M64.4316 89.4419C64.4316 89.4419 71.7924 70.5758 75.2112 61.8145C75.3013 61.5845 75.5507 61.4595 75.7887 61.5253C76.0267 61.591 76.176 61.826 76.1347 62.0699C74.6884 70.6156 71.7446 88.0001 71.7446 88.0001L64.4316 89.4419Z" fill="#EBEBFC"/>
</g>
<mask id="mask25" mask-type="alpha" maskUnits="userSpaceOnUse" x="63" y="53" width="34" height="36">
<path d="M78.9108 53.5303C77.8793 53.5572 76.9612 54.1899 76.5694 55.1443C73.0491 63.7288 66.342 80.0838 63.5919 86.7879C63.4201 87.2066 63.5376 87.6886 63.8826 87.9813C64.2281 88.2735 64.7225 88.3109 65.1073 88.0719C66.2086 87.3893 67.4582 86.6157 68.4823 85.9809C69.7583 85.1903 71.3678 85.1694 72.6643 85.9276C73.8745 86.6346 75.3985 87.5263 76.659 88.2636C78.1675 89.1458 80.026 89.1786 81.5644 88.3512C83.1361 87.5063 85.139 86.429 86.5927 85.6474C87.801 84.9972 89.2557 85.0026 90.4586 85.6608C91.7286 86.3548 93.4108 87.2753 94.8282 88.051C95.225 88.2676 95.7164 88.2048 96.0455 87.8947C96.3746 87.585 96.4667 87.0981 96.2735 86.6894C93.132 80.0306 85.364 63.568 81.3309 55.0214C80.9008 54.1088 79.9822 53.5293 78.9775 53.5293C78.9551 53.5293 78.9332 53.5298 78.9108 53.5303Z" fill="white"/>
</mask>
<g mask="url(#mask25)">
<path fill-rule="evenodd" clip-rule="evenodd" d="M89.1807 90.1041C89.1807 90.1041 82.9809 67.8092 80.5762 59.1634C80.512 58.9319 80.2865 58.7826 80.0475 58.8149C79.8096 58.8478 79.6313 59.0504 79.6303 59.2909C79.6094 68.0944 79.5566 90.47 79.5566 90.47L89.1807 90.1041Z" fill="#EBEBFC"/>
</g>
<path fill-rule="evenodd" clip-rule="evenodd" d="M95.5059 48.8123C95.5059 48.1447 96.0465 47.6035 96.7141 47.6035H102.946C104.658 47.6035 106.046 48.991 106.046 50.7032V64.8576C106.046 66.5698 104.658 67.9573 102.946 67.9573H96.7141C96.0465 67.9573 95.5059 67.4161 95.5059 66.7485V48.8123Z" fill="#B4B4EB"/>
<mask id="mask26" mask-type="alpha" maskUnits="userSpaceOnUse" x="95" y="47" width="12" height="21">
<path d="M96.7137 47.6035C96.046 47.6035 95.5059 48.1447 95.5059 48.8123V66.7485C95.5059 67.4161 96.046 67.9573 96.7137 67.9573H102.946C104.658 67.9573 106.045 66.5698 106.045 64.8581V50.7032C106.045 48.991 104.658 47.6035 102.946 47.6035H96.7137Z" fill="white"/>
</mask>
<g mask="url(#mask26)">
<path fill-rule="evenodd" clip-rule="evenodd" d="M95.5059 45.8904C95.5059 45.2228 96.0465 44.6816 96.7142 44.6816H102.946C104.658 44.6816 106.046 46.0697 106.046 47.7813V61.9363C106.046 63.6479 104.658 65.0359 102.946 65.0359H96.7142C96.0465 65.0359 95.5059 64.4947 95.5059 63.8271V45.8904Z" fill="#BCBCED"/>
</g>
<mask id="mask27" mask-type="alpha" maskUnits="userSpaceOnUse" x="95" y="47" width="12" height="21">
<path d="M96.7137 47.6035C96.046 47.6035 95.5059 48.1447 95.5059 48.8123V66.7485C95.5059 67.4161 96.046 67.9573 96.7137 67.9573H102.946C104.658 67.9573 106.045 66.5698 106.045 64.8581V50.7032C106.045 48.991 104.658 47.6035 102.946 47.6035" fill="white"/>
</mask>
<g mask="url(#mask27)">
<path d="M102.574 40.0098V53.0162" stroke="#CECEF2" stroke-width="3.73391" stroke-linecap="round" stroke-linejoin="round"/>
</g>
<path fill-rule="evenodd" clip-rule="evenodd" d="M20.4893 48.8123C20.4893 48.1447 19.9481 47.6035 19.2805 47.6035H13.0484C11.3367 47.6035 9.94922 48.991 9.94922 50.7032V64.8576C9.94922 66.5698 11.3367 67.9573 13.0484 67.9573H19.2805C19.9481 67.9573 20.4893 67.4161 20.4893 66.7485V48.8123Z" fill="#B4B4EB"/>
<mask id="mask28" mask-type="alpha" maskUnits="userSpaceOnUse" x="9" y="47" width="12" height="21">
<path d="M13.0489 47.6035C11.3367 47.6035 9.94922 48.991 9.94922 50.7032V64.8581C9.94922 66.5698 11.3367 67.9573 13.0489 67.9573H19.281C19.9486 67.9573 20.4893 67.4161 20.4893 66.7485V48.8123C20.4893 48.1447 19.9486 47.6035 19.281 47.6035H13.0489Z" fill="white"/>
</mask>
<g mask="url(#mask28)">
<path fill-rule="evenodd" clip-rule="evenodd" d="M20.4893 45.8904C20.4893 45.2228 19.9481 44.6816 19.2805 44.6816H13.0484C11.3367 44.6816 9.94922 46.0697 9.94922 47.7813V61.9363C9.94922 63.6479 11.3367 65.0359 13.0484 65.0359H19.2805C19.9481 65.0359 20.4893 64.4947 20.4893 63.8271V45.8904Z" fill="#BCBCED"/>
</g>
<mask id="mask29" mask-type="alpha" maskUnits="userSpaceOnUse" x="9" y="47" width="12" height="21">
<path d="M13.0489 47.6035C11.3367 47.6035 9.94922 48.991 9.94922 50.7032V64.8581C9.94922 66.5698 11.3367 67.9573 13.0489 67.9573H19.281C19.9486 67.9573 20.4893 67.4161 20.4893 66.7485V48.8123C20.4893 48.1447 19.9486 47.6035 19.281 47.6035" fill="white"/>
</mask>
<g mask="url(#mask29)">
<path d="M13.4629 40.0098V53.0162" stroke="#CECEF2" stroke-width="3.73391" stroke-linecap="round" stroke-linejoin="round"/>
</g>
<path fill-rule="evenodd" clip-rule="evenodd" d="M23.4414 46.554C23.4414 46.2339 23.314 45.9262 23.0875 45.6997C22.8604 45.4727 22.5533 45.3457 22.2326 45.3457H19.0484C17.3367 45.3457 15.9492 46.7332 15.9492 48.4448V67.1174C15.9492 68.829 17.3367 70.2165 19.0484 70.2165H22.2326C22.5533 70.2165 22.8604 70.0891 23.0875 69.8625C23.314 69.6355 23.4414 69.3283 23.4414 69.0082V46.554Z" fill="#9999E4"/>
<mask id="mask30" mask-type="alpha" maskUnits="userSpaceOnUse" x="15" y="45" width="9" height="26">
<path d="M19.0489 45.3457C17.3372 45.3457 15.9492 46.7337 15.9492 48.4453V67.1174C15.9492 68.8295 17.3372 70.2175 19.0489 70.2175H22.2326C22.5533 70.2175 22.8609 70.0896 23.0875 69.8635C23.3145 69.636 23.4414 69.3288 23.4414 69.0082V46.5545C23.4414 46.2344 23.3145 45.9267 23.0875 45.7002C22.8609 45.4732 22.5533 45.3457 22.2326 45.3457H19.0489Z" fill="white"/>
</mask>
<g mask="url(#mask30)">
<path fill-rule="evenodd" clip-rule="evenodd" d="M23.4414 42.6463C23.4414 42.3257 23.314 42.0185 23.0875 41.792C22.8604 41.565 22.5533 41.4375 22.2326 41.4375H19.0484C17.3367 41.4375 15.9492 42.8255 15.9492 44.5371V63.2092C15.9492 64.9213 17.3367 66.3088 19.0484 66.3088H22.2326C22.5533 66.3088 22.8604 66.1813 23.0875 65.9548C23.314 65.7278 23.4414 65.4211 23.4414 65.1V42.6463Z" fill="#A7A7E8"/>
</g>
<path fill-rule="evenodd" clip-rule="evenodd" d="M92.5527 46.554C92.5527 46.2339 92.6797 45.9262 92.9067 45.6997C93.1332 45.4727 93.4409 45.3457 93.761 45.3457H96.9458C98.6579 45.3457 100.045 46.7332 100.045 48.4448V67.1174C100.045 68.829 98.6579 70.2165 96.9458 70.2165H93.761C93.4409 70.2165 93.1332 70.0891 92.9067 69.8625C92.6797 69.6355 92.5527 69.3283 92.5527 69.0082V46.554Z" fill="#9999E4"/>
<mask id="mask31" mask-type="alpha" maskUnits="userSpaceOnUse" x="92" y="45" width="9" height="26">
<path d="M93.7605 45.3457C93.4404 45.3457 93.1332 45.4732 92.9067 45.7002C92.6792 45.9267 92.5527 46.2344 92.5527 46.5545V69.0082C92.5527 69.3288 92.6792 69.636 92.9067 69.8635C93.1332 70.0896 93.4404 70.2175 93.7605 70.2175H96.9458C98.6574 70.2175 100.045 68.8295 100.045 67.1174V48.4453C100.045 46.7337 98.6574 45.3457 96.9458 45.3457H93.7605Z" fill="white"/>
</mask>
<g mask="url(#mask31)">
<path fill-rule="evenodd" clip-rule="evenodd" d="M92.5527 42.6463C92.5527 42.3257 92.6797 42.0185 92.9067 41.792C93.1332 41.565 93.4409 41.4375 93.761 41.4375H96.9458C98.6579 41.4375 100.045 42.8255 100.045 44.5371V63.2092C100.045 64.9213 98.6579 66.3088 96.9458 66.3088H93.761C93.4409 66.3088 93.1332 66.1813 92.9067 65.9548C92.6797 65.7278 92.5527 65.4211 92.5527 65.1V42.6463Z" fill="#A7A7E8"/>
</g>
<path d="M19.8027 53.3966C19.8027 32.1745 36.9568 14.9453 58.0857 14.9453C79.2151 14.9453 96.3697 32.1745 96.3697 53.3966" stroke="#A7A7E8" stroke-width="0.995708" stroke-linecap="round" stroke-linejoin="round"/>
<path fill-rule="evenodd" clip-rule="evenodd" d="M38.4127 23.2812C44.0623 19.5478 50.8237 17.3752 58.0859 17.3752C65.373 17.3752 72.1553 19.5623 77.8164 23.3191C78.9305 24.0584 80.4326 23.7497 81.1679 22.631C81.9042 21.5123 81.5976 20.0034 80.4829 19.2645C74.0571 14.9999 66.3577 12.5156 58.0859 12.5156C49.8419 12.5156 42.167 14.9835 35.7532 19.2212C34.638 19.9585 34.3283 21.4665 35.0621 22.5867C35.796 23.7074 37.2975 24.018 38.4127 23.2812Z" fill="#9393E3"/>
<mask id="mask32" mask-type="alpha" maskUnits="userSpaceOnUse" x="34" y="12" width="48" height="12">
<path d="M35.7532 19.2212C34.638 19.9585 34.3283 21.4665 35.0621 22.5867C35.7965 23.7069 37.2975 24.018 38.4132 23.2812C44.0628 19.5478 50.8237 17.3752 58.0859 17.3752C65.373 17.3752 72.1553 19.5627 77.8164 23.3191C78.931 24.0584 80.4326 23.7497 81.1679 22.6315C81.9042 21.5123 81.5976 20.0034 80.4829 19.2645C74.0571 14.9999 66.3582 12.5156 58.0859 12.5156C49.8419 12.5156 42.167 14.9835 35.7532 19.2212Z" fill="white"/>
</mask>
<g mask="url(#mask32)">
<path fill-rule="evenodd" clip-rule="evenodd" d="M35.1834 21.9343C41.7591 17.589 49.6292 15.0604 58.0817 15.0604C66.5627 15.0604 74.4577 17.6059 81.0468 21.9781C82.3432 22.8389 84.0911 22.4799 84.9484 21.1776C85.8047 19.8752 85.4478 18.1192 84.1504 17.2589C76.6706 12.2953 67.7097 9.4043 58.0817 9.4043C48.4861 9.4043 39.5531 12.2759 32.0883 17.2092C30.7899 18.067 30.4294 19.8224 31.2838 21.1263C32.1376 22.4302 33.885 22.7921 35.1834 21.9343Z" fill="#A7A7E8"/>
</g>
<path d="M55.6777 71.6334C55.6777 70.905 56.7551 69.9531 58.0819 69.9531C59.4082 69.9531 60.4855 70.905 60.4855 71.6334" stroke="#A5A5E7" stroke-width="0.497854" stroke-linecap="round" stroke-linejoin="round"/>
</svg>
