<svg width="115" height="111" viewBox="0 0 115 111" fill="none" xmlns="http://www.w3.org/2000/svg">
<path fill-rule="evenodd" clip-rule="evenodd" d="M56.8733 19.1572C36.832 19.1572 20.5605 35.4287 20.5605 55.4705C20.5605 75.5123 36.832 91.7838 56.8733 91.7838C76.9151 91.7838 93.1866 75.5123 93.1866 55.4705C93.1866 35.4287 76.9151 19.1572 56.8733 19.1572Z" stroke="#F9F9FD" stroke-width="1.00877" stroke-linecap="round" stroke-linejoin="round"/>
<path fill-rule="evenodd" clip-rule="evenodd" d="M56.8736 10.0791C31.8218 10.0791 11.4824 30.418 11.4824 55.4703C11.4824 80.5226 31.8218 100.862 56.8736 100.862C81.926 100.862 102.265 80.5226 102.265 55.4703C102.265 30.418 81.926 10.0791 56.8736 10.0791Z" stroke="#F7F7FC" stroke-width="1.00877" stroke-linecap="round" stroke-linejoin="round"/>
<path fill-rule="evenodd" clip-rule="evenodd" d="M56.8734 1C26.811 1 2.4043 25.4072 2.4043 55.4696C2.4043 85.5321 26.811 109.939 56.8734 109.939C86.9364 109.939 111.343 85.5321 111.343 55.4696C111.343 25.4072 86.9364 1 56.8734 1Z" stroke="#EFEFFA" stroke-width="1.00877" stroke-linecap="round" stroke-linejoin="round"/>
<path fill-rule="evenodd" clip-rule="evenodd" d="M93.1176 89.246C93.2588 89.1371 93.3517 88.9777 93.3764 88.8011C93.5842 87.3263 94.5566 80.4268 94.5566 80.4268L90.7031 79.4766C90.7031 79.4766 91.036 85.1378 91.2267 88.3835C91.2524 88.8183 91.5162 89.2031 91.9121 89.3837C92.3086 89.5648 92.7721 89.5118 93.1176 89.246Z" fill="#CBCBF3"/>
<mask id="mask0" mask-type="alpha" maskUnits="userSpaceOnUse" x="76" y="68" width="38" height="37">
<path d="M78.5253 79.0397C74.3934 88.3577 78.6045 99.2772 87.9225 103.409C97.2401 107.541 108.16 103.33 112.292 94.0114C116.423 84.6939 112.213 73.7744 102.895 69.6425C100.465 68.5646 97.9245 68.0547 95.4253 68.0547C88.3417 68.0542 81.5794 72.1518 78.5253 79.0397Z" fill="white"/>
</mask>
<g mask="url(#mask0)">
<path fill-rule="evenodd" clip-rule="evenodd" d="M95.1193 85.5734C95.938 86.2775 96.1902 87.4386 95.7377 88.4186C95.2843 89.3982 94.2367 89.9585 93.1709 89.7911C85.1456 88.5311 74.2539 86.8212 74.2539 86.8212L80.0322 72.6006C80.0322 72.6006 88.7782 80.1205 95.1193 85.5734Z" fill="#EBEBFB"/>
</g>
<mask id="mask1" mask-type="alpha" maskUnits="userSpaceOnUse" x="76" y="74" width="20" height="16">
<path d="M78.5254 79.0401C77.3416 81.7098 76.8428 84.5107 76.9522 87.2459C80.6922 87.8335 87.618 88.921 93.1718 89.7926C94.2375 89.96 95.2851 89.3997 95.7381 88.4196C96.191 87.4401 95.9388 86.279 95.1197 85.5749C90.5066 81.6079 84.6209 76.5474 81.7555 74.084C80.4516 75.5139 79.3526 77.1749 78.5254 79.0401Z" fill="white"/>
</mask>
<g mask="url(#mask1)">
<path fill-rule="evenodd" clip-rule="evenodd" d="M81.0962 74.3789C81.0962 74.3789 86.8976 80.1128 90.4954 83.6687C90.7865 83.9562 90.8389 84.4081 90.6215 84.7546C90.4036 85.1016 89.9754 85.2509 89.5885 85.1138C84.5517 83.3262 76.1492 80.3448 76.1492 80.3448C76.1492 80.3448 81.7363 83.0276 85.9499 85.0517C86.3337 85.2358 86.5289 85.6701 86.4119 86.0791C86.2954 86.4887 85.9 86.7545 85.4773 86.7081C79.8635 86.0963 71.5996 85.1965 71.5996 85.1965L73.5183 75.2651L81.0962 74.3789Z" fill="#E1E1FB"/>
</g>
<path d="M83.2241 72.6436C81.2691 74.3559 79.647 76.5092 78.5257 79.0397C77.0287 82.4155 76.6262 86.0017 77.1659 89.3998" stroke="#BDB9E5" stroke-width="1.00877" stroke-linecap="round" stroke-linejoin="round"/>
<path fill-rule="evenodd" clip-rule="evenodd" d="M113.299 78.2859C113.428 77.43 112.838 76.631 111.982 76.5019C108.751 76.0157 101.332 74.8995 98.1022 74.4132C97.2462 74.2841 96.4473 74.8742 96.3186 75.7307V75.7312C96.189 76.5876 96.7786 77.3861 97.6351 77.5152C100.866 78.0014 108.285 79.1176 111.515 79.6039C112.371 79.7325 113.17 79.1429 113.299 78.2864V78.2859Z" fill="#CBCBF3"/>
<mask id="mask2" mask-type="alpha" maskUnits="userSpaceOnUse" x="96" y="74" width="18" height="6">
<path d="M96.3185 75.7306V75.7311C96.1894 76.5876 96.779 77.386 97.6355 77.5151C100.866 78.0009 108.285 79.1181 111.516 79.6038C112.372 79.7324 113.17 79.1428 113.299 78.2863V78.2858C113.428 77.4294 112.838 76.6304 111.982 76.5018C108.751 76.0156 101.333 74.8994 98.102 74.4132C98.0233 74.4011 97.9447 74.3955 97.867 74.3955C97.1044 74.3955 96.435 74.9534 96.3185 75.7306Z" fill="white"/>
</mask>
<g mask="url(#mask2)">
<path fill-rule="evenodd" clip-rule="evenodd" d="M112.188 79.8993C112.062 80.5303 111.449 80.9398 110.817 80.8152C108.111 80.2801 101.332 78.9399 98.6185 78.4028C98.3144 78.3427 98.046 78.1642 97.8735 77.906C97.7005 77.6482 97.6375 77.332 97.6985 77.0278C97.8246 76.3953 98.4384 75.9842 99.0714 76.1093C101.778 76.645 108.553 77.9846 111.266 78.5213C111.571 78.5813 111.84 78.7604 112.012 79.0191C112.185 79.2774 112.249 79.5941 112.188 79.8988V79.8993Z" fill="#B2B2EB"/>
</g>
<mask id="mask3" mask-type="alpha" maskUnits="userSpaceOnUse" x="96" y="74" width="18" height="6">
<path d="M96.3185 75.7306V75.7311C96.1894 76.5876 96.779 77.386 97.6355 77.5151C100.866 78.0009 108.285 79.1181 111.516 79.6038C112.372 79.7324 113.17 79.1428 113.299 78.2863V78.2858C113.428 77.4294 112.838 76.6304 111.982 76.5018C108.751 76.0156 101.333 74.8994 98.102 74.4132C98.0233 74.4011 97.9447 74.3955 97.867 74.3955C97.1044 74.3955 96.435 74.9534 96.3185 75.7306Z" fill="white"/>
</mask>
<g mask="url(#mask3)">
<path fill-rule="evenodd" clip-rule="evenodd" d="M112.273 76.1592C112.753 76.4078 112.972 76.9722 112.762 77.4292C112.553 77.8852 111.992 78.0632 111.504 77.8332L112.273 76.1592Z" fill="#B2B2EB"/>
</g>
<path fill-rule="evenodd" clip-rule="evenodd" d="M114.415 82.4229C114.537 82.0255 114.496 81.5957 114.301 81.2281C114.107 80.8604 113.774 80.5855 113.377 80.4629C109.991 79.4218 101.785 76.8979 98.3986 75.8563C98.0007 75.7343 97.5709 75.7746 97.2042 75.9693C96.836 76.1645 96.5611 76.4969 96.4386 76.8944V76.8949C96.316 77.2923 96.3569 77.7221 96.5521 78.0898C96.7468 78.4575 97.0791 78.7324 97.4766 78.8549C100.863 79.896 109.069 82.4199 112.454 83.4615C112.852 83.5835 113.283 83.5432 113.649 83.3485C114.017 83.1533 114.293 82.8209 114.415 82.4234V82.4229Z" fill="#CBCBF3"/>
<mask id="mask4" mask-type="alpha" maskUnits="userSpaceOnUse" x="96" y="75" width="19" height="9">
<path d="M97.2018 75.9702C96.8341 76.1654 96.5587 76.4978 96.4366 76.8952V76.8957C96.3141 77.2932 96.3549 77.7229 96.5496 78.0906C96.7443 78.4583 97.0767 78.7327 97.4742 78.8553C100.861 79.8968 109.067 82.4208 112.452 83.4623C112.85 83.5844 113.281 83.544 113.647 83.3493C114.016 83.1541 114.29 82.8217 114.412 82.4243V82.4238C114.535 82.0263 114.494 81.5971 114.299 81.2289C114.105 80.8612 113.772 80.5863 113.375 80.4637C109.989 79.4227 101.782 76.8987 98.3962 75.8577C98.2454 75.8113 98.0895 75.7881 97.9347 75.7881C97.6815 75.7881 97.4298 75.8496 97.2018 75.9702Z" fill="white"/>
</mask>
<g mask="url(#mask4)">
<path fill-rule="evenodd" clip-rule="evenodd" d="M113.465 83.779C113.245 84.3827 112.577 84.6934 111.973 84.474C108.706 83.2862 99.0436 79.7747 95.7676 78.5833C95.4756 78.4769 95.238 78.2595 95.1079 77.978C94.9767 77.6966 94.9621 77.3748 95.069 77.0832V77.0827C95.291 76.4775 95.9598 76.1658 96.5655 76.3862C99.8345 77.574 109.488 81.083 112.765 82.2749C113.058 82.3813 113.296 82.5992 113.428 82.8817C113.559 83.1636 113.573 83.4864 113.465 83.7785V83.779Z" fill="#B2B2EB"/>
</g>
<mask id="mask5" mask-type="alpha" maskUnits="userSpaceOnUse" x="96" y="75" width="19" height="9">
<path d="M97.2018 75.9702C96.8341 76.1654 96.5587 76.4978 96.4366 76.8952V76.8957C96.3141 77.2932 96.3549 77.7229 96.5496 78.0906C96.7443 78.4583 97.0767 78.7327 97.4742 78.8553C100.861 79.8968 109.067 82.4208 112.452 83.4623C112.85 83.5844 113.281 83.544 113.647 83.3493C114.016 83.1541 114.29 82.8217 114.412 82.4243V82.4238C114.535 82.0263 114.494 81.5971 114.299 81.2289C114.105 80.8612 113.772 80.5863 113.375 80.4637C109.989 79.4227 101.782 76.8987 98.3962 75.8577C98.2454 75.8113 98.0895 75.7881 97.9347 75.7881C97.6815 75.7881 97.4298 75.8496 97.2018 75.9702Z" fill="white"/>
</mask>
<g mask="url(#mask5)">
<path fill-rule="evenodd" clip-rule="evenodd" d="M113.452 80.1982C113.932 80.4469 114.152 81.0113 113.942 81.4683C113.733 81.9243 113.171 82.1023 112.684 81.8723L113.452 80.1982Z" fill="#B2B2EB"/>
</g>
<path fill-rule="evenodd" clip-rule="evenodd" d="M104.227 80.9503C104.584 80.7309 105.014 80.6628 105.422 80.7601C105.829 80.8575 106.181 81.1132 106.401 81.4708C107.305 82.9451 108.747 85.2956 109.652 86.7704C109.871 87.1275 109.94 87.5577 109.842 87.9648C109.744 88.3728 109.489 88.7249 109.132 88.9443H109.132C108.775 89.1632 108.345 89.2318 107.937 89.1344C107.53 89.0366 107.177 88.7809 106.958 88.4238C106.054 86.9494 104.611 84.5985 103.706 83.1242C103.487 82.7671 103.418 82.3368 103.516 81.9293C103.614 81.5217 103.87 81.1697 104.227 80.9503Z" fill="#CBCBF3"/>
<mask id="mask6" mask-type="alpha" maskUnits="userSpaceOnUse" x="103" y="80" width="7" height="10">
<path d="M104.227 80.9503C103.87 81.1692 103.614 81.5218 103.516 81.9298C103.418 82.3369 103.487 82.7666 103.706 83.1242C104.611 84.5991 106.054 86.949 106.958 88.4238C107.177 88.7814 107.53 89.0366 107.937 89.1345C108.345 89.2318 108.774 89.1632 109.132 88.9443H109.132C109.489 88.7249 109.745 88.3729 109.842 87.9648C109.941 87.5578 109.872 87.1275 109.652 86.7704C108.747 85.2956 107.305 82.9452 106.4 81.4709C106.181 81.1137 105.829 80.8575 105.422 80.7602C105.3 80.7314 105.177 80.7168 105.054 80.7168C104.764 80.7168 104.478 80.7965 104.227 80.9503Z" fill="white"/>
</mask>
<g mask="url(#mask6)">
<path fill-rule="evenodd" clip-rule="evenodd" d="M102.34 81.5255C102.697 81.3061 103.127 81.238 103.535 81.3353C103.942 81.4327 104.294 81.6884 104.514 82.046C105.419 83.5203 106.861 85.8708 107.766 87.3456C107.985 87.7027 108.053 88.1329 107.956 88.54C107.858 88.948 107.603 89.3001 107.245 89.5195C106.888 89.7384 106.458 89.807 106.051 89.7096C105.643 89.6118 105.291 89.3561 105.071 88.9985C104.166 87.5246 102.724 85.1737 101.819 83.6994C101.6 83.3423 101.532 82.912 101.629 82.5045C101.727 82.0969 101.983 81.7449 102.34 81.5255Z" fill="#B2B2EB"/>
</g>
<mask id="mask7" mask-type="alpha" maskUnits="userSpaceOnUse" x="103" y="80" width="7" height="10">
<path d="M104.227 80.9503C103.87 81.1692 103.614 81.5218 103.516 81.9298C103.418 82.3369 103.487 82.7666 103.706 83.1242C104.611 84.5991 106.054 86.949 106.958 88.4238C107.177 88.7814 107.53 89.0366 107.937 89.1345C108.345 89.2318 108.774 89.1632 109.132 88.9443H109.132C109.489 88.7249 109.745 88.3729 109.842 87.9648C109.941 87.5578 109.872 87.1275 109.652 86.7704C108.747 85.2956 107.305 82.9452 106.4 81.4709C106.181 81.1137 105.829 80.8575 105.422 80.7602C105.3 80.7314 105.177 80.7168 105.054 80.7168C104.764 80.7168 104.478 80.7965 104.227 80.9503Z" fill="white"/>
</mask>
<g mask="url(#mask7)">
<path fill-rule="evenodd" clip-rule="evenodd" d="M109.689 86.4932C109.929 86.9779 109.771 87.563 109.333 87.8066C108.894 88.0507 108.335 87.8631 108.078 87.3879L109.689 86.4932Z" fill="#B2B2EB"/>
</g>
<path fill-rule="evenodd" clip-rule="evenodd" d="M106.367 82.9625C106.56 82.5943 106.599 82.1641 106.475 81.7671C106.351 81.3702 106.074 81.0388 105.706 80.8461C103.992 79.9478 101.095 78.4311 99.3797 77.5333C99.012 77.3406 98.5812 77.3018 98.1843 77.4259C97.7873 77.55 97.4565 77.8264 97.2633 78.1951V78.1956C97.0701 78.5638 97.0313 78.994 97.1553 79.391C97.2794 79.7879 97.5563 80.1188 97.925 80.312C99.6389 81.2093 102.536 82.727 104.251 83.6243C104.618 83.8175 105.049 83.8558 105.446 83.7317C105.843 83.6076 106.174 83.3307 106.367 82.963C106.367 82.9625 106.367 82.9625 106.367 82.9625Z" fill="#CBCBF3"/>
<mask id="mask8" mask-type="alpha" maskUnits="userSpaceOnUse" x="97" y="77" width="10" height="7">
<path d="M98.1821 77.4271C97.7856 77.5507 97.4548 77.8276 97.2611 78.1963C97.0684 78.5645 97.0291 78.9952 97.1536 79.3917C97.2777 79.7891 97.5546 80.12 97.9228 80.3127C99.6367 81.2105 102.534 82.7277 104.248 83.6255C104.616 83.8187 105.047 83.857 105.444 83.7329C105.841 83.6083 106.172 83.3319 106.365 82.9637C106.365 82.9632 106.366 82.9632 106.366 82.9632C106.558 82.595 106.597 82.1648 106.473 81.7678C106.349 81.3709 106.072 81.0395 105.703 80.8468C103.99 79.9485 101.092 78.4318 99.378 77.534C99.152 77.4155 98.9023 77.3555 98.6512 77.3555C98.4933 77.3555 98.3354 77.3792 98.1821 77.4271Z" fill="white"/>
</mask>
<g mask="url(#mask8)">
<path fill-rule="evenodd" clip-rule="evenodd" d="M105.651 84.7332C105.123 85.1861 104.371 85.2708 103.755 84.947C102.26 84.1597 99.49 82.701 97.988 81.9096C97.417 81.6095 97.1971 80.9029 97.4982 80.3319V80.3314C97.6425 80.057 97.8896 79.8512 98.1857 79.7594C98.4823 79.6676 98.8031 79.6974 99.0775 79.8416C100.528 80.6048 103.157 81.9898 104.682 82.7923C105.388 83.1645 105.778 83.9453 105.651 84.7332Z" fill="#B2B2EB"/>
</g>
<path fill-rule="evenodd" clip-rule="evenodd" d="M94.4112 88.1776C94.9171 88.8807 95.8966 89.0401 96.5997 88.5342C97.8713 87.6188 99.8167 86.2186 101.088 85.3031C101.792 84.7972 101.951 83.8172 101.445 83.1146L101.445 83.1141C100.939 82.411 99.9594 82.2516 99.2563 82.7575C97.9847 83.673 96.0398 85.0726 94.7673 85.9881C94.0647 86.494 93.9048 87.474 94.4107 88.1771C94.4107 88.1771 94.4112 88.1771 94.4112 88.1776Z" fill="#CBCBF3"/>
<mask id="mask9" mask-type="alpha" maskUnits="userSpaceOnUse" x="94" y="82" width="8" height="7">
<path d="M99.2544 82.7575C97.9833 83.6734 96.0379 85.0726 94.7653 85.9881C94.0627 86.4945 93.9028 87.4745 94.4087 88.1771C94.4087 88.1771 94.4092 88.1771 94.4092 88.1781C94.9151 88.8807 95.8951 89.0406 96.5978 88.5342C97.8698 87.6188 99.8147 86.2186 101.087 85.3031C101.79 84.7972 101.95 83.8177 101.443 83.1146L101.443 83.1141C101.137 82.6884 100.657 82.4619 100.169 82.4619C99.8521 82.4619 99.5318 82.5577 99.2544 82.7575Z" fill="white"/>
</mask>
<g mask="url(#mask9)">
<path fill-rule="evenodd" clip-rule="evenodd" d="M93.5848 86.7035C93.4037 86.4508 93.3301 86.137 93.381 85.8304C93.4314 85.5237 93.6019 85.2498 93.8541 85.0692C94.991 84.2552 96.8794 82.9039 98.0143 82.0914C98.5389 81.7161 99.2687 81.8366 99.6445 82.3607H99.645C99.825 82.6129 99.8992 82.9266 99.8477 83.2323C99.7973 83.5389 99.6273 83.8123 99.3751 83.9929C98.2382 84.8065 96.3478 86.1597 95.2124 86.9723C94.6884 87.3471 93.96 87.2265 93.5848 86.7035Z" fill="#B2B2EB"/>
</g>
<mask id="mask10" mask-type="alpha" maskUnits="userSpaceOnUse" x="94" y="82" width="8" height="7">
<path d="M99.2544 82.7575C97.9833 83.6734 96.0379 85.0726 94.7653 85.9881C94.0627 86.4945 93.9028 87.4745 94.4087 88.1771C94.4087 88.1771 94.4092 88.1771 94.4092 88.1781C94.9151 88.8807 95.8951 89.0406 96.5978 88.5342C97.8698 87.6188 99.8147 86.2186 101.087 85.3031C101.79 84.7972 101.95 83.8177 101.443 83.1146L101.443 83.1141C101.137 82.6884 100.657 82.4619 100.169 82.4619C99.8521 82.4619 99.5318 82.5577 99.2544 82.7575Z" fill="white"/>
</mask>
<g mask="url(#mask10)">
<path fill-rule="evenodd" clip-rule="evenodd" d="M97.541 88.9887C97.0785 89.2692 96.4818 89.1627 96.2019 88.7466C95.9209 88.3295 96.0601 87.7585 96.5111 87.4609L97.541 88.9887Z" fill="#B2B2EB"/>
</g>
<path fill-rule="evenodd" clip-rule="evenodd" d="M101.182 85.054C101.877 84.5375 102.021 83.5544 101.504 82.8599C100.568 81.6025 99.1372 79.6807 98.2015 78.4233C97.684 77.7283 96.702 77.584 96.0074 78.1015H96.0069C95.3124 78.6185 95.1681 79.6011 95.6851 80.2956C96.6208 81.5535 98.0517 83.4752 98.9868 84.7327C99.5043 85.4272 100.487 85.5715 101.181 85.0545C101.182 85.0545 101.182 85.0545 101.182 85.054Z" fill="#CBCBF3"/>
<mask id="mask11" mask-type="alpha" maskUnits="userSpaceOnUse" x="95" y="77" width="7" height="9">
<path d="M96.0056 78.1012H96.0051C95.3105 78.6187 95.1663 79.6013 95.6828 80.2958C96.6189 81.5537 98.0499 83.4754 98.9855 84.7329C99.5025 85.4274 100.485 85.5722 101.18 85.0547C101.18 85.0547 101.18 85.0547 101.18 85.0542C101.875 84.5377 102.019 83.5546 101.502 82.8601C100.566 81.6027 99.1358 79.6804 98.1997 78.423C97.892 78.0094 97.4194 77.791 96.9407 77.791C96.6149 77.791 96.287 77.8919 96.0056 78.1012Z" fill="white"/>
</mask>
<g mask="url(#mask11)">
<path fill-rule="evenodd" clip-rule="evenodd" d="M98.6479 84.5135C98.3982 84.6986 98.086 84.7768 97.7778 84.7319C97.4706 84.686 97.1942 84.5201 97.0091 84.2704C96.1784 83.1466 94.7959 81.2799 93.9662 80.1577C93.5818 79.6397 93.6908 78.9088 94.2088 78.5245V78.524C94.4579 78.3393 94.7707 78.2612 95.0773 78.3066C95.384 78.352 95.6604 78.5179 95.845 78.7671C96.6772 79.8913 98.0598 81.7601 98.8905 82.8824C99.2738 83.3999 99.1649 84.1297 98.6479 84.5135Z" fill="#B2B2EB"/>
</g>
<path fill-rule="evenodd" clip-rule="evenodd" d="M87.8163 69.5362C87.4905 70.4905 87.4965 71.526 87.8325 72.4767C88.5845 74.6063 89.9761 78.5435 90.772 80.7966C90.9228 81.2238 91.2517 81.5643 91.6734 81.7292C92.095 81.8946 92.5681 81.8679 92.9686 81.6571C95.2056 80.4808 99.0031 78.484 99.0031 78.484C99.0031 78.484 99.9508 77.3279 100.681 76.4367C101.149 75.8662 101.094 75.0309 100.555 74.5271C99.0692 73.137 96.1226 70.379 93.6607 68.0755C92.7719 67.2432 91.5216 66.9194 90.3408 67.2145C89.16 67.5095 88.2092 68.3836 87.8163 69.5357V69.5362Z" fill="#CBCBF3"/>
<path fill-rule="evenodd" clip-rule="evenodd" d="M21.3643 89.246C21.2231 89.1371 21.1303 88.9777 21.105 88.8011C20.8977 87.3263 19.9258 80.4268 19.9258 80.4268L23.7788 79.4766C23.7788 79.4766 23.4459 85.1378 23.2552 88.3835C23.2295 88.8183 22.9657 89.2031 22.5698 89.3837C22.1733 89.5648 21.7098 89.5118 21.3643 89.246Z" fill="#CBCBF3"/>
<mask id="mask12" mask-type="alpha" maskUnits="userSpaceOnUse" x="0" y="68" width="38" height="37">
<path d="M11.5886 69.6425C2.2701 73.7744 -1.94051 84.6939 2.19142 94.0114C6.32285 103.33 17.2423 107.541 26.5603 103.409C35.8789 99.2772 40.089 88.3577 35.9575 79.0397C32.9035 72.1518 26.1407 68.0542 19.0576 68.0547C16.5583 68.0547 14.0188 68.5646 11.5886 69.6425Z" fill="white"/>
</mask>
<g mask="url(#mask12)">
<path fill-rule="evenodd" clip-rule="evenodd" d="M19.3604 85.5734C18.5418 86.2775 18.2896 87.4386 18.7426 88.4186C19.1955 89.3982 20.2436 89.9585 21.3099 89.7911C29.3347 88.5311 40.2264 86.8212 40.2264 86.8212L34.4486 72.6006C34.4486 72.6006 25.7026 80.1205 19.3604 85.5734Z" fill="#EBEBFB"/>
</g>
<mask id="mask13" mask-type="alpha" maskUnits="userSpaceOnUse" x="18" y="74" width="20" height="16">
<path d="M19.362 85.5749C18.5434 86.279 18.2917 87.4401 18.7446 88.4196C19.1971 89.3997 20.2452 89.96 21.312 89.7926C26.8648 88.921 33.7905 87.8335 37.5305 87.2459C37.64 84.5107 37.1411 81.7098 35.9573 79.0401C35.1301 77.1749 34.0311 75.5139 32.7272 74.084C29.8618 76.5474 23.9761 81.6079 19.362 85.5749Z" fill="white"/>
</mask>
<g mask="url(#mask13)">
<path fill-rule="evenodd" clip-rule="evenodd" d="M33.3854 74.3789C33.3854 74.3789 27.5839 80.1128 23.9861 83.6687C23.6951 83.9562 23.6426 84.4081 23.86 84.7546C24.0774 85.1016 24.5067 85.2509 24.893 85.1138C29.9298 83.3262 38.3324 80.3448 38.3324 80.3448C38.3324 80.3448 32.7458 83.0276 28.5317 85.0517C28.1478 85.2358 27.9526 85.6701 28.0696 86.0791C28.1867 86.4887 28.5816 86.7545 29.0048 86.7081C34.6181 86.0963 42.8814 85.1965 42.8814 85.1965L40.9633 75.2651L33.3854 74.3789Z" fill="#E1E1FB"/>
</g>
<path d="M31.2578 72.6436C33.2123 74.3559 34.8349 76.5092 35.9567 79.0397C37.4537 82.4155 37.8557 86.0017 37.316 89.3998" stroke="#BDB9E5" stroke-width="1.00877" stroke-linecap="round" stroke-linejoin="round"/>
<path fill-rule="evenodd" clip-rule="evenodd" d="M1.18374 78.2859C1.05462 77.43 1.64475 76.631 2.5007 76.5019C5.73129 76.0157 13.1498 74.8995 16.3804 74.4132C17.2368 74.2841 18.0353 74.8742 18.1644 75.7307V75.7312C18.293 76.5876 17.7034 77.3861 16.8469 77.5152C13.6164 78.0014 6.19784 79.1176 2.96776 79.6039C2.11131 79.7325 1.31236 79.1429 1.18374 78.2864V78.2859Z" fill="#CBCBF3"/>
<mask id="mask14" mask-type="alpha" maskUnits="userSpaceOnUse" x="1" y="74" width="18" height="6">
<path d="M16.38 74.4132C13.1499 74.8994 5.73142 76.0156 2.50032 76.5018C1.64438 76.6304 1.05424 77.4294 1.18387 78.2858V78.2863C1.31199 79.1428 2.11093 79.7324 2.96788 79.6038C6.19797 79.1181 13.6165 78.0009 16.8466 77.5151C17.7035 77.386 18.2931 76.5876 18.164 75.7311V75.7306C18.047 74.9534 17.3782 74.3955 16.6156 74.3955C16.5379 74.3955 16.4592 74.4011 16.38 74.4132Z" fill="white"/>
</mask>
<g mask="url(#mask14)">
<path fill-rule="evenodd" clip-rule="evenodd" d="M2.29226 79.8993C2.41836 80.5303 3.03119 80.9398 3.66268 80.8152C6.36921 80.2801 13.1482 78.9399 15.8613 78.4028C16.1659 78.3427 16.4337 78.1642 16.6062 77.906C16.7787 77.6482 16.8418 77.332 16.7812 77.0278C16.6552 76.3953 16.0408 75.9842 15.4083 76.1093C12.7008 76.645 5.92687 77.9846 3.21377 78.5213C2.90862 78.5813 2.63978 78.7604 2.46728 79.0191C2.29428 79.2774 2.23123 79.5941 2.29226 79.8988V79.8993Z" fill="#B2B2EB"/>
</g>
<mask id="mask15" mask-type="alpha" maskUnits="userSpaceOnUse" x="1" y="74" width="18" height="6">
<path d="M16.38 74.4132C13.1499 74.8994 5.73142 76.0156 2.50032 76.5018C1.64438 76.6304 1.05424 77.4294 1.18387 78.2858V78.2863C1.31199 79.1428 2.11093 79.7324 2.96788 79.6038C6.19797 79.1181 13.6165 78.0009 16.8466 77.5151C17.7035 77.386 18.2931 76.5876 18.164 75.7311V75.7306C18.047 74.9534 17.3782 74.3955 16.6156 74.3955C16.5379 74.3955 16.4592 74.4011 16.38 74.4132Z" fill="white"/>
</mask>
<g mask="url(#mask15)">
<path fill-rule="evenodd" clip-rule="evenodd" d="M2.2078 76.1592C1.72762 76.4078 1.50872 76.9722 1.71804 77.4292C1.92736 77.8852 2.48824 78.0632 2.97699 77.8332L2.2078 76.1592Z" fill="#B2B2EB"/>
</g>
<path fill-rule="evenodd" clip-rule="evenodd" d="M0.0694572 82.4229C-0.0531087 82.0255 -0.0122534 81.5957 0.18244 81.2281C0.377133 80.8604 0.710027 80.5855 1.10748 80.4629C4.49292 79.4218 12.6998 76.8979 16.0852 75.8563C16.4832 75.7343 16.9129 75.7746 17.2806 75.9693C17.6478 76.1645 17.9227 76.4969 18.0453 76.8944V76.8949C18.1678 77.2923 18.127 77.7221 17.9323 78.0898C17.7376 78.4575 17.4052 78.7324 17.0077 78.8549C13.6218 79.896 5.41494 82.4199 2.0295 83.4615C1.63154 83.5835 1.2018 83.5432 0.834611 83.3485C0.466913 83.1533 0.191519 82.8209 0.0694572 82.4234V82.4229Z" fill="#CBCBF3"/>
<mask id="mask16" mask-type="alpha" maskUnits="userSpaceOnUse" x="0" y="75" width="19" height="9">
<path d="M16.0852 75.8567C12.6998 76.8978 4.49292 79.4217 1.10698 80.4628C0.709523 80.5853 0.376628 80.8602 0.18244 81.2279C-0.0122534 81.5961 -0.0531086 82.0254 0.0694572 82.4228V82.4233C0.191519 82.8208 0.466913 83.1532 0.834611 83.3484C1.2018 83.5431 1.63154 83.5834 2.029 83.4613C5.41494 82.4198 13.6218 79.8958 17.0072 78.8543C17.4047 78.7317 17.7376 78.4573 17.9323 78.0896C18.1265 77.7219 18.1673 77.2922 18.0453 76.8947V76.8942C17.9227 76.4968 17.6478 76.1644 17.2806 75.9692C17.0521 75.8486 16.8004 75.7871 16.5467 75.7871C16.3919 75.7871 16.236 75.8103 16.0852 75.8567Z" fill="white"/>
</mask>
<g mask="url(#mask16)">
<path fill-rule="evenodd" clip-rule="evenodd" d="M1.01472 83.778C1.23564 84.3817 1.90345 84.6924 2.5077 84.473C5.77461 83.2852 15.4366 79.7737 18.7126 78.5823C19.0047 78.4759 19.2422 78.2585 19.3729 77.9771C19.504 77.6956 19.5181 77.3738 19.4112 77.0823V77.0818C19.1898 76.4765 18.5204 76.1648 17.9147 76.3852C14.6463 77.573 4.99281 81.0821 1.71481 82.2739C1.42226 82.3803 1.18419 82.5982 1.05305 82.8807C0.921407 83.1626 0.907789 83.4855 1.01472 83.7775V83.778Z" fill="#B2B2EB"/>
</g>
<mask id="mask17" mask-type="alpha" maskUnits="userSpaceOnUse" x="0" y="75" width="19" height="9">
<path d="M16.0852 75.8567C12.6998 76.8978 4.49292 79.4217 1.10698 80.4628C0.709523 80.5853 0.376628 80.8602 0.18244 81.2279C-0.0122534 81.5961 -0.0531086 82.0254 0.0694572 82.4228V82.4233C0.191519 82.8208 0.466913 83.1532 0.834611 83.3484C1.2018 83.5431 1.63154 83.5834 2.029 83.4613C5.41494 82.4198 13.6218 79.8958 17.0072 78.8543C17.4047 78.7317 17.7376 78.4573 17.9323 78.0896C18.1265 77.7219 18.1673 77.2922 18.0453 76.8947V76.8942C17.9227 76.4968 17.6478 76.1644 17.2806 75.9692C17.0521 75.8486 16.8004 75.7871 16.5467 75.7871C16.3919 75.7871 16.236 75.8103 16.0852 75.8567Z" fill="white"/>
</mask>
<g mask="url(#mask17)">
<path fill-rule="evenodd" clip-rule="evenodd" d="M1.02833 80.1973C0.548151 80.4459 0.328743 81.0103 0.538568 81.4673C0.747888 81.9233 1.30877 82.1013 1.79752 81.8713L1.02833 80.1973Z" fill="#B2B2EB"/>
</g>
<path fill-rule="evenodd" clip-rule="evenodd" d="M10.2568 80.9503C9.89971 80.7309 9.46947 80.6628 9.06193 80.7601C8.65438 80.8575 8.30232 81.1132 8.08291 81.4708C7.17804 82.9451 5.736 85.2956 4.83114 86.7704C4.61173 87.1275 4.54364 87.5577 4.64098 87.9648C4.73883 88.3728 4.99405 88.7249 5.35166 88.9443C5.70877 89.1632 6.1385 89.2318 6.54655 89.1344C6.9541 89.0366 7.30616 88.7809 7.52506 88.4238C8.42993 86.9494 9.87247 84.5985 10.7773 83.1242C10.9968 82.7671 11.0648 82.3368 10.9675 81.9293C10.8696 81.5217 10.6139 81.1697 10.2568 80.9503Z" fill="#CBCBF3"/>
<mask id="mask18" mask-type="alpha" maskUnits="userSpaceOnUse" x="4" y="80" width="8" height="10">
<path d="M9.06194 80.7602C8.6544 80.8575 8.30233 81.1137 8.08293 81.4709C7.17806 82.9452 5.73551 85.2956 4.83065 86.7704C4.61174 87.1275 4.54365 87.5578 4.641 87.9648C4.73834 88.3729 4.99407 88.7249 5.35168 88.9443C5.70878 89.1632 6.13852 89.2318 6.54606 89.1345C6.95411 89.0366 7.30567 88.7814 7.52508 88.4238C8.42994 86.949 9.87249 84.5991 10.7769 83.1242C10.9963 82.7666 11.0649 82.3369 10.967 81.9298C10.8697 81.5218 10.6139 81.1692 10.2568 80.9503C10.0056 80.7965 9.71915 80.7168 9.42964 80.7168C9.30707 80.7168 9.1835 80.7314 9.06194 80.7602Z" fill="white"/>
</mask>
<g mask="url(#mask18)">
<path fill-rule="evenodd" clip-rule="evenodd" d="M12.1416 81.5255C11.7845 81.3061 11.3542 81.238 10.9467 81.3353C10.5391 81.4327 10.1871 81.6884 9.96768 82.046C9.06281 83.5203 7.62077 85.8708 6.7159 87.3456C6.49649 87.7027 6.4284 88.1329 6.52575 88.54C6.6236 88.948 6.87882 89.3001 7.23643 89.5195C7.59353 89.7384 8.02327 89.807 8.43132 89.7096C8.83886 89.6118 9.19092 89.3561 9.40983 88.9985C10.3147 87.5246 11.7572 85.1737 12.6621 83.6994C12.8815 83.3423 12.9496 82.912 12.8523 82.5045C12.7544 82.0969 12.4987 81.7449 12.1416 81.5255Z" fill="#B2B2EB"/>
</g>
<mask id="mask19" mask-type="alpha" maskUnits="userSpaceOnUse" x="4" y="80" width="8" height="10">
<path d="M9.06194 80.7602C8.6544 80.8575 8.30233 81.1137 8.08293 81.4709C7.17806 82.9452 5.73551 85.2956 4.83065 86.7704C4.61174 87.1275 4.54365 87.5578 4.641 87.9648C4.73834 88.3729 4.99407 88.7249 5.35168 88.9443C5.70878 89.1632 6.13852 89.2318 6.54606 89.1345C6.95411 89.0366 7.30567 88.7814 7.52508 88.4238C8.42994 86.949 9.87249 84.5991 10.7769 83.1242C10.9963 82.7666 11.0649 82.3369 10.967 81.9298C10.8697 81.5218 10.6139 81.1692 10.2568 80.9503C10.0056 80.7965 9.71915 80.7168 9.42964 80.7168C9.30707 80.7168 9.1835 80.7314 9.06194 80.7602Z" fill="white"/>
</mask>
<g mask="url(#mask19)">
<path fill-rule="evenodd" clip-rule="evenodd" d="M4.7935 86.4932C4.55391 86.9779 4.71128 87.563 5.1501 87.8066C5.58891 88.0507 6.14676 87.8631 6.40451 87.3879L4.7935 86.4932Z" fill="#B2B2EB"/>
</g>
<path fill-rule="evenodd" clip-rule="evenodd" d="M8.11632 82.9625C7.92364 82.5943 7.88481 82.1641 8.00888 81.7671C8.13296 81.3702 8.40987 81.0388 8.77807 80.8461C10.492 79.9478 13.3892 78.4311 15.1036 77.5333C15.4718 77.3406 15.902 77.3018 16.299 77.4259C16.6954 77.55 17.0273 77.8264 17.22 78.1951V78.1956C17.4132 78.5638 17.452 78.994 17.3279 79.391C17.2038 79.7879 16.9269 80.1188 16.5582 80.312C14.8443 81.2093 11.9471 82.727 10.2332 83.6243C9.86503 83.8175 9.43478 83.8558 9.03783 83.7317C8.64088 83.6076 8.3095 83.3307 8.11632 82.963C8.11632 82.9625 8.11632 82.9625 8.11632 82.9625Z" fill="#CBCBF3"/>
<mask id="mask20" mask-type="alpha" maskUnits="userSpaceOnUse" x="7" y="77" width="11" height="7">
<path d="M15.1031 77.533C13.3892 78.4309 10.492 79.9475 8.77807 80.8459C8.40987 81.0385 8.13296 81.3699 8.00888 81.7669C7.88481 82.1638 7.92364 82.5941 8.11632 82.9623C8.11632 82.9623 8.11632 82.9623 8.11632 82.9628C8.3095 83.331 8.64088 83.6074 9.03783 83.7319C9.43478 83.856 9.86452 83.8177 10.2332 83.6245C11.9471 82.7267 14.8443 81.2095 16.5582 80.3117C16.9269 80.119 17.2038 79.7882 17.3274 79.3907C17.452 78.9943 17.4132 78.5635 17.22 78.1953C17.0268 77.8266 16.6959 77.5497 16.299 77.4261C16.1456 77.3782 15.9878 77.3545 15.8304 77.3545C15.5792 77.3545 15.3295 77.4145 15.1031 77.533Z" fill="white"/>
</mask>
<g mask="url(#mask20)">
<path fill-rule="evenodd" clip-rule="evenodd" d="M8.83046 84.7322C9.35856 85.1851 10.1101 85.2699 10.7259 84.946C12.2209 84.1587 14.991 82.7 16.4936 81.9086C17.0646 81.6085 17.284 80.9019 16.9834 80.3309V80.3304C16.8391 80.056 16.5915 79.8502 16.2954 79.7584C15.9993 79.6666 15.6785 79.6964 15.4041 79.8406C13.954 80.6038 11.3247 81.9888 9.79939 82.7913C9.09325 83.1635 8.70336 83.9443 8.83046 84.7322Z" fill="#B2B2EB"/>
</g>
<path fill-rule="evenodd" clip-rule="evenodd" d="M20.0742 88.1776C19.5683 88.8807 18.5883 89.0401 17.8857 88.5342C16.6137 87.6188 14.6687 86.2186 13.3962 85.3031C12.6936 84.7972 12.5337 83.8172 13.0396 83.1146C13.0396 83.1141 13.0401 83.1141 13.0401 83.1141C13.546 82.411 14.526 82.2516 15.2286 82.7575C16.5012 83.673 18.4456 85.0726 19.7176 85.9881C20.4208 86.494 20.5801 87.474 20.0742 88.1771V88.1776Z" fill="#CBCBF3"/>
<mask id="mask21" mask-type="alpha" maskUnits="userSpaceOnUse" x="12" y="82" width="9" height="7">
<path d="M13.0382 83.1141C13.0382 83.1141 13.0377 83.1141 13.0377 83.1146C12.5318 83.8177 12.6912 84.7972 13.3948 85.3031C14.6664 86.2186 16.6118 87.6188 17.8839 88.5342C18.5865 89.0406 19.5665 88.8807 20.0724 88.1781V88.1771C20.5783 87.4745 20.4189 86.4945 19.7158 85.9881C18.4437 85.0726 16.4993 83.6734 15.2268 82.7575C14.9499 82.5577 14.6296 82.4619 14.3123 82.4619C13.8251 82.4619 13.3444 82.6884 13.0382 83.1141Z" fill="white"/>
</mask>
<g mask="url(#mask21)">
<path fill-rule="evenodd" clip-rule="evenodd" d="M20.8982 86.7035C21.0793 86.4508 21.1524 86.137 21.102 85.8304C21.0515 85.5237 20.881 85.2498 20.6283 85.0692C19.4914 84.2552 17.603 82.9039 16.4682 82.0914C15.9441 81.7161 15.2143 81.8366 14.8385 82.3607C14.6574 82.6129 14.5843 82.9266 14.6347 83.2323C14.6857 83.5389 14.8556 83.8123 15.1078 83.9929C16.2447 84.8065 18.1352 86.1597 19.2705 86.9723C19.7946 87.3471 20.5224 87.2265 20.8982 86.7035Z" fill="#B2B2EB"/>
</g>
<mask id="mask22" mask-type="alpha" maskUnits="userSpaceOnUse" x="12" y="82" width="9" height="7">
<path d="M13.0382 83.1141C13.0382 83.1141 13.0377 83.1141 13.0377 83.1146C12.5318 83.8177 12.6912 84.7972 13.3948 85.3031C14.6664 86.2186 16.6118 87.6188 17.8839 88.5342C18.5865 89.0406 19.5665 88.8807 20.0724 88.1781V88.1771C20.5783 87.4745 20.4189 86.4945 19.7158 85.9881C18.4437 85.0726 16.4993 83.6734 15.2268 82.7575C14.9499 82.5577 14.6296 82.4619 14.3123 82.4619C13.8251 82.4619 13.3444 82.6884 13.0382 83.1141Z" fill="white"/>
</mask>
<g mask="url(#mask22)">
<path fill-rule="evenodd" clip-rule="evenodd" d="M16.9395 88.9887C17.402 89.2692 17.9982 89.1627 18.2786 88.7466C18.559 88.3295 18.4198 87.7585 17.9694 87.4609L16.9395 88.9887Z" fill="#B2B2EB"/>
</g>
<path fill-rule="evenodd" clip-rule="evenodd" d="M13.3019 85.054C12.6073 84.5375 12.4631 83.5544 12.9801 82.8599C13.9157 81.6025 15.3466 79.6807 16.2823 78.4233C16.7998 77.7283 17.7818 77.584 18.4764 78.1015H18.4769C19.1719 78.6185 19.3157 79.6011 18.7987 80.2956C17.863 81.5535 16.4321 83.4752 15.4964 84.7327C14.9794 85.4272 13.9969 85.5715 13.3024 85.0545C13.3019 85.0545 13.3019 85.0545 13.3019 85.054Z" fill="#CBCBF3"/>
<mask id="mask23" mask-type="alpha" maskUnits="userSpaceOnUse" x="12" y="77" width="8" height="9">
<path d="M16.2819 78.423C15.3468 79.6804 13.9158 81.6027 12.9802 82.8601C12.4632 83.5546 12.607 84.5377 13.302 85.0542C13.302 85.0547 13.302 85.0547 13.3025 85.0547C13.997 85.5722 14.9796 85.4274 15.4966 84.7329C16.4317 83.4754 17.8627 81.5537 18.7983 80.2958C19.3158 79.6013 19.1715 78.6187 18.477 78.1012H18.4765C18.1951 77.8919 17.8672 77.791 17.5414 77.791C17.0627 77.791 16.5901 78.0094 16.2819 78.423Z" fill="white"/>
</mask>
<g mask="url(#mask23)">
<path fill-rule="evenodd" clip-rule="evenodd" d="M15.8332 84.5135C16.0829 84.6986 16.3956 84.7768 16.7028 84.7319C17.0099 84.686 17.2868 84.5201 17.4719 84.2704C18.3032 83.1466 19.6847 81.2799 20.5154 80.1577C20.8987 79.6397 20.7903 78.9088 20.2723 78.5245V78.524C20.0231 78.3393 19.7104 78.2612 19.4037 78.3066C19.0966 78.352 18.8207 78.5179 18.6361 78.7671C17.8043 79.8913 16.4213 81.7601 15.5906 82.8824C15.2073 83.3999 15.3157 84.1297 15.8332 84.5135Z" fill="#B2B2EB"/>
</g>
<path fill-rule="evenodd" clip-rule="evenodd" d="M26.665 69.5352C26.9903 70.4895 26.9848 71.525 26.6488 72.4758C25.8963 74.6053 24.5052 78.5425 23.7093 80.7956C23.558 81.2228 23.2291 81.5633 22.8074 81.7282C22.3858 81.8937 21.9131 81.8669 21.5122 81.6561C19.2752 80.4799 15.4782 78.483 15.4782 78.483C15.4782 78.483 14.5305 77.3269 13.7996 76.4357C13.332 75.8652 13.3875 75.03 13.9257 74.5261C15.4116 73.136 18.3582 70.378 20.8207 68.0745C21.7094 67.2423 22.9592 66.9184 24.1405 67.2135C25.3213 67.5086 26.2715 68.3827 26.665 69.5347C26.665 69.5352 26.665 69.5352 26.665 69.5352Z" fill="#CBCBF3"/>
<path fill-rule="evenodd" clip-rule="evenodd" d="M57.2915 28.2344C42.2603 28.2344 30.0566 40.438 30.0566 55.4692C30.0566 70.5004 42.2603 82.704 57.2915 82.704C72.3232 82.704 84.5263 70.5004 84.5263 55.4692C84.5263 40.438 72.3232 28.2344 57.2915 28.2344Z" fill="#DCDCF5"/>
<mask id="mask24" mask-type="alpha" maskUnits="userSpaceOnUse" x="30" y="28" width="55" height="55">
<path d="M30.0566 55.4702C30.0566 70.5019 42.2603 82.7045 57.2915 82.7045C72.3227 82.7045 84.5258 70.5019 84.5258 55.4702C84.5258 40.439 72.3227 28.2354 57.2915 28.2354C42.2603 28.2354 30.0566 40.439 30.0566 55.4702Z" fill="white"/>
</mask>
<g mask="url(#mask24)">
<path fill-rule="evenodd" clip-rule="evenodd" d="M61.3032 24.2227C46.272 24.2227 34.0684 36.4258 34.0684 51.4575C34.0684 66.4887 46.272 78.6923 61.3032 78.6923C76.3349 78.6923 88.538 66.4887 88.538 51.4575C88.538 36.4258 76.3349 24.2227 61.3032 24.2227Z" fill="#E8E8F9"/>
</g>
<mask id="mask25" mask-type="alpha" maskUnits="userSpaceOnUse" x="30" y="28" width="55" height="55">
<path d="M30.0566 55.4702C30.0566 70.5019 42.2603 82.7045 57.2915 82.7045C72.3227 82.7045 84.5258 70.5019 84.5258 55.4702C84.5258 40.439 72.3227 28.2354 57.2915 28.2354C42.2603 28.2354 30.0566 40.439 30.0566 55.4702Z" fill="white"/>
</mask>
<g mask="url(#mask25)">
<path fill-rule="evenodd" clip-rule="evenodd" d="M63.9271 29.8775C62.3978 31.9894 64.8884 36.4068 69.4859 39.7363C74.0829 43.0657 79.0571 44.0543 80.5864 41.9424C82.1167 39.8306 79.6251 35.4132 75.0281 32.0837C70.4311 28.7543 65.4564 27.7657 63.9271 29.8775Z" fill="#F2F2FC"/>
</g>
<mask id="mask26" mask-type="alpha" maskUnits="userSpaceOnUse" x="30" y="28" width="55" height="55">
<path d="M30.0566 55.4702C30.0566 70.5019 42.2603 82.7045 57.2915 82.7045C72.3227 82.7045 84.5258 70.5019 84.5258 55.4702C84.5258 40.439 72.3227 28.2354 57.2915 28.2354C42.2603 28.2354 30.0566 40.439 30.0566 55.4702Z" fill="white"/>
</mask>
<g mask="url(#mask26)">
<path fill-rule="evenodd" clip-rule="evenodd" d="M74.8115 53.4801C72.6008 54.1141 71.0881 55.6141 71.4367 56.8282C71.7842 58.0417 73.8618 58.5123 76.0725 57.8788C78.2832 57.2448 79.7954 55.7447 79.4473 54.5307C79.0993 53.3171 77.0217 52.8465 74.8115 53.4801Z" fill="#DCDCF5"/>
</g>
<mask id="mask27" mask-type="alpha" maskUnits="userSpaceOnUse" x="30" y="28" width="55" height="55">
<path d="M30.0566 55.4702C30.0566 70.5019 42.2603 82.7045 57.2915 82.7045C72.3227 82.7045 84.5258 70.5019 84.5258 55.4702C84.5258 40.439 72.3227 28.2354 57.2915 28.2354C42.2603 28.2354 30.0566 40.439 30.0566 55.4702Z" fill="white"/>
</mask>
<g mask="url(#mask27)">
<path fill-rule="evenodd" clip-rule="evenodd" d="M41.6959 53.4988C39.4852 52.8648 37.4076 53.3359 37.0596 54.5495C36.7116 55.763 38.2242 57.2631 40.4349 57.8971C42.6452 58.5311 44.7227 58.0605 45.0707 56.8464C45.4188 55.6329 43.9066 54.1328 41.6959 53.4988Z" fill="#DCDCF5"/>
</g>
<mask id="mask28" mask-type="alpha" maskUnits="userSpaceOnUse" x="30" y="28" width="55" height="55">
<path d="M30.0566 55.4702C30.0566 70.5019 42.2603 82.7045 57.2915 82.7045C72.3227 82.7045 84.5258 70.5019 84.5258 55.4702C84.5258 40.439 72.3227 28.2354 57.2915 28.2354C42.2603 28.2354 30.0566 40.439 30.0566 55.4702Z" fill="white"/>
</mask>
<g mask="url(#mask28)">
<path fill-rule="evenodd" clip-rule="evenodd" d="M47.6652 47.8311C48.8318 47.8311 49.7796 48.7748 49.7796 49.9369C49.7796 51.0995 48.8318 52.0427 47.6652 52.0427C46.498 52.0427 45.5508 51.0995 45.5508 49.9369C45.5508 48.7748 46.498 47.8311 47.6652 47.8311Z" fill="#BDB9E5"/>
</g>
<mask id="mask29" mask-type="alpha" maskUnits="userSpaceOnUse" x="30" y="28" width="55" height="55">
<path d="M30.0566 55.4702C30.0566 70.5019 42.2603 82.7045 57.2915 82.7045C72.3227 82.7045 84.5258 70.5019 84.5258 55.4702C84.5258 40.439 72.3227 28.2354 57.2915 28.2354C42.2603 28.2354 30.0566 40.439 30.0566 55.4702Z" fill="white"/>
</mask>
<g mask="url(#mask29)">
<path fill-rule="evenodd" clip-rule="evenodd" d="M68.714 47.8311C69.8806 47.8311 70.8279 48.7748 70.8279 49.9369C70.8279 51.0995 69.8806 52.0427 68.714 52.0427C67.5468 52.0427 66.5996 51.0995 66.5996 49.9369C66.5996 48.7748 67.5468 47.8311 68.714 47.8311Z" fill="#BDB9E5"/>
</g>
<mask id="mask30" mask-type="alpha" maskUnits="userSpaceOnUse" x="30" y="28" width="55" height="55">
<path d="M30.0566 55.4702C30.0566 70.5019 42.2603 82.7045 57.2915 82.7045C72.3227 82.7045 84.5258 70.5019 84.5258 55.4702C84.5258 40.439 72.3227 28.2354 57.2915 28.2354C42.2603 28.2354 30.0566 40.439 30.0566 55.4702Z" fill="white"/>
</mask>
<g mask="url(#mask30)">
<path fill-rule="evenodd" clip-rule="evenodd" d="M47.664 48.4482C48.4897 48.4482 49.1595 49.1155 49.1595 49.9377C49.1595 50.7598 48.4897 51.4277 47.664 51.4277C46.8383 51.4277 46.168 50.7598 46.168 49.9377C46.168 49.1155 46.8383 48.4482 47.664 48.4482Z" fill="#5A4BE2"/>
</g>
<mask id="mask31" mask-type="alpha" maskUnits="userSpaceOnUse" x="46" y="48" width="4" height="4">
<path d="M46.168 49.9377C46.168 50.7603 46.8383 51.4277 47.664 51.4277C48.4892 51.4277 49.1595 50.7603 49.1595 49.9377C49.1595 49.1155 48.4892 48.4482 47.664 48.4482C46.8383 48.4482 46.168 49.1155 46.168 49.9377Z" fill="white"/>
</mask>
<g mask="url(#mask31)">
<path fill-rule="evenodd" clip-rule="evenodd" d="M47.08 47.8662C47.9052 47.8662 48.5755 48.534 48.5755 49.3562C48.5755 50.1783 47.9052 50.8456 47.08 50.8456C46.2543 50.8456 45.584 50.1783 45.584 49.3562C45.584 48.534 46.2543 47.8662 47.08 47.8662Z" fill="#7364E2"/>
</g>
<mask id="mask32" mask-type="alpha" maskUnits="userSpaceOnUse" x="30" y="28" width="55" height="55">
<path d="M30.0566 55.4702C30.0566 70.5019 42.2603 82.7045 57.2915 82.7045C72.3227 82.7045 84.5258 70.5019 84.5258 55.4702C84.5258 40.439 72.3227 28.2354 57.2915 28.2354C42.2603 28.2354 30.0566 40.439 30.0566 55.4702Z" fill="white"/>
</mask>
<g mask="url(#mask32)">
<path fill-rule="evenodd" clip-rule="evenodd" d="M68.727 48.4482C69.5527 48.4482 70.2225 49.1155 70.2225 49.9377C70.2225 50.7598 69.5527 51.4277 68.727 51.4277C67.9008 51.4277 67.2305 50.7598 67.2305 49.9377C67.2305 49.1155 67.9008 48.4482 68.727 48.4482Z" fill="#5A4BE2"/>
</g>
<mask id="mask33" mask-type="alpha" maskUnits="userSpaceOnUse" x="67" y="48" width="4" height="4">
<path d="M67.2305 49.9367C67.2305 50.7594 67.9003 51.4267 68.7265 51.4267C69.5522 51.4267 70.222 50.7594 70.222 49.9367C70.222 49.1146 69.5522 48.4473 68.7265 48.4473C67.9003 48.4473 67.2305 49.1146 67.2305 49.9367Z" fill="white"/>
</mask>
<g mask="url(#mask33)">
<path fill-rule="evenodd" clip-rule="evenodd" d="M68.1425 47.8652C68.9677 47.8652 69.638 48.533 69.638 49.3552C69.638 50.1773 68.9677 50.8446 68.1425 50.8446C67.3168 50.8446 66.6465 50.1773 66.6465 49.3552C66.6465 48.533 67.3168 47.8652 68.1425 47.8652Z" fill="#7364E2"/>
</g>
<mask id="mask34" mask-type="alpha" maskUnits="userSpaceOnUse" x="30" y="28" width="55" height="55">
<path d="M30.0566 55.4702C30.0566 70.5019 42.2603 82.7045 57.2915 82.7045C72.3227 82.7045 84.5258 70.5019 84.5258 55.4702C84.5258 40.439 72.3227 28.2354 57.2915 28.2354C42.2603 28.2354 30.0566 40.439 30.0566 55.4702Z" fill="white"/>
</mask>
<g mask="url(#mask34)">
<path fill-rule="evenodd" clip-rule="evenodd" d="M68.0533 49.0146C68.2147 49.0146 68.3464 49.1458 68.3464 49.3067C68.3464 49.4681 68.2147 49.5992 68.0533 49.5992C67.8914 49.5992 67.7598 49.4681 67.7598 49.3067C67.7598 49.1458 67.8914 49.0146 68.0533 49.0146Z" fill="white"/>
</g>
<mask id="mask35" mask-type="alpha" maskUnits="userSpaceOnUse" x="30" y="28" width="55" height="55">
<path d="M30.0566 55.4702C30.0566 70.5019 42.2603 82.7045 57.2915 82.7045C72.3227 82.7045 84.5258 70.5019 84.5258 55.4702C84.5258 40.439 72.3227 28.2354 57.2915 28.2354C42.2603 28.2354 30.0566 40.439 30.0566 55.4702Z" fill="white"/>
</mask>
<g mask="url(#mask35)">
<path fill-rule="evenodd" clip-rule="evenodd" d="M46.8932 49.0146C47.0551 49.0146 47.1867 49.1458 47.1867 49.3067C47.1867 49.4681 47.0551 49.5992 46.8932 49.5992C46.7313 49.5992 46.5996 49.4681 46.5996 49.3067C46.5996 49.1458 46.7313 49.0146 46.8932 49.0146Z" fill="white"/>
</g>
<mask id="mask36" mask-type="alpha" maskUnits="userSpaceOnUse" x="30" y="28" width="55" height="55">
<path d="M30.0566 55.4702C30.0566 70.5019 42.2603 82.7045 57.2915 82.7045C72.3227 82.7045 84.5258 70.5019 84.5258 55.4702C84.5258 40.439 72.3227 28.2354 57.2915 28.2354C42.2603 28.2354 30.0566 40.439 30.0566 55.4702Z" fill="white"/>
</mask>
<g mask="url(#mask36)">
<path d="M73.2018 47.4924C73.3486 45.8446 71.7679 43.7862 69.541 44.2931" stroke="#A5A5E7" stroke-width="0.504386" stroke-linecap="round" stroke-linejoin="round"/>
</g>
<mask id="mask37" mask-type="alpha" maskUnits="userSpaceOnUse" x="30" y="28" width="55" height="55">
<path d="M30.0566 55.4702C30.0566 70.5019 42.2603 82.7045 57.2915 82.7045C72.3227 82.7045 84.5258 70.5019 84.5258 55.4702C84.5258 40.439 72.3227 28.2354 57.2915 28.2354C42.2603 28.2354 30.0566 40.439 30.0566 55.4702Z" fill="white"/>
</mask>
<g mask="url(#mask37)">
<path d="M43.6813 47.4924C43.5345 45.8446 45.1153 43.7862 47.3416 44.2931" stroke="#A5A5E7" stroke-width="0.504386" stroke-linecap="round" stroke-linejoin="round"/>
</g>
<mask id="mask38" mask-type="alpha" maskUnits="userSpaceOnUse" x="30" y="28" width="55" height="55">
<path d="M30.0566 55.4702C30.0566 70.5019 42.2603 82.7045 57.2915 82.7045C72.3227 82.7045 84.5258 70.5019 84.5258 55.4702C84.5258 40.439 72.3227 28.2354 57.2915 28.2354C42.2603 28.2354 30.0566 40.439 30.0566 55.4702Z" fill="white"/>
</mask>
<g mask="url(#mask38)">
<path d="M58.043 61.2861C61.4788 61.2861 64.4129 63.2795 65.5578 66.0788" stroke="#BDB9E5" stroke-width="1.51316" stroke-linecap="round" stroke-linejoin="round"/>
</g>
<mask id="mask39" mask-type="alpha" maskUnits="userSpaceOnUse" x="30" y="28" width="55" height="55">
<path d="M30.0566 55.4702C30.0566 70.5019 42.2603 82.7045 57.2915 82.7045C72.3227 82.7045 84.5258 70.5019 84.5258 55.4702C84.5258 40.439 72.3227 28.2354 57.2915 28.2354C42.2603 28.2354 30.0566 40.439 30.0566 55.4702Z" fill="white"/>
</mask>
<g mask="url(#mask39)">
<path d="M58.0427 61.2861C54.6073 61.2861 51.6728 63.2795 50.5273 66.0788" stroke="#BDB9E5" stroke-width="1.51316" stroke-linecap="round" stroke-linejoin="round"/>
</g>
<mask id="mask40" mask-type="alpha" maskUnits="userSpaceOnUse" x="30" y="28" width="55" height="55">
<path d="M30.0566 55.4702C30.0566 70.5019 42.2603 82.7045 57.2915 82.7045C72.3227 82.7045 84.5258 70.5019 84.5258 55.4702C84.5258 40.439 72.3227 28.2354 57.2915 28.2354C42.2603 28.2354 30.0566 40.439 30.0566 55.4702Z" fill="white"/>
</mask>
<g mask="url(#mask40)">
<path d="M58.043 61.2861C61.4788 61.2861 64.4129 63.2795 65.5578 66.0788" stroke="#6969DB" stroke-width="0.504386" stroke-linecap="round" stroke-linejoin="round"/>
</g>
<mask id="mask41" mask-type="alpha" maskUnits="userSpaceOnUse" x="30" y="28" width="55" height="55">
<path d="M30.0566 55.4702C30.0566 70.5019 42.2603 82.7045 57.2915 82.7045C72.3227 82.7045 84.5258 70.5019 84.5258 55.4702C84.5258 40.439 72.3227 28.2354 57.2915 28.2354C42.2603 28.2354 30.0566 40.439 30.0566 55.4702Z" fill="white"/>
</mask>
<g mask="url(#mask41)">
<path d="M58.0427 61.2861C54.6073 61.2861 51.6728 63.2795 50.5273 66.0788" stroke="#6969DB" stroke-width="0.504386" stroke-linecap="round" stroke-linejoin="round"/>
</g>
<path fill-rule="evenodd" clip-rule="evenodd" d="M25.643 95.1894C28.2825 96.5044 29.3578 99.7158 28.0424 102.355C26.7264 104.994 23.516 106.07 20.8766 104.754C18.2371 103.439 17.1623 100.228 18.4772 97.5883C19.7926 94.9488 23.0036 93.874 25.643 95.1894Z" stroke="#EFEFF9" stroke-width="1.00877" stroke-linecap="round" stroke-linejoin="round"/>
<path fill-rule="evenodd" clip-rule="evenodd" d="M36.315 99.2729C36.891 99.5599 37.1255 100.26 36.8386 100.837C36.5516 101.412 35.851 101.647 35.275 101.361C34.6989 101.073 34.4644 100.372 34.7514 99.7964C35.0384 99.2204 35.739 98.9859 36.315 99.2729Z" fill="#F7F7FC"/>
<path fill-rule="evenodd" clip-rule="evenodd" d="M91.4388 25.1035C91.7833 25.1035 92.0617 25.3824 92.0617 25.7259C92.0617 26.0699 91.7833 26.3488 91.4388 26.3488C91.0953 26.3488 90.8164 26.0699 90.8164 25.7259C90.8164 25.3824 91.0953 25.1035 91.4388 25.1035Z" fill="#DFDFF4"/>
<path d="M86.1934 15.8047V24.4953" stroke="#DFDFF4" stroke-width="1.00877" stroke-linecap="round" stroke-linejoin="round"/>
<path d="M90.4919 20.1504H81.8906" stroke="#DFDFF4" stroke-width="1.00877" stroke-linecap="round" stroke-linejoin="round"/>
<path fill-rule="evenodd" clip-rule="evenodd" d="M22.0814 17.252C22.5606 17.252 22.95 17.6413 22.95 18.1205C22.95 18.5997 22.5606 18.9891 22.0814 18.9891C21.6018 18.9891 21.2129 18.5997 21.2129 18.1205C21.2129 17.6413 21.6018 17.252 22.0814 17.252Z" fill="#DFDFF4"/>
<path fill-rule="evenodd" clip-rule="evenodd" d="M10.9395 17.6934V30.6167L21.5628 24.0411L10.9395 17.6934Z" stroke="#DFDFF4" stroke-width="1.00877" stroke-linecap="round" stroke-linejoin="round"/>
</svg>
