<svg width="116" height="116" viewBox="0 0 116 116" fill="none" xmlns="http://www.w3.org/2000/svg">
<path fill-rule="evenodd" clip-rule="evenodd" d="M58 30.5C42.8224 30.5 30.5 42.8224 30.5 58C30.5 73.1776 42.8224 85.5 58 85.5C73.1776 85.5 85.5 73.1776 85.5 58C85.5 42.8224 73.1776 30.5 58 30.5Z" fill="#DCDCF5"/>
<mask id="mask0" mask-type="alpha" maskUnits="userSpaceOnUse" x="30" y="30" width="56" height="56">
<path d="M30.5 58C30.5 73.1781 42.8224 85.4995 58 85.4995C73.1776 85.4995 85.4995 73.1781 85.4995 58C85.4995 42.8224 73.1776 30.5 58 30.5C42.8224 30.5 30.5 42.8224 30.5 58Z" fill="white"/>
</mask>
<g mask="url(#mask0)">
<path fill-rule="evenodd" clip-rule="evenodd" d="M62.0469 26.4482C46.8693 26.4482 34.5469 38.7702 34.5469 53.9482C34.5469 69.1258 46.8693 81.4482 62.0469 81.4482C77.2249 81.4482 89.5469 69.1258 89.5469 53.9482C89.5469 38.7702 77.2249 26.4482 62.0469 26.4482Z" fill="#E8E8F9"/>
</g>
<mask id="mask1" mask-type="alpha" maskUnits="userSpaceOnUse" x="30" y="30" width="56" height="56">
<path d="M30.5 58C30.5 73.1781 42.8224 85.4995 58 85.4995C73.1776 85.4995 85.4995 73.1781 85.4995 58C85.4995 42.8224 73.1776 30.5 58 30.5C42.8224 30.5 30.5 42.8224 30.5 58Z" fill="white"/>
</mask>
<g mask="url(#mask1)">
<path fill-rule="evenodd" clip-rule="evenodd" d="M64.701 32.1579C63.1568 34.2903 65.6717 38.7507 70.3139 42.1126C74.9562 45.4745 79.9789 46.4727 81.5231 44.3403C83.0672 42.2078 80.5523 37.7474 75.9101 34.3855C71.2678 31.0237 66.2457 30.0254 64.701 32.1579Z" fill="#F2F2FC"/>
</g>
<mask id="mask2" mask-type="alpha" maskUnits="userSpaceOnUse" x="30" y="30" width="56" height="56">
<path d="M30.5 58C30.5 73.1781 42.8224 85.4995 58 85.4995C73.1776 85.4995 85.4995 73.1781 85.4995 58C85.4995 42.8224 73.1776 30.5 58 30.5C42.8224 30.5 30.5 42.8224 30.5 58Z" fill="white"/>
</mask>
<g mask="url(#mask2)">
<path fill-rule="evenodd" clip-rule="evenodd" d="M74.7315 55.3317C72.4992 55.9718 70.9723 57.4865 71.3238 58.7119C71.6752 59.9377 73.773 60.4129 76.0052 59.7727C78.2375 59.133 79.7643 57.6184 79.4124 56.3925C79.0615 55.1672 76.9637 54.6915 74.7315 55.3317Z" fill="#DCDCF5"/>
</g>
<mask id="mask3" mask-type="alpha" maskUnits="userSpaceOnUse" x="30" y="30" width="56" height="56">
<path d="M30.5 58C30.5 73.1781 42.8224 85.4995 58 85.4995C73.1776 85.4995 85.4995 73.1781 85.4995 58C85.4995 42.8224 73.1776 30.5 58 30.5C42.8224 30.5 30.5 42.8224 30.5 58Z" fill="white"/>
</mask>
<g mask="url(#mask3)">
<path fill-rule="evenodd" clip-rule="evenodd" d="M41.2939 55.3493C39.0616 54.7091 36.9644 55.1843 36.6129 56.4102C36.261 57.6356 37.7884 59.1502 40.0206 59.7904C42.2524 60.4306 44.3502 59.9549 44.7016 58.7295C45.053 57.5042 43.5261 55.9895 41.2939 55.3493Z" fill="#DCDCF5"/>
</g>
<mask id="mask4" mask-type="alpha" maskUnits="userSpaceOnUse" x="30" y="30" width="56" height="56">
<path d="M30.5 58C30.5 73.1781 42.8224 85.4995 58 85.4995C73.1776 85.4995 85.4995 73.1781 85.4995 58C85.4995 42.8224 73.1776 30.5 58 30.5C42.8224 30.5 30.5 42.8224 30.5 58Z" fill="white"/>
</mask>
<g mask="url(#mask4)">
<path fill-rule="evenodd" clip-rule="evenodd" d="M47.3225 49.627C48.5005 49.627 49.4569 50.5798 49.4569 51.7533C49.4569 52.9267 48.5005 53.8796 47.3225 53.8796C46.1445 53.8796 45.1875 52.9267 45.1875 51.7533C45.1875 50.5798 46.1445 49.627 47.3225 49.627Z" fill="#BDB9E5"/>
</g>
<mask id="mask5" mask-type="alpha" maskUnits="userSpaceOnUse" x="30" y="30" width="56" height="56">
<path d="M30.5 58C30.5 73.1781 42.8224 85.4995 58 85.4995C73.1776 85.4995 85.4995 73.1781 85.4995 58C85.4995 42.8224 73.1776 30.5 58 30.5C42.8224 30.5 30.5 42.8224 30.5 58Z" fill="white"/>
</mask>
<g mask="url(#mask5)">
<path fill-rule="evenodd" clip-rule="evenodd" d="M47.3231 50.249C48.1563 50.249 48.8331 50.9233 48.8331 51.7535C48.8331 52.5836 48.1563 53.258 47.3231 53.258C46.4894 53.258 45.8125 52.5836 45.8125 51.7535C45.8125 50.9233 46.4894 50.249 47.3231 50.249Z" fill="#5A4BE2"/>
</g>
<mask id="mask6" mask-type="alpha" maskUnits="userSpaceOnUse" x="45" y="50" width="4" height="4">
<path d="M45.8164 51.7545C45.8164 52.5846 46.4933 53.2589 47.327 53.2589C48.1602 53.2589 48.8376 52.5846 48.8376 51.7545C48.8376 50.9243 48.1602 50.25 47.327 50.25C46.4933 50.25 45.8164 50.9243 45.8164 51.7545Z" fill="white"/>
</mask>
<g mask="url(#mask6)">
<path fill-rule="evenodd" clip-rule="evenodd" d="M46.7371 49.6621C47.5703 49.6621 48.2472 50.3359 48.2472 51.1666C48.2472 51.9967 47.5703 52.6705 46.7371 52.6705C45.9034 52.6705 45.2266 51.9967 45.2266 51.1666C45.2266 50.3359 45.9034 49.6621 46.7371 49.6621Z" fill="#7364E2"/>
</g>
<mask id="mask7" mask-type="alpha" maskUnits="userSpaceOnUse" x="30" y="30" width="56" height="56">
<path d="M30.5 58C30.5 73.1781 42.8224 85.4995 58 85.4995C73.1776 85.4995 85.4995 73.1781 85.4995 58C85.4995 42.8224 73.1776 30.5 58 30.5C42.8224 30.5 30.5 42.8224 30.5 58Z" fill="white"/>
</mask>
<g mask="url(#mask7)">
<path fill-rule="evenodd" clip-rule="evenodd" d="M46.5429 50.8213C46.7066 50.8213 46.8397 50.9532 46.8397 51.1162C46.8397 51.2791 46.7066 51.4111 46.5429 51.4111C46.3792 51.4111 46.2461 51.2791 46.2461 51.1162C46.2461 50.9532 46.3792 50.8213 46.5429 50.8213Z" fill="white"/>
</g>
<mask id="mask8" mask-type="alpha" maskUnits="userSpaceOnUse" x="30" y="30" width="56" height="56">
<path d="M30.5 58C30.5 73.1781 42.8224 85.4995 58 85.4995C73.1776 85.4995 85.4995 73.1781 85.4995 58C85.4995 42.8224 73.1776 30.5 58 30.5C42.8224 30.5 30.5 42.8224 30.5 58Z" fill="white"/>
</mask>
<g mask="url(#mask8)">
<path d="M45.0352 45.9956C45.9514 44.703 48.5783 44.4259 49.9397 46.1896" stroke="#A5A5E7" stroke-width="0.510907" stroke-linecap="round" stroke-linejoin="round"/>
</g>
<mask id="mask9" mask-type="alpha" maskUnits="userSpaceOnUse" x="30" y="30" width="56" height="56">
<path d="M30.5 58C30.5 73.1781 42.8224 85.4995 58 85.4995C73.1776 85.4995 85.4995 73.1781 85.4995 58C85.4995 42.8224 73.1776 30.5 58 30.5C42.8224 30.5 30.5 42.8224 30.5 58Z" fill="white"/>
</mask>
<g mask="url(#mask9)">
<path d="M69.1065 47.0221C67.6458 46.2128 65.0993 46.8301 64.6562 49.0929" stroke="#A5A5E7" stroke-width="0.510907" stroke-linecap="round" stroke-linejoin="round"/>
</g>
<mask id="mask10" mask-type="alpha" maskUnits="userSpaceOnUse" x="30" y="30" width="56" height="56">
<path d="M30.5 58C30.5 73.1781 42.8224 85.4995 58 85.4995C73.1776 85.4995 85.4995 73.1781 85.4995 58C85.4995 42.8224 73.1776 30.5 58 30.5C42.8224 30.5 30.5 42.8224 30.5 58Z" fill="white"/>
</mask>
<g mask="url(#mask10)">
<path fill-rule="evenodd" clip-rule="evenodd" d="M65.3995 63.6314C64.9809 64.8822 63.7071 65.6589 62.3896 66.8267C61.0664 67.9991 58.7109 68.02 58.7109 68.02H65.3114C65.9317 68.02 66.5271 67.7735 66.9656 67.3345C67.4046 66.896 67.6511 66.3011 67.6511 65.6798C67.6511 65.06 67.4046 64.4646 66.9656 64.0256C66.5877 63.6477 66.0937 63.4119 65.5671 63.3548C65.4826 63.3451 65.4265 63.5499 65.3995 63.6314Z" fill="#A0A0E8"/>
</g>
<mask id="mask11" mask-type="alpha" maskUnits="userSpaceOnUse" x="58" y="63" width="10" height="6">
<path d="M65.399 63.6306C64.9804 64.8819 63.7066 65.6586 62.3891 66.8259C61.0664 67.9988 58.7109 68.0192 58.7109 68.0192H65.3109C65.9312 68.0192 66.5266 67.7727 66.9656 67.3342C67.4041 66.8952 67.6506 66.3003 67.6506 65.6795C67.6506 65.0592 67.4041 64.4638 66.9656 64.0248C66.5872 63.6469 66.0932 63.4111 65.5666 63.354C65.5645 63.3535 65.5625 63.3535 65.561 63.3535C65.4795 63.3535 65.425 63.5511 65.399 63.6306Z" fill="white"/>
</mask>
<g mask="url(#mask11)">
<path fill-rule="evenodd" clip-rule="evenodd" d="M64.7623 62.9954C64.3437 64.2462 63.0699 65.0229 61.7524 66.1907C60.4297 67.3631 58.0742 67.3845 58.0742 67.3845H64.6742C65.2945 67.3845 65.8899 67.138 66.3289 66.6985C66.7679 66.26 67.0139 65.6651 67.0139 65.0438C67.0139 64.4239 66.7679 63.8286 66.3289 63.3896C65.9505 63.0117 65.4565 62.7764 64.9299 62.7188C64.8453 62.7091 64.7893 62.9139 64.7623 62.9954Z" fill="#ACACEB"/>
</g>
<mask id="mask12" mask-type="alpha" maskUnits="userSpaceOnUse" x="30" y="30" width="56" height="56">
<path d="M30.5 58C30.5 73.1781 42.8224 85.4995 58 85.4995C73.1776 85.4995 85.4995 73.1781 85.4995 58C85.4995 42.8224 73.1776 30.5 58 30.5C42.8224 30.5 30.5 42.8224 30.5 58Z" fill="white"/>
</mask>
<g mask="url(#mask12)">
<path d="M70.4825 52.8403C70.4825 51.7896 69.5576 50.9365 68.4168 50.9365C67.277 50.9365 66.3516 51.7896 66.3516 52.8403" stroke="#ACACEB" stroke-width="1.53272" stroke-linecap="round" stroke-linejoin="round"/>
</g>
<mask id="mask13" mask-type="alpha" maskUnits="userSpaceOnUse" x="30" y="30" width="56" height="56">
<path d="M30.5 58C30.5 73.1781 42.8224 85.4995 58 85.4995C73.1776 85.4995 85.4995 73.1781 85.4995 58C85.4995 42.8224 73.1776 30.5 58 30.5C42.8224 30.5 30.5 42.8224 30.5 58Z" fill="white"/>
</mask>
<g mask="url(#mask13)">
<path d="M70.4825 52.8403C70.4825 51.7896 69.5576 50.9365 68.4168 50.9365C67.277 50.9365 66.3516 51.7896 66.3516 52.8403" stroke="#6969DB" stroke-width="0.510907" stroke-linecap="round" stroke-linejoin="round"/>
</g>
<mask id="mask14" mask-type="alpha" maskUnits="userSpaceOnUse" x="30" y="30" width="56" height="56">
<path d="M30.5 58C30.5 73.1781 42.8224 85.4995 58 85.4995C73.1776 85.4995 85.4995 73.1781 85.4995 58C85.4995 42.8224 73.1776 30.5 58 30.5C42.8224 30.5 30.5 42.8224 30.5 58Z" fill="white"/>
</mask>
<g mask="url(#mask14)">
<path fill-rule="evenodd" clip-rule="evenodd" d="M69.8867 50.8213C70.0504 50.8213 70.183 50.9532 70.183 51.1162C70.183 51.2791 70.0504 51.4111 69.8867 51.4111C69.7235 51.4111 69.5898 51.2791 69.5898 51.1162C69.5898 50.9532 69.7235 50.8213 69.8867 50.8213Z" fill="white"/>
</g>
<mask id="mask15" mask-type="alpha" maskUnits="userSpaceOnUse" x="30" y="30" width="56" height="56">
<path d="M30.5 58C30.5 73.1781 42.8224 85.4995 58 85.4995C73.1776 85.4995 85.4995 73.1781 85.4995 58C85.4995 42.8224 73.1776 30.5 58 30.5C42.8224 30.5 30.5 42.8224 30.5 58Z" fill="white"/>
</mask>
<g mask="url(#mask15)">
<path d="M65.6395 63.208C64.4844 66.0372 61.5203 68.0524 58.05 68.0524C54.5806 68.0524 51.6176 66.0397 50.4609 63.2131" stroke="#6969DB" stroke-width="0.510907" stroke-linecap="round" stroke-linejoin="round"/>
</g>
<path fill-rule="evenodd" clip-rule="evenodd" d="M58.0023 21.334C37.7659 21.334 21.3359 37.7639 21.3359 58.0008C21.3359 78.2377 37.7659 94.6677 58.0023 94.6677C78.2392 94.6677 94.6691 78.2377 94.6691 58.0008C94.6691 37.7639 78.2392 21.334 58.0023 21.334Z" stroke="#F9F9FD" stroke-width="1.02181" stroke-linecap="round" stroke-linejoin="round"/>
<path fill-rule="evenodd" clip-rule="evenodd" d="M58.0011 12.167C32.7054 12.167 12.168 32.7039 12.168 58.0002C12.168 83.2964 32.7054 103.833 58.0011 103.833C83.2974 103.833 103.834 83.2964 103.834 58.0002C103.834 32.7039 83.2974 12.167 58.0011 12.167Z" stroke="#F7F7FC" stroke-width="1.02181" stroke-linecap="round" stroke-linejoin="round"/>
<path fill-rule="evenodd" clip-rule="evenodd" d="M58 3C27.6449 3 3 27.6449 3 58C3 88.3551 27.6449 113 58 113C88.3561 113 113 88.3551 113 58C113 27.6449 88.3561 3 58 3Z" stroke="#EFEFFA" stroke-width="1.02181" stroke-linecap="round" stroke-linejoin="round"/>
<path fill-rule="evenodd" clip-rule="evenodd" d="M26.4664 98.107C29.1315 99.4347 30.2168 102.677 28.8886 105.343C27.5603 108.007 24.3187 109.093 21.6535 107.765C18.9879 106.437 17.9031 103.194 19.2308 100.529C20.559 97.8641 23.8012 96.7788 26.4664 98.107Z" stroke="#EFEFF9" stroke-width="1.02181" stroke-linecap="round" stroke-linejoin="round"/>
<path fill-rule="evenodd" clip-rule="evenodd" d="M37.2416 102.23C37.8232 102.52 38.06 103.227 37.7702 103.809C37.4804 104.391 36.773 104.627 36.1909 104.338C35.6098 104.048 35.373 103.34 35.6628 102.759C35.9526 102.177 36.66 101.94 37.2416 102.23Z" fill="#F7F7FC"/>
<path fill-rule="evenodd" clip-rule="evenodd" d="M92.9024 27.3389C93.2493 27.3389 93.5314 27.6205 93.5314 27.9673C93.5314 28.3147 93.2493 28.5963 92.9024 28.5963C92.5551 28.5963 92.2734 28.3147 92.2734 27.9673C92.2734 27.6205 92.5551 27.3389 92.9024 27.3389Z" fill="#DFDFF4"/>
<path d="M87.6055 17.9492V26.7244" stroke="#DFDFF4" stroke-width="1.02181" stroke-linecap="round" stroke-linejoin="round"/>
<path d="M91.9468 22.3369H83.2617" stroke="#DFDFF4" stroke-width="1.02181" stroke-linecap="round" stroke-linejoin="round"/>
<path fill-rule="evenodd" clip-rule="evenodd" d="M22.8692 19.4102C23.3535 19.4102 23.7462 19.8033 23.7462 20.2872C23.7462 20.771 23.3535 21.1642 22.8692 21.1642C22.3854 21.1642 21.9922 20.771 21.9922 20.2872C21.9922 19.8033 22.3854 19.4102 22.8692 19.4102Z" fill="#DFDFF4"/>
<path fill-rule="evenodd" clip-rule="evenodd" d="M11.6172 19.8555V32.9047L22.344 26.265L11.6172 19.8555Z" stroke="#DFDFF4" stroke-width="1.02181" stroke-linecap="round" stroke-linejoin="round"/>
<path fill-rule="evenodd" clip-rule="evenodd" d="M81.0355 63.0403C81.1913 63.1742 81.2662 63.38 81.2326 63.5827C81.1984 63.7889 81.1521 64.0757 81.0991 64.397C80.8338 66.011 81.4785 67.6397 82.7762 68.6354C85.6008 70.8024 90.2629 74.3792 90.2629 74.3792L82.487 74.1898C82.487 74.1898 80.3693 71.4706 78.5791 69.1712C77.1908 67.3876 77.3818 64.8416 79.0212 63.2852C79.0935 63.2165 79.1648 63.1492 79.233 63.084C79.7332 62.6094 80.5119 62.59 81.0349 63.0397L81.0355 63.0403Z" fill="#C9C9F2"/>
<mask id="mask16" mask-type="alpha" maskUnits="userSpaceOnUse" x="77" y="62" width="14" height="13">
<path d="M79.2336 63.0841C79.1648 63.1493 79.094 63.2165 79.0212 63.2858C77.3818 64.8417 77.1908 67.3876 78.5791 69.1712C80.3698 71.4707 82.4869 74.1898 82.4869 74.1898L90.2629 74.3793C90.2629 74.3793 85.6008 70.8025 82.7767 68.6359C81.4791 67.6397 80.8338 66.011 81.0991 64.3971C81.1521 64.0757 81.1989 63.789 81.2326 63.5832C81.2662 63.38 81.1913 63.1742 81.0355 63.0403V63.0398C80.7823 62.8228 80.4701 62.7148 80.1584 62.7148C79.8249 62.7148 79.4918 62.8386 79.2336 63.0841Z" fill="white"/>
</mask>
<g mask="url(#mask16)">
<path fill-rule="evenodd" clip-rule="evenodd" d="M77.4159 64.8361C77.7876 64.8102 78.135 65.0225 78.2817 65.3653C78.5282 65.9403 78.9122 66.8377 79.2086 67.5273C79.4862 68.1771 79.9155 68.7511 80.4609 69.2008C82.7095 71.0577 88.7538 76.0508 88.7538 76.0508L81.4495 75.6877C81.4495 75.6877 78.8546 72.4323 77.1281 70.2647C76.1874 69.0862 75.9109 67.5104 76.3932 66.0808C76.4696 65.8562 76.5409 65.6449 76.602 65.4631C76.7212 65.1086 77.0431 64.8616 77.4154 64.8361H77.4159Z" fill="#B2B2EB"/>
</g>
<path fill-rule="evenodd" clip-rule="evenodd" d="M71.7956 71.5981C71.6001 72.5113 72.1822 73.4107 73.0959 73.6058C74.9054 73.9934 77.7916 74.6117 79.6016 74.9992C80.5153 75.1948 81.4147 74.6132 81.6103 73.6995C81.8054 72.7858 81.2237 71.8869 80.3106 71.6919C78.4995 71.3038 75.6138 70.686 73.8033 70.2979C72.8901 70.1023 71.9917 70.6845 71.7956 71.5976V71.5981Z" fill="#A5A5E7"/>
<path fill-rule="evenodd" clip-rule="evenodd" d="M71.6652 72.221C71.4742 71.3139 72.0554 70.4242 72.9614 70.2332C74.9874 69.8064 78.4119 69.0852 80.4384 68.6584C81.3449 68.4674 82.2352 69.048 82.4262 69.9551C82.6172 70.8621 82.0366 71.7519 81.1295 71.9429C79.1035 72.3697 75.6795 73.0908 73.653 73.5176C72.7465 73.7086 71.8562 73.128 71.6652 72.221Z" fill="#CBCBF3"/>
<mask id="mask17" mask-type="alpha" maskUnits="userSpaceOnUse" x="71" y="68" width="12" height="6">
<path d="M80.4382 68.6587C78.4117 69.0855 74.9877 69.8062 72.9618 70.233C72.0552 70.424 71.4746 71.3137 71.6651 72.2208C71.8566 73.1283 72.7463 73.7084 73.6534 73.5179C75.6794 73.0912 79.1039 72.3695 81.1293 71.9427C82.0369 71.7522 82.6175 70.8625 82.4265 69.9549C82.26 69.1645 81.5628 68.6221 80.7861 68.6221C80.6715 68.6221 80.5549 68.6338 80.4382 68.6587Z" fill="white"/>
</mask>
<g mask="url(#mask17)">
<path fill-rule="evenodd" clip-rule="evenodd" d="M72.1446 74.0602C72.2139 74.3851 72.409 74.6688 72.687 74.8501C72.9651 75.0304 73.3043 75.0931 73.6292 75.0243C75.4016 74.6469 78.6626 73.9527 80.4335 73.5754C81.1093 73.4317 81.5396 72.7681 81.397 72.0928V72.0923C81.3273 71.7679 81.1322 71.4837 80.8546 71.3029C80.5761 71.1221 80.2374 71.0594 79.913 71.1287C78.1396 71.5061 74.8786 72.2008 73.1072 72.5776C72.4319 72.7213 72.0015 73.3849 72.1446 74.0602Z" fill="#B2B2EB"/>
</g>
<path fill-rule="evenodd" clip-rule="evenodd" d="M71.7958 75.3665C71.5997 76.2797 72.1819 77.1791 73.095 77.3742C74.9051 77.7617 77.7907 78.38 79.6013 78.7676C80.5145 78.9632 81.4139 78.3815 81.6095 77.4679C81.8045 76.5542 81.2234 75.6553 80.3102 75.4602C78.4992 75.0721 75.6135 74.4544 73.803 74.0663C72.8898 73.8707 71.9914 74.4528 71.7958 75.366V75.3665Z" fill="#A5A5E7"/>
<path fill-rule="evenodd" clip-rule="evenodd" d="M71.6691 75.9885C71.4782 75.0815 72.0593 74.1917 72.9663 74.0007C74.9918 73.574 78.4163 72.8528 80.4428 72.426C81.3499 72.235 82.2396 72.8156 82.4306 73.7227C82.6216 74.6297 82.041 75.5195 81.1339 75.7105C79.1079 76.1372 75.6839 76.8584 73.6574 77.2852C72.7504 77.4762 71.8606 76.8956 71.6691 75.9885Z" fill="#CBCBF3"/>
<mask id="mask18" mask-type="alpha" maskUnits="userSpaceOnUse" x="71" y="72" width="12" height="6">
<path d="M80.4425 72.4253C78.4165 72.8521 74.992 73.5728 72.9665 73.9996C72.0589 74.1911 71.4778 75.0803 71.6693 75.9879C71.8608 76.8949 72.7505 77.4755 73.6576 77.2845C75.6841 76.8578 79.1081 76.1366 81.1341 75.7098C82.0411 75.5188 82.6212 74.6291 82.4308 73.722C82.2642 72.9316 81.567 72.3887 80.7903 72.3887C80.6757 72.3887 80.5591 72.4004 80.4425 72.4253Z" fill="white"/>
</mask>
<g mask="url(#mask18)">
<path fill-rule="evenodd" clip-rule="evenodd" d="M72.1448 77.8286C72.2136 78.1535 72.4086 78.4372 72.6867 78.6185C72.9658 78.7988 73.3045 78.8619 73.6294 78.7932C75.4018 78.4153 78.6628 77.7211 80.4331 77.3442C81.109 77.2006 81.5403 76.5365 81.3967 75.8612V75.8607C81.328 75.5362 81.1324 75.252 80.8543 75.0712C80.5762 74.8904 80.237 74.8278 79.9126 74.8971C78.1398 75.2745 74.8782 75.9691 73.1074 76.346C72.4316 76.4896 72.0012 77.1538 72.1448 77.8286Z" fill="#B2B2EB"/>
</g>
<path fill-rule="evenodd" clip-rule="evenodd" d="M73.1668 78.8195C72.9712 79.7326 73.5528 80.6315 74.466 80.8271C76.276 81.2147 79.1617 81.833 80.9728 82.2205C81.8859 82.4161 82.7848 81.8345 82.9804 80.9208H82.9809C83.1765 80.0071 82.5944 79.1082 81.6812 78.9132C79.8706 78.5251 76.985 77.9073 75.1744 77.5192C74.2607 77.3237 73.3623 77.9058 73.1668 78.819V78.8195Z" fill="#A5A5E7"/>
<path fill-rule="evenodd" clip-rule="evenodd" d="M73.0915 79.4623C73.285 80.3765 74.1824 80.9606 75.0966 80.7676C76.9759 80.3704 80.0261 79.7266 81.9064 79.3288C82.8201 79.1358 83.4037 78.2389 83.2107 77.3253V77.3248C83.0177 76.4106 82.1208 75.8259 81.2072 76.0194C79.3268 76.4167 76.2766 77.0609 74.3968 77.4577C73.4837 77.6507 72.8985 78.5481 73.0915 79.4623Z" fill="#B2B2EB"/>
<mask id="mask19" mask-type="alpha" maskUnits="userSpaceOnUse" x="73" y="75" width="11" height="6">
<path d="M81.2067 76.0196C79.3263 76.4163 76.2767 77.0611 74.3969 77.4579C73.4832 77.6509 72.8985 78.5478 73.0915 79.4624C73.2851 80.3761 74.1819 80.9608 75.0961 80.7678C76.9754 80.3705 80.0261 79.7263 81.9064 79.329C82.8196 79.136 83.4038 78.2386 83.2107 77.3249V77.3244C83.0427 76.5284 82.3404 75.9824 81.5586 75.9824C81.4425 75.9824 81.3248 75.9946 81.2067 76.0196Z" fill="white"/>
</mask>
<g mask="url(#mask19)">
<path fill-rule="evenodd" clip-rule="evenodd" d="M71.7282 78.9302C71.9213 79.8439 72.8192 80.4281 73.7328 80.2356C76.5172 79.6468 82.1077 78.4663 84.8931 77.878C85.8067 77.685 86.3904 76.7876 86.1974 75.8734C86.0043 74.9593 85.1075 74.3751 84.1938 74.5681C81.4085 75.1563 75.8179 76.3374 73.0336 76.9256C72.1199 77.1187 71.5352 78.0161 71.7282 78.9297V78.9302Z" fill="#CBCBF3"/>
</g>
<path fill-rule="evenodd" clip-rule="evenodd" d="M74.7917 82.2656C74.5962 83.1788 75.1783 84.0782 76.092 84.2732C77.902 84.6608 80.7877 85.2791 82.5977 85.6667C83.5114 85.8623 84.4108 85.2806 84.6064 84.367C84.8015 83.4533 84.2203 82.5544 83.3067 82.3593C81.4956 81.9712 78.6099 81.3534 76.7999 80.9654C75.8862 80.7698 74.9878 81.3519 74.7917 82.2651V82.2656Z" fill="#A5A5E7"/>
<path fill-rule="evenodd" clip-rule="evenodd" d="M74.7543 82.9175C74.9442 83.8322 75.8391 84.4199 76.7538 84.23C78.6351 83.8404 81.6868 83.2073 83.5692 82.8177C84.4834 82.6282 85.0711 81.7329 84.8816 80.8182V80.8177C84.6922 79.9035 83.7968 79.3158 82.8821 79.5052C81.0008 79.8948 77.9481 80.5279 76.0672 80.918C75.152 81.1075 74.5648 82.0028 74.7543 82.917V82.9175Z" fill="#B2B2EB"/>
<mask id="mask20" mask-type="alpha" maskUnits="userSpaceOnUse" x="74" y="79" width="11" height="6">
<path d="M82.8827 79.5054C81.0008 79.8955 77.9486 80.528 76.0672 80.9187C75.152 81.1081 74.5648 82.003 74.7543 82.9172V82.9182C74.9442 83.8324 75.8391 84.4206 76.7538 84.2301C78.6351 83.8405 81.6873 83.208 83.5692 82.8178C84.4829 82.6284 85.0711 81.733 84.8816 80.8183V80.8178C84.7161 80.0198 84.0123 79.4697 83.2274 79.4697C83.1139 79.4697 82.9983 79.4814 82.8827 79.5054Z" fill="white"/>
</mask>
<g mask="url(#mask20)">
<path fill-rule="evenodd" clip-rule="evenodd" d="M73.3951 82.3801C73.5845 83.2948 74.4799 83.8825 75.3941 83.6925C77.9584 83.1613 82.8604 82.1453 85.4242 81.6136C86.3388 81.4241 86.9261 80.5288 86.7366 79.6141V79.6136C86.5466 78.6994 85.6518 78.1117 84.7376 78.3011C82.1733 78.8328 77.2713 79.8489 74.7075 80.3806C73.7923 80.57 73.2051 81.4654 73.3951 82.3801Z" fill="#CBCBF3"/>
</g>
<path fill-rule="evenodd" clip-rule="evenodd" d="M91.5357 84.5478C93.4297 84.7067 95.1894 83.5603 95.8092 81.764C96.4285 79.9682 95.7501 77.9804 94.1621 76.9379C89.5886 73.9351 84.9107 70.8645 81.9711 68.9343C81.446 68.59 80.7676 68.5895 80.243 68.9333C79.7189 69.2766 79.448 69.8984 79.5539 70.5167C80.1839 74.1918 81.1251 79.6856 81.5066 81.9117C81.6084 82.5045 82.0739 82.968 82.6673 83.0678C85.1669 83.4849 91.5351 84.5478 91.5351 84.5478H91.5357Z" fill="#CBCBF3"/>
</svg>
