<svg width="116" height="116" viewBox="0 0 116 116" fill="none" xmlns="http://www.w3.org/2000/svg">
<path fill-rule="evenodd" clip-rule="evenodd" d="M58.2647 29.4756C42.4797 29.4756 29.6641 42.2912 29.6641 58.0762C29.6641 73.8612 42.4797 86.6768 58.2647 86.6768C74.0497 86.6768 86.8653 73.8612 86.8653 58.0762C86.8653 42.2912 74.0497 29.4756 58.2647 29.4756Z" fill="#DCDCF5"/>
<mask id="mask0" mask-type="alpha" maskUnits="userSpaceOnUse" x="29" y="29" width="58" height="58">
<path d="M29.6641 58.0762C29.6641 73.8617 42.4797 86.6763 58.2647 86.6763C74.0492 86.6763 86.8653 73.8617 86.8653 58.0762C86.8653 42.2912 74.0492 29.4756 58.2647 29.4756C42.4797 29.4756 29.6641 42.2912 29.6641 58.0762Z" fill="white"/>
</mask>
<g mask="url(#mask0)">
<path fill-rule="evenodd" clip-rule="evenodd" d="M62.4795 25.2627C46.6945 25.2627 33.8789 38.0778 33.8789 53.8633C33.8789 69.6483 46.6945 82.4639 62.4795 82.4639C78.2645 82.4639 91.0802 69.6483 91.0802 53.8633C91.0802 38.0778 78.2645 25.2627 62.4795 25.2627Z" fill="#E8E8F9"/>
</g>
<mask id="mask1" mask-type="alpha" maskUnits="userSpaceOnUse" x="29" y="29" width="58" height="58">
<path d="M29.6641 58.0762C29.6641 73.8617 42.4797 86.6763 58.2647 86.6763C74.0492 86.6763 86.8653 73.8617 86.8653 58.0762C86.8653 42.2912 74.0492 29.4756 58.2647 29.4756C42.4797 29.4756 29.6641 42.2912 29.6641 58.0762Z" fill="white"/>
</mask>
<g mask="url(#mask1)">
<path fill-rule="evenodd" clip-rule="evenodd" d="M65.2349 31.2008C63.6289 33.4186 66.2439 38.0575 71.0725 41.5539C75.9005 45.0504 81.1237 46.0885 82.7297 43.8708C84.3362 41.653 81.7206 37.0141 76.8926 33.5176C72.0646 30.0212 66.8408 28.983 65.2349 31.2008Z" fill="#F2F2FC"/>
</g>
<mask id="mask2" mask-type="alpha" maskUnits="userSpaceOnUse" x="29" y="29" width="58" height="58">
<path d="M29.6641 58.0762C29.6641 73.8617 42.4797 86.6763 58.2647 86.6763C74.0492 86.6763 86.8653 73.8617 86.8653 58.0762C86.8653 42.2912 74.0492 29.4756 58.2647 29.4756C42.4797 29.4756 29.6641 42.2912 29.6641 58.0762Z" fill="white"/>
</mask>
<g mask="url(#mask2)">
<path fill-rule="evenodd" clip-rule="evenodd" d="M76.54 59.3367C74.1336 59.5454 72.2734 60.787 72.3878 62.108C72.5028 63.4296 74.5489 64.3327 76.9553 64.1235C79.3611 63.9153 81.2213 62.6732 81.1069 61.3522C80.9925 60.0312 78.9458 59.1275 76.54 59.3367Z" fill="#DCDCF5"/>
</g>
<mask id="mask3" mask-type="alpha" maskUnits="userSpaceOnUse" x="29" y="29" width="58" height="58">
<path d="M29.6641 58.0762C29.6641 73.8617 42.4797 86.6763 58.2647 86.6763C74.0492 86.6763 86.8653 73.8617 86.8653 58.0762C86.8653 42.2912 74.0492 29.4756 58.2647 29.4756C42.4797 29.4756 29.6641 42.2912 29.6641 58.0762Z" fill="white"/>
</mask>
<g mask="url(#mask3)">
<path fill-rule="evenodd" clip-rule="evenodd" d="M42.4064 52.6945C40.2553 51.5965 38.0196 51.6638 37.4168 52.845C36.8135 54.0261 38.0704 55.8763 40.2214 56.9743C42.373 58.0724 44.6088 58.0051 45.2116 56.8239C45.8143 55.6427 44.5574 53.7926 42.4064 52.6945Z" fill="#DCDCF5"/>
</g>
<mask id="mask4" mask-type="alpha" maskUnits="userSpaceOnUse" x="29" y="29" width="58" height="58">
<path d="M29.6641 58.0762C29.6641 73.8617 42.4797 86.6763 58.2647 86.6763C74.0492 86.6763 86.8653 73.8617 86.8653 58.0762C86.8653 42.2912 74.0492 29.4756 58.2647 29.4756C42.4797 29.4756 29.6641 42.2912 29.6641 58.0762Z" fill="white"/>
</mask>
<g mask="url(#mask4)">
<path fill-rule="evenodd" clip-rule="evenodd" d="M49.6947 48.0543C50.8976 48.2889 51.6842 49.4521 51.4506 50.6503C51.217 51.8479 50.0506 52.6302 48.8477 52.3956C47.6448 52.1604 46.8583 50.9977 47.0919 49.7996C47.326 48.6015 48.4923 47.8196 49.6947 48.0543Z" fill="#BDB9E5"/>
</g>
<mask id="mask5" mask-type="alpha" maskUnits="userSpaceOnUse" x="29" y="29" width="58" height="58">
<path d="M29.6641 58.0762C29.6641 73.8617 42.4797 86.6763 58.2647 86.6763C74.0492 86.6763 86.8653 73.8617 86.8653 58.0762C86.8653 42.2912 74.0492 29.4756 58.2647 29.4756C42.4797 29.4756 29.6641 42.2912 29.6641 58.0762Z" fill="white"/>
</mask>
<g mask="url(#mask5)">
<path fill-rule="evenodd" clip-rule="evenodd" d="M71.3902 52.2877C72.5925 52.5223 73.3791 53.6855 73.145 54.8837C72.9119 56.0813 71.7456 56.8636 70.5421 56.629C69.3403 56.3938 68.5532 55.2311 68.7873 54.033C69.0204 52.8349 70.1873 52.053 71.3902 52.2877Z" fill="#BDB9E5"/>
</g>
<mask id="mask6" mask-type="alpha" maskUnits="userSpaceOnUse" x="29" y="29" width="58" height="58">
<path d="M29.6641 58.0762C29.6641 73.8617 42.4797 86.6763 58.2647 86.6763C74.0492 86.6763 86.8653 73.8617 86.8653 58.0762C86.8653 42.2912 74.0492 29.4756 58.2647 29.4756C42.4797 29.4756 29.6641 42.2912 29.6641 58.0762Z" fill="white"/>
</mask>
<g mask="url(#mask6)">
<path fill-rule="evenodd" clip-rule="evenodd" d="M49.5733 48.6887C50.4245 48.8545 50.9812 49.6776 50.8154 50.5251C50.6502 51.3726 49.8249 51.9256 48.9743 51.7598C48.1236 51.5935 47.5669 50.7709 47.7322 49.9234C47.8974 49.0759 48.7227 48.5224 49.5733 48.6887Z" fill="#5A4BE2"/>
</g>
<mask id="mask7" mask-type="alpha" maskUnits="userSpaceOnUse" x="47" y="48" width="4" height="4">
<path d="M47.732 49.9235C47.5673 50.771 48.124 51.5941 48.9746 51.7599C49.8253 51.9257 50.6505 51.3727 50.8163 50.5252C50.9816 49.6783 50.4249 48.8546 49.5737 48.6888C49.472 48.6687 49.3703 48.6592 49.2702 48.6592C48.5345 48.6592 47.8777 49.1777 47.732 49.9235Z" fill="white"/>
</mask>
<g mask="url(#mask7)">
<path fill-rule="evenodd" clip-rule="evenodd" d="M49.0895 47.9719C49.9402 48.1377 50.4969 48.9608 50.3316 49.8083C50.1658 50.6558 49.3411 51.2088 48.4899 51.043C47.6392 50.8767 47.0825 50.0541 47.2478 49.2066C47.4136 48.3591 48.2383 47.8056 49.0895 47.9719Z" fill="#7364E2"/>
</g>
<mask id="mask8" mask-type="alpha" maskUnits="userSpaceOnUse" x="29" y="29" width="58" height="58">
<path d="M29.6641 58.0762C29.6641 73.8617 42.4797 86.6763 58.2647 86.6763C74.0492 86.6763 86.8653 73.8617 86.8653 58.0762C86.8653 42.2912 74.0492 29.4756 58.2647 29.4756C42.4797 29.4756 29.6641 42.2912 29.6641 58.0762Z" fill="white"/>
</mask>
<g mask="url(#mask8)">
<path fill-rule="evenodd" clip-rule="evenodd" d="M71.2807 52.9259C72.1314 53.0916 72.6881 53.9148 72.5228 54.7623C72.3576 55.6097 71.5323 56.1627 70.6817 55.9969C69.831 55.8306 69.2743 55.008 69.439 54.1605C69.6048 53.313 70.4301 52.7601 71.2807 52.9259Z" fill="#5A4BE2"/>
</g>
<mask id="mask9" mask-type="alpha" maskUnits="userSpaceOnUse" x="69" y="52" width="4" height="5">
<path d="M69.439 54.1603C69.2743 55.0083 69.831 55.8304 70.6822 55.9967C71.5318 56.162 72.3576 55.609 72.5228 54.762C72.6886 53.9145 72.1319 53.0914 71.2807 52.9256C71.179 52.906 71.0779 52.8965 70.9778 52.8965C70.242 52.8965 69.5847 53.4145 69.439 54.1603Z" fill="white"/>
</mask>
<g mask="url(#mask9)">
<path fill-rule="evenodd" clip-rule="evenodd" d="M70.7969 52.2081C71.647 52.3744 72.2043 53.197 72.039 54.0445C71.8732 54.892 71.0485 55.445 70.1973 55.2792C69.3466 55.1134 68.7899 54.2903 68.9547 53.4428C69.121 52.5953 69.9457 52.0423 70.7969 52.2081Z" fill="#7364E2"/>
</g>
<mask id="mask10" mask-type="alpha" maskUnits="userSpaceOnUse" x="29" y="29" width="58" height="58">
<path d="M29.6641 58.0762C29.6641 73.8617 42.4797 86.6763 58.2647 86.6763C74.0492 86.6763 86.8653 73.8617 86.8653 58.0762C86.8653 42.2912 74.0492 29.4756 58.2647 29.4756C42.4797 29.4756 29.6641 42.2912 29.6641 58.0762Z" fill="white"/>
</mask>
<g mask="url(#mask10)">
<path fill-rule="evenodd" clip-rule="evenodd" d="M70.4724 53.375C70.6392 53.4073 70.7483 53.5689 70.716 53.7352C70.6832 53.901 70.5216 54.0096 70.3548 53.9772C70.1879 53.9444 70.0788 53.7834 70.1111 53.6171C70.1434 53.4507 70.3061 53.3422 70.4724 53.375Z" fill="white"/>
</g>
<mask id="mask11" mask-type="alpha" maskUnits="userSpaceOnUse" x="29" y="29" width="58" height="58">
<path d="M29.6641 58.0762C29.6641 73.8617 42.4797 86.6763 58.2647 86.6763C74.0492 86.6763 86.8653 73.8617 86.8653 58.0762C86.8653 42.2912 74.0492 29.4756 58.2647 29.4756C42.4797 29.4756 29.6641 42.2912 29.6641 58.0762Z" fill="white"/>
</mask>
<g mask="url(#mask11)">
<path fill-rule="evenodd" clip-rule="evenodd" d="M48.6638 49.1182C48.8306 49.1505 48.9397 49.312 48.9074 49.4783C48.8746 49.6447 48.713 49.7532 48.5462 49.7204C48.3793 49.6881 48.2702 49.5265 48.3025 49.3602C48.3349 49.1939 48.4969 49.0853 48.6638 49.1182Z" fill="white"/>
</g>
<mask id="mask12" mask-type="alpha" maskUnits="userSpaceOnUse" x="29" y="29" width="58" height="58">
<path d="M29.6641 58.0762C29.6641 73.8617 42.4797 86.6763 58.2647 86.6763C74.0492 86.6763 86.8653 73.8617 86.8653 58.0762C86.8653 42.2912 74.0492 29.4756 58.2647 29.4756C42.4797 29.4756 29.6641 42.2912 29.6641 58.0762Z" fill="white"/>
</mask>
<g mask="url(#mask12)">
<path d="M76.0853 52.8408C76.5684 51.1723 75.3533 48.7332 72.957 48.8073" stroke="#A5A5E7" stroke-width="0.52968" stroke-linecap="round" stroke-linejoin="round"/>
</g>
<mask id="mask13" mask-type="alpha" maskUnits="userSpaceOnUse" x="29" y="29" width="58" height="58">
<path d="M29.6641 58.0762C29.6641 73.8617 42.4797 86.6763 58.2647 86.6763C74.0492 86.6763 86.8653 73.8617 86.8653 58.0762C86.8653 42.2912 74.0492 29.4756 58.2647 29.4756C42.4797 29.4756 29.6641 42.2912 29.6641 58.0762Z" fill="white"/>
</mask>
<g mask="url(#mask13)">
<path d="M45.6602 46.9037C45.8402 45.1759 47.8832 43.3723 50.0761 44.3427" stroke="#A5A5E7" stroke-width="0.52968" stroke-linecap="round" stroke-linejoin="round"/>
</g>
<mask id="mask14" mask-type="alpha" maskUnits="userSpaceOnUse" x="29" y="29" width="58" height="58">
<path d="M29.6641 58.0762C29.6641 73.8617 42.4797 86.6763 58.2647 86.6763C74.0492 86.6763 86.8653 73.8617 86.8653 58.0762C86.8653 42.2912 74.0492 29.4756 58.2647 29.4756C42.4797 29.4756 29.6641 42.2912 29.6641 58.0762Z" fill="white"/>
</mask>
<g mask="url(#mask14)">
<path fill-rule="evenodd" clip-rule="evenodd" d="M57.831 64.3539C58.5371 64.4921 58.9672 65.3444 58.7898 66.256C58.6118 67.167 57.893 67.7952 57.1864 67.6575C56.4793 67.5193 56.0497 66.6675 56.2277 65.7554C56.4057 64.8444 57.1239 64.2162 57.831 64.3539Z" fill="#5A4BE2"/>
</g>
<path fill-rule="evenodd" clip-rule="evenodd" d="M57.8257 19.9424C36.7789 19.9424 19.6914 37.0299 19.6914 58.0767C19.6914 79.1236 36.7789 96.2111 57.8257 96.2111C78.8721 96.2111 95.9596 79.1236 95.9596 58.0767C95.9596 37.0299 78.8721 19.9424 57.8257 19.9424Z" stroke="#F9F9FD" stroke-width="1.05936" stroke-linecap="round" stroke-linejoin="round"/>
<path fill-rule="evenodd" clip-rule="evenodd" d="M57.8243 10.4082C31.5156 10.4082 10.1562 31.767 10.1562 58.0757C10.1562 84.3844 31.5156 105.743 57.8243 105.743C84.1325 105.743 105.492 84.3844 105.492 58.0757C105.492 31.767 84.1325 10.4082 57.8243 10.4082Z" stroke="#F7F7FC" stroke-width="1.05936" stroke-linecap="round" stroke-linejoin="round"/>
<path fill-rule="evenodd" clip-rule="evenodd" d="M57.8262 0.875C26.2557 0.875 0.625 26.5062 0.625 58.0762C0.625 89.6463 26.2557 115.277 57.8262 115.277C89.3968 115.277 115.027 89.6463 115.027 58.0762C115.027 26.5062 89.3968 0.875 57.8262 0.875Z" stroke="#EFEFFA" stroke-width="1.05936" stroke-linecap="round" stroke-linejoin="round"/>
<path fill-rule="evenodd" clip-rule="evenodd" d="M25.0328 99.7889C27.8046 101.17 28.9334 104.542 27.552 107.314C26.1706 110.085 22.7991 111.215 20.0268 109.833C17.255 108.452 16.1262 105.08 17.5076 102.308C18.889 99.5362 22.261 98.4075 25.0328 99.7889Z" stroke="#EFEFF9" stroke-width="1.05936" stroke-linecap="round" stroke-linejoin="round"/>
<path fill-rule="evenodd" clip-rule="evenodd" d="M36.2358 104.077C36.8407 104.378 37.087 105.114 36.7856 105.719C36.4842 106.324 35.7485 106.57 35.1431 106.269C34.5382 105.967 34.2924 105.232 34.5932 104.627C34.8952 104.022 35.6309 103.775 36.2358 104.077Z" fill="#F7F7FC"/>
<path fill-rule="evenodd" clip-rule="evenodd" d="M94.1263 26.1885C94.4875 26.1885 94.7799 26.4814 94.7799 26.8421C94.7799 27.2033 94.4875 27.4963 94.1263 27.4963C93.765 27.4963 93.4727 27.2033 93.4727 26.8421C93.4727 26.4814 93.765 26.1885 94.1263 26.1885Z" fill="#DFDFF4"/>
<path d="M88.6133 16.4229V25.5492" stroke="#DFDFF4" stroke-width="1.05936" stroke-linecap="round" stroke-linejoin="round"/>
<path d="M93.1298 20.9854H84.0977" stroke="#DFDFF4" stroke-width="1.05936" stroke-linecap="round" stroke-linejoin="round"/>
<path fill-rule="evenodd" clip-rule="evenodd" d="M21.291 17.9424C21.7942 17.9424 22.2031 18.3513 22.2031 18.8545C22.2031 19.3577 21.7942 19.7666 21.291 19.7666C20.7878 19.7666 20.3789 19.3577 20.3789 18.8545C20.3789 18.3513 20.7878 17.9424 21.291 17.9424Z" fill="#DFDFF4"/>
<path fill-rule="evenodd" clip-rule="evenodd" d="M9.58984 18.4062V31.9777L20.746 25.0723L9.58984 18.4062Z" stroke="#DFDFF4" stroke-width="1.05936" stroke-linecap="round" stroke-linejoin="round"/>
<path fill-rule="evenodd" clip-rule="evenodd" d="M48.144 75.9633C48.6064 75.1174 49.6669 74.8065 50.5128 75.2689C53.5584 76.9348 60.3442 80.6446 63.3898 82.3094C64.2347 82.7718 64.5461 83.8323 64.0837 84.6782V84.6787C63.6213 85.5246 62.5609 85.8355 61.715 85.3731C58.6693 83.7073 51.8836 79.9974 48.8379 78.3326C47.992 77.8702 47.6816 76.8098 48.144 75.9639V75.9633Z" fill="#CBCBF3"/>
<mask id="mask15" mask-type="alpha" maskUnits="userSpaceOnUse" x="47" y="75" width="18" height="11">
<path d="M48.144 75.9631V75.9636C47.6816 76.809 47.992 77.8699 48.8384 78.3323C51.8841 79.9971 58.6693 83.707 61.7144 85.3729C62.5614 85.8353 63.6213 85.5244 64.0837 84.6785C64.5461 83.832 64.2352 82.7721 63.3898 82.3097C60.3442 80.6444 53.5579 76.9345 50.5128 75.2687C50.2469 75.1235 49.9603 75.0547 49.6769 75.0547C49.0598 75.0547 48.4613 75.3831 48.144 75.9631Z" fill="white"/>
</mask>
<g mask="url(#mask15)">
<path fill-rule="evenodd" clip-rule="evenodd" d="M47.318 77.7686C46.9758 78.3984 47.2084 79.1871 47.8376 79.5298C50.4193 80.9361 56.6902 84.3536 59.2766 85.7626C59.5796 85.9278 59.9361 85.966 60.2676 85.868C60.5987 85.77 60.8768 85.5449 61.042 85.2414V85.2408C61.3842 84.6105 61.1517 83.8218 60.5213 83.4781C57.9397 82.0712 51.6725 78.6558 49.0855 77.2469C48.7826 77.0811 48.425 77.0435 48.0935 77.141C47.7619 77.239 47.4833 77.4651 47.318 77.7686Z" fill="#B2B2EB"/>
</g>
<mask id="mask16" mask-type="alpha" maskUnits="userSpaceOnUse" x="47" y="75" width="18" height="11">
<path d="M48.144 75.9631V75.9636C47.6816 76.809 47.992 77.8699 48.8384 78.3323C51.8841 79.9971 58.6693 83.707 61.7144 85.3729C62.5614 85.8353 63.6213 85.5244 64.0837 84.6785C64.5461 83.832 64.2352 82.7721 63.3898 82.3097C60.3442 80.6444 53.5579 76.9345 50.5128 75.2687C50.2469 75.1235 49.9603 75.0547 49.6769 75.0547C49.0598 75.0547 48.4613 75.3831 48.144 75.9631Z" fill="white"/>
</mask>
<g mask="url(#mask16)">
<path fill-rule="evenodd" clip-rule="evenodd" d="M50.8916 75.1884C50.3566 74.9125 49.703 75.0767 49.4233 75.5608C49.1442 76.0444 49.3428 76.6689 49.8661 76.9644L50.8916 75.1884Z" fill="#B2B2EB"/>
</g>
<path fill-rule="evenodd" clip-rule="evenodd" d="M51.7193 83.9979C51.0853 84.7341 51.1679 85.8444 51.9037 86.4789C53.3624 87.7358 55.6877 89.7391 57.1464 90.996C57.8822 91.6301 58.9929 91.5474 59.6269 90.8117C59.6269 90.8112 59.6275 90.8112 59.6275 90.8112C60.2615 90.0754 60.1789 88.9647 59.4437 88.3307C57.9844 87.0743 55.6591 85.07 54.2004 83.813C53.4641 83.179 52.3539 83.2616 51.7199 83.9979H51.7193Z" fill="#A5A5E7"/>
<path fill-rule="evenodd" clip-rule="evenodd" d="M51.2934 84.5009C51.5715 83.5782 52.5456 83.0554 53.4683 83.3335C55.5298 83.9548 59.0146 85.0051 61.0766 85.6264C61.9993 85.9045 62.5221 86.8781 62.244 87.8008V87.8013C61.9659 88.7245 60.9924 89.2468 60.0692 88.9693C58.0076 88.3474 54.5229 87.2971 52.4608 86.6757C51.5381 86.3977 51.0153 85.4241 51.2934 84.5014V84.5009Z" fill="#CBCBF3"/>
<mask id="mask17" mask-type="alpha" maskUnits="userSpaceOnUse" x="51" y="83" width="12" height="7">
<path d="M51.2934 84.5009V84.5014C51.0153 85.4241 51.5381 86.3977 52.4608 86.6763C54.5229 87.2971 58.0076 88.3474 60.0692 88.9693C60.9919 89.2468 61.9659 88.7246 62.244 87.8013C62.5221 86.8781 61.9993 85.9045 61.0766 85.627C59.0146 85.0051 55.5298 83.9548 53.4683 83.3335C53.3004 83.2826 53.1309 83.2588 52.9646 83.2588C52.2145 83.2588 51.5212 83.7461 51.2934 84.5009Z" fill="white"/>
</mask>
<g mask="url(#mask17)">
<path fill-rule="evenodd" clip-rule="evenodd" d="M50.8087 86.4176C50.7097 86.7487 50.7457 87.1051 50.9099 87.4092C51.0736 87.7127 51.3517 87.9394 51.6827 88.0384C53.4879 88.5776 56.8105 89.5708 58.6146 90.1105C59.3027 90.3161 60.0273 89.9252 60.2328 89.2371C60.3324 88.9066 60.2958 88.5501 60.1322 88.2466C59.968 87.9426 59.6904 87.7164 59.3599 87.6179C57.5542 87.0776 54.231 86.0844 52.4264 85.5452C51.7388 85.3392 51.0142 85.7301 50.8087 86.4176Z" fill="#B2B2EB"/>
</g>
<path fill-rule="evenodd" clip-rule="evenodd" d="M51.2467 87.8296C50.6126 88.5659 50.6953 89.6761 51.431 90.3106C52.8897 91.5676 55.215 93.5708 56.6738 94.8278C57.4095 95.4618 58.5202 95.3792 59.1543 94.6434L59.1548 94.6429C59.7888 93.9077 59.7062 92.797 58.9705 92.1629C57.5112 90.906 55.1864 88.9022 53.7277 87.6453C52.9914 87.0113 51.8812 87.0934 51.2467 87.8296Z" fill="#A5A5E7"/>
<path fill-rule="evenodd" clip-rule="evenodd" d="M50.8562 88.3794C50.5765 89.3101 51.1041 90.2905 52.0342 90.5707C53.9479 91.146 57.0524 92.0793 58.9661 92.6545C59.8962 92.9347 60.8767 92.4071 61.1569 91.477V91.4765C61.4371 90.5464 60.9095 89.5649 59.9794 89.2857C58.0657 88.71 54.9607 87.7767 53.0469 87.2009C52.1168 86.9212 51.1358 87.4488 50.8562 88.3789V88.3794Z" fill="#B2B2EB"/>
<mask id="mask18" mask-type="alpha" maskUnits="userSpaceOnUse" x="50" y="87" width="12" height="6">
<path d="M50.8564 88.3787V88.3792C50.5762 89.3098 51.1038 90.2908 52.0339 90.571C53.9476 91.1457 57.0521 92.0795 58.9658 92.6543C59.8959 92.9345 60.8769 92.4069 61.1566 91.4768C61.4368 90.5467 60.9092 89.5652 59.9796 89.2855C58.0654 88.7103 54.9604 87.777 53.0466 87.2007C52.8777 87.1503 52.7071 87.126 52.5397 87.126C51.7834 87.126 51.0847 87.6175 50.8564 88.3787Z" fill="white"/>
</mask>
<g mask="url(#mask18)">
<path fill-rule="evenodd" clip-rule="evenodd" d="M49.8797 87.2149C49.6 88.1455 50.127 89.126 51.0577 89.4062C53.892 90.2584 59.5834 91.9698 62.4177 92.8216C63.3484 93.1012 64.3288 92.5742 64.6085 91.6435C64.6095 91.6435 64.6095 91.6435 64.6095 91.643C64.8887 90.7129 64.3611 89.7325 63.431 89.4528C60.5961 88.6 54.9053 86.8891 52.0704 86.0369C51.1403 85.7572 50.1593 86.2842 49.8797 87.2149Z" fill="#CBCBF3"/>
</g>
<path fill-rule="evenodd" clip-rule="evenodd" d="M51.0127 91.786C50.3781 92.5222 50.4608 93.6324 51.197 94.267C52.6558 95.5239 54.9805 97.5272 56.4398 98.7841C57.1755 99.4181 58.2863 99.3355 58.9203 98.5993C59.5538 97.8635 59.4717 96.7528 58.736 96.1188C57.2772 94.8618 54.9519 92.8581 53.4932 91.6011C52.7575 90.9671 51.6467 91.0497 51.0127 91.786Z" fill="#A5A5E7"/>
<path fill-rule="evenodd" clip-rule="evenodd" d="M50.6512 92.362C50.3678 93.2916 50.8916 94.2742 51.8207 94.5576C53.7323 95.1402 56.8336 96.0852 58.7447 96.6678C59.6743 96.9512 60.6568 96.4273 60.9402 95.4983V95.4978C61.2236 94.5687 60.6997 93.5861 59.7707 93.3022C57.859 92.7201 54.7578 91.7752 52.8467 91.192C51.9171 90.9091 50.9345 91.4325 50.6512 92.3615V92.362Z" fill="#B2B2EB"/>
<mask id="mask19" mask-type="alpha" maskUnits="userSpaceOnUse" x="50" y="91" width="12" height="6">
<path d="M50.6512 92.3616V92.3621C50.3678 93.2917 50.8916 94.2748 51.8207 94.5571C53.7323 95.1403 56.8336 96.0858 58.7447 96.6679C59.6743 96.9513 60.6568 96.4274 60.9402 95.4983V95.4978C61.2236 94.5688 60.6997 93.5857 59.7707 93.3028C57.859 92.7202 54.7578 91.7752 52.8467 91.192C52.6756 91.1401 52.5029 91.1152 52.3329 91.1152C51.5792 91.1152 50.8826 91.6031 50.6512 92.3616Z" fill="white"/>
</mask>
<g mask="url(#mask19)">
<path fill-rule="evenodd" clip-rule="evenodd" d="M49.6785 91.1938C49.3951 92.1234 49.919 93.1059 50.848 93.3893C53.453 94.1833 58.4336 95.7014 61.0386 96.4954C61.9676 96.7787 62.9507 96.2549 63.2341 95.3258V95.3253C63.5175 94.3962 62.9936 93.4131 62.0645 93.1298C59.4591 92.3358 54.479 90.8177 51.874 90.0243C50.945 89.7409 49.9619 90.2642 49.6785 91.1938Z" fill="#CBCBF3"/>
</g>
<path fill-rule="evenodd" clip-rule="evenodd" d="M65.152 102.221C66.8068 103.314 68.9928 103.147 70.461 101.813C71.9298 100.48 72.3075 98.3208 71.3784 96.5681C68.7269 91.5647 66.0186 86.4549 64.3178 83.2461C64.0132 82.6714 63.3977 82.3313 62.7489 82.3795C62.1006 82.4277 61.5417 82.8546 61.3256 83.4685C60.039 87.1143 58.1105 92.5822 57.326 94.8064C57.1163 95.4007 57.3091 96.0622 57.8043 96.4515C59.8833 98.0835 65.1515 102.22 65.1515 102.22C65.1515 102.22 65.1515 102.221 65.152 102.221Z" fill="#CBCBF3"/>
</svg>
