<svg width="116" height="116" viewBox="0 0 116 116" fill="none" xmlns="http://www.w3.org/2000/svg">
<path fill-rule="evenodd" clip-rule="evenodd" d="M58.0015 30.5C42.8239 30.5 30.5015 42.8224 30.5015 58C30.5015 73.1776 42.8239 85.5 58.0015 85.5C73.179 85.5 85.5015 73.1776 85.5015 58C85.5015 42.8224 73.179 30.5 58.0015 30.5Z" fill="#DCDCF5"/>
<mask id="mask0" mask-type="alpha" maskUnits="userSpaceOnUse" x="30" y="30" width="56" height="56">
<path d="M30.5015 58C30.5015 73.1781 42.8239 85.4995 58.0015 85.4995C73.179 85.4995 85.5009 73.1781 85.5009 58C85.5009 42.8224 73.179 30.5 58.0015 30.5C42.8239 30.5 30.5015 42.8224 30.5015 58Z" fill="white"/>
</mask>
<g mask="url(#mask0)">
<path fill-rule="evenodd" clip-rule="evenodd" d="M62.0503 26.4482C46.8727 26.4482 34.5503 38.7702 34.5503 53.9482C34.5503 69.1258 46.8727 81.4482 62.0503 81.4482C77.2284 81.4482 89.5503 69.1258 89.5503 53.9482C89.5503 38.7702 77.2284 26.4482 62.0503 26.4482Z" fill="#E8E8F9"/>
</g>
<mask id="mask1" mask-type="alpha" maskUnits="userSpaceOnUse" x="30" y="30" width="56" height="56">
<path d="M30.5015 58C30.5015 73.1781 42.8239 85.4995 58.0015 85.4995C73.179 85.4995 85.5009 73.1781 85.5009 58C85.5009 42.8224 73.179 30.5 58.0015 30.5C42.8239 30.5 30.5015 42.8224 30.5015 58Z" fill="white"/>
</mask>
<g mask="url(#mask1)">
<path fill-rule="evenodd" clip-rule="evenodd" d="M64.701 32.1579C63.1568 34.2903 65.6717 38.7507 70.3139 42.1126C74.9562 45.4745 79.9789 46.4727 81.5231 44.3403C83.0672 42.2078 80.5523 37.7474 75.9101 34.3855C71.2678 31.0237 66.2457 30.0254 64.701 32.1579Z" fill="#F2F2FC"/>
</g>
<mask id="mask2" mask-type="alpha" maskUnits="userSpaceOnUse" x="30" y="30" width="56" height="56">
<path d="M30.5015 58C30.5015 73.1781 42.8239 85.4995 58.0015 85.4995C73.179 85.4995 85.5009 73.1781 85.5009 58C85.5009 42.8224 73.179 30.5 58.0015 30.5C42.8239 30.5 30.5015 42.8224 30.5015 58Z" fill="white"/>
</mask>
<g mask="url(#mask2)">
<path fill-rule="evenodd" clip-rule="evenodd" d="M74.7334 55.3317C72.5012 55.9718 70.9743 57.4865 71.3257 58.7119C71.6771 59.9377 73.7749 60.4129 76.0072 59.7727C78.2394 59.133 79.7663 57.6184 79.4144 56.3925C79.0635 55.1672 76.9657 54.6915 74.7334 55.3317Z" fill="#DCDCF5"/>
</g>
<mask id="mask3" mask-type="alpha" maskUnits="userSpaceOnUse" x="30" y="30" width="56" height="56">
<path d="M30.5015 58C30.5015 73.1781 42.8239 85.4995 58.0015 85.4995C73.179 85.4995 85.5009 73.1781 85.5009 58C85.5009 42.8224 73.179 30.5 58.0015 30.5C42.8239 30.5 30.5015 42.8224 30.5015 58Z" fill="white"/>
</mask>
<g mask="url(#mask3)">
<path fill-rule="evenodd" clip-rule="evenodd" d="M41.2963 55.3493C39.0641 54.7091 36.9668 55.1843 36.6154 56.4102C36.2635 57.6356 37.7908 59.1502 40.0231 59.7904C42.2548 60.4306 44.3526 59.9549 44.704 58.7295C45.0554 57.5042 43.5286 55.9895 41.2963 55.3493Z" fill="#DCDCF5"/>
</g>
<mask id="mask4" mask-type="alpha" maskUnits="userSpaceOnUse" x="30" y="30" width="56" height="56">
<path d="M30.5015 58C30.5015 73.1781 42.8239 85.4995 58.0015 85.4995C73.179 85.4995 85.5009 73.1781 85.5009 58C85.5009 42.8224 73.179 30.5 58.0015 30.5C42.8239 30.5 30.5015 42.8224 30.5015 58Z" fill="white"/>
</mask>
<g mask="url(#mask4)">
<path fill-rule="evenodd" clip-rule="evenodd" d="M47.323 49.627C48.501 49.627 49.4574 50.5798 49.4574 51.7533C49.4574 52.9267 48.501 53.8796 47.323 53.8796C46.145 53.8796 45.188 52.9267 45.188 51.7533C45.188 50.5798 46.145 49.627 47.323 49.627Z" fill="#BDB9E5"/>
</g>
<mask id="mask5" mask-type="alpha" maskUnits="userSpaceOnUse" x="30" y="30" width="56" height="56">
<path d="M30.5015 58C30.5015 73.1781 42.8239 85.4995 58.0015 85.4995C73.179 85.4995 85.5009 73.1781 85.5009 58C85.5009 42.8224 73.179 30.5 58.0015 30.5C42.8239 30.5 30.5015 42.8224 30.5015 58Z" fill="white"/>
</mask>
<g mask="url(#mask5)">
<path fill-rule="evenodd" clip-rule="evenodd" d="M47.3245 50.249C48.1578 50.249 48.8346 50.9233 48.8346 51.7535C48.8346 52.5836 48.1578 53.258 47.3245 53.258C46.4908 53.258 45.814 52.5836 45.814 51.7535C45.814 50.9233 46.4908 50.249 47.3245 50.249Z" fill="#5A4BE2"/>
</g>
<mask id="mask6" mask-type="alpha" maskUnits="userSpaceOnUse" x="45" y="50" width="4" height="4">
<path d="M45.8145 51.7545C45.8145 52.5846 46.4913 53.2589 47.325 53.2589C48.1582 53.2589 48.8356 52.5846 48.8356 51.7545C48.8356 50.9243 48.1582 50.25 47.325 50.25C46.4913 50.25 45.8145 50.9243 45.8145 51.7545Z" fill="white"/>
</mask>
<g mask="url(#mask6)">
<path fill-rule="evenodd" clip-rule="evenodd" d="M46.7332 49.6621C47.5664 49.6621 48.2433 50.3359 48.2433 51.1666C48.2433 51.9967 47.5664 52.6705 46.7332 52.6705C45.8995 52.6705 45.2227 51.9967 45.2227 51.1666C45.2227 50.3359 45.8995 49.6621 46.7332 49.6621Z" fill="#7364E2"/>
</g>
<mask id="mask7" mask-type="alpha" maskUnits="userSpaceOnUse" x="30" y="30" width="56" height="56">
<path d="M30.5015 58C30.5015 73.1781 42.8239 85.4995 58.0015 85.4995C73.179 85.4995 85.5009 73.1781 85.5009 58C85.5009 42.8224 73.179 30.5 58.0015 30.5C42.8239 30.5 30.5015 42.8224 30.5015 58Z" fill="white"/>
</mask>
<g mask="url(#mask7)">
<path fill-rule="evenodd" clip-rule="evenodd" d="M46.5439 50.8213C46.7076 50.8213 46.8407 50.9532 46.8407 51.1162C46.8407 51.2791 46.7076 51.4111 46.5439 51.4111C46.3802 51.4111 46.2471 51.2791 46.2471 51.1162C46.2471 50.9532 46.3802 50.8213 46.5439 50.8213Z" fill="white"/>
</g>
<mask id="mask8" mask-type="alpha" maskUnits="userSpaceOnUse" x="30" y="30" width="56" height="56">
<path d="M30.5015 58C30.5015 73.1781 42.8239 85.4995 58.0015 85.4995C73.179 85.4995 85.5009 73.1781 85.5009 58C85.5009 42.8224 73.179 30.5 58.0015 30.5C42.8239 30.5 30.5015 42.8224 30.5015 58Z" fill="white"/>
</mask>
<g mask="url(#mask8)">
<path d="M45.0376 45.9956C45.9538 44.703 48.5808 44.4259 49.9421 46.1896" stroke="#A5A5E7" stroke-width="0.510907" stroke-linecap="round" stroke-linejoin="round"/>
</g>
<mask id="mask9" mask-type="alpha" maskUnits="userSpaceOnUse" x="30" y="30" width="56" height="56">
<path d="M30.5015 58C30.5015 73.1781 42.8239 85.4995 58.0015 85.4995C73.179 85.4995 85.5009 73.1781 85.5009 58C85.5009 42.8224 73.179 30.5 58.0015 30.5C42.8239 30.5 30.5015 42.8224 30.5015 58Z" fill="white"/>
</mask>
<g mask="url(#mask9)">
<path d="M69.1075 47.0221C67.6468 46.2128 65.1003 46.8301 64.6572 49.0929" stroke="#A5A5E7" stroke-width="0.510907" stroke-linecap="round" stroke-linejoin="round"/>
</g>
<mask id="mask10" mask-type="alpha" maskUnits="userSpaceOnUse" x="30" y="30" width="56" height="56">
<path d="M30.5015 58C30.5015 73.1781 42.8239 85.4995 58.0015 85.4995C73.179 85.4995 85.5009 73.1781 85.5009 58C85.5009 42.8224 73.179 30.5 58.0015 30.5C42.8239 30.5 30.5015 42.8224 30.5015 58Z" fill="white"/>
</mask>
<g mask="url(#mask10)">
<path fill-rule="evenodd" clip-rule="evenodd" d="M65.401 63.6314C64.9824 64.8822 63.7086 65.6589 62.3911 66.8267C61.0679 67.9991 58.7124 68.02 58.7124 68.02H65.3129C65.9332 68.02 66.5286 67.7735 66.9671 67.3345C67.4061 66.896 67.6526 66.3011 67.6526 65.6798C67.6526 65.06 67.4061 64.4646 66.9671 64.0256C66.5892 63.6477 66.0952 63.4119 65.5686 63.3548C65.484 63.3451 65.428 63.5499 65.401 63.6314Z" fill="#A0A0E8"/>
</g>
<mask id="mask11" mask-type="alpha" maskUnits="userSpaceOnUse" x="58" y="63" width="10" height="6">
<path d="M65.401 63.6306C64.9823 64.8819 63.7086 65.6586 62.391 66.8259C61.0684 67.9988 58.7129 68.0192 58.7129 68.0192H65.3129C65.9332 68.0192 66.5286 67.7727 66.9676 67.3342C67.4061 66.8952 67.6526 66.3003 67.6526 65.6795C67.6526 65.0592 67.4061 64.4638 66.9676 64.0248C66.5892 63.6469 66.0951 63.4111 65.5685 63.354C65.5665 63.3535 65.5645 63.3535 65.5629 63.3535C65.4814 63.3535 65.427 63.5511 65.401 63.6306Z" fill="white"/>
</mask>
<g mask="url(#mask11)">
<path fill-rule="evenodd" clip-rule="evenodd" d="M64.7643 62.9954C64.3456 64.2462 63.0719 65.0229 61.7543 66.1907C60.4317 67.3631 58.0762 67.3845 58.0762 67.3845H64.6762C65.2965 67.3845 65.8918 67.138 66.3309 66.6985C66.7699 66.26 67.0159 65.6651 67.0159 65.0438C67.0159 64.424 66.7699 63.8286 66.3309 63.3896C65.9524 63.0117 65.4584 62.7764 64.9318 62.7188C64.8473 62.7092 64.7913 62.9139 64.7643 62.9954Z" fill="#ACACEB"/>
</g>
<mask id="mask12" mask-type="alpha" maskUnits="userSpaceOnUse" x="30" y="30" width="56" height="56">
<path d="M30.5015 58C30.5015 73.1781 42.8239 85.4995 58.0015 85.4995C73.179 85.4995 85.5009 73.1781 85.5009 58C85.5009 42.8224 73.179 30.5 58.0015 30.5C42.8239 30.5 30.5015 42.8224 30.5015 58Z" fill="white"/>
</mask>
<g mask="url(#mask12)">
<path d="M70.4834 52.8403C70.4834 51.7896 69.5586 50.9365 68.4177 50.9365C67.2779 50.9365 66.3525 51.7896 66.3525 52.8403" stroke="#ACACEB" stroke-width="1.53272" stroke-linecap="round" stroke-linejoin="round"/>
</g>
<mask id="mask13" mask-type="alpha" maskUnits="userSpaceOnUse" x="30" y="30" width="56" height="56">
<path d="M30.5015 58C30.5015 73.1781 42.8239 85.4995 58.0015 85.4995C73.179 85.4995 85.5009 73.1781 85.5009 58C85.5009 42.8224 73.179 30.5 58.0015 30.5C42.8239 30.5 30.5015 42.8224 30.5015 58Z" fill="white"/>
</mask>
<g mask="url(#mask13)">
<path d="M70.4834 52.8403C70.4834 51.7896 69.5586 50.9365 68.4177 50.9365C67.2779 50.9365 66.3525 51.7896 66.3525 52.8403" stroke="#6969DB" stroke-width="0.510907" stroke-linecap="round" stroke-linejoin="round"/>
</g>
<mask id="mask14" mask-type="alpha" maskUnits="userSpaceOnUse" x="30" y="30" width="56" height="56">
<path d="M30.5015 58C30.5015 73.1781 42.8239 85.4995 58.0015 85.4995C73.179 85.4995 85.5009 73.1781 85.5009 58C85.5009 42.8224 73.179 30.5 58.0015 30.5C42.8239 30.5 30.5015 42.8224 30.5015 58Z" fill="white"/>
</mask>
<g mask="url(#mask14)">
<path fill-rule="evenodd" clip-rule="evenodd" d="M69.8891 50.8213C70.0528 50.8213 70.1854 50.9532 70.1854 51.1162C70.1854 51.2791 70.0528 51.4111 69.8891 51.4111C69.7259 51.4111 69.5923 51.2791 69.5923 51.1162C69.5923 50.9532 69.7259 50.8213 69.8891 50.8213Z" fill="white"/>
</g>
<mask id="mask15" mask-type="alpha" maskUnits="userSpaceOnUse" x="30" y="30" width="56" height="56">
<path d="M30.5015 58C30.5015 73.1781 42.8239 85.4995 58.0015 85.4995C73.179 85.4995 85.5009 73.1781 85.5009 58C85.5009 42.8224 73.179 30.5 58.0015 30.5C42.8239 30.5 30.5015 42.8224 30.5015 58Z" fill="white"/>
</mask>
<g mask="url(#mask15)">
<path d="M65.6405 63.208C64.4854 66.0372 61.5213 68.0524 58.0509 68.0524C54.5816 68.0524 51.6185 66.0397 50.4619 63.2131" stroke="#6969DB" stroke-width="0.510907" stroke-linecap="round" stroke-linejoin="round"/>
</g>
<path fill-rule="evenodd" clip-rule="evenodd" d="M58.0008 21.334C37.7644 21.334 21.3345 37.7639 21.3345 58.0008C21.3345 78.2377 37.7644 94.6677 58.0008 94.6677C78.2377 94.6677 94.6676 78.2377 94.6676 58.0008C94.6676 37.7639 78.2377 21.334 58.0008 21.334Z" stroke="#F9F9FD" stroke-width="1.02181" stroke-linecap="round" stroke-linejoin="round"/>
<path fill-rule="evenodd" clip-rule="evenodd" d="M58.0002 12.167C32.7044 12.167 12.167 32.7039 12.167 58.0002C12.167 83.2964 32.7044 103.833 58.0002 103.833C83.2964 103.833 103.833 83.2964 103.833 58.0002C103.833 32.7039 83.2964 12.167 58.0002 12.167Z" stroke="#F7F7FC" stroke-width="1.02181" stroke-linecap="round" stroke-linejoin="round"/>
<path fill-rule="evenodd" clip-rule="evenodd" d="M58 3C27.6449 3 3 27.6449 3 58C3 88.3551 27.6449 113 58 113C88.3561 113 113 88.3551 113 58C113 27.6449 88.3561 3 58 3Z" stroke="#EFEFFA" stroke-width="1.02181" stroke-linecap="round" stroke-linejoin="round"/>
<path fill-rule="evenodd" clip-rule="evenodd" d="M26.4664 98.107C29.1315 99.4347 30.2168 102.677 28.8886 105.343C27.5603 108.007 24.3187 109.093 21.6535 107.765C18.9879 106.437 17.9031 103.194 19.2308 100.529C20.559 97.8641 23.8012 96.7788 26.4664 98.107Z" stroke="#EFEFF9" stroke-width="1.02181" stroke-linecap="round" stroke-linejoin="round"/>
<path fill-rule="evenodd" clip-rule="evenodd" d="M37.2421 102.23C37.8237 102.52 38.0605 103.227 37.7707 103.809C37.4809 104.391 36.7735 104.627 36.1914 104.338C35.6103 104.048 35.3735 103.34 35.6633 102.759C35.953 102.177 36.6605 101.94 37.2421 102.23Z" fill="#F7F7FC"/>
<path fill-rule="evenodd" clip-rule="evenodd" d="M92.9014 27.3389C93.2483 27.3389 93.5304 27.6205 93.5304 27.9673C93.5304 28.3147 93.2483 28.5963 92.9014 28.5963C92.5541 28.5963 92.2725 28.3147 92.2725 27.9673C92.2725 27.6205 92.5541 27.3389 92.9014 27.3389Z" fill="#DFDFF4"/>
<path d="M87.605 17.9492V26.7244" stroke="#DFDFF4" stroke-width="1.02181" stroke-linecap="round" stroke-linejoin="round"/>
<path d="M91.9463 22.3369H83.2612" stroke="#DFDFF4" stroke-width="1.02181" stroke-linecap="round" stroke-linejoin="round"/>
<path fill-rule="evenodd" clip-rule="evenodd" d="M22.8707 19.4102C23.355 19.4102 23.7477 19.8033 23.7477 20.2872C23.7477 20.771 23.355 21.1642 22.8707 21.1642C22.3868 21.1642 21.9937 20.771 21.9937 20.2872C21.9937 19.8033 22.3868 19.4102 22.8707 19.4102Z" fill="#DFDFF4"/>
<path fill-rule="evenodd" clip-rule="evenodd" d="M11.6191 19.8555V32.9047L22.346 26.265L11.6191 19.8555Z" stroke="#DFDFF4" stroke-width="1.02181" stroke-linecap="round" stroke-linejoin="round"/>
<path fill-rule="evenodd" clip-rule="evenodd" d="M81.035 63.0403C81.1908 63.1742 81.2657 63.38 81.2321 63.5827C81.1979 63.7889 81.1516 64.0757 81.0986 64.397C80.8333 66.011 81.4781 67.6397 82.7757 68.6354C85.6003 70.8024 90.2624 74.3792 90.2624 74.3792L82.4865 74.1898C82.4865 74.1898 80.3688 71.4706 78.5786 69.1712C77.1903 67.3876 77.3813 64.8416 79.0207 63.2852C79.093 63.2165 79.1643 63.1492 79.2326 63.084C79.7327 62.6094 80.5114 62.59 81.0345 63.0397L81.035 63.0403Z" fill="#C9C9F2"/>
<mask id="mask16" mask-type="alpha" maskUnits="userSpaceOnUse" x="77" y="62" width="14" height="13">
<path d="M79.2331 63.0841C79.1643 63.1493 79.0935 63.2165 79.0207 63.2858C77.3813 64.8417 77.1903 67.3876 78.5786 69.1712C80.3693 71.4707 82.4865 74.1898 82.4865 74.1898L90.2624 74.3793C90.2624 74.3793 85.6003 70.8025 82.7763 68.6359C81.4786 67.6397 80.8333 66.011 81.0986 64.3971C81.1516 64.0757 81.1984 63.789 81.2321 63.5832C81.2657 63.38 81.1908 63.1742 81.035 63.0403V63.0398C80.7818 62.8228 80.4696 62.7148 80.158 62.7148C79.8244 62.7148 79.4913 62.8386 79.2331 63.0841Z" fill="white"/>
</mask>
<g mask="url(#mask16)">
<path fill-rule="evenodd" clip-rule="evenodd" d="M77.4149 64.8361C77.7867 64.8102 78.134 65.0225 78.2807 65.3653C78.5272 65.9403 78.9112 66.8377 79.2076 67.5273C79.4852 68.1771 79.9145 68.7511 80.46 69.2008C82.7085 71.0577 88.7529 76.0508 88.7529 76.0508L81.4485 75.6877C81.4485 75.6877 78.8536 72.4323 77.1271 70.2647C76.1865 69.0862 75.9099 67.5104 76.3922 66.0808C76.4686 65.8562 76.5399 65.6449 76.601 65.4631C76.7202 65.1086 77.0421 64.8616 77.4144 64.8361H77.4149Z" fill="#B2B2EB"/>
</g>
<path fill-rule="evenodd" clip-rule="evenodd" d="M71.7956 71.5981C71.6001 72.5112 72.1822 73.4107 73.0959 73.6057C74.9054 73.9933 77.7916 74.6116 79.6016 74.9992C80.5153 75.1947 81.4147 74.6131 81.6103 73.6994C81.8054 72.7858 81.2237 71.8868 80.3106 71.6918C78.4995 71.3037 75.6138 70.6859 73.8033 70.2978C72.8901 70.1023 71.9917 70.6844 71.7956 71.5976V71.5981Z" fill="#A5A5E7"/>
<path fill-rule="evenodd" clip-rule="evenodd" d="M71.6672 72.221C71.4762 71.3139 72.0573 70.4242 72.9633 70.2332C74.9893 69.8064 78.4138 69.0852 80.4403 68.6584C81.3469 68.4674 82.2371 69.048 82.4281 69.9551C82.6191 70.8621 82.0385 71.7519 81.1315 71.9429C79.1055 72.3697 75.6815 73.0908 73.655 73.5176C72.7484 73.7086 71.8582 73.128 71.6672 72.221Z" fill="#CBCBF3"/>
<mask id="mask17" mask-type="alpha" maskUnits="userSpaceOnUse" x="71" y="68" width="12" height="6">
<path d="M80.4402 68.6587C78.4137 69.0855 74.9897 69.8062 72.9637 70.233C72.0572 70.424 71.4766 71.3137 71.667 72.2208C71.8585 73.1283 72.7483 73.7084 73.6553 73.5179C75.6813 73.0912 79.1058 72.3695 81.1313 71.9427C82.0389 71.7522 82.6195 70.8625 82.4285 69.9549C82.2619 69.1645 81.5647 68.6221 80.788 68.6221C80.6734 68.6221 80.5568 68.6338 80.4402 68.6587Z" fill="white"/>
</mask>
<g mask="url(#mask17)">
<path fill-rule="evenodd" clip-rule="evenodd" d="M72.1446 74.0601C72.2139 74.3851 72.409 74.6687 72.687 74.85C72.9651 75.0303 73.3043 75.093 73.6292 75.0242C75.4016 74.6468 78.6626 73.9527 80.4335 73.5753C81.1093 73.4316 81.5396 72.768 81.397 72.0927V72.0922C81.3273 71.7678 81.1322 71.4836 80.8546 71.3028C80.5761 71.122 80.2374 71.0593 79.913 71.1286C78.1396 71.506 74.8786 72.2007 73.1072 72.5776C72.4319 72.7212 72.0015 73.3848 72.1446 74.0601Z" fill="#B2B2EB"/>
</g>
<path fill-rule="evenodd" clip-rule="evenodd" d="M71.7997 75.3666C71.6036 76.2798 72.1858 77.1792 73.0989 77.3743C74.909 77.7618 77.7947 78.3801 79.6052 78.7677C80.5184 78.9633 81.4178 78.3817 81.6134 77.468C81.8084 76.5543 81.2273 75.6554 80.3141 75.4603C78.5031 75.0723 75.6174 74.4545 73.8069 74.0664C72.8937 73.8708 71.9953 74.4529 71.7997 75.3661V75.3666Z" fill="#A5A5E7"/>
<path fill-rule="evenodd" clip-rule="evenodd" d="M71.6711 75.9885C71.4801 75.0815 72.0612 74.1917 72.9683 74.0007C74.9937 73.574 78.4183 72.8528 80.4447 72.426C81.3518 72.235 82.2415 72.8156 82.4325 73.7227C82.6235 74.6297 82.0429 75.5195 81.1359 75.7105C79.1099 76.1372 75.6859 76.8584 73.6594 77.2852C72.7523 77.4762 71.8626 76.8956 71.6711 75.9885Z" fill="#CBCBF3"/>
<mask id="mask18" mask-type="alpha" maskUnits="userSpaceOnUse" x="71" y="72" width="12" height="6">
<path d="M80.4444 72.4253C78.4184 72.8521 74.9939 73.5728 72.9684 73.9996C72.0609 74.1911 71.4798 75.0803 71.6713 75.9879C71.8628 76.8949 72.7525 77.4755 73.6596 77.2845C75.686 76.8578 79.1101 76.1366 81.136 75.7098C82.0431 75.5188 82.6232 74.6291 82.4327 73.722C82.2662 72.9316 81.5689 72.3887 80.7923 72.3887C80.6777 72.3887 80.561 72.4004 80.4444 72.4253Z" fill="white"/>
</mask>
<g mask="url(#mask18)">
<path fill-rule="evenodd" clip-rule="evenodd" d="M72.1487 77.8287C72.2175 78.1536 72.4125 78.4373 72.6906 78.6186C72.9697 78.7989 73.3084 78.862 73.6333 78.7933C75.4057 78.4154 78.6667 77.7212 80.437 77.3443C81.1129 77.2007 81.5442 76.5366 81.4006 75.8613V75.8608C81.3319 75.5363 81.1363 75.2521 80.8582 75.0713C80.5801 74.8905 80.2409 74.8279 79.9165 74.8972C78.1437 75.2746 74.8821 75.9692 73.1113 76.3461C72.4355 76.4897 72.0051 77.1539 72.1487 77.8287Z" fill="#B2B2EB"/>
</g>
<path fill-rule="evenodd" clip-rule="evenodd" d="M73.1668 78.8195C72.9712 79.7327 73.5528 80.6316 74.466 80.8272C76.276 81.2147 79.1617 81.833 80.9728 82.2206C81.8859 82.4162 82.7848 81.8345 82.9804 80.9209H82.9809C83.1765 80.0072 82.5944 79.1083 81.6812 78.9132C79.8706 78.5251 76.985 77.9074 75.1744 77.5193C74.2607 77.3237 73.3623 77.9058 73.1668 78.819V78.8195Z" fill="#A5A5E7"/>
<path fill-rule="evenodd" clip-rule="evenodd" d="M73.0915 79.4623C73.285 80.3765 74.1824 80.9606 75.0966 80.7676C76.9759 80.3704 80.0261 79.7266 81.9064 79.3288C82.8201 79.1358 83.4037 78.2389 83.2107 77.3253V77.3248C83.0177 76.4106 82.1208 75.8259 81.2072 76.0194C79.3268 76.4167 76.2766 77.0609 74.3968 77.4577C73.4837 77.6507 72.8985 78.5481 73.0915 79.4623Z" fill="#B2B2EB"/>
<mask id="mask19" mask-type="alpha" maskUnits="userSpaceOnUse" x="73" y="75" width="11" height="6">
<path d="M81.2067 76.0196C79.3263 76.4163 76.2767 77.0611 74.3969 77.4579C73.4832 77.6509 72.8985 78.5478 73.0915 79.4624C73.2851 80.3761 74.1819 80.9608 75.0961 80.7678C76.9754 80.3705 80.0261 79.7263 81.9064 79.329C82.8196 79.136 83.4038 78.2386 83.2107 77.3249V77.3244C83.0427 76.5284 82.3404 75.9824 81.5586 75.9824C81.4425 75.9824 81.3248 75.9946 81.2067 76.0196Z" fill="white"/>
</mask>
<g mask="url(#mask19)">
<path fill-rule="evenodd" clip-rule="evenodd" d="M71.7302 78.9302C71.9232 79.8439 72.8211 80.4281 73.7348 80.2356C76.5191 79.6468 82.1097 78.4663 84.895 77.878C85.8087 77.685 86.3923 76.7876 86.1993 75.8734C86.0063 74.9593 85.1094 74.3751 84.1958 74.5681C81.4104 75.1563 75.8199 76.3374 73.0355 76.9256C72.1218 77.1187 71.5372 78.0161 71.7302 78.9297V78.9302Z" fill="#CBCBF3"/>
</g>
<path fill-rule="evenodd" clip-rule="evenodd" d="M74.7912 82.2656C74.5957 83.1787 75.1778 84.0781 76.0915 84.2732C77.9015 84.6608 80.7872 85.2791 82.5972 85.6666C83.5109 85.8622 84.4103 85.2806 84.6059 84.3669C84.801 83.4532 84.2199 82.5543 83.3062 82.3593C81.4951 81.9712 78.6094 81.3534 76.7994 80.9653C75.8857 80.7697 74.9873 81.3519 74.7912 82.265V82.2656Z" fill="#A5A5E7"/>
<path fill-rule="evenodd" clip-rule="evenodd" d="M74.7538 82.9175C74.9438 83.8322 75.8386 84.4199 76.7533 84.23C78.6346 83.8404 81.6863 83.2073 83.5687 82.8177C84.4829 82.6282 85.0706 81.7329 84.8812 80.8182V80.8177C84.6917 79.9035 83.7964 79.3158 82.8817 79.5052C81.0003 79.8948 77.9476 80.5279 76.0668 80.918C75.1515 81.1075 74.5643 82.0028 74.7538 82.917V82.9175Z" fill="#B2B2EB"/>
<mask id="mask20" mask-type="alpha" maskUnits="userSpaceOnUse" x="74" y="79" width="11" height="6">
<path d="M82.8822 79.5054C81.0003 79.8955 77.9481 80.528 76.0668 80.9187C75.1515 81.1081 74.5643 82.003 74.7538 82.9172V82.9182C74.9438 83.8324 75.8386 84.4206 76.7533 84.2301C78.6346 83.8405 81.6868 83.208 83.5687 82.8178C84.4824 82.6284 85.0706 81.733 84.8812 80.8183V80.8178C84.7156 80.0198 84.0118 79.4697 83.227 79.4697C83.1134 79.4697 82.9978 79.4814 82.8822 79.5054Z" fill="white"/>
</mask>
<g mask="url(#mask20)">
<path fill-rule="evenodd" clip-rule="evenodd" d="M73.3941 82.3801C73.5835 83.2948 74.4789 83.8825 75.3931 83.6925C77.9574 83.1613 82.8594 82.1453 85.4232 81.6136C86.3379 81.4241 86.9251 80.5288 86.7356 79.6141V79.6136C86.5457 78.6994 85.6508 78.1117 84.7366 78.3011C82.1723 78.8328 77.2703 79.8489 74.7065 80.3806C73.7913 80.57 73.2041 81.4654 73.3941 82.3801Z" fill="#CBCBF3"/>
</g>
<path fill-rule="evenodd" clip-rule="evenodd" d="M91.5347 84.5478C93.4288 84.7067 95.1884 83.5603 95.8082 81.764C96.4275 79.9682 95.7491 77.9804 94.1611 76.9379C89.5876 73.9351 84.9097 70.8645 81.9701 68.9343C81.445 68.59 80.7666 68.5895 80.242 68.9333C79.718 69.2766 79.447 69.8984 79.553 70.5167C80.183 74.1918 81.1241 79.6856 81.5056 81.9117C81.6075 82.5045 82.073 82.968 82.6663 83.0678C85.1659 83.4849 91.5342 84.5478 91.5342 84.5478H91.5347Z" fill="#CBCBF3"/>
</svg>
