<svg width="116" height="116" viewBox="0 0 116 116" fill="none" xmlns="http://www.w3.org/2000/svg">
<path fill-rule="evenodd" clip-rule="evenodd" d="M57.9281 2.06445C89.3573 2.06445 114.874 27.4653 114.874 58.7522C114.874 90.0392 89.3573 115.44 57.9281 115.44C26.4995 115.44 0.982666 90.0392 0.982666 58.7522C0.982666 27.4653 26.4995 2.06445 57.9281 2.06445Z" fill="white"/>
<mask id="mask0" mask-type="alpha" maskUnits="userSpaceOnUse" x="0" y="2" width="115" height="114">
<path d="M0.982666 58.7517C0.982666 90.0392 26.499 115.44 57.9281 115.44C89.3573 115.44 114.874 90.0392 114.874 58.7517C114.874 27.4653 89.3573 2.06445 57.9281 2.06445C26.499 2.06445 0.982666 27.4653 0.982666 58.7517Z" fill="white"/>
</mask>
<g mask="url(#mask0)">
<path opacity="0.65" fill-rule="evenodd" clip-rule="evenodd" d="M57.928 8.36328C85.865 8.36328 108.546 30.9418 108.546 58.7524C108.546 86.563 85.865 109.142 57.928 109.142C29.9915 109.142 7.30981 86.563 7.30981 58.7524C7.30981 30.9418 29.9915 8.36328 57.928 8.36328Z" stroke="#D5D5F1" stroke-width="1.05882" stroke-linecap="round" stroke-linejoin="round"/>
</g>
<mask id="mask1" mask-type="alpha" maskUnits="userSpaceOnUse" x="0" y="2" width="115" height="114">
<path d="M0.982666 58.7517C0.982666 90.0392 26.499 115.44 57.9281 115.44C89.3573 115.44 114.874 90.0392 114.874 58.7517C114.874 27.4653 89.3573 2.06445 57.9281 2.06445C26.499 2.06445 0.982666 27.4653 0.982666 58.7517Z" fill="white"/>
</mask>
<g mask="url(#mask1)">
<path opacity="0.5" fill-rule="evenodd" clip-rule="evenodd" d="M57.9281 14.6621C82.373 14.6621 102.219 34.4183 102.219 58.7526C102.219 83.0869 82.373 102.843 57.9281 102.843C33.4838 102.843 13.6372 83.0869 13.6372 58.7526C13.6372 34.4183 33.4838 14.6621 57.9281 14.6621Z" stroke="#DFDFF5" stroke-width="1.05882" stroke-linecap="round" stroke-linejoin="round"/>
</g>
<mask id="mask2" mask-type="alpha" maskUnits="userSpaceOnUse" x="0" y="2" width="115" height="114">
<path d="M0.982666 58.7517C0.982666 90.0392 26.499 115.44 57.9281 115.44C89.3573 115.44 114.874 90.0392 114.874 58.7517C114.874 27.4653 89.3573 2.06445 57.9281 2.06445C26.499 2.06445 0.982666 27.4653 0.982666 58.7517Z" fill="white"/>
</mask>
<g mask="url(#mask2)">
<path opacity="0.5" fill-rule="evenodd" clip-rule="evenodd" d="M57.928 20.9609C78.8808 20.9609 95.8916 37.8948 95.8916 58.7528C95.8916 79.6107 78.8808 96.5446 57.928 96.5446C36.9758 96.5446 19.9644 79.6107 19.9644 58.7528C19.9644 37.8948 36.9758 20.9609 57.928 20.9609Z" stroke="#E5E5F7" stroke-width="1.05882" stroke-linecap="round" stroke-linejoin="round"/>
</g>
<mask id="mask3" mask-type="alpha" maskUnits="userSpaceOnUse" x="0" y="2" width="115" height="114">
<path d="M0.982666 58.7517C0.982666 90.0392 26.499 115.44 57.9281 115.44C89.3573 115.44 114.874 90.0392 114.874 58.7517C114.874 27.4653 89.3573 2.06445 57.9281 2.06445C26.499 2.06445 0.982666 27.4653 0.982666 58.7517Z" fill="white"/>
</mask>
<g mask="url(#mask3)">
<path opacity="0.4" fill-rule="evenodd" clip-rule="evenodd" d="M57.9281 27.2598C75.3887 27.2598 89.5645 41.3713 89.5645 58.753C89.5645 76.1346 75.3887 90.2462 57.9281 90.2462C40.468 90.2462 26.2917 76.1346 26.2917 58.753C26.2917 41.3713 40.468 27.2598 57.9281 27.2598Z" stroke="#E9E9F7" stroke-width="1.05882" stroke-linecap="round" stroke-linejoin="round"/>
</g>
<mask id="mask4" mask-type="alpha" maskUnits="userSpaceOnUse" x="0" y="2" width="115" height="114">
<path d="M0.982666 58.7517C0.982666 90.0392 26.499 115.44 57.9281 115.44C89.3573 115.44 114.874 90.0392 114.874 58.7517C114.874 27.4653 89.3573 2.06445 57.9281 2.06445C26.499 2.06445 0.982666 27.4653 0.982666 58.7517Z" fill="white"/>
</mask>
<g mask="url(#mask4)">
<path opacity="0.35" fill-rule="evenodd" clip-rule="evenodd" d="M57.928 33.5586C71.897 33.5586 83.2371 44.8479 83.2371 58.7532C83.2371 72.6585 71.897 83.9477 57.928 83.9477C43.96 83.9477 32.6189 72.6585 32.6189 58.7532C32.6189 44.8479 43.96 33.5586 57.928 33.5586Z" stroke="#EBEBF9" stroke-width="1.05882" stroke-linecap="round" stroke-linejoin="round"/>
</g>
<mask id="mask5" mask-type="alpha" maskUnits="userSpaceOnUse" x="0" y="2" width="115" height="114">
<path d="M0.982666 58.7517C0.982666 90.0392 26.499 115.44 57.9281 115.44C89.3573 115.44 114.874 90.0392 114.874 58.7517C114.874 27.4653 89.3573 2.06445 57.9281 2.06445C26.499 2.06445 0.982666 27.4653 0.982666 58.7517Z" fill="white"/>
</mask>
<g mask="url(#mask5)">
<path opacity="0.3" fill-rule="evenodd" clip-rule="evenodd" d="M57.9281 39.8574C68.405 39.8574 76.9099 48.3244 76.9099 58.7533C76.9099 69.1823 68.405 77.6493 57.9281 77.6493C47.4523 77.6493 38.9463 69.1823 38.9463 58.7533C38.9463 48.3244 47.4523 39.8574 57.9281 39.8574Z" stroke="#F3F3FB" stroke-width="1.05882" stroke-linecap="round" stroke-linejoin="round"/>
</g>
<mask id="mask6" mask-type="alpha" maskUnits="userSpaceOnUse" x="0" y="2" width="115" height="114">
<path d="M0.982666 58.7517C0.982666 90.0392 26.499 115.44 57.9281 115.44C89.3573 115.44 114.874 90.0392 114.874 58.7517C114.874 27.4653 89.3573 2.06445 57.9281 2.06445C26.499 2.06445 0.982666 27.4653 0.982666 58.7517Z" fill="white"/>
</mask>
<g mask="url(#mask6)">
<path opacity="0.2" fill-rule="evenodd" clip-rule="evenodd" d="M57.928 46.1562C64.9128 46.1562 70.5825 51.8009 70.5825 58.7535C70.5825 65.7062 64.9128 71.3508 57.928 71.3508C50.9437 71.3508 45.2734 65.7062 45.2734 58.7535C45.2734 51.8009 50.9437 46.1562 57.928 46.1562Z" stroke="#F9F9FD" stroke-width="1.05882" stroke-linecap="round" stroke-linejoin="round"/>
</g>
<path fill-rule="evenodd" clip-rule="evenodd" d="M57.9281 2.06445C89.3573 2.06445 114.874 27.4653 114.874 58.7522C114.874 90.0392 89.3573 115.44 57.9281 115.44C26.4995 115.44 0.982666 90.0392 0.982666 58.7522C0.982666 27.4653 26.4995 2.06445 57.9281 2.06445Z" stroke="#D3D3EF" stroke-width="1.05882" stroke-linecap="round" stroke-linejoin="round"/>
<mask id="mask7" mask-type="alpha" maskUnits="userSpaceOnUse" x="0" y="2" width="115" height="114">
<path d="M0.982666 58.7517C0.982666 90.0392 26.499 115.44 57.9281 115.44C89.3573 115.44 114.874 90.0392 114.874 58.7517C114.874 27.4653 89.3573 2.06445 57.9281 2.06445C26.499 2.06445 0.982666 27.4653 0.982666 58.7517Z" fill="white"/>
</mask>
<g mask="url(#mask7)">
<path fill-rule="evenodd" clip-rule="evenodd" d="M58.5079 57.3008L22.9618 81.3033C21.4744 82.308 20.4483 83.8595 20.1098 85.6169C19.7718 87.3742 20.1483 89.194 21.1575 90.6747C22.1667 92.1554 23.7253 93.1773 25.4906 93.5138C27.2559 93.8513 29.0834 93.476 30.5714 92.4714L58.1488 73.8473L58.5079 57.3008Z" fill="#E9E9FA"/>
</g>
<mask id="mask8" mask-type="alpha" maskUnits="userSpaceOnUse" x="19" y="57" width="40" height="37">
<path d="M22.9623 81.3014C21.4749 82.3055 20.4488 83.8576 20.1103 85.6149C19.7723 87.3722 20.1488 89.1915 21.1574 90.6727H21.158C22.1672 92.1534 23.7253 93.1749 25.4906 93.5118C27.2564 93.8493 29.0839 93.474 30.5719 92.4694L58.1493 73.8454L58.5084 57.2988L22.9623 81.3014Z" fill="white"/>
</mask>
<g mask="url(#mask8)">
<path fill-rule="evenodd" clip-rule="evenodd" d="M55.7249 52.6855L20.1788 76.6881C18.6914 77.6927 17.6653 79.2443 17.3268 81.0016C16.9888 82.7589 17.3653 84.5787 18.3745 86.0594C19.3837 87.5401 20.9423 88.5621 22.7076 88.8985C24.473 89.236 26.3005 88.8608 27.7884 87.8561L55.3659 69.2321L55.7249 52.6855Z" fill="#F2F2FC"/>
</g>
<mask id="mask9" mask-type="alpha" maskUnits="userSpaceOnUse" x="19" y="57" width="40" height="37">
<path d="M22.9623 81.3014C21.4749 82.3055 20.4488 83.8576 20.1103 85.6149C19.7723 87.3722 20.1488 89.1915 21.1574 90.6727H21.158C22.1672 92.1534 23.7253 93.1749 25.4906 93.5118C27.2564 93.8493 29.0839 93.474 30.5719 92.4694L58.1493 73.8454L58.5084 57.2988L22.9623 81.3014Z" fill="white"/>
</mask>
<g mask="url(#mask9)">
<path fill-rule="evenodd" clip-rule="evenodd" d="M85.7813 68.9528L64.4394 36.8281L31.7122 58.3737L53.053 90.4983L85.7813 68.9528Z" fill="#9F9FE9"/>
</g>
<mask id="mask10" mask-type="alpha" maskUnits="userSpaceOnUse" x="39" y="57" width="20" height="25">
<path d="M39.5173 70.1223L46.9951 81.378L58.149 73.8454L58.5081 57.2988" fill="white"/>
</mask>
<g mask="url(#mask10)">
<path fill-rule="evenodd" clip-rule="evenodd" d="M22.5225 91.6703C21.3952 92.4345 20.6191 93.6129 20.3644 94.9466C20.1097 96.2804 20.3976 97.6603 21.1653 98.7825C21.9325 99.9047 23.1162 100.677 24.456 100.931C25.7958 101.184 27.182 100.897 28.3094 100.134C36.5106 94.576 54.4315 82.4328 62.6327 76.8753C63.7595 76.1116 64.5362 74.9332 64.7908 73.5995C65.0455 72.2657 64.7571 70.8858 63.9899 69.7641C63.2227 68.6419 62.039 67.8682 60.6992 67.6158C59.3594 67.3617 57.9732 67.6483 56.8459 68.4125C48.6442 73.97 30.7237 86.1133 22.5225 91.6703Z" fill="#6969DB"/>
</g>
<mask id="mask11" mask-type="alpha" maskUnits="userSpaceOnUse" x="0" y="2" width="115" height="114">
<path d="M0.982666 58.7517C0.982666 90.0392 26.499 115.44 57.9281 115.44C89.3573 115.44 114.874 90.0392 114.874 58.7517C114.874 27.4653 89.3573 2.06445 57.9281 2.06445C26.499 2.06445 0.982666 27.4653 0.982666 58.7517Z" fill="white"/>
</mask>
<g mask="url(#mask11)">
<path fill-rule="evenodd" clip-rule="evenodd" d="M105.208 67.1908C104.929 64.5097 103.044 62.2637 100.442 61.5141C93.0049 59.3705 78.5381 55.1992 78.5381 55.1992C78.5381 55.1992 68.9191 55.6742 61.4471 56.0427C59.2373 56.1519 57.1772 57.1833 55.7721 58.8839C54.3669 60.584 53.7473 62.7959 54.0653 64.9747C56.6695 82.8046 62.4616 122.458 62.4616 122.458L109.34 106.895C109.34 106.895 106.373 78.3861 105.208 67.1908Z" fill="#9191E3"/>
</g>
<mask id="mask12" mask-type="alpha" maskUnits="userSpaceOnUse" x="53" y="55" width="55" height="61">
<path d="M61.4473 56.0427C59.2381 56.1519 57.1775 57.1828 55.7723 58.8834C54.3671 60.5835 53.7476 62.7954 54.0655 64.9747C55.9843 78.1111 59.633 103.093 61.421 115.335C81.0323 114.152 97.9768 103.068 107.275 87.0457C106.503 79.6359 105.697 71.889 105.208 67.1908C104.929 64.5091 103.044 62.2637 100.442 61.5141C93.0051 59.37 78.5383 55.1992 78.5383 55.1992C78.5383 55.1992 68.9193 55.6742 61.4473 56.0427Z" fill="white"/>
</mask>
<g mask="url(#mask12)">
<path fill-rule="evenodd" clip-rule="evenodd" d="M80.2246 46.0195C86.5371 46.0195 91.6612 51.1209 91.6612 57.4049C91.6612 63.6883 86.5371 68.7891 80.2246 68.7891C73.9121 68.7891 68.7881 63.6883 68.7881 57.4049C68.7881 51.1209 73.9121 46.0195 80.2246 46.0195Z" fill="#F2F2FC"/>
</g>
<mask id="mask13" mask-type="alpha" maskUnits="userSpaceOnUse" x="53" y="55" width="55" height="61">
<path d="M61.4473 56.0427C59.2381 56.1519 57.1775 57.1828 55.7723 58.8834C54.3671 60.5835 53.7476 62.7954 54.0655 64.9747C55.9843 78.1111 59.633 103.093 61.421 115.335C81.0323 114.152 97.9768 103.068 107.275 87.0457C106.503 79.6359 105.697 71.889 105.208 67.1908C104.929 64.5091 103.044 62.2637 100.442 61.5141C93.0051 59.37 78.5383 55.1992 78.5383 55.1992C78.5383 55.1992 68.9193 55.6742 61.4473 56.0427Z" fill="white"/>
</mask>
<g mask="url(#mask13)">
<path fill-rule="evenodd" clip-rule="evenodd" d="M87.0833 124.6C86.3356 127.327 87.9507 130.142 90.6904 130.886C93.4301 131.63 96.2563 130.022 97.004 127.295C100.833 113.329 111.707 73.6562 115.535 59.69C116.283 56.9627 114.668 54.1488 111.928 53.4045C109.189 52.6602 106.362 54.268 105.614 56.9953C101.786 70.9615 90.9113 110.634 87.0833 124.6Z" fill="#6969DB"/>
</g>
<path fill-rule="evenodd" clip-rule="evenodd" d="M57.9281 2.06445C89.3573 2.06445 114.874 27.4653 114.874 58.7522C114.874 90.0392 89.3573 115.44 57.9281 115.44C26.4995 115.44 0.982666 90.0392 0.982666 58.7522C0.982666 27.4653 26.4995 2.06445 57.9281 2.06445Z" stroke="#D3D3EF" stroke-width="1.05882" stroke-linecap="round" stroke-linejoin="round"/>
<path fill-rule="evenodd" clip-rule="evenodd" d="M98.5959 46.2373C97.5798 47.3548 96.2928 48.2582 94.7848 48.8376C89.6249 50.8207 83.8196 48.2603 81.8276 43.1237C79.8355 37.9877 82.4076 32.2076 87.5674 30.2251C89.0802 29.6436 89.5684 29.7155 91.0796 29.8656C88.6178 32.5714 88.8208 36.2666 90.2307 39.902C91.6385 43.5321 94.9519 45.8757 98.5959 46.2373Z" fill="#6969DB"/>
<mask id="mask14" mask-type="alpha" maskUnits="userSpaceOnUse" x="81" y="29" width="18" height="21">
<path d="M87.567 30.2234C82.4071 32.2054 79.835 37.9859 81.8276 43.1225C83.8191 48.258 89.6249 50.8184 94.7843 48.8359C96.2923 48.2564 97.5793 47.3531 98.5954 46.2356C94.9514 45.8739 91.638 43.5303 90.2302 39.9002C88.8203 36.2643 88.6178 32.5696 91.0791 29.8638C90.4859 29.8051 90.0504 29.7578 89.6481 29.7578C89.027 29.7578 88.486 29.8701 87.567 30.2234Z" fill="white"/>
</mask>
<g mask="url(#mask14)">
<path fill-rule="evenodd" clip-rule="evenodd" d="M106.729 47.5041C105.712 48.6211 104.426 49.5244 102.918 50.1039C97.7585 52.0869 91.9527 49.5265 89.9606 44.3905C87.9686 39.2539 90.5406 33.4739 95.7 31.4914C97.2127 30.9098 98.7814 30.7193 100.293 30.8694C97.8302 33.5747 96.9538 37.5328 98.3638 41.1682C99.7716 44.7983 103.085 47.1419 106.729 47.5041Z" fill="#8A8AE2"/>
</g>
<path fill-rule="evenodd" clip-rule="evenodd" d="M54.5942 45.6321C55.6103 46.749 56.8974 47.6523 58.4048 48.2318C63.5642 50.2148 69.3705 47.6544 71.3626 42.5184C73.3541 37.3819 70.7826 31.6018 65.6227 29.6193C64.1099 29.0378 63.6211 29.1102 62.11 29.2603C64.5723 31.9656 64.3693 35.6608 62.9594 39.2961C61.5516 42.9263 58.2382 45.2699 54.5942 45.6321Z" fill="#6969DB"/>
<mask id="mask15" mask-type="alpha" maskUnits="userSpaceOnUse" x="54" y="29" width="19" height="20">
<path d="M62.11 29.2584C64.5723 31.9636 64.3693 35.6588 62.9599 39.2942C61.5516 42.9243 58.2382 45.2679 54.5942 45.6301C55.6098 46.7471 56.8974 47.6504 58.4048 48.2299C63.5637 50.2129 69.3711 47.6525 71.3626 42.5165C73.3541 37.3799 70.7826 31.5999 65.6227 29.6174C64.7052 29.2647 64.1642 29.1523 63.5431 29.1523C63.1403 29.1523 62.7042 29.1996 62.11 29.2584Z" fill="white"/>
</mask>
<g mask="url(#mask15)">
<path fill-rule="evenodd" clip-rule="evenodd" d="M46.4604 46.8986C47.477 48.0156 48.7636 48.9189 50.271 49.4984C55.4309 51.4814 61.2367 48.921 63.2288 43.785C65.2213 38.6485 62.6493 32.8689 57.4894 30.8859C55.9761 30.3043 54.408 30.1138 52.8969 30.2639C55.3592 32.9692 56.2356 36.9274 54.8256 40.5627C53.4178 44.1934 50.1044 46.5365 46.4604 46.8986Z" fill="#8A8AE2"/>
</g>
<path fill-rule="evenodd" clip-rule="evenodd" d="M72.0024 58.1452C72.0024 62.6708 75.6839 66.3397 80.2295 66.3465H80.23C84.754 66.3534 88.4307 62.7159 88.4523 58.2118C88.4929 49.7591 88.5509 37.7617 88.5509 37.7617L72.0024 37.7685V58.1452Z" fill="#DBDBF3"/>
<mask id="mask16" mask-type="alpha" maskUnits="userSpaceOnUse" x="72" y="37" width="17" height="30">
<path d="M72.0027 37.7691V58.1457C72.0027 62.6713 75.6841 66.3402 80.2292 66.3471H80.2297C84.7537 66.3539 88.4309 62.7159 88.4525 58.2118C88.4931 49.7596 88.5511 37.7617 88.5511 37.7617L72.0027 37.7691Z" fill="white"/>
</mask>
<g mask="url(#mask16)">
<path fill-rule="evenodd" clip-rule="evenodd" d="M64.304 46.3148C64.304 49.5329 65.5879 52.6187 67.8736 54.894C70.1588 57.1689 73.2592 58.4475 76.4913 58.4475H76.4919C79.7246 58.4475 82.8244 57.1689 85.1101 54.894C87.3953 52.6187 88.6792 49.5329 88.6792 46.3148V23.5625H64.304V46.3148Z" fill="#C4C4EB"/>
</g>
<path fill-rule="evenodd" clip-rule="evenodd" d="M88.8639 5.57146C78.7656 0.903642 65.8548 7.2175 60.0505 19.6615C54.2458 32.1061 57.7316 45.9988 67.8289 50.6661C77.9277 55.3339 90.8385 49.02 96.6433 36.576C102.447 24.1315 98.9612 10.2388 88.8639 5.57146Z" fill="#DBDBF3"/>
<mask id="mask17" mask-type="alpha" maskUnits="userSpaceOnUse" x="57" y="4" width="43" height="49">
<path d="M60.0503 19.6617C54.2456 32.1063 57.7314 45.999 67.8286 50.6663C77.9275 55.3341 90.8388 49.0202 96.643 36.5762C102.447 24.1316 98.9609 10.2389 88.8636 5.57165C86.6064 4.52817 84.2073 4.03373 81.7797 4.0332C73.3471 4.03268 64.5574 9.99907 60.0503 19.6617Z" fill="white"/>
</mask>
<g mask="url(#mask17)">
<path fill-rule="evenodd" clip-rule="evenodd" d="M89.1246 25.274L59.5593 16.1777L59.601 18.6935C59.601 18.6935 72.0525 23.512 79.5203 26.402C82.7446 27.6497 84.7065 30.9181 84.2821 34.3362L89.1246 25.274Z" fill="#CDCDEE"/>
</g>
<mask id="mask18" mask-type="alpha" maskUnits="userSpaceOnUse" x="57" y="4" width="43" height="49">
<path d="M60.0503 19.6617C54.2456 32.1063 57.7314 45.999 67.8286 50.6663C77.9275 55.3341 90.8388 49.0202 96.643 36.5762C102.447 24.1316 98.9609 10.2389 88.8636 5.57165C86.6064 4.52817 84.2073 4.03373 81.7797 4.0332C73.3471 4.03268 64.5574 9.99907 60.0503 19.6617Z" fill="white"/>
</mask>
<g mask="url(#mask18)">
<path fill-rule="evenodd" clip-rule="evenodd" d="M88.7956 38.1504C88.7956 38.1504 88.2947 52.2887 69.4858 51.8783L75.4688 56.301L98.0087 53.1118L97.9681 40.9948L88.7956 38.1504Z" fill="#CDCDEE"/>
</g>
<mask id="mask19" mask-type="alpha" maskUnits="userSpaceOnUse" x="57" y="4" width="43" height="49">
<path d="M60.0503 19.6617C54.2456 32.1063 57.7314 45.999 67.8286 50.6663C77.9275 55.3341 90.8388 49.0202 96.643 36.5762C102.447 24.1316 98.9609 10.2389 88.8636 5.57165C86.6064 4.52817 84.2073 4.03373 81.7797 4.0332C73.3471 4.03268 64.5574 9.99907 60.0503 19.6617Z" fill="white"/>
</mask>
<g mask="url(#mask19)">
<path fill-rule="evenodd" clip-rule="evenodd" d="M84.8214 0.508609C89.6354 -0.419916 59.1511 16.9449 59.1511 16.9449L75.66 22.8751C75.66 22.8751 82.1149 20.2423 86.1243 23.6656L82.803 32.7046C82.5842 33.9492 83.3983 35.1412 84.6405 35.3963H84.6411C85.2843 35.5285 85.9534 35.3957 86.4971 35.0283C87.0407 34.6604 87.1678 34.2499 87.5242 33.4458C90.5592 26.5981 90.4669 26.5582 90.4669 26.5582C90.769 26.7115 91.0727 26.8569 91.3796 26.9949C89.2668 30.7085 88.6114 35.3763 89.9175 40.1082C92.5206 49.5425 106.404 43.7294 104.561 37.0518C103.75 34.1166 84.2419 3.18186 84.8214 0.508609Z" fill="#6969DB"/>
</g>
<mask id="mask20" mask-type="alpha" maskUnits="userSpaceOnUse" x="57" y="4" width="43" height="49">
<path d="M60.0503 19.6617C54.2456 32.1063 57.7314 45.999 67.8286 50.6663C77.9275 55.3341 90.8388 49.0202 96.643 36.5762C102.447 24.1316 98.9609 10.2389 88.8636 5.57165C86.6064 4.52817 84.2073 4.03373 81.7797 4.0332C73.3471 4.03268 64.5574 9.99907 60.0503 19.6617Z" fill="white"/>
</mask>
<g mask="url(#mask20)">
<path fill-rule="evenodd" clip-rule="evenodd" d="M89.6276 -0.681283C84.5194 1.42194 82.8711 9.13988 85.9477 16.5429C89.0233 23.9459 95.6685 28.2489 100.776 26.1452C105.883 24.0419 107.532 16.324 104.456 8.921C101.378 1.51799 94.7347 -2.7845 89.6276 -0.681283Z" fill="#7A7ADF"/>
</g>
<mask id="mask21" mask-type="alpha" maskUnits="userSpaceOnUse" x="57" y="4" width="43" height="49">
<path d="M60.0503 19.6617C54.2456 32.1063 57.7314 45.999 67.8286 50.6663C77.9275 55.3341 90.8388 49.0202 96.643 36.5762C102.447 24.1316 98.9609 10.2389 88.8636 5.57165C86.6064 4.52817 84.2073 4.03373 81.7797 4.0332C73.3471 4.03268 64.5574 9.99907 60.0503 19.6617Z" fill="white"/>
</mask>
<g mask="url(#mask21)">
<path fill-rule="evenodd" clip-rule="evenodd" d="M76.7053 35.2815C75.1245 34.8736 73.685 35.207 73.4926 36.0258C73.3001 36.8451 74.4274 37.8414 76.0082 38.2492C77.5884 38.6576 79.0274 38.3243 79.2204 37.5049C79.4128 36.6861 78.2855 35.6898 76.7053 35.2815Z" fill="#CDCDEE"/>
</g>
<mask id="mask22" mask-type="alpha" maskUnits="userSpaceOnUse" x="57" y="4" width="43" height="49">
<path d="M60.0503 19.6617C54.2456 32.1063 57.7314 45.999 67.8286 50.6663C77.9275 55.3341 90.8388 49.0202 96.643 36.5762C102.447 24.1316 98.9609 10.2389 88.8636 5.57165C86.6064 4.52817 84.2073 4.03373 81.7797 4.0332C73.3471 4.03268 64.5574 9.99907 60.0503 19.6617Z" fill="white"/>
</mask>
<g mask="url(#mask22)">
<path fill-rule="evenodd" clip-rule="evenodd" d="M57.7206 29.3166C56.1399 28.9088 54.701 29.2421 54.508 30.0609C54.3155 30.8803 55.4428 31.8765 57.0231 32.2849C58.6028 32.6927 60.0427 32.3594 60.2352 31.5401C60.4271 30.7212 59.3009 29.725 57.7206 29.3166Z" fill="#CDCDEE"/>
</g>
<mask id="mask23" mask-type="alpha" maskUnits="userSpaceOnUse" x="57" y="4" width="43" height="49">
<path d="M60.0503 19.6617C54.2456 32.1063 57.7314 45.999 67.8286 50.6663C77.9275 55.3341 90.8388 49.0202 96.643 36.5762C102.447 24.1316 98.9609 10.2389 88.8636 5.57165C86.6064 4.52817 84.2073 4.03373 81.7797 4.0332C73.3471 4.03268 64.5574 9.99907 60.0503 19.6617Z" fill="white"/>
</mask>
<g mask="url(#mask23)">
<path fill-rule="evenodd" clip-rule="evenodd" d="M73.4071 29.6091C72.5545 29.7661 72.0299 30.5618 72.2355 31.3848C72.4412 32.2084 73.3012 32.7495 74.1538 32.5926C75.0069 32.4362 75.532 31.6399 75.3264 30.8169C75.1197 29.9933 74.2603 29.4522 73.4071 29.6091Z" fill="#BDB9E5"/>
</g>
<mask id="mask24" mask-type="alpha" maskUnits="userSpaceOnUse" x="72" y="29" width="4" height="4">
<path d="M73.4073 29.6113C72.5547 29.7682 72.0295 30.5639 72.2357 31.387C72.4413 32.2105 73.3008 32.7517 74.1539 32.5947C75.0071 32.4383 75.5322 31.6421 75.3266 30.8185C75.1441 30.091 74.4518 29.584 73.7047 29.584C73.6061 29.584 73.5064 29.5929 73.4073 29.6113Z" fill="white"/>
</mask>
<g mask="url(#mask24)">
<path fill-rule="evenodd" clip-rule="evenodd" d="M73.5169 30.0464C72.9132 30.1577 72.542 30.7204 72.688 31.303C72.833 31.8856 73.4415 32.2683 74.0447 32.1575C74.6484 32.0462 75.0202 31.4836 74.8741 30.9009C74.7281 30.3183 74.1206 29.9357 73.5169 30.0464Z" fill="#5A4BE2"/>
</g>
<mask id="mask25" mask-type="alpha" maskUnits="userSpaceOnUse" x="72" y="30" width="3" height="3">
<path d="M73.5171 30.0468C72.9134 30.158 72.5422 30.7207 72.6883 31.3033C72.8333 31.886 73.4417 32.2686 74.0449 32.1579C74.6481 32.0466 75.0199 31.4834 74.8743 30.9013C74.7452 30.3864 74.2553 30.0273 73.7265 30.0273C73.6574 30.0273 73.5873 30.0336 73.5171 30.0468Z" fill="white"/>
</mask>
<g mask="url(#mask25)">
<path fill-rule="evenodd" clip-rule="evenodd" d="M73.2554 29.5542C72.6517 29.6655 72.2805 30.2282 72.4266 30.8108C72.5716 31.3934 73.18 31.7761 73.7832 31.6653C74.3869 31.5541 74.7587 30.9914 74.6126 30.4088C74.4671 29.8261 73.8592 29.4435 73.2554 29.5542Z" fill="#7364E2"/>
</g>
<mask id="mask26" mask-type="alpha" maskUnits="userSpaceOnUse" x="72" y="30" width="3" height="3">
<path d="M73.5171 30.0468C72.9134 30.158 72.5422 30.7207 72.6883 31.3033C72.8333 31.886 73.4417 32.2686 74.0449 32.1579C74.6481 32.0466 75.0199 31.4834 74.8743 30.9013C74.7452 30.3864 74.2553 30.0273 73.7265 30.0273C73.6574 30.0273 73.5873 30.0336 73.5171 30.0468Z" fill="white"/>
</mask>
<g mask="url(#mask26)">
<path fill-rule="evenodd" clip-rule="evenodd" d="M73.1629 30.3045C73.0448 30.326 72.9715 30.4367 73.0005 30.5512C73.029 30.6651 73.1481 30.7401 73.2662 30.7186C73.3849 30.6966 73.4582 30.5863 73.4292 30.4719C73.4007 30.358 73.2815 30.2829 73.1629 30.3045Z" fill="white"/>
</g>
<mask id="mask27" mask-type="alpha" maskUnits="userSpaceOnUse" x="57" y="4" width="43" height="49">
<path d="M60.0503 19.6617C54.2456 32.1063 57.7314 45.999 67.8286 50.6663C77.9275 55.3341 90.8388 49.0202 96.643 36.5762C102.447 24.1316 98.9609 10.2389 88.8636 5.57165C86.6064 4.52817 84.2073 4.03373 81.7797 4.0332C73.3471 4.03268 64.5574 9.99907 60.0503 19.6617Z" fill="white"/>
</mask>
<g mask="url(#mask27)">
<path fill-rule="evenodd" clip-rule="evenodd" d="M61.9364 26.6343C61.0833 26.7913 60.5581 27.587 60.7643 28.4106C60.9699 29.2341 61.8299 29.7753 62.6825 29.6183C63.5356 29.4614 64.0608 28.6657 63.8546 27.8421C63.6484 27.0191 62.789 26.4779 61.9364 26.6343Z" fill="#BDB9E5"/>
</g>
<mask id="mask28" mask-type="alpha" maskUnits="userSpaceOnUse" x="60" y="26" width="4" height="4">
<path d="M61.9366 26.6342C61.0835 26.7911 60.5584 27.5869 60.7645 28.4104C60.9702 29.2345 61.8301 29.7751 62.6827 29.6182C63.5359 29.4612 64.061 28.6655 63.8543 27.842C63.6724 27.1145 62.9796 26.6074 62.233 26.6074C62.1349 26.6074 62.0358 26.6158 61.9366 26.6342Z" fill="white"/>
</mask>
<g mask="url(#mask28)">
<path fill-rule="evenodd" clip-rule="evenodd" d="M62.0456 27.0699C61.4418 27.1806 61.0706 27.7438 61.2162 28.3264C61.3617 28.9085 61.9702 29.2917 62.5734 29.1804C63.1771 29.0697 63.5488 28.5065 63.4028 27.9244C63.2567 27.3418 62.6493 26.9591 62.0456 27.0699Z" fill="#5A4BE2"/>
</g>
<mask id="mask29" mask-type="alpha" maskUnits="userSpaceOnUse" x="61" y="27" width="3" height="3">
<path d="M62.0459 27.0716C61.4421 27.1824 61.0715 27.7456 61.2165 28.3282C61.362 28.9103 61.9705 29.2935 62.5737 29.1822C63.1779 29.0715 63.5486 28.5082 63.4031 27.9261C63.2739 27.4112 62.7846 27.0527 62.2563 27.0527C62.1867 27.0527 62.116 27.059 62.0459 27.0716Z" fill="white"/>
</mask>
<g mask="url(#mask29)">
<path fill-rule="evenodd" clip-rule="evenodd" d="M61.7843 26.5778C61.1806 26.6886 60.8094 27.2518 60.9549 27.8339C61.101 28.4165 61.7089 28.7997 62.3121 28.6884C62.9159 28.5776 63.2876 28.0144 63.1415 27.4323C62.9955 26.8497 62.3881 26.4665 61.7843 26.5778Z" fill="#7364E2"/>
</g>
<mask id="mask30" mask-type="alpha" maskUnits="userSpaceOnUse" x="61" y="27" width="3" height="3">
<path d="M62.0459 27.0716C61.4421 27.1824 61.0715 27.7456 61.2165 28.3282C61.362 28.9103 61.9705 29.2935 62.5737 29.1822C63.1779 29.0715 63.5486 28.5082 63.4031 27.9261C63.2739 27.4112 62.7846 27.0527 62.2563 27.0527C62.1867 27.0527 62.116 27.059 62.0459 27.0716Z" fill="white"/>
</mask>
<g mask="url(#mask30)">
<path fill-rule="evenodd" clip-rule="evenodd" d="M61.6917 27.3281C61.5736 27.3496 61.5003 27.4598 61.5293 27.5742C61.5578 27.6887 61.6769 27.7637 61.795 27.7417C61.9137 27.7202 61.9864 27.6099 61.958 27.4955C61.9295 27.3811 61.8098 27.306 61.6917 27.3281Z" fill="white"/>
</g>
<mask id="mask31" mask-type="alpha" maskUnits="userSpaceOnUse" x="57" y="4" width="43" height="49">
<path d="M60.0503 19.6617C54.2456 32.1063 57.7314 45.999 67.8286 50.6663C77.9275 55.3341 90.8388 49.0202 96.643 36.5762C102.447 24.1316 98.9609 10.2389 88.8636 5.57165C86.6064 4.52817 84.2073 4.03373 81.7797 4.0332C73.3471 4.03268 64.5574 9.99907 60.0503 19.6617Z" fill="white"/>
</mask>
<g mask="url(#mask31)">
<path d="M77.9505 28.8418C78.3343 28.0703 77.5682 26.7785 76.4246 26.7617" stroke="#A5A5E7" stroke-width="0.529412" stroke-linecap="round" stroke-linejoin="round"/>
</g>
<mask id="mask32" mask-type="alpha" maskUnits="userSpaceOnUse" x="57" y="4" width="43" height="49">
<path d="M60.0503 19.6617C54.2456 32.1063 57.7314 45.999 67.8286 50.6663C77.9275 55.3341 90.8388 49.0202 96.643 36.5762C102.447 24.1316 98.9609 10.2389 88.8636 5.57165C86.6064 4.52817 84.2073 4.03373 81.7797 4.0332C73.3471 4.03268 64.5574 9.99907 60.0503 19.6617Z" fill="white"/>
</mask>
<g mask="url(#mask32)">
<path d="M65.0225 43.9367C64.8237 43.0989 63.0014 42.52 62.2659 43.4228" stroke="#A5A5E7" stroke-width="0.529412" stroke-linecap="round" stroke-linejoin="round"/>
</g>
<mask id="mask33" mask-type="alpha" maskUnits="userSpaceOnUse" x="57" y="4" width="43" height="49">
<path d="M60.0503 19.6617C54.2456 32.1063 57.7314 45.999 67.8286 50.6663C77.9275 55.3341 90.8388 49.0202 96.643 36.5762C102.447 24.1316 98.9609 10.2389 88.8636 5.57165C86.6064 4.52817 84.2073 4.03373 81.7797 4.0332C73.3471 4.03268 64.5574 9.99907 60.0503 19.6617Z" fill="white"/>
</mask>
<g mask="url(#mask33)">
<path d="M62.0163 24.0252C61.1547 23.6982 60.135 24.2935 59.7395 25.3548" stroke="#A5A5E7" stroke-width="0.529412" stroke-linecap="round" stroke-linejoin="round"/>
</g>
<path fill-rule="evenodd" clip-rule="evenodd" d="M106.273 43.1417C105.257 44.2586 103.97 45.1625 102.462 45.7414C97.3027 47.7245 91.4969 45.1646 89.5049 40.028C87.5128 34.8915 90.0843 29.112 95.2442 27.1289C96.757 26.5479 97.2458 26.6198 98.7569 26.7699C96.2946 29.4757 96.4981 33.1704 97.9075 36.8058C99.3164 40.4364 102.629 42.7795 106.273 43.1417Z" fill="#6969DB"/>
<mask id="mask34" mask-type="alpha" maskUnits="userSpaceOnUse" x="88" y="26" width="19" height="21">
<path d="M95.244 27.1286C90.0846 29.1116 87.5131 34.8911 89.5051 40.0277C91.4966 45.1642 97.303 47.7241 102.462 45.7411C103.97 45.1621 105.257 44.2577 106.273 43.1413C102.628 42.7786 99.3161 40.436 97.9072 36.8054C96.4983 33.17 96.2948 29.4759 98.7572 26.7696C98.1635 26.7108 97.7279 26.6641 97.3256 26.6641C96.704 26.6641 96.163 26.7759 95.244 27.1286Z" fill="white"/>
</mask>
<g mask="url(#mask34)">
<path fill-rule="evenodd" clip-rule="evenodd" d="M114.407 44.4084C113.391 45.5253 112.104 46.4292 110.596 47.0086C105.437 48.9911 99.6309 46.4313 97.6383 41.2947C95.6474 36.1587 98.2189 30.3787 103.378 28.3956C104.891 27.8146 106.46 27.6235 107.971 27.7736C105.508 30.4794 104.632 34.4371 106.042 38.073C107.45 41.7031 110.763 44.0467 114.407 44.4084Z" fill="#8A8AE2"/>
</g>
<path fill-rule="evenodd" clip-rule="evenodd" d="M68.6274 35.9312C67.8845 36.7012 66.7535 37.0571 65.6462 36.7616C64.5379 36.466 63.7375 35.5953 63.4802 34.5586C63.2224 33.5157 62.162 32.8779 61.1154 33.1351C60.0677 33.3923 59.4271 34.4473 59.6854 35.4903C60.2717 37.858 62.1024 39.8453 64.6344 40.5203C67.1658 41.1958 69.7489 40.3859 71.4462 38.627C72.1939 37.8528 72.1691 36.6204 71.3914 35.8761C70.6131 35.1323 69.3751 35.157 68.6274 35.9312Z" fill="#6969DB"/>
<mask id="mask35" mask-type="alpha" maskUnits="userSpaceOnUse" x="59" y="33" width="13" height="8">
<path d="M61.1151 33.1353C60.0674 33.3925 59.4267 34.4476 59.6856 35.4905C60.2719 37.8583 62.1021 39.8455 64.6341 40.5205C67.165 41.1955 69.7486 40.3861 71.4459 38.6267C72.1936 37.853 72.1688 36.6206 71.3916 35.8763C70.6128 35.1325 69.3748 35.1572 68.6271 35.9314C67.8842 36.7014 66.7532 37.0573 65.6459 36.7618C64.5376 36.4663 63.7372 35.5955 63.4804 34.5583C63.2611 33.6723 62.4617 33.0781 61.5838 33.0781C61.4288 33.0781 61.2722 33.0965 61.1151 33.1353Z" fill="white"/>
</mask>
<g mask="url(#mask35)">
<path fill-rule="evenodd" clip-rule="evenodd" d="M65.3226 37.7292C68.5938 38.6021 70.8274 40.8806 70.3069 42.8148C69.786 44.749 66.7078 45.6103 63.436 44.738C60.1648 43.8651 57.9313 41.5866 58.4517 39.6524C58.9722 37.7187 62.0509 36.8568 65.3226 37.7292Z" fill="#C8C8F0"/>
</g>
<mask id="mask36" mask-type="alpha" maskUnits="userSpaceOnUse" x="59" y="33" width="13" height="8">
<path d="M61.1151 33.1353C60.0674 33.3925 59.4267 34.4476 59.6856 35.4905C60.2719 37.8583 62.1021 39.8455 64.6341 40.5205C67.165 41.1955 69.7486 40.3861 71.4459 38.6267C72.1936 37.853 72.1688 36.6206 71.3916 35.8763C70.6128 35.1325 69.3748 35.1572 68.6271 35.9314C67.8842 36.7014 66.7532 37.0573 65.6459 36.7618C64.5376 36.4663 63.7372 35.5955 63.4804 34.5583C63.2611 33.6723 62.4617 33.0781 61.5838 33.0781C61.4288 33.0781 61.2722 33.0965 61.1151 33.1353Z" fill="white"/>
</mask>
<g mask="url(#mask36)">
<path fill-rule="evenodd" clip-rule="evenodd" d="M68.8121 34.879L66.3487 34.2402C66.3487 34.2402 66.0345 35.4013 65.7761 36.3561C65.688 36.6825 65.7334 37.0305 65.9032 37.3234C66.0724 37.6163 66.3524 37.8299 66.6804 37.9176H66.6809C67.3574 38.0981 68.0534 37.6987 68.2342 37.0248C68.4937 36.0616 68.8121 34.879 68.8121 34.879Z" fill="white"/>
</g>
<mask id="mask37" mask-type="alpha" maskUnits="userSpaceOnUse" x="59" y="33" width="13" height="8">
<path d="M61.1151 33.1353C60.0674 33.3925 59.4267 34.4476 59.6856 35.4905C60.2719 37.8583 62.1021 39.8455 64.6341 40.5205C67.165 41.1955 69.7486 40.3861 71.4459 38.6267C72.1936 37.853 72.1688 36.6206 71.3916 35.8763C70.6128 35.1325 69.3748 35.1572 68.6271 35.9314C67.8842 36.7014 66.7532 37.0573 65.6459 36.7618C64.5376 36.4663 63.7372 35.5955 63.4804 34.5583C63.2611 33.6723 62.4617 33.0781 61.5838 33.0781C61.4288 33.0781 61.2722 33.0965 61.1151 33.1353Z" fill="white"/>
</mask>
<g mask="url(#mask37)">
<path fill-rule="evenodd" clip-rule="evenodd" d="M66.3468 34.2208L63.8834 33.582C63.8834 33.582 63.5686 34.7431 63.3108 35.6979C63.2222 36.0243 63.2681 36.3723 63.4368 36.6652C63.6071 36.9581 63.8866 37.1717 64.2151 37.2594C64.8916 37.4399 65.587 37.0405 65.7684 36.3666C66.0284 35.4034 66.3468 34.2208 66.3468 34.2208Z" fill="white"/>
</g>
<mask id="mask38" mask-type="alpha" maskUnits="userSpaceOnUse" x="59" y="33" width="13" height="8">
<path d="M61.1151 33.1353C60.0674 33.3925 59.4267 34.4476 59.6856 35.4905C60.2719 37.8583 62.1021 39.8455 64.6341 40.5205C67.165 41.1955 69.7486 40.3861 71.4459 38.6267C72.1936 37.853 72.1688 36.6206 71.3916 35.8763C70.6128 35.1325 69.3748 35.1572 68.6271 35.9314C67.8842 36.7014 66.7532 37.0573 65.6459 36.7618C64.5376 36.4663 63.7372 35.5955 63.4804 34.5583C63.2611 33.6723 62.4617 33.0781 61.5838 33.0781C61.4288 33.0781 61.2722 33.0965 61.1151 33.1353Z" fill="white"/>
</mask>
<g mask="url(#mask38)">
<path fill-rule="evenodd" clip-rule="evenodd" d="M64.2494 32.1993L61.786 31.5605C61.786 31.5605 61.4717 32.7216 61.2134 33.6764C61.1248 34.0028 61.1707 34.3508 61.3399 34.6437C61.5102 34.9366 61.7891 35.1502 62.1176 35.2379C62.7941 35.4185 63.4901 35.019 63.6715 34.3451C63.9309 33.3819 64.2494 32.1993 64.2494 32.1993Z" fill="white"/>
</g>
<mask id="mask39" mask-type="alpha" maskUnits="userSpaceOnUse" x="59" y="33" width="13" height="8">
<path d="M61.1151 33.1353C60.0674 33.3925 59.4267 34.4476 59.6856 35.4905C60.2719 37.8583 62.1021 39.8455 64.6341 40.5205C67.165 41.1955 69.7486 40.3861 71.4459 38.6267C72.1936 37.853 72.1688 36.6206 71.3916 35.8763C70.6128 35.1325 69.3748 35.1572 68.6271 35.9314C67.8842 36.7014 66.7532 37.0573 65.6459 36.7618C64.5376 36.4663 63.7372 35.5955 63.4804 34.5583C63.2611 33.6723 62.4617 33.0781 61.5838 33.0781C61.4288 33.0781 61.2722 33.0965 61.1151 33.1353Z" fill="white"/>
</mask>
<g mask="url(#mask39)">
<path fill-rule="evenodd" clip-rule="evenodd" d="M71.6478 34.1734L69.1844 33.5352C69.1844 33.5352 68.8702 34.6962 68.6118 35.651C68.5237 35.9769 68.5691 36.3255 68.7389 36.6183C68.9086 36.9112 69.1881 37.1249 69.5161 37.2125H69.5166C70.1931 37.3931 70.8891 36.9931 71.0699 36.3197C71.3294 35.3565 71.6478 34.1734 71.6478 34.1734Z" fill="white"/>
</g>
<path fill-rule="evenodd" clip-rule="evenodd" d="M85.8518 39.3055C86.1397 39.4881 86.4439 39.6519 86.7635 39.7936C90.0415 41.247 93.7472 39.8902 95.0332 36.7666C96.3192 33.6425 94.7021 29.9268 91.424 28.4734C91.104 28.3317 90.7797 28.2167 90.4538 28.127L85.8518 39.3055Z" fill="#D7D7F3"/>
<mask id="mask40" mask-type="alpha" maskUnits="userSpaceOnUse" x="85" y="28" width="11" height="13">
<path d="M85.8521 39.3055C86.1394 39.4881 86.4437 39.6519 86.7632 39.7936C90.0418 41.247 93.7469 39.8902 95.0329 36.7661C96.3189 33.6425 94.7023 29.9268 91.4237 28.4734C91.1037 28.3317 90.7794 28.2162 90.4536 28.127" fill="white"/>
</mask>
<g mask="url(#mask40)">
<path fill-rule="evenodd" clip-rule="evenodd" d="M90.3567 31.0659C88.5804 30.2785 86.5725 31.0139 85.876 32.7067C85.1789 34.3994 86.0553 36.4129 87.8316 37.2008C89.6075 37.9881 91.6159 37.2527 92.3124 35.56C93.0095 33.8672 92.1331 31.8532 90.3567 31.0659Z" fill="#BCBCEE"/>
</g>
<path fill-rule="evenodd" clip-rule="evenodd" d="M94.5882 27.2773C94.5882 27.2773 108.341 32.5855 113.511 34.5811C114.023 34.779 114.436 35.1716 114.658 35.6724C114.88 36.1731 114.893 36.7411 114.695 37.2518V37.2523C114.496 37.7625 114.101 38.1735 113.598 38.3944C113.095 38.6154 112.524 38.6285 112.011 38.4307C106.841 36.435 93.0886 31.1274 93.0886 31.1274L94.5882 27.2773Z" fill="#E1E1F6"/>
<mask id="mask41" mask-type="alpha" maskUnits="userSpaceOnUse" x="93" y="27" width="22" height="12">
<path d="M93.0889 31.1274C93.0889 31.1274 106.841 36.435 112.011 38.4307C112.524 38.628 113.095 38.6154 113.599 38.3944C114.102 38.1735 114.496 37.7625 114.695 37.2523V37.2518C114.894 36.7411 114.88 36.1731 114.659 35.6724C114.436 35.1716 114.024 34.779 113.511 34.5811C108.341 32.5855 94.5884 27.2773 94.5884 27.2773L93.0889 31.1274Z" fill="white"/>
</mask>
<g mask="url(#mask41)">
<path fill-rule="evenodd" clip-rule="evenodd" d="M95.8196 26.0527C95.8196 26.0527 109.572 31.3609 114.742 33.356C115.254 33.5539 115.668 33.9465 115.889 34.4473C116.111 34.9485 116.125 35.5164 115.926 36.0266C115.926 36.0272 115.926 36.0272 115.926 36.0272C115.727 36.5379 115.332 36.9489 114.829 37.1698C114.326 37.3908 113.755 37.4034 113.242 37.2055C108.072 35.2104 94.3201 29.9023 94.3201 29.9023L95.8196 26.0527Z" fill="#EDEDFA"/>
</g>
<path fill-rule="evenodd" clip-rule="evenodd" d="M98.0526 33.05C98.5108 32.2385 98.9163 31.3867 99.2648 30.4954C103.274 20.2407 98.1654 8.67532 87.8641 4.68408C77.5628 0.693363 68.1784 5.79999 62.3056 15.1225C61.8332 15.8726 61.1583 17.1612 60.553 18.5217L98.0526 33.05ZM77.4405 21.681C77.5902 21.4159 77.7226 21.1372 77.837 20.8453C79.1478 17.4918 77.4779 13.709 74.1081 12.4036C70.7388 11.0987 66.9388 12.7616 65.628 16.1156C65.5141 16.4069 65.4223 16.7019 65.3527 16.9979L77.4405 21.681Z" fill="#E1E1F6"/>
<mask id="mask42" mask-type="alpha" maskUnits="userSpaceOnUse" x="60" y="3" width="41" height="31">
<path d="M62.3056 15.1228C61.8327 15.8729 61.1583 17.161 60.553 18.522L98.0526 33.0503C98.5108 32.2389 98.9163 31.387 99.2648 30.4957C103.274 20.2405 98.1655 8.67565 87.8641 4.68441C85.4534 3.75011 83.0923 3.31445 80.8155 3.31445C73.362 3.31445 66.8043 7.98175 62.3056 15.1228ZM65.3527 16.9983C65.4223 16.7022 65.5141 16.4072 65.6275 16.1159C66.9388 12.7619 70.7388 11.0991 74.1076 12.4034C77.4774 13.7093 79.1478 17.4922 77.837 20.8457C77.7231 21.1375 77.5902 21.4162 77.4405 21.6813L65.3527 16.9983Z" fill="white"/>
</mask>
<g mask="url(#mask42)">
<path fill-rule="evenodd" clip-rule="evenodd" d="M55.6556 14.8145L100.44 32.2811L98.9736 36.0073L54.1892 18.5406L55.6556 14.8145Z" fill="#E1E1F6"/>
</g>
<mask id="mask43" mask-type="alpha" maskUnits="userSpaceOnUse" x="60" y="3" width="41" height="31">
<path d="M62.3056 15.1228C61.8327 15.8729 61.1583 17.161 60.553 18.522L98.0526 33.0503C98.5108 32.2389 98.9163 31.387 99.2648 30.4957C103.274 20.2405 98.1655 8.67565 87.8641 4.68441C85.4534 3.75011 83.0923 3.31445 80.8155 3.31445C73.362 3.31445 66.8043 7.98175 62.3056 15.1228ZM65.3527 16.9983C65.4223 16.7022 65.5141 16.4072 65.6275 16.1159C66.9388 12.7619 70.7388 11.0991 74.1076 12.4034C77.4774 13.7093 79.1478 17.4922 77.837 20.8457C77.7231 21.1375 77.5902 21.4162 77.4405 21.6813" fill="white"/>
</mask>
<g mask="url(#mask43)">
<path fill-rule="evenodd" clip-rule="evenodd" d="M55.5254 15.0781L93.421 29.5839C93.421 29.5839 100.47 11.8317 82.0203 4.68378C66.4405 -1.35189 55.5254 15.0781 55.5254 15.0781Z" fill="#EDEDFA"/>
</g>
<mask id="mask44" mask-type="alpha" maskUnits="userSpaceOnUse" x="61" y="3" width="34" height="27">
<path d="M62.3055 15.1217C61.9865 15.6282 61.5752 16.3793 61.1555 17.2328L93.4209 29.5834C93.4209 29.5834 100.469 11.8307 82.0202 4.68328C80.595 4.1311 79.2067 3.7663 77.8643 3.56055C71.6382 4.61137 66.1999 8.93906 62.3055 15.1217ZM65.3526 16.9971C65.4222 16.7011 65.514 16.4061 65.6273 16.1148C66.9386 12.7608 70.7387 11.0979 74.1074 12.4023C77.4772 13.7082 79.1476 17.491 77.8368 20.8445C77.723 21.1364 77.5901 21.4151 77.4403 21.6802L65.3526 16.9971Z" fill="white"/>
</mask>
<g mask="url(#mask44)">
<path fill-rule="evenodd" clip-rule="evenodd" d="M49.8118 14.8145L94.5962 32.2811L93.1299 36.0073L48.3455 18.5406L49.8118 14.8145Z" fill="#E1E1F6"/>
</g>
<path fill-rule="evenodd" clip-rule="evenodd" d="M72.1672 11.9316C70.7999 11.7017 69.4596 11.1841 68.2369 10.3622C64.9973 8.18389 63.4445 4.4446 63.9059 0.828125C62.5845 1.56402 61.4119 2.61012 60.5071 3.94333C57.4114 8.50565 58.6184 14.7119 63.2014 17.794C67.7839 20.8757 74.0189 19.6742 77.1151 15.1119C77.1557 15.0515 77.1958 14.9911 77.2348 14.9308C76.4992 13.818 75.4215 12.9131 74.0801 12.3935C73.5265 12.1788 72.9612 12.0429 72.3971 11.9804C72.3122 11.9709 72.2362 11.9547 72.1672 11.9316Z" fill="#6969DB"/>
<mask id="mask45" mask-type="alpha" maskUnits="userSpaceOnUse" x="58" y="0" width="20" height="20">
<path d="M60.507 3.94333C57.4114 8.50565 58.6183 14.7119 63.2019 17.7935C67.7844 20.8757 74.0189 19.6737 77.1151 15.1119C77.1557 15.0515 77.1963 14.9911 77.2347 14.9308C76.4992 13.818 75.4215 12.9131 74.0801 12.3935C73.5264 12.1788 72.9612 12.0429 72.397 11.9804C72.3127 11.9709 72.2362 11.9547 72.1671 11.9311C70.7999 11.7017 69.4601 11.1841 68.2368 10.3622C64.9973 8.18389 63.4445 4.44407 63.9058 0.828125C62.585 1.56402 61.4118 2.61012 60.507 3.94333Z" fill="white"/>
</mask>
<g mask="url(#mask45)">
<path fill-rule="evenodd" clip-rule="evenodd" d="M67.1854 -2.12695C65.864 -1.39054 64.6919 -0.344437 63.7871 0.988775C60.6909 5.55109 61.8984 11.7574 66.4814 14.8395C71.064 17.9211 77.2984 16.7196 80.3946 12.1573C81.3026 10.8194 81.8404 9.34025 82.0312 7.84065C78.8312 9.62421 74.7602 9.58905 71.5164 7.40762C68.2768 5.22881 66.724 1.49004 67.1854 -2.12695Z" fill="#7A7ADF"/>
</g>
<path fill-rule="evenodd" clip-rule="evenodd" d="M103.404 63.4262C104.689 64.7872 105.36 66.6122 105.261 68.4782C105.163 70.3447 104.303 72.0889 102.88 73.3082C93.6153 81.2508 75.7792 96.5402 75.7792 96.5402C74.4173 97.7081 72.6456 98.2897 70.8529 98.1564C69.0597 98.0236 67.394 97.1869 66.2203 95.8311V95.8306C65.0476 94.4748 64.4634 92.7107 64.5968 90.926C64.7308 89.1414 65.5712 87.4828 66.9337 86.3149C66.9337 86.3149 85.2359 70.6276 94.2011 62.9427C96.9039 60.6259 100.96 60.8385 103.404 63.4256V63.4262Z" fill="#E9E9FA"/>
<mask id="mask46" mask-type="alpha" maskUnits="userSpaceOnUse" x="64" y="61" width="42" height="38">
<path d="M94.201 62.9426C85.2358 70.627 66.9337 86.3148 66.9337 86.3148C65.5712 87.4827 64.7307 89.1413 64.5973 90.9254C64.4639 92.71 65.0481 94.4747 66.2203 95.8305V95.831C67.394 97.1868 69.0596 98.0234 70.8529 98.1562C72.6456 98.289 74.4178 97.7085 75.7797 96.5401C75.7797 96.5401 93.6152 81.2501 102.88 73.3081C104.303 72.0888 105.163 70.344 105.261 68.4781C105.361 66.6121 104.689 64.7865 103.404 63.426V63.4255C102.095 62.0403 100.325 61.3354 98.5468 61.3359C97.0046 61.3359 95.457 61.8661 94.201 62.9426Z" fill="white"/>
</mask>
<g mask="url(#mask46)">
<path fill-rule="evenodd" clip-rule="evenodd" d="M100.26 59.4025C101.545 60.764 102.217 62.5891 102.117 64.455C102.019 66.321 101.158 68.0657 99.7368 69.2851C90.4721 77.2276 72.636 92.5171 72.636 92.5171C71.2741 93.6844 69.5019 94.266 67.7097 94.1332C65.9165 93.9999 64.2503 93.1632 63.0771 91.8074C61.9045 90.4511 61.3197 88.687 61.4536 86.9029C61.587 85.1183 62.428 83.4596 63.79 82.2918C63.79 82.2918 82.0927 66.6039 91.0574 58.9191C93.7607 56.6022 97.8165 56.8153 100.26 59.4025Z" fill="#F2F2FC"/>
</g>
<mask id="mask47" mask-type="alpha" maskUnits="userSpaceOnUse" x="64" y="61" width="42" height="38">
<path d="M94.201 62.9426C85.2358 70.627 66.9337 86.3148 66.9337 86.3148C65.5712 87.4827 64.7307 89.1413 64.5973 90.9254C64.4639 92.71 65.0481 94.4747 66.2203 95.8305V95.831C67.394 97.1868 69.0596 98.0234 70.8529 98.1562C72.6456 98.289 74.4178 97.7085 75.7797 96.5401C75.7797 96.5401 93.6152 81.2501 102.88 73.3081C104.303 72.0888 105.163 70.344 105.261 68.4781C105.361 66.6121 104.689 64.7865 103.404 63.426V63.4255C102.095 62.0403 100.325 61.3354 98.5468 61.3359C97.0046 61.3359 95.457 61.8661 94.201 62.9426Z" fill="white"/>
</mask>
<g mask="url(#mask47)">
<path fill-rule="evenodd" clip-rule="evenodd" d="M130.223 73.5549L105.932 43.5781L75.3928 68.1024L99.6838 98.0792L130.223 73.5549Z" fill="#6F6FDC"/>
</g>
<mask id="mask48" mask-type="alpha" maskUnits="userSpaceOnUse" x="80" y="61" width="26" height="25">
<path d="M98.5465 61.3359C97.0042 61.3359 95.4567 61.8661 94.2007 62.9426C90.591 66.0368 85.468 70.428 80.6345 74.571L89.1495 85.0781C93.9619 80.9531 99.1249 76.5267 102.88 73.3081C104.302 72.0888 105.162 70.344 105.261 68.4781C105.36 66.6121 104.689 64.7865 103.403 63.426V63.4255C102.096 62.0409 100.326 61.3359 98.5486 61.3359C98.5481 61.3359 98.5476 61.3359 98.5465 61.3359Z" fill="white"/>
</mask>
<g mask="url(#mask48)">
<path fill-rule="evenodd" clip-rule="evenodd" d="M96.6243 72.5102C98.9743 70.6227 100.475 67.8838 100.797 64.8946C101.118 61.9064 100.233 58.913 98.3374 56.573C91.1712 47.7302 81.1941 35.418 81.1941 35.418L60.9126 51.7047L85.2035 81.6815C85.2035 81.6815 91.1649 76.894 96.6243 72.5102Z" fill="#9F9FE9"/>
</g>
<path fill-rule="evenodd" clip-rule="evenodd" d="M40.9917 50.7972L47.2578 61.1055L53.0652 57.6076L46.7986 47.2988L40.9917 50.7972Z" fill="#DBDBF3"/>
<mask id="mask49" mask-type="alpha" maskUnits="userSpaceOnUse" x="40" y="47" width="14" height="15">
<path d="M40.9917 50.7972L47.2578 61.1055L53.0652 57.6076L46.7986 47.2988" fill="white"/>
</mask>
<g mask="url(#mask49)">
<path fill-rule="evenodd" clip-rule="evenodd" d="M47.2653 49.4202C47.8194 51.0263 47.5268 52.8692 46.3694 54.1216C44.765 55.8579 42.1022 55.8049 40.4276 54.0029C39.3024 52.7926 39.5365 51.3418 40.1371 51.6273C42.4929 52.7474 41.8048 50.5928 43.4093 48.8559C43.9366 48.2859 47.095 50.1571 47.2653 49.4202Z" fill="#C6C6F0"/>
</g>
<path fill-rule="evenodd" clip-rule="evenodd" d="M31.8507 44.4243C31.8908 45.0343 32.4207 45.4967 33.0334 45.4568C33.8222 45.4053 34.9031 45.335 35.839 45.2736C36.2856 45.2447 36.6874 44.9965 36.912 44.6117C37.1366 44.227 37.154 43.7567 36.9584 43.3562C36.8498 43.1352 36.6172 43.0024 36.3705 43.0213C35.6049 43.0811 33.9303 43.2118 32.8298 43.2979C32.2488 43.3431 31.8127 43.8449 31.8507 44.4238V44.4243Z" fill="#CDCDEE"/>
<mask id="mask50" mask-type="alpha" maskUnits="userSpaceOnUse" x="31" y="43" width="7" height="3">
<path d="M36.3705 43.0211C35.6044 43.0809 33.9303 43.2116 32.8299 43.2977C32.2488 43.3429 31.8123 43.8447 31.8508 44.4236V44.4241C31.8908 45.034 32.4202 45.4965 33.0334 45.4566C33.8222 45.4046 34.9031 45.3348 35.8396 45.2734C36.2856 45.2445 36.6874 44.9963 36.912 44.6115C37.1361 44.2268 37.1541 43.7565 36.9579 43.356C36.8572 43.1492 36.6463 43.0195 36.4169 43.0195C36.4016 43.0195 36.3858 43.0201 36.3705 43.0211Z" fill="white"/>
</mask>
<g mask="url(#mask50)">
<path fill-rule="evenodd" clip-rule="evenodd" d="M31.7807 43.6032C31.8197 44.1968 32.3348 44.6461 32.9307 44.6073C33.9957 44.538 35.615 44.4325 36.6806 44.3627C37.2764 44.3238 37.7283 43.8116 37.6893 43.2179V43.2174C37.6503 42.6243 37.1351 42.1744 36.5388 42.2133C35.4737 42.2831 33.8544 42.3886 32.7893 42.4579C32.193 42.4967 31.7417 43.0095 31.7807 43.6027V43.6032Z" fill="#DBDBF3"/>
</g>
<path fill-rule="evenodd" clip-rule="evenodd" d="M39.3797 38.8651C38.9779 38.9717 38.6547 39.2677 38.5139 39.6567C38.3726 40.0461 38.4322 40.4792 38.6731 40.8167C40.1991 42.954 42.904 46.7437 43.5351 47.6281C43.6205 47.7483 43.7523 47.8281 43.8989 47.8491H43.9C44.5475 47.9425 45.1855 47.6276 45.5034 47.0581C45.8208 46.4886 45.7523 45.7831 45.3305 45.285C43.3685 42.9661 40.9061 40.0571 40.0841 39.0856C39.9122 38.8824 39.6375 38.7964 39.3797 38.8651Z" fill="#CDCDEE"/>
<mask id="mask51" mask-type="alpha" maskUnits="userSpaceOnUse" x="38" y="38" width="8" height="10">
<path d="M39.3805 38.8635H39.3799C38.9782 38.97 38.6549 39.2661 38.5142 39.655C38.3734 40.0445 38.4324 40.4775 38.6734 40.815C40.1993 42.9518 42.9042 46.742 43.5354 47.6265C43.6213 47.7467 43.7526 47.8264 43.8992 47.8474H43.9002C44.5477 47.9403 45.1857 47.6259 45.5037 47.0564C45.8211 46.4869 45.7526 45.7815 45.3313 45.2834C43.3688 42.9644 40.9064 40.0555 40.0844 39.0834C39.9515 38.927 39.758 38.8398 39.5582 38.8398C39.4986 38.8398 39.439 38.8477 39.3805 38.8635Z" fill="white"/>
</mask>
<g mask="url(#mask51)">
<path fill-rule="evenodd" clip-rule="evenodd" d="M39.6322 38.4143C39.3021 38.619 39.0717 38.9508 38.9957 39.3303C38.9198 39.7103 39.0058 40.1045 39.2325 40.4194C40.6313 42.3631 43.2793 46.043 43.9194 46.9322C44.0096 47.0571 44.1504 47.1359 44.3043 47.1474H44.3048C44.9929 47.1999 45.6441 46.8325 45.9531 46.2178C46.2621 45.6032 46.1672 44.8642 45.7127 44.3471C43.8546 42.2318 41.5704 39.6321 40.6303 38.5618C40.3793 38.2758 39.9564 38.2133 39.6322 38.4138C39.6322 38.4143 39.6322 38.4143 39.6322 38.4143Z" fill="#DBDBF3"/>
</g>
<path fill-rule="evenodd" clip-rule="evenodd" d="M39.3428 37.1115C38.7464 37.1435 38.2888 37.6505 38.3209 38.2447C38.3531 38.8321 38.3921 39.558 38.4238 40.1459C38.4559 40.7395 38.9658 41.1951 39.5627 41.1631C40.159 41.1311 40.6167 40.6235 40.5845 40.0299C40.5529 39.442 40.5133 38.7161 40.4817 38.1287C40.4495 37.5345 39.9397 37.0789 39.3433 37.111C39.3428 37.111 39.3428 37.1115 39.3428 37.1115Z" fill="#CDCDEE"/>
<mask id="mask52" mask-type="alpha" maskUnits="userSpaceOnUse" x="38" y="37" width="3" height="5">
<path d="M39.3428 37.1109C39.3428 37.1109 39.3428 37.1115 39.3423 37.1115C38.7459 37.1435 38.2888 37.6505 38.3209 38.2447C38.3526 38.8321 38.3921 39.558 38.4238 40.1458C38.4559 40.7395 38.9658 41.1951 39.5621 41.1625H39.5627C40.159 41.1311 40.6167 40.6235 40.5845 40.0298C40.5523 39.442 40.5133 38.7161 40.4812 38.1287C40.4506 37.5545 39.9729 37.1094 39.4024 37.1094C39.3823 37.1094 39.3628 37.1099 39.3428 37.1109Z" fill="white"/>
</mask>
<g mask="url(#mask52)">
<path fill-rule="evenodd" clip-rule="evenodd" d="M40.3604 37.0582C39.764 37.0902 39.3063 37.5973 39.3385 38.1915C39.3754 38.8775 39.4239 39.764 39.4608 40.4506C39.493 41.0442 40.0029 41.4998 40.5992 41.4678H40.5997C41.1961 41.4358 41.6538 40.9282 41.6216 40.3346C41.5842 39.648 41.5362 38.7615 41.4993 38.0755C41.4671 37.4813 40.9572 37.0262 40.3604 37.0582Z" fill="#DBDBF3"/>
</g>
<mask id="mask53" mask-type="alpha" maskUnits="userSpaceOnUse" x="38" y="37" width="3" height="5">
<path d="M39.3428 37.1109C39.3428 37.1109 39.3428 37.1115 39.3423 37.1115C38.7459 37.1435 38.2888 37.6505 38.3209 38.2447C38.3526 38.8321 38.3921 39.558 38.4238 40.1458C38.4559 40.7395 38.9658 41.1951 39.5621 41.1625H39.5627C40.159 41.1311 40.6167 40.6235 40.5845 40.0298C40.5523 39.442 40.5133 38.7161 40.4812 38.1287C40.4506 37.5545 39.9729 37.1094 39.4024 37.1094C39.3823 37.1094 39.3628 37.1099 39.3428 37.1109Z" fill="white"/>
</mask>
<g mask="url(#mask53)">
<path fill-rule="evenodd" clip-rule="evenodd" d="M41.1852 38.4036C41.1577 38.0094 40.8182 37.7066 40.4196 37.7254C40.0209 37.7438 39.7114 38.0766 39.7209 38.4718L41.1852 38.4036Z" fill="#CDCDEE"/>
</g>
<path fill-rule="evenodd" clip-rule="evenodd" d="M31.209 46.6331C31.2317 47.2273 31.7342 47.6907 32.3311 47.6682C33.8101 47.612 36.4486 47.5118 37.9276 47.4556C38.5244 47.433 38.99 46.9328 38.9673 46.3386C38.9441 45.7439 38.4422 45.2805 37.8448 45.3036C36.3663 45.3592 33.7278 45.4595 32.2488 45.5156C31.652 45.5382 31.1864 46.0384 31.209 46.6326V46.6331Z" fill="#CDCDEE"/>
<mask id="mask54" mask-type="alpha" maskUnits="userSpaceOnUse" x="31" y="45" width="8" height="3">
<path d="M37.8451 45.3033C36.3666 45.3589 33.7281 45.4592 32.2486 45.5148C31.6517 45.5379 31.1861 46.0381 31.2088 46.6323V46.6328C31.232 47.227 31.7345 47.6904 32.3308 47.6679C33.8098 47.6117 36.4483 47.5115 37.9278 47.4553C38.5247 47.4327 38.9903 46.9325 38.9676 46.3383C38.9449 45.7578 38.4657 45.3027 37.8878 45.3027C37.8735 45.3027 37.8593 45.3027 37.8451 45.3033Z" fill="white"/>
</mask>
<g mask="url(#mask54)">
<path fill-rule="evenodd" clip-rule="evenodd" d="M31.054 45.8401C31.0767 46.4343 31.5792 46.8977 32.1761 46.8752C33.6551 46.819 36.2935 46.7193 37.7725 46.6631C38.3694 46.6405 38.835 46.1403 38.8123 45.5462V45.5456C38.7891 44.9515 38.2871 44.488 37.6897 44.5106C36.2113 44.5667 33.5728 44.6664 32.0938 44.7226C31.4969 44.7452 31.0313 45.2454 31.054 45.8396V45.8401Z" fill="#DBDBF3"/>
</g>
<path fill-rule="evenodd" clip-rule="evenodd" d="M31.2307 48.5871C31.1759 49.1797 31.613 49.7041 32.2083 49.7587C33.4653 49.8747 35.5317 50.0652 36.7892 50.1812C37.384 50.2363 37.9107 49.8007 37.9656 49.2086V49.2081C38.0209 48.616 37.5833 48.0911 36.9885 48.0365C35.7315 47.9205 33.6646 47.73 32.4076 47.614C31.8128 47.5594 31.2856 47.9951 31.2307 48.5871Z" fill="#CDCDEE"/>
<mask id="mask55" mask-type="alpha" maskUnits="userSpaceOnUse" x="31" y="47" width="7" height="4">
<path d="M31.2308 48.5872C31.1754 49.1798 31.6131 49.7037 32.2084 49.7588C33.4654 49.8748 35.5318 50.0653 36.7893 50.1813C37.3841 50.2364 37.9108 49.8008 37.9662 49.2087V49.2077C38.021 48.6161 37.5834 48.0912 36.9881 48.0366C35.7311 47.9206 33.6647 47.7301 32.4077 47.6141C32.3739 47.6109 32.3402 47.6094 32.3064 47.6094C31.7539 47.6094 31.2825 48.0288 31.2308 48.5872Z" fill="white"/>
</mask>
<g mask="url(#mask55)">
<path fill-rule="evenodd" clip-rule="evenodd" d="M31.4834 47.8294C31.4286 48.4215 31.8657 48.9464 32.461 49.001C33.718 49.117 35.7844 49.3075 37.0419 49.4235C37.6367 49.4781 38.1634 49.0429 38.2183 48.4503H38.2188C38.2736 47.8578 37.836 47.3334 37.2412 47.2788C35.9842 47.1628 33.9173 46.9723 32.6603 46.8563C32.0655 46.8012 31.5382 47.2368 31.4834 47.8289V47.8294Z" fill="#DBDBF3"/>
</g>
<path fill-rule="evenodd" clip-rule="evenodd" d="M31.4852 50.8026C31.4261 51.3895 31.8569 51.9133 32.4464 51.9716C33.5204 52.0786 35.1671 52.2424 36.2417 52.3489C36.8312 52.4077 37.3574 51.9789 37.4159 51.3921V51.3916C37.475 50.8042 37.0442 50.2809 36.4547 50.2221C35.3806 50.1156 33.734 49.9518 32.6599 49.8452C32.0699 49.7865 31.5442 50.2148 31.4852 50.8021V50.8026Z" fill="#CDCDEE"/>
<mask id="mask56" mask-type="alpha" maskUnits="userSpaceOnUse" x="31" y="49" width="7" height="4">
<path d="M31.4848 50.8025V50.803C31.4263 51.3898 31.8565 51.9142 32.4466 51.9719C33.5201 52.0795 35.1673 52.2428 36.2413 52.3488C36.8314 52.4081 37.3571 51.9793 37.4156 51.3925V51.3919C37.4746 50.8041 37.0444 50.2813 36.4544 50.2225C35.3803 50.1159 33.7336 49.9522 32.6596 49.8451C32.6232 49.8419 32.5873 49.8398 32.5515 49.8398C32.0068 49.8398 31.5402 50.2514 31.4848 50.8025Z" fill="white"/>
</mask>
<g mask="url(#mask56)">
<path fill-rule="evenodd" clip-rule="evenodd" d="M31.7823 50.0311C31.7232 50.6185 32.154 51.1418 32.7435 51.2006C33.8175 51.3071 35.4642 51.4709 36.5388 51.578C37.1283 51.6362 37.6545 51.2079 37.713 50.6206V50.6201C37.7721 50.0332 37.3413 49.5094 36.7518 49.4511C35.6778 49.3441 34.0311 49.1803 32.957 49.0737C32.367 49.015 31.8408 49.4438 31.7823 50.0306V50.0311Z" fill="#DBDBF3"/>
</g>
<path fill-rule="evenodd" clip-rule="evenodd" d="M47.7326 50.2596C47.7895 50.795 47.616 51.3293 47.2543 51.7293C46.8926 52.1298 46.3769 52.3581 45.836 52.3581C43.2544 52.357 38.9271 52.3549 36.3904 52.3539C35.8578 52.3539 35.348 52.1397 34.9757 51.7608C34.604 51.3813 34.401 50.869 34.4131 50.3388C34.45 48.7411 34.5017 46.5219 34.5381 44.942C34.5629 43.8628 35.4561 43.0046 36.5401 43.0177C37.4486 43.0282 38.5902 43.0419 39.7818 43.0566C43.8824 43.1054 47.2981 46.1996 47.7326 50.2591V50.2596Z" fill="#DBDBF3"/>
<mask id="mask57" mask-type="alpha" maskUnits="userSpaceOnUse" x="34" y="43" width="14" height="10">
<path d="M34.5386 44.9418C34.5022 46.5212 34.45 48.7404 34.4131 50.3382C34.401 50.8688 34.604 51.3811 34.9762 51.7601C35.348 52.1396 35.8584 52.3537 36.3904 52.3537C38.9276 52.3548 43.2549 52.3569 45.8365 52.3579C46.3769 52.3579 46.8926 52.1296 47.2543 51.7291C47.616 51.3292 47.7895 50.7948 47.7325 50.2594V50.2589C47.2981 46.1994 43.8829 43.1047 39.7823 43.0564C38.5902 43.0417 37.4486 43.0281 36.5401 43.0176C36.5317 43.0176 36.5238 43.0176 36.5153 43.0176C35.4429 43.0176 34.5629 43.871 34.5386 44.9418Z" fill="white"/>
</mask>
<g mask="url(#mask57)">
<path fill-rule="evenodd" clip-rule="evenodd" d="M47.2292 52.5306L34.4017 51.3711L34.2324 53.2276L47.0599 54.3871L47.2292 52.5306Z" fill="#CDCDEE"/>
</g>
<path fill-rule="evenodd" clip-rule="evenodd" d="M53.1691 53.2103C52.1709 51.7458 50.1747 51.3532 48.692 52.3295C46.9335 53.4869 44.6399 54.9975 42.8688 56.1633C42.1454 56.6399 41.6434 57.3847 41.4752 58.2319C41.307 59.079 41.4863 59.9582 41.9735 60.6731C46.6789 67.5769 59.2032 85.9538 65.4993 95.1918C67.5631 98.2193 71.6885 99.0313 74.754 97.0126H74.7546C76.2615 96.0206 77.3071 94.4685 77.6577 92.7033C78.0078 90.9386 77.634 89.1073 76.6201 87.6187C70.2664 78.2967 57.8117 60.0228 53.1691 53.2103Z" fill="#E9E9FA"/>
<mask id="mask58" mask-type="alpha" maskUnits="userSpaceOnUse" x="41" y="51" width="37" height="48">
<path d="M48.6921 52.3275C46.9337 53.4848 44.6401 54.9954 42.8689 56.1612C42.1455 56.6378 41.6436 57.3826 41.4754 58.2293C41.3066 59.077 41.487 59.9562 41.9736 60.6711C46.679 67.5749 59.2033 85.9517 65.499 95.1897C67.5632 98.2173 71.6886 99.0293 74.7537 97.0105H74.7542C76.2617 96.018 77.3072 94.4664 77.6579 92.7012C78.0085 90.9366 77.6342 89.1047 76.6197 87.6166C70.2666 78.2947 57.8119 60.0202 53.1692 53.2082C52.5418 52.2881 51.5204 51.791 50.4796 51.791C49.8648 51.791 49.2431 51.9648 48.6921 52.3275Z" fill="white"/>
</mask>
<g mask="url(#mask58)">
<path fill-rule="evenodd" clip-rule="evenodd" d="M54.1588 45.7477C53.1607 44.2833 51.1644 43.8902 49.6817 44.8664C47.9233 46.0243 45.6296 47.5344 43.8585 48.7007C43.1351 49.1768 42.6332 49.9222 42.465 50.7693C42.2968 51.6165 42.476 52.4957 42.9632 53.21C47.6686 60.1144 60.1929 78.4907 66.4891 87.7287C68.5528 90.7563 72.6782 91.5683 75.7438 89.5501C75.7443 89.5501 75.7443 89.5495 75.7443 89.5495C77.2512 88.5575 78.2968 87.0059 78.6475 85.2402C78.9976 83.4755 78.6237 81.6447 77.6098 80.1556C71.2562 70.8342 58.8014 52.5597 54.1588 45.7477Z" fill="#F2F2FC"/>
</g>
<path fill-rule="evenodd" clip-rule="evenodd" d="M10.2502 36.5932L14.0983 49.8618L21.2323 47.8116L17.3842 34.543L10.2502 36.5932Z" fill="#C6C6F0"/>
<mask id="mask59" mask-type="alpha" maskUnits="userSpaceOnUse" x="10" y="34" width="12" height="16">
<path d="M10.25 36.5932L14.098 49.8618L21.232 47.8116L17.3845 34.543L10.25 36.5932Z" fill="white"/>
</mask>
<g mask="url(#mask59)">
<path fill-rule="evenodd" clip-rule="evenodd" d="M12.1587 36.0385L16.0067 49.3071L23.1407 47.2569L19.2927 33.9883L12.1587 36.0385Z" fill="#CBCBEF"/>
</g>
<path fill-rule="evenodd" clip-rule="evenodd" d="M11.5588 20.916C10.9667 20.9958 10.5517 21.538 10.6314 22.1274C10.7911 23.3063 11.0463 25.1933 11.2061 26.3722C11.2857 26.9616 11.8309 27.3747 12.4225 27.2955H12.423C13.0152 27.2162 13.4301 26.674 13.3505 26.0845C13.1907 24.9056 12.9355 23.0182 12.7758 21.8393C12.6962 21.2503 12.1515 20.8367 11.5594 20.916H11.5588Z" fill="#B2B2EB"/>
<path fill-rule="evenodd" clip-rule="evenodd" d="M13.9403 20.3769C13.3482 20.4567 12.9327 20.9989 13.0128 21.5884C13.1721 22.7673 13.4278 24.6542 13.5876 25.8331C13.6672 26.4226 14.2118 26.8357 14.804 26.7564H14.8045C15.3966 26.6771 15.8116 26.1349 15.732 25.5455C15.5722 24.3666 15.3165 22.4791 15.1572 21.3002C15.0771 20.7113 14.533 20.2977 13.9403 20.3769Z" fill="#A5A5E7"/>
<path fill-rule="evenodd" clip-rule="evenodd" d="M16.3739 20.0645C15.7818 20.1438 15.3663 20.686 15.4464 21.2755C15.6051 22.446 15.8577 24.313 16.0164 25.4835C16.096 26.0729 16.6407 26.4865 17.2328 26.4067C17.8249 26.3275 18.2404 25.7853 18.1608 25.1958C18.0021 24.0253 17.749 22.1583 17.5908 20.9878C17.5112 20.3984 16.9665 19.9848 16.3744 20.0645H16.3739Z" fill="#A5A5E7"/>
<path fill-rule="evenodd" clip-rule="evenodd" d="M10.289 16.7169C9.69631 16.7101 9.21017 17.183 9.20331 17.773C9.16851 20.8006 9.07202 29.2187 9.07202 29.2187L11.2191 29.2434C11.2191 29.2434 11.3156 20.8252 11.3504 17.7977C11.3572 17.2077 10.8821 16.7238 10.2895 16.7169H10.289Z" fill="#CDCDEE"/>
<mask id="mask60" mask-type="alpha" maskUnits="userSpaceOnUse" x="9" y="16" width="3" height="14">
<path d="M9.20408 17.7729C9.16876 20.8004 9.07227 29.2186 9.07227 29.2186L11.2193 29.2432C11.2193 29.2432 11.3153 20.8251 11.3506 17.7975C11.3575 17.2076 10.8824 16.7236 10.2897 16.7168H10.2892C10.2845 16.7168 10.2802 16.7168 10.276 16.7168C9.68917 16.7168 9.21041 17.1871 9.20408 17.7729Z" fill="white"/>
</mask>
<g mask="url(#mask60)">
<path fill-rule="evenodd" clip-rule="evenodd" d="M9.34473 16.9272C8.75788 16.8427 8.2132 17.2474 8.12831 17.8316C7.69226 20.8276 6.479 29.1591 6.479 29.1591L8.60444 29.4662C8.60444 29.4662 9.81717 21.1341 10.2532 18.1381C10.3386 17.5539 9.93158 17.0117 9.34473 16.9272Z" fill="#DBDBF3"/>
</g>
<path fill-rule="evenodd" clip-rule="evenodd" d="M23.461 17.0528C22.8931 16.8838 22.2952 17.2056 22.1254 17.7709C21.2559 20.6724 18.8384 28.74 18.8384 28.74L20.8958 29.3509C20.8958 29.3509 23.3133 21.2834 24.1833 18.3824C24.3526 17.8165 24.0294 17.2213 23.4615 17.0528H23.461Z" fill="#CDCDEE"/>
<mask id="mask61" mask-type="alpha" maskUnits="userSpaceOnUse" x="18" y="17" width="7" height="13">
<path d="M22.1252 17.771C21.2562 20.6726 18.8381 28.7401 18.8381 28.7401L20.8956 29.3511C20.8956 29.3511 23.3131 21.2835 24.1831 18.3825C24.3524 17.8167 24.0291 17.2214 23.4613 17.053H23.4607C23.3584 17.0225 23.2546 17.0078 23.1528 17.0078C22.6909 17.0078 22.2644 17.3075 22.1252 17.771Z" fill="white"/>
</mask>
<g mask="url(#mask61)">
<path fill-rule="evenodd" clip-rule="evenodd" d="M24.9195 16.8554C24.3511 16.6869 23.7537 17.0081 23.5839 17.5739C22.7145 20.475 20.2964 28.5425 20.2964 28.5425L22.3543 29.1535C22.3543 29.1535 24.7719 21.0859 25.6414 18.1849C25.8111 17.6196 25.4879 17.0244 24.9195 16.8554Z" fill="#DBDBF3"/>
</g>
<path fill-rule="evenodd" clip-rule="evenodd" d="M10.7128 37.6851C10.4217 37.2389 10.2335 36.7335 10.1623 36.206C9.88495 34.1589 9.17261 28.8959 9.17261 28.8959L18.1109 24.8301L19.5166 35.8018C19.5166 35.8018 19.485 35.9362 19.4281 36.1766C18.9862 38.0431 17.4687 39.4671 15.5705 39.7951C13.6729 40.1237 11.7615 39.2933 10.7128 37.6851Z" fill="#DBDBF3"/>
<mask id="mask62" mask-type="alpha" maskUnits="userSpaceOnUse" x="9" y="24" width="11" height="16">
<path d="M9.17212 28.8939C9.17212 28.8939 9.88446 34.1569 10.1618 36.204C10.2335 36.731 10.4212 37.2365 10.7128 37.6831C11.7616 39.2909 13.6729 40.1218 15.5706 39.7932C17.4682 39.4651 18.9857 38.0411 19.4276 36.1746C19.4845 35.9342 19.5162 35.7998 19.5162 35.7998L18.1104 24.8281" fill="white"/>
</mask>
<g mask="url(#mask62)">
<path fill-rule="evenodd" clip-rule="evenodd" d="M9.5769 24.3619C10.082 26.1014 11.4788 27.327 13.3395 27.6588C15.9195 28.1196 18.375 26.4925 18.8184 24.0286C19.1163 22.3731 17.9943 21.3307 17.611 21.9202C16.1066 24.2339 14.3772 25.8295 11.7972 25.3692C10.9499 25.218 10.1943 24.8606 9.5769 24.3619Z" fill="#B2B2EB"/>
</g>
<mask id="mask63" mask-type="alpha" maskUnits="userSpaceOnUse" x="9" y="24" width="11" height="16">
<path d="M9.17212 28.8939C9.17212 28.8939 9.88446 34.1569 10.1618 36.204C10.2335 36.731 10.4212 37.2365 10.7128 37.6831C11.7616 39.2909 13.6729 40.1218 15.5706 39.7932C17.4682 39.4651 18.9857 38.0411 19.4276 36.1746C19.4845 35.9342 19.5162 35.7998 19.5162 35.7998L18.1104 24.8281" fill="white"/>
</mask>
<g mask="url(#mask63)">
<path fill-rule="evenodd" clip-rule="evenodd" d="M18.8879 29.1797C16.9591 29.7271 15.2618 31.5165 14.6402 33.9299C13.7786 37.2766 15.3098 40.5629 18.0585 41.2642C19.9045 41.7355 21.2385 40.322 20.6173 39.7918C18.1787 37.7128 19.8723 36.1124 20.7339 32.7657C21.017 31.6671 18.2388 29.9612 18.8879 29.1797Z" fill="#CDCDEE"/>
</g>
<path fill-rule="evenodd" clip-rule="evenodd" d="M15.4783 20.6811C15.2452 21.2291 15.5025 21.8605 16.0525 22.0925C17.0437 22.5098 18.556 23.147 19.5467 23.5648C20.0972 23.7963 20.7315 23.5402 20.9645 22.9927V22.9922C21.1976 22.4447 20.9403 21.8128 20.3903 21.5808C19.3991 21.1635 17.8869 20.5263 16.8961 20.109C16.3462 19.877 15.7113 20.1331 15.4783 20.6806V20.6811Z" fill="#B2B2EB"/>
<mask id="mask64" mask-type="alpha" maskUnits="userSpaceOnUse" x="15" y="20" width="7" height="4">
<path d="M15.478 20.6781V20.6792C15.245 21.2266 15.5023 21.8586 16.0527 22.0901C17.0435 22.5079 18.5562 23.1451 19.547 23.5629C20.0969 23.7944 20.7318 23.5382 20.9648 22.9908V22.9902C21.1979 22.4428 20.9406 21.8108 20.3901 21.5788C19.3988 21.1615 17.8871 20.5243 16.8959 20.107C16.7582 20.0493 16.6153 20.0215 16.4746 20.0215C16.0533 20.0215 15.6531 20.2682 15.478 20.6781Z" fill="white"/>
</mask>
<g mask="url(#mask64)">
<path fill-rule="evenodd" clip-rule="evenodd" d="M13.9263 19.4526C13.6932 20.0006 13.9505 20.6325 14.5005 20.864C15.9057 21.4561 18.4545 22.53 19.8597 23.1221C20.4101 23.3535 21.0445 23.0974 21.2775 22.5499V22.5494C21.5106 22.002 21.2533 21.37 20.7033 21.138C19.2981 20.5465 16.7493 19.4725 15.3441 18.8805C14.7942 18.6485 14.1593 18.9046 13.9263 19.4526Z" fill="#CBCBEF"/>
</g>
<path fill-rule="evenodd" clip-rule="evenodd" d="M13.1615 20.7888C12.8109 21.2701 12.9189 21.9435 13.4025 22.2926C14.4496 23.0489 16.1928 24.3066 17.2405 25.0629C17.724 25.412 18.4005 25.3044 18.7511 24.823V24.8225C19.1023 24.3412 18.9942 23.6678 18.5107 23.3187C17.463 22.5629 15.7198 21.3047 14.6721 20.5489C14.1886 20.1998 13.5127 20.3069 13.1615 20.7888Z" fill="#B2B2EB"/>
<mask id="mask65" mask-type="alpha" maskUnits="userSpaceOnUse" x="12" y="20" width="7" height="6">
<path d="M13.1619 20.7889C12.8107 21.2702 12.9188 21.9436 13.4023 22.2927C14.45 23.049 16.1932 24.3066 17.2404 25.063C17.7239 25.4121 18.4004 25.3045 18.7515 24.8231V24.8226C19.1022 24.3408 18.9941 23.6679 18.5106 23.3188C17.4634 22.563 15.7197 21.3043 14.6725 20.549C14.4806 20.4104 14.2581 20.3438 14.0382 20.3438C13.7034 20.3438 13.3733 20.4981 13.1619 20.7889Z" fill="white"/>
</mask>
<g mask="url(#mask65)">
<path fill-rule="evenodd" clip-rule="evenodd" d="M12.3332 19.5387C12.165 19.7702 12.0954 20.0583 12.1407 20.3402C12.1861 20.6226 12.3422 20.8751 12.5742 21.0425C13.8465 21.961 16.1928 23.6549 17.4651 24.5729C17.6977 24.7408 17.9871 24.8096 18.2708 24.7645C18.554 24.7198 18.8076 24.5645 18.9763 24.333C19.1445 24.1015 19.2141 23.8134 19.1688 23.5315C19.1234 23.2491 18.9679 22.9966 18.7359 22.8292C17.463 21.9107 15.1167 20.2174 13.8444 19.2988C13.6118 19.1314 13.3224 19.0621 13.0387 19.1072C12.7555 19.1524 12.5019 19.3072 12.3332 19.5387Z" fill="#CBCBEF"/>
</g>
<path fill-rule="evenodd" clip-rule="evenodd" d="M10.8727 21.2715C10.4899 21.7281 10.5511 22.4073 11.0098 22.7884C11.9531 23.5726 13.4838 24.8449 14.4271 25.6291C14.8858 26.0107 15.5681 25.9493 15.9509 25.4932V25.4926C16.3337 25.0365 16.2725 24.3573 15.8143 23.9762C14.871 23.1915 13.3404 21.9192 12.3966 21.135C11.9384 20.754 11.2561 20.8148 10.8727 21.2715Z" fill="#B2B2EB"/>
<mask id="mask66" mask-type="alpha" maskUnits="userSpaceOnUse" x="10" y="20" width="7" height="6">
<path d="M10.8733 21.2711H10.8728C10.49 21.7283 10.5517 22.4075 11.0099 22.7885C11.9532 23.5727 13.4844 24.845 14.4277 25.6292C14.8859 26.0108 15.5682 25.9494 15.951 25.4933L15.9515 25.4928C16.3343 25.0366 16.2726 24.3574 15.8144 23.9764C14.8706 23.1916 13.3404 21.9188 12.3972 21.1351C12.1947 20.9672 11.9484 20.8848 11.7038 20.8848C11.3943 20.8848 11.0869 21.0165 10.8733 21.2711Z" fill="white"/>
</mask>
<g mask="url(#mask66)">
<path fill-rule="evenodd" clip-rule="evenodd" d="M10.602 20.3828C10.2192 20.8395 10.2803 21.5187 10.7391 21.8997C11.8142 22.7936 13.6781 24.3431 14.7537 25.237C15.2119 25.618 15.8942 25.5572 16.277 25.1005H16.2775C16.6603 24.6439 16.5992 23.9647 16.1405 23.5836C15.0648 22.6897 13.2014 21.1402 12.1258 20.2464C11.6676 19.8653 10.9853 19.9262 10.602 20.3828Z" fill="#CBCBEF"/>
</g>
<path fill-rule="evenodd" clip-rule="evenodd" d="M22.8412 42.8967C22.5402 41.6338 21.2758 40.8459 20.0035 41.1273C17.6212 41.6543 13.914 42.4741 11.507 43.0064C10.8837 43.1439 10.3417 43.5249 10.0027 44.064C9.66416 44.6025 9.55607 45.2544 9.70371 45.8728C11.4943 53.3781 17.1293 76.9923 19.8695 88.4773C20.7163 92.0261 24.2686 94.2406 27.8451 93.4496H27.8456C29.6146 93.0585 31.1521 91.9773 32.1139 90.4483C33.0756 88.9193 33.3814 87.0706 32.9628 85.3154C30.1925 73.7049 24.6013 50.2729 22.8412 42.8967Z" fill="#E9E9FA"/>
<mask id="mask67" mask-type="alpha" maskUnits="userSpaceOnUse" x="9" y="41" width="25" height="53">
<path d="M20.0035 41.1256C17.6212 41.652 13.914 42.4724 11.507 43.0047C10.8837 43.1422 10.3422 43.5233 10.0027 44.0623C9.66416 44.6008 9.55607 45.2522 9.70371 45.8705C11.4949 53.3764 17.1288 76.9911 19.8695 88.4761C20.7163 92.0244 24.2686 94.2389 27.8451 93.4479C29.6146 93.0568 31.1521 91.9761 32.1139 90.4466C33.0756 88.9176 33.3819 87.0684 32.9628 85.3137C30.1925 73.7032 24.6013 50.2712 22.8412 42.895C22.5808 41.8048 21.6037 41.0684 20.5228 41.0684C20.3515 41.0684 20.1775 41.0873 20.0035 41.1256Z" fill="white"/>
</mask>
<g mask="url(#mask67)">
<path fill-rule="evenodd" clip-rule="evenodd" d="M26.0452 34.5724C25.7436 33.3096 24.4797 32.5217 23.2069 32.803C20.8252 33.33 17.1179 34.1499 14.7109 34.6821C14.0877 34.8202 13.5457 35.2007 13.2066 35.7398C12.8676 36.2788 12.76 36.9302 12.9077 37.5491C14.6983 45.0539 20.3332 68.6686 23.0735 80.1536C23.9203 83.7024 27.4725 85.9163 31.049 85.1259H31.0495C32.8185 84.7343 34.3561 83.6536 35.3178 82.1246C36.2795 80.5956 36.5854 78.7464 36.1667 76.9912C33.3964 65.3807 27.8052 41.9487 26.0452 34.5724Z" fill="#F2F2FC"/>
</g>
<path d="M11.2804 14.0625L10.9414 16.1888" stroke="#6969DB" stroke-width="0.291176" stroke-linecap="round" stroke-linejoin="round"/>
<path d="M22.9355 15.9062L22.5959 18.0326" stroke="#6969DB" stroke-width="0.291176" stroke-linecap="round" stroke-linejoin="round"/>
<path d="M10.8495 16.6895L10.5105 18.8158" stroke="#6969DB" stroke-width="0.291176" stroke-linecap="round" stroke-linejoin="round"/>
<path fill-rule="evenodd" clip-rule="evenodd" d="M11.6867 12.0906C11.7294 11.8234 11.8765 11.5841 12.0964 11.4251C12.3168 11.266 12.591 11.2009 12.8593 11.2429C15.0375 11.5878 20.1499 12.3961 22.3286 12.7404C22.597 12.7829 22.8374 12.9294 22.9972 13.1488C23.1564 13.3677 23.2224 13.6406 23.1796 13.9078C22.6387 17.2996 20.8865 28.2807 20.3456 31.6726C20.3028 31.9397 20.1552 32.1791 19.9353 32.3376C19.7155 32.4966 19.4413 32.5622 19.1729 32.5197C16.9942 32.1754 11.8818 31.3671 9.70361 31.0228C9.4347 30.9802 9.19426 30.8333 9.03503 30.6144C8.87527 30.3955 8.80936 30.122 8.85207 29.8549C9.39357 26.4636 11.1457 15.4824 11.6867 12.0906Z" fill="#7A7ADF"/>
<path fill-rule="evenodd" clip-rule="evenodd" d="M12.0529 12.5365C12.0941 12.2809 12.2317 12.051 12.4363 11.8977C12.6409 11.745 12.8955 11.681 13.1439 11.7203C15.1602 12.0389 19.893 12.7874 21.9093 13.106C22.1581 13.1454 22.3801 13.285 22.5267 13.4934C22.6738 13.7018 22.7334 13.9632 22.6928 14.2188C22.1745 17.4652 20.4972 27.9771 19.9794 31.2241C19.9383 31.4797 19.8007 31.7091 19.5961 31.8623C19.3915 32.0156 19.1374 32.0791 18.8885 32.0403C16.8722 31.7211 12.1394 30.9732 10.1226 30.654C9.87426 30.6147 9.65227 30.4756 9.50516 30.2667C9.35858 30.0583 9.299 29.7974 9.3396 29.5418C9.85791 26.2949 11.5352 15.783 12.0529 12.5365Z" fill="#F1F1FA"/>
<mask id="mask68" mask-type="alpha" maskUnits="userSpaceOnUse" x="9" y="11" width="14" height="22">
<path d="M12.4357 11.8979C12.2311 12.0512 12.0935 12.2811 12.0524 12.5367C11.5346 15.7832 9.85787 26.2951 9.33956 29.542C9.29843 29.7976 9.35854 30.0585 9.50513 30.2669C9.65171 30.4758 9.87369 30.6149 10.1226 30.6543C12.1394 30.9734 16.8717 31.7213 18.8885 32.04C19.1368 32.0793 19.3915 32.0158 19.5961 31.8625C19.8007 31.7093 19.9383 31.4799 19.9789 31.2243C20.4972 27.9773 22.1739 17.4654 22.6922 14.219C22.7333 13.9634 22.6732 13.7015 22.5267 13.4936C22.3795 13.2852 22.1581 13.1456 21.9092 13.1062C19.8924 12.7876 15.1596 12.0386 13.1433 11.7205C13.0953 11.7127 13.0473 11.709 12.9994 11.709C12.7985 11.709 12.6007 11.7746 12.4357 11.8979Z" fill="white"/>
</mask>
<g mask="url(#mask68)">
<path fill-rule="evenodd" clip-rule="evenodd" d="M12.0757 22.5834C12.0773 22.5682 12.0794 22.553 12.082 22.5378C12.2629 21.3977 12.5392 19.6572 12.7206 18.5171C12.7686 18.2132 12.9362 17.9413 13.1862 17.7608C13.4361 17.5797 13.7472 17.5051 14.0525 17.5534C15.5858 17.7949 18.2844 18.2195 19.8182 18.461C20.123 18.5092 20.3961 18.6756 20.578 18.9244C20.7594 19.1727 20.8342 19.4834 20.7863 19.7868C20.6049 20.9269 20.3286 22.6674 20.1472 23.8075C20.0992 24.1108 19.9316 24.3833 19.6822 24.5638C19.4322 24.7444 19.1206 24.8194 18.8153 24.7711L12.7179 23.8111C12.2692 23.7408 11.8474 24.0437 11.7731 24.4898L11.7715 24.4977L12.0757 22.5834Z" fill="#E6E6F7"/>
</g>
<path fill-rule="evenodd" clip-rule="evenodd" d="M14.8482 29.1878C14.3172 29.1043 13.8174 29.4649 13.733 29.9935C13.6492 30.522 14.0114 31.0196 14.5424 31.1036C15.0733 31.1876 15.5732 30.8265 15.6576 30.2979C15.7414 29.7694 15.3792 29.2718 14.8482 29.1878Z" fill="#E6E6F7"/>
<path fill-rule="evenodd" clip-rule="evenodd" d="M11.7806 22.2885C11.7821 22.2733 11.7842 22.2581 11.7869 22.2428C11.9677 21.1028 12.244 19.3623 12.4254 18.2222C12.4734 17.9183 12.6411 17.6464 12.891 17.4658C13.1409 17.2848 13.452 17.2102 13.7573 17.2585C15.2906 17.5 17.9892 17.9246 19.523 18.166C19.8278 18.2143 20.1009 18.3807 20.2828 18.6295C20.4642 18.8778 20.5391 19.1885 20.4911 19.4919C20.3097 20.632 20.0334 22.3725 19.852 23.5125C19.8041 23.8159 19.6364 24.0883 19.387 24.2689C19.1371 24.4495 18.8254 24.5245 18.5202 24.4762L12.4228 23.5162C11.9741 23.4459 11.5522 23.7487 11.4779 24.1949C11.4768 24.2001 11.4763 24.2028 11.4763 24.2028L11.7806 22.2885Z" fill="white"/>
<path d="M14.7405 20.8061L15.6115 21.8858L18.2194 19.9805" stroke="#6969DB" stroke-width="0.291176" stroke-linecap="round" stroke-linejoin="round"/>
<path fill-rule="evenodd" clip-rule="evenodd" d="M20.2407 27.7752C20.8724 27.9432 21.2546 28.5804 21.1044 29.2139C20.5924 31.3686 19.5315 35.8343 19.5315 35.8343L16.6953 34.6911C16.6953 34.6911 18.2392 30.3991 18.9378 28.455C19.1281 27.9253 19.695 27.6298 20.2407 27.7752Z" fill="#CDCDEE"/>
<mask id="mask69" mask-type="alpha" maskUnits="userSpaceOnUse" x="16" y="27" width="6" height="9">
<path d="M18.9378 28.4542C18.2391 30.3989 16.6958 34.6909 16.6958 34.6909L19.5315 35.8341C19.5315 35.8341 20.5923 31.3684 21.1049 29.2137C21.2551 28.5802 20.8723 27.943 20.2412 27.775C20.1473 27.7504 20.0524 27.7383 19.9596 27.7383C19.5114 27.7383 19.0954 28.0165 18.9378 28.4542Z" fill="white"/>
</mask>
<g mask="url(#mask69)">
<path fill-rule="evenodd" clip-rule="evenodd" d="M20.9313 27.8583C21.6115 28.0042 22.0465 28.6688 21.9057 29.3474C21.65 30.5772 21.2545 32.48 20.9709 33.8457C20.8855 34.2572 20.6208 34.6094 20.2485 34.8073C19.8763 35.0057 19.4344 35.0293 19.0432 34.8713C19.0342 34.8677 19.0252 34.864 19.0168 34.8608C18.325 34.5816 17.967 33.8179 18.1969 33.1114C18.625 31.7955 19.2878 29.7589 19.6711 28.5811C19.8425 28.0536 20.3872 27.7418 20.9313 27.8583Z" fill="#DBDBF3"/>
</g>
<path fill-rule="evenodd" clip-rule="evenodd" d="M16.9831 25.3227C17.4629 24.9715 18.1326 25.0461 18.5227 25.4933C19.4191 26.5205 20.8686 28.1817 20.8686 28.1817L18.7416 30.1123C18.7416 30.1123 17.4656 28.1104 16.6868 26.8895C16.3562 26.3709 16.4859 25.6859 16.9831 25.3227Z" fill="#CDCDEE"/>
<mask id="mask70" mask-type="alpha" maskUnits="userSpaceOnUse" x="16" y="25" width="5" height="6">
<path d="M16.9827 25.3225C16.4855 25.6858 16.3558 26.3707 16.6869 26.8893C17.4652 28.1102 18.7417 30.1121 18.7417 30.1121L20.8682 28.1816C20.8682 28.1816 19.4187 26.5203 18.5229 25.4931C18.2978 25.2354 17.9803 25.101 17.6592 25.1016C17.4235 25.1016 17.1863 25.1735 16.9827 25.3225Z" fill="white"/>
</mask>
<g mask="url(#mask70)">
<path fill-rule="evenodd" clip-rule="evenodd" d="M15.4982 23.2259C16.0392 22.6753 16.9261 22.6659 17.4787 23.2044C19.9495 25.6105 26.1386 31.6377 26.1386 31.6377L25.8059 32.6356C25.8059 32.6356 24.2088 32.0256 22.5584 31.3958C20.2289 30.5066 18.2474 28.8978 16.904 26.8056C16.3213 25.8992 15.7461 25.0037 15.3738 24.4242C15.1302 24.0447 15.1814 23.5482 15.4982 23.2259Z" fill="#DBDBF3"/>
</g>
<mask id="mask71" mask-type="alpha" maskUnits="userSpaceOnUse" x="16" y="25" width="5" height="6">
<path d="M16.9827 25.3225C16.4855 25.6858 16.3558 26.3707 16.6869 26.8893C17.4652 28.1102 18.7417 30.1121 18.7417 30.1121L20.8682 28.1816C20.8682 28.1816 19.4187 26.5203 18.5229 25.4931C18.2978 25.2354 17.9803 25.101 17.6592 25.1016C17.4235 25.1016 17.1863 25.1735 16.9827 25.3225Z" fill="white"/>
</mask>
<g mask="url(#mask71)">
<path fill-rule="evenodd" clip-rule="evenodd" d="M18.7737 25.5278C18.5033 25.1499 18.0382 25.0329 17.7324 25.2675C17.426 25.5016 17.3939 25.9992 17.6586 26.3813L18.7737 25.5278Z" fill="#CDCDEE"/>
</g>
<g opacity="0.65">
<path opacity="0.65" fill-rule="evenodd" clip-rule="evenodd" d="M12.3316 99.4461C11.3002 102.338 12.8225 105.52 15.7277 106.546C18.633 107.572 21.8288 106.058 22.8596 103.165C23.891 100.273 22.3693 97.092 19.4635 96.0653C16.5587 95.0392 13.3624 96.5535 12.3316 99.4461Z" fill="white"/>
<path opacity="0.65" fill-rule="evenodd" clip-rule="evenodd" d="M12.3316 99.4461C11.3002 102.338 12.8225 105.52 15.7277 106.546C18.633 107.572 21.8288 106.058 22.8596 103.165C23.891 100.273 22.3693 97.092 19.4635 96.0653C16.5587 95.0392 13.3624 96.5535 12.3316 99.4461Z" stroke="#EFEFF9" stroke-width="1.05882" stroke-linecap="round" stroke-linejoin="round"/>
<path opacity="0.65" fill-rule="evenodd" clip-rule="evenodd" d="M7.26652 110.214C7.04138 110.845 7.37356 111.539 8.00787 111.763C8.64165 111.987 9.33923 111.657 9.56385 111.025C9.789 110.394 9.45681 109.7 8.82303 109.476C8.18925 109.252 7.49167 109.583 7.26652 110.214Z" fill="#F7F7FC"/>
<path opacity="0.65" fill-rule="evenodd" clip-rule="evenodd" d="M103.306 14.7227C102.881 14.7227 102.536 15.0575 102.536 15.4696C102.536 15.8821 102.881 16.217 103.306 16.217C103.732 16.217 104.077 15.8821 104.077 15.4696C104.077 15.0575 103.732 14.7227 103.306 14.7227Z" fill="#DFDFF4"/>
<path opacity="0.65" d="M109.796 3.56641V13.9933" stroke="#DFDFF4" stroke-width="1.05882" stroke-linecap="round" stroke-linejoin="round"/>
<path opacity="0.65" d="M104.475 8.78125H115.115" stroke="#DFDFF4" stroke-width="1.05882" stroke-linecap="round" stroke-linejoin="round"/>
<path opacity="0.65" fill-rule="evenodd" clip-rule="evenodd" d="M101.554 110.866C101.054 110.866 100.646 110.461 100.646 109.962C100.646 109.463 101.054 109.059 101.554 109.059C102.055 109.059 102.463 109.463 102.463 109.962C102.463 110.461 102.055 110.866 101.554 110.866Z" fill="#DFDFF4"/>
<path opacity="0.65" fill-rule="evenodd" clip-rule="evenodd" d="M113.202 110.407V96.959L102.097 103.801L113.202 110.407Z" stroke="#DFDFF4" stroke-width="1.05882" stroke-linecap="round" stroke-linejoin="round"/>
<path opacity="0.65" fill-rule="evenodd" clip-rule="evenodd" d="M86.8185 13.7656L89.2139 14.6747L86.9244 20.6506C86.7056 21.2285 86.9724 21.988 87.7269 22.274L86.8164 24.6513C84.5649 23.7962 83.8715 21.4652 84.5296 19.7415L84.9999 18.5132L82.6045 17.6036L83.5119 15.2332L85.9073 16.1423L86.8185 13.7656ZM91.943 18.4334L89.5476 17.5238L88.6397 19.8947L89.7812 20.3278L91.943 18.4334Z" fill="white"/>
</g>
</svg>
