<svg width="22" height="28" viewBox="0 0 22 28" fill="none" xmlns="http://www.w3.org/2000/svg">
<path fill-rule="evenodd" clip-rule="evenodd" d="M16.3752 0C16.3752 0 13.9101 0.0114998 12.137 2.37033C10.5603 4.46788 10.9617 6.26192 10.9617 6.26192C10.9617 6.26192 13.0995 6.63519 14.9804 4.35405C16.7418 2.2177 16.3752 0 16.3752 0ZM12.6029 7.38667C12.0226 7.62274 11.5459 7.81672 11.1887 7.81672C10.7436 7.81672 10.2065 7.6079 9.58239 7.36524C8.71679 7.02868 7.68373 6.62702 6.49611 6.62702C3.35203 6.62702 0 9.46847 0 14.8851C0 20.3905 3.96018 27.2395 7.09486 27.2394C7.5825 27.2394 8.18649 27.0185 8.85612 26.7735C9.68905 26.4688 10.6235 26.127 11.562 26.127C12.4035 26.127 13.1332 26.4021 13.8535 26.6737C14.5551 26.9383 15.2477 27.1994 16.0257 27.1994C19.4585 27.1994 22 19.9793 22 19.9793C22 19.9793 18.3643 18.5586 18.3643 14.436C18.3643 10.7815 21.2828 9.27539 21.2828 9.27539C21.2828 9.27539 19.7906 6.55113 15.9975 6.55113C14.6566 6.55113 13.5048 7.01974 12.6029 7.38667Z" fill="white"/>
</svg>
