<svg width="20" height="18" viewBox="0 0 20 18" fill="none" xmlns="http://www.w3.org/2000/svg">
<path d="M15.4581 15.3291L14.9252 14.8015L15.4581 15.3291ZM15.2666 14.3808C15.4964 14.0361 15.9621 13.9431 16.3067 14.1729C16.6513 14.4026 16.7444 14.8683 16.5146 15.2129L15.2666 14.3808ZM1.70704 14.7969L1.08304 15.2129L1.70704 14.7969ZM2.13953 15.3291L2.67251 14.8015L2.13953 15.3291ZM2.13953 2.67242L2.67251 3.20009L2.13953 2.67242ZM1.70704 3.20471L1.08304 2.78863L1.70704 3.20471ZM15.4581 2.67242L14.9252 3.20009L15.4581 2.67242ZM16.5146 2.78863C16.7444 3.13325 16.6513 3.59891 16.3067 3.82871C15.9621 4.05851 15.4964 3.96542 15.2666 3.62079L16.5146 2.78863ZM10.7488 2.55078H6.84883V1.05078H10.7488V2.55078ZM6.84883 15.4508H10.7488V16.9508H6.84883V15.4508ZM10.7488 15.4508C12.0534 15.4508 12.951 15.4489 13.6335 15.3496C14.2856 15.2548 14.6469 15.0825 14.9252 14.8015L15.9911 15.8568C15.4064 16.4474 14.6952 16.711 13.8494 16.834C13.0341 16.9526 12.0085 16.9508 10.7488 16.9508V15.4508ZM14.9252 14.8015C15.0479 14.6775 15.1626 14.5368 15.2666 14.3808L16.5146 15.2129C16.3594 15.4458 16.1843 15.6617 15.9911 15.8568L14.9252 14.8015ZM1.74883 9.00078C1.74883 10.5938 1.74965 11.7348 1.83392 12.6123C1.9175 13.4825 2.07669 13.9993 2.33104 14.3808L1.08304 15.2129C0.629184 14.5323 0.434272 13.729 0.340795 12.7557C0.248019 11.7897 0.248834 10.5638 0.248834 9.00078H1.74883ZM6.84883 16.9508C5.5892 16.9508 4.56354 16.9526 3.74822 16.834C2.9025 16.711 2.19125 16.4474 1.60655 15.8568L2.67251 14.8015C2.95076 15.0825 3.31204 15.2548 3.96417 15.3496C4.64671 15.4489 5.54423 15.4508 6.84883 15.4508V16.9508ZM2.33104 14.3808C2.43509 14.5368 2.54973 14.6775 2.67251 14.8015L1.60655 15.8568C1.41337 15.6617 1.2383 15.4458 1.08304 15.2129L2.33104 14.3808ZM6.84883 2.55078C5.54423 2.55078 4.64671 2.55263 3.96417 2.65192C3.31204 2.7468 2.95076 2.91904 2.67251 3.20009L1.60655 2.14475C2.19125 1.55417 2.9025 1.29059 3.74822 1.16755C4.56354 1.04894 5.5892 1.05078 6.84883 1.05078V2.55078ZM0.248834 9.00078C0.248834 7.43777 0.248019 6.21184 0.340795 5.24584C0.434272 4.27254 0.629184 3.46928 1.08304 2.78863L2.33104 3.62079C2.07669 4.00224 1.9175 4.51903 1.83392 5.38924C1.74965 6.26675 1.74883 7.40781 1.74883 9.00078H0.248834ZM2.67251 3.20009C2.54972 3.32411 2.43508 3.46476 2.33104 3.62079L1.08304 2.78863C1.2383 2.55579 1.41337 2.33987 1.60655 2.14475L2.67251 3.20009ZM10.7488 1.05078C12.0085 1.05078 13.0341 1.04894 13.8494 1.16755C14.6952 1.29059 15.4064 1.55417 15.9911 2.14475L14.9252 3.20009C14.6469 2.91904 14.2856 2.7468 13.6335 2.65192C12.951 2.55263 12.0534 2.55078 10.7488 2.55078V1.05078ZM15.9911 2.14475C16.1843 2.33987 16.3594 2.55579 16.5146 2.78863L15.2666 3.62079C15.1626 3.46476 15.0479 3.32411 14.9252 3.20009L15.9911 2.14475Z" fill="#181629"/>
<path d="M18.4004 9L10.0004 9" stroke="#181629" stroke-width="1.5" stroke-linecap="round" stroke-linejoin="round"/>
<path d="M12.4004 11.4004L10.0004 9.00039L12.4004 6.60039" stroke="#181629" stroke-width="1.5" stroke-linecap="round" stroke-linejoin="round"/>
</svg>
