<svg width="24" height="24" viewBox="0 0 24 24" fill="none" xmlns="http://www.w3.org/2000/svg">
<path fill-rule="evenodd" clip-rule="evenodd" d="M14.2574 4.01271C13.762 3.9693 13.2436 4.05005 12.7431 4.281L7.58103 6.66288C7.22683 6.82632 7 7.1808 7 7.57088V7.99971H6C4.89543 7.99971 4 8.89514 4 9.99971V13.9997C4 15.1043 4.89543 15.9997 6 15.9997H7V16.4302C7 16.8203 7.22683 17.1747 7.58103 17.3382L7.59214 17.3433L8.93785 14.6519C8.79656 14.2711 8.42997 13.9997 8 13.9997H6V9.99971H8C8.55228 9.99971 9 9.552 9 8.99971V8.21078L13.1056 6.31637L14.2574 4.01271ZM12.1208 17.2303L13.581 17.9041C14.2436 18.2098 15 17.7258 15 16.9961V11.4718L17 7.47185V16.9961C17 19.1853 14.7309 20.6373 12.7431 19.7201L11.2259 19.02L12.1208 17.2303Z" fill="white"/>
<path d="M17 2.99951L8 20.9995" stroke="white" stroke-width="2" stroke-linecap="round"/>
<path d="M19 15C19.638 14.0813 20 13.0301 20 11.9133C20 10.8662 19.6817 9.8767 19.1161 9" stroke="white" stroke-width="2" stroke-linecap="round"/>
</svg>
