<svg width="19" height="19" viewBox="0 0 19 19" fill="none" xmlns="http://www.w3.org/2000/svg">
<path d="M3.4561 14.8945L3.40191 13.8959L3.4561 14.8945ZM2.64369 14.5249L3.44979 13.9332L2.64369 14.5249ZM5.67318 15.0131L6.24413 14.1921L5.67318 15.0131ZM4.99695 14.8108L5.05114 15.8094L4.99695 14.8108ZM7.1531 16.0568L8.04494 15.6045L7.1531 16.0568ZM6.64058 15.5725L7.0672 14.6681L6.64058 15.5725ZM8.57842 17.9506L8.68562 16.9564L8.57842 17.9506ZM7.85039 17.4317L6.95855 17.884L7.85039 17.4317ZM11.1497 17.4317L10.2579 16.9793L11.1497 17.4317ZM10.4217 17.9506L10.5289 18.9449L10.4217 17.9506ZM12.3595 15.5725L11.9329 14.6681L12.3595 15.5725ZM11.847 16.0568L12.7389 16.5092L11.847 16.0568ZM14.0031 14.8108L13.949 15.8094L14.0031 14.8108ZM13.3269 15.0131L13.8979 15.8341L13.3269 15.0131ZM16.3564 14.5249L17.1625 15.1167L16.3564 14.5249ZM15.544 14.8945L15.5982 13.8959L15.544 14.8945ZM17.1949 12.0387L16.3572 12.5849L17.1949 12.0387ZM17.2806 12.9278L18.1955 13.3314L17.2806 12.9278ZM16.3508 8.25584L15.5131 7.70964L16.3508 8.25584ZM16.1876 8.94073L15.191 9.02296L16.1876 8.94073ZM17.2806 6.07225L18.1955 5.66859L17.2806 6.07225ZM17.1949 6.9613L18.0325 7.50749L17.1949 6.9613ZM15.544 4.10554L15.4898 3.10701L15.544 4.10554ZM16.3564 4.47505L15.5503 5.06683L16.3564 4.47505ZM13.3269 3.9869L12.756 4.80789L13.3269 3.9869ZM14.0031 4.18916L14.0573 5.18769L14.0031 4.18916ZM11.847 2.94317L10.9552 3.39551L11.847 2.94317ZM12.3595 3.42745L12.7862 2.52303L12.3595 3.42745ZM2.8125 8.94073L1.81588 8.85851L2.8125 8.94073ZM2.64932 8.25584L1.81166 8.80203L2.64932 8.25584ZM7.8504 1.56834L6.95855 1.116L7.8504 1.56834ZM8.57842 1.04939L8.47122 0.0551489L8.57842 1.04939ZM7.1531 2.94317L6.26125 2.49084L7.1531 2.94317ZM16.1876 10.0593L17.1842 10.1415L16.1876 10.0593ZM16.3508 10.7442L15.5131 11.2904L16.3508 10.7442ZM2.8125 10.0593L1.81588 10.1415L2.8125 10.0593ZM3.4561 4.10554L3.40191 5.10407L3.4561 4.10554ZM11.1497 1.56834L10.2579 2.02067L11.1497 1.56834ZM1.71951 12.9278L0.804598 13.3314L1.71951 12.9278ZM5.05114 3.19063L3.51029 3.10701L3.40191 5.10407L4.94276 5.18769L5.05114 3.19063ZM6.21395 2.52303C5.82422 2.70687 5.45255 2.92229 5.10223 3.16592L6.24413 4.80789C6.50379 4.62731 6.77898 4.46784 7.0672 4.33188L6.21395 2.52303ZM6.95855 1.116L6.26125 2.49084L8.04494 3.39551L8.74224 2.02067L6.95855 1.116ZM9.50005 0C9.15277 0 8.80949 0.0186767 8.47122 0.0551489L8.68562 2.04362C8.95281 2.01482 9.22452 2 9.50005 2V0ZM10.5289 0.055149C10.1906 0.0186768 9.84733 0 9.50005 0V2C9.77558 2 10.0473 2.01482 10.3145 2.04362L10.5289 0.055149ZM12.7389 2.49084L12.0416 1.116L10.2579 2.02067L10.9552 3.39551L12.7389 2.49084ZM13.8979 3.16592C13.5476 2.92229 13.1759 2.70687 12.7862 2.52303L11.9329 4.33188C12.2211 4.46784 12.4963 4.62731 12.756 4.80789L13.8979 3.16592ZM15.4898 3.10701L13.949 3.19063L14.0573 5.18769L15.5982 5.10407L15.4898 3.10701ZM18.1955 5.66859C17.9154 5.03373 17.568 4.43563 17.1625 3.88327L15.5503 5.06683C15.8707 5.50329 16.1449 5.97539 16.3657 6.4759L18.1955 5.66859ZM17.1884 8.80203L18.0325 7.50749L16.3572 6.4151L15.5131 7.70964L17.1884 8.80203ZM17.2106 9.5C17.2106 9.28419 17.2017 9.07023 17.1842 8.85851L15.191 9.02296C15.204 9.18005 15.2106 9.33914 15.2106 9.5H17.2106ZM17.1842 10.1415C17.2017 9.92977 17.2106 9.71581 17.2106 9.5H15.2106C15.2106 9.66086 15.204 9.81995 15.191 9.97704L17.1842 10.1415ZM18.0325 11.4925L17.1884 10.198L15.5131 11.2904L16.3572 12.5849L18.0325 11.4925ZM17.1625 15.1167C17.568 14.5644 17.9154 13.9663 18.1955 13.3314L16.3657 12.5241C16.1449 13.0246 15.8707 13.4967 15.5503 13.9332L17.1625 15.1167ZM13.949 15.8094L15.4898 15.893L15.5982 13.8959L14.0573 13.8123L13.949 15.8094ZM12.7862 16.477C13.1759 16.2931 13.5476 16.0777 13.8979 15.8341L12.756 14.1921C12.4963 14.3727 12.2211 14.5322 11.9329 14.6681L12.7862 16.477ZM12.0416 17.884L12.7389 16.5092L10.9552 15.6045L10.2579 16.9793L12.0416 17.884ZM9.50005 19C9.84733 19 10.1906 18.9813 10.5289 18.9449L10.3145 16.9564C10.0473 16.9852 9.77558 17 9.50005 17V19ZM8.47122 18.9449C8.80949 18.9813 9.15277 19 9.50005 19V17C9.22452 17 8.95281 16.9852 8.68562 16.9564L8.47122 18.9449ZM6.26125 16.5092L6.95855 17.884L8.74224 16.9793L8.04494 15.6045L6.26125 16.5092ZM5.10223 15.8341C5.45255 16.0777 5.82422 16.2931 6.21395 16.477L7.0672 14.6681C6.77898 14.5322 6.50379 14.3727 6.24413 14.1921L5.10223 15.8341ZM3.51029 15.893L5.05114 15.8094L4.94276 13.8123L3.40191 13.8959L3.51029 15.893ZM0.804598 13.3314C1.0847 13.9663 1.4321 14.5644 1.83759 15.1167L3.44979 13.9332C3.12938 13.4967 2.85524 13.0246 2.63442 12.5241L0.804598 13.3314ZM1.81166 10.198L0.967556 11.4925L2.64287 12.5849L3.48698 11.2904L1.81166 10.198ZM1.78952 9.5C1.78952 9.71581 1.79842 9.92977 1.81588 10.1415L3.80911 9.97704C3.79615 9.81995 3.78952 9.66086 3.78952 9.5H1.78952ZM1.81588 8.85851C1.79842 9.07023 1.78952 9.28419 1.78952 9.5H3.78952C3.78952 9.33914 3.79615 9.18005 3.80911 9.02296L1.81588 8.85851ZM0.967556 7.50749L1.81166 8.80203L3.48698 7.70964L2.64287 6.4151L0.967556 7.50749ZM1.83759 3.88327C1.4321 4.43563 1.0847 5.03373 0.804598 5.66859L2.63442 6.4759C2.85524 5.97539 3.12938 5.50329 3.44979 5.06683L1.83759 3.88327ZM11.6316 9.5C11.6316 10.6772 10.6772 11.6316 9.50001 11.6316V13.6316C11.7818 13.6316 13.6316 11.7818 13.6316 9.5H11.6316ZM9.50001 7.36842C10.6772 7.36842 11.6316 8.32276 11.6316 9.5H13.6316C13.6316 7.21819 11.7818 5.36842 9.50001 5.36842V7.36842ZM7.36843 9.5C7.36843 8.32276 8.32277 7.36842 9.50001 7.36842V5.36842C7.2182 5.36842 5.36843 7.21819 5.36843 9.5H7.36843ZM9.50001 11.6316C8.32277 11.6316 7.36843 10.6772 7.36843 9.5H5.36843C5.36843 11.7818 7.2182 13.6316 9.50001 13.6316V11.6316ZM2.64287 6.4151C2.64092 6.41211 2.64319 6.41379 2.64416 6.42325C2.64528 6.43404 2.64425 6.45363 2.63442 6.4759L0.804598 5.66859C0.527139 6.29747 0.628115 6.98692 0.967556 7.50749L2.64287 6.4151ZM3.40191 13.8959C3.39836 13.8961 3.40092 13.895 3.4095 13.8988C3.41929 13.9032 3.43555 13.9138 3.44979 13.9332L1.83759 15.1167C2.24364 15.6698 2.89021 15.9266 3.51029 15.893L3.40191 13.8959ZM6.24413 14.1921C5.88734 13.944 5.43462 13.7856 4.94276 13.8123L5.05114 15.8094C5.04216 15.8099 5.06201 15.8061 5.10223 15.8341L6.24413 14.1921ZM8.04494 15.6045C7.82235 15.1656 7.45943 14.8531 7.0672 14.6681L6.21395 16.477C6.2586 16.498 6.26534 16.5172 6.26125 16.5092L8.04494 15.6045ZM8.68562 16.9564C8.70968 16.959 8.72709 16.9678 8.73585 16.9741C8.74353 16.9797 8.74385 16.9825 8.74224 16.9793L6.95855 17.884C7.24 18.4389 7.78738 18.8711 8.47122 18.9449L8.68562 16.9564ZM10.2579 16.9793C10.2562 16.9825 10.2566 16.9797 10.2643 16.9741C10.273 16.9678 10.2904 16.959 10.3145 16.9564L10.5289 18.9449C11.2127 18.8711 11.7601 18.4389 12.0416 17.884L10.2579 16.9793ZM11.9329 14.6681C11.5407 14.8531 11.1777 15.1656 10.9552 15.6045L12.7389 16.5092C12.7348 16.5172 12.7415 16.498 12.7862 16.477L11.9329 14.6681ZM14.0573 13.8123C13.5655 13.7856 13.1128 13.944 12.756 14.1921L13.8979 15.8341C13.9381 15.8061 13.9579 15.8099 13.949 15.8094L14.0573 13.8123ZM15.5503 13.9332C15.5645 13.9138 15.5808 13.9032 15.5906 13.8988C15.5992 13.895 15.6017 13.8961 15.5982 13.8959L15.4898 15.893C16.1099 15.9266 16.7565 15.6698 17.1625 15.1167L15.5503 13.9332ZM16.3572 12.5849C16.3592 12.5879 16.3569 12.5862 16.3559 12.5767C16.3548 12.566 16.3559 12.5464 16.3657 12.5241L18.1955 13.3314C18.473 12.7025 18.372 12.0131 18.0325 11.4925L16.3572 12.5849ZM15.5131 7.70964C15.2448 8.12113 15.1553 8.59096 15.191 9.02296L17.1842 8.85851C17.1802 8.80983 17.1933 8.79455 17.1884 8.80203L15.5131 7.70964ZM16.3657 6.4759C16.3559 6.45363 16.3548 6.43404 16.3559 6.42325C16.3569 6.41379 16.3592 6.41211 16.3572 6.4151L18.0325 7.50749C18.372 6.98692 18.473 6.29747 18.1955 5.66859L16.3657 6.4759ZM15.5982 5.10407C15.6017 5.10388 15.5992 5.10499 15.5906 5.10115C15.5808 5.09678 15.5645 5.08623 15.5503 5.06683L17.1625 3.88327C16.7565 3.33017 16.1099 3.07336 15.4898 3.10701L15.5982 5.10407ZM12.756 4.80789C13.1128 5.05602 13.5655 5.21438 14.0573 5.18769L13.949 3.19063C13.9579 3.19014 13.9381 3.19389 13.8979 3.16592L12.756 4.80789ZM10.9552 3.39551C11.1777 3.83438 11.5407 4.14686 11.9329 4.33188L12.7862 2.52303C12.7415 2.50196 12.7348 2.48277 12.7389 2.49084L10.9552 3.39551ZM3.80911 9.02296C3.84475 8.59096 3.75529 8.12113 3.48698 7.70964L1.81166 8.80203C1.80678 8.79455 1.8199 8.80984 1.81588 8.85851L3.80911 9.02296ZM8.74224 2.02067C8.74385 2.0175 8.74353 2.0203 8.73585 2.02585C8.72709 2.03218 8.70968 2.04103 8.68562 2.04362L8.47122 0.0551489C7.78738 0.12888 7.24 0.56107 6.95855 1.116L8.74224 2.02067ZM7.0672 4.33188C7.45943 4.14686 7.82235 3.83438 8.04494 3.39551L6.26125 2.49084C6.26534 2.48277 6.2586 2.50196 6.21395 2.52303L7.0672 4.33188ZM15.191 9.97704C15.1553 10.409 15.2448 10.8789 15.5131 11.2904L17.1884 10.198C17.1933 10.2055 17.1802 10.1902 17.1842 10.1415L15.191 9.97704ZM3.48698 11.2904C3.75529 10.8789 3.84475 10.409 3.80911 9.97704L1.81588 10.1415C1.8199 10.1902 1.80678 10.2055 1.81166 10.198L3.48698 11.2904ZM3.51029 3.10701C2.89021 3.07336 2.24364 3.33017 1.83759 3.88327L3.44979 5.06683C3.43555 5.08623 3.41929 5.09678 3.4095 5.10115C3.40092 5.10499 3.39836 5.10388 3.40191 5.10407L3.51029 3.10701ZM10.3145 2.04362C10.2904 2.04103 10.273 2.03218 10.2643 2.02585C10.2566 2.0203 10.2562 2.0175 10.2579 2.02067L12.0416 1.116C11.7601 0.561069 11.2127 0.12888 10.5289 0.055149L10.3145 2.04362ZM2.63442 12.5241C2.64425 12.5464 2.64528 12.566 2.64416 12.5767C2.64319 12.5862 2.64092 12.5879 2.64287 12.5849L0.967556 11.4925C0.628115 12.0131 0.527138 12.7025 0.804598 13.3314L2.63442 12.5241ZM4.94276 5.18769C5.43461 5.21438 5.88734 5.05602 6.24413 4.80789L5.10223 3.16592C5.06201 3.19389 5.04216 3.19014 5.05114 3.19063L4.94276 5.18769Z" fill="white"/>
</svg>
