<svg width="24" height="25" viewBox="0 0 24 25" fill="none" xmlns="http://www.w3.org/2000/svg">
<path d="M7.50523 5.49179L6.99794 6.35357L7.50523 5.49179ZM7.45239 18.2306L7.90684 19.1214L7.45239 18.2306ZM17.4505 13.1299L16.9961 12.2391L17.4505 13.1299ZM17.5034 11.3773L18.0107 10.5155L17.5034 11.3773ZM16.9961 12.2391L6.99794 17.3399L7.90684 19.1214L17.905 14.0206L16.9961 12.2391ZM6.99794 17.3399L6.99794 6.35357L4.99794 6.35357L4.99794 17.3399L6.99794 17.3399ZM6.99794 6.35357L16.9961 12.2391L18.0107 10.5155L8.01253 4.63002L6.99794 6.35357ZM6.99794 6.35357L6.99794 6.35357L8.01253 4.63002C6.67926 3.84518 4.99794 4.80646 4.99794 6.35357L6.99794 6.35357ZM6.99794 17.3399L4.99794 17.3399C4.99794 18.8337 6.57615 19.8003 7.90684 19.1214L6.99794 17.3399ZM17.905 14.0206C19.311 13.3033 19.3709 11.3163 18.0107 10.5155L16.9961 12.2391L16.9961 12.2391L17.905 14.0206Z" fill="white"/>
</svg>
