<svg width="24" height="24" viewBox="0 0 24 24" fill="none" xmlns="http://www.w3.org/2000/svg">
<path d="M8 7.57117L7.58103 6.66317C7.22683 6.82661 7 7.18109 7 7.57117H8ZM13.1621 5.18929L12.7431 4.28129L13.1621 5.18929ZM8 9V10C8.55228 10 9 9.55228 9 9H8ZM8 15H9C9 14.4477 8.55228 14 8 14V15ZM8 16.4305H7C7 16.8205 7.22683 17.175 7.58103 17.3385L8 16.4305ZM13.1621 18.8123L12.7431 19.7203L13.1621 18.8123ZM8.41897 8.47917L13.581 6.09729L12.7431 4.28129L7.58103 6.66317L8.41897 8.47917ZM9 9V7.57117H7V9H9ZM6 10H8V8H6V10ZM6 10V8C4.89543 8 4 8.89543 4 10H6ZM6 14V10H4V14H6ZM6 14H6H4C4 15.1046 4.89543 16 6 16V14ZM8 14H6V16H8V14ZM9 16.4305V15H7V16.4305H9ZM13.581 17.9043L8.41897 15.5225L7.58103 17.3385L12.7431 19.7203L13.581 17.9043ZM15 16.9964C15 17.7261 14.2436 18.2101 13.581 17.9043L12.7431 19.7203C14.7309 20.6376 17 19.1856 17 16.9964H15ZM15 7.00529V16.9964H17V7.00529H15ZM13.581 6.09729C14.2436 5.79154 15 6.27554 15 7.00529H17C17 4.81604 14.7309 3.36406 12.7431 4.28129L13.581 6.09729Z" fill="white"/>
<path d="M19 15C19.638 14.0813 20 13.0301 20 11.9133C20 10.8662 19.6817 9.8767 19.1161 9" stroke="white" stroke-width="2" stroke-linecap="round"/>
</svg>
