<svg width="24" height="24" viewBox="0 0 24 24" fill="none" xmlns="http://www.w3.org/2000/svg">
<path fill-rule="evenodd" clip-rule="evenodd" d="M12.361 5.24354C14.476 6.2303 16.8517 6.45467 19.0914 5.90517V13.6663C17.2352 14.2637 15.2144 14.1416 13.4356 13.3118L13.1112 13.1604C10.5395 11.9606 7.6493 11.6699 4.90925 12.3142V4.49593L5.03892 4.45207C7.13207 3.74406 9.4176 3.87031 11.42 4.80455L12.361 5.24354ZM12.2656 14.9729C9.95883 13.8966 7.3473 13.6901 4.90925 14.3797C4.87893 14.3882 4.84863 14.3969 4.81836 14.4058L4.81836 21.0942C4.81836 21.6465 4.37064 22.0942 3.81836 22.0942C3.26608 22.0942 2.81836 21.6465 2.81836 21.0942V5.38608C2.81836 5.23719 2.8509 5.0959 2.90925 4.96894V4.12416C2.90925 3.48876 3.31435 2.92409 3.91625 2.7205L4.39809 2.55751C6.97882 1.68458 9.79675 1.84024 12.2656 2.9921L13.2066 3.4311C15.2498 4.38435 17.5958 4.45217 19.6906 3.61855C20.3621 3.35133 21.0914 3.84602 21.0914 4.56874V14.2146C21.0914 14.7141 20.7868 15.1631 20.3227 15.3478C17.8245 16.3419 15.0267 16.2611 12.59 15.1242L12.2656 14.9729Z" fill="white"/>
</svg>
