<svg width="11" height="9" viewBox="0 0 11 9" fill="none" xmlns="http://www.w3.org/2000/svg">
<path fill-rule="evenodd" clip-rule="evenodd" d="M1.1395 2.08815C0.786635 1.75128 0.209592 2.06746 0.30361 2.54616L1.21881 7.20602C1.35607 7.90493 1.85191 8.49072 2.5446 8.65653C3.47641 8.87959 4.46956 9 5.50029 9C6.53076 9 7.52366 8.87965 8.45527 8.6567C9.148 8.49092 9.64389 7.90511 9.78116 7.20617L10.6964 2.54616C10.7904 2.06746 10.2134 1.75128 9.8605 2.08815L7.90364 3.95633C7.63844 4.20952 7.19996 4.10061 7.08403 3.75277L5.97435 0.423251C5.82241 -0.0326244 5.17759 -0.0326244 5.02565 0.423251L3.91597 3.75277C3.80004 4.10061 3.36156 4.20952 3.09636 3.95633L1.1395 2.08815Z" fill="#FFC225"/>
</svg>
