<svg width="20" height="20" viewBox="0 0 20 20" fill="none" xmlns="http://www.w3.org/2000/svg">
<path fill-rule="evenodd" clip-rule="evenodd" d="M9.22573 3.09414C9.22573 2.48986 9.71559 2 10.3199 2C10.9241 2 11.414 2.48986 11.414 3.09414V3.33851C13.2885 3.74693 14.7193 5.06282 14.8525 6.86617C14.8693 7.0937 14.7907 7.31795 14.6354 7.48511C14.4802 7.65227 14.2623 7.74725 14.0342 7.74725H13.4011C12.9849 7.74725 12.6346 7.43563 12.5861 7.02223C12.4977 6.26894 11.6819 5.43129 10.1395 5.43129C8.59609 5.43129 7.82677 6.32248 7.82677 7.10295C7.82677 7.43771 7.9266 7.65361 8.18255 7.86209C8.49112 8.11345 9.04834 8.36508 10.0112 8.59709L10.0137 8.59769L11.0615 8.85365L11.0626 8.85391C12.3129 9.15611 13.3173 9.58368 14.0153 10.2269C14.7502 10.9041 15.0791 11.7587 15.0791 12.7366C15.0791 13.9354 14.5511 14.9755 13.6583 15.6991C13.0453 16.1959 12.2778 16.5315 11.414 16.6899V16.9068C11.414 17.511 10.9241 18.0009 10.3199 18.0009C9.71559 18.0009 9.22573 17.511 9.22573 16.9068V16.7167C7.08901 16.3785 5.36128 14.9608 5.23343 12.8421C5.2198 12.6163 5.29999 12.3949 5.45506 12.2302C5.61013 12.0654 5.82632 11.9721 6.05254 11.9721H6.68562C7.11338 11.9721 7.46939 12.3007 7.50359 12.727C7.57623 13.6326 8.58169 14.5685 10.2677 14.5685C11.9591 14.5685 12.7888 13.6295 12.7888 12.7846C12.7888 12.4175 12.6676 12.1358 12.3668 11.8734C12.0305 11.5801 11.4434 11.2923 10.4818 11.0575L9.36879 10.7853C8.18436 10.4975 7.22506 10.1064 6.55764 9.50619C5.84654 8.86675 5.53646 8.05494 5.53646 7.11897C5.53646 5.07388 7.14026 3.61427 9.22573 3.27858V3.09414Z" fill="currentColor"/>
</svg>
