<svg width="10" height="12" viewBox="0 0 10 12" fill="none" xmlns="http://www.w3.org/2000/svg">
<path d="M8 6L8.41508 6.27876C8.52831 6.11016 8.52831 5.88984 8.41508 5.72124L8 6ZM8 6C8.41508 6.27876 8.415 6.27888 8.41491 6.27901L8.41471 6.27931L8.41421 6.28005L8.41284 6.28208L8.40861 6.28828L8.39428 6.30897C8.38216 6.32631 8.3649 6.35064 8.34275 6.38094C8.2985 6.4415 8.23453 6.52624 8.15284 6.62713C7.9901 6.82814 7.75386 7.09719 7.46005 7.36778C6.89029 7.89253 6.02104 8.5 5 8.5C3.97896 8.5 3.10971 7.89253 2.53995 7.36778C2.24614 7.09719 2.0099 6.82814 1.84716 6.62713C1.76547 6.52624 1.7015 6.4415 1.65725 6.38094C1.6351 6.35064 1.61784 6.32631 1.60572 6.30897L1.59139 6.28828L1.58716 6.28208L1.58579 6.28005L1.58529 6.27931L1.58509 6.27901C1.585 6.27888 1.58492 6.27876 2 6M8 6C8.41508 5.72124 8.415 5.72112 8.41491 5.72099L8.41471 5.72069L8.41421 5.71995L8.41284 5.71792L8.40861 5.71172L8.39428 5.69103C8.38216 5.67369 8.3649 5.64936 8.34275 5.61906C8.2985 5.5585 8.23453 5.47376 8.15284 5.37287C7.9901 5.17186 7.75386 4.90281 7.46005 4.63222C6.89029 4.10747 6.02104 3.5 5 3.5C3.97896 3.5 3.10971 4.10747 2.53995 4.63222C2.24614 4.90281 2.0099 5.17186 1.84716 5.37287C1.76547 5.47376 1.7015 5.5585 1.65725 5.61906C1.6351 5.64936 1.61784 5.67369 1.60572 5.69103L1.59139 5.71172L1.58716 5.71792L1.58579 5.71995L1.58529 5.72069L1.58509 5.72099C1.585 5.72112 1.58492 5.72124 2 6M2 6L1.58492 6.27876C1.47169 6.11016 1.47169 5.88984 1.58492 5.72124L2 6Z" stroke="white" stroke-linejoin="round"/>
<path d="M6 6C6 6.55228 5.55228 7 5 7C4.44772 7 4 6.55228 4 6C4 5.44772 4.44772 5 5 5C5.55228 5 6 5.44772 6 6Z" fill="white"/>
</svg>
