<svg width="10" height="8" viewBox="0 0 10 8" fill="none" xmlns="http://www.w3.org/2000/svg">
<path d="M9 3.99967L9.41508 4.27843C9.52831 4.10984 9.52831 3.88951 9.41508 3.72092L9 3.99967ZM9 3.99967C9.41508 4.27843 9.415 4.27856 9.41491 4.2787L9.41469 4.27902L9.41413 4.27985L9.41251 4.28224L9.40731 4.28987L9.38912 4.31613C9.37358 4.33836 9.35124 4.36984 9.32243 4.40926C9.26486 4.48805 9.18124 4.59883 9.07426 4.73097C8.86091 4.99448 8.55145 5.34686 8.16715 5.70079C7.41643 6.3922 6.29718 7.16634 5 7.16634C3.70282 7.16634 2.58357 6.3922 1.83285 5.70079C1.44855 5.34686 1.13909 4.99448 0.92574 4.73097C0.818755 4.59883 0.735139 4.48805 0.677566 4.40926C0.648761 4.36984 0.62642 4.33836 0.610879 4.31613L0.59269 4.28987L0.587487 4.28224L0.585871 4.27985L0.585311 4.27902L0.585093 4.2787C0.585002 4.27856 0.584917 4.27843 1 3.99967M9 3.99967C9.41508 3.72092 9.415 3.72079 9.41491 3.72065L9.41469 3.72033L9.41413 3.7195L9.41251 3.71711L9.40731 3.70948L9.38912 3.68322C9.37358 3.66099 9.35124 3.62951 9.32243 3.59009C9.26486 3.5113 9.18124 3.40052 9.07426 3.26838C8.86091 3.00487 8.55145 2.65249 8.16715 2.29856C7.41643 1.60715 6.29718 0.833008 5 0.833008C3.70282 0.833008 2.58357 1.60715 1.83285 2.29856C1.44855 2.65249 1.13909 3.00487 0.92574 3.26838C0.818755 3.40052 0.735139 3.5113 0.677566 3.59009C0.648761 3.62951 0.62642 3.66099 0.610879 3.68322L0.59269 3.70948L0.587487 3.71711L0.585871 3.7195L0.585311 3.72033L0.585093 3.72065C0.585002 3.72079 0.584917 3.72092 1 3.99967M1 3.99967L0.584917 4.27843C0.471694 4.10984 0.471694 3.88951 0.584917 3.72092L1 3.99967Z" stroke="#C3C2CC" stroke-linejoin="round"/>
<path d="M6.33329 3.99935C6.33329 4.73573 5.73634 5.33268 4.99996 5.33268C4.26358 5.33268 3.66663 4.73573 3.66663 3.99935C3.66663 3.26297 4.26358 2.66602 4.99996 2.66602C5.73634 2.66602 6.33329 3.26297 6.33329 3.99935Z" fill="#C3C2CC"/>
</svg>
