<svg width="22" height="26" viewBox="0 0 22 26" fill="none" xmlns="http://www.w3.org/2000/svg">
<path d="M3.31888 0.626031C2.67719 0.239753 1.91242 0.205212 1.24543 0.526786L12.4285 11.7337L16.085 8.06018L3.31888 0.626031ZM0.217954 1.564C0.07687 1.86271 0.000976562 2.19498 0.000976562 2.53699V23.037C0.000976562 23.3804 0.0773565 23.7079 0.2199 24.0002L11.3986 12.7685L0.217954 1.564ZM12.43 13.8018L1.26494 25.0199C1.56122 25.1571 1.87647 25.217 2.19123 25.217C2.57994 25.217 2.96768 25.124 3.31893 24.9129L16.0875 17.4676L12.43 13.8018ZM20.9471 10.8916C20.9428 10.8887 20.9379 10.8858 20.9335 10.8833L17.3889 8.81912L13.4595 12.767L17.3913 16.7072C17.3913 16.7072 20.9428 14.6366 20.9471 14.6342C21.6063 14.2338 21.9999 13.5342 21.9999 12.7627C21.9999 11.9911 21.6063 11.2915 20.9471 10.8916Z" fill="white"/>
</svg>
