<svg width="134" height="30" viewBox="0 0 134 30" fill="none" xmlns="http://www.w3.org/2000/svg">
<path d="M78.569 8.73898L71.7027 25.3456C71.4711 25.9162 70.9204 26.3065 70.3121 26.3065H68.5161L70.3703 21.8321L70.3121 21.6819L64.8945 8.73898H66.9228C67.531 8.73898 68.0811 9.09936 68.3133 9.69992L71.8478 18.2585L75.3824 9.66992C75.6139 9.09936 76.1646 8.70898 76.7729 8.70898H78.569V8.73898Z" fill="url(#paint0_linear)"/>
<path d="M82.2775 20.9312C81.2637 20.3607 80.452 19.5799 79.8726 18.5889C79.2937 17.5979 79.0039 16.4567 79.0039 15.1655C79.0039 13.8742 79.2937 12.7631 79.8726 11.7721C80.452 10.7811 81.2343 10.0003 82.2487 9.42974C83.2625 8.85918 84.4215 8.58887 85.7251 8.58887C86.9416 8.58887 88.0136 8.85918 88.9411 9.36968C89.8679 9.88018 90.5632 10.6309 91.0269 11.5919L89.8967 12.2826C89.3466 12.6129 88.6219 12.5529 88.1294 12.1024C87.9267 11.8922 87.6951 11.7421 87.4635 11.5919C86.9416 11.2916 86.3334 11.1414 85.6963 11.1414C84.5949 11.1414 83.6968 11.5018 83.0016 12.2526C82.2775 12.9733 81.9296 13.9642 81.9296 15.1955C81.9296 16.4267 82.2775 17.3877 83.0016 18.1384C83.6968 18.8592 84.6243 19.2496 85.7251 19.2496C86.3622 19.2496 86.9416 19.0994 87.4923 18.7991C87.7239 18.6489 87.9561 18.4988 88.1588 18.2886C88.6513 17.8382 89.3466 17.7781 89.9261 18.1084L91.0557 18.7991C90.5632 19.7601 89.8679 20.5108 88.9411 21.0213C88.0136 21.5319 86.9416 21.8021 85.7539 21.8021C84.4503 21.7721 83.2913 21.5018 82.2775 20.9312Z" fill="#161616"/>
<path d="M110.208 21.3514C109.252 21.0812 108.47 20.7208 107.891 20.3003L108.325 19.3995C108.673 18.6787 109.484 18.3484 110.208 18.6487C110.469 18.7688 110.73 18.8589 111.02 18.949C111.802 19.1892 112.584 19.3093 113.337 19.3093C115.075 19.3093 115.945 18.8289 115.945 17.898C115.945 17.4475 115.713 17.1472 115.278 16.967C114.843 16.7868 114.119 16.6067 113.163 16.4565C112.149 16.3063 111.309 16.0962 110.672 15.916C110.035 15.7058 109.484 15.3454 108.991 14.8048C108.528 14.2943 108.296 13.5436 108.296 12.6127C108.296 11.3814 108.789 10.4205 109.774 9.66972C110.759 8.94903 112.091 8.55859 113.772 8.55859C114.612 8.55859 115.481 8.64872 116.321 8.85891C117.161 9.06909 117.885 9.33941 118.407 9.66972L117.944 10.6307C117.596 11.3514 116.785 11.6517 116.061 11.3814C115.336 11.1412 114.554 10.991 113.714 10.991C112.873 10.991 112.207 11.1112 111.773 11.3814C111.338 11.6517 111.106 12.0121 111.106 12.4325C111.106 12.913 111.338 13.2433 111.831 13.4535C112.294 13.6637 113.047 13.8439 114.032 14.0241C115.017 14.1742 115.828 14.3844 116.466 14.5646C117.103 14.7748 117.654 15.1352 118.118 15.6157C118.581 16.1262 118.813 16.8168 118.813 17.7478C118.813 18.949 118.32 19.91 117.306 20.6307C116.292 21.3514 114.93 21.7118 113.192 21.7118C112.149 21.7718 111.164 21.6217 110.208 21.3514Z" fill="#161616"/>
<path d="M132.112 9.99989C133.067 10.9609 133.531 12.3423 133.531 14.2341V21.6215H132.14C131.3 21.6215 130.634 20.9308 130.634 20.06V14.6245C130.634 13.5135 130.373 12.6426 129.881 12.072C129.359 11.5014 128.635 11.2311 127.708 11.2311C126.636 11.2311 125.795 11.5615 125.158 12.2221C124.55 12.8828 124.231 13.8438 124.231 15.105V20.06C124.231 20.9308 123.565 21.6215 122.725 21.6215H121.334V5.2852C121.334 4.41432 122 3.72363 122.84 3.72363H124.231V10.2101C124.723 9.66958 125.303 9.2792 125.998 8.97889C126.693 8.70864 127.476 8.55845 128.345 8.55845C129.909 8.58851 131.184 9.06895 132.112 9.99989Z" fill="#161616"/>
<path d="M48.0063 13.3336C47.9483 13.0634 47.8614 12.7931 47.7456 12.5529C47.6586 12.2826 47.5138 12.0424 47.3689 11.7721C46.8184 10.7811 46.0073 10.0003 44.9933 9.42974C44.0082 8.88918 42.9073 8.61893 41.6905 8.58887H41.6036C41.4877 8.58887 41.3718 8.58887 41.2559 8.61893C40.126 8.64893 39.112 8.94924 38.2139 9.42974C38.0691 9.5198 37.9242 9.60993 37.7793 9.69999C36.9681 10.2105 36.3308 10.9012 35.8383 11.7421C35.3168 12.673 34.998 13.6339 34.998 15.1655V26.2766H36.3887C37.2289 26.2766 37.8952 25.5859 37.8952 24.7151V20.0304C38.7644 21.0514 39.8653 21.6219 41.2559 21.7421C41.3428 21.7721 41.4587 21.7721 41.5746 21.7721H41.6615C42.8783 21.7421 43.9792 21.4718 44.9643 20.9312C45.9783 20.3607 46.7605 19.5799 47.3399 18.5889C47.5717 18.1384 47.7745 17.7181 47.8904 17.2075C47.9193 17.1474 47.9193 17.0874 47.9483 16.9973C48.0932 16.4267 48.1511 15.8261 48.1511 15.1655C48.2091 14.5048 48.1222 13.9042 48.0063 13.3336ZM44.211 18.0784C43.5157 18.8291 42.6466 19.1895 41.5746 19.1895C40.8793 19.1895 40.2419 19.0394 39.6625 18.679C39.112 18.3487 38.6775 17.8982 38.3298 17.2676C38.0111 16.667 37.8373 15.9763 37.8373 15.1655C37.8373 14.3547 37.9821 13.6339 38.3298 13.0334C38.6485 12.4327 39.112 11.9522 39.6625 11.6219C40.2129 11.2916 40.8503 11.1114 41.5746 11.1114C42.6466 11.1114 43.5157 11.5018 44.211 12.2226C44.8774 12.9733 45.225 13.9642 45.225 15.1655C45.254 16.3667 44.9063 17.3577 44.211 18.0784Z" fill="url(#paint1_linear)"/>
<path d="M49.918 15.1655C49.918 15.7961 50.0049 16.4267 50.1208 16.9973C50.1498 17.0874 50.1498 17.1474 50.1787 17.2075C50.3236 17.688 50.4974 18.1384 50.7292 18.5889C51.2797 19.5799 52.0908 20.3907 53.1048 20.9312C54.0899 21.4718 55.1908 21.7421 56.4076 21.7721H56.4945C56.6104 21.7721 56.6973 21.7721 56.8132 21.7421C58.2038 21.6219 59.3046 21.0514 60.1738 20.0304C60.1738 20.9012 60.8403 21.5919 61.6801 21.5919H63.0713V15.1655C63.0713 13.6339 62.7521 12.673 62.2308 11.7421C61.7383 10.9012 61.1012 10.2105 60.2896 9.69999C60.145 9.60993 60.0292 9.4898 59.8552 9.42974C58.9572 8.91924 57.9431 8.64893 56.8132 8.61893C56.6973 8.58887 56.5814 8.58887 56.4655 8.58887H56.3787C55.1618 8.61893 54.0609 8.88918 53.0758 9.42974C52.0619 10.0003 51.2797 10.7811 50.7002 11.7721C50.5554 12.0424 50.4395 12.2826 50.3236 12.5529C50.2367 12.7931 50.1208 13.0634 50.0628 13.3336C50.0049 13.9042 49.918 14.5048 49.918 15.1655ZM52.9021 15.1655C52.9021 13.9642 53.2497 12.9733 53.9161 12.2226C54.6114 11.5018 55.4805 11.1114 56.5524 11.1114C57.2478 11.1114 57.8852 11.2616 58.4646 11.6219C59.0148 11.9522 59.4497 12.4327 59.7971 13.0334C60.1162 13.6339 60.2896 14.3547 60.2896 15.1655C60.2896 15.9763 60.145 16.667 59.7971 17.2676C59.4785 17.8982 59.0148 18.3487 58.4646 18.679C57.9141 19.0093 57.2767 19.1895 56.5524 19.1895C55.4805 19.1895 54.6114 18.8291 53.9161 18.0784C53.2497 17.3577 52.9021 16.3667 52.9021 15.1655Z" fill="url(#paint2_linear)"/>
<path d="M92.3633 15.1655C92.3633 15.7961 92.4503 16.4267 92.566 16.9973C92.5948 17.0874 92.5948 17.1474 92.6242 17.2075C92.7688 17.688 92.9428 18.1384 93.1743 18.5889C93.725 19.5799 94.5361 20.3907 95.5505 20.9312C96.5355 21.4718 97.6363 21.7421 98.8529 21.7721H98.9398C99.0556 21.7721 99.1426 21.7721 99.2584 21.7421C100.649 21.6219 101.75 21.0514 102.619 20.0303C102.619 20.9012 103.285 21.5919 104.126 21.5919H105.516V15.1655C105.516 13.6339 105.198 12.673 104.676 11.7421C104.183 10.9012 103.546 10.2105 102.735 9.69999C102.59 9.60993 102.474 9.4898 102.3 9.42974C101.402 8.91924 100.389 8.64893 99.2584 8.61893C99.1426 8.58887 99.0268 8.58887 98.9111 8.58887H98.8241C97.6069 8.61893 96.5061 8.88918 95.5211 9.42974C94.5073 10.0003 93.725 10.7811 93.1455 11.7721C93.001 12.0424 92.8846 12.2826 92.7688 12.5529C92.6818 12.7931 92.566 13.0634 92.5084 13.3336C92.4503 13.9042 92.3633 14.5048 92.3633 15.1655ZM95.3183 15.1655C95.3183 13.9642 95.6663 12.9733 96.3321 12.2226C97.028 11.5018 97.8967 11.1114 98.9687 11.1114C99.6639 11.1114 100.302 11.2616 100.881 11.6219C101.431 11.9522 101.866 12.4327 102.213 13.0334C102.533 13.6339 102.706 14.3547 102.706 15.1655C102.706 15.9763 102.561 16.667 102.213 17.2676C101.895 17.8982 101.431 18.3487 100.881 18.679C100.33 19.0093 99.6933 19.1895 98.9687 19.1895C97.8967 19.1895 97.028 18.8291 96.3321 18.0784C95.6663 17.3577 95.3183 16.3667 95.3183 15.1655Z" fill="#161616"/>
<path d="M27.6678 3.84334V22.5521C27.6678 24.2337 26.451 25.6151 24.8866 25.8253C24.7996 25.8253 22.8875 25.8554 22.8875 25.8554V27.6571C22.8875 28.9184 22.4529 29.8193 21.2361 29.9694C20.8016 30.0295 20.2801 29.9995 19.6427 29.8493L3.18687 25.8854C1.33269 25.4649 0.144858 24.2637 0.0289715 22.6421C0 22.522 0 22.4019 0 22.2817V3.57307C0 3.45295 0 3.33283 0.0289715 3.24274C0.173829 1.68118 1.41961 0.540039 2.95509 0.540039H3.12892H3.1579C3.18687 0.540039 3.21584 0.540039 3.24481 0.540039H24.5099C26.2482 0.540039 27.6678 2.04154 27.6678 3.84334Z" fill="url(#paint3_linear)"/>
<path d="M22.6268 8.28856C22.2212 7.11737 21.2941 6.18645 20.1642 5.88615C20.1642 5.88615 5.53357 1.35161 3.33173 0.660921C3.12892 0.570832 2.89716 0.540801 2.66538 0.570832C1.24578 0.690952 0.144858 1.77203 0 3.2435C0 3.36363 0 3.45371 0 3.57383V5.97624V6.69693V22.2826C0 22.4027 0 22.4927 0.0289716 22.6129C0.173829 24.2645 1.36166 25.4357 3.18687 25.8561L10.198 27.5378L10.5746 27.6279L19.6427 29.8201C20.2801 29.9702 20.8305 30.0002 21.2361 29.9402C22.4529 29.7901 22.8875 28.8891 22.8875 27.6279V12.6129V12.0122V9.69993C22.8875 9.18943 22.8006 8.709 22.6268 8.28856Z" fill="url(#paint4_linear)"/>
<path d="M22.6268 8.28856C22.2212 7.11737 21.2941 6.18645 20.1642 5.88615C20.1642 5.88615 5.53357 1.35161 3.33173 0.660921C3.12892 0.570832 2.89716 0.540801 2.66538 0.570832C1.24578 0.690952 0.144858 1.77203 0 3.2435C0 3.36363 0 3.45371 0 3.57383V5.97624V6.69693V22.2826C0 22.4027 0 22.4927 0.0289716 22.6129C0.173829 24.2645 1.36166 25.4357 3.18687 25.8561L10.198 27.5378L10.5746 27.6279L19.6427 29.8201C20.2801 29.9702 20.8305 30.0002 21.2361 29.9402C22.4529 29.7901 22.8875 28.8891 22.8875 27.6279V12.6129V12.0122V9.69993C22.8875 9.18943 22.8006 8.709 22.6268 8.28856Z" fill="url(#paint5_linear)"/>
<path d="M28.1903 3.30331V22.012C28.1903 23.6637 28.1903 23.8439 26.3941 25.1952C27.1473 24.5946 27.6398 23.6336 27.6398 22.5826V3.84384C27.6398 2.01201 26.2202 0.540541 24.4529 0.540541H5.33174C9.70642 1.89189 20.6577 5.28529 20.6577 5.28529C21.7876 5.58559 22.7146 6.5165 23.1203 7.68769C23.2941 8.13813 23.352 8.61863 23.352 9.09913V27.0871C23.352 28.2583 23.352 28.8889 22.0773 29.6096C22.2511 29.4895 22.367 29.3093 22.4829 29.1291C22.7146 28.7388 22.8016 28.2283 22.8016 27.6276V9.66969C22.8016 9.18919 22.7146 8.70869 22.5698 8.25825C22.1642 7.08706 21.2371 6.15616 20.1072 5.85586C20.1072 5.85586 5.41865 1.29129 3.27475 0.630631C3.1299 0.570571 2.89813 0.540541 2.69532 0.570571C2.43458 0.570571 2.20281 0.630631 1.97103 0.720719H1.94206C1.85515 0.75075 1.76824 0.780781 1.71029 0.810813C1.68132 0.810813 1.62337 0.840844 1.59441 0.870869C1.56543 0.870869 1.50749 0.9009 1.47852 0.930931C1.44954 0.960963 1.39161 0.960963 1.36263 0.990994C1.33366 0.990994 1.33366 1.02102 1.30469 1.02102C1.24675 1.08108 1.1888 1.11111 1.13086 1.17117C1.47852 0.690694 1.94206 0.360361 2.49252 0.15015H2.52149C2.84018 0.0600601 3.1299 0 3.47756 0H3.65138H3.68036C3.70932 0 3.7383 0 3.76727 0H25.0324C26.7707 0 28.1903 1.47148 28.1903 3.30331Z" fill="url(#paint6_linear)"/>
<mask id="mask0" style="mask-type:alpha" maskUnits="userSpaceOnUse" x="5" y="0" width="21" height="26">
<path d="M25.8136 9.12888V25.5853C25.5239 25.7355 25.2052 25.8256 24.8865 25.8556C24.8286 25.8556 23.9884 25.8556 23.409 25.8856V9.12888C23.409 8.64839 23.322 8.16788 23.1772 7.71745C22.7716 6.54632 21.8445 5.61536 20.7146 5.31506C20.7146 5.31506 9.76335 1.92167 5.38867 0.570312C10.3428 1.92167 22.7426 5.31506 22.7426 5.31506C24.0174 5.61536 25.0603 6.54632 25.5239 7.71745C25.7267 8.16788 25.8136 8.64839 25.8136 9.12888Z" fill="url(#paint7_linear)"/>
</mask>
<g mask="url(#mask0)">
<path opacity="0.33" d="M25.8136 9.12888V25.5853C25.5239 25.7355 25.2052 25.8256 24.8865 25.8556C24.8286 25.8556 23.9884 25.8556 23.409 25.8856V9.12888C23.409 8.64839 23.322 8.16788 23.1772 7.71745C22.7716 6.54632 21.8445 5.61536 20.7146 5.31506C20.7146 5.31506 9.76335 1.92167 5.38867 0.570312C10.3428 1.92167 22.7426 5.31506 22.7426 5.31506C24.0174 5.61536 25.0603 6.54632 25.5239 7.71745C25.7267 8.16788 25.8136 8.64839 25.8136 9.12888Z" fill="url(#paint8_linear)"/>
<g opacity="0.49">
<g opacity="0.49">
<g opacity="0.49">
<path opacity="0.49" d="M10.7214 22.6127C10.2288 22.6127 9.73633 22.5527 9.21485 22.4025C8.02701 22.0722 7.01302 21.4115 6.20185 20.4806C6.05697 20.3305 5.94108 20.1503 5.82519 20.0001C5.76725 19.94 5.70931 19.85 5.65136 19.7899L5.56445 19.6698L5.76725 19.5497L5.85416 19.6097L6.05697 19.7899C6.20185 19.91 6.34666 20.0302 6.49153 20.1503C7.01302 20.5407 7.59245 20.841 8.20086 21.0212C8.78029 21.2013 9.33075 21.2914 9.8812 21.2914C10.6055 21.2914 11.3008 21.1112 11.9382 20.7509C12.8943 20.2404 13.4737 19.3995 13.7054 18.3184C13.9372 17.2374 13.7054 16.1262 13.0681 15.0152C13.0391 14.9851 13.0391 14.9551 13.0102 14.895L12.9232 14.4746L13.2419 14.7449C13.2709 14.7749 13.2998 14.8049 13.3288 14.8049C14.1979 15.7059 14.7484 16.7269 14.9222 17.868C15.0961 18.859 14.9512 19.7599 14.5167 20.5707C13.9083 21.7119 12.8943 22.4025 11.5326 22.6127C11.2429 22.5827 10.9821 22.6127 10.7214 22.6127Z" fill="white"/>
<path opacity="0.49" d="M13.1547 14.7749C13.1837 14.805 13.2126 14.805 13.2126 14.835C14.0528 15.7058 14.5743 16.6968 14.7771 17.838C14.9509 18.829 14.7771 19.6998 14.3715 20.4506C13.7341 21.5917 12.7491 22.2223 11.4743 22.4326C11.2136 22.4626 10.9818 22.4926 10.7211 22.4926C10.2575 22.4926 9.76501 22.4326 9.2725 22.2824C8.17158 21.9521 7.15759 21.3515 6.31739 20.3905C6.11457 20.1803 5.94078 19.91 5.76693 19.6698C5.76693 19.6698 5.76693 19.6698 5.79591 19.6698C5.99873 19.85 6.23046 20.0301 6.43329 20.1803C6.98374 20.6007 7.56318 20.901 8.17158 21.0812C8.77999 21.2614 9.33045 21.3515 9.88091 21.3515C10.6341 21.3515 11.3584 21.1713 12.0248 20.811C12.9808 20.2704 13.6182 19.4596 13.879 18.2884C14.1107 17.1773 13.908 16.0361 13.2416 14.865C13.1837 14.835 13.1547 14.805 13.1547 14.7749ZM12.6911 13.9941L12.8939 14.835C12.9229 14.9251 12.9519 14.9551 12.9519 15.0151C13.5892 16.0962 13.7921 17.1773 13.5603 18.2283C13.3575 19.2794 12.7781 20.0602 11.8509 20.5707C11.2425 20.901 10.5473 21.0812 9.85193 21.0812C9.33045 21.0812 8.77999 20.9911 8.22953 20.811C7.6501 20.6308 7.07067 20.3305 6.57816 19.9401C6.43329 19.82 6.28841 19.6998 6.14354 19.5797C6.08559 19.5196 5.99873 19.4596 5.94078 19.3995L5.79591 19.3095L5.65104 19.3995H5.62208L5.36133 19.5497L5.56413 19.7899C5.62208 19.85 5.68002 19.9401 5.73796 20.0001C5.85385 20.1803 5.99873 20.3305 6.14354 20.5106C6.98374 21.4716 8.02671 22.1323 9.21455 22.4926C9.73603 22.6428 10.2575 22.7329 10.75 22.7329C11.0108 22.7329 11.2715 22.7028 11.5323 22.6728C12.9519 22.4326 13.9948 21.7419 14.6322 20.5707C15.0957 19.7298 15.2406 18.799 15.0668 17.7779C14.864 16.6068 14.3135 15.5557 13.4444 14.6248C13.4154 14.5947 13.4154 14.5947 13.3864 14.5647H13.3575L12.6911 13.9941Z" fill="black"/>
</g>
<g opacity="0.49">
<path opacity="0.49" d="M16.5746 22.8533H16.5457L16.3428 22.7933L16.5457 22.523C16.9223 22.0125 17.1541 21.4119 17.2409 20.7512C17.4437 19.2497 17.0671 17.7482 16.14 16.2767C15.4737 15.1956 14.6045 14.3848 13.5905 13.8743C12.9242 13.544 12.2868 13.3638 11.6784 13.3638C11.2149 13.3638 10.7513 13.484 10.3168 13.6641L10.1719 13.7242L10.085 13.6641L9.99805 13.574L10.085 13.4539L10.2009 13.3338C10.2878 13.2437 10.3747 13.1536 10.4616 13.0935C11.041 12.6131 11.7363 12.3428 12.5476 12.3428C12.6345 12.3428 12.6924 12.3428 12.7793 12.3428C13.7064 12.4028 14.6045 12.7632 15.4737 13.4239C16.8353 14.4449 17.7624 15.8563 18.226 17.568C18.3998 18.2287 18.4867 18.8893 18.4577 19.52C18.3998 20.7512 17.9942 21.7121 17.2699 22.4028C17.1541 22.523 17.0092 22.6131 16.8933 22.7031C16.8353 22.7332 16.7774 22.7933 16.7194 22.8233L16.6905 22.8533H16.5746Z" fill="white"/>
<path opacity="0.49" d="M12.5182 12.4927C12.6052 12.4927 12.6631 12.4927 12.75 12.4927C13.6771 12.5528 14.5463 12.9131 15.3575 13.5438C16.7481 14.5948 17.6172 15.9761 18.0518 17.6278C18.2256 18.2885 18.3126 18.9191 18.2836 19.5498C18.2256 20.6909 17.878 21.6218 17.1537 22.3425C16.9798 22.4927 16.8061 22.6128 16.6032 22.7629H16.5743C16.5743 22.7629 16.5743 22.7629 16.5453 22.7629C16.5743 22.7329 16.6032 22.7029 16.6322 22.6729C17.0088 22.1624 17.2696 21.5317 17.3565 20.841C17.5593 19.3095 17.1827 17.7779 16.2556 16.2764C15.5892 15.1954 14.7201 14.3546 13.6481 13.814C12.9818 13.4536 12.3155 13.3035 11.6781 13.3035C11.1856 13.3035 10.722 13.4236 10.2585 13.6338C10.2295 13.6338 10.2295 13.6638 10.2005 13.6638C10.2005 13.6638 10.2005 13.6638 10.1715 13.6338C10.2874 13.5137 10.4033 13.3936 10.5192 13.2734C11.0697 12.7329 11.736 12.4927 12.5182 12.4927ZM12.5182 12.1924C11.6781 12.1924 10.9538 12.4626 10.3454 12.9731C10.2585 13.0633 10.1715 13.1533 10.0847 13.2134C10.0557 13.2434 10.0267 13.2734 9.96877 13.3335L9.79492 13.5137L9.96877 13.7239L9.99774 13.7539L10.1136 13.9041L10.2874 13.814H10.3164C10.3454 13.814 10.3454 13.814 10.3744 13.7839C10.7799 13.5738 11.2435 13.4837 11.6781 13.4837C12.2575 13.4837 12.8949 13.6638 13.5323 13.9641C14.5463 14.4746 15.3864 15.2554 16.0238 16.3365C16.922 17.7779 17.2986 19.2494 17.0957 20.7209C17.0088 21.3816 16.7771 21.9521 16.4294 22.4326L16.3715 22.5227L16.3425 22.5528L16.1107 22.8831L16.4873 23.0032C16.5163 23.0032 16.5453 23.0032 16.5743 23.0032C16.6322 23.0032 16.6902 22.9732 16.7481 22.9431C16.8061 22.9131 16.864 22.8531 16.922 22.823C17.0668 22.7329 17.1827 22.6428 17.3275 22.5227C18.0808 21.802 18.4864 20.811 18.5444 19.5498C18.5733 18.8891 18.4864 18.2284 18.3126 17.5378C17.8201 15.796 16.893 14.3846 15.5023 13.3035C14.6332 12.6428 13.7061 12.2524 12.75 12.1924C12.6921 12.2224 12.6052 12.1924 12.5182 12.1924Z" fill="black"/>
</g>
<g opacity="0.49">
<path opacity="0.49" d="M12.5748 23.9043C12.1693 23.9043 11.7637 23.8443 11.3581 23.7241C11.3001 23.6941 11.2132 23.6941 11.1553 23.6641L10.1992 23.3638H11.1553C12.5748 23.3638 13.6468 22.8232 14.429 21.652C14.7767 21.1415 15.0085 20.541 15.1244 19.8803C15.3271 18.619 15.1244 17.3878 14.487 16.2166C13.8786 15.0755 12.9805 14.2346 11.8506 13.7541H11.8216C11.7926 13.7241 11.7347 13.7241 11.7057 13.6641L11.5319 13.4238L11.8796 13.4538C11.9375 13.4538 11.9954 13.4538 12.0534 13.4538C12.1403 13.4538 12.2272 13.4839 12.2852 13.4839C13.5599 13.7541 14.6608 14.4448 15.53 15.616C16.0804 16.3367 16.4281 17.1475 16.6309 18.0785C17.1524 20.541 16.0514 22.8833 14.0524 23.6641C13.5309 23.8142 13.0674 23.9043 12.5748 23.9043Z" fill="white"/>
<path opacity="0.49" d="M11.7637 13.5735C11.8506 13.5735 11.9085 13.5735 11.9954 13.6035C12.0824 13.6035 12.1403 13.6335 12.2272 13.6335C13.473 13.8738 14.516 14.5645 15.3851 15.7056C15.9356 16.4564 16.2833 17.2372 16.4571 18.108C16.9785 20.5405 15.8776 22.7927 13.9655 23.5134C13.531 23.6936 13.0674 23.7837 12.5749 23.7837C12.1983 23.7837 11.7927 23.7237 11.387 23.6035C11.2712 23.5735 11.1843 23.5435 11.0684 23.5134C11.0974 23.5134 11.0973 23.5134 11.1263 23.5134C12.6039 23.5134 13.7048 22.9129 14.487 21.7717C14.8636 21.2312 15.0954 20.6305 15.2113 19.9399C15.4141 18.7087 15.2402 17.4474 14.545 16.1861C13.9076 15.0149 13.0094 14.1441 11.8217 13.6636C11.8217 13.6636 11.7927 13.6636 11.7927 13.6335C11.7927 13.6035 11.7927 13.6035 11.7637 13.5735ZM11.2132 13.2432L11.5609 13.7237C11.6188 13.8137 11.6768 13.8438 11.7058 13.8438C11.7347 13.8438 11.7347 13.8738 11.7637 13.8738C12.8646 14.3543 13.7337 15.1651 14.3421 16.2762C14.9506 17.4174 15.1824 18.6185 14.9795 19.8498C14.8636 20.4804 14.6609 21.051 14.3132 21.5615C13.5599 22.6726 12.5169 23.2132 11.1553 23.2132H11.0973L9.33008 23.1831L11.0104 23.7537L11.0973 23.7837C11.1843 23.8137 11.2422 23.8438 11.3291 23.8438C11.7637 23.9639 12.1693 24.024 12.5749 24.024C13.0674 24.024 13.5889 23.9339 14.0525 23.7537C16.1094 22.9729 17.2393 20.5405 16.7178 18.0179C16.515 17.087 16.1384 16.2462 15.5879 15.5255C14.7188 14.3543 13.5889 13.6335 12.2852 13.3633C12.1983 13.3633 12.1403 13.3333 12.0244 13.3333C11.9665 13.3333 11.9085 13.3333 11.8506 13.3333H11.7927L11.2132 13.2432Z" fill="black"/>
</g>
<g opacity="0.49">
<path opacity="0.49" d="M9.59292 16.6367L9.50599 16.5466C9.44804 16.4865 9.41907 16.4565 9.36118 16.3965C8.57893 15.5256 8.08642 14.5646 7.91257 13.4835C7.7677 12.6427 7.85462 11.8619 8.14437 11.1712C8.66585 9.90996 9.62189 9.12915 11.0126 8.79884C11.3602 8.70877 11.7368 8.67871 12.0845 8.67871C12.577 8.67871 13.0695 8.73877 13.562 8.88896C14.9237 9.27934 16.0246 10.0601 16.8937 11.2013C16.9517 11.2913 17.0096 11.3514 17.0676 11.4415L17.2704 11.7118L17.0096 11.7718L16.9517 11.7418L16.7489 11.5916C16.6041 11.4715 16.4592 11.3514 16.3143 11.2613C15.7928 10.8709 15.2134 10.5706 14.605 10.3604C14.0256 10.1802 13.4751 10.0901 12.9246 10.0901C12.2004 10.0901 11.4761 10.2703 10.8387 10.6306C9.91164 11.1412 9.30323 11.952 9.07143 13.0331C8.8397 14.1141 9.04246 15.2253 9.67984 16.3664L9.73779 16.4865L9.79574 16.937L9.59292 16.6367Z" fill="white"/>
<path opacity="0.49" d="M12.1129 8.82884C12.5765 8.82884 13.069 8.88891 13.5615 9.03909C14.8363 9.39941 15.9372 10.1202 16.8353 11.3213C16.9222 11.4415 16.9801 11.5316 17.0671 11.6517C16.8642 11.4715 16.6615 11.2913 16.4297 11.1412C15.8792 10.7208 15.2998 10.4205 14.6914 10.2403C14.083 10.0601 13.5325 9.97003 12.9821 9.97003C12.2288 9.97003 11.5045 10.1502 10.8382 10.5105C9.88213 11.021 9.24475 11.8619 9.01295 13.003C8.78122 14.1142 8.98398 15.2553 9.65033 16.4265C9.67931 16.4565 9.67931 16.4865 9.70828 16.5165C9.70828 16.5165 9.70828 16.5165 9.70828 16.5466C9.62136 16.4565 9.56341 16.3964 9.47649 16.3063C8.72327 15.4655 8.23076 14.5346 8.05691 13.4835C7.91204 12.6727 7.99896 11.922 8.28871 11.2313C8.81019 9.97003 9.76623 9.24928 11.07 8.94897C11.4176 8.88891 11.7652 8.82884 12.1129 8.82884ZM12.1129 8.55859C11.7363 8.55859 11.3597 8.58866 11.012 8.67872C9.59239 9.00903 8.57839 9.81984 8.05691 11.1412C7.73825 11.8619 7.6803 12.6727 7.82511 13.5436C7.99896 14.6247 8.49147 15.6457 9.3027 16.5165C9.36065 16.5766 9.38962 16.6067 9.44757 16.6667L9.53444 16.7568L10.1139 17.3874L9.96906 16.5165V16.4865V16.4265L9.94008 16.3664L9.91111 16.3063L9.88213 16.2763C9.27372 15.1952 9.0709 14.1142 9.27372 13.0631C9.50546 12.0421 10.0559 11.2613 10.983 10.7508C11.5915 10.4205 12.2867 10.2403 12.9821 10.2403C13.5035 10.2403 14.054 10.3303 14.6045 10.5105C15.1839 10.6907 15.7633 10.991 16.2558 11.3814C16.4007 11.5015 16.5456 11.5917 16.6904 11.7117C16.7484 11.7718 16.8063 11.8318 16.8932 11.8619L16.9801 11.952L17.096 11.922L17.5016 11.8318L17.2699 11.4715L17.183 11.3514C17.125 11.2613 17.0671 11.2012 17.0091 11.1112C16.14 9.93997 14.9811 9.12916 13.5905 8.73878C13.1269 8.64866 12.6054 8.55859 12.1129 8.55859Z" fill="black"/>
</g>
<g opacity="0.49">
<path opacity="0.49" d="M10.3174 18.979C10.2305 18.979 10.1726 18.979 10.0857 18.979C9.15859 18.9189 8.26049 18.5586 7.42029 17.8979C6.05866 16.8769 5.13155 15.4655 4.668 13.7538C4.4652 13.003 4.37829 12.2523 4.4652 11.5315C4.58109 10.4204 4.95772 9.54954 5.65303 8.91891C5.76892 8.79879 5.91379 8.70873 6.02968 8.61866C6.08763 8.5886 6.14552 8.52854 6.20347 8.49854L6.2904 8.43848L6.46424 8.64866L6.34835 8.79879C5.88481 9.39941 5.65303 10.1202 5.59509 10.931C5.4792 12.8229 6.14552 14.5946 7.53619 16.1562C8.17357 16.8769 8.89787 17.3874 9.73802 17.7177C10.2595 17.928 10.752 18.018 11.2155 18.018C11.6791 18.018 12.1427 17.8979 12.5772 17.7177C12.6062 17.7177 12.7221 17.6577 12.7221 17.6577L12.809 17.7177L12.8959 17.8079L12.809 17.928L12.6931 18.048C12.6062 18.1382 12.5193 18.2282 12.4324 18.2883C11.824 18.7087 11.1287 18.979 10.3174 18.979Z" fill="white"/>
<path opacity="0.49" d="M6.26089 8.55862C6.26089 8.58862 6.26089 8.58862 6.26089 8.55862C6.26089 8.61868 6.26089 8.61868 6.26089 8.64868C5.79735 9.24931 5.5366 10.0001 5.47866 10.8409C5.36277 12.7628 6.00017 14.5646 7.44873 16.1862C8.08611 16.9069 8.83939 17.4475 9.70851 17.7778C10.23 17.9881 10.7515 18.0781 11.244 18.0781C11.7365 18.0781 12.2001 17.958 12.6636 17.7478C12.6926 17.7478 12.6926 17.7177 12.7216 17.7177C12.7216 17.7177 12.7216 17.7177 12.7505 17.7478C12.6346 17.8679 12.5187 17.9881 12.3739 18.1082C11.8234 18.5886 11.1571 18.8289 10.3749 18.8289C10.2879 18.8289 10.23 18.8289 10.1431 18.8289C9.24497 18.7688 8.34682 18.4084 7.53565 17.7778C6.14499 16.7268 5.27586 15.3454 4.81232 13.6937C4.60952 12.943 4.55157 12.2222 4.60952 11.5016C4.69643 10.4806 5.07306 9.60968 5.7394 8.97905C5.88427 8.82887 6.05806 8.70874 6.26089 8.55862ZM6.28986 8.19824L6.08704 8.34837C6.02915 8.37843 5.9712 8.43849 5.91325 8.46849C5.76838 8.55862 5.65249 8.67874 5.50764 8.79887C4.81232 9.45949 4.40671 10.3604 4.29083 11.5016C4.23288 12.2523 4.29083 13.0031 4.49363 13.7838C4.98615 15.5256 5.91325 16.967 7.30385 18.0181C8.17303 18.6787 9.1001 19.0691 10.0561 19.0992C10.1431 19.0992 10.23 19.0992 10.3169 19.0992C11.1571 19.0992 11.8814 18.8289 12.4608 18.3184C12.5477 18.2283 12.6346 18.1382 12.7216 18.0481C12.7505 18.0181 12.8084 17.9881 12.8374 17.928L13.0113 17.7478L12.8664 17.5376L12.8374 17.5076L12.7505 17.4175L12.5767 17.5076H12.5477C12.5187 17.5076 12.5187 17.5376 12.4898 17.5376C12.0842 17.7478 11.6496 17.8379 11.186 17.8379C10.7225 17.8379 10.259 17.7478 9.76646 17.5376C8.95523 17.2373 8.23098 16.6967 7.62257 16.0061C6.26089 14.4445 5.62352 12.7328 5.71043 10.8709C5.76838 10.0901 6.00017 9.39943 6.43473 8.82887C6.43473 8.79887 6.46371 8.79887 6.46371 8.7688V8.7388L6.60858 8.55862L6.46371 8.40843L6.28986 8.19824Z" fill="black"/>
</g>
<g opacity="0.49">
<path opacity="0.49" d="M10.2289 20.7204C9.67842 20.7204 9.09899 20.6003 8.51956 20.3901C6.83921 19.7895 5.50654 18.6483 4.55048 17.0267C3.91311 15.9757 3.62339 14.8946 3.65236 13.7834C3.65236 13.6934 3.65236 13.6333 3.68133 13.5432L3.76825 12.4922L3.94208 13.4231C4.2318 14.8646 4.95608 16.1558 6.11496 17.2669C6.78132 17.8976 7.47659 18.3481 8.25884 18.6784C8.95417 18.9486 9.62053 19.0988 10.2289 19.0988C10.6635 19.0988 11.0691 19.0387 11.4747 18.8886C12.5176 18.4982 13.155 17.7174 13.3578 16.5462V16.4862C13.3578 16.4561 13.3868 16.3961 13.4448 16.3661L13.6185 16.2459L13.6475 16.5462C13.6475 16.6063 13.6765 16.6664 13.6765 16.7264C13.6765 16.8165 13.7055 16.9066 13.7055 16.9666C13.7634 18.0477 13.4737 18.9486 12.8364 19.6393C12.3438 20.1799 11.6775 20.5402 10.8952 20.6604C10.6635 20.6904 10.4317 20.7204 10.2289 20.7204Z" fill="white"/>
<path opacity="0.49" d="M3.79755 13.4835C4.08726 15.015 4.86949 16.3063 6.02836 17.3873C6.69472 18.018 7.41897 18.4985 8.23019 18.8288C8.92553 19.0991 9.59188 19.2793 10.2582 19.2793C10.6928 19.2793 11.1274 19.2192 11.5329 19.069C12.6339 18.6786 13.3002 17.8678 13.503 16.6066V16.5765C13.503 16.5765 13.503 16.5465 13.532 16.5465C13.532 16.6366 13.5609 16.6966 13.5609 16.7868C13.5609 16.8768 13.5899 16.9369 13.5899 17.027C13.6189 18.048 13.3582 18.9189 12.7787 19.5795C12.2862 20.1201 11.6488 20.4504 10.8956 20.5405C10.6928 20.5705 10.461 20.6006 10.2582 20.6006C9.70772 20.6006 9.15726 20.5105 8.57783 20.3003C6.95543 19.6996 5.62275 18.6186 4.66669 16.997C4.05829 15.976 3.7396 14.9249 3.79755 13.8438C3.76857 13.6936 3.76857 13.6036 3.79755 13.4835ZM3.68166 11.5615L3.5368 13.4534V13.5435C3.5368 13.6336 3.50783 13.6936 3.50783 13.7838C3.47886 14.8948 3.76857 16.006 4.43492 17.087C5.41995 18.7387 6.78158 19.8798 8.49091 20.5105C9.09931 20.7207 9.67875 20.8408 10.2582 20.8408C10.49 20.8408 10.7217 20.8108 10.9535 20.7808C11.7937 20.6606 12.46 20.3003 12.9815 19.7297C13.6189 19.009 13.9086 18.078 13.8796 16.967C13.8796 16.8768 13.8796 16.7868 13.8507 16.6966C13.8507 16.6366 13.8217 16.5765 13.8217 16.5165V16.4564L13.7637 16.036L13.4161 16.2762C13.3292 16.3363 13.3002 16.3963 13.2712 16.4865C13.2712 16.5165 13.2712 16.5165 13.2712 16.5465C13.0684 17.6876 12.46 18.4384 11.475 18.7988C11.0984 18.9489 10.6928 19.009 10.2872 19.009C9.67875 19.009 9.04136 18.8588 8.37507 18.5886C7.62179 18.2883 6.89748 17.8078 6.2601 17.2071C5.10127 16.0961 4.40595 14.8648 4.11623 13.4534L3.68166 11.5615Z" fill="black"/>
</g>
<g opacity="0.49">
<path opacity="0.49" d="M18.8901 17.7177C18.8611 17.5976 18.8321 17.5075 18.8032 17.3873C18.5714 16.5165 18.1658 15.6756 17.5574 14.8948C16.7752 13.9039 15.8481 13.1831 14.8051 12.7026C14.0519 12.3723 13.3275 12.1921 12.6612 12.1921C12.2846 12.1921 11.9369 12.2522 11.5893 12.3423C10.4304 12.6726 9.73511 13.4835 9.50332 14.7447C9.50332 14.7748 9.47434 14.8648 9.47434 14.8648L9.44537 14.8948L9.24261 15.1351L9.21363 14.8348L9.18466 14.6846C9.18466 14.5645 9.15568 14.4444 9.15568 14.3543C9.09773 13.2733 9.38742 12.3723 10.0248 11.6816C10.5173 11.1411 11.1837 10.7808 11.9659 10.6606C12.1687 10.6306 12.4005 10.6006 12.6322 10.6006C13.1827 10.6006 13.7621 10.7207 14.3705 10.9309C15.8771 11.4715 17.1518 12.4925 18.1079 13.9039C18.6873 14.7447 19.035 15.6156 19.1798 16.5465C19.2378 16.967 19.2667 17.3873 19.2088 17.7778C19.2088 17.8078 19.2088 17.8078 19.2088 17.8378L19.0639 18.4384L18.8901 17.7177Z" fill="white"/>
<path opacity="0.49" d="M12.6331 10.7205C13.1837 10.7205 13.7341 10.8106 14.3136 11.0208C15.7911 11.5613 17.0369 12.5223 17.9929 13.9337C18.5434 14.7445 18.891 15.6154 19.0359 16.5163C19.0938 16.9367 19.1228 17.3271 19.0648 17.7174C19.0648 17.7475 19.0649 17.7475 19.0359 17.8076C19.0069 17.6274 18.949 17.4773 18.92 17.2971C18.6882 16.3961 18.2537 15.5253 17.6453 14.7745C16.863 13.7836 15.907 13.0328 14.835 12.5223C14.0818 12.1919 13.3575 11.9818 12.6331 11.9818C12.2565 11.9818 11.8799 12.0418 11.5322 12.1319C10.3444 12.4923 9.59117 13.3331 9.35937 14.6544C9.35937 14.6844 9.35937 14.7144 9.3304 14.7144C9.3304 14.7144 9.3304 14.7144 9.30142 14.7445C9.27245 14.5643 9.27245 14.4142 9.24347 14.234C9.18558 13.2129 9.47527 12.3421 10.0547 11.6814C10.5472 11.1409 11.1846 10.8106 11.9379 10.7205C12.1986 10.7505 12.4014 10.7205 12.6331 10.7205ZM12.6331 10.4502C12.4014 10.4502 12.1696 10.4803 11.9668 10.5103C11.1266 10.6304 10.4603 10.9908 9.9388 11.5613C9.27245 12.2821 8.98276 13.2129 9.01174 14.3241C9.01174 14.4442 9.04071 14.5643 9.04071 14.6844C9.04071 14.7445 9.04071 14.8046 9.06968 14.8346L9.12763 15.4953L9.53322 14.9848L9.59117 14.9247L9.62014 14.8346C9.62014 14.8046 9.62014 14.7745 9.64912 14.7445C9.88086 13.5433 10.5182 12.7625 11.6481 12.4322C11.9668 12.3421 12.3145 12.2821 12.6911 12.2821C13.3575 12.2821 14.0528 12.4622 14.7771 12.7926C15.8201 13.273 16.7181 13.9938 17.5004 14.9547C18.1088 15.7054 18.5144 16.5163 18.7172 17.3871C18.7462 17.5073 18.7752 17.5974 18.8041 17.7174L18.8331 17.8976L19.0938 19.0388L19.3546 17.8976V17.8676C19.3546 17.8376 19.3836 17.8076 19.3836 17.7775C19.4125 17.3571 19.4125 16.9367 19.3546 16.4863C19.2097 15.5253 18.8331 14.6244 18.2537 13.7836C17.2686 12.3421 15.9939 11.3211 14.4584 10.7505C13.792 10.5703 13.1837 10.4502 12.6331 10.4502Z" fill="black"/>
</g>
<g opacity="0.49">
<path opacity="0.49" d="M11.0667 17.8679L10.9218 17.8379C10.8059 17.8379 10.719 17.8079 10.6031 17.7779C9.58908 17.5677 8.66201 17.0571 7.87975 16.2463C7.27135 15.6157 6.77884 14.8349 6.48915 13.964C6.17043 13.0632 6.08351 12.1923 6.19941 11.3815C6.4312 9.51961 7.3293 8.25836 8.86477 7.62773C9.29939 7.44755 9.7919 7.35742 10.2844 7.35742C10.69 7.35742 11.0956 7.41748 11.5012 7.53761C11.5881 7.56767 11.704 7.59767 11.8489 7.65773L12.5442 7.95805L11.7909 7.92798C11.733 7.92798 11.675 7.92798 11.6171 7.92798C11.0667 7.92798 10.5451 8.04811 10.0816 8.2283C9.06759 8.67873 8.34329 9.48955 7.96668 10.6307C7.59007 11.7719 7.59007 12.943 8.02463 14.1742C8.54611 15.6157 9.4442 16.6968 10.7479 17.3574C10.8349 17.4175 10.9218 17.4475 11.0087 17.4775L11.2115 17.5677L11.2404 17.8079L11.0667 17.8679Z" fill="white"/>
<path opacity="0.49" d="M10.2565 7.53789C10.6332 7.53789 11.0387 7.59795 11.4443 7.71808C11.5602 7.74808 11.6471 7.77808 11.763 7.83814C11.7051 7.83814 11.6471 7.83814 11.5892 7.83814C11.0098 7.83814 10.4883 7.95827 9.99577 8.16852C8.92383 8.64895 8.19953 9.48983 7.82286 10.631C7.44625 11.7421 7.41727 12.9733 7.88081 14.2646C8.40229 15.7361 9.32942 16.8171 10.6621 17.5379C10.8069 17.598 10.9228 17.658 11.0677 17.718C11.0677 17.718 11.0677 17.718 11.0677 17.7481C10.9228 17.718 10.749 17.7181 10.6042 17.688C9.61911 17.5078 8.72101 16.9973 7.93876 16.2165C7.30137 15.5559 6.86682 14.8351 6.57713 13.9943C6.28738 13.1235 6.17148 12.2826 6.28738 11.4718C6.51918 9.70002 7.35932 8.46883 8.86588 7.83814C9.32942 7.62795 9.76398 7.53789 10.2565 7.53789ZM10.2565 7.26758C9.735 7.26758 9.27147 7.3577 8.80793 7.53789C7.21451 8.19852 6.28738 9.48983 6.05565 11.3817C5.93975 12.2226 6.05565 13.1235 6.37431 14.0243C6.69297 14.9253 7.15656 15.706 7.79394 16.3667C8.60511 17.2075 9.53218 17.718 10.5752 17.9283C10.691 17.9583 10.8069 17.9583 10.8939 17.9883C10.9518 17.9883 10.9808 17.9883 11.0387 18.0183L11.3574 18.0484V17.718V17.5679L11.2125 17.4778C11.1836 17.4478 11.1257 17.4478 11.0677 17.4178C10.9808 17.3877 10.8939 17.3276 10.8069 17.2976C9.53218 16.637 8.63409 15.5859 8.14158 14.1745C7.70702 12.9733 7.70702 11.8021 8.08363 10.7211C8.46024 9.63995 9.15557 8.8592 10.1116 8.40877C10.5462 8.19852 11.0677 8.10845 11.5892 8.10845C11.6471 8.10845 11.7051 8.10845 11.763 8.10845L13.2985 8.16852L11.8789 7.56789C11.7341 7.50783 11.6182 7.47783 11.5312 7.44777C11.0677 7.32764 10.6621 7.26758 10.2565 7.26758Z" fill="black"/>
</g>
</g>
</g>
</g>
<path d="M5.79413 19.64C5.99692 19.8202 6.22872 20.0004 6.43148 20.1506C6.98194 20.5709 7.56137 20.8712 8.16978 21.0514C9.58941 21.5019 10.8931 21.4118 12.023 20.7812C12.9791 20.2406 13.6165 19.4298 13.8772 18.2586C14.109 17.1475 13.9062 16.0064 13.2398 14.8352C13.2108 14.8052 13.2108 14.7751 13.2108 14.7451C13.2398 14.7751 13.2688 14.7751 13.2688 14.8052C14.109 15.6761 14.6305 16.6671 14.8332 17.8082C15.0071 18.7992 14.8332 19.6701 14.4276 20.4208C13.7903 21.5619 12.8052 22.1926 11.5305 22.4028C10.8062 22.5229 10.0819 22.4629 9.32864 22.2526C8.22773 21.9223 7.21373 21.3217 6.37353 20.3607C6.11282 20.1506 5.93897 19.9103 5.79413 19.64C5.76515 19.6701 5.79413 19.64 5.79413 19.64Z" fill="#161616"/>
<path d="M10.168 13.5435C10.2838 13.4234 10.3997 13.3033 10.5156 13.1832C11.124 12.6727 11.8773 12.4324 12.7464 12.4625C13.6735 12.5225 14.5427 12.8828 15.3538 13.5135C16.7445 14.5645 17.6136 15.9459 18.0482 17.5976C18.222 18.2582 18.3089 18.8889 18.28 19.5195C18.222 20.6607 17.8744 21.5916 17.1501 22.3123C16.9763 22.4625 16.8024 22.5826 16.5996 22.7327C16.5996 22.7327 16.5706 22.7327 16.5417 22.7327C16.5706 22.7027 16.5996 22.6727 16.6286 22.6427C17.0052 22.1321 17.266 21.5015 17.3529 20.8108C17.5557 19.2793 17.179 17.7477 16.252 16.2462C15.5856 15.1652 14.7165 14.3243 13.6445 13.7838C12.4277 13.1532 11.2979 13.0931 10.2548 13.6036C10.2259 13.5435 10.1969 13.5435 10.168 13.5435C10.168 13.5736 10.168 13.5435 10.168 13.5435Z" fill="#161616"/>
<path d="M11.0664 23.4842C12.573 23.5142 13.7029 22.8835 14.4851 21.7424C14.8617 21.2018 15.0935 20.6013 15.2094 19.9106C15.4122 18.6793 15.2383 17.4181 14.543 16.1568C13.9056 14.9857 13.0075 14.1148 11.8197 13.6343C11.8197 13.6343 11.7907 13.6343 11.7907 13.6043C11.7907 13.6043 11.7617 13.6043 11.7617 13.5742C11.8487 13.5742 11.9066 13.5742 11.9935 13.6043C12.0805 13.6043 12.1384 13.6343 12.2253 13.6343C13.4711 13.8745 14.514 14.5652 15.3832 15.7064C15.9337 16.4572 16.2813 17.2379 16.4551 18.1088C16.9766 20.5412 15.8757 22.7935 13.9636 23.5142C13.1814 23.8145 12.3122 23.8745 11.3851 23.6043C11.2692 23.5742 11.1823 23.5142 11.0664 23.4842Z" fill="#161616"/>
<path d="M17.0633 11.6515C16.8605 11.4714 16.6577 11.2912 16.426 11.141C15.8755 10.7206 15.2961 10.4203 14.6877 10.2401C13.2681 9.78967 11.9644 9.87973 10.8345 10.5104C9.87842 11.0209 9.24104 11.8617 9.00924 13.0029C8.7775 14.114 8.98027 15.2551 9.64662 16.4263C9.6756 16.4564 9.6756 16.4864 9.70457 16.5164C9.70457 16.5164 9.70457 16.5164 9.70457 16.5464C9.61765 16.4564 9.5597 16.3963 9.47277 16.3062C8.71955 15.4654 8.22699 14.5344 8.0532 13.4834C7.90832 12.6725 7.99525 11.9218 8.28494 11.2311C8.80642 9.96985 9.76252 9.2491 11.0662 8.94885C11.8485 8.76867 12.6887 8.79867 13.5578 9.03892C14.8325 9.39929 15.9335 10.12 16.8315 11.3212C16.9185 11.4413 16.9764 11.5314 17.0633 11.6515Z" fill="#161616"/>
<path d="M12.6877 17.7778C12.5718 17.898 12.4559 18.0181 12.3111 18.1382C11.7026 18.6487 10.9494 18.889 10.0802 18.8289C9.18215 18.7688 8.284 18.4085 7.47283 17.7778C6.08217 16.7268 5.21303 15.3454 4.74949 13.6937C4.54669 12.943 4.48874 12.2223 4.54669 11.5015C4.6336 10.4805 5.01023 9.60966 5.67657 8.97903C5.8504 8.82891 6.02422 8.67872 6.22704 8.55859L6.25602 8.58866C6.25602 8.61866 6.22704 8.61866 6.22704 8.64872C5.76349 9.24928 5.50275 10 5.4448 10.8409C5.32892 12.7628 5.96627 14.5646 7.41488 16.1862C8.05226 16.907 8.80548 17.4475 9.67466 17.7778C10.7466 18.1983 11.7316 18.1983 12.6008 17.7478C12.6297 17.7778 12.6297 17.7478 12.6877 17.7778C12.6587 17.7478 12.6587 17.7478 12.6877 17.7778Z" fill="#161616"/>
<path d="M3.79516 13.4834C4.08488 15.015 4.86711 16.3063 6.02599 17.3873C6.69229 18.018 7.4166 18.4985 8.22782 18.8288C9.38669 19.3093 10.4876 19.4294 11.5306 19.039C12.6315 18.6486 13.2978 17.8378 13.5006 16.5765V16.5465C13.5006 16.5465 13.5006 16.5165 13.5296 16.5165C13.5296 16.6065 13.5586 16.6666 13.5586 16.7567C13.5586 16.8468 13.5875 16.9068 13.5875 16.997C13.6165 18.018 13.3558 18.8888 12.7764 19.5495C12.2839 20.09 11.6465 20.4203 10.8932 20.5105C10.1399 20.6306 9.35772 20.5405 8.57546 20.2401C6.95306 19.6396 5.62037 18.5585 4.66431 16.9369C4.05591 15.9158 3.73722 14.8648 3.79516 13.7837C3.7662 13.6936 3.7662 13.6035 3.79516 13.4834Z" fill="#161616"/>
<path d="M9.32695 14.805C9.29797 14.6248 9.29797 14.4747 9.269 14.2945C9.21105 13.2734 9.50079 12.4026 10.0802 11.7419C10.5727 11.2014 11.2101 10.871 11.9633 10.781C12.7166 10.6609 13.4989 10.7509 14.2811 11.0512C15.7586 11.5918 17.0044 12.5527 17.9605 13.9641C18.5109 14.7749 18.8586 15.6458 19.0035 16.5467C19.0614 16.9671 19.0904 17.3575 19.0324 17.7479C19.0324 17.7779 19.0324 17.7779 19.0035 17.838C18.9745 17.6579 18.9165 17.5077 18.8876 17.3275C18.6558 16.4266 18.2212 15.5557 17.6128 14.805C16.8306 13.814 15.8745 13.0632 14.8026 12.5527C13.6437 12.0422 12.5428 11.862 11.4998 12.1924C10.312 12.5527 9.55874 13.3935 9.32695 14.7149C9.35592 14.7449 9.35592 14.7749 9.32695 14.805C9.35592 14.805 9.35592 14.805 9.32695 14.805Z" fill="#161616"/>
<path d="M11.0669 17.7479C10.9221 17.7178 10.7482 17.7178 10.6033 17.6878C9.61832 17.5076 8.72023 16.9971 7.93797 16.2163C7.30059 15.5557 6.86603 14.8349 6.57629 13.9941C6.2866 13.1232 6.1707 12.2824 6.2866 11.4715C6.51834 9.6998 7.35854 8.46855 8.86504 7.83792C9.6473 7.50761 10.4874 7.47761 11.4146 7.74786C11.5305 7.77786 11.6173 7.80792 11.7332 7.86798C11.0958 7.83792 10.5164 7.95805 9.96596 8.1983C8.89402 8.6788 8.16977 9.51961 7.7931 10.6607C7.41649 11.7719 7.38752 13.0031 7.85105 14.2944C8.37253 15.7659 9.29966 16.8469 10.6323 17.5677C10.8062 17.5977 10.951 17.6577 11.0669 17.7479Z" fill="#161616"/>
<defs>
<linearGradient id="paint0_linear" x1="34.1099" y1="52.5603" x2="78.0897" y2="10.1307" gradientUnits="userSpaceOnUse">
<stop stop-color="#854E24"/>
<stop offset="0.1515" stop-color="#966528"/>
<stop offset="0.297" stop-color="#BF9B2F"/>
<stop offset="0.4727" stop-color="#FFDC38"/>
<stop offset="0.6424" stop-color="#FFDD73"/>
<stop offset="1" stop-color="#BF9B2F"/>
</linearGradient>
<linearGradient id="paint1_linear" x1="32.5742" y1="24.545" x2="77.5362" y2="-18.8323" gradientUnits="userSpaceOnUse">
<stop stop-color="#854E24"/>
<stop offset="0.1515" stop-color="#966528"/>
<stop offset="0.297" stop-color="#BF9B2F"/>
<stop offset="0.4727" stop-color="#FFDC38"/>
<stop offset="0.6424" stop-color="#FFDD73"/>
<stop offset="1" stop-color="#BF9B2F"/>
</linearGradient>
<linearGradient id="paint2_linear" x1="41.9381" y1="32.1054" x2="73.3993" y2="1.75313" gradientUnits="userSpaceOnUse">
<stop stop-color="#854E24"/>
<stop offset="0.1515" stop-color="#966528"/>
<stop offset="0.297" stop-color="#BF9B2F"/>
<stop offset="0.4727" stop-color="#FFDC38"/>
<stop offset="0.512293" stop-color="#FFDD73"/>
<stop offset="0.642784" stop-color="#BF9B2F"/>
</linearGradient>
<linearGradient id="paint3_linear" x1="2.02737" y1="25.3536" x2="26.4278" y2="1.81325" gradientUnits="userSpaceOnUse">
<stop stop-color="#BF9B2F"/>
<stop offset="0.0329643" stop-color="#C7A63B"/>
<stop offset="0.0934689" stop-color="#DDC65F"/>
<stop offset="0.1576" stop-color="#F9F091"/>
<stop offset="0.3576" stop-color="#FFDD73"/>
<stop offset="0.5273" stop-color="#FFDC38"/>
<stop offset="0.703" stop-color="#BF9B2F"/>
<stop offset="0.8485" stop-color="#966528"/>
<stop offset="1" stop-color="#854E24"/>
</linearGradient>
<linearGradient id="paint4_linear" x1="0" y1="15.2792" x2="22.8831" y2="15.2792" gradientUnits="userSpaceOnUse">
<stop stop-color="#854E24"/>
<stop offset="0.1515" stop-color="#966528"/>
<stop offset="0.297" stop-color="#BF9B2F"/>
<stop offset="0.4727" stop-color="#FFDC38"/>
<stop offset="0.6424" stop-color="#FFDD73"/>
<stop offset="1" stop-color="#BF9B2F"/>
</linearGradient>
<linearGradient id="paint5_linear" x1="1.74678" y1="25.6452" x2="21.5521" y2="6.53789" gradientUnits="userSpaceOnUse">
<stop stop-color="#854E24"/>
<stop offset="0.1515" stop-color="#966528"/>
<stop offset="0.297" stop-color="#BF9B2F"/>
<stop offset="0.4727" stop-color="#FFDC38"/>
<stop offset="0.6424" stop-color="#FFDD73"/>
<stop offset="1" stop-color="#BF9B2F"/>
</linearGradient>
<linearGradient id="paint6_linear" x1="1.12585" y1="14.8147" x2="28.2047" y2="14.8147" gradientUnits="userSpaceOnUse">
<stop stop-color="#BF9B2F"/>
<stop offset="0.0329643" stop-color="#C7A63B"/>
<stop offset="0.0934689" stop-color="#DDC65F"/>
<stop offset="0.1576" stop-color="#F9F091"/>
<stop offset="0.3576" stop-color="#FFDD73"/>
<stop offset="0.5273" stop-color="#FFDC38"/>
<stop offset="0.703" stop-color="#BF9B2F"/>
<stop offset="0.8485" stop-color="#966528"/>
<stop offset="1" stop-color="#854E24"/>
</linearGradient>
<linearGradient id="paint7_linear" x1="15.6057" y1="25.8638" x2="15.6057" y2="0.553916" gradientUnits="userSpaceOnUse">
<stop/>
<stop offset="1" stop-color="white"/>
</linearGradient>
<linearGradient id="paint8_linear" x1="15.6057" y1="25.8638" x2="15.6057" y2="0.553916" gradientUnits="userSpaceOnUse">
<stop/>
<stop offset="1"/>
</linearGradient>
</defs>
</svg>
