<svg width="16" height="16" viewBox="0 0 16 16" fill="none" xmlns="http://www.w3.org/2000/svg">
<path d="M3.60082 2.80394L4.60082 2.80394L3.60082 2.80394ZM5.13082 1.95594L4.60082 2.80394L5.13082 1.95594ZM5.0771 14.2L4.60082 13.3207L5.0771 14.2ZM3.60082 13.3207L2.60082 13.3207L3.60082 13.3207ZM14.0915 9.31723L14.5678 10.1965L14.0915 9.31723ZM14.1452 7.58994L14.6752 6.74194L14.1452 7.58994ZM13.6152 8.43794L4.60082 13.3207L5.55339 15.0793L14.5678 10.1965L13.6152 8.43794ZM4.60082 13.3207L4.60082 2.80394L2.60082 2.80394L2.60082 13.3207L4.60082 13.3207ZM4.60082 2.80394L13.6152 8.43794L14.6752 6.74194L5.66082 1.10794L4.60082 2.80394ZM4.60082 2.80394L4.60082 2.80394L5.66082 1.10794C4.32872 0.27538 2.60082 1.23306 2.60082 2.80394L4.60082 2.80394ZM4.60082 13.3207L4.60082 13.3207L2.60082 13.3207C2.60082 14.8363 4.22079 15.8012 5.55339 15.0793L4.60082 13.3207ZM14.5678 10.1965C15.9154 9.46655 15.9749 7.55425 14.6752 6.74194L13.6152 8.43794L13.6152 8.43794L14.5678 10.1965Z" fill="white"/>
</svg>
