<svg width="70" height="70" viewBox="0 0 70 70" fill="none" xmlns="http://www.w3.org/2000/svg">
<g clip-path="url(#clip0)">
<path fill-rule="evenodd" clip-rule="evenodd" d="M18.1785 51.814C13.1105 46.746 8.03547 43.015 4.88547 41.79C3.99647 41.447 3.24747 41.3 2.66647 41.342C2.18347 41.377 1.79847 41.545 1.52547 41.818C1.25247 42.091 1.08447 42.476 1.04947 42.959C1.00747 43.533 1.15447 44.289 1.49747 45.171C2.71547 48.321 6.45347 53.389 11.5215 58.457C16.5895 63.525 21.6645 67.27 24.8145 68.488C25.7035 68.831 26.4525 68.978 27.0335 68.936C27.5165 68.901 27.9015 68.733 28.1745 68.46C28.4475 68.187 28.6155 67.802 28.6505 67.319C28.6925 66.745 28.5455 65.989 28.2025 65.107C26.9845 61.957 23.2535 56.889 18.1785 51.814ZM17.4575 52.542C22.3995 57.484 26.0605 62.405 27.2505 65.478C27.4815 66.08 27.6215 66.605 27.6355 67.032C27.6495 67.34 27.6075 67.585 27.4465 67.739C27.2855 67.9 27.0405 67.935 26.7395 67.928C26.3125 67.914 25.7875 67.774 25.1855 67.543C22.1195 66.353 17.1915 62.692 12.2495 57.75C7.30747 52.801 3.64647 47.88 2.45647 44.814C2.22547 44.212 2.08547 43.687 2.07147 43.26C2.05747 42.952 2.09947 42.707 2.26047 42.553C2.42147 42.392 2.66647 42.357 2.96747 42.364C3.39447 42.378 3.91947 42.518 4.52147 42.749C7.58747 43.939 12.5155 47.6 17.4575 52.542Z" fill="url(#paint0_linear)"/>
<path fill-rule="evenodd" clip-rule="evenodd" d="M23.4567 46.5429C16.2327 39.3119 9.14167 33.8589 4.84367 31.9269C3.66067 31.3949 2.67367 31.1289 1.93867 31.1289C1.32267 31.1289 0.846672 31.3109 0.524672 31.6399C0.195672 31.9689 0.0136719 32.4379 0.0136719 33.0539C0.0136719 33.7959 0.279672 34.7829 0.811672 35.9589C2.74367 40.2569 8.20367 47.3479 15.4277 54.5719C22.6517 61.7959 29.7427 67.2559 34.0407 69.1879C35.2237 69.7199 36.2107 69.9859 36.9457 69.9859C37.5617 69.9859 38.0377 69.8039 38.3597 69.4749C38.6887 69.1459 38.8707 68.6769 38.8707 68.0609C38.8707 67.3189 38.6047 66.3319 38.0727 65.1559C36.1407 60.8579 30.6807 53.7669 23.4567 46.5429ZM22.7357 47.2639C29.8477 54.3759 35.2377 61.3409 37.1417 65.5759C37.5267 66.4299 37.7647 67.1649 37.8347 67.7599C37.8837 68.2009 37.8557 68.5509 37.6457 68.7609C37.4357 68.9709 37.0857 68.9989 36.6447 68.9499C36.0497 68.8799 35.3147 68.6419 34.4607 68.2569C30.2327 66.3529 23.2607 60.9699 16.1487 53.8509C9.03667 46.7319 3.63967 39.7739 1.74267 35.5389C1.35767 34.6849 1.11967 33.9499 1.04967 33.3549C1.00067 32.9139 1.02867 32.5639 1.23867 32.3539C1.44867 32.1439 1.79167 32.1159 2.23967 32.1649C2.83467 32.2349 3.56967 32.4729 4.42367 32.8579C8.65167 34.7619 15.6167 40.1519 22.7357 47.2639Z" fill="url(#paint1_linear)"/>
<path fill-rule="evenodd" clip-rule="evenodd" d="M28.3148 41.6843C19.8308 33.2003 11.6548 26.6483 6.81776 24.1773C5.50176 23.5053 4.41676 23.1273 3.62576 23.0643C2.94676 23.0083 2.43576 23.1763 2.10676 23.5123C1.77776 23.8413 1.60276 24.3523 1.65876 25.0313C1.72176 25.8223 2.09976 26.9073 2.77176 28.2233C5.24976 33.0603 11.8018 41.2363 20.2858 49.7203C28.7698 58.2043 36.9458 64.7563 41.7828 67.2273C43.0988 67.8993 44.1838 68.2773 44.9748 68.3403C45.6538 68.3963 46.1648 68.2283 46.4938 67.8923C46.8228 67.5633 46.9978 67.0523 46.9418 66.3733C46.8788 65.5823 46.5008 64.4973 45.8288 63.1813C43.3508 58.3443 36.7988 50.1683 28.3148 41.6843ZM27.5868 42.4053C35.9728 50.7913 42.4688 58.8693 44.9118 63.6503C45.5068 64.8123 45.8568 65.7573 45.9128 66.4573C45.9408 66.7723 45.9128 67.0173 45.7658 67.1713C45.6118 67.3253 45.3668 67.3463 45.0518 67.3183C44.3518 67.2623 43.3998 66.9123 42.2448 66.3173C37.4638 63.8743 29.3858 57.3783 20.9998 48.9993C12.6138 40.6133 6.12476 32.5353 3.67476 27.7543C3.07976 26.5993 2.72976 25.6473 2.67376 24.9473C2.64576 24.6323 2.67376 24.3873 2.82076 24.2333C2.97476 24.0793 3.21976 24.0583 3.53476 24.0863C4.23476 24.1423 5.18676 24.4923 6.34176 25.0873C11.1298 27.5303 19.2008 34.0263 27.5868 42.4053Z" fill="url(#paint2_linear)"/>
<path fill-rule="evenodd" clip-rule="evenodd" d="M33.4878 36.5048C24.2548 27.2718 15.4208 20.0688 10.2618 17.2688C8.86879 16.5128 7.72079 16.0718 6.89479 15.9738C6.17379 15.8828 5.64879 16.0508 5.31979 16.3798C4.98379 16.7158 4.82279 17.2408 4.91379 17.9548C5.01179 18.7808 5.45279 19.9218 6.20879 21.3218C9.00879 26.4808 16.2188 35.3078 25.4518 44.5478C34.6848 53.7808 43.5188 60.9908 48.6778 63.7908C50.0708 64.5468 51.2188 64.9878 52.0448 65.0858C52.7658 65.1768 53.2908 65.0088 53.6198 64.6798C53.9558 64.3438 54.1168 63.8188 54.0258 63.1048C53.9278 62.2788 53.4868 61.1378 52.7308 59.7378C49.9308 54.5718 42.7278 45.7448 33.4878 36.5048ZM32.7668 37.2328C41.9158 46.3748 49.0628 55.1108 51.8348 60.2208C52.5138 61.4668 52.9268 62.4818 53.0178 63.2238C53.0598 63.5528 53.0528 63.8048 52.9058 63.9518C52.7518 64.1058 52.4998 64.1058 52.1778 64.0638C51.4358 63.9728 50.4208 63.5598 49.1748 62.8808C44.0578 60.1088 35.3218 52.9618 26.1798 43.8198C17.0308 34.6778 9.88379 25.9418 7.11179 20.8318C6.43279 19.5858 6.01979 18.5708 5.92879 17.8288C5.88679 17.4998 5.89379 17.2478 6.04079 17.1008C6.19479 16.9468 6.44679 16.9468 6.76879 16.9888C7.51079 17.0798 8.52579 17.4928 9.77179 18.1718C14.8888 20.9368 23.6178 28.0838 32.7668 37.2328Z" fill="url(#paint3_linear)"/>
<path fill-rule="evenodd" clip-rule="evenodd" d="M40.2706 29.7291C30.8066 20.2651 21.5106 13.1251 15.8686 10.6051C14.3426 9.92611 13.0686 9.57611 12.1096 9.58311C11.3466 9.59011 10.7586 9.80711 10.3596 10.2131C9.9536 10.6191 9.7366 11.2071 9.7296 11.9631C9.7226 12.9221 10.0726 14.1961 10.7516 15.7221C13.2716 21.3641 20.4116 30.6601 29.8756 40.1241C39.3396 49.5881 48.6356 56.7281 54.2776 59.2481C55.8036 59.9271 57.0776 60.2771 58.0366 60.2701C58.7996 60.2631 59.3876 60.0461 59.7866 59.6401C60.1856 59.2341 60.4096 58.6461 60.4166 57.8901C60.4236 56.9311 60.0736 55.6571 59.3946 54.1311C56.8816 48.4891 49.7346 39.1931 40.2706 29.7291ZM39.5496 30.4501C48.9016 39.8021 55.9786 48.9721 58.4636 54.5441C59.0726 55.9021 59.4016 57.0291 59.3946 57.8831C59.3946 58.3241 59.3036 58.6811 59.0656 58.9191C58.8276 59.1571 58.4776 59.2481 58.0296 59.2481C57.1756 59.2551 56.0486 58.9191 54.6906 58.3171C49.1186 55.8321 39.9486 48.7551 30.5896 39.4031C21.2446 30.0511 14.1676 20.8811 11.6826 15.3091C11.0736 13.9511 10.7446 12.8241 10.7516 11.9701C10.7516 11.5291 10.8426 11.1721 11.0806 10.9341C11.3186 10.6961 11.6686 10.6051 12.1166 10.6051C12.9706 10.5981 14.0976 10.9341 15.4556 11.5361C21.0206 14.0281 30.1906 21.0981 39.5496 30.4501Z" fill="url(#paint4_linear)"/>
<path fill-rule="evenodd" clip-rule="evenodd" d="M44.6035 25.3954C35.3635 16.1624 26.5365 8.95938 21.3775 6.15938C19.9845 5.40338 18.8365 4.96238 18.0105 4.86438C17.2895 4.77338 16.7645 4.94138 16.4355 5.27038C16.0995 5.60638 15.9385 6.13138 16.0295 6.84538C16.1275 7.67138 16.5685 8.81238 17.3245 10.2124C20.1245 15.3714 27.3345 24.1984 36.5675 33.4384C45.8005 42.6714 54.6345 49.8814 59.7935 52.6814C61.1865 53.4374 62.3345 53.8784 63.1605 53.9764C63.8815 54.0674 64.4065 53.8994 64.7355 53.5704C65.0715 53.2344 65.2325 52.7094 65.1415 51.9954C65.0435 51.1694 64.6025 50.0284 63.8465 48.6284C61.0465 43.4624 53.8365 34.6354 44.6035 25.3954ZM43.8755 26.1234C53.0245 35.2654 60.1715 44.0014 62.9435 49.1114C63.6225 50.3574 64.0355 51.3724 64.1265 52.1144C64.1685 52.4434 64.1615 52.6954 64.0145 52.8424C63.8605 52.9964 63.6085 52.9964 63.2865 52.9544C62.5445 52.8634 61.5295 52.4504 60.2835 51.7714C55.1735 48.9994 46.4375 41.8524 37.2955 32.7034C28.1465 23.5614 20.9925 14.8324 18.2205 9.72238C17.5415 8.47638 17.1285 7.46138 17.0375 6.71938C16.9955 6.39038 17.0025 6.13838 17.1495 5.99138C17.3035 5.83738 17.5555 5.83738 17.8775 5.87938C18.6195 5.97038 19.6345 6.38338 20.8805 7.06238C25.9975 9.82738 34.7335 16.9744 43.8755 26.1234Z" fill="url(#paint5_linear)"/>
<path fill-rule="evenodd" clip-rule="evenodd" d="M49.8675 20.1318C41.3835 11.6478 33.2075 5.09575 28.3705 2.61775C27.0545 1.94575 25.9695 1.56775 25.1785 1.50475C24.4995 1.44875 23.9885 1.61675 23.6595 1.95275C23.3305 2.28175 23.1555 2.79275 23.2115 3.47175C23.2745 4.26275 23.6525 5.34775 24.3245 6.66375C26.8025 11.5008 33.3545 19.6768 41.8385 28.1608C50.3225 36.6448 58.4985 43.1968 63.3355 45.6678C64.6515 46.3398 65.7365 46.7178 66.5275 46.7808C67.2065 46.8368 67.7175 46.6688 68.0465 46.3328C68.3755 46.0038 68.5505 45.4928 68.4945 44.8138C68.4315 44.0228 68.0535 42.9378 67.3815 41.6218C64.9035 36.7918 58.3515 28.6158 49.8675 20.1318ZM49.1465 20.8528C57.5325 29.2388 64.0215 37.3098 66.4715 42.0908C67.0665 43.2528 67.4165 44.1978 67.4725 44.8978C67.5005 45.2128 67.4725 45.4578 67.3255 45.6118C67.1715 45.7658 66.9265 45.7868 66.6115 45.7588C65.9115 45.7028 64.9595 45.3528 63.8045 44.7578C59.0165 42.3148 50.9455 35.8258 42.5595 27.4398C34.1735 19.0538 27.6845 10.9828 25.2345 6.20175C24.6395 5.03975 24.2895 4.09475 24.2335 3.39475C24.2055 3.07975 24.2335 2.83475 24.3805 2.68075C24.5345 2.52675 24.7795 2.50575 25.0945 2.53375C25.7945 2.58975 26.7465 2.93975 27.9015 3.53475C32.6825 5.97775 40.7605 12.4668 49.1465 20.8528Z" fill="url(#paint6_linear)"/>
<path fill-rule="evenodd" clip-rule="evenodd" d="M54.5789 15.4207C47.3479 8.19667 40.2569 2.74367 35.9589 0.811672C34.7759 0.279672 33.7889 0.0136719 33.0539 0.0136719C32.4379 0.0136719 31.9619 0.195672 31.6399 0.524672C31.3109 0.853672 31.1289 1.32267 31.1289 1.93867C31.1289 2.68067 31.3949 3.66767 31.9269 4.84367C33.8589 9.14167 39.3189 16.2327 46.5429 23.4567C53.7669 30.6807 60.8579 36.1407 65.1559 38.0727C66.3389 38.6047 67.3259 38.8707 68.0609 38.8707C68.6769 38.8707 69.1529 38.6887 69.4749 38.3597C69.8039 38.0307 69.9859 37.5617 69.9859 36.9457C69.9859 36.2037 69.7199 35.2167 69.1879 34.0407C67.2629 29.7427 61.8029 22.6517 54.5789 15.4207ZM53.8509 16.1487C60.9699 23.2607 66.3599 30.2257 68.2569 34.4537C68.6419 35.3077 68.8799 36.0427 68.9499 36.6377C68.9989 37.0787 68.9709 37.4287 68.7609 37.6387C68.5509 37.8487 68.2009 37.8767 67.7599 37.8277C67.1649 37.7577 66.4299 37.5197 65.5759 37.1347C61.3479 35.2307 54.3759 29.8477 47.2639 22.7287C40.1519 15.6097 34.7619 8.65867 32.8579 4.42367C32.4729 3.56967 32.2349 2.83467 32.1649 2.23967C32.1159 1.79867 32.1439 1.44867 32.3539 1.23867C32.5639 1.02867 32.9069 1.00067 33.3549 1.04967C33.9499 1.11967 34.6849 1.35767 35.5389 1.74267C39.7739 3.64667 46.7389 9.03667 53.8509 16.1487Z" fill="url(#paint7_linear)"/>
<path fill-rule="evenodd" clip-rule="evenodd" d="M58.6809 11.3257C53.6059 6.25767 48.5379 2.52667 45.3879 1.30167C44.4989 0.95867 43.7499 0.81167 43.1689 0.85367C42.6859 0.88867 42.3009 1.05667 42.0279 1.32967C41.7549 1.60267 41.5869 1.98767 41.5519 2.47067C41.5099 3.04467 41.6569 3.80067 41.9999 4.68267C43.2179 7.83267 46.9559 12.9007 52.0239 17.9687C57.0919 23.0367 62.1669 26.7747 65.3169 27.9997C66.2059 28.3427 66.9549 28.4897 67.5359 28.4477C68.0189 28.4127 68.4039 28.2447 68.6769 27.9717C68.9499 27.6987 69.1179 27.3137 69.1529 26.8307C69.1949 26.2567 69.0479 25.5007 68.7049 24.6187C67.4799 21.4617 63.7489 16.3937 58.6809 11.3257ZM57.9529 12.0467C62.8949 16.9887 66.5559 21.9097 67.7459 24.9827C67.9769 25.5847 68.1169 26.1097 68.1309 26.5367C68.1449 26.8447 68.1029 27.0897 67.9419 27.2437C67.7809 27.4047 67.5359 27.4397 67.2349 27.4327C66.8079 27.4187 66.2829 27.2787 65.6809 27.0477C62.6149 25.8577 57.6869 22.1967 52.7449 17.2547C47.8099 12.3127 44.1489 7.38467 42.9589 4.31867C42.7279 3.71667 42.5879 3.19167 42.5739 2.76467C42.5599 2.45667 42.6019 2.21167 42.7629 2.05767C42.9239 1.89667 43.1689 1.86167 43.4699 1.86867C43.8969 1.88267 44.4219 2.02267 45.0239 2.25367C48.0899 3.44367 53.0109 7.10467 57.9529 12.0467Z" fill="white"/>
</g>
<defs>
<linearGradient id="paint0_linear" x1="11.7315" y1="58" x2="19.2315" y2="50.5" gradientUnits="userSpaceOnUse">
<stop offset="0.0340956" stop-color="white"/>
<stop offset="1" stop-color="white" stop-opacity="0"/>
</linearGradient>
<linearGradient id="paint1_linear" x1="17.5" y1="52.082" x2="26.082" y2="43.5" gradientUnits="userSpaceOnUse">
<stop stop-color="white"/>
<stop offset="1" stop-color="white" stop-opacity="0"/>
</linearGradient>
<linearGradient id="paint2_linear" x1="21.5" y1="48.1522" x2="31.1527" y2="38.4995" gradientUnits="userSpaceOnUse">
<stop stop-color="white"/>
<stop offset="1" stop-color="white" stop-opacity="0"/>
</linearGradient>
<linearGradient id="paint3_linear" x1="27" y1="42.8502" x2="35.5" y2="34.3502" gradientUnits="userSpaceOnUse">
<stop stop-color="white"/>
<stop offset="1" stop-color="white" stop-opacity="0"/>
</linearGradient>
<linearGradient id="paint4_linear" x1="31.6312" y1="38" x2="42.1312" y2="27.5" gradientUnits="userSpaceOnUse">
<stop stop-color="white"/>
<stop offset="1" stop-color="white" stop-opacity="0"/>
</linearGradient>
<linearGradient id="paint5_linear" x1="35.4995" y1="34.2127" x2="46.2129" y2="23.4993" gradientUnits="userSpaceOnUse">
<stop offset="0.2571" stop-color="white"/>
<stop offset="1" stop-color="white" stop-opacity="0"/>
</linearGradient>
<linearGradient id="paint6_linear" x1="43.2146" y1="26.4998" x2="50.5" y2="19.2144" gradientUnits="userSpaceOnUse">
<stop offset="0.2571" stop-color="white"/>
<stop offset="1" stop-color="white" stop-opacity="0"/>
</linearGradient>
<linearGradient id="paint7_linear" x1="40.9514" y1="28.4012" x2="69.2529" y2="2.00973" gradientUnits="userSpaceOnUse">
<stop offset="0.268979" stop-color="white"/>
<stop offset="0.540884" stop-color="white" stop-opacity="0"/>
</linearGradient>
<clipPath id="clip0">
<rect width="70" height="70" fill="white"/>
</clipPath>
</defs>
</svg>
