<svg width="20" height="20" viewBox="0 0 20 20" fill="none" xmlns="http://www.w3.org/2000/svg">
<path d="M2.66418 7.63932L1.83019 8.19109L2.66418 7.63932ZM2.57789 6.74084L1.66706 6.32807L2.57789 6.74084ZM4.23921 15.0763L4.1858 14.0778L4.23921 15.0763ZM3.43258 14.7119L2.629 15.307L3.43258 14.7119ZM6.34979 15.197L6.91329 14.3709L6.34979 15.197ZM5.67985 14.9993L5.62644 14.0007L5.67985 14.9993ZM7.76208 16.1901L6.87291 16.6477L7.76208 16.1901ZM7.24745 15.7087L7.67124 14.803L7.24745 15.7087ZM9.13405 17.9557L9.03092 18.9504L9.13405 17.9557ZM8.40631 17.442L7.51715 17.8996L8.40631 17.442ZM10.8534 17.9556L10.7502 16.961L10.8534 17.9556ZM12.7401 15.7075L12.3159 14.8019L12.7401 15.7075ZM12.226 16.1887L13.1151 16.6463L12.226 16.1887ZM14.3052 14.9992L14.2518 15.9977L14.3052 14.9992ZM13.6353 15.1969L14.1988 16.023L13.6353 15.1969ZM16.5539 14.7118L17.3575 15.307L16.5539 14.7118ZM15.7473 15.0763L15.8007 14.0777L15.7473 15.0763ZM17.3225 12.3601L18.1565 11.8083L17.3225 12.3601ZM17.4089 13.2585L16.498 12.8458L17.4089 13.2585ZM16.3812 9.50188L15.3843 9.58081L16.3812 9.50188ZM17.4089 6.7417L16.4981 7.15437L17.4089 6.7417ZM17.3226 7.64008L18.1566 8.19185L17.3226 7.64008ZM16.5541 5.28846L15.7505 5.88362L16.5541 5.28846ZM13.6354 4.80333L13.0718 5.62941L13.6354 4.80333ZM14.3054 5.00108L14.252 4.0025L14.3054 5.00108ZM12.2259 3.81144L11.3367 4.26902L12.2259 3.81144ZM12.7401 4.29262L13.1643 3.38705L12.7401 4.29262ZM3.60395 9.49918L2.6071 9.41982L3.60395 9.49918ZM7.2475 4.29137L6.82372 3.38561L7.2475 4.29137ZM7.76214 3.80999L6.87298 3.35241L7.76214 3.80999ZM16.3812 10.4983L15.3843 10.4194L16.3812 10.4983ZM16.5489 11.1907L15.7149 11.7425L16.5489 11.1907ZM3.43632 11.1939L4.27031 11.7456L3.43632 11.1939ZM4.23904 4.9239L4.18563 5.92247L4.23904 4.9239ZM3.43238 5.28841L2.62878 4.69325L3.43238 5.28841ZM10.8533 2.04437L10.75 3.03903L10.8533 2.04437ZM5.67972 5.00096L5.62631 5.99953L5.67972 5.00096ZM6.34967 4.80323L5.78615 3.97713L6.34967 4.80323ZM5.73313 4.00238L4.29245 3.92533L4.18563 5.92247L5.62631 5.99953L5.73313 4.00238ZM6.82372 3.38561C6.46061 3.5555 6.11378 3.75363 5.78615 3.97713L6.91319 5.62933C7.15261 5.46601 7.40603 5.32124 7.67129 5.19714L6.82372 3.38561ZM7.51728 2.10042L6.87298 3.35241L8.65131 4.26758L9.29561 3.01559L7.51728 2.10042ZM9.99322 1C9.66858 1 9.34757 1.01679 9.03108 1.0496L9.23731 3.03894C9.48539 3.01322 9.73757 3 9.99322 3V1ZM10.9565 1.04971C10.6396 1.01683 10.3183 1 9.99322 1V3C10.2492 3 10.5017 3.01325 10.75 3.03903L10.9565 1.04971ZM13.1151 3.35385L12.4701 2.10051L10.6917 3.01568L11.3367 4.26902L13.1151 3.35385ZM14.1989 3.97724C13.8722 3.75433 13.5263 3.55664 13.1643 3.38705L12.3159 5.19819C12.5804 5.32208 12.8331 5.46652 13.0718 5.62941L14.1989 3.97724ZM15.694 3.92537L14.252 4.0025L14.3588 5.99965L15.8008 5.92252L15.694 3.92537ZM18.3198 6.32904C18.0567 5.74821 17.7333 5.20042 17.3577 4.69331L15.7505 5.88362C16.0429 6.27847 16.2941 6.7041 16.4981 7.15437L18.3198 6.32904ZM17.3829 9.36132L18.1566 8.19185L16.4886 7.0883L15.7149 8.25777L17.3829 9.36132ZM17.4008 10.0001C17.4008 9.80603 17.3932 9.61356 17.3781 9.42296L15.3843 9.58081C15.3952 9.71896 15.4008 9.85877 15.4008 10.0001H17.4008ZM17.3781 10.5773C17.3932 10.3866 17.4008 10.1941 17.4008 10.0001H15.4008C15.4008 10.1414 15.3952 10.2812 15.3843 10.4194L17.3781 10.5773ZM18.1565 11.8083L17.3829 10.6389L15.7149 11.7425L16.4885 12.9118L18.1565 11.8083ZM17.3575 15.307C17.7331 14.7999 18.0566 14.252 18.3197 13.6711L16.498 12.8458C16.294 13.2961 16.0428 13.7217 15.7503 14.1166L17.3575 15.307ZM14.2518 15.9977L15.6939 16.0749L15.8007 14.0777L14.3586 14.0006L14.2518 15.9977ZM13.1643 16.6131C13.5263 16.4435 13.8721 16.2459 14.1988 16.023L13.0718 14.3708C12.833 14.5337 12.5804 14.6781 12.3159 14.8019L13.1643 16.6131ZM12.4702 17.8995L13.1151 16.6463L11.3368 15.7311L10.6919 16.9843L12.4702 17.8995ZM9.99322 19C10.3183 19 10.6398 18.9832 10.9567 18.9503L10.7502 16.961C10.5017 16.9867 10.2492 17 9.99322 17V19ZM9.03092 18.9504C9.34745 18.9832 9.66852 19 9.99322 19V17C9.73752 17 9.4853 16.9868 9.23717 16.9611L9.03092 18.9504ZM6.87291 16.6477L7.51715 17.8996L9.29548 16.9844L8.65124 15.7325L6.87291 16.6477ZM5.78628 16.0231C6.11385 16.2466 6.46062 16.4446 6.82366 16.6145L7.67124 14.803C7.40603 14.6789 7.15267 14.5342 6.91329 14.3709L5.78628 16.0231ZM4.29262 16.0749L5.73326 15.9979L5.62644 14.0007L4.1858 14.0778L4.29262 16.0749ZM1.66714 13.6721C1.93025 14.2526 2.25357 14.8002 2.629 15.307L4.23616 14.1167C3.94384 13.722 3.69275 13.2966 3.48879 12.8465L1.66714 13.6721ZM2.60232 10.6421L1.83026 11.809L3.49824 12.9126L4.27031 11.7456L2.60232 10.6421ZM2.58409 10.0001C2.58409 10.1952 2.59185 10.3888 2.60711 10.5804L4.6008 10.4217C4.58974 10.2828 4.58409 10.1422 4.58409 10.0001H2.58409ZM2.6071 9.41982C2.59184 9.61145 2.58409 9.80497 2.58409 10.0001H4.58409C4.58409 9.858 4.58973 9.71743 4.60079 9.57854L2.6071 9.41982ZM1.83019 8.19109L2.60232 9.35814L4.2703 8.25458L3.49817 7.08754L1.83019 8.19109ZM2.62878 4.69325C2.2534 5.20009 1.93013 5.74758 1.66706 6.32807L3.48873 7.15362C3.69266 6.70362 3.94371 6.27822 4.23599 5.88357L2.62878 4.69325ZM11.9838 10.0002C11.9838 11.062 11.1063 11.9476 9.99319 11.9476V13.9476C12.1834 13.9476 13.9838 12.194 13.9838 10.0002H11.9838ZM9.99319 8.05285C11.1063 8.05285 11.9838 8.93839 11.9838 10.0002H13.9838C13.9838 7.80648 12.1833 6.05285 9.99319 6.05285V8.05285ZM8.00261 10.0002C8.00261 8.93839 8.88005 8.05285 9.99319 8.05285V6.05285C7.80302 6.05285 6.00261 7.80648 6.00261 10.0002H8.00261ZM9.99319 11.9476C8.88005 11.9476 8.00261 11.062 8.00261 10.0002H6.00261C6.00261 12.194 7.80302 13.9476 9.99319 13.9476V11.9476ZM3.49817 7.08754C3.49605 7.08434 3.49854 7.08615 3.49961 7.09643C3.50082 7.10819 3.49964 7.12955 3.48873 7.15362L1.66706 6.32807C1.37803 6.96585 1.48348 7.66706 1.83019 8.19109L3.49817 7.08754ZM4.1858 14.0778C4.18206 14.078 4.18473 14.0768 4.19375 14.0808C4.20402 14.0854 4.22112 14.0963 4.23616 14.1167L2.629 15.307C3.03557 15.856 3.67876 16.1077 4.29262 16.0749L4.1858 14.0778ZM6.91329 14.3709C6.56015 14.13 6.11315 13.9747 5.62644 14.0007L5.73326 15.9979C5.72404 15.9983 5.7444 15.9945 5.78628 16.0231L6.91329 14.3709ZM8.65124 15.7325C8.42612 15.2951 8.06192 14.9858 7.67124 14.803L6.82366 16.6145C6.87011 16.6362 6.87719 16.656 6.87291 16.6477L8.65124 15.7325ZM9.23717 16.9611C9.26193 16.9636 9.27986 16.9726 9.28888 16.9791C9.2968 16.9848 9.29715 16.9876 9.29548 16.9844L7.51715 17.8996C7.80058 18.4503 8.34778 18.8796 9.03092 18.9504L9.23717 16.9611ZM10.6919 16.9843C10.6902 16.9876 10.6905 16.9847 10.6985 16.979C10.7075 16.9725 10.7254 16.9635 10.7502 16.961L10.9567 18.9503C11.6397 18.8794 12.1868 18.4502 12.4702 17.8995L10.6919 16.9843ZM12.3159 14.8019C11.9256 14.9848 11.5618 15.294 11.3368 15.7311L13.1151 16.6463C13.1108 16.6546 13.1179 16.6348 13.1643 16.6131L12.3159 14.8019ZM14.3586 14.0006C13.8719 13.9746 13.4249 14.1299 13.0718 14.3708L14.1988 16.023C14.2407 15.9944 14.2611 15.9982 14.2518 15.9977L14.3586 14.0006ZM15.7503 14.1166C15.7654 14.0963 15.7825 14.0853 15.7927 14.0808C15.8017 14.0768 15.8044 14.0779 15.8007 14.0777L15.6939 16.0749C16.3077 16.1077 16.9509 15.8559 17.3575 15.307L15.7503 14.1166ZM16.4885 12.9118C16.4907 12.915 16.4882 12.9132 16.4871 12.903C16.4859 12.8912 16.4871 12.8698 16.498 12.8458L18.3197 13.6711C18.6087 13.0334 18.5032 12.3323 18.1565 11.8083L16.4885 12.9118ZM15.7149 8.25777C15.4402 8.6729 15.35 9.14744 15.3843 9.58081L17.3781 9.42296C17.3739 9.36975 17.3882 9.35326 17.3829 9.36132L15.7149 8.25777ZM16.4981 7.15437C16.4871 7.1303 16.486 7.10894 16.4872 7.09719C16.4882 7.08691 16.4907 7.0851 16.4886 7.0883L18.1566 8.19185C18.5033 7.66788 18.6087 6.96678 18.3198 6.32904L16.4981 7.15437ZM15.8008 5.92252C15.8046 5.92232 15.8019 5.92348 15.7929 5.91948C15.7826 5.91493 15.7655 5.90393 15.7505 5.88362L17.3577 4.69331C16.9511 4.14434 16.3079 3.89254 15.694 3.92537L15.8008 5.92252ZM13.0718 5.62941C13.425 5.87033 13.872 6.02568 14.3588 5.99965L14.252 4.0025C14.2612 4.00201 14.2408 4.00581 14.1989 3.97724L13.0718 5.62941ZM11.3367 4.26902C11.5617 4.70616 11.9255 5.01534 12.3159 5.19819L13.1643 3.38705C13.1179 3.3653 13.1108 3.34554 13.1151 3.35385L11.3367 4.26902ZM4.60079 9.57854C4.63531 9.1449 4.54515 8.67 4.2703 8.25458L2.60232 9.35814C2.59698 9.35007 2.61134 9.36657 2.6071 9.41982L4.60079 9.57854ZM9.29561 3.01559C9.29728 3.01234 9.29693 3.01521 9.28901 3.02088C9.27999 3.02735 9.26206 3.03637 9.23731 3.03894L9.03108 1.0496C8.34793 1.12041 7.80072 1.54964 7.51728 2.10042L9.29561 3.01559ZM7.67129 5.19714C8.06197 5.01435 8.42619 4.70503 8.65131 4.26758L6.87298 3.35241C6.87726 3.34409 6.87018 3.36387 6.82372 3.38561L7.67129 5.19714ZM15.3843 10.4194C15.35 10.8528 15.4402 11.3273 15.7149 11.7425L17.3829 10.6389C17.3882 10.647 17.3738 10.6305 17.3781 10.5773L15.3843 10.4194ZM4.27031 11.7456C4.54516 11.3302 4.63532 10.8553 4.6008 10.4217L2.60711 10.5804C2.61135 10.6337 2.59699 10.6502 2.60232 10.6421L4.27031 11.7456ZM4.29245 3.92533C3.67857 3.89249 3.03535 4.14429 2.62878 4.69325L4.23599 5.88357C4.22094 5.90389 4.20384 5.91488 4.19358 5.91944C4.18456 5.92344 4.18189 5.92227 4.18563 5.92247L4.29245 3.92533ZM10.75 3.03903C10.7253 3.03646 10.7073 3.02744 10.6983 3.02097C10.6904 3.0153 10.6901 3.01243 10.6917 3.01568L12.4701 2.10051C12.1867 1.54981 11.6395 1.12061 10.9565 1.04971L10.75 3.03903ZM3.48879 12.8465C3.4997 12.8706 3.50089 12.892 3.49967 12.9037C3.49861 12.914 3.49612 12.9158 3.49824 12.9126L1.83026 11.809C1.48354 12.3331 1.37809 13.0343 1.66714 13.6721L3.48879 12.8465ZM5.62631 5.99953C6.11303 6.02556 6.56004 5.87023 6.91319 5.62933L5.78615 3.97713C5.74427 4.00569 5.72391 4.00189 5.73313 4.00238L5.62631 5.99953Z" fill="currentColor"/>
</svg>
