<svg width="24" height="22" viewBox="0 0 24 22" fill="none" xmlns="http://www.w3.org/2000/svg">
<path d="M11.1105 0.731351C11.4825 0.00731254 12.5175 0.00731301 12.8895 0.731352L15.6814 6.16571C15.8266 6.44834 16.0975 6.64514 16.4111 6.6959L22.4423 7.67185C23.2458 7.80188 23.5656 8.78623 22.992 9.36374L18.6863 13.6983C18.4624 13.9237 18.359 14.2422 18.4076 14.5562L19.3432 20.5937C19.4678 21.3981 18.6305 22.0065 17.9039 21.6394L12.451 18.8839C12.1674 18.7406 11.8326 18.7406 11.549 18.8839L6.09606 21.6394C5.36955 22.0065 4.5322 21.3981 4.65685 20.5937L5.59239 14.5562C5.64105 14.2422 5.53758 13.9237 5.31365 13.6983L1.00801 9.36374C0.434358 8.78623 0.754196 7.80188 1.55774 7.67185L7.58887 6.6959C7.90254 6.64514 8.17342 6.44834 8.31861 6.16571L11.1105 0.731351Z" fill="#FFC225"/>
</svg>
