<svg width="131" height="106" viewBox="0 0 131 106" preserveAspectRatio="none" fill="none" xmlns="http://www.w3.org/2000/svg">
<path opacity="0.0140845" d="M47.591 11.0416L48.0183 45.2954C48.0183 47.1882 49.789 48.6536 51.6817 48.3483L68.0446 45.5396C70.3647 45.1122 71.9522 47.8598 70.4258 49.6305L26.5267 104.644C25.672 105.682 24.0235 105.071 24.0235 103.728L24.1456 68.7417C24.1456 66.6658 22.3139 65.1393 20.2991 65.3835L4.97407 67.5206C1.73811 67.948 -0.398836 64.2234 1.67706 61.659L43.6834 9.63729C44.9656 7.98872 47.591 8.90459 47.591 11.0416Z" fill="#D8D8ED"/>
<path opacity="0.028169" d="M48.4445 10.9225L48.8719 45.1762C48.8719 47.069 50.6425 48.5344 52.5352 48.2291L68.8981 45.4204C71.2182 44.993 72.8057 47.7407 71.2793 49.5113L27.3802 104.525C26.5255 105.563 24.877 104.952 24.877 103.609L24.9991 68.6226C24.9991 66.5466 23.1674 65.0202 21.1526 65.2644L5.82758 67.4014C2.59163 67.8288 0.454679 64.1043 2.53057 61.5398L44.5369 9.51815C45.8191 7.86958 48.4445 8.78545 48.4445 10.9225Z" fill="#D7D7ED"/>
<path opacity="0.0422535" d="M49.2999 10.7994L49.7273 45.0532C49.7273 46.946 51.4979 48.4114 53.3907 48.1061L69.7536 45.2974C72.0737 44.87 73.6612 47.6176 72.1348 49.3883L28.2357 104.402C27.3809 105.44 25.7324 104.829 25.7324 103.486L25.8545 68.4996C25.8545 66.4236 24.0229 64.8971 22.008 65.1414L6.68305 67.2784C3.4471 67.7058 1.31015 63.9812 3.38604 61.4168L45.3313 9.39511C46.6745 7.74653 49.2999 8.66241 49.2999 10.7994Z" fill="#D7D6EC"/>
<path opacity="0.056338" d="M50.1544 10.6764L50.5818 44.9301C50.5818 46.8229 52.3524 48.2883 54.2452 47.983L70.6081 45.1744C72.9282 44.7469 74.5157 47.4946 72.9893 49.2653L29.0902 104.279C28.2354 105.317 26.5869 104.706 26.5869 103.363L26.709 68.3765C26.709 66.3005 24.8774 64.7741 22.8625 65.0183L7.53754 67.1553C4.30159 67.5828 2.16464 63.8582 4.24053 61.2938L46.2469 9.27206C47.529 7.62348 50.1544 8.53936 50.1544 10.6764Z" fill="#D6D5EC"/>
<path opacity="0.0704225" d="M51.0099 10.5553L51.4373 44.809C51.4373 46.7018 53.2079 48.1672 55.1006 47.8619L71.4636 45.0533C73.7837 44.6258 75.3711 47.3735 73.8447 49.1442L29.9457 104.158C29.0909 105.196 27.4424 104.585 27.4424 103.242L27.5645 68.2554C27.5645 66.1794 25.7328 64.653 23.718 64.8972L8.39301 67.0343C5.15706 67.4617 3.02011 63.7371 5.096 61.1727L47.1023 9.15097C48.3235 7.50239 51.0099 8.41827 51.0099 10.5553Z" fill="#D5D4EC"/>
<path opacity="0.084507" d="M51.8644 10.4323L52.2918 44.686C52.2918 46.5788 54.0624 48.0442 55.9551 47.7389L72.3181 44.9302C74.6382 44.5028 76.2256 47.2504 74.6992 49.0211L30.8002 104.035C29.9454 105.073 28.2969 104.462 28.2969 103.119L28.419 68.1324C28.419 66.0564 26.5873 64.5299 24.5725 64.7742L9.2475 66.9112C6.01155 67.3386 3.8746 63.6141 5.9505 61.0496L47.9568 9.02792C49.1779 7.37934 51.8644 8.29522 51.8644 10.4323Z" fill="#D4D4EC"/>
<path opacity="0.0985916" d="M52.7194 10.3092L53.1468 44.5629C53.1468 46.4557 54.9174 47.9211 56.8101 47.6158L73.1731 44.8072C75.4932 44.3798 77.0806 47.1274 75.5542 48.8981L31.6552 103.912C30.8004 104.95 29.1519 104.339 29.1519 102.996L29.274 68.0093C29.274 65.9333 27.4423 64.4069 25.4275 64.6511L10.0414 66.7882C6.8055 67.2156 4.66855 63.491 6.74444 60.9266L48.7508 8.90487C50.0329 7.2563 52.7194 8.17217 52.7194 10.3092Z" fill="#D3D3EB"/>
<path opacity="0.1127" d="M53.5744 10.1881L54.0017 44.4418C54.0017 46.3346 55.7724 47.8 57.6651 47.4948L74.028 44.6861C76.3481 44.2587 77.9356 47.0063 76.4092 48.777L32.5101 103.791C31.6554 104.829 30.0068 104.218 30.0068 102.875L30.129 67.8882C30.129 65.8122 28.2973 64.2858 26.2824 64.53L10.9575 66.6671C7.72151 67.0945 5.58456 63.3699 7.66046 60.8055L49.6057 8.78378C50.8879 7.1352 53.5744 8.05108 53.5744 10.1881Z" fill="#D2D2EB"/>
<path opacity="0.1268" d="M54.4288 10.0057L54.8562 44.2594C54.8562 46.1522 56.6269 47.6176 58.5196 47.3123L74.8825 44.5037C77.2026 44.0762 78.7901 46.8239 77.2637 48.5946L33.3646 103.608C32.5098 104.646 30.8613 104.036 30.8613 102.692L30.9834 67.7058C30.9834 65.6298 29.1518 64.1034 27.1369 64.3476L11.812 66.4847C8.576 66.9121 6.43905 63.1875 8.51495 60.6231L50.5213 8.60136C51.7424 7.01385 54.4288 7.92972 54.4288 10.0057Z" fill="#D2D1EB"/>
<path opacity="0.1408" d="M55.2833 9.88461L55.7107 44.1383C55.7107 46.0311 57.4813 47.4965 59.3741 47.1913L75.737 44.3826C78.0571 43.9552 79.6446 46.7028 78.1182 48.4735L34.2191 103.487C33.3643 104.525 31.7158 103.914 31.7158 102.571L31.8379 67.5847C31.8379 65.5088 30.0063 63.9823 27.9914 64.2265L12.6664 66.3636C9.4305 66.791 7.29355 63.0664 9.36944 60.502L51.3758 8.48027C52.5969 6.89275 55.2833 7.80863 55.2833 9.88461Z" fill="#D1D0EB"/>
<path opacity="0.1549" d="M56.1378 9.76157L56.5652 44.0153C56.5652 45.9081 58.3358 47.3735 60.2286 47.0682L76.5915 44.2595C78.9116 43.8321 80.499 46.5797 78.9727 48.3504L35.0736 103.364C34.2188 104.402 32.5703 103.791 32.5703 102.448L32.6924 67.4617C32.6924 65.3857 30.8608 63.8592 28.8459 64.1035L13.5209 66.2405C10.285 66.6679 8.14804 62.9434 10.2239 60.3789L52.2303 8.35722C53.4514 6.76971 56.1378 7.68558 56.1378 9.76157Z" fill="#D0CFEA"/>
<path opacity="0.169" d="M56.9928 9.63761L57.4202 43.8913C57.4202 45.7841 59.1908 47.2495 61.0836 46.9442L77.4465 44.1356C79.7666 43.7082 81.3541 46.4558 79.8277 48.2265L35.9286 103.24C35.0738 104.278 33.4253 103.667 33.4253 102.324L33.5474 67.3377C33.5474 65.2617 31.7158 63.7353 29.7009 63.9795L14.3149 66.1776C11.0789 66.605 8.94198 62.8805 11.0179 60.316L53.0242 8.29433C54.3064 6.64575 56.9928 7.56163 56.9928 9.63761Z" fill="#CFCEEA"/>
<path opacity="0.1831" d="M57.8483 9.51456L58.2757 43.7683C58.2757 45.6611 60.0463 47.1265 61.939 46.8212L78.302 44.0125C80.6221 43.5851 82.2095 46.3327 80.6831 48.1034L36.723 103.117C35.8682 104.155 34.2197 103.544 34.2197 102.201L34.3419 67.2147C34.3419 65.1387 32.5102 63.6122 30.4953 63.8565L15.1704 65.9935C11.9344 66.4209 9.79745 62.6964 11.8733 60.1319L53.8186 8.17128C55.1619 6.52271 57.8483 7.43858 57.8483 9.51456Z" fill="#CECDEA"/>
<path opacity="0.1972" d="M58.7023 9.39438L59.1297 43.6481C59.1297 45.5409 60.9003 47.0063 62.793 46.701L79.1559 43.8923C81.4761 43.4649 83.0635 46.2125 81.5371 47.9832L37.6381 102.997C36.7833 104.035 35.1348 103.424 35.1348 102.081L35.2569 67.0945C35.2569 65.0185 33.4252 63.4921 31.4104 63.7363L16.0854 65.8733C12.8494 66.3007 10.7125 62.5762 12.7884 60.0117L54.7947 7.99004C56.0158 6.40252 58.6412 7.31839 58.7023 9.39438Z" fill="#CDCCEA"/>
<path opacity="0.2113" d="M59.5568 9.27133L59.9842 43.5251C59.9842 45.4179 61.7548 46.8833 63.6475 46.578L80.0104 43.7693C82.3306 43.3419 83.918 46.0895 82.3916 47.8602L38.4926 102.874C37.6378 103.912 35.9893 103.301 35.9893 101.958L36.1114 66.9714C36.1114 64.8955 34.2797 63.369 32.2649 63.6132L16.9399 65.7503C13.7039 66.1777 11.567 62.4531 13.6429 59.8887L55.6492 7.86699C56.8703 6.27947 59.4957 7.19535 59.5568 9.27133Z" fill="#CDCBE9"/>
<path opacity="0.2254" d="M60.4122 9.14828L60.8396 43.402C60.8396 45.2948 62.6102 46.7602 64.503 46.4549L80.8659 43.6462C83.186 43.2188 84.7735 45.9665 83.2471 47.7371L39.348 102.751C38.4932 103.789 36.8447 103.178 36.8447 101.835L36.9668 66.8484C36.9668 64.7724 35.1352 63.246 33.1203 63.4902L17.7954 65.6272C14.5594 66.0546 12.4225 62.3301 14.4983 59.7656L56.5047 7.74394C57.7258 6.15643 60.3512 7.0723 60.4122 9.14828Z" fill="#CCCBE9"/>
<path opacity="0.2394" d="M61.2663 9.02794L61.6937 43.2817C61.6937 45.1745 63.4643 46.6399 65.357 46.3346L81.7199 43.5259C84.04 43.0985 85.6275 45.8461 84.1011 47.6168L40.202 102.63C39.3473 103.668 37.6988 103.058 37.6988 101.714L37.8209 66.7281C37.8209 64.6521 35.9892 63.1256 33.9744 63.3698L18.5883 65.5679C15.3524 65.9954 13.2154 62.2708 15.2913 59.7063L57.2976 7.68466C58.5798 5.97502 61.2052 6.95195 61.2663 9.02794Z" fill="#CBCAE9"/>
<path opacity="0.2535" d="M62.1208 8.90687L62.5482 43.1606C62.5482 45.0534 64.3188 46.5188 66.2115 46.2135L82.5744 43.4048C84.8946 42.9774 86.482 45.725 84.9556 47.4957L40.9955 102.509C40.1407 103.547 38.4922 102.937 38.4922 101.593L38.6143 66.607C38.6143 64.531 36.7826 63.0045 34.7678 63.2488L19.4428 65.3858C16.2069 65.8132 14.0699 62.0887 16.1458 59.5242L58.0911 7.50253C59.4343 5.85395 62.0597 6.76983 62.1208 8.90687Z" fill="#CAC9E9"/>
<path opacity="0.2676" d="M62.9767 8.78382L63.4041 43.0375C63.4041 44.9303 65.1747 46.3957 67.0674 46.0905L83.4304 43.2818C85.7505 42.8544 87.3379 45.602 85.8115 47.3727L41.9125 102.386C41.0577 103.424 39.4092 102.814 39.4092 101.47L39.5313 66.4839C39.5313 64.4079 37.6996 62.8815 35.6848 63.1257L20.3598 65.2628C17.1239 65.6902 14.9869 61.9656 17.0628 59.4012L59.0691 7.37948C60.2902 5.73091 62.9156 6.64678 62.9767 8.78382Z" fill="#C9C8E8"/>
<path opacity="0.2817" d="M63.8302 8.66273L64.2576 42.9164C64.2576 44.8093 66.0282 46.2747 67.9209 45.9694L84.2839 43.1607C86.604 42.7333 88.1914 45.4809 86.6651 47.2516L42.766 102.265C41.9112 103.303 40.2627 102.693 40.2627 101.349L40.3848 66.3628C40.3848 64.2869 38.5531 62.7604 36.5383 63.0046L21.2133 65.1417C17.9774 65.5691 15.8404 61.8445 17.9163 59.2801L59.9226 7.25839C61.1438 5.60981 63.7692 6.52569 63.8302 8.66273Z" fill="#C8C7E8"/>
<path opacity="0.2958" d="M64.6857 8.53968L65.1131 42.7934C65.1131 44.6862 66.8837 46.1516 68.7764 45.8463L85.1393 43.0376C87.4595 42.6102 89.0469 45.3579 87.5205 47.1285L43.6215 102.142C42.7667 103.18 41.1182 102.569 41.1182 101.226L41.2403 66.2398C41.2403 64.1638 39.4086 62.6374 37.3938 62.8816L22.0688 65.0186C18.8328 65.446 16.6959 61.7215 18.7718 59.157L60.7781 7.13534C61.9992 5.48677 64.6246 6.40264 64.6857 8.53968Z" fill="#C8C6E8"/>
<path opacity="0.3099" d="M65.5411 8.41663L65.9685 42.6703C65.9685 44.5632 67.7392 46.0286 69.6319 45.7233L85.9948 42.9146C88.3149 42.4872 89.9024 45.2348 88.376 47.0055L44.4769 102.019C43.6221 103.057 41.9736 102.446 41.9736 101.103L42.0958 66.1167C42.0958 64.0408 40.2641 62.5143 38.2492 62.7585L22.9243 64.8956C19.6883 65.323 17.5514 61.5984 19.6273 59.034L61.6336 7.01229C62.8547 5.36372 65.4801 6.27959 65.5411 8.41663Z" fill="#C7C5E8"/>
<path opacity="0.3239" d="M66.3952 8.29359L66.8226 42.5473C66.8226 44.4401 68.5932 45.9055 70.4859 45.6002L86.8488 42.7915C89.169 42.3641 90.7564 45.1118 89.23 46.8825L45.2699 101.835C44.4151 102.873 42.7666 102.262 42.7666 100.919L42.8887 65.9326C42.8887 63.8567 41.0571 62.3302 39.0422 62.5744L23.7172 64.7115C20.4813 65.1389 18.3443 61.4143 20.4202 58.8499L62.3655 6.88925C63.7087 5.24067 66.3341 6.15655 66.3952 8.29359Z" fill="#C6C4E7"/>
<path opacity="0.338" d="M67.1891 8.17445L67.6165 42.4282C67.6165 44.321 69.3871 45.7864 71.2799 45.4811L87.6428 42.6724C89.9629 42.245 91.5503 44.9926 90.024 46.7633L46.1249 101.777C45.2701 102.815 43.6216 102.204 43.6216 100.861L43.7437 65.8746C43.7437 63.7986 41.9121 62.2721 39.8972 62.5163L24.5112 64.6534C21.2752 65.0808 19.1383 61.3562 21.2142 58.7918L63.2205 6.77011C64.5637 5.12153 67.1891 6.03741 67.1891 8.17445Z" fill="#C5C3E7"/>
<path opacity="0.3521" d="M68.0441 8.0505L68.4715 42.3042C68.4715 44.197 70.2421 45.6624 72.1348 45.3571L88.4977 42.5485C90.8179 42.121 92.4053 44.8687 90.8789 46.6394L46.9799 101.592C46.1251 102.63 44.4766 102.019 44.4766 100.676L44.5987 65.6896C44.5987 63.6136 42.767 62.0871 40.7522 62.3313L25.4272 64.4684C22.1912 64.8958 20.0543 61.1712 22.1302 58.6068L64.1365 6.5851C65.4187 4.99758 68.0441 5.91345 68.0441 8.0505Z" fill="#C4C2E7"/>
<path opacity="0.3662" d="M68.8986 7.86899L69.326 42.1227C69.326 44.0155 71.0966 45.4809 72.9893 45.1756L89.3522 42.3669C91.6723 41.9395 93.2598 44.6872 91.7334 46.4578L47.8343 101.471C46.9796 102.509 45.3311 101.899 45.3311 100.556L45.4532 65.5691C45.4532 63.4931 43.6215 61.9667 41.6067 62.2109L26.2817 64.3479C23.0457 64.7753 20.9088 61.0508 22.9847 58.4863L64.991 6.46465C66.2732 4.87713 68.8986 5.793 68.8986 7.86899Z" fill="#C3C2E7"/>
<path opacity="0.3803" d="M69.754 7.74594L70.1814 41.9997C70.1814 43.8925 71.952 45.3579 73.8448 45.0526L90.2077 42.2439C92.5278 41.8165 94.1153 44.5641 92.5889 46.3348L48.6898 101.348C47.835 102.386 46.1865 101.776 46.1865 100.432L46.3086 65.4461C46.3086 63.3701 44.477 61.8436 42.4621 62.0878L27.1372 64.2249C23.9012 64.6523 21.7642 60.9277 23.8401 58.3633L65.8465 6.3416C67.1286 4.75408 69.754 5.66996 69.754 7.74594Z" fill="#C3C1E7"/>
<path opacity="0.3944" d="M70.6085 7.62394L71.0359 41.8777C71.0359 43.7705 72.8065 45.2359 74.6993 44.9306L91.0622 42.1219C93.3823 41.6945 94.9698 44.4421 93.4434 46.2128L49.5443 101.226C48.6895 102.264 47.041 101.654 47.041 100.31L47.1631 65.3241C47.1631 63.2481 45.3315 61.7216 43.3166 61.9658L27.9916 64.1029C24.7557 64.5303 22.6187 60.8057 24.6946 58.2413L66.6399 6.28066C67.9221 4.63208 70.6085 5.54796 70.6085 7.62394Z" fill="#C2C0E6"/>
<path opacity="0.4085" d="M71.4626 7.50284L71.8899 41.7566C71.8899 43.6494 73.6606 45.1148 75.5533 44.8095L91.9162 42.0008C94.2363 41.5734 95.8238 44.321 94.2974 46.0917L50.3983 101.105C49.5436 102.143 47.8951 101.533 47.8951 100.189L48.0172 65.203C48.0172 63.127 46.1855 61.6005 44.1707 61.8448L28.7846 64.0429C25.5487 64.4703 23.4117 60.7457 25.4876 58.1813L67.4939 6.15956C68.7761 4.51099 71.4626 5.42686 71.4626 7.50284Z" fill="#C1BFE6"/>
<path opacity="0.4225" d="M72.3185 7.38071L72.7459 41.6344C72.7459 43.5272 74.5165 44.9926 76.4092 44.6873L92.7722 41.8787C95.0923 41.4512 96.6797 44.1989 95.1533 45.9696L51.2543 100.983C50.3995 102.021 48.751 101.411 48.751 100.067L48.8731 65.0808C48.8731 63.0048 47.0414 61.4784 45.0266 61.7226L29.7016 63.8597C26.4657 64.2871 24.3287 60.5625 26.4046 57.9981L68.4109 5.97636C69.632 4.38885 72.3185 5.30472 72.3185 7.38071Z" fill="#C0BEE6"/>
<path opacity="0.4366" d="M73.173 7.25766L73.6004 41.5114C73.6004 43.4042 75.371 44.8696 77.2637 44.5643L93.6266 41.7556C95.9468 41.3282 97.5342 44.0758 96.0078 45.8465L52.1088 100.86C51.254 101.898 49.6055 101.287 49.6055 99.9442L49.7276 64.9578C49.7276 62.8818 47.8959 61.3553 45.8811 61.5996L30.5561 63.7366C27.3201 64.164 25.1832 60.4395 27.2591 57.875L69.2654 5.85332C70.4865 4.2658 73.173 5.18168 73.173 7.25766Z" fill="#BFBDE6"/>
<path opacity="0.4507" d="M74.0275 7.13656L74.4549 41.3903C74.4549 43.2831 76.2255 44.7485 78.1182 44.4432L94.4811 41.6345C96.8013 41.2071 98.3887 43.9547 96.8623 45.7254L52.9633 100.739C52.1085 101.777 50.46 101.166 50.46 99.8231L50.5821 64.8367C50.5821 62.7607 48.7504 61.2342 46.7356 61.4785L31.4106 63.6155C28.1746 64.0429 26.0377 60.3184 28.1136 57.7539L70.0589 5.73222C71.341 4.14471 74.0275 5.06058 74.0275 7.13656Z" fill="#BEBCE5"/>
<path opacity="0.4648" d="M74.8829 7.01352L75.3103 41.2672C75.3103 43.16 77.0809 44.6254 78.9737 44.3202L95.3366 41.5115C97.6567 41.0841 99.2442 43.8317 97.7178 45.6024L53.8187 100.616C52.9639 101.654 51.3154 101.043 51.3154 99.7001L51.4375 64.7136C51.4375 62.6377 49.6059 61.1112 47.591 61.3554L32.2661 63.4925C29.0301 63.9199 26.8932 60.1953 28.969 57.6309L70.9143 5.60918C72.1965 4.02166 74.8829 4.93754 74.8829 7.01352Z" fill="#BEBBE5"/>
<path opacity="0.4789" d="M75.737 6.89066L76.1644 41.1444C76.1644 43.0372 77.935 44.5026 79.8277 44.1973L96.1906 41.3886C98.5107 40.9612 100.098 43.7088 98.5718 45.4795L54.6727 100.493C53.818 101.531 52.1695 100.92 52.1695 99.5772L52.2916 64.5908C52.2916 62.5148 50.4599 60.9883 48.4451 61.2326L33.059 63.4307C29.8231 63.8581 27.6861 60.1335 29.762 57.5691L71.7683 5.54738C73.0505 3.83774 75.737 4.75362 75.737 6.89066Z" fill="#BDBAE5"/>
<path opacity="0.493" d="M76.591 6.7682L77.0183 41.0219C77.0183 42.9147 78.789 44.3801 80.6817 44.0748L97.0446 41.2661C99.3647 40.8387 100.952 43.5864 99.4258 45.3571L55.5267 100.371C54.672 101.409 53.0234 100.798 53.0234 99.4547L53.1456 64.4683C53.1456 62.3923 51.3139 60.8659 49.2991 61.1101L33.9741 63.2471C30.7381 63.6745 28.6012 59.95 30.6771 57.3855L72.6834 5.36386C73.9045 3.71528 76.591 4.63116 76.591 6.7682Z" fill="#BCB9E5"/>
<path opacity="0.507" d="M77.4464 6.64906L77.8738 40.9028C77.8738 42.7956 79.6444 44.261 81.5372 43.9557L97.9001 41.147C100.22 40.7196 101.808 43.4672 100.281 45.2379L56.3822 100.251C55.5274 101.289 53.8789 100.679 53.8789 99.3356L54.001 64.3492C54.001 62.2732 52.1694 60.7467 50.1545 60.991L34.8295 63.128C31.5936 63.5554 29.4566 59.8309 31.5325 57.2664L73.5389 5.24472C74.76 3.59614 77.4464 4.51202 77.4464 6.64906Z" fill="#BBB9E4"/>
<path opacity="0.5211" d="M78.3009 6.52406L78.7283 40.7778C78.7283 42.6706 80.4989 44.136 82.3916 43.8307L98.7546 41.022C101.075 40.5946 102.662 43.3422 101.136 45.1129L57.2367 100.126C56.3819 101.164 54.7334 100.554 54.7334 99.2106L54.8555 64.2242C54.8555 62.1482 53.0238 60.6217 51.009 60.866L35.684 63.003C32.4481 63.4304 30.3111 59.7059 32.387 57.1414L74.2712 5.11972C75.6145 3.47114 78.2399 4.38702 78.3009 6.52406Z" fill="#BAB8E4"/>
<path opacity="0.5352" d="M79.1564 6.40101L79.5838 40.6547C79.5838 42.5475 81.3544 44.0129 83.2471 43.7076L99.61 40.899C101.93 40.4716 103.518 43.2192 101.991 44.9899L58.0922 100.003C57.2374 101.041 55.5889 100.431 55.5889 99.0875L55.711 64.1011C55.711 62.0251 53.8793 60.4987 51.8645 60.7429L36.5395 62.88C33.3035 63.3074 31.1666 59.5828 33.2425 57.0184L75.2488 4.99667C76.4699 3.34809 79.0953 4.26397 79.1564 6.40101Z" fill="#B9B7E4"/>
<path opacity="0.5493" d="M80.0104 6.28187L80.4378 40.5356C80.4378 42.4284 82.2084 43.8938 84.1011 43.5885L100.464 40.7798C102.784 40.3524 104.372 43.1 102.845 44.8707L58.9462 99.8843C58.0914 100.922 56.4429 100.312 56.4429 98.9684L56.565 63.982C56.565 61.906 54.7333 60.3795 52.7185 60.6238L37.3325 62.7608C34.0965 63.1882 31.9596 59.4637 34.0355 56.8992L76.0418 4.87753C77.3239 3.22895 79.9493 4.14483 80.0104 6.28187Z" fill="#B9B6E4"/>
<path opacity="0.5634" d="M80.8654 6.15882L81.2928 40.4125C81.2928 42.3053 83.0634 43.7707 84.9561 43.4655L101.319 40.6568C103.639 40.2294 105.227 42.977 103.7 44.7477L59.8011 99.7612C58.9464 100.799 57.2979 100.189 57.2979 98.8454L57.42 63.8589C57.42 61.7829 55.5883 60.2565 53.5735 60.5007L38.2485 62.6378C35.0125 63.0652 32.8756 59.3406 34.9515 56.7762L76.9578 4.75448C78.1789 3.10591 80.8043 4.02178 80.8654 6.15882Z" fill="#B8B5E3"/>
<path opacity="0.5775" d="M81.7204 6.03578L82.1478 40.2895C82.1478 42.1823 83.9184 43.6477 85.8111 43.3424L102.174 40.5337C104.494 40.1063 106.082 42.8539 104.555 44.6246L60.6561 99.6382C59.8014 100.676 58.1529 100.066 58.1529 98.7223L58.275 63.7359C58.275 61.6599 56.4433 60.1334 54.4285 60.3777L39.0424 62.5147C35.8065 62.9421 33.6695 59.2176 35.7454 56.6531L77.7517 4.63143C79.0339 2.98286 81.6593 3.89873 81.7204 6.03578Z" fill="#B7B4E3"/>
<path opacity="0.5915" d="M82.5753 5.85245L83.0027 40.1062C83.0027 41.999 84.7733 43.4644 86.6661 43.1591L103.029 40.3504C105.349 39.923 106.937 42.6706 105.41 44.4413L61.5111 99.4549C60.6563 100.493 59.0078 99.8823 59.0078 98.539L59.1299 63.5526C59.1299 61.4766 57.2983 59.9501 55.2834 60.1944L39.9584 62.3314C36.7225 62.7588 34.5855 59.0343 36.6614 56.4698L78.5457 4.50917C79.8889 2.8606 82.5143 3.77647 82.5753 5.85245Z" fill="#B6B3E3"/>
<path opacity="0.6056" d="M83.4298 5.73227L83.8572 39.986C83.8572 41.8788 85.6278 43.3442 87.5205 43.0389L103.883 40.2302C106.204 39.8028 107.791 42.5504 106.265 44.3211L62.3656 99.3347C61.5108 100.373 59.8623 99.7621 59.8623 98.4188L59.9844 63.4324C59.9844 61.3564 58.1528 59.8299 56.1379 60.0742L40.8129 62.2112C37.577 62.6386 35.44 58.9141 37.5159 56.3496L79.5223 4.32793C80.7434 2.74041 83.3688 3.65629 83.4298 5.73227Z" fill="#B5B2E3"/>
<path opacity="0.6197" d="M84.2843 5.60922L84.7117 39.8629C84.7117 41.7557 86.4823 43.2211 88.375 42.9159L104.738 40.1072C107.058 39.6798 108.646 42.4274 107.119 44.1981L63.2201 99.2116C62.3653 100.25 60.7168 99.639 60.7168 98.2958L60.8389 63.3093C60.8389 61.2334 59.0072 59.7069 56.9924 59.9511L41.6674 62.0882C38.4315 62.5156 36.2945 58.791 38.3704 56.2266L80.3767 4.20488C81.5979 2.61736 84.2233 3.53324 84.2843 5.60922Z" fill="#B4B1E2"/>
<path opacity="0.6338" d="M85.1398 5.48617L85.5672 39.7399C85.5672 41.6327 87.3378 43.0981 89.2305 42.7928L105.593 39.9841C107.914 39.5567 109.501 42.3043 107.975 44.075L64.0756 99.0886C63.2208 100.127 61.5723 99.516 61.5723 98.1727L61.6944 63.1863C61.6944 61.1103 59.8627 59.5839 57.8479 59.8281L42.5229 61.9651C39.2869 62.3925 37.15 58.668 39.2259 56.1035L81.2322 4.08183C82.4533 2.49432 85.0787 3.41019 85.1398 5.48617Z" fill="#B4B0E2"/>
<path opacity="0.6479" d="M85.9943 5.36613L86.4217 39.6198C86.4217 41.5127 88.1923 42.9781 90.0851 42.6728L106.448 39.8641C108.768 39.4367 110.356 42.1843 108.829 43.955L64.9301 98.9685C64.0753 100.007 62.4268 99.396 62.4268 98.0527L62.5489 63.0662C62.5489 60.9903 60.7173 59.4638 58.7024 59.708L43.2553 61.9061C40.0194 62.3335 37.8824 58.609 39.9583 56.0445L81.9646 4.02284C83.3079 2.37427 85.9333 3.29014 85.9943 5.36613Z" fill="#B3B0E2"/>
<path opacity="0.662" d="M86.7882 5.24203L87.2156 39.4958C87.2156 41.3886 88.9862 42.854 90.8789 42.5487L107.242 39.74C109.562 39.3126 111.149 42.0602 109.623 43.8309L65.724 98.8444C64.8692 99.8824 63.2207 99.2719 63.2207 97.9286L63.3428 62.9421C63.3428 60.8662 61.5112 59.3397 59.4963 59.5839L44.1713 61.721C40.9354 62.1484 38.7984 58.4238 40.8743 55.8594L82.8807 3.83769C84.1628 2.25018 86.7882 3.16605 86.7882 5.24203Z" fill="#B2AFE2"/>
<path opacity="0.6761" d="M87.6427 5.12094L88.0701 39.3747C88.0701 41.2675 89.8407 42.7329 91.7334 42.4276L108.096 39.6189C110.416 39.1915 112.004 41.9391 110.478 43.7098L66.5785 98.7234C65.7237 99.7613 64.0752 99.1508 64.0752 97.8075L64.1973 62.8211C64.1973 60.7451 62.3656 59.2186 60.3508 59.4628L45.0258 61.5999C41.7899 62.0273 39.6529 58.3027 41.7288 55.7383L83.7351 3.7166C85.0173 2.12908 87.6427 3.04496 87.6427 5.12094Z" fill="#B1AEE2"/>
<path opacity="0.6901" d="M88.4982 4.99789L88.9256 39.2516C88.9256 41.1444 90.6962 42.6098 92.5889 42.3045L108.952 39.4958C111.272 39.0684 112.859 41.8161 111.333 43.5868L67.434 98.6003C66.5792 99.6383 64.9307 99.0277 64.9307 97.6844L65.0528 62.698C65.0528 60.622 63.2211 59.0956 61.2063 59.3398L45.8813 61.4768C42.6453 61.9043 40.5084 58.1797 42.5843 55.6152L84.5906 3.59355C85.8728 2.00604 88.4982 2.92191 88.4982 4.99789Z" fill="#B0ADE1"/>
<path opacity="0.7042" d="M89.3517 4.87562L89.7791 39.1293C89.7791 41.0221 91.5497 42.4875 93.4424 42.1823L109.805 39.3736C112.125 38.9462 113.713 41.6938 112.187 43.4645L68.2875 98.478C67.4327 99.516 65.7842 98.9054 65.7842 97.5621L65.9063 62.5757C65.9063 60.4998 64.0746 58.9733 62.0598 59.2175L46.7348 61.3546C43.4989 61.782 41.3619 58.0574 43.4378 55.493L85.4441 3.47128C86.7263 1.8227 89.3517 2.73858 89.3517 4.87562Z" fill="#AFACE1"/>
<path opacity="0.7183" d="M90.2067 4.75394L90.6341 39.0077C90.6341 40.9005 92.4047 42.3659 94.2974 42.0606L110.66 39.2519C112.98 38.8245 114.568 41.5721 113.042 43.3428L69.1425 98.3563C68.2877 99.3943 66.6392 98.7838 66.6392 97.4405L66.7613 62.4541C66.7613 60.3781 64.9296 58.8516 62.9148 59.0958L47.5288 61.2939C44.2928 61.7214 42.1559 57.9968 44.2317 55.4323L86.2381 3.41066C87.5813 1.70103 90.2067 2.6169 90.2067 4.75394Z" fill="#AFABE1"/>
<path opacity="0.7324" d="M91.0626 4.63148L91.49 38.8852C91.49 40.778 93.2606 42.2434 95.1534 41.9381L111.516 39.1294C113.836 38.702 115.424 41.4496 113.897 43.2203L69.9984 98.2339C69.1436 99.2719 67.4951 98.6613 67.4951 97.318L67.6172 62.3316C67.6172 60.2556 65.7856 58.7291 63.7707 58.9734L48.4457 61.1104C45.2098 61.5378 43.0728 57.8133 45.1487 55.2488L87.1551 3.22714C88.3762 1.57856 91.0626 2.49444 91.0626 4.63148Z" fill="#AEAAE1"/>
<path opacity="0.7465" d="M91.9171 4.50843L92.3445 38.7621C92.3445 40.655 94.1151 42.1204 96.0079 41.8151L112.371 39.0064C114.691 38.579 116.278 41.3266 114.752 43.0973L70.8529 98.1108C69.9981 99.1488 68.3496 98.5382 68.3496 97.195L68.4717 62.2085C68.4717 60.1326 66.6401 58.6061 64.6252 58.8503L49.3002 60.9874C46.0643 61.4148 43.9273 57.6902 46.0032 55.1258L88.0096 3.10409C89.2307 1.45552 91.9171 2.37139 91.9171 4.50843Z" fill="#ADA9E0"/>
<path opacity="0.7606" d="M92.7706 4.38734L93.198 38.6411C93.198 40.5339 94.9686 41.9993 96.8614 41.694L113.224 38.8853C115.544 38.4579 117.132 41.2055 115.605 42.9762L71.7064 97.9897C70.8516 99.0277 69.2031 98.4172 69.2031 97.0739L69.3253 62.0875C69.3253 60.0115 67.4936 58.485 65.4787 58.7292L50.1538 60.8663C46.9178 61.2937 44.7809 57.5691 46.8567 55.0047L88.8631 2.983C90.0842 1.33442 92.7706 2.2503 92.7706 4.38734Z" fill="#ACA8E0"/>
<path opacity="0.7746" d="M93.6261 4.26429L94.0535 38.518C94.0535 40.4108 95.8241 41.8762 97.7168 41.5709L114.08 38.7622C116.4 38.3348 117.987 41.0825 116.461 42.8532L72.5619 97.8667C71.7071 98.9047 70.0586 98.2941 70.0586 96.9508L70.1807 61.9644C70.1807 59.8884 68.349 58.362 66.3342 58.6062L51.0092 60.7432C47.7733 61.1706 45.6363 57.4461 47.7122 54.8816L89.7185 2.85995C90.9397 1.21137 93.6261 2.12725 93.6261 4.26429Z" fill="#ABA7E0"/>
<path opacity="0.7887" d="M94.4806 4.1432L94.908 38.3969C94.908 40.2897 96.6786 41.7551 98.5713 41.4498L114.934 38.6411C117.254 38.2137 118.842 40.9614 117.315 42.7321L73.4164 97.7456C72.5616 98.7836 70.9131 98.173 70.9131 96.8297L71.0352 61.8433C71.0352 59.7673 69.2035 58.2409 67.1887 58.4851L51.8637 60.6221C48.6278 61.0496 46.4908 57.325 48.5667 54.7605L90.573 2.73886C91.7942 1.09028 94.4806 2.00616 94.4806 4.1432Z" fill="#AAA7E0"/>
<path opacity="0.8028" d="M95.337 4.0221L95.7644 38.2758C95.7644 40.1686 97.535 41.634 99.4278 41.3287L115.791 38.5201C118.111 38.0926 119.698 40.8403 118.172 42.611L74.2728 97.6245C73.418 98.6625 71.7695 98.0519 71.7695 96.7086L71.8916 61.7222C71.8916 59.6462 70.06 58.1198 68.0451 58.364L52.7202 60.501C49.4842 60.9285 47.3473 57.2039 49.4232 54.6395L91.4295 2.61776C92.6506 0.969187 95.337 1.88506 95.337 4.0221Z" fill="#AAA6DF"/>
<path opacity="0.8169" d="M96.1896 3.90101L96.617 38.1547C96.617 40.0475 98.3876 41.5129 100.28 41.2076L116.643 38.399C118.963 37.9715 120.551 40.7192 119.024 42.4899L75.1254 97.5034C74.2706 98.5414 72.6221 97.9308 72.6221 96.5875L72.7442 61.6011C72.7442 59.5251 70.9125 57.9987 68.8977 58.2429L53.5727 60.38C50.3367 60.8074 48.1998 57.0828 50.2757 54.5184L92.282 2.49667C93.5031 0.848094 96.1896 1.76397 96.1896 3.90101Z" fill="#A9A5DF"/>
<path opacity="0.831" d="M97.0456 3.71469L97.4729 37.9684C97.4729 39.8612 99.2436 41.3266 101.136 41.0213L117.499 38.2126C119.819 37.7852 121.407 40.5329 119.88 42.3036L75.9203 97.3171C75.0655 98.3551 73.417 97.7445 73.417 96.4012L73.5391 61.4148C73.5391 59.3388 71.7074 57.8124 69.6926 58.0566L54.3676 60.1936C51.1317 60.621 48.9947 56.8965 51.0706 54.332L93.0769 2.31035C94.3591 0.722832 97.0456 1.63871 97.0456 3.71469Z" fill="#A8A4DF"/>
<path opacity="0.8451" d="M97.9005 3.5936L98.3279 37.8473C98.3279 39.7401 100.099 41.2055 101.991 40.9002L118.354 38.0915C120.674 37.6641 122.262 40.4118 120.735 42.1825L76.8363 97.196C75.9815 98.234 74.333 97.6234 74.333 96.2801L74.4551 61.2937C74.4551 59.2177 72.6235 57.6913 70.6086 57.9355L55.2836 60.0725C52.0477 60.5 49.9107 56.7754 51.9866 54.2109L93.993 2.18925C95.2141 0.601738 97.9005 1.51761 97.9005 3.5936Z" fill="#A7A3DF"/>
<path opacity="0.8592" d="M98.7545 3.47159L99.1819 37.7253C99.1819 39.6181 100.953 41.0835 102.845 40.7782L119.208 37.9696C121.528 37.5421 123.116 40.2898 121.589 42.0605L77.6293 97.074C76.7745 98.112 75.126 97.5014 75.126 96.1581L75.2481 61.1717C75.2481 59.0957 73.4164 57.5693 71.4016 57.8135L56.0766 59.9505C52.8406 60.378 50.7037 56.6534 52.7796 54.0889L94.7249 2.12831C96.0681 0.479737 98.6935 1.39561 98.7545 3.47159Z" fill="#A6A2DE"/>
<path opacity="0.8732" d="M99.6095 3.3475L100.037 37.6012C100.037 39.494 101.808 40.9594 103.7 40.6541L120.063 37.8455C122.383 37.418 123.971 40.1657 122.444 41.9364L78.5453 96.9499C77.6905 97.9879 76.042 97.3773 76.042 96.034L76.1641 61.0476C76.1641 58.9716 74.3324 57.4452 72.3176 57.6894L56.9926 59.8265C53.7567 60.2539 51.6197 56.5293 53.6956 53.9649L95.7019 1.94316C96.9231 0.355645 99.5485 1.27152 99.6095 3.3475Z" fill="#A5A1DE"/>
<path opacity="0.8873" d="M100.464 3.22836L100.891 37.4821C100.891 39.3749 102.662 40.8403 104.555 40.535L120.918 37.7263C123.238 37.2989 124.825 40.0465 123.299 41.8172L79.3998 96.8308C78.545 97.8688 76.8965 97.2582 76.8965 95.9149L77.0186 60.9285C77.0186 58.8525 75.1869 57.326 73.1721 57.5703L57.8471 59.7073C54.6112 60.1347 52.4742 56.4102 54.5501 53.8457L96.5564 1.82402C97.7775 0.236504 100.403 1.15238 100.464 3.22836Z" fill="#A5A0DE"/>
<path opacity="0.9014" d="M101.319 3.10532L101.746 37.359C101.746 39.2518 103.517 40.7172 105.41 40.412L121.773 37.6033C124.093 37.1759 125.68 39.9235 124.154 41.6942L80.1937 96.7077C79.3389 97.7457 77.6904 97.1351 77.6904 95.7918L77.8126 60.8054C77.8126 58.7294 75.9809 57.203 73.966 57.4472L58.6411 59.5843C55.4051 60.0117 53.2682 56.2871 55.344 53.7227L97.3504 1.70097C98.6325 0.113457 101.258 1.02933 101.319 3.10532Z" fill="#A49FDE"/>
<path opacity="0.9155" d="M102.174 2.98422L102.601 37.2379C102.601 39.1307 104.372 40.5961 106.265 40.2909L122.628 37.4822C124.948 37.0548 126.535 39.8024 125.009 41.5731L81.1097 96.5866C80.255 97.6246 78.6065 97.014 78.6065 95.6708L78.7286 60.6843C78.7286 58.6084 76.8969 57.0819 74.8821 57.3261L59.5571 59.4632C56.3211 59.8906 54.1842 56.166 56.2601 53.6016L98.2664 1.57988C99.4875 -0.00763655 102.113 0.908238 102.174 2.98422Z" fill="#A39EDD"/>
<path opacity="0.9296" d="M103.029 2.86092L103.456 37.1146C103.456 39.0075 105.227 40.4729 107.12 40.1676L123.483 37.3589C125.803 36.9315 127.39 39.6791 125.864 41.4498L81.9037 96.4633C81.0489 97.5013 79.4004 96.8908 79.4004 95.5475L79.5225 60.561C79.5225 58.4851 77.6908 56.9586 75.676 57.2028L60.351 59.3399C57.1151 59.7673 54.9781 56.0427 57.054 53.4783L98.9993 1.45658C100.343 -0.191997 102.968 0.784937 103.029 2.86092Z" fill="#A29EDD"/>
<path opacity="0.9437" d="M103.884 2.74085L104.311 36.9946C104.311 38.8874 106.082 40.3528 107.975 40.0475L124.338 37.2388C126.658 36.8114 128.245 39.559 126.719 41.3297L82.8197 96.3433C81.9649 97.3812 80.3164 96.7707 80.3164 95.4274L80.4385 60.441C80.4385 58.365 78.6069 56.8385 76.592 57.0828L61.267 59.2198C58.0311 59.6472 55.8941 55.9227 57.97 53.3582L99.9764 1.33651C101.197 -0.312063 103.823 0.603812 103.884 2.74085Z" fill="#A19DDD"/>
<path opacity="0.9577" d="M104.739 2.61781L105.105 36.8715C105.105 38.7643 106.876 40.2297 108.769 39.9244L125.132 37.1158C127.452 36.6883 129.039 39.436 127.513 41.2067L83.6136 96.2202C82.7589 97.2582 81.1104 96.6476 81.1104 95.3043L81.2325 60.3179C81.2325 58.2419 79.4008 56.7155 77.386 56.9597L62.061 59.0968C58.825 59.5242 56.6881 55.7996 58.764 53.2352L100.77 1.21347C102.052 -0.435109 104.678 0.480765 104.739 2.61781Z" fill="#A09CDD"/>
<path opacity="0.9718" d="M105.592 2.49476L106.02 36.7485C106.02 38.6413 107.79 40.1067 109.683 39.8014L126.046 36.9927C128.366 36.5653 129.954 39.3129 128.427 41.0836L84.4672 96.0972C83.6124 97.1352 81.9639 96.5246 81.9639 95.1813L82.086 60.1949C82.086 58.1189 80.2543 56.5924 78.2395 56.8367L62.9145 58.9737C59.6785 59.4011 57.5416 55.6766 59.6175 53.1121L101.624 1.09042C102.906 -0.558156 105.531 0.357719 105.592 2.49476Z" fill="#A09BDC"/>
<path opacity="0.9859" d="M106.448 2.37367L106.876 36.6274C106.876 38.5202 108.646 39.9856 110.539 39.6803L126.902 36.8716C129.222 36.4442 130.81 39.1918 129.283 40.9625L85.3842 95.9761C84.5294 97.0141 82.8809 96.4035 82.8809 95.0602L83.003 60.0738C83.003 57.9978 81.1713 56.4713 79.1565 56.7156L63.8315 58.8526C60.5955 59.28 58.4586 55.5555 60.5345 52.991L102.541 0.969325C103.762 -0.67925 106.387 0.236625 106.448 2.37367Z" fill="#9F9ADC"/>
<path d="M107.242 2.25062L107.67 36.5043C107.67 38.3971 109.44 39.8625 111.333 39.5573L127.696 36.7486C130.016 36.3212 131.604 39.0688 130.077 40.8395L86.1781 95.853C85.3233 96.891 83.6748 96.2804 83.6748 94.9371L83.7969 59.9507C83.7969 57.8747 81.9653 56.3483 79.9504 56.5925L64.6254 58.7296C61.3895 59.157 59.2525 55.4324 61.3284 52.868L103.274 0.846278C104.617 -0.802297 107.242 0.113578 107.242 2.25062Z" fill="#9E99DC"/>
</svg>
