<svg width="20" height="20" viewBox="0 0 20 20" fill="none" xmlns="http://www.w3.org/2000/svg">
<path d="M11.7781 5C11.9199 4.71757 12 4.39703 12 4.05724C12 2.92106 11.1046 2 10 2C8.89543 2 8 2.92106 8 4.05724C8 4.39703 8.08008 4.71757 8.2219 5" stroke="white" stroke-width="2"/>
<path d="M3.99805 5C3.70523 5 3.42712 5.12834 3.23713 5.35115C3.04714 5.57396 2.96434 5.86885 3.01061 6.15799L4.82957 17.5265C4.9654 18.3755 5.69782 19 6.55759 19H13.4385C14.2983 19 15.0307 18.3755 15.1665 17.5265L16.9855 6.15799C17.0318 5.86885 16.949 5.57396 16.759 5.35115C16.569 5.12834 16.2909 5 15.998 5H3.99805Z" stroke="white" stroke-width="2" stroke-linejoin="round"/>
<path d="M11.499 9.25L11.499 13.75" stroke="white" stroke-width="2" stroke-linecap="round" stroke-linejoin="round"/>
<path d="M8.50098 9.25L8.50098 13.75" stroke="white" stroke-width="2" stroke-linecap="round" stroke-linejoin="round"/>
<path d="M2 5H18" stroke="white" stroke-width="2" stroke-linecap="round"/>
</svg>
