<svg width="20" height="20" viewBox="0 0 20 20" fill="none" xmlns="http://www.w3.org/2000/svg">
<path d="M11.7781 4C11.9199 3.71757 12 3.39703 12 3.05724C12 1.92106 11.1046 1 10 1C8.89543 1 8 1.92106 8 3.05724C8 3.39703 8.08008 3.71757 8.2219 4" stroke="currentColor" stroke-width="2"/>
<path d="M3.99805 4C3.70523 4 3.42712 4.12834 3.23713 4.35115C3.04714 4.57396 2.96434 4.86885 3.01061 5.15799L4.82957 16.5265C4.9654 17.3755 5.69782 18 6.55759 18H13.4385C14.2983 18 15.0307 17.3755 15.1665 16.5265L16.9855 5.15799C17.0318 4.86885 16.949 4.57396 16.759 4.35115C16.569 4.12834 16.2909 4 15.998 4H3.99805Z" stroke="currentColor" stroke-width="2" stroke-linejoin="round"/>
<path d="M11.4985 8.24951L11.4985 12.7495" stroke="currentColor" stroke-width="2" stroke-linecap="round" stroke-linejoin="round"/>
<path d="M8.50146 8.24951L8.50146 12.7495" stroke="currentColor" stroke-width="2" stroke-linecap="round" stroke-linejoin="round"/>
<path d="M2 4H18" stroke="currentColor" stroke-width="2" stroke-linecap="round"/>
</svg>
