<svg width="55" height="48" viewBox="0 0 55 48" fill="none" xmlns="http://www.w3.org/2000/svg">
<path d="M18.377 40C17.1715 40 15.8086 40 14.25 40C6.93223 40 1 34.0509 1 26.7124C1 19.4223 6.85422 13.5033 14.1054 13.4256C14.5483 6.48878 20.2989 1 27.3279 1C34.3571 1 40.1079 6.48915 40.5505 13.4263C40.6169 13.4253 40.6834 13.4248 40.75 13.4248C48.0678 13.4248 54 19.3738 54 26.7124C54 34.0509 48.0678 40 40.75 40C39.1788 40 37.8182 40 36.6229 40" stroke="#5243C2" stroke-width="2" stroke-linecap="round" stroke-linejoin="round"/>
<path fill-rule="evenodd" clip-rule="evenodd" d="M28.2491 25.206L27.4997 24.3496L26.7504 25.206C26.748 25.2087 26.7457 25.2113 26.7434 25.214L20.1361 32.7652C19.7724 33.1808 19.8145 33.8126 20.2302 34.1762C20.6458 34.5399 21.2776 34.4978 21.6413 34.0822L26.4997 28.5297V46.4235C26.4997 46.9758 26.9474 47.4235 27.4997 47.4235C28.052 47.4235 28.4997 46.9758 28.4997 46.4235V28.5297L33.3582 34.0822C33.7219 34.4978 34.3536 34.5399 34.7693 34.1762C35.1849 33.8126 35.227 33.1808 34.8633 32.7652L28.256 25.214C28.2537 25.2113 28.2514 25.2087 28.2491 25.206Z" fill="#5243C2"/>
</svg>
