<svg width="20" height="20" viewBox="0 0 20 20" fill="none" xmlns="http://www.w3.org/2000/svg">
<path d="M10.0004 18.9997L10.0003 17.9997L10.0004 18.9997ZM1.22526 16.0862L2.11481 16.5431L1.22526 16.0862ZM3.00441 18.9999L3.00444 19.9999L3.00441 18.9999ZM18.553 16.1051L17.6586 16.5524L18.553 16.1051ZM16.7642 18.9996L16.7642 19.9996L16.7642 18.9996ZM11.7653 2.52942L12.6598 2.08222L11.7653 2.52942ZM8.19738 2.51015L7.30783 2.05332L8.19738 2.51015ZM10.8709 2.97663L17.6586 16.5524L19.4475 15.6579L12.6598 2.08222L10.8709 2.97663ZM2.11481 16.5431L9.08693 2.96699L7.30783 2.05332L0.335713 15.6294L2.11481 16.5431ZM16.7642 17.9996L10.0003 17.9997L10.0004 19.9997L16.7642 19.9996L16.7642 17.9996ZM10.0003 17.9997L3.00439 17.9999L3.00444 19.9999L10.0004 19.9997L10.0003 17.9997ZM0.335713 15.6294C-0.689584 17.6258 0.760096 19.9999 3.00444 19.9999L3.00439 17.9999C2.25628 17.9999 1.77305 17.2085 2.11481 16.5431L0.335713 15.6294ZM17.6586 16.5524C17.991 17.2172 17.5076 17.9995 16.7642 17.9996L16.7642 19.9996C18.9943 19.9995 20.4448 17.6526 19.4475 15.6579L17.6586 16.5524ZM12.6598 2.08222C11.5609 -0.115638 8.4304 -0.132547 7.30783 2.05332L9.08693 2.96699C9.46111 2.23837 10.5046 2.244 10.8709 2.97663L12.6598 2.08222Z" fill="white"/>
<path d="M10 12.1426C10 10.1342 10 6.99974 10 6.99974" stroke="white" stroke-width="2" stroke-linecap="round" stroke-linejoin="round"/>
<path d="M10 15.2849L10 15.9277" stroke="white" stroke-width="2" stroke-linecap="round" stroke-linejoin="round"/>
</svg>
